<?xml version="1.0" encoding="utf-8"?>
<!-- Generator: Adobe Illustrator 17.0.2, SVG Export Plug-In . SVG Version: 6.00 Build 0)  -->
<!DOCTYPE svg PUBLIC "-//W3C//DTD SVG 1.1//EN" "http://www.w3.org/Graphics/SVG/1.1/DTD/svg11.dtd">
<svg version="1.1" id="Layer_1" xmlns="http://www.w3.org/2000/svg" xmlns:xlink="http://www.w3.org/1999/xlink" x="0px" y="0px"
	 width="612px" height="792px" viewBox="0 0 612 792" enable-background="new 0 0 612 792" xml:space="preserve">
<path fill="#5F8893" d="M403.736,325.713c-1.669-2.231-3.803-3.803-6.402-4.713c2.902-2.34,4.354-5.188,4.354-8.547
	c0-3.357-1.104-6.143-3.314-8.353c-2.011-2.011-4.403-3.096-7.167-3.278v-9.263c0-0.875-0.709-1.584-1.584-1.584
	s-1.584,0.709-1.584,1.584v9.226h-7.799c-0.434,0-0.803,0.152-1.105,0.455c-0.304,0.304-0.455,0.672-0.455,1.105v42.38
	c0,0.434,0.141,0.802,0.423,1.105c0.281,0.304,0.639,0.455,1.072,0.455h7.865v7.576c0,0.875,0.709,1.584,1.584,1.584
	s1.584-0.709,1.584-1.584v-7.576h2.033c3.596,0,6.662-1.268,9.197-3.803c2.535-2.535,3.803-5.6,3.803-9.197
	C406.239,330.469,405.404,327.945,403.736,325.713z M396.131,306.375c1.581,1.604,2.372,3.521,2.372,5.752
	c0,2.232-0.791,4.139-2.372,5.72c-1.385,1.385-3.027,2.163-4.925,2.336v-16.175C393.104,304.183,394.746,304.972,396.131,306.375z
	 M381.864,303.97h6.174v16.25h-6.174V303.97z M381.864,343.1v-19.63h6.174v19.63H381.864z M400.128,340.24
	c-1.907,1.907-4.204,2.86-6.89,2.86h-2.033v-19.63h2.033c2.686,0,4.982,0.965,6.89,2.893c1.906,1.929,2.882,4.236,2.925,6.922
	C403.01,336.015,402.034,338.334,400.128,340.24z"/>
<path fill="#5F8893" d="M347.938,314.144c-1.735,4.293-3.629,6.853-3.629,6.853l-7.559,7.812c0,0-2.091-2.844-4.065-4.908
	c-0.388,0.091-0.818-0.034-1.056-0.5c-0.144-0.282-0.261-0.561-0.368-0.839c-0.394-0.321-0.76-0.568-1.064-0.682
	c-2.016-0.756,0,3.906-0.63,6.3s-0.126,3.78-1.008,4.158c-0.551,0.236-1.692-0.807-2.471-1.622c-0.409-0.01-0.809-0.23-0.933-0.741
	c-0.003-0.014-0.006-0.028-0.009-0.042c-0.307,0.251-1.113,0.875-2.004,1.271c-1.134,0.504-1.26,2.016-1.26,2.016v1.89
	c0,0,5.418,0,6.426,1.386c1.008,1.386,3.402,3.78,3.402,5.922s0.252,6.048-0.504,7.056c-0.756,1.008,1.008,1.26,1.512,2.142
	c0.504,0.882,1.26,3.15,2.646,3.78c1.386,0.63,3.024,1.26,5.166,1.26c2.142,0,2.142,0,2.142,0s-8.694,5.04-12.725,4.788
	s-6.929,1.764-7.433-0.882s-1.26-4.158-1.26-4.158s-5.166-1.638-5.544-1.512s-3.528,0.63-3.528,0.63l-8.441-0.378
	c0,0,5.418-1.89,5.796-3.276s0.756-1.764,1.26-2.268c0.504-0.504-1.638-4.662,1.008-8.189c2.646-3.528,3.654-4.662,5.796-5.292
	s3.024-1.512,3.024-1.512l0.882-3.024l-1.89-0.378c0,0-1.134,3.654-2.898,2.394c-1.764-1.26-2.898-3.276-2.898-3.906
	c0-0.266,0-1.479,0-2.789c-0.175-0.204-0.224-0.62,0-1.121c0-0.467,0-0.914,0-1.305c-0.096-0.414-0.206-0.838-0.153-1.194
	c-0.315,0.6-1.017,0.73-1.477,0.44l-0.133,0.048l-2.142,1.386l-0.504,2.142l-3.78-3.402l-5.796-6.678l-4.536-9.827l-0.362-4.193
	c-2.854,0.206-5.655,0.521-8.387,0.946l2.499,6.537l-14.086,36.024H236.8c2.316,21.338,30.894,38.203,65.83,38.203
	c36.451,0,66-18.356,66-41C368.63,332.172,360.66,321.614,347.938,314.144z M296.935,349.345c-2.394-0.378-6.3-0.882-6.93-3.276
	c-0.63-2.394-1.26-4.284-0.504-6.678c0.756-2.394,1.89-8.063,3.15-9.449c1.26-1.386,4.662-7.308,4.662-7.308l2.646,3.276
	c0,0,4.284,7.812,5.292,9.575c1.008,1.764,2.646,5.922,2.142,7.433c-0.504,1.512,0,4.158-2.268,4.914
	C302.857,348.589,299.329,349.723,296.935,349.345z M354.514,347.455c-0.756,1.764-4.158,1.512-5.922,1.764
	c-1.764,0.252-6.552-1.26-7.938-1.26c-1.386,0-4.41-5.544-4.41-5.544l8.189-14.111l3.402-5.418c0,0,7.56,18.521,8.442,20.285
	C357.16,344.935,355.27,345.691,354.514,347.455z"/>
<g>
	<path fill="#231F20" d="M290.271,311.378c0.036-0.191,0.035-0.364,0.012-0.525c-0.063-0.438-0.293-0.788-0.414-1.192
		c-0.618-2.067-1.533-4.04-1.935-6.176c-0.059-0.313-0.222-0.514-0.429-0.623c0.023-0.641-0.662-1.128-1.263-0.989
		c-0.066-0.015-0.121-0.044-0.196-0.046c-8.608-0.285-16.934-4.081-25.055-0.059c-4.761-8.874-18.558,3.215-25.482,0.326
		c-0.701-0.293-1.163,0.259-1.189,0.862c-0.011,0.026-0.031,0.04-0.041,0.068c-4.167,11.399-9.337,22.373-14.216,33.476
		c-0.069,0.157-0.092,0.31-0.089,0.457c-0.707,0.225-1.076,1.332-0.245,1.835c0.03,0.018,0.06,0.032,0.09,0.051
		c-0.256,0.218-0.418,0.547-0.318,0.968c0.528,2.238,1.193,4.344,1.35,6.662c0.038,0.557,0.427,0.982,1,1
		c0.392,0.012,0.784,0.013,1.176,0.018c0.159,0.147,0.377,0.24,0.671,0.213c1.405-0.131,2.81-0.209,4.215-0.268
		c0.863-0.026,1.725-0.054,2.587-0.082c6.35-0.106,12.7,0.304,19.061,0.349c8.418,0.06,16.776-0.813,25.17,0.231
		c0.16,0.02,0.293-0.001,0.411-0.041c0.454,0.02,0.901-0.235,1.008-0.748c0.233-0.093,0.42-0.287,0.469-0.638
		c0.517-3.672,2.653-6.817,3.947-10.226c1.346-3.545,2.078-7.298,3.629-10.769c1.182-2.647,2.32-5.313,3.408-8
		c0.493-1.217,0.903-2.495,1.463-3.682C289.469,312.976,290.094,312.331,290.271,311.378z M221.79,337.509
		c4.842-11.017,9.958-21.913,14.136-33.207c6.831,1.419,20.315-8.321,23.624-0.969c0.021,0.047,0.052,0.072,0.077,0.11
		c-2.67,3.339-4.185,7.158-5.72,11.127c-0.083,0.216-0.07,0.399-0.022,0.564c-0.736,0.429-1.474,0.854-2.22,1.265
		c-0.155,0.085-0.31,0.171-0.465,0.256c0.105-0.383,0.007-0.811-0.442-1.067c-3.237-1.844-4.378-6.045-5.544-9.332
		c-0.261-0.736-1.08-0.949-1.671-0.441c-1.761,1.514-3.45,2.65-5.794,2.976c-0.734,0.102-0.851,0.781-0.587,1.308
		c-0.129,0.326-0.12,0.715,0.146,1.056c1.067,1.371,2.351,3.23,4.136,3.721c1.35,0.371,3.128-1.655,3.97-1.262
		c0.427,0.199,0.848,0.482,1.264,0.816c0.64,0.91,1.39,1.724,2.297,2.381c0.198,0.244,0.395,0.492,0.59,0.743
		c-4.598,2.521-9.219,5.055-13.496,8.081c-0.926,0.655-1.822,1.353-2.705,2.066c-0.417,0.033-0.781,0.352-0.913,0.741
		c-3.303,2.76-6.393,5.803-9.691,8.547c-0.341,0.284-0.384,0.634-0.27,0.941c-0.254-0.101-0.508-0.212-0.762-0.335
		C221.746,337.563,221.773,337.547,221.79,337.509z M260.78,338.046c-1.547-0.231-3.094-0.444-4.643-0.574
		c-2.715-0.229-6.204-0.442-8.697,0.985c0.679-2.531,1.242-5.096,2.522-7.413c0.226-0.408,0.138-0.798-0.087-1.079
		c2.317-0.914,4.504-1.953,6.375-2.806c0.328-0.149,0.656-0.298,0.985-0.447c1.286,1.52,2.496,3.103,3.605,4.785
		C257.994,333.384,258.482,336.624,260.78,338.046z M247.901,330.694c-1.288,2.607-1.864,5.446-2.668,8.231
		c-0.007-0.004-0.01-0.01-0.017-0.013c-7.026-3.552-14.189,1.186-21.109-0.471c0.022-0.016,0.045-0.018,0.067-0.036
		c3.208-2.67,6.245-5.537,9.427-8.234C237.586,333.194,242.917,332.414,247.901,330.694z M235.207,328.867
		c0.621-0.504,1.232-1.02,1.87-1.504c4.207-3.193,9.077-5.647,13.7-8.191c0.773,1.047,1.504,2.036,2.182,2.771
		c1.009,1.094,2.001,2.187,2.979,3.29C249.558,328.395,240.688,332.534,235.207,328.867z M252.404,318.256
		c7.828-4.501,15.478-10.293,24.347-12.233c-1.757,1.428-3.037,2.965-3.466,5.823c-0.982,6.531-8.33,9.107-13.641,11.572
		c-0.567,0.263-1.182,0.563-1.835,0.886C256.04,322.262,254.199,320.279,252.404,318.256z M257.016,344.824
		c-3.611,0.121-5.855-0.097-8.773-2.397c-0.768-0.605-2.016-0.947-2.972-0.628c-1.141,0.38-1.687,0.737-2.477,1.699
		c-2.205,2.686-6.782,1.731-9.871,1.812c-0.687,0.018-1.372,0.04-2.058,0.062c-1.385,0.012-2.771,0.047-4.157,0.119
		c-1.031,0.023-2.063,0.041-3.096,0.038c-1.334-0.004-1.826-4.161-2.098-5.794c2.437,1.131,4.975,1.598,7.789,1.183
		c5.136-0.757,9.896-2.811,14.903-0.279c0.075,0.038,0.147,0.046,0.22,0.065c0.226,0.209,0.527,0.295,0.887,0.343
		c0.259,0.034,0.499,0.167,0.751,0.232c0.015,0.004,0.029,0.003,0.044,0.006c0.417,0.188,0.961,0.151,1.313-0.312
		c2.24-2.944,8.999-1.521,12.094-1.16c3.622,0.422,7.243,1.249,10.895,1.403c0.632,1.24,1.396,2.399,2.376,3.345
		C267.531,344.591,262.264,344.647,257.016,344.824z M263.681,332.427c0.511-0.136,0.711-0.54,0.697-0.948
		c3.111-0.484,3.818,0.957,2.112,4.331C262.53,338.402,259.849,333.444,263.681,332.427z M278.662,319
		c-2.587,6.833-6.301,13.119-8.152,20.221c-1.975-0.073-3.945-0.316-5.913-0.602c0.522-0.104,1.066-0.27,1.632-0.521
		c7.515-3.325,2.258-10.679-3.872-7.927c-1.005-1.498-2.094-2.929-3.24-4.314c3.891-1.767,7.763-3.589,11.326-5.964
		c1.562-1.042,3.543-2.582,4.101-4.469c0.452-1.528,0.661-3,0.898-4.572c0.405-2.693,3.635-4.06,5.567-5.545
		c0.693-0.533,0.606-1.956-0.505-1.864c-9.126,0.763-16.511,5.615-24.099,10.194c1.282-3.273,2.649-6.435,4.947-9.179
		c0.201-0.24,0.266-0.507,0.241-0.758c7.397-3.875,15.406-0.515,23.256,0.056C282.24,308.604,280.611,313.854,278.662,319z"/>
	<path fill="#231F20" d="M319.874,284.278h-0.918c-1.29,0-1.29,2,0,2h0.918C321.164,286.278,321.164,284.278,319.874,284.278z"/>
</g>
<path fill="#231F20" d="M356.279,340.706c-2.739-6.658-6.321-12.738-7.836-19.874c-0.161-0.759-1.034-0.888-1.562-0.51
	c-0.476-0.071-0.931-0.113-1.368-0.097c1.991-2.877,3.532-6.007,4.122-9.671c1.025-6.367-0.729-12.82-3.481-18.512
	c-2.114-4.372-6.391-9.743-11.833-9.264c-3.721,0.328-4.538,6.136-6.099,8.888c-0.243-0.255-0.501-0.507-0.778-0.761
	c-2.321-2.129-0.472-3.823-1.349-6.069c-0.823-2.107-2.422-3.281-4.726-3.433c-1.799-0.118-4.698-0.41-6.132,1.025
	c-0.19,0.19-0.331,0.377-0.437,0.568c-0.042,0.018-0.083,0.017-0.126,0.041c-1.785,1.013-3.257,2.459-4.898,3.674
	c-0.227,0.168-0.348,0.385-0.398,0.61c-0.826-1.363-1.945-2.403-4.011-2.421c-4.914-0.041-8.06,3.261-9.885,7.641
	c-2.573,6.178-2.66,12.625-0.078,18.829c1.452,3.49,4.021,6.171,6.286,9.121c0.016,0.02,0.034,0.04,0.05,0.06h-1.233
	c-0.031,0-0.051,0.014-0.081,0.016c-0.752,0.011-1.502,0.035-2.251,0.099c-0.091-0.042-0.185-0.073-0.282-0.084
	c-0.465-0.636-1.596-0.711-1.741,0.249c-0.717,4.748-4.042,8.156-5.625,12.548c-1.087,3.016-3.064,7.635-2.327,10.944
	c1.31,5.888,8.247,6.07,13.172,5.68c14.991-1.187,2.601-20.248-1.852-27.424c0.525-0.016,1.051-0.022,1.577-0.023
	c0.01,0,0.016-0.005,0.026-0.005h2.075c0.093,0,0.164-0.03,0.244-0.049c2.322,2.457,5.095,4.86,6.435,7.673
	c0.554,1.164,2.279,0.148,1.727-1.01c-0.512-1.074-1.128-1.92-1.866-2.706c0.255,0.139,0.568,0.155,0.895-0.059
	c1.036-0.678,1.928-1.522,2.761-2.432c0.123,2.767-0.978,5.578-0.217,8.339c0.716,2.593,3.687,2.714,5.659,1.716
	c0.849-0.43,1.384-1.193,1.726-2.091c0.175,0.077,0.345,0.137,0.516,0.198c-0.013,0.063-0.04,0.114-0.043,0.185
	c-0.025,0.491-0.219,0.968-0.245,1.468c-0.005,0.101,0.022,0.181,0.04,0.266c-3.52,0.505-6.861,2.46-8.829,5.435
	c-1.779,2.689-2.588,6.464-1.544,9.499c-1.228,0.295-1.677,1.105-1.928,2.375c-0.449,2.278-4.515,2.98-6.362,3.029
	c-0.301,0.008-0.524,0.129-0.685,0.301c-0.129,0.001-0.258,0.005-0.387,0.005c-1.29,0.006-1.29,2.006,0,2
	c4.747-0.022,9.489-0.284,14.236-0.306c0.3-0.001,0.522-0.117,0.683-0.284c1.459,0.989,3.204,1.506,5.062,1.502
	c0.008,3.833,1.761,5.743,5.741,5.364c6.149-0.585,12.353-2.663,17.644-5.8c0.853-0.506,0.496-1.866-0.505-1.864
	c-3.342,0.008-6.625,1.206-9.108-2.01c-1.034-1.34-1.657-2.729-2.742-3.96c2.238-5.66,0.993-12.565-5.829-14.842
	c-0.75-0.25-1.523-0.408-2.304-0.497c0.058-0.219,0.047-0.464-0.097-0.718c-0.15-0.265-0.349-0.499-0.55-0.727
	c-0.033-0.037-0.066-0.075-0.099-0.113c0.8-0.11,1.467-0.523,1.93-1.298c0.824,1.026,1.948,2.327,3.374,2.259
	c1.281-0.062,1.878-1.332,2.143-2.415c0.601-2.45,0.37-5.194,0.039-7.744c2.005,1.822,3.812,3.804,4.626,6.541
	c0.203,0.683,1.156,1.024,1.671,0.441c2.267-2.565,4.67-5.049,6.781-7.694c0.043-0.007,0.08,0.003,0.125-0.009
	c1.072-0.303,1.679-0.222,2.009,0.078c-2.606,7.088-7.955,12.766-10.74,19.816c-0.206,0.521,0.05,0.9,0.434,1.08
	c1.856,3.304,3.874,5.032,7.612,6.12c2.976,0.866,8.099,1.102,10.814-0.642C357.373,346.836,357.728,344.229,356.279,340.706z
	 M296.12,343.157c-2.027-0.146-4.027-0.451-5.946-0.917c0.2-1.883,0.927-3.887,1.327-5.34c1.02-3.704,3.255-6.892,4.871-10.314
	c-0.083,5.518-0.239,11.035-0.256,16.554C296.117,343.147,296.12,343.151,296.12,343.157z M306.5,342.642
	c-0.1-0.011-0.199-0.026-0.312-0.006c-2.607,0.47-5.355,0.681-8.095,0.618c0.004-0.04,0.023-0.07,0.023-0.113
	c0.019-6.21,0.208-12.417,0.276-18.626C301.45,329.284,306.68,337.283,306.5,342.642z M340.437,298.517
	c1.304,0.863,2.491,2.081,3.563,3.459c-0.069,0.127-0.116,0.273-0.124,0.447c-0.105,2.45-1.384,4.61-2.06,6.94
	c-0.396-0.539-0.825-1.057-1.278-1.577c-0.353-0.405-0.729-0.791-1.116-1.166C339.994,303.92,340.778,301.226,340.437,298.517z
	 M334.872,302.927c0.945-1.659,1.046-3.775,0.762-5.644c0.885-0.112,1.731-0.048,2.536,0.176c0.779,2.563,0.128,5.107-0.458,7.65
	c-0.925-0.752-1.896-1.457-2.872-2.146C334.85,302.948,334.863,302.943,334.872,302.927z M330.969,299.173
	c0.198,0.029,0.415-0.014,0.636-0.174c0.723-0.521,1.421-0.902,2.1-1.186c0.183,1.304,0.106,2.839-0.509,3.998
	c-0.485-0.339-0.966-0.677-1.438-1.018c-0.388-0.281-0.769-0.218-1.042,0.009C330.836,300.261,330.922,299.717,330.969,299.173z
	 M311.104,300.876c-0.929,0.574-1.908,1.045-2.859,1.601c-0.062,0.036-0.116,0.082-0.173,0.125
	c-0.293-1.131-0.332-2.348-0.324-3.541C308.867,299.733,309.987,300.484,311.104,300.876z M303.199,297.876
	c0.849-0.281,1.703-0.155,2.561,0.169c-0.004,2.042,0,4.143,0.707,6.074c-0.183,0.103-0.383,0.184-0.625,0.211
	c-0.541,0.062-1.001,0.408-1,1c0,0.284-0.027,0.542-0.057,0.797c-1.051-2.547-1.563-5.362-1.617-7.839
	c-0.003-0.14-0.038-0.259-0.083-0.368C303.125,297.907,303.16,297.889,303.199,297.876z M301.219,316.665
	c-2.125-2.777-3.791-5.614-4.766-8.676c0.036-0.078,0.08-0.148,0.097-0.249c0.114-0.673,0.258-1.353,0.433-2.027
	c0.909,3.268,2.462,6.165,4.508,8.7C301.397,315.162,301.336,315.925,301.219,316.665z M302.103,311.902
	c-1.822-2.604-3.113-5.583-3.715-8.98c-0.034-0.195-0.118-0.333-0.219-0.447c0.723-1.434,1.708-2.69,3.028-3.597
	c0.155,3.3,1.015,6.877,2.684,9.902c-0.547,0.974-1.227,1.892-1.766,3.088C302.11,311.88,302.107,311.891,302.103,311.902z
	 M309.164,325.271c-0.036,0.266,0.032,0.54,0.163,0.769c-0.373-0.367-0.772-0.728-1.205-1.099c-2.111-1.808-3.616-4.125-5.322-6.286
	c0.007-0.018,0.021-0.028,0.027-0.047c0.234-0.712,0.393-1.418,0.527-2.116c1.904,1.92,4.108,3.598,6.528,5.039
	C309.602,322.769,309.336,324.01,309.164,325.271z M311.101,315.606c-0.185,1.301-0.466,2.583-0.759,3.863
	c-2.479-1.538-4.688-3.329-6.526-5.4c0.25-1.14,0.615-2.252,1.319-3.329c1.482,1.982,3.397,3.573,5.798,4.435
	c0.076,0.027,0.141,0.021,0.212,0.03C311.128,315.337,311.12,315.473,311.101,315.606z M311.367,313.203
	c-2.191-0.816-3.892-2.402-5.165-4.361c0.355-0.846,0.555-1.711,0.614-2.684c0.227-0.058,0.439-0.137,0.648-0.239
	c0.916,1.174,2.187,2.039,3.537,2.725c0.24,0.122,0.468,0.126,0.678,0.078C311.594,310.218,311.506,311.716,311.367,313.203z
	 M312.027,303.582c-0.098,1.068-0.169,2.142-0.233,3.219c-1.086-0.571-2.035-1.229-2.732-2.134c0.968-0.77,1.997-1.351,3.042-2.037
	C312.078,302.946,312.055,303.274,312.027,303.582z M313.848,293.676c-0.079-0.087-0.175-0.168-0.307-0.23
	c-1.639-0.77-2.399-2.473-3.166-4.156c0.108,0.035,0.226,0.058,0.365,0.05c1.615-0.093,3.186-0.09,4.791-0.016
	C315.379,290.707,314.534,292.247,313.848,293.676z M319.136,328.54c-0.041,1.058-0.204,2.123-0.686,3.074
	c-2.592,0.577-3.784,0.035-3.578-1.625c0.015-0.54,0.054-1.079,0.117-1.616c0.204-2.168,0.653-4.276,0.128-6.419
	c0.667-0.812,1.333-1.624,2.046-2.381c0.455-0.482,0.911-0.96,1.368-1.439C318.729,321.604,319.269,325.048,319.136,328.54z
	 M308.357,354.541c0.7-0.454,1.333-1.033,1.772-1.741c0.469-0.758,0.132-1.801,1.184-1.959c0.033-0.005,0.052-0.023,0.083-0.031
	c0.389,0.544,0.855,1.046,1.427,1.477c0.359,0.787,0.813,1.49,1.332,2.118C312.221,354.429,310.289,354.485,308.357,354.541z
	 M336.026,356.914c0.916,0.55,2.018,0.706,3.161,0.708c-2.522,1.096-5.143,1.909-7.894,2.464c-3.089,0.622-8.293,2.633-8.224-2.683
	c0.964-0.198,1.942-0.528,2.917-1.026c2.168-1.108,3.936-2.938,5.173-5.087C332.745,353.249,333.689,355.511,336.026,356.914z
	 M328.944,340.535c2.36,3.094,2.382,8.385-1.4,10.541c-3.046,1.736-7.431,1.152-9.462-1.941c-1.752-2.668-1.526-7.548,2.399-8.246
	c2.407-0.428,7.468,1.57,5.852,4.847c-1.125,2.281-4.624,2.932-5.796,0.358c-0.53-1.165,1.193-2.182,1.727-1.01
	c0.654,0.805,1.319,0.878,1.993,0.218c-0.276-1.995-1.357-2.823-3.244-2.484c-1.52,0.575-2.56,2.102-1.979,3.767
	c0.609,1.746,2.068,3.131,3.944,3.417c6.392,0.975,7.327-7.8,1.922-10.148c-3.384-1.47-10.588,1.188-10.202,5.726
	c0.276,3.24,3.409,7.772,6.994,7.555c1.289-0.078,1.281,1.923,0,2c-3.961,0.239-7.545-3.861-8.587-7.387
	c-1.128-3.819,1.099-7.378,4.584-9.098C321.547,336.745,326.115,336.827,328.944,340.535z M321.195,330.031
	c-0.059-0.03-0.115-0.029-0.173-0.047c0.138-1.065,0.142-2.138,0.148-2.983c0.019-2.572-0.331-5.124-0.546-7.683
	c0.983-0.05,1.903-0.3,2.735-0.756c0.104,2.093,0.245,4.184,0.378,6.273C323.863,326.81,324.676,331.769,321.195,330.031z
	 M323.633,299.728c-0.236-1.28-0.408-2.57-0.412-3.888c-0.003-1.29-2.003-1.29-2,0c0.004,1.435,0.208,2.836,0.478,4.225
	c-0.663,0.1-1.314,0.119-1.908-0.061c0.127-1.439,0.256-2.878,0.369-4.317c0.1-1.287-1.9-1.277-2,0
	c-0.095,1.215-0.18,2.433-0.262,3.652c-0.132,0.045-0.257,0.117-0.364,0.233c-1.155,0.616-2.113,0.463-2.872-0.459
	c-0.048-0.04-0.101-0.051-0.15-0.08c0.155-1.049,0.331-2.093,0.553-3.124c0.582-2.698,2.716-4.434,2.492-7.263
	c-0.031-0.393-0.25-0.651-0.524-0.803c-0.31-2.197-0.831-4.32,2.241-4.511c4.38-0.272,4.727,2.668,5.008,6.08
	c0.098,1.191,0.988,2.09,1.747,2.908c1.552,1.672,2.413,3.249,2.698,4.971c-0.361-0.082-0.74,0.041-0.94,0.495
	c-0.792,1.788-1.931,1.817-3.629,1.889C323.989,299.681,323.812,299.704,323.633,299.728z M324.869,311.968
	c-0.173-0.086-0.339-0.107-0.499-0.101c-0.01-0.013-0.017-0.029-0.028-0.041c0.437-0.51,0.879-1.014,1.301-1.539
	c1.802-2.24,3.755-5.172,4.734-8.249c0.066,0.179,0.185,0.346,0.371,0.481c0.58,0.419,1.184,0.838,1.797,1.262
	c-0.248,0.157-0.438,0.409-0.455,0.783c-0.137,2.942-2.819,6.259-5.168,7.862c-0.17,0.116-0.281,0.259-0.354,0.412
	C326.026,312.54,325.459,312.26,324.869,311.968z M328.938,328.96c-0.037,0.703-0.052,1.824-0.524,2.406
	c-0.258,0.319-1.818-1.607-1.965-1.791c-0.203-0.255-0.445-0.353-0.679-0.344c0.536-3.474,0.029-7.236-0.312-10.874
	c1.013,1.166,2.196,2.208,3.391,3.244c-0.182,0.214-0.292,0.495-0.244,0.833C328.905,324.586,329.052,326.79,328.938,328.96z
	 M329.569,315.046c-0.084,0.003-0.148,0.035-0.221,0.054c-0.348-0.442-0.723-0.823-1.125-1.155c2.797-2.019,5.549-5.606,5.842-9.105
	c0.804,0.567,1.602,1.155,2.371,1.771c-0.306,0.137-0.538,0.417-0.519,0.863C336.077,311.108,333.39,314.901,329.569,315.046z
	 M333.126,322.432c-0.563-1.305-0.559-2.944-1.316-4.135c-0.313-0.492-0.666-0.95-1.029-1.403c4.125-0.807,7.124-4.807,7.133-9.015
	c1.007,0.936,1.906,1.958,2.628,3.096c-0.142,0.118-0.26,0.276-0.304,0.519c-0.811,4.47-2.774,8.8-7.041,10.883
	C333.167,322.392,333.154,322.416,333.126,322.432z M336.63,327.673c-0.652-1.318-1.569-2.46-2.601-3.522
	c0.06-0.018,0.117-0.017,0.177-0.047c4.198-2.049,6.532-6.14,7.622-10.519c0.7,1.72,1.35,3.339,3.278,4.087
	C342.874,321.344,339.455,324.624,336.63,327.673z M343.202,311.843c0.115-0.146,0.206-0.317,0.226-0.542
	c0.216-2.505,1.564-4.677,2.162-7.073c0.645,0.998,1.242,2.014,1.792,2.985c0.116,0.206,0.275,0.319,0.443,0.394
	c-0.064,1.775-0.278,3.544-0.677,5.275c-0.242,1.047-0.616,2.062-1.089,3.049c-0.052-0.027-0.09-0.065-0.15-0.084
	C344.215,315.299,343.77,313.333,343.202,311.843z M345.615,330.668c-0.269,3.644-0.406,7.288-0.361,10.942
	c0,0.032,0.015,0.053,0.018,0.083c-2.552,0.057-5.105,0.113-7.658,0.131c2.236-5.069,5.66-9.477,8.245-14.33
	C345.776,328.552,345.693,329.61,345.615,330.668z M347.246,341.651c0-0.015,0.008-0.026,0.008-0.042
	c-0.063-5.047,0.292-10.069,0.681-15.092c1.568,4.757,3.755,9.296,5.962,13.804c0.209,0.427,0.375,0.829,0.51,1.213
	C352.02,341.55,349.633,341.599,347.246,341.651z"/>
</svg>
