<?xml version="1.0" encoding="utf-8"?>
<!-- Generator: Adobe Illustrator 17.0.2, SVG Export Plug-In . SVG Version: 6.00 Build 0)  -->
<!DOCTYPE svg PUBLIC "-//W3C//DTD SVG 1.1//EN" "http://www.w3.org/Graphics/SVG/1.1/DTD/svg11.dtd">
<svg version="1.1" id="Layer_1" xmlns="http://www.w3.org/2000/svg" xmlns:xlink="http://www.w3.org/1999/xlink" x="0px" y="0px"
	 width="252px" height="252px" viewBox="180 270 252 252" enable-background="new 180 270 252 252" xml:space="preserve">
<g>
	<g>
		<path fill="#5A835F" d="M249.667,418l-2.083-0.238c-0.125,0.904-0.2,1.816-0.229,2.736L249.667,418z"/>
		<path fill="#5A835F" d="M359.634,392.112L360,405.667l-1,4.667l7.333,8.333L319,419.333l5.228,6.89l-76.273,0.715
			c4.415,19.981,31.989,35.376,65.366,35.376c36.451,0,66-18.356,66-41C379.321,409.882,371.782,399.547,359.634,392.112z"/>
	</g>
	<g>
		<path fill="#5A835F" d="M395.689,342.127c0-0.433,0.151-0.801,0.455-1.105c0.303-0.302,0.672-0.455,1.105-0.455
			s0.801,0.152,1.104,0.455c0.303,0.304,0.455,0.672,0.455,1.105v2.6c4.073,0.348,7.931,1.864,11.57,4.55
			c0.606,0.477,0.91,0.954,0.91,1.43c0,0.478-0.163,0.877-0.487,1.203c-0.325,0.325-0.716,0.487-1.171,0.487
			c-0.454,0-0.855-0.151-1.202-0.455c-3.033-2.427-6.283-3.835-9.75-4.225v18.2c4.94,1.04,8.515,2.525,10.725,4.453
			c2.211,1.929,3.315,4.55,3.315,7.865s-1.3,6.088-3.9,8.32s-5.937,3.413-10.01,3.542v5.07c0,0.433-0.152,0.801-0.455,1.105
			c-0.304,0.303-0.672,0.455-1.104,0.455c-0.434,0-0.803-0.152-1.105-0.455c-0.304-0.304-0.455-0.672-0.455-1.105v-5.135
			c-5.417-0.433-10.292-2.535-14.625-6.305c-0.477-0.39-0.715-0.823-0.715-1.3s0.163-0.877,0.487-1.203
			c0.325-0.325,0.716-0.487,1.17-0.487c0.455,0,0.834,0.152,1.138,0.455c3.727,3.467,7.951,5.438,12.675,5.915v-18.525
			c-4.854-1.083-8.363-2.578-10.529-4.485c-2.168-1.906-3.25-4.495-3.25-7.768c0-3.271,1.288-6.022,3.867-8.255
			c2.578-2.231,5.839-3.39,9.782-3.478L395.689,342.127L395.689,342.127z M388.247,350.058c-1.929,1.647-2.893,3.651-2.893,6.013
			s0.736,4.247,2.21,5.655c1.473,1.409,4.226,2.59,8.255,3.542v-17.745C392.7,347.566,390.175,348.411,388.247,350.058z
			 M406.447,384.605c1.972-1.667,2.957-3.715,2.957-6.142s-0.77-4.344-2.307-5.753c-1.539-1.407-4.346-2.567-8.418-3.478v17.94
			C401.886,387.13,404.475,386.274,406.447,384.605z"/>
	</g>
	<rect x="248.333" y="399.333" fill="#FFFFFF" width="67.333" height="8.667"/>
	<g>
		<polygon fill="#231F20" points="285.561,366.86 279.894,366.849 279.228,387.286 285.561,387.286 		"/>
		<rect x="212.303" y="368.716" fill="#231F20" width="4.758" height="5.234"/>
		<rect x="220.55" y="368.716" fill="#231F20" width="4.758" height="5.234"/>
		<rect x="229.432" y="368.716" fill="#231F20" width="4.758" height="5.234"/>
		<rect x="212.303" y="383.657" fill="#231F20" width="4.758" height="18.827"/>
		<rect x="220.55" y="383.657" fill="#231F20" width="4.758" height="18.827"/>
		<rect x="229.432" y="383.657" fill="#231F20" width="4.758" height="18.827"/>
		<rect x="238.288" y="368.716" fill="#231F20" width="4.758" height="5.234"/>
		<rect x="238.288" y="383.657" fill="#231F20" width="4.758" height="18.827"/>
		<rect x="331.653" y="368.716" fill="#231F20" width="4.758" height="5.234"/>
		<rect x="340.535" y="368.716" fill="#231F20" width="4.758" height="5.234"/>
		<rect x="349.416" y="368.716" fill="#231F20" width="4.758" height="5.234"/>
		<rect x="331.653" y="383.657" fill="#231F20" width="4.758" height="18.827"/>
		<rect x="321.288" y="368.716" fill="#231F20" width="4.758" height="5.234"/>
		<rect x="321.288" y="383.657" fill="#231F20" width="4.758" height="18.827"/>
		<rect x="340.535" y="383.657" fill="#231F20" width="4.758" height="18.827"/>
		<rect x="349.416" y="383.657" fill="#231F20" width="4.758" height="18.827"/>
	</g>
</g>
<path fill="#231F20" d="M374.333,422.333l-12.437-12.61h0.046l-0.494-29.89h5.845l-0.402-17.443H313.65l-0.832-17.357l-28.84-0.188
	v-4.424l8.401-2.419l-11.401-11.4v18.223l-29.714-0.194l-0.729,17.092h-49.776l0.2,18.11h4.593l-0.598,27.175L204.667,407l-13,13
	h53.294l-8.511,8.072l91.557-0.363l-5.739-5.375L374.333,422.333L374.333,422.333z M283.978,333.845l2.683,2.683l-2.683,0.772
	V333.845z M317.167,406.724v-8.89h-1.817l-0.863-18h43.962l0.444,26.89H317.167z M363.96,365.391l0.264,11.443h-49.881
	l-0.549-11.443H363.96z M283.978,347.845l25.979,0.17l1.431,29.815v2.003h0.096l0.864,18h-5.186l-1.567-38.712l-2.355,0.095h-19.261
	v-11.371H283.978z M302.717,362.217l1.442,35.617h-6.611l-0.653-30.877l-7-0.106l0.653,30.984h-5.246v-8.828L279.635,389
	l-0.63,8.833h-4.437l0.327-30.877h-6.667l-0.327,30.877h-7.207l0.577-35.617h41.446V362.217z M254.138,347.65l26.84,0.175v11.391
	h-22.659l-0.625,38.617h-5.695L254.138,347.65z M251.87,400.833h5.775l-0.001,0.032h3l0.001-0.032h43.619v0.032h3v-0.032h5.227
	l1.719-0.081l-0.02,0.114h0.157v5.675h-64.493V406.5h-0.02v-4.855l0.02-0.771v-0.008h0.174L251.87,400.833z M203.925,376.833
	l-0.133-12.11h46.615l-0.516,12.11H203.925z M207.96,406.724l0.592-26.89h41.211l-0.767,18h-2.162v8.89H207.96z M258.022,424.986
	l-14.017,0.056l16.387-15.542h8.149L258.022,424.986z M305.918,424.796L295.154,409.5h9.173l0.001,0.14l16.12,15.099
	L305.918,424.796z"/>
</svg>
