<?xml version="1.0" encoding="utf-8"?>
<!-- Generator: Adobe Illustrator 17.0.2, SVG Export Plug-In . SVG Version: 6.00 Build 0)  -->
<!DOCTYPE svg PUBLIC "-//W3C//DTD SVG 1.1//EN" "http://www.w3.org/Graphics/SVG/1.1/DTD/svg11.dtd">
<svg version="1.1" id="Layer_1" xmlns="http://www.w3.org/2000/svg" xmlns:xlink="http://www.w3.org/1999/xlink" x="0px" y="0px"
	 width="612px" height="792px" viewBox="0 0 612 792" enable-background="new 0 0 612 792" xml:space="preserve">
<g>
	<g>
		<path fill="#5A835F" d="M260.667,347l-2.083-0.238c-0.125,0.904-0.2,1.816-0.229,2.736L260.667,347z"/>
		<path fill="#5A835F" d="M370.634,321.112L371,334.667l-1,4.667l7.333,8.333L330,348.333l5.228,6.89l-76.273,0.715
			c4.415,19.981,31.989,35.376,65.366,35.376c36.451,0,66-18.356,66-41C390.321,338.882,382.782,328.547,370.634,321.112z"/>
	</g>
	<g>
		<path fill="#5A835F" d="M406.689,271.127c0-0.433,0.151-0.801,0.455-1.105c0.303-0.302,0.672-0.455,1.105-0.455
			c0.433,0,0.801,0.152,1.104,0.455c0.303,0.304,0.455,0.672,0.455,1.105v2.6c4.073,0.348,7.931,1.864,11.57,4.55
			c0.606,0.477,0.91,0.954,0.91,1.43c0,0.478-0.163,0.877-0.487,1.203c-0.325,0.325-0.716,0.487-1.171,0.487
			c-0.454,0-0.855-0.151-1.202-0.455c-3.033-2.427-6.283-3.835-9.75-4.225v18.2c4.94,1.04,8.515,2.525,10.725,4.453
			c2.211,1.929,3.315,4.55,3.315,7.865c0,3.315-1.3,6.088-3.9,8.32c-2.6,2.232-5.937,3.413-10.01,3.542v5.07
			c0,0.433-0.152,0.801-0.455,1.105c-0.304,0.303-0.672,0.455-1.104,0.455c-0.434,0-0.803-0.152-1.105-0.455
			c-0.304-0.304-0.455-0.672-0.455-1.105v-5.135c-5.417-0.433-10.292-2.535-14.625-6.305c-0.477-0.39-0.715-0.823-0.715-1.3
			c0-0.477,0.163-0.877,0.487-1.203c0.325-0.325,0.716-0.487,1.17-0.487c0.455,0,0.834,0.152,1.138,0.455
			c3.727,3.467,7.951,5.438,12.675,5.915v-18.525c-4.854-1.083-8.363-2.578-10.529-4.485c-2.168-1.906-3.25-4.495-3.25-7.768
			c0-3.271,1.288-6.022,3.867-8.255c2.578-2.231,5.839-3.39,9.782-3.478V271.127z M399.247,279.058
			c-1.929,1.647-2.893,3.651-2.893,6.013c0,2.362,0.736,4.247,2.21,5.655c1.473,1.409,4.226,2.59,8.255,3.542v-17.745
			C403.7,276.566,401.175,277.411,399.247,279.058z M417.447,313.605c1.972-1.667,2.957-3.715,2.957-6.142
			c0-2.427-0.77-4.344-2.307-5.753c-1.539-1.407-4.346-2.567-8.418-3.478v17.94C412.886,316.13,415.475,315.274,417.447,313.605z"/>
	</g>
	<rect x="259.333" y="328.333" fill="#FFFFFF" width="67.333" height="8.667"/>
	<g>
		<polygon fill="#231F20" points="296.561,295.86 290.894,295.849 290.228,316.286 296.561,316.286 		"/>
		<rect x="223.303" y="297.716" fill="#231F20" width="4.758" height="5.234"/>
		<rect x="231.55" y="297.716" fill="#231F20" width="4.758" height="5.234"/>
		<rect x="240.432" y="297.716" fill="#231F20" width="4.758" height="5.234"/>
		<rect x="223.303" y="312.657" fill="#231F20" width="4.758" height="18.827"/>
		<rect x="231.55" y="312.657" fill="#231F20" width="4.758" height="18.827"/>
		<rect x="240.432" y="312.657" fill="#231F20" width="4.758" height="18.827"/>
		<rect x="249.288" y="297.716" fill="#231F20" width="4.758" height="5.234"/>
		<rect x="249.288" y="312.657" fill="#231F20" width="4.758" height="18.827"/>
		<rect x="342.653" y="297.716" fill="#231F20" width="4.758" height="5.234"/>
		<rect x="351.535" y="297.716" fill="#231F20" width="4.758" height="5.234"/>
		<rect x="360.416" y="297.716" fill="#231F20" width="4.758" height="5.234"/>
		<rect x="342.653" y="312.657" fill="#231F20" width="4.758" height="18.827"/>
		<rect x="332.288" y="297.716" fill="#231F20" width="4.758" height="5.234"/>
		<rect x="332.288" y="312.657" fill="#231F20" width="4.758" height="18.827"/>
		<rect x="351.535" y="312.657" fill="#231F20" width="4.758" height="18.827"/>
		<rect x="360.416" y="312.657" fill="#231F20" width="4.758" height="18.827"/>
	</g>
</g>
<path fill="#231F20" d="M385.333,351.333l-12.437-12.61h0.046l-0.494-29.89h5.845l-0.402-17.443H324.65l-0.832-17.357l-28.84-0.188
	v-4.424l8.401-2.419l-11.401-11.4v18.223l-29.714-0.194l-0.729,17.092h-49.776l0.2,18.11h4.593l-0.598,27.175L215.667,336l-13,13
	h53.294l-8.511,8.072l91.557-0.363l-5.739-5.375H385.333z M294.978,262.845l2.683,2.683l-2.683,0.772V262.845z M328.167,335.724
	v-8.89h-1.817l-0.863-18h43.962l0.444,26.89H328.167z M374.96,294.391l0.264,11.443h-49.881l-0.549-11.443H374.96z M294.978,276.845
	l25.979,0.17l1.431,29.815v2.003h0.096l0.864,18h-5.186l-1.567-38.712l-2.355,0.095h-19.261V276.845z M313.717,291.217l1.442,35.617
	h-6.611l-0.653-30.877l-7-0.106l0.653,30.984h-5.246v-8.828L290.635,318l-0.63,8.833h-4.437l0.327-30.877h-6.667l-0.327,30.877
	h-7.207l0.577-35.617H313.717z M265.138,276.65l26.84,0.175v11.391h-22.659l-0.625,38.617h-5.695L265.138,276.65z M262.87,329.833
	h5.775l-0.001,0.032h3l0.001-0.032h43.619l0,0.032h3l0-0.032h5.227l1.719-0.081l-0.02,0.114h0.157v5.675h-64.493V335.5h-0.02v-4.855
	l0.02-0.771v-0.008h0.174L262.87,329.833z M214.925,305.833l-0.133-12.11h46.615l-0.516,12.11H214.925z M218.96,335.724l0.592-26.89
	h41.211l-0.767,18h-2.162v8.89H218.96z M269.022,353.986l-14.017,0.056l16.387-15.542h8.149L269.022,353.986z M316.918,353.796
	L306.154,338.5h9.173l0.001,0.14l16.12,15.099L316.918,353.796z"/>
</svg>
