<?xml version="1.0" encoding="utf-8"?>
<!-- Generator: Adobe Illustrator 17.0.2, SVG Export Plug-In . SVG Version: 6.00 Build 0)  -->
<!DOCTYPE svg PUBLIC "-//W3C//DTD SVG 1.1//EN" "http://www.w3.org/Graphics/SVG/1.1/DTD/svg11.dtd">
<svg version="1.1" id="Layer_1" xmlns="http://www.w3.org/2000/svg" xmlns:xlink="http://www.w3.org/1999/xlink" x="0px" y="0px"
	 width="252px" height="252px" viewBox="180 270 252 252" enable-background="new 180 270 252 252" xml:space="preserve">
<path fill="#A29352" d="M325.778,388.05c-0.012,1.388-0.169,2.745-0.577,3.94c-1.89,5.544-4.41,8.945-4.41,8.945l-7.559,7.812
	c0,0-4.536-6.174-6.552-6.929c-2.016-0.756,0,3.906-0.63,6.3s-0.126,3.78-1.008,4.158s-3.276-2.52-3.276-2.52
	s-1.008,0.882-2.142,1.386s-1.26,2.016-1.26,2.016v1.89c0,0,5.418,0,6.426,1.386s3.402,3.78,3.402,5.922s0.252,6.048-0.504,7.056
	s1.008,1.26,1.512,2.142s1.26,3.15,2.646,3.78s3.024,1.26,5.166,1.26s2.142,0,2.142,0s-8.694,5.04-12.725,4.788
	s-6.929,1.764-7.433-0.882s-1.26-4.158-1.26-4.158s-5.166-1.638-5.544-1.512s-3.528,0.63-3.528,0.63l-8.441-0.378
	c0,0,5.418-1.89,5.796-3.276s0.756-1.764,1.26-2.268s-1.638-4.662,1.008-8.189c2.646-3.528,3.654-4.662,5.796-5.292
	s3.024-1.512,3.024-1.512l0.882-3.024l-1.89-0.378c0,0-1.134,3.654-2.898,2.394c-1.764-1.26-2.898-3.276-2.898-3.906
	s0-6.552,0-6.552l-1.764,0.63l-2.142,1.386l-0.504,2.142l-3.78-3.402l-5.796-6.678l-4.536-9.827l-0.727-8.41
	c-4.794,0.543-9.414,1.396-13.787,2.545c2.132,3.645,3.359,7.883,3.359,12.411c0,13.6-11.025,24.625-24.625,24.625
	c-6.949,0-13.221-2.883-17.698-7.512c-0.877,2.666-1.338,5.426-1.338,8.252c0,22.644,29.549,41,66,41s66-18.356,66-41
	C348.964,406.749,339.96,395.57,325.778,388.05z M273.418,429.284c-2.394-0.378-6.3-0.882-6.93-3.276s-1.26-4.284-0.504-6.678
	s1.89-8.063,3.15-9.449c1.26-1.386,4.662-7.308,4.662-7.308l2.646,3.276c0,0,4.284,7.812,5.292,9.575
	c1.008,1.764,2.646,5.922,2.142,7.433c-0.504,1.512,0,4.158-2.268,4.914C279.339,428.528,275.812,429.662,273.418,429.284z
	 M330.996,427.394c-0.756,1.764-4.158,1.512-5.922,1.764s-6.552-1.26-7.938-1.26s-4.41-5.544-4.41-5.544l8.189-14.111l3.402-5.418
	c0,0,7.56,18.521,8.442,20.285C333.642,424.874,331.752,425.63,330.996,427.394z"/>
<path fill="#231F20" d="M236.085,368.758c-14.267,0-25.833,11.566-25.833,25.833s11.566,25.833,25.833,25.833
	c14.267,0,25.833-11.566,25.833-25.833S250.353,368.758,236.085,368.758z M228,416.284c-10.057-3.155-14.198-14.593-14.198-14.593
	s4.93-3.944,4.93-2.761s4.338,7.691,4.338,7.691l0.197-7.691l-9.86-9.268c2.366-12.226,14.396-16.762,14.396-16.762v14.198h-4.733
	v-3.352l-3.155,4.141l8.085,8.085V416.284z M241.607,379.999h-5.324v9.466h5.127v7.494h-4.93v13.607h4.93v5.916
	c-5.522,2.169-10.846,0.592-10.846,0.592v-44.962c5.522-2.564,11.043,0.394,11.043,0.394L241.607,379.999L241.607,379.999z
	 M244.762,415.495l-0.197-41.609c10.452,3.352,13.41,15.973,13.41,15.973l-4.141,1.972l-4.536-5.719l0.197,17.748l3.55-4.93
	l4.338,2.366C253.833,412.142,244.762,415.495,244.762,415.495z"/>
<g>
	<path fill="#A29352" d="M382.359,398.758l-0.585,0.064c-0.737,0-1.234-0.346-1.495-1.04l-4.029-10.725h-20.735l-4.03,10.725
		c-0.26,0.694-0.759,1.04-1.495,1.04l-0.585-0.064c-0.39-0.173-0.682-0.466-0.877-0.878c-0.195-0.411-0.206-0.812-0.032-1.202
		l15.795-42.186c0.303-0.649,0.845-0.975,1.625-0.975c0.779,0,1.277,0.325,1.495,0.975l15.795,42.186
		c0.172,0.39,0.172,0.791,0,1.202C383.031,398.292,382.75,398.585,382.359,398.758z M365.915,359.433l-9.23,24.439h18.396
		L365.915,359.433z"/>
	<path fill="#A29352" d="M388.729,385.822v-17.354c0-0.433,0.151-0.802,0.455-1.105c0.303-0.303,0.672-0.455,1.105-0.455
		s0.801,0.152,1.104,0.455c0.303,0.304,0.455,0.673,0.455,1.105v17.354c0,2.73,0.953,5.049,2.86,6.955
		c1.906,1.907,4.203,2.883,6.89,2.925c2.73-0.042,5.06-1.018,6.988-2.925c1.927-1.906,2.892-4.225,2.892-6.955v-17.354
		c0-0.433,0.163-0.802,0.488-1.105c0.324-0.303,0.703-0.455,1.137-0.455s0.802,0.152,1.105,0.455
		c0.303,0.304,0.455,0.673,0.455,1.105v17.354c0,3.598-1.268,6.663-3.803,9.197c-2.535,2.535-5.601,3.803-9.197,3.803
		c-3.598,0-6.652-1.268-9.165-3.803C389.986,392.485,388.729,389.42,388.729,385.822z"/>
</g>
<g>
	<path fill="#231F20" d="M296.255,364.319h-0.918c-1.29,0-1.29,2,0,2h0.918C297.544,366.319,297.544,364.319,296.255,364.319z"/>
	<path fill="#231F20" d="M332.761,420.645c-2.739-6.658-6.321-12.738-7.836-19.874c-0.161-0.759-1.034-0.888-1.562-0.51
		c-0.476-0.071-0.931-0.113-1.368-0.097c1.991-2.877,3.532-6.007,4.122-9.671c1.025-6.367-0.729-12.82-3.481-18.512
		c-2.114-4.372-6.391-9.743-11.833-9.264c-3.721,0.328-4.538,6.136-6.099,8.888c-0.243-0.255-0.501-0.507-0.778-0.761
		c-2.321-2.129-0.472-3.823-1.349-6.069c-0.823-2.107-2.422-3.281-4.726-3.433c-1.799-0.118-4.698-0.41-6.132,1.025
		c-0.19,0.19-0.331,0.377-0.437,0.568c-0.042,0.018-0.083,0.017-0.126,0.041c-1.785,1.013-3.257,2.459-4.898,3.674
		c-0.227,0.168-0.348,0.385-0.398,0.61c-0.826-1.363-1.945-2.403-4.011-2.421c-4.914-0.041-8.06,3.261-9.885,7.641
		c-2.573,6.178-2.66,12.625-0.078,18.829c1.452,3.49,4.021,6.171,6.286,9.121c0.016,0.02,0.034,0.04,0.05,0.06h-1.233
		c-0.031,0-0.051,0.014-0.081,0.016c-0.752,0.011-1.502,0.035-2.251,0.099c-0.091-0.042-0.185-0.073-0.282-0.084
		c-0.465-0.636-1.596-0.711-1.741,0.249c-0.717,4.748-4.042,8.156-5.625,12.548c-1.087,3.016-3.064,7.635-2.327,10.944
		c1.31,5.888,8.247,6.07,13.172,5.68c14.991-1.187,2.601-20.248-1.852-27.424c0.525-0.016,1.051-0.022,1.577-0.023
		c0.01,0,0.016-0.005,0.026-0.005h2.075c0.093,0,0.164-0.03,0.244-0.049c2.322,2.457,5.095,4.86,6.435,7.673
		c0.554,1.164,2.279,0.148,1.727-1.01c-0.512-1.074-1.128-1.92-1.866-2.706c0.255,0.139,0.568,0.155,0.895-0.059
		c1.036-0.678,1.928-1.522,2.761-2.432c0.123,2.767-0.978,5.578-0.217,8.339c0.716,2.593,3.687,2.714,5.659,1.716
		c0.849-0.43,1.384-1.193,1.726-2.091c0.175,0.077,0.345,0.137,0.516,0.198c-0.013,0.063-0.04,0.114-0.043,0.185
		c-0.025,0.491-0.219,0.968-0.245,1.468c-0.005,0.101,0.022,0.181,0.04,0.266c-3.52,0.505-6.861,2.46-8.829,5.435
		c-1.779,2.689-2.588,6.464-1.544,9.499c-1.228,0.295-1.677,1.105-1.928,2.375c-0.449,2.278-4.515,2.98-6.362,3.029
		c-0.301,0.008-0.524,0.129-0.685,0.301c-0.129,0.001-0.258,0.005-0.387,0.005c-1.29,0.006-1.29,2.006,0,2
		c4.747-0.022,9.489-0.284,14.236-0.306c0.3-0.001,0.522-0.117,0.683-0.284c1.459,0.989,3.204,1.506,5.062,1.502
		c0.008,3.833,1.761,5.743,5.741,5.364c6.149-0.585,12.353-2.663,17.644-5.8c0.853-0.506,0.496-1.866-0.505-1.864
		c-3.342,0.008-6.625,1.206-9.108-2.01c-1.034-1.34-1.657-2.729-2.742-3.96c2.238-5.66,0.993-12.565-5.829-14.842
		c-0.75-0.25-1.523-0.408-2.304-0.497c0.058-0.219,0.047-0.464-0.097-0.718c-0.15-0.265-0.349-0.499-0.55-0.727
		c-0.033-0.037-0.066-0.075-0.099-0.113c0.8-0.11,1.467-0.523,1.93-1.298c0.824,1.026,1.948,2.327,3.374,2.259
		c1.281-0.062,1.878-1.332,2.143-2.415c0.601-2.45,0.37-5.194,0.039-7.744c2.005,1.822,3.812,3.804,4.626,6.541
		c0.203,0.683,1.156,1.024,1.671,0.441c2.267-2.565,4.67-5.049,6.781-7.694c0.043-0.007,0.08,0.003,0.125-0.009
		c1.072-0.303,1.679-0.222,2.009,0.078c-2.606,7.088-7.955,12.766-10.74,19.816c-0.206,0.521,0.05,0.9,0.434,1.08
		c1.856,3.304,3.874,5.032,7.612,6.12c2.976,0.866,8.099,1.102,10.814-0.642C333.856,426.775,334.211,424.168,332.761,420.645z
		 M272.603,423.096c-2.027-0.146-4.027-0.451-5.946-0.917c0.2-1.883,0.927-3.887,1.327-5.34c1.02-3.704,3.255-6.892,4.871-10.314
		c-0.083,5.518-0.239,11.035-0.256,16.554C272.599,423.086,272.603,423.09,272.603,423.096z M282.983,422.581
		c-0.1-0.011-0.199-0.026-0.312-0.006c-2.607,0.47-5.355,0.681-8.095,0.618c0.004-0.04,0.023-0.07,0.023-0.113
		c0.019-6.21,0.208-12.417,0.276-18.626C277.933,409.223,283.162,417.222,282.983,422.581z M316.919,378.456
		c1.304,0.863,2.491,2.081,3.563,3.459c-0.069,0.127-0.116,0.273-0.124,0.447c-0.105,2.45-1.384,4.61-2.06,6.94
		c-0.396-0.539-0.825-1.057-1.278-1.577c-0.353-0.405-0.729-0.791-1.116-1.166C316.476,383.859,317.26,381.165,316.919,378.456z
		 M311.354,382.866c0.945-1.659,1.046-3.775,0.762-5.644c0.885-0.112,1.731-0.048,2.536,0.176c0.779,2.563,0.128,5.107-0.458,7.65
		c-0.925-0.752-1.896-1.457-2.872-2.146C311.332,382.887,311.345,382.882,311.354,382.866z M307.451,379.112
		c0.198,0.029,0.415-0.014,0.636-0.174c0.723-0.521,1.421-0.902,2.1-1.186c0.183,1.304,0.106,2.839-0.509,3.998
		c-0.485-0.339-0.966-0.677-1.438-1.018c-0.388-0.281-0.769-0.218-1.042,0.009C307.319,380.2,307.404,379.656,307.451,379.112z
		 M287.587,380.815c-0.929,0.574-1.908,1.045-2.859,1.601c-0.062,0.036-0.116,0.082-0.173,0.125
		c-0.293-1.131-0.332-2.348-0.324-3.541C285.349,379.672,286.47,380.423,287.587,380.815z M279.682,377.815
		c0.849-0.281,1.703-0.155,2.561,0.169c-0.004,2.042,0,4.143,0.707,6.074c-0.183,0.103-0.383,0.184-0.625,0.211
		c-0.541,0.062-1.001,0.408-1,1c0,0.284-0.027,0.542-0.057,0.797c-1.051-2.547-1.563-5.362-1.617-7.839
		c-0.003-0.14-0.038-0.259-0.083-0.368C279.607,377.846,279.642,377.828,279.682,377.815z M277.702,396.604
		c-2.125-2.777-3.791-5.614-4.766-8.676c0.036-0.078,0.08-0.148,0.097-0.249c0.114-0.673,0.258-1.353,0.433-2.027
		c0.909,3.268,2.462,6.165,4.508,8.7C277.88,395.101,277.818,395.864,277.702,396.604z M278.585,391.841
		c-1.822-2.604-3.113-5.583-3.715-8.98c-0.034-0.195-0.118-0.333-0.219-0.447c0.723-1.434,1.708-2.69,3.028-3.597
		c0.155,3.3,1.015,6.877,2.684,9.902c-0.547,0.974-1.227,1.892-1.766,3.088C278.593,391.819,278.59,391.83,278.585,391.841z
		 M285.646,405.21c-0.036,0.266,0.032,0.54,0.163,0.769c-0.373-0.367-0.772-0.728-1.205-1.099c-2.111-1.808-3.616-4.125-5.322-6.286
		c0.007-0.018,0.021-0.028,0.027-0.047c0.234-0.712,0.393-1.418,0.527-2.116c1.904,1.92,4.108,3.598,6.528,5.039
		C286.084,402.708,285.818,403.949,285.646,405.21z M287.584,395.545c-0.185,1.301-0.466,2.583-0.759,3.863
		c-2.479-1.538-4.688-3.329-6.526-5.4c0.25-1.14,0.615-2.252,1.319-3.329c1.482,1.982,3.397,3.573,5.798,4.435
		c0.076,0.027,0.141,0.021,0.212,0.03C287.611,395.276,287.603,395.412,287.584,395.545z M287.85,393.142
		c-2.191-0.816-3.892-2.402-5.165-4.361c0.355-0.846,0.555-1.711,0.614-2.684c0.227-0.058,0.439-0.137,0.648-0.239
		c0.916,1.174,2.187,2.039,3.537,2.725c0.24,0.122,0.468,0.126,0.678,0.078C288.076,390.157,287.989,391.655,287.85,393.142z
		 M288.509,383.521c-0.098,1.068-0.169,2.142-0.233,3.219c-1.086-0.571-2.035-1.229-2.732-2.134c0.968-0.77,1.997-1.351,3.042-2.037
		C288.56,382.885,288.538,383.213,288.509,383.521z M290.331,373.615c-0.079-0.087-0.175-0.168-0.307-0.23
		c-1.639-0.77-2.399-2.473-3.166-4.156c0.108,0.035,0.226,0.058,0.365,0.05c1.615-0.093,3.186-0.09,4.791-0.016
		C291.862,370.646,291.017,372.186,290.331,373.615z M295.618,408.479c-0.041,1.058-0.204,2.123-0.686,3.074
		c-2.592,0.577-3.784,0.035-3.578-1.625c0.015-0.54,0.054-1.079,0.117-1.616c0.204-2.168,0.653-4.276,0.128-6.419
		c0.667-0.812,1.333-1.624,2.046-2.381c0.455-0.482,0.911-0.96,1.368-1.439C295.211,401.543,295.752,404.987,295.618,408.479z
		 M284.839,434.48c0.7-0.454,1.333-1.033,1.772-1.741c0.469-0.758,0.132-1.801,1.184-1.959c0.033-0.005,0.052-0.023,0.083-0.031
		c0.389,0.544,0.855,1.046,1.427,1.477c0.359,0.787,0.813,1.49,1.332,2.118C288.704,434.368,286.771,434.424,284.839,434.48z
		 M312.509,436.853c0.916,0.55,2.018,0.706,3.161,0.708c-2.522,1.096-5.143,1.909-7.894,2.464c-3.089,0.622-8.293,2.633-8.224-2.683
		c0.964-0.198,1.942-0.528,2.917-1.026c2.168-1.108,3.936-2.938,5.173-5.087C309.227,433.188,310.171,435.45,312.509,436.853z
		 M305.426,420.474c2.36,3.094,2.382,8.385-1.4,10.541c-3.046,1.736-7.431,1.152-9.462-1.941c-1.752-2.668-1.526-7.548,2.399-8.246
		c2.407-0.428,7.468,1.57,5.852,4.847c-1.125,2.281-4.624,2.932-5.796,0.358c-0.53-1.165,1.193-2.182,1.727-1.01
		c0.654,0.805,1.319,0.878,1.993,0.218c-0.276-1.995-1.357-2.823-3.244-2.484c-1.52,0.575-2.56,2.102-1.979,3.767
		c0.609,1.746,2.068,3.131,3.944,3.417c6.392,0.975,7.327-7.8,1.922-10.148c-3.384-1.47-10.588,1.188-10.202,5.726
		c0.276,3.24,3.409,7.772,6.994,7.555c1.289-0.078,1.281,1.923,0,2c-3.961,0.239-7.545-3.861-8.587-7.387
		c-1.128-3.819,1.099-7.378,4.584-9.098C298.029,416.684,302.598,416.766,305.426,420.474z M297.678,409.97
		c-0.059-0.03-0.115-0.029-0.173-0.047c0.138-1.065,0.142-2.138,0.148-2.983c0.019-2.572-0.331-5.124-0.546-7.683
		c0.983-0.05,1.903-0.3,2.735-0.756c0.104,2.093,0.245,4.184,0.378,6.273C300.345,406.749,301.158,411.708,297.678,409.97z
		 M300.115,379.667c-0.236-1.28-0.408-2.57-0.412-3.888c-0.003-1.29-2.003-1.29-2,0c0.004,1.435,0.208,2.836,0.478,4.225
		c-0.663,0.1-1.314,0.119-1.908-0.061c0.127-1.439,0.256-2.878,0.369-4.317c0.1-1.287-1.9-1.277-2,0
		c-0.095,1.215-0.18,2.433-0.262,3.652c-0.132,0.045-0.257,0.117-0.364,0.233c-1.155,0.616-2.113,0.463-2.872-0.459
		c-0.048-0.04-0.101-0.051-0.15-0.08c0.155-1.049,0.331-2.093,0.553-3.124c0.582-2.698,2.716-4.434,2.492-7.263
		c-0.031-0.393-0.25-0.651-0.524-0.803c-0.31-2.197-0.831-4.32,2.241-4.511c4.38-0.272,4.727,2.668,5.008,6.08
		c0.098,1.191,0.988,2.09,1.747,2.908c1.552,1.672,2.413,3.249,2.698,4.971c-0.361-0.082-0.74,0.041-0.94,0.495
		c-0.792,1.788-1.931,1.817-3.629,1.889C300.471,379.62,300.294,379.643,300.115,379.667z M301.352,391.907
		c-0.173-0.086-0.339-0.107-0.499-0.101c-0.01-0.013-0.017-0.029-0.028-0.041c0.437-0.51,0.879-1.014,1.301-1.539
		c1.802-2.24,3.755-5.172,4.734-8.249c0.066,0.179,0.185,0.346,0.371,0.481c0.58,0.419,1.184,0.838,1.797,1.262
		c-0.248,0.157-0.438,0.409-0.455,0.783c-0.137,2.942-2.819,6.259-5.168,7.862c-0.17,0.116-0.281,0.259-0.354,0.412
		C302.508,392.479,301.942,392.199,301.352,391.907z M305.42,408.899c-0.037,0.703-0.052,1.824-0.524,2.406
		c-0.258,0.319-1.818-1.607-1.965-1.791c-0.203-0.255-0.445-0.353-0.679-0.344c0.536-3.474,0.029-7.236-0.312-10.874
		c1.013,1.166,2.196,2.208,3.391,3.244c-0.182,0.214-0.292,0.495-0.244,0.833C305.388,404.525,305.534,406.729,305.42,408.899z
		 M306.051,394.985c-0.084,0.003-0.148,0.035-0.221,0.054c-0.348-0.442-0.723-0.823-1.125-1.155
		c2.797-2.019,5.549-5.606,5.842-9.105c0.804,0.567,1.602,1.155,2.371,1.771c-0.306,0.137-0.538,0.417-0.519,0.863
		C312.559,391.047,309.872,394.84,306.051,394.985z M309.609,402.371c-0.563-1.305-0.559-2.944-1.316-4.135
		c-0.313-0.492-0.666-0.95-1.029-1.403c4.125-0.807,7.124-4.807,7.133-9.015c1.007,0.936,1.906,1.958,2.628,3.096
		c-0.142,0.118-0.26,0.276-0.304,0.519c-0.811,4.47-2.774,8.8-7.041,10.883C309.649,402.331,309.636,402.354,309.609,402.371z
		 M313.113,407.612c-0.652-1.318-1.569-2.46-2.601-3.522c0.06-0.018,0.117-0.017,0.177-0.047c4.198-2.049,6.532-6.14,7.622-10.519
		c0.7,1.72,1.35,3.339,3.278,4.087C319.357,401.282,315.938,404.562,313.113,407.612z M319.684,391.782
		c0.115-0.146,0.206-0.317,0.226-0.542c0.216-2.505,1.564-4.677,2.162-7.073c0.645,0.998,1.242,2.014,1.792,2.985
		c0.116,0.206,0.275,0.319,0.443,0.394c-0.064,1.775-0.278,3.544-0.677,5.275c-0.242,1.047-0.616,2.062-1.089,3.049
		c-0.052-0.027-0.09-0.065-0.15-0.084C320.698,395.238,320.253,393.272,319.684,391.782z M322.097,410.607
		c-0.269,3.644-0.406,7.288-0.361,10.942c0,0.032,0.015,0.053,0.018,0.083c-2.552,0.057-5.105,0.113-7.658,0.131
		c2.236-5.069,5.66-9.477,8.245-14.33C322.259,408.491,322.175,409.549,322.097,410.607z M323.729,421.59
		c0-0.015,0.008-0.026,0.008-0.042c-0.063-5.047,0.292-10.069,0.681-15.092c1.568,4.757,3.755,9.296,5.962,13.804
		c0.209,0.427,0.375,0.829,0.51,1.213C328.502,421.489,326.115,421.538,323.729,421.59z"/>
</g>
</svg>
