<?xml version="1.0" encoding="utf-8"?>
<!-- Generator: Adobe Illustrator 17.0.2, SVG Export Plug-In . SVG Version: 6.00 Build 0)  -->
<!DOCTYPE svg PUBLIC "-//W3C//DTD SVG 1.1//EN" "http://www.w3.org/Graphics/SVG/1.1/DTD/svg11.dtd">
<svg version="1.1" id="Layer_1" xmlns="http://www.w3.org/2000/svg" xmlns:xlink="http://www.w3.org/1999/xlink" x="0px" y="0px"
	 width="252px" height="252px" viewBox="180 270 252 252" enable-background="new 180 270 252 252" xml:space="preserve">
<path fill="#5F8893" d="M321.297,433.766l-8.134-0.478l-18.899-6.22l-8.373,0.239l-1.435-14.832l-0.478-18.899l-3.828-11.961
	l5.741,1.196l25.597,8.134l15.071,7.177l11.961,9.091l4.067,10.526l1.714,3.551c2.628-4.423,4.067-9.205,4.067-14.195
	c0-22.644-29.549-41-66-41s-66,18.356-66,41s29.549,41,66,41c19.171,0,36.425-5.082,48.483-13.191L321.297,433.766z"/>
<path fill="#5F8893" d="M392.316,378.493c-1.669-2.231-3.803-3.803-6.402-4.713c2.902-2.34,4.354-5.188,4.354-8.547
	c0-3.357-1.104-6.143-3.314-8.353c-2.011-2.011-4.403-3.097-7.168-3.278v-9.263c0-0.875-0.709-1.584-1.584-1.584
	s-1.584,0.709-1.584,1.584v9.226h-7.799c-0.434,0-0.803,0.152-1.105,0.455c-0.304,0.304-0.455,0.672-0.455,1.105v42.38
	c0,0.434,0.141,0.802,0.423,1.105c0.281,0.304,0.639,0.455,1.072,0.455h7.865v7.576c0,0.875,0.709,1.584,1.584,1.584
	s1.584-0.709,1.584-1.584v-7.576h2.033c3.596,0,6.662-1.268,9.197-3.803s3.803-5.6,3.803-9.197
	C394.819,383.249,393.984,380.725,392.316,378.493z M384.712,359.155c1.581,1.604,2.372,3.521,2.372,5.752
	c0,2.232-0.791,4.139-2.372,5.72c-1.385,1.385-3.027,2.163-4.925,2.336v-16.175C381.685,356.963,383.326,357.752,384.712,359.155z
	 M370.444,356.75h6.174V373h-6.174V356.75z M370.444,395.88v-19.63h6.174v19.63H370.444z M388.709,393.02
	c-1.907,1.907-4.204,2.86-6.89,2.86h-2.033v-19.63h2.033c2.686,0,4.982,0.965,6.89,2.893c1.906,1.929,2.882,4.236,2.925,6.922
	C391.591,388.795,390.615,391.114,388.709,393.02z"/>
<path fill="#231F20" d="M348.937,423.056c-0.667-1.272-1.437-2.168-2.482-3.173c-2.488-2.394-3.26-4.477-3.856-7.932
	c-0.676-3.919-2.395-6.203-5.592-8.45c-7.349-5.168-15.138-9.796-23.474-13.18c-7.714-3.131-15.697-5.412-23.634-7.841
	c0.112-0.45,0.285-0.916,0.553-1.413c0.275-0.511,0.647-1.037,0.792-1.608c0.494-1.944,0.464-3.797,0.23-5.789
	c-0.394-3.345-0.396-5.253,0.941-8.282c0.462-1.046,0.361-2.483-0.221-3.475c-0.357-0.61-0.902-1.085-1.424-1.545
	c-0.671-0.591-1.254-3.94-1.56-5.243c-0.48-2.044-2.473-3.219-3.143-5.205c-0.574-1.7-1.246-2.336-2.81-3.159
	c-2.652-1.395-5.316-0.176-7.926-2.744c-1.037-1.02-2.483-1.526-3.878-1.806c-2.471-0.497-5.411-1.233-7.432,0.787
	c-0.851,0.851-1.12,2.416-2.943,2.108c-0.753-0.128-1.579-0.684-2.376-0.598c-1.254,0.135-1.804,0.207-2.685,1.087
	c-1.727,1.725-4.281,4.55-4.971,6.915c-1.166,3.997-0.552,8.632-0.128,12.695c0.54,5.176,1.751,10.252,2.491,15.397
	c0.289,2.005,1.362,3.682,2.576,5.238c2.049,2.626,2.593,5.152,2.584,8.458c-0.011,4.379-3.515,3.564-6.292,4.877
	c-2.354,1.113-3.95,2.758-5.685,4.675c-3.195,3.53-7.993,4.753-10.656,8.72c-0.414,0.117-0.787,0.398-0.983,0.891
	c-0.799,2.01-2.157,3.563-2.816,5.632c-0.224,0.702,0.255,1.613,0.999,1.76c12.112,2.38,24.424,3.352,36.76,3.328
	c3.309-0.006,6.59-0.206,9.857-0.495l1.652,31.467l2.996-0.157l-1.659-31.594c0.651-0.069,1.301-0.143,1.951-0.217
	c-0.015,2.177-0.08,4.332,0.528,6.501c0.204,0.729,1.078,1.342,1.845,1.048c6.414-2.461,12.521-0.053,18.858,1.391
	c2.716,0.619,4.879,1.413,7.277,2.859c1.182,0.712,2.713,1.427,4.11,1.439c1.852,0.016,3.729-0.654,5.598-0.828
	c0.862,0.109,1.727,0.173,2.581,0.195c0.211,0.061,0.422,0.132,0.633,0.222c1.611,0.688,2.485,2.564,4.189,3.193
	c1.754,0.647,3.375,0.745,5.235,0.743c1.61-0.002,3.116-0.091,4.727,0.166c2.437,0.389,2.437,3.334,2.919,5.007
	c0.338,1.173,2.151,1.571,2.742,0.358c1.844-3.789,1.847-7.322,1.672-11.475c-0.112-2.668,0.524-4.793,1.44-7.233
	C349.441,425.738,349.459,424.052,348.937,423.056z M337.749,411.338c0.032,0.033,0.065,0.058,0.098,0.087
	c0.001,0.002,0.001,0.004,0.002,0.005c-7.74-2.172-15.892-1.544-23.674-3.54c-0.062-0.016-0.119-0.019-0.178-0.028
	c0.206-1.232,0.245-2.577,0.159-3.974C322.364,404.807,331.771,405.023,337.749,411.338z M325.047,399.865
	c0.264,0.094,0.503,0.108,0.719,0.071c1.456,0.896,2.896,1.832,4.304,2.846c0.735,0.529,1.514,0.997,2.302,1.451
	c-5.744-2.313-12.41-2.664-18.548-3.387c-0.202-1.322-0.463-2.628-0.731-3.863C317.24,397.283,321.103,398.453,325.047,399.865z
	 M310.388,406.707c1.935,0,1.935,3,0,3S308.453,406.707,310.388,406.707z M307.753,404.436c-1.935,0-1.935-3,0-3
	C309.687,401.436,309.687,404.436,307.753,404.436z M306.247,409.707c-1.935,0-1.935-3,0-3S308.181,409.707,306.247,409.707z
	 M305.682,392.778c1.935,0,1.935,3,0,3S303.748,392.778,305.682,392.778z M303.235,400.683c1.935,0,1.935,3,0,3
	C301.301,403.683,301.301,400.683,303.235,400.683z M300.412,403.883c1.935,0,1.935,3,0,3S298.477,403.883,300.412,403.883z
	 M300.035,396.354c1.935,0,1.935,3,0,3S298.101,396.354,300.035,396.354z M300.6,389.39c1.935,0,1.935,3,0,3
	S298.666,389.39,300.6,389.39z M297.588,393.343c1.935,0,1.935,3,0,3S295.654,393.343,297.588,393.343z M296.459,404.436
	c-1.935,0-1.935-3,0-3S298.394,404.436,296.459,404.436z M294.765,388.26c1.935,0,1.935,3,0,3S292.831,388.26,294.765,388.26z
	 M292.883,399.731c-1.935,0-1.935-3,0-3S294.817,399.731,292.883,399.731z M291.753,391.272c1.935,0,1.935,3,0,3
	S289.819,391.272,291.753,391.272z M289.495,404.06c-1.935,0-1.935-3,0-3S291.429,404.06,289.495,404.06z M288.177,387.696
	c1.935,0,1.935,3,0,3S286.243,387.696,288.177,387.696z M285.354,386.555c-1.935,0-1.935-3,0-3S287.289,386.555,285.354,386.555z
	 M287.989,393.907c1.935,0,1.935,3,0,3S286.054,393.907,287.989,393.907z M286.671,409.434c-0.049-0.722-0.09-1.445-0.125-2.17
	c5.903,0.239,12.263,2.139,17.689,4.443c2.525,1.072,5.911,2.401,8.083,0.024c0.091-0.1,0.16-0.219,0.243-0.325
	c6.188,1.096,12.052,3.122,18.385,3.312c4.705,0.141,7.61,0.964,10.239,4.974c1.191,1.816,2.089,3.831,3.07,5.774
	c-2.303-2.74-5.444-4.415-9.302-5.557c-7.683-2.274-15.937-4.764-23.947-3.195c-4.993-7.235-15.987-5.788-23.559-7.32
	C287.16,409.337,286.902,409.362,286.671,409.434z M287.35,417.255c-0.118-1.268-0.236-2.528-0.351-3.79
	c0.017,0.001,0.031,0.006,0.049,0.006c3.74,0.085,7.394,0.692,11.083,1.264c2.994,0.464,5.634,2.155,8.608,2.768
	c2.827,3.727,6.872,3.244,11.015,2.832c2.611,0.141,5.223,0.27,7.839,0.288c1.227,0.306,2.457,0.636,3.695,0.966
	c5.901,1.576,11.953,2.542,14.56,8.81c-3.688-2.246-7.759-3.464-11.965-4.231c-0.586-0.156-1.177-0.307-1.789-0.433
	c-0.794-0.31-1.587-0.621-2.384-0.929c-1.508-0.582-3.105-0.681-4.695-0.731c-1.156-0.036-2.281,0.336-3.402,0.636
	c-0.894-0.087-1.785-0.176-2.667-0.276c-4.054-0.459-8.047-4.263-11.986-5.664c-5.529-1.967-11.78-1.546-17.536-1.524
	C287.398,417.247,287.376,417.254,287.35,417.255z M334.314,433.818c-1.937-0.72-3.706-1.135-5.759-1.137
	c-3.197-0.003-6.084-0.398-9.254-1.007c-2.582-0.496-4.848-2.417-7.215-3.493c-2.032-0.924-4.756-0.944-6.946-1.281
	c-5.772-0.887-11.273-2.529-17.151-2.688c-0.157-0.004-0.296,0.018-0.427,0.05c-0.019-0.996-0.012-1.997-0.014-2.994
	c0.135,0.052,0.279,0.094,0.442,0.108c6.034,0.545,12.034,1.374,18.049,2.096c2.661,0.675,4.977,2.201,7.465,3.346
	c0.115,0.142,0.259,0.272,0.457,0.377c1.353,0.71,2.625,0.865,3.882,0.792c0.936,0.087,1.892,0.11,2.824,0.115
	c3.627,0.449,7.252,0.663,10.795,1.219c1.09,0.305,2.153,0.665,3.205,1.063c1.205,0.521,2.398,1.035,3.581,1.523
	c1.913,0.894,3.839,1.901,5.867,2.983c0.095,0.05,0.188,0.086,0.281,0.116c0.03,0.892,0.072,1.779,0.092,2.664
	C341.513,435.429,337.813,435.119,334.314,433.818z"/>
</svg>
