<?xml version="1.0" encoding="utf-8"?>
<!-- Generator: Adobe Illustrator 17.0.2, SVG Export Plug-In . SVG Version: 6.00 Build 0)  -->
<!DOCTYPE svg PUBLIC "-//W3C//DTD SVG 1.1//EN" "http://www.w3.org/Graphics/SVG/1.1/DTD/svg11.dtd">
<svg version="1.1" id="Layer_1" xmlns="http://www.w3.org/2000/svg" xmlns:xlink="http://www.w3.org/1999/xlink" x="0px" y="0px"
	 width="612px" height="792px" viewBox="0 0 612 792" enable-background="new 0 0 612 792" xml:space="preserve">
<path fill="#5F8893" d="M356.297,354.766l-8.134-0.478l-18.899-6.22l-8.373,0.239l-1.435-14.832l-0.478-18.899l-3.828-11.961
	l5.741,1.196l25.597,8.134l15.071,7.177l11.961,9.091l4.067,10.526l1.714,3.551c2.628-4.423,4.067-9.205,4.067-14.195
	c0-22.644-29.549-41-66-41c-36.451,0-66,18.356-66,41s29.549,41,66,41c19.171,0,36.425-5.082,48.483-13.191L356.297,354.766z"/>
<path fill="#5F8893" d="M427.316,299.493c-1.669-2.231-3.803-3.803-6.402-4.713c2.902-2.34,4.354-5.188,4.354-8.547
	c0-3.357-1.104-6.143-3.314-8.353c-2.011-2.011-4.403-3.097-7.168-3.278v-9.263c0-0.875-0.709-1.584-1.584-1.584
	s-1.584,0.709-1.584,1.584v9.226h-7.799c-0.434,0-0.803,0.152-1.105,0.455c-0.304,0.304-0.455,0.672-0.455,1.105v42.38
	c0,0.434,0.141,0.802,0.423,1.105c0.281,0.304,0.639,0.455,1.072,0.455h7.865v7.576c0,0.875,0.709,1.584,1.584,1.584
	s1.584-0.709,1.584-1.584v-7.576h2.033c3.596,0,6.662-1.268,9.197-3.803c2.535-2.535,3.803-5.6,3.803-9.197
	C429.819,304.249,428.984,301.725,427.316,299.493z M419.712,280.155c1.581,1.604,2.372,3.521,2.372,5.752
	c0,2.232-0.791,4.139-2.372,5.72c-1.385,1.385-3.027,2.163-4.925,2.336v-16.175C416.685,277.963,418.326,278.752,419.712,280.155z
	 M405.444,277.75h6.174V294h-6.174V277.75z M405.444,316.88v-19.63h6.174v19.63H405.444z M423.709,314.02
	c-1.907,1.907-4.204,2.86-6.89,2.86h-2.033v-19.63h2.033c2.686,0,4.982,0.965,6.89,2.893c1.906,1.929,2.882,4.236,2.925,6.922
	C426.591,309.795,425.615,312.114,423.709,314.02z"/>
<path fill="#231F20" d="M383.937,344.056c-0.667-1.272-1.437-2.168-2.482-3.173c-2.488-2.394-3.26-4.477-3.856-7.932
	c-0.676-3.919-2.395-6.203-5.592-8.45c-7.349-5.168-15.138-9.796-23.474-13.18c-7.714-3.131-15.697-5.412-23.634-7.841
	c0.112-0.45,0.285-0.916,0.553-1.413c0.275-0.511,0.647-1.037,0.792-1.608c0.494-1.944,0.464-3.797,0.23-5.789
	c-0.394-3.345-0.396-5.253,0.941-8.282c0.462-1.046,0.361-2.483-0.221-3.475c-0.357-0.61-0.902-1.085-1.424-1.545
	c-0.671-0.591-1.254-3.94-1.56-5.243c-0.48-2.044-2.473-3.219-3.143-5.205c-0.574-1.7-1.246-2.336-2.81-3.159
	c-2.652-1.395-5.316-0.176-7.926-2.744c-1.037-1.02-2.483-1.526-3.878-1.806c-2.471-0.497-5.411-1.233-7.432,0.787
	c-0.851,0.851-1.12,2.416-2.943,2.108c-0.753-0.128-1.579-0.684-2.376-0.598c-1.254,0.135-1.804,0.207-2.685,1.087
	c-1.727,1.725-4.281,4.55-4.971,6.915c-1.166,3.997-0.552,8.632-0.128,12.695c0.54,5.176,1.751,10.252,2.491,15.397
	c0.289,2.005,1.362,3.682,2.576,5.238c2.049,2.626,2.593,5.152,2.584,8.458c-0.011,4.379-3.515,3.564-6.292,4.877
	c-2.354,1.113-3.95,2.758-5.685,4.675c-3.195,3.53-7.993,4.753-10.656,8.72c-0.414,0.117-0.787,0.398-0.983,0.891
	c-0.799,2.01-2.157,3.563-2.816,5.632c-0.224,0.702,0.255,1.613,0.999,1.76c12.112,2.38,24.424,3.352,36.76,3.328
	c3.309-0.006,6.59-0.206,9.857-0.495l1.652,31.467l2.996-0.157l-1.659-31.594c0.651-0.069,1.301-0.143,1.951-0.217
	c-0.015,2.177-0.08,4.332,0.528,6.501c0.204,0.729,1.078,1.342,1.845,1.048c6.414-2.461,12.521-0.053,18.858,1.391
	c2.716,0.619,4.879,1.413,7.277,2.859c1.182,0.712,2.713,1.427,4.11,1.439c1.852,0.016,3.729-0.654,5.598-0.828
	c0.862,0.109,1.727,0.173,2.581,0.195c0.211,0.061,0.422,0.132,0.633,0.222c1.611,0.688,2.485,2.564,4.189,3.193
	c1.754,0.647,3.375,0.745,5.235,0.743c1.61-0.002,3.116-0.091,4.727,0.166c2.437,0.389,2.437,3.334,2.919,5.007
	c0.338,1.173,2.151,1.571,2.742,0.358c1.844-3.789,1.847-7.322,1.672-11.475c-0.112-2.668,0.524-4.793,1.44-7.233
	C384.441,346.738,384.459,345.052,383.937,344.056z M372.749,332.338c0.032,0.033,0.065,0.058,0.098,0.087
	c0.001,0.002,0.001,0.004,0.002,0.005c-7.74-2.172-15.892-1.544-23.674-3.54c-0.062-0.016-0.119-0.019-0.178-0.028
	c0.206-1.232,0.245-2.577,0.159-3.974C357.364,325.807,366.771,326.023,372.749,332.338z M360.047,320.865
	c0.264,0.094,0.503,0.108,0.719,0.071c1.456,0.896,2.896,1.832,4.304,2.846c0.735,0.529,1.514,0.997,2.302,1.451
	c-5.744-2.313-12.41-2.664-18.548-3.387c-0.202-1.322-0.463-2.628-0.731-3.863C352.24,318.283,356.103,319.453,360.047,320.865z
	 M345.388,327.707c1.935,0,1.935,3,0,3S343.453,327.707,345.388,327.707z M342.753,325.436c-1.935,0-1.935-3,0-3
	C344.687,322.436,344.687,325.436,342.753,325.436z M341.247,330.707c-1.935,0-1.935-3,0-3S343.181,330.707,341.247,330.707z
	 M340.682,313.778c1.935,0,1.935,3,0,3S338.748,313.778,340.682,313.778z M338.235,321.683c1.935,0,1.935,3,0,3
	C336.301,324.683,336.301,321.683,338.235,321.683z M335.412,324.883c1.935,0,1.935,3,0,3S333.477,324.883,335.412,324.883z
	 M335.035,317.354c1.935,0,1.935,3,0,3S333.101,317.354,335.035,317.354z M335.6,310.39c1.935,0,1.935,3,0,3
	S333.666,310.39,335.6,310.39z M332.588,314.343c1.935,0,1.935,3,0,3S330.654,314.343,332.588,314.343z M331.459,325.436
	c-1.935,0-1.935-3,0-3C333.394,322.436,333.394,325.436,331.459,325.436z M329.765,309.26c1.935,0,1.935,3,0,3
	S327.831,309.26,329.765,309.26z M327.883,320.731c-1.935,0-1.935-3,0-3S329.817,320.731,327.883,320.731z M326.753,312.272
	c1.935,0,1.935,3,0,3S324.819,312.272,326.753,312.272z M324.495,325.06c-1.935,0-1.935-3,0-3S326.429,325.06,324.495,325.06z
	 M323.177,308.696c1.935,0,1.935,3,0,3S321.243,308.696,323.177,308.696z M320.354,307.555c-1.935,0-1.935-3,0-3
	C322.289,304.555,322.289,307.555,320.354,307.555z M322.989,314.907c1.935,0,1.935,3,0,3S321.054,314.907,322.989,314.907z
	 M321.671,330.434c-0.049-0.722-0.09-1.445-0.125-2.17c5.903,0.239,12.263,2.139,17.689,4.443c2.525,1.072,5.911,2.401,8.083,0.024
	c0.091-0.1,0.16-0.219,0.243-0.325c6.188,1.096,12.052,3.122,18.385,3.312c4.705,0.141,7.61,0.964,10.239,4.974
	c1.191,1.816,2.089,3.831,3.07,5.774c-2.303-2.74-5.444-4.415-9.302-5.557c-7.683-2.274-15.937-4.764-23.947-3.195
	c-4.993-7.235-15.987-5.788-23.559-7.32C322.16,330.337,321.902,330.362,321.671,330.434z M322.35,338.255
	c-0.118-1.268-0.236-2.528-0.351-3.79c0.017,0.001,0.031,0.006,0.049,0.006c3.74,0.085,7.394,0.692,11.083,1.264
	c2.994,0.464,5.634,2.155,8.608,2.768c2.827,3.727,6.872,3.244,11.015,2.832c2.611,0.141,5.223,0.27,7.839,0.288
	c1.227,0.306,2.457,0.636,3.695,0.966c5.901,1.576,11.953,2.542,14.56,8.81c-3.688-2.246-7.759-3.464-11.965-4.231
	c-0.586-0.156-1.177-0.307-1.789-0.433c-0.794-0.31-1.587-0.621-2.384-0.929c-1.508-0.582-3.105-0.681-4.695-0.731
	c-1.156-0.036-2.281,0.336-3.402,0.636c-0.894-0.087-1.785-0.176-2.667-0.276c-4.054-0.459-8.047-4.263-11.986-5.664
	c-5.529-1.967-11.78-1.546-17.536-1.524C322.398,338.247,322.376,338.254,322.35,338.255z M369.314,354.818
	c-1.937-0.72-3.706-1.135-5.759-1.137c-3.197-0.003-6.084-0.398-9.254-1.007c-2.582-0.496-4.848-2.417-7.215-3.493
	c-2.032-0.924-4.756-0.944-6.946-1.281c-5.772-0.887-11.273-2.529-17.151-2.688c-0.157-0.004-0.296,0.018-0.427,0.05
	c-0.019-0.996-0.012-1.997-0.014-2.994c0.135,0.052,0.279,0.094,0.442,0.108c6.034,0.545,12.034,1.374,18.049,2.096
	c2.661,0.675,4.977,2.201,7.465,3.346c0.115,0.142,0.259,0.272,0.457,0.377c1.353,0.71,2.625,0.865,3.882,0.792
	c0.936,0.087,1.892,0.11,2.824,0.115c3.627,0.449,7.252,0.663,10.795,1.219c1.09,0.305,2.153,0.665,3.205,1.063
	c1.205,0.521,2.398,1.035,3.581,1.523c1.913,0.894,3.839,1.901,5.867,2.983c0.095,0.05,0.188,0.086,0.281,0.116
	c0.03,0.892,0.072,1.779,0.092,2.664C376.513,356.429,372.813,356.119,369.314,354.818z"/>
</svg>
