<?xml version="1.0" encoding="utf-8"?>
<!-- Generator: Adobe Illustrator 17.0.2, SVG Export Plug-In . SVG Version: 6.00 Build 0)  -->
<!DOCTYPE svg PUBLIC "-//W3C//DTD SVG 1.1//EN" "http://www.w3.org/Graphics/SVG/1.1/DTD/svg11.dtd">
<svg version="1.1" id="Layer_1" xmlns="http://www.w3.org/2000/svg" xmlns:xlink="http://www.w3.org/1999/xlink" x="0px" y="0px"
	 width="252px" height="252px" viewBox="180 270 252 252" enable-background="new 180 270 252 252" xml:space="preserve">
<path fill="#A29352" d="M323.56,427.284l-8.373,0.239l-1.435-14.832l-0.478-18.899l-3.828-11.961l5.741,1.196l25.597,8.134
	l15.071,7.177l3.327,2.528c-3.49-20.603-31.538-36.661-65.629-36.661c-36.451,0-66,18.356-66,41s29.549,41,66,41
	c18.985,0,36.086-4.987,48.126-12.958L323.56,427.284z"/>
<path fill="#231F20" d="M430.816,483.65"/>
<circle fill="#231F20" cx="307.438" cy="376.434" r="2.823"/>
<g>
	<path fill="#231F20" d="M209.934,370.362c2.408-2.837,4.98-5.209,7.67-7.746c2.246-2.118,4.919-6.758,8.363-4.914
		c1.153,0.618,2.28,1.273,3.396,1.945c-0.516,0.545-1.027,1.091-1.529,1.641c-0.987-0.312-2.012-0.422-2.97-0.103
		c-4.82,1.603-7.825,5.977-11.518,9.198c-1.461,1.274,0.67,3.387,2.121,2.121c2.772-2.417,5.832-6.932,9.504-7.835
		c-1.237,1.595-2.363,3.274-3.292,5.125c-0.866,1.724,1.722,3.243,2.59,1.514c1.158-2.305,2.65-4.343,4.28-6.274
		c0.31,0.142,0.624,0.309,0.942,0.515c0.204,0.133,0.408,0.253,0.613,0.382c-0.994,1.782-1.822,3.647-2.507,5.47
		c-0.682,1.814,2.219,2.591,2.893,0.797c0.621-1.653,1.374-3.221,2.246-4.714c3.431,1.853,6.973,3.067,11.122,3.138
		c0.418,0.007,0.74-0.132,0.977-0.347c1.939,1.836,6.818,2.376,8.502,2.477c2.405,0.143,5.067-0.244,6.936-1.905
		c0.05-0.044,0.091-0.09,0.138-0.135c0.146-0.018,0.295-0.051,0.447-0.115c3.701-1.58,7.241-3.507,10.97-4.976
		c1.237,1.926,2.271,4.031,3.577,5.865c1.112,1.562,3.715,0.066,2.591-1.514c-1.149-1.614-2.14-3.541-3.25-5.373
		c0.273-0.083,0.552-0.156,0.827-0.235c1.707,3.094,3.481,6.14,6.136,8.318c1.483,1.216,3.618-0.893,2.121-2.121
		c-2.212-1.815-3.818-4.171-5.273-6.655c4.763,0.114,8.663,4.316,11.898,7.527c1.374,1.364,3.496-0.757,2.121-2.121
		c-3.613-3.586-7.764-7.769-13.034-8.399c0.971-0.598,1.929-1.222,2.853-1.908c2.391-1.776,5.222,3.441,6.717,5.11
		c2.482,2.77,6.309,4.044,9.017,6.605c1.404,1.328,3.53-0.79,2.121-2.121c-3.069-2.903-7.108-4.476-9.939-7.634
		c-1.479-1.651-3.881-5.878-6.584-5.789c-2.547,0.084-4.611,2.558-6.697,3.821c-0.311,0.188-0.637,0.352-0.954,0.531
		c-2.038-3.558-4.294-6.9-8.079-8.834c-0.589-0.301-1.342-0.277-1.818,0.235c-3.319,3.561-7.102,6.666-9.343,11.054
		c-2.623-0.848-5.563-0.421-8.053,0.875c-1.918-3.77-3.693-7.671-6.111-11.126c-1.255-1.794-2.905-2.111-4.788-1.255
		c-2.441,1.11-4.665,4.536-6.626,7.023c-2.375-1.633-4.874-3.536-7.749-3.797c-2.016-0.183-4.607,3.358-5.768,4.527
		c-3.342,3.366-6.845,6.378-9.929,10.012C206.569,369.706,208.68,371.839,209.934,370.362z M262.199,365.356
		c-0.298,0.111-0.519,0.287-0.682,0.495c-0.088-0.199-0.191-0.397-0.308-0.591c2.54-1.945,5.416-4.999,8.231-2.614
		C267.038,363.602,264.593,364.462,262.199,365.356z M267.497,353.884c2.637,1.678,4.467,4.192,6.085,6.939
		c-0.381,0.182-0.756,0.374-1.14,0.548c-0.883-1.001-1.883-1.862-3.085-2.463c-3.32-1.662-6.703,1.475-9.342,3.518
		C261.981,359.157,264.842,356.621,267.497,353.884z M234.332,365.031c0.383-0.529,0.786-1.046,1.205-1.552
		c2.399,1.48,4.832,2.903,7.417,4.087C239.856,367.37,237.001,366.45,234.332,365.031z M237.537,361.431
		c1.729-0.837,4.489,1.526,6.611,3.416C241.889,363.856,239.686,362.687,237.537,361.431z M236.156,356.682
		c0.929-1.082,1.788-2.192,2.774-3.227c1.195-1.253,3.333,3.38,3.561,3.788c0.762,1.358,1.474,2.745,2.179,4.135
		c-2.579-2.259-5.809-4.698-8.126-3.043c-0.613,0.438-1.188,0.928-1.743,1.443c-0.308-0.192-0.61-0.386-0.917-0.58
		C234.655,358.372,235.42,357.54,236.156,356.682z M231.96,361.252c0.31,0.194,0.623,0.384,0.932,0.578
		c-0.422,0.514-0.825,1.044-1.207,1.594c-0.227-0.155-0.457-0.303-0.681-0.465c-0.121-0.088-0.255-0.176-0.385-0.264
		C231.064,362.212,231.509,361.73,231.96,361.252z"/>
	<path fill="#231F20" d="M377.609,423.47c-0.667-1.272-1.437-2.168-2.482-3.173c-2.488-2.394-3.26-4.477-3.856-7.932
		c-0.676-3.919-2.395-6.203-5.592-8.45c-7.349-5.168-15.138-9.796-23.474-13.18c-8.16-3.313-16.621-5.676-25.01-8.267
		c-0.622-1.852-1.61-3.579-2.682-4.837c-6.45-7.571-21.216-4.399-29.469-2.636c-0.638,0.136-1.114,0.81-1.101,1.446
		c0.033,1.679,0.109,3.354,0.156,5.029c-5.461-5.243-11.88-6.708-19.999-6.708c-3.042,0-8.594-1.15-11.384,0.527
		c-0.97,0.583-1.483,1.482-1.834,2.481c-6.735-6.767-20.532-4.437-28.846-2.955c-0.788,0.14-1.273,1.118-1.048,1.845
		c-0.062,0.538-0.125,1.075-0.188,1.613c-5.877-3.532-12.173-5.882-19.265-4.803c-5.062,0.77-11.745,3.26-12.707,8.995
		c-1.151,6.863,7.033,9.414,12.057,10.424c1.625,0.327,3.232,0.658,4.827,1.113c2.236,0.281,2.658,1.621,1.266,4.021
		c-2.224,0.772-4.368-0.289-6.114-1.604c-3.315-2.497-7.042-1.651-10.915-1.49c-0.839,0.035-1.314,0.624-1.423,1.271
		c-0.039,0.126-0.069,0.259-0.077,0.407c-0.292,5.782,4.269,8.492,9.519,9.112c3.878,0.458,7.844,0.254,11.74,0.202
		c4.103-0.055,6.85-1.969,10.147-3.802c2.615,4.466,11.508,6.196,12.962,0.361c0.289-1.159-0.253-2.665-0.502-3.772
		c-1.248-5.547,7.164-3.71,9.395-3.634c3.302,0.113,6.015-0.458,8.467-2.043c-0.082,3.482-0.237,6.929,0.439,10.402
		c0.125,0.642,0.819,1.11,1.446,1.101c8.13-0.109,15.616,2.83,23.69,0.532c3.285-0.935,5.261-2.928,6.724-5.477
		c0.282,1.72,0.425,3.461,0.393,5.23c-0.015,0.843,0.695,1.467,1.5,1.5c3.645,0.149,7.251,0.124,10.888-0.178
		c0.821-0.068,1.492-0.631,1.5-1.5c0.02-2.113-0.277-4.219-0.393-6.326c-0.319-5.781,3.775-0.547,5.273,1.974
		c1.702,2.864,3.622,4.276,5.796,4.921l2.644,50.356l2.996-0.157l-2.611-49.736c0.535,0.021,1.084,0.02,1.646,0.002
		c0.028,0.934,0.052,1.87,0.07,2.811c0.076,4.006,0.739,8.006,1.096,11.992c0.292,3.257-0.279,6.422,0.618,9.622
		c0.204,0.729,1.078,1.342,1.845,1.048c6.414-2.461,12.521-0.053,18.858,1.391c2.716,0.619,4.879,1.413,7.277,2.859
		c1.182,0.712,2.713,1.427,4.11,1.439c1.852,0.016,3.729-0.654,5.598-0.828c0.862,0.109,1.727,0.173,2.581,0.195
		c0.211,0.061,0.422,0.132,0.633,0.222c1.611,0.688,2.485,2.564,4.189,3.193c1.754,0.647,3.375,0.745,5.235,0.743
		c1.61-0.002,3.116-0.091,4.727,0.166c2.437,0.389,2.437,3.334,2.919,5.007c0.338,1.173,2.151,1.571,2.742,0.358
		c1.844-3.789,1.847-7.322,1.672-11.475c-0.112-2.668,0.524-4.793,1.44-7.233C378.113,426.152,378.131,424.466,377.609,423.47z
		 M221.231,389.781c-2.887-0.497-5.595-2.092-8.267-3.201c-3.232-1.341-6.545-2.405-9.789-3.738
		c3.633-1.465,7.588,2.523,11.488,2.613c1.665,0.039,3.328-0.248,4.999-0.217C221.37,385.271,221.362,387.855,221.231,389.781z
		 M236.911,386.225c-1.207,0.155-2.259,0.232-2.958-0.896c-0.484-0.782-0.74-1.683-1.077-2.549c2.579-0.107,5.522,0.155,7.514,1.401
		C241.71,385.006,237.258,386.18,236.911,386.225z M266.731,396.743c-3.647,0.976-3.007-3.967-2.989-6.268
		c0.015-1.913,0.186-3.818,0.287-5.727c3.242,0.135,6.485,1.814,8.162,4.632C274.503,393.266,269.775,395.928,266.731,396.743z
		 M301.363,387.046c-1.252,0.224-2.688,0.371-3.942,0.101c-1.268-0.273-0.877-2.67-0.639-3.988c1.241,0.051,2.484,0.169,3.708,0.354
		c1.587,0.24,3.915,0.474,5.146,1.626C306.191,385.661,301.683,386.988,301.363,387.046z M366.421,411.751
		c0.034,0.036,0.07,0.062,0.105,0.094c-7.741-2.174-15.896-1.545-23.68-3.542c-0.062-0.016-0.119-0.019-0.178-0.028
		c0.206-1.232,0.245-2.577,0.159-3.974C351.036,405.221,360.443,405.437,366.421,411.751z M354.438,400.351
		c1.456,0.896,2.896,1.832,4.304,2.846c0.735,0.529,1.514,0.997,2.302,1.451c-5.744-2.313-12.41-2.664-18.548-3.387
		c-0.202-1.322-0.463-2.628-0.731-3.863c4.147,0.3,8.01,1.47,11.954,2.882C353.983,400.374,354.222,400.387,354.438,400.351z
		 M343.079,394.515c-0.66-0.071-1.328-0.12-2-0.154c-0.057-0.249-0.114-0.499-0.166-0.732
		C341.637,393.922,342.363,394.207,343.079,394.515z M339.06,407.121c1.935,0,1.935,3,0,3S337.125,407.121,339.06,407.121z
		 M336.425,404.85c-1.935,0-1.935-3,0-3C338.359,401.85,338.359,404.85,336.425,404.85z M334.919,410.121c-1.935,0-1.935-3,0-3
		S336.853,410.121,334.919,410.121z M334.354,393.192c1.935,0,1.935,3,0,3S332.42,393.192,334.354,393.192z M331.907,401.097
		c1.935,0,1.935,3,0,3C329.973,404.097,329.973,401.097,331.907,401.097z M329.084,404.297c1.935,0,1.935,3,0,3
		S327.149,404.297,329.084,404.297z M328.707,396.768c1.935,0,1.935,3,0,3S326.773,396.768,328.707,396.768z M329.272,389.804
		c1.935,0,1.935,3,0,3S327.338,389.804,329.272,389.804z M326.26,393.757c1.935,0,1.935,3,0,3S324.326,393.757,326.26,393.757z
		 M325.131,404.85c-1.935,0-1.935-3,0-3S327.066,404.85,325.131,404.85z M323.437,388.674c1.935,0,1.935,3,0,3
		S321.503,388.674,323.437,388.674z M321.555,400.144c-1.935,0-1.935-3,0-3S323.489,400.144,321.555,400.144z M320.425,391.686
		c1.935,0,1.935,3,0,3S318.491,391.686,320.425,391.686z M318.167,404.474c-1.935,0-1.935-3,0-3S320.102,404.474,318.167,404.474z
		 M316.849,388.11c1.935,0,1.935,3,0,3S314.915,388.11,316.849,388.11z M314.026,386.969c-1.935,0-1.935-3,0-3
		S315.961,386.969,314.026,386.969z M316.661,394.321c1.935,0,1.935,3,0,3S314.727,394.321,316.661,394.321z M315.343,409.848
		c-0.049-0.722-0.09-1.445-0.125-2.17c5.903,0.239,12.263,2.139,17.689,4.443c2.525,1.072,5.911,2.401,8.083,0.024
		c0.091-0.1,0.16-0.219,0.243-0.325c6.188,1.096,12.052,3.122,18.385,3.312c4.705,0.141,7.61,0.964,10.239,4.974
		c1.191,1.816,2.089,3.831,3.07,5.774c-2.303-2.74-5.444-4.415-9.302-5.557c-7.683-2.274-15.937-4.764-23.947-3.195
		c-4.993-7.235-15.987-5.788-23.559-7.32C315.832,409.751,315.574,409.775,315.343,409.848z M316.022,417.669
		c-0.118-1.268-0.236-2.528-0.351-3.79c0.017,0.001,0.031,0.006,0.049,0.006c3.74,0.085,7.394,0.692,11.083,1.264
		c2.794,0.433,5.28,1.933,8.017,2.63c1.323,0.774,2.269,1.505,3.253,2.071c0.209,0.214,0.479,0.368,0.801,0.413
		c0.923,0.418,1.968,0.682,3.44,0.697c1.399,0.015,2.815-0.104,4.224-0.206c1.912,0.103,3.825,0.189,5.74,0.238
		c1.378,0.259,2.74,0.602,4.167,0.839c0.258,0.043,0.494,0.022,0.707-0.04c0.27,0.072,0.538,0.139,0.808,0.211
		c5.901,1.576,11.953,2.542,14.56,8.81c-3.53-2.15-7.409-3.361-11.422-4.134c-0.913-0.277-1.827-0.511-2.733-0.686
		c-0.66-0.258-1.319-0.516-1.982-0.772c-1.508-0.582-3.105-0.681-4.695-0.731c-1.156-0.036-2.281,0.336-3.402,0.636
		c-0.894-0.087-1.785-0.176-2.667-0.276c-4.054-0.459-8.047-4.263-11.986-5.664c-5.529-1.967-11.78-1.546-17.536-1.524
		C316.07,417.661,316.048,417.667,316.022,417.669z M362.987,434.231c-1.937-0.72-3.706-1.135-5.759-1.137
		c-3.197-0.003-6.084-0.398-9.254-1.007c-2.582-0.496-4.848-2.417-7.215-3.493c-2.032-0.924-4.756-0.944-6.946-1.281
		c-5.772-0.887-11.273-2.529-17.151-2.688c-0.157-0.004-0.296,0.018-0.427,0.05c-0.019-0.996-0.012-1.997-0.014-2.994
		c0.135,0.052,0.279,0.094,0.442,0.108c6.209,0.561,12.382,1.424,18.572,2.159c0.24,0.305,0.598,0.528,1.074,0.575
		c1.861,0.186,3.898,1.663,5.865,2.703c0.115,0.144,0.26,0.276,0.46,0.381c1.021,0.536,1.995,0.751,2.951,0.796
		c1.74,0.314,3.51,0.318,5.287,0.287c3.451,0.374,6.889,0.608,10.246,1.203c0.115,0.034,0.229,0.072,0.344,0.106
		c2.366,0.981,4.721,2.065,7.005,2.937c0.426,0.249,0.846,0.508,1.255,0.784c1.098,0.739,2.162,1.224,3.328,1.016
		c0.018,1.123,0.085,2.235,0.11,3.345C370.185,435.843,366.485,435.532,362.987,434.231z"/>
</g>
<g>
	<path fill="#A29352" d="M397.857,391.429l-0.585,0.065c-0.737,0-1.234-0.346-1.495-1.04l-4.029-10.725h-20.735l-4.03,10.725
		c-0.26,0.694-0.759,1.04-1.495,1.04l-0.585-0.065c-0.39-0.173-0.682-0.465-0.877-0.877c-0.195-0.412-0.206-0.812-0.032-1.203
		l15.795-42.185c0.303-0.65,0.845-0.975,1.625-0.975c0.779,0,1.277,0.325,1.495,0.975l15.795,42.185c0.172,0.39,0.172,0.791,0,1.203
		C398.529,390.963,398.248,391.256,397.857,391.429z M381.413,352.104l-9.23,24.44h18.396L381.413,352.104z"/>
	<path fill="#A29352" d="M404.228,378.494v-17.355c0-0.433,0.151-0.801,0.455-1.105c0.303-0.303,0.672-0.455,1.105-0.455
		s0.801,0.152,1.104,0.455c0.303,0.304,0.455,0.672,0.455,1.105v17.355c0,2.73,0.953,5.049,2.86,6.955
		c1.906,1.907,4.203,2.882,6.89,2.925c2.73-0.042,5.06-1.018,6.988-2.925c1.927-1.906,2.892-4.225,2.892-6.955v-17.355
		c0-0.433,0.163-0.801,0.488-1.105c0.324-0.303,0.703-0.455,1.137-0.455s0.802,0.152,1.105,0.455
		c0.303,0.304,0.455,0.672,0.455,1.105v17.355c0,3.597-1.268,6.663-3.803,9.197c-2.535,2.535-5.601,3.803-9.197,3.803
		c-3.598,0-6.652-1.268-9.165-3.803C405.484,385.156,404.228,382.091,404.228,378.494z"/>
</g>
</svg>
