<?xml version="1.0" encoding="utf-8"?>
<!-- Generator: Adobe Illustrator 17.0.2, SVG Export Plug-In . SVG Version: 6.00 Build 0)  -->
<!DOCTYPE svg PUBLIC "-//W3C//DTD SVG 1.1//EN" "http://www.w3.org/Graphics/SVG/1.1/DTD/svg11.dtd">
<svg version="1.1" id="Layer_1" xmlns="http://www.w3.org/2000/svg" xmlns:xlink="http://www.w3.org/1999/xlink" x="0px" y="0px"
	 width="252px" height="252px" viewBox="180 270 252 252" enable-background="new 180 270 252 252" xml:space="preserve">
<path fill="#5F8792" d="M337.729,402.152l-0.037,1.626H225.025l-0.114-2.171c-6.245,6.263-9.859,13.645-9.859,21.554
	c0,22.644,29.549,41,66,41s66-18.356,66-41C347.052,415.481,343.644,408.297,337.729,402.152z"/>
<path fill="#5F8792" d="M404.365,388.046c-1.669-2.231-3.803-3.803-6.402-4.713c2.902-2.34,4.354-5.188,4.354-8.547
	c0-3.357-1.104-6.143-3.314-8.353c-2.011-2.011-4.403-3.096-7.167-3.278v-9.263c0-0.875-0.709-1.584-1.584-1.584
	s-1.584,0.709-1.584,1.584v9.226h-7.8c-0.434,0-0.803,0.152-1.105,0.455c-0.304,0.304-0.455,0.672-0.455,1.105v42.38
	c0,0.434,0.141,0.802,0.423,1.105c0.281,0.304,0.639,0.455,1.072,0.455h7.865v7.576c0,0.875,0.709,1.584,1.584,1.584
	s1.584-0.709,1.584-1.584v-7.576h2.032c3.596,0,6.662-1.268,9.197-3.803s3.803-5.6,3.803-9.197
	C406.868,392.802,406.033,390.278,404.365,388.046z M396.761,368.708c1.581,1.604,2.372,3.521,2.372,5.752
	c0,2.232-0.791,4.139-2.372,5.72c-1.385,1.385-3.027,2.163-4.925,2.335V366.34C393.734,366.516,395.375,367.306,396.761,368.708z
	 M382.493,366.303h6.175v16.25h-6.175V366.303z M382.493,405.433v-19.63h6.175v19.63H382.493z M400.758,402.574
	c-1.907,1.907-4.204,2.86-6.89,2.86h-2.032v-19.63h2.032c2.686,0,4.982,0.965,6.89,2.893c1.906,1.929,2.882,4.236,2.925,6.922
	C403.64,398.348,402.664,400.667,400.758,402.574z"/>
<g>
	<path fill="#231F20" d="M240.203,391.432h81.796v-38.844h-81.796L240.203,391.432L240.203,391.432z M318.999,359.994h-11.516
		v-4.406h11.516V359.994z M259.495,355.588h13.885v4.406h-13.885V355.588z M276.38,355.588h11.812v4.406H276.38V355.588z
		 M291.192,355.588h13.292v4.406h-13.292V355.588z M243.203,355.588h13.292v7.406h62.504v25.438h-75.796L243.203,355.588
		L243.203,355.588z"/>
	<rect x="269.548" y="376.602" fill="#231F20" width="22.217" height="7.406"/>
	<path fill="#231F20" d="M341.55,407.724v-70.836H220.948v70.836h52.747v10.333c-11.955,0.9-20.736,3.881-20.736,7.422
		c0,4.254,12.666,7.702,28.29,7.702c15.624,0,28.29-3.448,28.29-7.702c0-3.628-9.218-6.669-21.625-7.485v-10.27L341.55,407.724
		L341.55,407.724z M229.872,347.886h102.753v49.432H229.872V347.886z"/>
</g>
</svg>
