<?xml version="1.0" encoding="utf-8"?>
<!-- Generator: Adobe Illustrator 17.0.2, SVG Export Plug-In . SVG Version: 6.00 Build 0)  -->
<!DOCTYPE svg PUBLIC "-//W3C//DTD SVG 1.1//EN" "http://www.w3.org/Graphics/SVG/1.1/DTD/svg11.dtd">
<svg version="1.1" id="Layer_1" xmlns="http://www.w3.org/2000/svg" xmlns:xlink="http://www.w3.org/1999/xlink" x="0px" y="0px"
	 width="612px" height="792px" viewBox="0 0 612 792" enable-background="new 0 0 612 792" xml:space="preserve">
<path fill="#5F8792" d="M317.204,419.54l-0.037,1.626H204.5l-0.114-2.171c-6.245,6.263-9.859,13.645-9.859,21.554
	c0,22.644,29.549,41,66,41s66-18.356,66-41C326.527,432.869,323.119,425.685,317.204,419.54z"/>
<path fill="#5F8792" d="M383.84,405.434c-1.669-2.231-3.803-3.803-6.402-4.713c2.902-2.34,4.354-5.188,4.354-8.547
	c0-3.357-1.104-6.143-3.314-8.353c-2.011-2.011-4.403-3.096-7.167-3.278v-9.263c0-0.875-0.709-1.584-1.584-1.584
	s-1.584,0.709-1.584,1.584v9.226h-7.8c-0.434,0-0.803,0.152-1.105,0.455c-0.304,0.304-0.455,0.672-0.455,1.105v42.38
	c0,0.434,0.141,0.802,0.423,1.105c0.281,0.304,0.639,0.455,1.072,0.455h7.865v7.576c0,0.875,0.709,1.584,1.584,1.584
	s1.584-0.709,1.584-1.584v-7.576h2.032c3.596,0,6.662-1.268,9.197-3.803c2.535-2.535,3.803-5.6,3.803-9.197
	C386.343,410.19,385.508,407.666,383.84,405.434z M376.236,386.096c1.581,1.604,2.372,3.521,2.372,5.752
	c0,2.232-0.791,4.139-2.372,5.72c-1.385,1.385-3.027,2.163-4.925,2.335v-16.175C373.209,383.904,374.85,384.694,376.236,386.096z
	 M361.968,383.691h6.175v16.25h-6.175V383.691z M361.968,422.821v-19.63h6.175v19.63H361.968z M380.233,419.962
	c-1.907,1.907-4.204,2.86-6.89,2.86h-2.032v-19.63h2.032c2.686,0,4.982,0.965,6.89,2.893c1.906,1.929,2.882,4.236,2.925,6.922
	C383.115,415.736,382.139,418.055,380.233,419.962z"/>
<g>
	<path fill="#231F20" d="M219.678,408.82h81.796v-38.844h-81.796V408.82z M298.474,377.382h-11.516v-4.406h11.516V377.382z
		 M238.97,372.976h13.885v4.406H238.97V372.976z M255.855,372.976h11.812v4.406h-11.812V372.976z M270.667,372.976h13.292v4.406
		h-13.292V372.976z M222.678,372.976h13.292v7.406h62.504v25.438h-75.796V372.976z"/>
	<rect x="249.023" y="393.99" fill="#231F20" width="22.217" height="7.406"/>
	<path fill="#231F20" d="M321.025,425.112v-70.836H200.423v70.836h52.747v10.333c-11.955,0.9-20.736,3.881-20.736,7.422
		c0,4.254,12.666,7.702,28.29,7.702c15.624,0,28.29-3.448,28.29-7.702c0-3.628-9.218-6.669-21.625-7.485v-10.27H321.025z
		 M209.347,365.274H312.1v49.432H209.347V365.274z"/>
</g>
</svg>
