<?xml version="1.0" encoding="utf-8"?>
<!-- Generator: Adobe Illustrator 17.0.2, SVG Export Plug-In . SVG Version: 6.00 Build 0)  -->
<!DOCTYPE svg PUBLIC "-//W3C//DTD SVG 1.1//EN" "http://www.w3.org/Graphics/SVG/1.1/DTD/svg11.dtd">
<svg version="1.1" id="Layer_1" xmlns="http://www.w3.org/2000/svg" xmlns:xlink="http://www.w3.org/1999/xlink" x="0px" y="0px"
	 width="612px" height="792px" viewBox="0 0 612 792" enable-background="new 0 0 612 792" xml:space="preserve">
<g>
	<path fill="#5A835F" d="M363.253,362.23c0-0.433,0.151-0.802,0.455-1.105c0.303-0.302,0.672-0.454,1.105-0.454
		c0.433,0,0.801,0.152,1.104,0.454c0.303,0.304,0.455,0.673,0.455,1.105v2.6c4.073,0.348,7.931,1.864,11.57,4.551
		c0.606,0.477,0.91,0.953,0.91,1.43c0,0.478-0.163,0.877-0.487,1.202c-0.325,0.325-0.716,0.487-1.171,0.487
		c-0.454,0-0.855-0.151-1.202-0.454c-3.033-2.427-6.283-3.836-9.75-4.226v18.2c4.94,1.04,8.515,2.524,10.725,4.452
		c2.211,1.929,3.315,4.55,3.315,7.865s-1.3,6.089-3.9,8.32c-2.6,2.232-5.937,3.412-10.01,3.542v5.07
		c0,0.433-0.152,0.801-0.455,1.104c-0.304,0.303-0.672,0.455-1.104,0.455c-0.434,0-0.803-0.152-1.105-0.455
		c-0.304-0.304-0.455-0.672-0.455-1.104v-5.135c-5.417-0.433-10.292-2.535-14.625-6.306c-0.477-0.39-0.715-0.822-0.715-1.3
		c0-0.477,0.163-0.877,0.487-1.202c0.325-0.325,0.716-0.487,1.17-0.487c0.455,0,0.834,0.152,1.138,0.455
		c3.727,3.467,7.951,5.438,12.675,5.914v-18.524c-4.854-1.083-8.363-2.578-10.529-4.485c-2.168-1.906-3.25-4.495-3.25-7.768
		c0-3.271,1.288-6.022,3.867-8.255c2.578-2.231,5.839-3.39,9.782-3.478V362.23z M355.81,370.16
		c-1.929,1.647-2.893,3.651-2.893,6.013c0,2.362,0.736,4.247,2.21,5.655c1.473,1.408,4.226,2.59,8.255,3.542v-17.745
		C360.263,367.669,357.738,368.514,355.81,370.16z M374.01,404.708c1.972-1.668,2.957-3.715,2.957-6.143
		c0-2.427-0.77-4.344-2.307-5.753c-1.539-1.407-4.346-2.567-8.418-3.478v17.94C369.449,407.232,372.038,406.377,374.01,404.708z"/>
</g>
<path fill="#5A835F" d="M278.22,408.738c-27.115,0-50.401,10.161-60.555,24.686l26.371,0.967h22.37l5.593,25.912l-1.678,7.084
	l-38.216-3.169l-17.865-4.388c7.238,17.763,33.135,30.909,63.98,30.909c36.451,0,66-18.356,66-41
	C344.22,427.094,314.671,408.738,278.22,408.738z"/>
<g>
	<path fill="#231F20" d="M276.909,440.128c-1.105-2.522-1.479-6.035-2.97-8.317c-0.914-1.4-1.768-2.095-3.18-2.996
		c-1.452-0.927,0.627-0.539,0.992-2.266c0.411-1.947,0.503-6.516-2.311-6.982c-3.328-0.552-4.532,1.652-5.282,4.569
		c-1.129,4.387-5.074,5.186-5.958,8.976l-7.461-0.133c0.237-3.294,0.398-6.667-1.37-9.554c-0.928-1.515-3.488-1.978-4.821-3.005
		c0.672-1.988,0.947-4.635-0.969-5.583c-2.827-1.4-4.667,0.086-5.119,3.042c-0.385,2.518-0.673,3.005-2.965,4.347
		c-1.512,0.886-2.294,2.308-2.913,3.898c-1.223,3.145-1.592,4.823-0.543,6.521l-14.836-0.265c0.024-1.62-0.12-3.227-0.69-4.814
		c-0.857-2.388-2.981-3.879-5.208-4.991c-0.343-0.477-0.944-0.74-1.49-0.701c0.679-2.034,0.632-4.348-2.127-4.684
		c-3.406-0.415-4.342,2.628-3.156,5.244c0.351,0.775,1.049,0.912,1.653,0.674c-1.174,1.967-3.042,4.614-3.304,5.432
		c-0.685,2.137-0.323,4.844-0.325,7.036c-0.002,2.526-0.802,4.969-0.826,7.441c-0.015,1.542,0.214,2.718,1.004,4.052
		c1.433,2.418,2.038,4.049,2.152,6.846c0.041,1.002,0.342,2.01,0.721,2.997l-0.005,0.086l0.082,0.106
		c0.352,0.892,0.756,1.764,1.08,2.595c0.174,0.446-2.032,4.114-2.672,3.591c-1.494-1.17-3.631,0.887-2.121,2.122
		c1.278,1.001,2.038,2.403,3.168,3.541c0.917,0.923,2.573,0.25,2.561-1.061c-0.013-1.294,0.956-0.222,1.757,0.88
		c-0.101,0.032-0.201,0.064-0.302,0.096c-1.4,0.357-1.47,2.578,0,2.893c1.396,0.299,2.735,0.7,4.1,1.118
		c1,0.306,1.815-0.511,1.899-1.446c0.28-3.122,0.014-6.182-0.296-9.246c6.74,2.01,16.011,3.238,24.776,3.987
		c-0.01,0.366-0.023,0.732-0.069,1.109c-0.484,0.068-0.955,0.152-1.527,0.281c-1.046,0.235-1.519,1.789-0.662,2.507
		c2.809,2.354,7.287,3.94,7.68-1.317c0.054-0.722,0.079-1.443,0.088-2.164c0.938,0.062,1.861,0.12,2.766,0.172
		c0.167,1.068,0.222,2.109,0.037,3.034c-0.21,1.048-0.074,1.667,0.464,2.542c0.73,1.187,3.365,1.319,4.321,0.363
		c1.387-1.387,0.313-3.993,0.005-5.576c-0.008-0.04-0.018-0.079-0.026-0.119c3.289,0.146,6.154,0.229,8.322,0.276
		c-0.108,3.344-0.399,6.686-0.709,10.016c-1.22,0.883-0.426,3.197,1.245,2.661c1.439-0.461,2.92-0.719,4.395-1.025
		c-0.001,0.605,0.009,1.21,0.042,1.815c0.042,0.785,0.651,1.541,1.5,1.5c2.51-0.122,4.641-0.601,6.906-1.696
		c1.568-0.758,0.448-3.163-1.156-2.742c-0.226,0.06,1.043-10.531,1.239-11.875c0.444-3.04,0.575-6.208,0.677-9.275
		c0.113-3.421-1.152-6.583-1.562-9.894c1.418,0.163,2.815-0.454,3.47-2.238C277.694,442.866,277.63,441.775,276.909,440.128z
		 M238.719,463.042c-12.303-1.098-19.711-2.602-24.172-4.054c-0.112-1.22-0.206-2.444-0.247-3.678
		c-0.09-2.761,0.295-5.981,2.321-8.008c0.956-0.957,1.196-2.353,0.786-3.62c-0.893-2.761-0.613-5.543-0.379-8.304l18.347,0.327
		c0.236,0.06,0.471,0.06,0.697,0.012l0.102,0.002c-0.006,1.577-0.034,3.155,0.014,4.735c0.091,2.962,0.988,5.836,1.161,8.802
		c0.14,2.394,0.224,4.733,0.575,7.107c0.351,2.374,1.082,4.521,1.472,6.735C239.171,463.08,238.946,463.062,238.719,463.042z
		 M245.08,463.537c-0.175-3.425-0.632-6.843-0.842-10.286c0.899,2.624,1.695,5.282,2.332,7.995c0.173,0.74,0.409,1.568,0.643,2.428
		C246.511,463.631,245.801,463.585,245.08,463.537z M261.075,464.27c-2.282-0.057-5.432-0.157-9.089-0.334
		c-1.168-4.38-2.712-8.588-2.74-13.243c-0.029-4.914,0.788-9.821,1.253-14.718l7.624,0.136c0.288,2.019,1.16,3.942,2.045,5.757
		c1.987,4.077,0.761,7.527,0.377,11.744C260.234,457.035,261.002,460.775,261.075,464.27z M266.076,475.92
		c-0.136-0.009-0.278-0.005-0.43,0.025c-0.028-1.616-0.115-3.351-0.174-5.121c0.236-0.174,0.424-0.436,0.517-0.803
		c0.265-1.04,0.576-2.043,0.891-3.036C266.681,469.953,266.275,472.934,266.076,475.92z"/>
	<path fill="#231F20" d="M330.252,366.265l-16.12-20.999l-30.95,7.497l-0.337,0.126c-8.013,4.149-10.298,5.646-11.017,6.43
		c-1.726,0.95-13.334,5.242-23.737,8.924l-28.263,6.177l-16.168,9.004l6.841,13.683l1.02,16.121l9.249-1.799h16.924l46.214-2.422
		l25.156-3.727l20.724-3.699l-0.027-5.786l0.021,1.139l0.139-31.099L330.252,366.265z M312.941,348.641l12.205,15.898l-22.204,6.01
		l-15.433-15.747L312.941,348.641z M207.626,384.648l13.274-7.393l0.479-0.105l8.501,14.114c-0.372,0.018-0.7,0.03-0.945,0.03
		c-3.282,0-12.677,2.615-16.175,3.623L207.626,384.648z M226.262,407.322l-11.962,2.309l-0.748-11.818
		c4.249-1.222,12.767-3.518,15.384-3.518c0.427,0,1.036-0.027,1.766-0.071l0.592,12.88L226.262,407.322z M224.475,376.474
		l20.718-4.528l5.897,17.346c-0.902,0.076-2.595,0.246-5.556,0.548c-3.713,0.378-8.657,0.882-12.295,1.186L224.475,376.474z
		 M251.978,406.204l-17.686,0.769l-0.597-12.973c3.592-0.303,8.312-0.784,12.143-1.174c2.323-0.237,4.708-0.479,5.645-0.556
		l1.045,13.879L251.978,406.204z M248.14,371.302l0.683-0.149l0.18-0.051c14.798-5.236,20.874-7.56,23.424-8.79l7.008,15.704
		l-26.549,7.355L248.14,371.302z M255.514,405.85l-1.182-15.702c0.282-0.587,0.561-1.328,0.82-2.292l25.499-7.064l1.222,2.689
		l1.437,19.587L255.514,405.85z M274.973,360.657c1.76-1.105,5.64-3.23,9.091-5.021l0.05-0.012l16.037,16.364l-16.104,9.003
		L274.973,360.657z M286.281,402.558l-1.366-18.613l16.883-9.486l2.891,22.332L286.281,402.558z M307.649,396.295l-2.992-23.103
		l21.577-5.84l0.498,26.893L307.649,396.295z"/>
	<polygon fill="#231F20" points="210.861,386.086 213.842,391.49 224.834,388.87 220.364,381.055 	"/>
	<polygon fill="#231F20" points="243.098,375.837 229.682,379.005 233.968,388.509 247.012,387.391 	"/>
	<polygon fill="#231F20" points="270.864,367.079 251.298,372.856 254.465,382.546 274.963,376.583 	"/>
	<polygon fill="#231F20" points="257.447,390.558 258.192,402.857 279.808,400.248 278.69,384.968 	"/>
	<polygon fill="#231F20" points="236.204,396.894 236.39,404.162 249.62,403.975 248.689,395.403 	"/>
	<polygon fill="#231F20" points="216.078,399.876 216.451,406.398 228.563,404.721 228.004,397.081 	"/>
	<polygon fill="#231F20" points="283.721,360.184 279.063,363.725 285.212,376.023 294.53,371.738 	"/>
	<polygon fill="#231F20" points="287.821,385.341 289.312,398.944 300.865,394.844 299.561,379.191 	"/>
	<polygon fill="#231F20" points="308.505,375.465 310.555,392.794 323.972,391.304 323.413,372.669 	"/>
	<polygon fill="#231F20" points="319.872,362.979 311.301,351.985 292.852,356.271 303.288,368.011 	"/>
</g>
</svg>
