<?xml version="1.0" encoding="utf-8"?>
<!-- Generator: Adobe Illustrator 17.0.2, SVG Export Plug-In . SVG Version: 6.00 Build 0)  -->
<!DOCTYPE svg PUBLIC "-//W3C//DTD SVG 1.1//EN" "http://www.w3.org/Graphics/SVG/1.1/DTD/svg11.dtd">
<svg version="1.1" id="Layer_1" xmlns="http://www.w3.org/2000/svg" xmlns:xlink="http://www.w3.org/1999/xlink" x="0px" y="0px"
	 width="612px" height="792px" viewBox="0 0 612 792" enable-background="new 0 0 612 792" xml:space="preserve">
<path fill="#A29352" d="M307.167,403.858l3,6.642l-2.667,12.333l-3,8.333l-5.333,8.333l-7.667,6.333l-6.667,4l-8.667,2L266.5,450.5
	l-9.333-4.333L250.5,439.5l-5.333-8.667l-4.333-13l-2-9L236.5,419.5l-5.667,11l-7.333,9l-10.333,7l-6.711,1.118
	c6.974,17.997,33.041,31.374,64.153,31.374c36.451,0,66-18.356,66-41C336.608,423.75,324.913,411.207,307.167,403.858z"/>
<g>
	<path fill="#A29352" d="M381.406,423.168l-0.585,0.065c-0.737,0-1.234-0.346-1.495-1.04l-4.029-10.725h-20.735l-4.03,10.725
		c-0.26,0.694-0.759,1.04-1.495,1.04l-0.585-0.065c-0.39-0.173-0.682-0.465-0.877-0.877c-0.195-0.412-0.206-0.812-0.032-1.203
		l15.795-42.185c0.303-0.65,0.845-0.975,1.625-0.975c0.779,0,1.277,0.325,1.495,0.975l15.795,42.185c0.172,0.39,0.172,0.791,0,1.203
		C382.077,422.703,381.796,422.996,381.406,423.168z M364.961,383.843l-9.23,24.44h18.396L364.961,383.843z"/>
	<path fill="#A29352" d="M387.776,410.233v-17.355c0-0.433,0.151-0.801,0.455-1.105c0.303-0.303,0.672-0.455,1.105-0.455
		c0.433,0,0.801,0.152,1.104,0.455c0.303,0.304,0.455,0.672,0.455,1.105v17.355c0,2.73,0.953,5.049,2.86,6.955
		c1.906,1.907,4.203,2.882,6.89,2.925c2.73-0.042,5.06-1.018,6.988-2.925c1.927-1.906,2.892-4.225,2.892-6.955v-17.355
		c0-0.433,0.163-0.801,0.488-1.105c0.324-0.303,0.703-0.455,1.137-0.455s0.802,0.152,1.105,0.455
		c0.303,0.304,0.455,0.672,0.455,1.105v17.355c0,3.597-1.268,6.663-3.803,9.197c-2.535,2.535-5.601,3.803-9.197,3.803
		c-3.598,0-6.652-1.268-9.165-3.803C389.033,416.896,387.776,413.831,387.776,410.233z"/>
</g>
<path fill="none" stroke="#231F20" stroke-width="3" stroke-miterlimit="10" d="M231.283,391.591"/>
<path fill="none" stroke="#231F20" stroke-width="3" stroke-miterlimit="10" d="M225.493,391.591"/>
<g>
	<path fill="#231F20" d="M274.726,360.542c-16.357,0-30.239,13.65-34.892,32.411c-3.524-20.856-18.211-36.548-35.748-36.548
		c-20.158,0-36.557,20.729-36.557,46.207c0,25.479,16.399,46.208,36.557,46.208c16.357,0,30.239-13.65,34.892-32.411
		c3.524,20.856,18.211,36.548,35.748,36.548c20.158,0,36.557-20.729,36.557-46.207C311.284,381.271,294.884,360.542,274.726,360.542
		z M206.368,359.451c16.986,1.473,30.551,19.244,31.303,41.237h-10.353c-0.61-14.243-9.653-25.71-20.95-26.65V359.451z
		 M203.368,359.363v14.674c-11.157,0.929-20.111,12.126-20.919,26.124h-11.928C171.499,377.743,185.796,359.841,203.368,359.363z
		 M203.368,445.862c-18.066-0.491-32.666-19.402-32.893-42.701h11.927c0.379,14.518,9.512,26.295,20.966,27.249V445.862z
		 M185.383,402.224c0-13.926,8.741-25.256,19.485-25.256s19.485,11.33,19.485,25.256s-8.741,25.256-19.485,25.256
		S185.383,416.15,185.383,402.224z M206.368,445.774V430.41c11.317-0.942,20.372-12.446,20.955-26.723h10.365
		C237.26,426.07,223.571,444.282,206.368,445.774z M282.718,397.53v-16.125h8.229v38.179l-0.607,3.035h-4.464V397.53H282.718z
		 M275.349,400.53h7.527v22.089h-7.527V400.53z M272.349,397.53v24.219l-3.667-1.737v-34.069l7.527-0.125v11.713H272.349z
		 M259.541,389.301v33.494h-5.948v-33.494H259.541z M250.593,389.301v33.494h-3.316v-33.494H250.593z M244.277,422.794h-0.767
		c-1.546-4.965-2.406-10.377-2.406-16.045c0-6.207,1.028-12.107,2.865-17.449h0.308V422.794z M274.726,450.022
		c-13.232,0-24.699-9.892-30.182-24.228h17.997v-12.808h3.141v8.924l7.83,3.709H292.8l1.118-5.592l0.005-7.041h14.073
		C305.638,433.901,291.62,450.022,274.726,450.022z"/>
	<path fill="#231F20" d="M204.747,384.808c-7.465,0-13.538,7.558-13.538,16.848s6.073,16.848,13.538,16.848
		c7.464,0,13.537-7.558,13.537-16.848S212.211,384.808,204.747,384.808z M204.747,415.503c-5.811,0-10.538-6.212-10.538-13.848
		s4.727-13.848,10.538-13.848c5.81,0,10.537,6.212,10.537,13.848S210.557,415.503,204.747,415.503z"/>
</g>
</svg>
