<?xml version="1.0" encoding="utf-8"?>
<!-- Generator: Adobe Illustrator 17.0.2, SVG Export Plug-In . SVG Version: 6.00 Build 0)  -->
<!DOCTYPE svg PUBLIC "-//W3C//DTD SVG 1.1//EN" "http://www.w3.org/Graphics/SVG/1.1/DTD/svg11.dtd">
<svg version="1.1" id="Layer_1" xmlns="http://www.w3.org/2000/svg" xmlns:xlink="http://www.w3.org/1999/xlink" x="0px" y="0px"
	 width="252px" height="252px" viewBox="180 270 252 252" enable-background="new 180 270 252 252" xml:space="preserve">
<path fill="#5F8792" d="M297.53,388.531c-1.912,0-3.8,0.062-5.672,0.161l11.572,2.829v14.612l-8.939,4.813l-20.629-3.094
	l-0.344-14.956l9.338-3.335c-29.385,4.146-51.327,20.461-51.327,39.97c0,22.644,29.549,41,66,41s66-18.356,66-41
	S333.981,388.531,297.53,388.531z M295.378,438.355l-13.019,13.02l-2.445,2.445c-0.336,0.336-0.743,0.503-1.223,0.503
	s-0.888-0.167-1.223-0.503l-2.446-2.445l-6.509-6.51c-0.336-0.336-0.504-0.743-0.504-1.223s0.168-0.887,0.504-1.223l2.445-2.446
	c0.335-0.335,0.743-0.503,1.223-0.503s0.887,0.168,1.223,0.503l5.287,5.305l11.796-11.813c0.335-0.336,0.743-0.504,1.223-0.504
	s0.887,0.168,1.223,0.504l2.445,2.445c0.336,0.336,0.504,0.743,0.504,1.223S295.714,438.02,295.378,438.355z M346.563,449.418
	l-8.939,4.813l-20.629-3.094l-0.344-14.956l14.44-5.157l15.472,3.782V449.418z"/>
<path fill="#5F8792" d="M420.844,394.416c-1.669-2.231-3.803-3.803-6.402-4.713c2.902-2.34,4.354-5.188,4.354-8.547
	c0-3.357-1.104-6.143-3.314-8.353c-2.011-2.011-4.403-3.096-7.167-3.278v-9.263c0-0.875-0.709-1.584-1.584-1.584
	s-1.584,0.709-1.584,1.584v9.226h-7.8c-0.434,0-0.803,0.152-1.105,0.455c-0.304,0.304-0.455,0.672-0.455,1.105v42.38
	c0,0.434,0.141,0.802,0.423,1.105c0.281,0.304,0.639,0.455,1.072,0.455h7.865v7.576c0,0.875,0.709,1.584,1.584,1.584
	s1.584-0.709,1.584-1.584v-7.576h2.032c3.596,0,6.662-1.268,9.197-3.803s3.803-5.6,3.803-9.197
	C423.347,399.172,422.512,396.648,420.844,394.416z M413.24,375.078c1.581,1.604,2.372,3.521,2.372,5.752
	c0,2.232-0.791,4.139-2.372,5.72c-1.385,1.385-3.027,2.163-4.925,2.336v-16.175C410.213,372.886,411.854,373.676,413.24,375.078z
	 M398.972,372.673h6.175v16.25h-6.175V372.673z M398.972,411.803v-19.63h6.175v19.63H398.972z M417.237,408.943
	c-1.907,1.907-4.204,2.86-6.89,2.86h-2.032v-19.63h2.032c2.686,0,4.982,0.965,6.89,2.893c1.906,1.929,2.882,4.236,2.925,6.922
	C420.118,404.718,419.143,407.037,417.237,408.943z"/>
<g>
	<g>
		<line fill="none" stroke="#221F1F" stroke-width="3" stroke-miterlimit="10" x1="291.333" y1="410" x2="292.12" y2="410.797"/>
		
			<line fill="none" stroke="#221F1F" stroke-width="3" stroke-miterlimit="10" stroke-dasharray="2.2863,2.2863" x1="293.726" y1="412.424" x2="315.41" y2="434.39"/>
		<line fill="none" stroke="#221F1F" stroke-width="3" stroke-miterlimit="10" x1="316.213" y1="435.203" x2="317" y2="436"/>
	</g>
</g>
<g>
	<g>
		<path fill="none" stroke="#221F1F" stroke-width="3" stroke-miterlimit="10" d="M289.051,398.207"/>
		<path fill="none" stroke="#221F1F" stroke-width="3" stroke-miterlimit="10" d="M275.79,395.994"/>
		<path fill="none" stroke="#221F1F" stroke-width="3" stroke-miterlimit="10" d="M288.87,406.682"/>
		<path fill="none" stroke="#221F1F" stroke-width="3" stroke-miterlimit="10" d="M275.609,404.469"/>
	</g>
	<g>
		<path fill="none" stroke="#221F1F" stroke-width="3" stroke-miterlimit="10" d="M295.395,406.016"/>
		<path fill="none" stroke="#221F1F" stroke-width="3" stroke-miterlimit="10" d="M301.548,403.409"/>
		<path fill="none" stroke="#221F1F" stroke-width="3" stroke-miterlimit="10" d="M295.395,398.598"/>
		<path fill="none" stroke="#221F1F" stroke-width="3" stroke-miterlimit="10" d="M301.548,395.991"/>
	</g>
	<g>
		<path fill="#221F1F" d="M329.369,403.386V388.26h-14.755c0.19-0.56,0.302-1.166,0.375-1.742c0.085,0.002,0.172-0.02,0.253-0.087
			c1.009-0.85,0.277-2.366,0.095-3.433c-0.027-0.16-0.204-0.271-0.356-0.271h-0.344c0.06-0.065,0.099-0.15,0.098-0.246
			c-0.002-0.457-0.023-0.885-0.136-1.328c-0.03-0.119-0.136-0.23-0.258-0.258c-0.672-0.15-1.221-0.077-1.735,0.195
			c-0.085-0.015-0.172-0.024-0.259-0.034c-0.136-0.295-0.375-0.53-0.686-0.66c-0.572-0.24-1.112,0.258-1.426,0.668
			c-0.025,0.033-0.041,0.066-0.053,0.099l-0.004,0.001c-0.094-0.18-0.196-0.373-0.375-0.462c-0.283-0.142-0.667-0.067-0.97-0.066
			c-0.204,0.001-0.365,0.167-0.369,0.369c-0.002,0.128-0.011,0.254-0.018,0.38c-0.096-0.027-0.217-0.011-0.291,0.039
			c-0.163,0.109-0.323,0.221-0.481,0.335c-0.265,0.052-0.531,0.096-0.809,0.106c-0.212,0.008-0.354,0.163-0.369,0.369
			c-0.036,0.477,0.004,0.903,0.122,1.307c0,0.016,0.001,0.03,0.001,0.046c0,0.109,0.042,0.191,0.103,0.252
			c0.101,0.251,0.236,0.498,0.407,0.745c-0.052,0.674,0.072,1.4,0.402,2.141c0.005,0.012,0.014,0.018,0.02,0.029
			c0.083,0.537,0.229,1.05,0.439,1.507h-8.135v1.04l-3.839-0.58c0.017-0.292-0.001-0.585-0.088-0.872
			c-0.171-0.57-0.647-1.34-1.942-1.771c-0.193-0.064-0.385-0.114-0.576-0.152c-0.459-0.754-1.193-1.22-2.118-1.332
			c-0.583-0.069-1.214,0.011-1.88,0.587c-0.356-0.329-0.794-0.554-1.311-0.673c-0.764-0.177-1.447-0.123-2.021,0.154
			c-0.508-0.206-1.057-0.289-1.651-0.239c-0.826,0.066-2.105,0.526-2.722,2.59c-0.438-0.274-0.931-0.447-1.479-0.521
			c-0.135-0.018-0.264-0.026-0.387-0.026c-0.495,0-1.291,0.141-1.9,0.922c-0.039-0.012-0.078-0.023-0.117-0.034
			c-1.322-0.357-2.704,0.628-2.91,2.033c-0.049,0.335-0.022,0.657,0.052,0.966l-1.706,0.739l-0.976-0.146v17.791l22.55,3.382
			l0.083,0.157l1.384-0.731c1.251,0.307,2.543,0.453,3.761,0.584l0.559,0.061c0.903,0.101,1.714,0.149,2.478,0.149
			c0.966,0,1.848-0.077,2.696-0.235c0.932-0.174,1.708-0.55,2.459-0.914c0.234-0.113,0.458-0.22,0.679-0.319
			c1.591,0.395,3.552,0.631,5.681,0.631c5.298,0,9.592-1.445,9.592-3.228c0-1.521-3.131-2.794-7.341-3.135v-1.753H329.369z
			 M291.835,408.677l-16.552-2.525v-11.724l12.442,1.866c0.062-0.003,0.117-0.016,0.186-0.008c0.547,0.069,1.076,0.161,1.604,0.278
			c0.559-0.012,1.266,0.084,2.169,0.324l0.274,0.041L291.835,408.677z M292.585,393.99l-4.391-0.658l4.457-1.931L292.585,393.99z
			 M294.589,393.86l0.053-2.111c0.044-0.058,0.088-0.122,0.132-0.182l3.788,0.572L294.589,393.86z M295.722,408.457
			c-0.27-0.115-0.524-0.238-0.763-0.37v-11.118l6.722-2.911l-0.147,5.849l-0.14,5.557L295.722,408.457z M312.067,405.165
			c-4.061,0.376-7.048,1.624-7.048,3.11c0,0.34,0.159,0.668,0.449,0.976c-0.767,0.22-1.568,0.35-2.516,0.35
			c-0.98,0-1.892-0.042-2.743-0.121l4.139-2.186l0.098-3.908h7.62v1.779H312.067z"/>
		<line fill="none" x1="301.534" y1="399.906" x2="301.541" y2="399.627"/>
	</g>
	<path fill="#221F1F" d="M313.603,385.691c-0.035-0.011-0.071-0.015-0.106-0.024c-0.111-0.101-0.269-0.14-0.403-0.074
		c-0.312-0.036-0.63-0.038-0.942-0.038c-0.476,0-0.476,0.738,0,0.738c0.011,0,0.022,0,0.033,0c0.006,0.021,0.009,0.043,0.018,0.063
		c0.044,0.1,0.016,0.211,0.063,0.331c0.09,0.227,0.263,0.327,0.502,0.344c0.171,0.012,0.302-0.124,0.356-0.271
		c0.051-0.141,0.147-0.254,0.244-0.366c0.013,0.004,0.027,0.005,0.04,0.009C313.863,386.541,314.057,385.829,313.603,385.691z"/>
	<path fill="#B9BABC" d="M282.268,408.92"/>
</g>
<g>
	<g>
		
			<line fill="none" stroke="#221F1F" stroke-width="3" stroke-miterlimit="10" x1="218.303" y1="384.713" x2="218.581" y2="385.798"/>
		
			<line fill="none" stroke="#221F1F" stroke-width="3" stroke-miterlimit="10" stroke-dasharray="2.1874,2.1874" x1="219.123" y1="387.917" x2="226.451" y2="416.522"/>
		<line fill="none" stroke="#221F1F" stroke-width="3" stroke-miterlimit="10" x1="226.722" y1="417.582" x2="227" y2="418.667"/>
	</g>
</g>
<g>
	<g>
		
			<line fill="none" stroke="#221F1F" stroke-width="3" stroke-miterlimit="10" x1="274.333" y1="408.333" x2="273.417" y2="408.977"/>
		
			<line fill="none" stroke="#221F1F" stroke-width="3" stroke-miterlimit="10" stroke-dasharray="2.1625,2.1625" x1="271.647" y1="410.219" x2="254.832" y2="422.022"/>
		
			<line fill="none" stroke="#221F1F" stroke-width="3" stroke-miterlimit="10" x1="253.947" y1="422.644" x2="253.031" y2="423.287"/>
	</g>
</g>
<g>
	<g>
		
			<line fill="none" stroke="#221F1F" stroke-width="3" stroke-miterlimit="10" x1="243.333" y1="382.667" x2="244.397" y2="383.017"/>
		
			<line fill="none" stroke="#221F1F" stroke-width="3" stroke-miterlimit="10" stroke-dasharray="2.346,2.346" x1="246.626" y1="383.75" x2="272.253" y2="392.179"/>
		
			<line fill="none" stroke="#221F1F" stroke-width="3" stroke-miterlimit="10" x1="273.368" y1="392.546" x2="274.431" y2="392.896"/>
	</g>
</g>
<g>
	<g>
		
			<line fill="none" stroke="#221F1F" stroke-width="3" stroke-miterlimit="10" x1="318.924" y1="389.737" x2="319.83" y2="389.079"/>
		
			<line fill="none" stroke="#221F1F" stroke-width="3" stroke-miterlimit="10" stroke-dasharray="2.0962,2.0962" x1="321.526" y1="387.847" x2="334.246" y2="378.607"/>
		<line fill="none" stroke="#221F1F" stroke-width="3" stroke-miterlimit="10" x1="335.094" y1="377.991" x2="336" y2="377.333"/>
	</g>
</g>
<g>
	<g>
		<line fill="none" stroke="#221F1F" stroke-width="3" stroke-miterlimit="10" x1="356.498" y1="429" x2="356.685" y2="427.896"/>
		
			<line fill="none" stroke="#221F1F" stroke-width="3" stroke-miterlimit="10" stroke-dasharray="2.1602,2.1602" x1="357.047" y1="425.766" x2="364.826" y2="379.977"/>
		
			<line fill="none" stroke="#221F1F" stroke-width="3" stroke-miterlimit="10" x1="365.007" y1="378.912" x2="365.195" y2="377.808"/>
	</g>
</g>
<g>
	<g>
		<path fill="none" stroke="#221F1F" stroke-width="3" stroke-miterlimit="10" d="M332.551,442.207"/>
		<path fill="none" stroke="#221F1F" stroke-width="3" stroke-miterlimit="10" d="M319.29,439.994"/>
		<path fill="none" stroke="#221F1F" stroke-width="3" stroke-miterlimit="10" d="M332.37,450.682"/>
		<path fill="none" stroke="#221F1F" stroke-width="3" stroke-miterlimit="10" d="M319.109,448.469"/>
	</g>
	<g>
		<path fill="none" stroke="#221F1F" stroke-width="3" stroke-miterlimit="10" d="M338.895,450.016"/>
		<path fill="none" stroke="#221F1F" stroke-width="3" stroke-miterlimit="10" d="M345.048,447.409"/>
		<path fill="none" stroke="#221F1F" stroke-width="3" stroke-miterlimit="10" d="M338.895,442.598"/>
		<path fill="none" stroke="#221F1F" stroke-width="3" stroke-miterlimit="10" d="M345.048,439.991"/>
	</g>
	<g>
		<path fill="#221F1F" d="M372.869,447.386V432.26h-14.755c0.19-0.56,0.302-1.166,0.375-1.742c0.085,0.002,0.172-0.02,0.253-0.087
			c1.009-0.85,0.277-2.366,0.095-3.433c-0.027-0.16-0.204-0.271-0.356-0.271h-0.344c0.06-0.065,0.099-0.15,0.098-0.246
			c-0.002-0.457-0.023-0.885-0.136-1.328c-0.03-0.119-0.136-0.23-0.258-0.258c-0.672-0.15-1.221-0.077-1.735,0.195
			c-0.085-0.015-0.172-0.024-0.259-0.034c-0.136-0.295-0.375-0.53-0.686-0.66c-0.572-0.24-1.112,0.258-1.426,0.668
			c-0.025,0.033-0.041,0.066-0.053,0.099l-0.004,0.001c-0.094-0.18-0.196-0.373-0.375-0.462c-0.283-0.142-0.667-0.067-0.97-0.066
			c-0.204,0.001-0.365,0.167-0.369,0.369c-0.002,0.128-0.011,0.254-0.018,0.38c-0.096-0.027-0.217-0.011-0.291,0.039
			c-0.163,0.109-0.323,0.221-0.481,0.335c-0.265,0.052-0.531,0.096-0.809,0.106c-0.212,0.008-0.354,0.163-0.369,0.369
			c-0.036,0.477,0.004,0.903,0.122,1.307c0,0.016,0.001,0.03,0.001,0.046c0,0.109,0.042,0.191,0.103,0.252
			c0.101,0.251,0.236,0.498,0.407,0.745c-0.052,0.674,0.072,1.4,0.402,2.141c0.005,0.012,0.014,0.018,0.02,0.029
			c0.083,0.537,0.229,1.05,0.439,1.507h-8.135v1.04l-3.839-0.58c0.017-0.292-0.001-0.585-0.088-0.872
			c-0.171-0.57-0.647-1.34-1.942-1.771c-0.193-0.064-0.385-0.114-0.576-0.152c-0.459-0.754-1.193-1.22-2.118-1.332
			c-0.583-0.069-1.214,0.011-1.88,0.587c-0.356-0.329-0.794-0.554-1.311-0.673c-0.764-0.177-1.447-0.123-2.021,0.154
			c-0.508-0.206-1.057-0.289-1.651-0.239c-0.826,0.066-2.105,0.526-2.722,2.59c-0.438-0.274-0.931-0.447-1.479-0.521
			c-0.135-0.018-0.264-0.026-0.387-0.026c-0.495,0-1.291,0.141-1.9,0.922c-0.039-0.012-0.078-0.023-0.117-0.034
			c-1.322-0.357-2.704,0.628-2.91,2.033c-0.049,0.335-0.022,0.657,0.052,0.966l-1.706,0.739l-0.976-0.146v17.791l22.55,3.382
			l0.083,0.157l1.384-0.731c1.251,0.307,2.543,0.453,3.761,0.584l0.559,0.061c0.903,0.101,1.714,0.149,2.478,0.149
			c0.966,0,1.848-0.077,2.696-0.235c0.932-0.174,1.708-0.55,2.459-0.914c0.234-0.113,0.458-0.22,0.679-0.319
			c1.591,0.395,3.552,0.631,5.681,0.631c5.298,0,9.592-1.445,9.592-3.228c0-1.521-3.131-2.794-7.341-3.135v-1.753H372.869z
			 M335.335,452.677l-16.552-2.525v-11.724l12.442,1.866c0.062-0.003,0.117-0.016,0.186-0.008c0.547,0.069,1.076,0.161,1.604,0.278
			c0.559-0.012,1.266,0.084,2.169,0.324l0.274,0.041L335.335,452.677z M336.085,437.99l-4.391-0.658l4.457-1.931L336.085,437.99z
			 M338.089,437.86l0.053-2.111c0.044-0.058,0.088-0.122,0.132-0.182l3.788,0.572L338.089,437.86z M339.222,452.457
			c-0.27-0.115-0.524-0.238-0.763-0.37v-11.118l6.722-2.911l-0.147,5.849l-0.14,5.557L339.222,452.457z M355.567,449.165
			c-4.061,0.376-7.048,1.624-7.048,3.11c0,0.34,0.159,0.668,0.449,0.976c-0.767,0.22-1.568,0.35-2.516,0.35
			c-0.98,0-1.892-0.042-2.743-0.121l4.139-2.186l0.098-3.908h7.62v1.779H355.567z"/>
		<line fill="none" x1="345.034" y1="443.906" x2="345.041" y2="443.627"/>
	</g>
	<path fill="#221F1F" d="M357.103,429.691c-0.035-0.011-0.071-0.015-0.106-0.024c-0.111-0.101-0.269-0.14-0.403-0.074
		c-0.312-0.036-0.63-0.038-0.942-0.038c-0.476,0-0.476,0.738,0,0.738c0.011,0,0.022,0,0.033,0c0.006,0.021,0.009,0.043,0.018,0.063
		c0.044,0.1,0.016,0.211,0.063,0.331c0.09,0.227,0.263,0.327,0.502,0.344c0.171,0.012,0.302-0.124,0.356-0.271
		c0.051-0.141,0.147-0.254,0.244-0.366c0.013,0.004,0.027,0.005,0.04,0.009C357.363,430.541,357.557,429.829,357.103,429.691z"/>
	<path fill="#B9BABC" d="M325.768,452.92"/>
</g>
<g>
	<g>
		<path fill="none" stroke="#221F1F" stroke-width="3" stroke-miterlimit="10" d="M213.051,427.457"/>
		<path fill="none" stroke="#221F1F" stroke-width="3" stroke-miterlimit="10" d="M199.79,425.244"/>
		<path fill="none" stroke="#221F1F" stroke-width="3" stroke-miterlimit="10" d="M212.87,435.932"/>
		<path fill="none" stroke="#221F1F" stroke-width="3" stroke-miterlimit="10" d="M199.609,433.719"/>
	</g>
	<g>
		<path fill="none" stroke="#221F1F" stroke-width="3" stroke-miterlimit="10" d="M219.395,435.266"/>
		<path fill="none" stroke="#221F1F" stroke-width="3" stroke-miterlimit="10" d="M225.548,432.659"/>
		<path fill="none" stroke="#221F1F" stroke-width="3" stroke-miterlimit="10" d="M219.395,427.848"/>
		<path fill="none" stroke="#221F1F" stroke-width="3" stroke-miterlimit="10" d="M225.548,425.241"/>
	</g>
	<g>
		<path fill="#221F1F" d="M253.369,432.636V417.51h-14.755c0.19-0.56,0.302-1.166,0.375-1.742c0.085,0.002,0.172-0.02,0.253-0.087
			c1.009-0.85,0.277-2.366,0.095-3.433c-0.027-0.16-0.204-0.271-0.356-0.271h-0.344c0.06-0.065,0.099-0.15,0.098-0.246
			c-0.002-0.457-0.023-0.885-0.136-1.328c-0.03-0.119-0.136-0.23-0.258-0.258c-0.672-0.15-1.221-0.077-1.735,0.195
			c-0.085-0.015-0.172-0.024-0.259-0.034c-0.136-0.295-0.375-0.53-0.686-0.66c-0.572-0.24-1.112,0.258-1.426,0.668
			c-0.025,0.033-0.041,0.066-0.053,0.099l-0.004,0.001c-0.094-0.18-0.196-0.373-0.375-0.462c-0.283-0.142-0.667-0.067-0.97-0.066
			c-0.204,0.001-0.365,0.167-0.369,0.369c-0.002,0.128-0.011,0.254-0.018,0.38c-0.096-0.027-0.217-0.011-0.291,0.039
			c-0.163,0.109-0.323,0.221-0.481,0.335c-0.265,0.052-0.531,0.096-0.809,0.106c-0.212,0.008-0.354,0.163-0.369,0.369
			c-0.036,0.477,0.004,0.903,0.122,1.307c0,0.016,0.001,0.03,0.001,0.046c0,0.109,0.042,0.191,0.103,0.252
			c0.101,0.251,0.236,0.498,0.407,0.745c-0.052,0.674,0.072,1.4,0.402,2.141c0.005,0.012,0.014,0.018,0.02,0.029
			c0.083,0.537,0.229,1.05,0.439,1.507h-8.135v1.04l-3.839-0.58c0.017-0.292-0.001-0.585-0.088-0.872
			c-0.171-0.57-0.647-1.34-1.942-1.771c-0.193-0.064-0.385-0.114-0.576-0.152c-0.459-0.754-1.193-1.22-2.118-1.332
			c-0.583-0.069-1.214,0.011-1.88,0.587c-0.356-0.329-0.794-0.554-1.311-0.673c-0.764-0.177-1.447-0.123-2.021,0.154
			c-0.508-0.206-1.057-0.289-1.651-0.239c-0.826,0.066-2.105,0.526-2.722,2.59c-0.438-0.274-0.931-0.447-1.479-0.521
			c-0.135-0.018-0.264-0.026-0.387-0.026c-0.495,0-1.291,0.141-1.9,0.922c-0.039-0.012-0.078-0.023-0.117-0.034
			c-1.322-0.357-2.704,0.628-2.91,2.033c-0.049,0.335-0.022,0.657,0.052,0.966l-1.706,0.739l-0.976-0.146v17.791l22.55,3.382
			l0.083,0.157l1.384-0.731c1.251,0.307,2.543,0.453,3.761,0.584l0.559,0.061c0.903,0.101,1.714,0.149,2.478,0.149
			c0.966,0,1.848-0.077,2.696-0.235c0.932-0.174,1.708-0.55,2.459-0.914c0.234-0.113,0.458-0.22,0.679-0.319
			c1.591,0.395,3.552,0.631,5.681,0.631c5.298,0,9.592-1.445,9.592-3.228c0-1.521-3.131-2.794-7.341-3.135v-1.753H253.369z
			 M215.835,437.927l-16.552-2.525v-11.724l12.442,1.866c0.062-0.003,0.117-0.016,0.186-0.008c0.547,0.069,1.076,0.161,1.604,0.278
			c0.559-0.012,1.266,0.084,2.169,0.324l0.274,0.041L215.835,437.927z M216.585,423.24l-4.391-0.658l4.457-1.931L216.585,423.24z
			 M218.589,423.11l0.053-2.111c0.044-0.058,0.088-0.122,0.132-0.182l3.788,0.572L218.589,423.11z M219.722,437.707
			c-0.27-0.115-0.524-0.238-0.763-0.37v-11.118l6.722-2.911l-0.147,5.849l-0.14,5.557L219.722,437.707z M236.067,434.415
			c-4.061,0.376-7.048,1.624-7.048,3.11c0,0.34,0.159,0.668,0.449,0.976c-0.767,0.22-1.568,0.35-2.516,0.35
			c-0.98,0-1.892-0.042-2.743-0.121l4.139-2.186l0.098-3.908h7.62v1.779H236.067z"/>
		<line fill="none" x1="225.534" y1="429.156" x2="225.541" y2="428.877"/>
	</g>
	<path fill="#221F1F" d="M237.603,414.941c-0.035-0.011-0.071-0.015-0.106-0.024c-0.111-0.101-0.269-0.14-0.403-0.074
		c-0.312-0.036-0.63-0.038-0.942-0.038c-0.476,0-0.476,0.738,0,0.738c0.011,0,0.022,0,0.033,0c0.006,0.021,0.009,0.043,0.018,0.063
		c0.044,0.1,0.016,0.211,0.063,0.331c0.09,0.227,0.263,0.327,0.502,0.344c0.171,0.012,0.302-0.124,0.356-0.271
		c0.051-0.141,0.147-0.254,0.244-0.366c0.013,0.004,0.027,0.005,0.04,0.009C237.863,415.791,238.057,415.079,237.603,414.941z"/>
	<path fill="#B9BABC" d="M206.268,438.17"/>
</g>
<g>
	<g>
		<path fill="none" stroke="#221F1F" stroke-width="3" stroke-miterlimit="10" d="M335.551,365.707"/>
		<path fill="none" stroke="#221F1F" stroke-width="3" stroke-miterlimit="10" d="M322.29,363.494"/>
		<path fill="none" stroke="#221F1F" stroke-width="3" stroke-miterlimit="10" d="M335.37,374.182"/>
		<path fill="none" stroke="#221F1F" stroke-width="3" stroke-miterlimit="10" d="M322.109,371.969"/>
	</g>
	<g>
		<path fill="none" stroke="#221F1F" stroke-width="3" stroke-miterlimit="10" d="M341.895,373.516"/>
		<path fill="none" stroke="#221F1F" stroke-width="3" stroke-miterlimit="10" d="M348.048,370.909"/>
		<path fill="none" stroke="#221F1F" stroke-width="3" stroke-miterlimit="10" d="M341.895,366.098"/>
		<path fill="none" stroke="#221F1F" stroke-width="3" stroke-miterlimit="10" d="M348.048,363.491"/>
	</g>
	<g>
		<path fill="#221F1F" d="M375.869,370.886V355.76h-14.755c0.19-0.56,0.302-1.166,0.375-1.742c0.085,0.002,0.172-0.02,0.253-0.087
			c1.009-0.85,0.277-2.366,0.095-3.433c-0.027-0.16-0.204-0.271-0.356-0.271h-0.344c0.06-0.065,0.099-0.15,0.098-0.246
			c-0.002-0.457-0.023-0.885-0.136-1.328c-0.03-0.119-0.136-0.23-0.258-0.258c-0.672-0.15-1.221-0.077-1.735,0.195
			c-0.085-0.015-0.172-0.024-0.259-0.034c-0.136-0.295-0.375-0.53-0.686-0.66c-0.572-0.24-1.112,0.258-1.426,0.668
			c-0.025,0.033-0.041,0.066-0.053,0.099l-0.004,0.001c-0.094-0.18-0.196-0.373-0.375-0.462c-0.283-0.142-0.667-0.067-0.97-0.066
			c-0.204,0.001-0.365,0.167-0.369,0.369c-0.002,0.128-0.011,0.254-0.018,0.38c-0.096-0.027-0.217-0.011-0.291,0.039
			c-0.163,0.109-0.323,0.221-0.481,0.335c-0.265,0.052-0.531,0.096-0.809,0.106c-0.212,0.008-0.354,0.163-0.369,0.369
			c-0.036,0.477,0.004,0.903,0.122,1.307c0,0.016,0.001,0.03,0.001,0.046c0,0.109,0.042,0.191,0.103,0.252
			c0.101,0.251,0.236,0.498,0.407,0.745c-0.052,0.674,0.072,1.4,0.402,2.141c0.005,0.012,0.014,0.018,0.02,0.029
			c0.083,0.537,0.229,1.05,0.439,1.507h-8.135v1.04l-3.839-0.58c0.017-0.292-0.001-0.585-0.088-0.872
			c-0.171-0.57-0.647-1.34-1.942-1.771c-0.193-0.064-0.385-0.114-0.576-0.152c-0.459-0.754-1.193-1.22-2.118-1.332
			c-0.583-0.069-1.214,0.011-1.88,0.587c-0.356-0.329-0.794-0.554-1.311-0.673c-0.764-0.177-1.447-0.123-2.021,0.154
			c-0.508-0.206-1.057-0.289-1.651-0.239c-0.826,0.066-2.105,0.526-2.722,2.59c-0.438-0.274-0.931-0.447-1.479-0.521
			c-0.135-0.018-0.264-0.026-0.387-0.026c-0.495,0-1.291,0.141-1.9,0.922c-0.039-0.012-0.078-0.023-0.117-0.034
			c-1.322-0.357-2.704,0.628-2.91,2.033c-0.049,0.335-0.022,0.657,0.052,0.966l-1.706,0.739l-0.976-0.146v17.791l22.55,3.382
			l0.083,0.157l1.384-0.731c1.251,0.307,2.543,0.453,3.761,0.584l0.559,0.061c0.903,0.101,1.714,0.149,2.478,0.149
			c0.966,0,1.848-0.077,2.696-0.235c0.932-0.174,1.708-0.55,2.459-0.914c0.234-0.113,0.458-0.22,0.679-0.319
			c1.591,0.395,3.552,0.631,5.681,0.631c5.298,0,9.592-1.445,9.592-3.228c0-1.521-3.131-2.794-7.341-3.135v-1.753H375.869z
			 M338.335,376.177l-16.552-2.525v-11.724l12.442,1.866c0.062-0.003,0.117-0.016,0.186-0.008c0.547,0.069,1.076,0.161,1.604,0.278
			c0.559-0.012,1.266,0.084,2.169,0.324l0.274,0.041L338.335,376.177z M339.085,361.49l-4.391-0.658l4.457-1.931L339.085,361.49z
			 M341.089,361.36l0.053-2.111c0.044-0.058,0.088-0.122,0.132-0.182l3.788,0.572L341.089,361.36z M342.222,375.957
			c-0.27-0.115-0.524-0.238-0.763-0.37v-11.118l6.722-2.911l-0.147,5.849l-0.14,5.557L342.222,375.957z M358.567,372.665
			c-4.061,0.376-7.048,1.624-7.048,3.11c0,0.34,0.159,0.668,0.449,0.976c-0.767,0.22-1.568,0.35-2.516,0.35
			c-0.98,0-1.892-0.042-2.743-0.121l4.139-2.186l0.098-3.908h7.62v1.779H358.567z"/>
		<line fill="none" x1="348.034" y1="367.406" x2="348.041" y2="367.127"/>
	</g>
	<path fill="#221F1F" d="M360.103,353.191c-0.035-0.011-0.071-0.015-0.106-0.024c-0.111-0.101-0.269-0.14-0.403-0.074
		c-0.312-0.036-0.63-0.038-0.942-0.038c-0.476,0-0.476,0.738,0,0.738c0.011,0,0.022,0,0.033,0c0.006,0.021,0.009,0.043,0.018,0.063
		c0.044,0.1,0.016,0.211,0.063,0.331c0.09,0.227,0.263,0.327,0.502,0.344c0.171,0.012,0.302-0.124,0.356-0.271
		c0.051-0.141,0.147-0.254,0.244-0.366c0.013,0.004,0.027,0.005,0.04,0.009C360.363,354.041,360.557,353.329,360.103,353.191z"/>
	<path fill="#B9BABC" d="M328.768,376.42"/>
</g>
<g>
	<g>
		<path fill="none" stroke="#221F1F" stroke-width="3" stroke-miterlimit="10" d="M212.301,373.457"/>
		<path fill="none" stroke="#221F1F" stroke-width="3" stroke-miterlimit="10" d="M199.04,371.244"/>
		<path fill="none" stroke="#221F1F" stroke-width="3" stroke-miterlimit="10" d="M212.12,381.932"/>
		<path fill="none" stroke="#221F1F" stroke-width="3" stroke-miterlimit="10" d="M198.859,379.719"/>
	</g>
	<g>
		<path fill="none" stroke="#221F1F" stroke-width="3" stroke-miterlimit="10" d="M218.645,381.266"/>
		<path fill="none" stroke="#221F1F" stroke-width="3" stroke-miterlimit="10" d="M224.798,378.659"/>
		<path fill="none" stroke="#221F1F" stroke-width="3" stroke-miterlimit="10" d="M218.645,373.848"/>
		<path fill="none" stroke="#221F1F" stroke-width="3" stroke-miterlimit="10" d="M224.798,371.241"/>
	</g>
	<g>
		<path fill="#221F1F" d="M252.619,378.636V363.51h-14.755c0.19-0.56,0.302-1.166,0.375-1.742c0.085,0.002,0.172-0.02,0.253-0.087
			c1.009-0.85,0.277-2.366,0.095-3.433c-0.027-0.16-0.204-0.271-0.356-0.271h-0.344c0.06-0.065,0.099-0.15,0.098-0.246
			c-0.002-0.457-0.023-0.885-0.136-1.328c-0.03-0.119-0.136-0.23-0.258-0.258c-0.672-0.15-1.221-0.077-1.735,0.195
			c-0.085-0.015-0.172-0.024-0.259-0.034c-0.136-0.295-0.375-0.53-0.686-0.66c-0.572-0.24-1.112,0.258-1.426,0.668
			c-0.025,0.033-0.041,0.066-0.053,0.099l-0.004,0.001c-0.094-0.18-0.196-0.373-0.375-0.462c-0.283-0.142-0.667-0.067-0.97-0.066
			c-0.204,0.001-0.365,0.167-0.369,0.369c-0.002,0.128-0.011,0.254-0.018,0.38c-0.096-0.027-0.217-0.011-0.291,0.039
			c-0.163,0.109-0.323,0.221-0.481,0.335c-0.265,0.052-0.531,0.096-0.809,0.106c-0.212,0.008-0.354,0.163-0.369,0.369
			c-0.036,0.477,0.004,0.903,0.122,1.307c0,0.016,0.001,0.03,0.001,0.046c0,0.109,0.042,0.191,0.103,0.252
			c0.101,0.251,0.236,0.498,0.407,0.745c-0.052,0.674,0.072,1.4,0.402,2.141c0.005,0.012,0.014,0.018,0.02,0.029
			c0.083,0.537,0.229,1.05,0.439,1.507h-8.135v1.04l-3.839-0.58c0.017-0.292-0.001-0.585-0.088-0.872
			c-0.171-0.57-0.647-1.34-1.942-1.771c-0.193-0.064-0.385-0.114-0.576-0.152c-0.459-0.754-1.193-1.22-2.118-1.332
			c-0.583-0.069-1.214,0.011-1.88,0.587c-0.356-0.329-0.794-0.554-1.311-0.673c-0.764-0.177-1.447-0.123-2.021,0.154
			c-0.508-0.206-1.057-0.289-1.651-0.239c-0.826,0.066-2.105,0.526-2.722,2.59c-0.438-0.274-0.931-0.447-1.479-0.521
			c-0.135-0.018-0.264-0.026-0.387-0.026c-0.495,0-1.291,0.141-1.9,0.922c-0.039-0.012-0.078-0.023-0.117-0.034
			c-1.322-0.357-2.704,0.628-2.91,2.033c-0.049,0.335-0.022,0.657,0.052,0.966l-1.706,0.739l-0.976-0.146v17.791l22.55,3.382
			l0.083,0.157l1.384-0.731c1.251,0.307,2.543,0.453,3.761,0.584l0.559,0.061c0.903,0.101,1.714,0.149,2.478,0.149
			c0.966,0,1.848-0.077,2.696-0.235c0.932-0.174,1.708-0.55,2.459-0.914c0.234-0.113,0.458-0.22,0.679-0.319
			c1.591,0.395,3.552,0.631,5.681,0.631c5.298,0,9.592-1.445,9.592-3.228c0-1.521-3.131-2.794-7.341-3.135v-1.753H252.619z
			 M215.085,383.927l-16.552-2.525v-11.724l12.442,1.866c0.062-0.003,0.117-0.016,0.186-0.008c0.547,0.069,1.076,0.161,1.604,0.278
			c0.559-0.012,1.266,0.084,2.169,0.324l0.274,0.041L215.085,383.927z M215.835,369.24l-4.391-0.658l4.457-1.931L215.835,369.24z
			 M217.839,369.11l0.053-2.111c0.044-0.058,0.088-0.122,0.132-0.182l3.788,0.572L217.839,369.11z M218.972,383.707
			c-0.27-0.115-0.524-0.238-0.763-0.37v-11.118l6.722-2.911l-0.147,5.849l-0.14,5.557L218.972,383.707z M235.317,380.415
			c-4.061,0.376-7.048,1.624-7.048,3.11c0,0.34,0.159,0.668,0.449,0.976c-0.767,0.22-1.568,0.35-2.516,0.35
			c-0.98,0-1.892-0.042-2.743-0.121l4.139-2.186l0.098-3.908h7.62v1.779H235.317z"/>
		<line fill="none" x1="224.784" y1="375.156" x2="224.791" y2="374.877"/>
	</g>
	<path fill="#221F1F" d="M236.853,360.941c-0.035-0.011-0.071-0.015-0.106-0.024c-0.111-0.101-0.269-0.14-0.403-0.074
		c-0.312-0.036-0.63-0.038-0.942-0.038c-0.476,0-0.476,0.738,0,0.738c0.011,0,0.022,0,0.033,0c0.006,0.021,0.009,0.043,0.018,0.063
		c0.044,0.1,0.016,0.211,0.063,0.331c0.09,0.227,0.263,0.327,0.502,0.344c0.171,0.012,0.302-0.124,0.356-0.271
		c0.051-0.141,0.147-0.254,0.244-0.366c0.013,0.004,0.027,0.005,0.04,0.009C237.113,361.791,237.307,361.079,236.853,360.941z"/>
	<path fill="#B9BABC" d="M205.518,384.17"/>
</g>
</svg>
