<?xml version="1.0" encoding="utf-8"?>
<!-- Generator: Adobe Illustrator 17.0.2, SVG Export Plug-In . SVG Version: 6.00 Build 0)  -->
<!DOCTYPE svg PUBLIC "-//W3C//DTD SVG 1.1//EN" "http://www.w3.org/Graphics/SVG/1.1/DTD/svg11.dtd">
<svg version="1.1" id="Layer_1" xmlns="http://www.w3.org/2000/svg" xmlns:xlink="http://www.w3.org/1999/xlink" x="0px" y="0px"
	 width="612px" height="792px" viewBox="0 0 612 792" enable-background="new 0 0 612 792" xml:space="preserve">
<path fill="#5F8792" d="M307.53,381.531c-1.912,0-3.8,0.062-5.672,0.161l11.572,2.829v14.612l-8.939,4.813l-20.629-3.094
	l-0.344-14.956l9.338-3.335c-29.385,4.146-51.327,20.461-51.327,39.97c0,22.644,29.549,41,66,41s66-18.356,66-41
	S343.981,381.531,307.53,381.531z M305.378,431.355l-13.019,13.02l-2.445,2.445c-0.336,0.336-0.743,0.503-1.223,0.503
	s-0.888-0.167-1.223-0.503l-2.446-2.445l-6.509-6.51c-0.336-0.336-0.504-0.743-0.504-1.223s0.168-0.887,0.504-1.223l2.445-2.446
	c0.335-0.335,0.743-0.503,1.223-0.503s0.887,0.168,1.223,0.503l5.287,5.305l11.796-11.813c0.335-0.336,0.743-0.504,1.223-0.504
	s0.887,0.168,1.223,0.504l2.445,2.445c0.336,0.336,0.504,0.743,0.504,1.223S305.714,431.02,305.378,431.355z M356.563,442.418
	l-8.939,4.813l-20.629-3.094l-0.344-14.956l14.44-5.157l15.472,3.782V442.418z"/>
<path fill="#5F8792" d="M430.844,387.416c-1.669-2.231-3.803-3.803-6.402-4.713c2.902-2.34,4.354-5.188,4.354-8.547
	c0-3.357-1.104-6.143-3.314-8.353c-2.011-2.011-4.403-3.096-7.167-3.278v-9.263c0-0.875-0.709-1.584-1.584-1.584
	s-1.584,0.709-1.584,1.584v9.226h-7.8c-0.434,0-0.803,0.152-1.105,0.455c-0.304,0.304-0.455,0.672-0.455,1.105v42.38
	c0,0.434,0.141,0.802,0.423,1.105c0.281,0.304,0.639,0.455,1.072,0.455h7.865v7.576c0,0.875,0.709,1.584,1.584,1.584
	s1.584-0.709,1.584-1.584v-7.576h2.032c3.596,0,6.662-1.268,9.197-3.803c2.535-2.535,3.803-5.6,3.803-9.197
	C433.347,392.172,432.512,389.648,430.844,387.416z M423.24,368.078c1.581,1.604,2.372,3.521,2.372,5.752
	c0,2.232-0.791,4.139-2.372,5.72c-1.385,1.385-3.027,2.163-4.925,2.336v-16.175C420.213,365.886,421.854,366.676,423.24,368.078z
	 M408.972,365.673h6.175v16.25h-6.175V365.673z M408.972,404.803v-19.63h6.175v19.63H408.972z M427.237,401.943
	c-1.907,1.907-4.204,2.86-6.89,2.86h-2.032v-19.63h2.032c2.686,0,4.982,0.965,6.89,2.893c1.906,1.929,2.882,4.236,2.925,6.922
	C430.118,397.718,429.143,400.037,427.237,401.943z"/>
<g>
	<g>
		<line fill="none" stroke="#221F1F" stroke-width="3" stroke-miterlimit="10" x1="301.333" y1="403" x2="302.12" y2="403.797"/>
		
			<line fill="none" stroke="#221F1F" stroke-width="3" stroke-miterlimit="10" stroke-dasharray="2.2863,2.2863" x1="303.726" y1="405.424" x2="325.41" y2="427.39"/>
		<line fill="none" stroke="#221F1F" stroke-width="3" stroke-miterlimit="10" x1="326.213" y1="428.203" x2="327" y2="429"/>
	</g>
</g>
<g>
	<g>
		<path fill="none" stroke="#221F1F" stroke-width="3" stroke-miterlimit="10" d="M299.051,391.207"/>
		<path fill="none" stroke="#221F1F" stroke-width="3" stroke-miterlimit="10" d="M285.79,388.994"/>
		<path fill="none" stroke="#221F1F" stroke-width="3" stroke-miterlimit="10" d="M298.87,399.682"/>
		<path fill="none" stroke="#221F1F" stroke-width="3" stroke-miterlimit="10" d="M285.609,397.469"/>
	</g>
	<g>
		<path fill="none" stroke="#221F1F" stroke-width="3" stroke-miterlimit="10" d="M305.395,399.016"/>
		<path fill="none" stroke="#221F1F" stroke-width="3" stroke-miterlimit="10" d="M311.548,396.409"/>
		<path fill="none" stroke="#221F1F" stroke-width="3" stroke-miterlimit="10" d="M305.395,391.598"/>
		<path fill="none" stroke="#221F1F" stroke-width="3" stroke-miterlimit="10" d="M311.548,388.991"/>
	</g>
	<g>
		<path fill="#221F1F" d="M339.369,396.386V381.26h-14.755c0.19-0.56,0.302-1.166,0.375-1.742c0.085,0.002,0.172-0.02,0.253-0.087
			c1.009-0.85,0.277-2.366,0.095-3.433c-0.027-0.16-0.204-0.271-0.356-0.271h-0.344c0.06-0.065,0.099-0.15,0.098-0.246
			c-0.002-0.457-0.023-0.885-0.136-1.328c-0.03-0.119-0.136-0.23-0.258-0.258c-0.672-0.15-1.221-0.077-1.735,0.195
			c-0.085-0.015-0.172-0.024-0.259-0.034c-0.136-0.295-0.375-0.53-0.686-0.66c-0.572-0.24-1.112,0.258-1.426,0.668
			c-0.025,0.033-0.041,0.066-0.053,0.099l-0.004,0.001c-0.094-0.18-0.196-0.373-0.375-0.462c-0.283-0.142-0.667-0.067-0.97-0.066
			c-0.204,0.001-0.365,0.167-0.369,0.369c-0.002,0.128-0.011,0.254-0.018,0.38c-0.096-0.027-0.217-0.011-0.291,0.039
			c-0.163,0.109-0.323,0.221-0.481,0.335c-0.265,0.052-0.531,0.096-0.809,0.106c-0.212,0.008-0.354,0.163-0.369,0.369
			c-0.036,0.477,0.004,0.903,0.122,1.307c0,0.016,0.001,0.03,0.001,0.046c0,0.109,0.042,0.191,0.103,0.252
			c0.101,0.251,0.236,0.498,0.407,0.745c-0.052,0.674,0.072,1.4,0.402,2.141c0.005,0.012,0.014,0.018,0.02,0.029
			c0.083,0.537,0.229,1.05,0.439,1.507h-8.135v1.04l-3.839-0.58c0.017-0.292-0.001-0.585-0.088-0.872
			c-0.171-0.57-0.647-1.34-1.942-1.771c-0.193-0.064-0.385-0.114-0.576-0.152c-0.459-0.754-1.193-1.22-2.118-1.332
			c-0.583-0.069-1.214,0.011-1.88,0.587c-0.356-0.329-0.794-0.554-1.311-0.673c-0.764-0.177-1.447-0.123-2.021,0.154
			c-0.508-0.206-1.057-0.289-1.651-0.239c-0.826,0.066-2.105,0.526-2.722,2.59c-0.438-0.274-0.931-0.447-1.479-0.521
			c-0.135-0.018-0.264-0.026-0.387-0.026c-0.495,0-1.291,0.141-1.9,0.922c-0.039-0.012-0.078-0.023-0.117-0.034
			c-1.322-0.357-2.704,0.628-2.91,2.033c-0.049,0.335-0.022,0.657,0.052,0.966l-1.706,0.739l-0.976-0.146v17.791l22.55,3.382
			l0.083,0.157l1.384-0.731c1.251,0.307,2.543,0.453,3.761,0.584l0.559,0.061c0.903,0.101,1.714,0.149,2.478,0.149
			c0.966,0,1.848-0.077,2.696-0.235c0.932-0.174,1.708-0.55,2.459-0.914c0.234-0.113,0.458-0.22,0.679-0.319
			c1.591,0.395,3.552,0.631,5.681,0.631c5.298,0,9.592-1.445,9.592-3.228c0-1.521-3.131-2.794-7.341-3.135v-1.753H339.369z
			 M301.835,401.677l-16.552-2.525v-11.724l12.442,1.866c0.062-0.003,0.117-0.016,0.186-0.008c0.547,0.069,1.076,0.161,1.604,0.278
			c0.559-0.012,1.266,0.084,2.169,0.324l0.274,0.041L301.835,401.677z M302.585,386.99l-4.391-0.658l4.457-1.931L302.585,386.99z
			 M304.589,386.86l0.053-2.111c0.044-0.058,0.088-0.122,0.132-0.182l3.788,0.572L304.589,386.86z M305.722,401.457
			c-0.27-0.115-0.524-0.238-0.763-0.37v-11.118l6.722-2.911l-0.147,5.849l-0.14,5.557L305.722,401.457z M322.067,398.165
			c-4.061,0.376-7.048,1.624-7.048,3.11c0,0.34,0.159,0.668,0.449,0.976c-0.767,0.22-1.568,0.35-2.516,0.35
			c-0.98,0-1.892-0.042-2.743-0.121l4.139-2.186l0.098-3.908h7.62V398.165z"/>
		<line fill="#221F1F" x1="311.534" y1="392.906" x2="311.541" y2="392.627"/>
	</g>
	<path fill="#221F1F" d="M323.603,378.691c-0.035-0.011-0.071-0.015-0.106-0.024c-0.111-0.101-0.269-0.14-0.403-0.074
		c-0.312-0.036-0.63-0.038-0.942-0.038c-0.476,0-0.476,0.738,0,0.738c0.011,0,0.022,0,0.033,0c0.006,0.021,0.009,0.043,0.018,0.063
		c0.044,0.1,0.016,0.211,0.063,0.331c0.09,0.227,0.263,0.327,0.502,0.344c0.171,0.012,0.302-0.124,0.356-0.271
		c0.051-0.141,0.147-0.254,0.244-0.366c0.013,0.004,0.027,0.005,0.04,0.009C323.863,379.541,324.057,378.829,323.603,378.691z"/>
	<path fill="#B9BABC" d="M292.268,401.92"/>
</g>
<g>
	<g>
		
			<line fill="none" stroke="#221F1F" stroke-width="3" stroke-miterlimit="10" x1="228.303" y1="377.713" x2="228.581" y2="378.798"/>
		
			<line fill="none" stroke="#221F1F" stroke-width="3" stroke-miterlimit="10" stroke-dasharray="2.1874,2.1874" x1="229.123" y1="380.917" x2="236.451" y2="409.522"/>
		<line fill="none" stroke="#221F1F" stroke-width="3" stroke-miterlimit="10" x1="236.722" y1="410.582" x2="237" y2="411.667"/>
	</g>
</g>
<g>
	<g>
		
			<line fill="none" stroke="#221F1F" stroke-width="3" stroke-miterlimit="10" x1="284.333" y1="401.333" x2="283.417" y2="401.977"/>
		
			<line fill="none" stroke="#221F1F" stroke-width="3" stroke-miterlimit="10" stroke-dasharray="2.1625,2.1625" x1="281.647" y1="403.219" x2="264.832" y2="415.022"/>
		
			<line fill="none" stroke="#221F1F" stroke-width="3" stroke-miterlimit="10" x1="263.947" y1="415.644" x2="263.031" y2="416.287"/>
	</g>
</g>
<g>
	<g>
		
			<line fill="none" stroke="#221F1F" stroke-width="3" stroke-miterlimit="10" x1="253.333" y1="375.667" x2="254.397" y2="376.017"/>
		
			<line fill="none" stroke="#221F1F" stroke-width="3" stroke-miterlimit="10" stroke-dasharray="2.346,2.346" x1="256.626" y1="376.75" x2="282.253" y2="385.179"/>
		
			<line fill="none" stroke="#221F1F" stroke-width="3" stroke-miterlimit="10" x1="283.368" y1="385.546" x2="284.431" y2="385.896"/>
	</g>
</g>
<g>
	<g>
		
			<line fill="none" stroke="#221F1F" stroke-width="3" stroke-miterlimit="10" x1="328.924" y1="382.737" x2="329.83" y2="382.079"/>
		
			<line fill="none" stroke="#221F1F" stroke-width="3" stroke-miterlimit="10" stroke-dasharray="2.0962,2.0962" x1="331.526" y1="380.847" x2="344.246" y2="371.607"/>
		<line fill="none" stroke="#221F1F" stroke-width="3" stroke-miterlimit="10" x1="345.094" y1="370.991" x2="346" y2="370.333"/>
	</g>
</g>
<g>
	<g>
		<line fill="none" stroke="#221F1F" stroke-width="3" stroke-miterlimit="10" x1="366.498" y1="422" x2="366.685" y2="420.896"/>
		
			<line fill="none" stroke="#221F1F" stroke-width="3" stroke-miterlimit="10" stroke-dasharray="2.1602,2.1602" x1="367.047" y1="418.766" x2="374.826" y2="372.977"/>
		
			<line fill="none" stroke="#221F1F" stroke-width="3" stroke-miterlimit="10" x1="375.007" y1="371.912" x2="375.195" y2="370.808"/>
	</g>
</g>
<g>
	<g>
		<path fill="none" stroke="#221F1F" stroke-width="3" stroke-miterlimit="10" d="M342.551,435.207"/>
		<path fill="none" stroke="#221F1F" stroke-width="3" stroke-miterlimit="10" d="M329.29,432.994"/>
		<path fill="none" stroke="#221F1F" stroke-width="3" stroke-miterlimit="10" d="M342.37,443.682"/>
		<path fill="none" stroke="#221F1F" stroke-width="3" stroke-miterlimit="10" d="M329.109,441.469"/>
	</g>
	<g>
		<path fill="none" stroke="#221F1F" stroke-width="3" stroke-miterlimit="10" d="M348.895,443.016"/>
		<path fill="none" stroke="#221F1F" stroke-width="3" stroke-miterlimit="10" d="M355.048,440.409"/>
		<path fill="none" stroke="#221F1F" stroke-width="3" stroke-miterlimit="10" d="M348.895,435.598"/>
		<path fill="none" stroke="#221F1F" stroke-width="3" stroke-miterlimit="10" d="M355.048,432.991"/>
	</g>
	<g>
		<path fill="#221F1F" d="M382.869,440.386V425.26h-14.755c0.19-0.56,0.302-1.166,0.375-1.742c0.085,0.002,0.172-0.02,0.253-0.087
			c1.009-0.85,0.277-2.366,0.095-3.433c-0.027-0.16-0.204-0.271-0.356-0.271h-0.344c0.06-0.065,0.099-0.15,0.098-0.246
			c-0.002-0.457-0.023-0.885-0.136-1.328c-0.03-0.119-0.136-0.23-0.258-0.258c-0.672-0.15-1.221-0.077-1.735,0.195
			c-0.085-0.015-0.172-0.024-0.259-0.034c-0.136-0.295-0.375-0.53-0.686-0.66c-0.572-0.24-1.112,0.258-1.426,0.668
			c-0.025,0.033-0.041,0.066-0.053,0.099l-0.004,0.001c-0.094-0.18-0.196-0.373-0.375-0.462c-0.283-0.142-0.667-0.067-0.97-0.066
			c-0.204,0.001-0.365,0.167-0.369,0.369c-0.002,0.128-0.011,0.254-0.018,0.38c-0.096-0.027-0.217-0.011-0.291,0.039
			c-0.163,0.109-0.323,0.221-0.481,0.335c-0.265,0.052-0.531,0.096-0.809,0.106c-0.212,0.008-0.354,0.163-0.369,0.369
			c-0.036,0.477,0.004,0.903,0.122,1.307c0,0.016,0.001,0.03,0.001,0.046c0,0.109,0.042,0.191,0.103,0.252
			c0.101,0.251,0.236,0.498,0.407,0.745c-0.052,0.674,0.072,1.4,0.402,2.141c0.005,0.012,0.014,0.018,0.02,0.029
			c0.083,0.537,0.229,1.05,0.439,1.507h-8.135v1.04l-3.839-0.58c0.017-0.292-0.001-0.585-0.088-0.872
			c-0.171-0.57-0.647-1.34-1.942-1.771c-0.193-0.064-0.385-0.114-0.576-0.152c-0.459-0.754-1.193-1.22-2.118-1.332
			c-0.583-0.069-1.214,0.011-1.88,0.587c-0.356-0.329-0.794-0.554-1.311-0.673c-0.764-0.177-1.447-0.123-2.021,0.154
			c-0.508-0.206-1.057-0.289-1.651-0.239c-0.826,0.066-2.105,0.526-2.722,2.59c-0.438-0.274-0.931-0.447-1.479-0.521
			c-0.135-0.018-0.264-0.026-0.387-0.026c-0.495,0-1.291,0.141-1.9,0.922c-0.039-0.012-0.078-0.023-0.117-0.034
			c-1.322-0.357-2.704,0.628-2.91,2.033c-0.049,0.335-0.022,0.657,0.052,0.966l-1.706,0.739l-0.976-0.146v17.791l22.55,3.382
			l0.083,0.157l1.384-0.731c1.251,0.307,2.543,0.453,3.761,0.584l0.559,0.061c0.903,0.101,1.714,0.149,2.478,0.149
			c0.966,0,1.848-0.077,2.696-0.235c0.932-0.174,1.708-0.55,2.459-0.914c0.234-0.113,0.458-0.22,0.679-0.319
			c1.591,0.395,3.552,0.631,5.681,0.631c5.298,0,9.592-1.445,9.592-3.228c0-1.521-3.131-2.794-7.341-3.135v-1.753H382.869z
			 M345.335,445.677l-16.552-2.525v-11.724l12.442,1.866c0.062-0.003,0.117-0.016,0.186-0.008c0.547,0.069,1.076,0.161,1.604,0.278
			c0.559-0.012,1.266,0.084,2.169,0.324l0.274,0.041L345.335,445.677z M346.085,430.99l-4.391-0.658l4.457-1.931L346.085,430.99z
			 M348.089,430.86l0.053-2.111c0.044-0.058,0.088-0.122,0.132-0.182l3.788,0.572L348.089,430.86z M349.222,445.457
			c-0.27-0.115-0.524-0.238-0.763-0.37v-11.118l6.722-2.911l-0.147,5.849l-0.14,5.557L349.222,445.457z M365.567,442.165
			c-4.061,0.376-7.048,1.624-7.048,3.11c0,0.34,0.159,0.668,0.449,0.976c-0.767,0.22-1.568,0.35-2.516,0.35
			c-0.98,0-1.892-0.042-2.743-0.121l4.139-2.186l0.098-3.908h7.62V442.165z"/>
		<line fill="#221F1F" x1="355.034" y1="436.906" x2="355.041" y2="436.627"/>
	</g>
	<path fill="#221F1F" d="M367.103,422.691c-0.035-0.011-0.071-0.015-0.106-0.024c-0.111-0.101-0.269-0.14-0.403-0.074
		c-0.312-0.036-0.63-0.038-0.942-0.038c-0.476,0-0.476,0.738,0,0.738c0.011,0,0.022,0,0.033,0c0.006,0.021,0.009,0.043,0.018,0.063
		c0.044,0.1,0.016,0.211,0.063,0.331c0.09,0.227,0.263,0.327,0.502,0.344c0.171,0.012,0.302-0.124,0.356-0.271
		c0.051-0.141,0.147-0.254,0.244-0.366c0.013,0.004,0.027,0.005,0.04,0.009C367.363,423.541,367.557,422.829,367.103,422.691z"/>
	<path fill="#B9BABC" d="M335.768,445.92"/>
</g>
<g>
	<g>
		<path fill="none" stroke="#221F1F" stroke-width="3" stroke-miterlimit="10" d="M223.051,420.457"/>
		<path fill="none" stroke="#221F1F" stroke-width="3" stroke-miterlimit="10" d="M209.79,418.244"/>
		<path fill="none" stroke="#221F1F" stroke-width="3" stroke-miterlimit="10" d="M222.87,428.932"/>
		<path fill="none" stroke="#221F1F" stroke-width="3" stroke-miterlimit="10" d="M209.609,426.719"/>
	</g>
	<g>
		<path fill="none" stroke="#221F1F" stroke-width="3" stroke-miterlimit="10" d="M229.395,428.266"/>
		<path fill="none" stroke="#221F1F" stroke-width="3" stroke-miterlimit="10" d="M235.548,425.659"/>
		<path fill="none" stroke="#221F1F" stroke-width="3" stroke-miterlimit="10" d="M229.395,420.848"/>
		<path fill="none" stroke="#221F1F" stroke-width="3" stroke-miterlimit="10" d="M235.548,418.241"/>
	</g>
	<g>
		<path fill="#221F1F" d="M263.369,425.636V410.51h-14.755c0.19-0.56,0.302-1.166,0.375-1.742c0.085,0.002,0.172-0.02,0.253-0.087
			c1.009-0.85,0.277-2.366,0.095-3.433c-0.027-0.16-0.204-0.271-0.356-0.271h-0.344c0.06-0.065,0.099-0.15,0.098-0.246
			c-0.002-0.457-0.023-0.885-0.136-1.328c-0.03-0.119-0.136-0.23-0.258-0.258c-0.672-0.15-1.221-0.077-1.735,0.195
			c-0.085-0.015-0.172-0.024-0.259-0.034c-0.136-0.295-0.375-0.53-0.686-0.66c-0.572-0.24-1.112,0.258-1.426,0.668
			c-0.025,0.033-0.041,0.066-0.053,0.099l-0.004,0.001c-0.094-0.18-0.196-0.373-0.375-0.462c-0.283-0.142-0.667-0.067-0.97-0.066
			c-0.204,0.001-0.365,0.167-0.369,0.369c-0.002,0.128-0.011,0.254-0.018,0.38c-0.096-0.027-0.217-0.011-0.291,0.039
			c-0.163,0.109-0.323,0.221-0.481,0.335c-0.265,0.052-0.531,0.096-0.809,0.106c-0.212,0.008-0.354,0.163-0.369,0.369
			c-0.036,0.477,0.004,0.903,0.122,1.307c0,0.016,0.001,0.03,0.001,0.046c0,0.109,0.042,0.191,0.103,0.252
			c0.101,0.251,0.236,0.498,0.407,0.745c-0.052,0.674,0.072,1.4,0.402,2.141c0.005,0.012,0.014,0.018,0.02,0.029
			c0.083,0.537,0.229,1.05,0.439,1.507h-8.135v1.04l-3.839-0.58c0.017-0.292-0.001-0.585-0.088-0.872
			c-0.171-0.57-0.647-1.34-1.942-1.771c-0.193-0.064-0.385-0.114-0.576-0.152c-0.459-0.754-1.193-1.22-2.118-1.332
			c-0.583-0.069-1.214,0.011-1.88,0.587c-0.356-0.329-0.794-0.554-1.311-0.673c-0.764-0.177-1.447-0.123-2.021,0.154
			c-0.508-0.206-1.057-0.289-1.651-0.239c-0.826,0.066-2.105,0.526-2.722,2.59c-0.438-0.274-0.931-0.447-1.479-0.521
			c-0.135-0.018-0.264-0.026-0.387-0.026c-0.495,0-1.291,0.141-1.9,0.922c-0.039-0.012-0.078-0.023-0.117-0.034
			c-1.322-0.357-2.704,0.628-2.91,2.033c-0.049,0.335-0.022,0.657,0.052,0.966l-1.706,0.739l-0.976-0.146v17.791l22.55,3.382
			l0.083,0.157l1.384-0.731c1.251,0.307,2.543,0.453,3.761,0.584l0.559,0.061c0.903,0.101,1.714,0.149,2.478,0.149
			c0.966,0,1.848-0.077,2.696-0.235c0.932-0.174,1.708-0.55,2.459-0.914c0.234-0.113,0.458-0.22,0.679-0.319
			c1.591,0.395,3.552,0.631,5.681,0.631c5.298,0,9.592-1.445,9.592-3.228c0-1.521-3.131-2.794-7.341-3.135v-1.753H263.369z
			 M225.835,430.927l-16.552-2.525v-11.724l12.442,1.866c0.062-0.003,0.117-0.016,0.186-0.008c0.547,0.069,1.076,0.161,1.604,0.278
			c0.559-0.012,1.266,0.084,2.169,0.324l0.274,0.041L225.835,430.927z M226.585,416.24l-4.391-0.658l4.457-1.931L226.585,416.24z
			 M228.589,416.11l0.053-2.111c0.044-0.058,0.088-0.122,0.132-0.182l3.788,0.572L228.589,416.11z M229.722,430.707
			c-0.27-0.115-0.524-0.238-0.763-0.37v-11.118l6.722-2.911l-0.147,5.849l-0.14,5.557L229.722,430.707z M246.067,427.415
			c-4.061,0.376-7.048,1.624-7.048,3.11c0,0.34,0.159,0.668,0.449,0.976c-0.767,0.22-1.568,0.35-2.516,0.35
			c-0.98,0-1.892-0.042-2.743-0.121l4.139-2.186l0.098-3.908h7.62V427.415z"/>
		<line fill="#221F1F" x1="235.534" y1="422.156" x2="235.541" y2="421.877"/>
	</g>
	<path fill="#221F1F" d="M247.603,407.941c-0.035-0.011-0.071-0.015-0.106-0.024c-0.111-0.101-0.269-0.14-0.403-0.074
		c-0.312-0.036-0.63-0.038-0.942-0.038c-0.476,0-0.476,0.738,0,0.738c0.011,0,0.022,0,0.033,0c0.006,0.021,0.009,0.043,0.018,0.063
		c0.044,0.1,0.016,0.211,0.063,0.331c0.09,0.227,0.263,0.327,0.502,0.344c0.171,0.012,0.302-0.124,0.356-0.271
		c0.051-0.141,0.147-0.254,0.244-0.366c0.013,0.004,0.027,0.005,0.04,0.009C247.863,408.791,248.057,408.079,247.603,407.941z"/>
	<path fill="#B9BABC" d="M216.268,431.17"/>
</g>
<g>
	<g>
		<path fill="none" stroke="#221F1F" stroke-width="3" stroke-miterlimit="10" d="M345.551,358.707"/>
		<path fill="none" stroke="#221F1F" stroke-width="3" stroke-miterlimit="10" d="M332.29,356.494"/>
		<path fill="none" stroke="#221F1F" stroke-width="3" stroke-miterlimit="10" d="M345.37,367.182"/>
		<path fill="none" stroke="#221F1F" stroke-width="3" stroke-miterlimit="10" d="M332.109,364.969"/>
	</g>
	<g>
		<path fill="none" stroke="#221F1F" stroke-width="3" stroke-miterlimit="10" d="M351.895,366.516"/>
		<path fill="none" stroke="#221F1F" stroke-width="3" stroke-miterlimit="10" d="M358.048,363.909"/>
		<path fill="none" stroke="#221F1F" stroke-width="3" stroke-miterlimit="10" d="M351.895,359.098"/>
		<path fill="none" stroke="#221F1F" stroke-width="3" stroke-miterlimit="10" d="M358.048,356.491"/>
	</g>
	<g>
		<path fill="#221F1F" d="M385.869,363.886V348.76h-14.755c0.19-0.56,0.302-1.166,0.375-1.742c0.085,0.002,0.172-0.02,0.253-0.087
			c1.009-0.85,0.277-2.366,0.095-3.433c-0.027-0.16-0.204-0.271-0.356-0.271h-0.344c0.06-0.065,0.099-0.15,0.098-0.246
			c-0.002-0.457-0.023-0.885-0.136-1.328c-0.03-0.119-0.136-0.23-0.258-0.258c-0.672-0.15-1.221-0.077-1.735,0.195
			c-0.085-0.015-0.172-0.024-0.259-0.034c-0.136-0.295-0.375-0.53-0.686-0.66c-0.572-0.24-1.112,0.258-1.426,0.668
			c-0.025,0.033-0.041,0.066-0.053,0.099l-0.004,0.001c-0.094-0.18-0.196-0.373-0.375-0.462c-0.283-0.142-0.667-0.067-0.97-0.066
			c-0.204,0.001-0.365,0.167-0.369,0.369c-0.002,0.128-0.011,0.254-0.018,0.38c-0.096-0.027-0.217-0.011-0.291,0.039
			c-0.163,0.109-0.323,0.221-0.481,0.335c-0.265,0.052-0.531,0.096-0.809,0.106c-0.212,0.008-0.354,0.163-0.369,0.369
			c-0.036,0.477,0.004,0.903,0.122,1.307c0,0.016,0.001,0.03,0.001,0.046c0,0.109,0.042,0.191,0.103,0.252
			c0.101,0.251,0.236,0.498,0.407,0.745c-0.052,0.674,0.072,1.4,0.402,2.141c0.005,0.012,0.014,0.018,0.02,0.029
			c0.083,0.537,0.229,1.05,0.439,1.507h-8.135v1.04l-3.839-0.58c0.017-0.292-0.001-0.585-0.088-0.872
			c-0.171-0.57-0.647-1.34-1.942-1.771c-0.193-0.064-0.385-0.114-0.576-0.152c-0.459-0.754-1.193-1.22-2.118-1.332
			c-0.583-0.069-1.214,0.011-1.88,0.587c-0.356-0.329-0.794-0.554-1.311-0.673c-0.764-0.177-1.447-0.123-2.021,0.154
			c-0.508-0.206-1.057-0.289-1.651-0.239c-0.826,0.066-2.105,0.526-2.722,2.59c-0.438-0.274-0.931-0.447-1.479-0.521
			c-0.135-0.018-0.264-0.026-0.387-0.026c-0.495,0-1.291,0.141-1.9,0.922c-0.039-0.012-0.078-0.023-0.117-0.034
			c-1.322-0.357-2.704,0.628-2.91,2.033c-0.049,0.335-0.022,0.657,0.052,0.966l-1.706,0.739l-0.976-0.146v17.791l22.55,3.382
			l0.083,0.157l1.384-0.731c1.251,0.307,2.543,0.453,3.761,0.584l0.559,0.061c0.903,0.101,1.714,0.149,2.478,0.149
			c0.966,0,1.848-0.077,2.696-0.235c0.932-0.174,1.708-0.55,2.459-0.914c0.234-0.113,0.458-0.22,0.679-0.319
			c1.591,0.395,3.552,0.631,5.681,0.631c5.298,0,9.592-1.445,9.592-3.228c0-1.521-3.131-2.794-7.341-3.135v-1.753H385.869z
			 M348.335,369.177l-16.552-2.525v-11.724l12.442,1.866c0.062-0.003,0.117-0.016,0.186-0.008c0.547,0.069,1.076,0.161,1.604,0.278
			c0.559-0.012,1.266,0.084,2.169,0.324l0.274,0.041L348.335,369.177z M349.085,354.49l-4.391-0.658l4.457-1.931L349.085,354.49z
			 M351.089,354.36l0.053-2.111c0.044-0.058,0.088-0.122,0.132-0.182l3.788,0.572L351.089,354.36z M352.222,368.957
			c-0.27-0.115-0.524-0.238-0.763-0.37v-11.118l6.722-2.911l-0.147,5.849l-0.14,5.557L352.222,368.957z M368.567,365.665
			c-4.061,0.376-7.048,1.624-7.048,3.11c0,0.34,0.159,0.668,0.449,0.976c-0.767,0.22-1.568,0.35-2.516,0.35
			c-0.98,0-1.892-0.042-2.743-0.121l4.139-2.186l0.098-3.908h7.62V365.665z"/>
		<line fill="#221F1F" x1="358.034" y1="360.406" x2="358.041" y2="360.127"/>
	</g>
	<path fill="#221F1F" d="M370.103,346.191c-0.035-0.011-0.071-0.015-0.106-0.024c-0.111-0.101-0.269-0.14-0.403-0.074
		c-0.312-0.036-0.63-0.038-0.942-0.038c-0.476,0-0.476,0.738,0,0.738c0.011,0,0.022,0,0.033,0c0.006,0.021,0.009,0.043,0.018,0.063
		c0.044,0.1,0.016,0.211,0.063,0.331c0.09,0.227,0.263,0.327,0.502,0.344c0.171,0.012,0.302-0.124,0.356-0.271
		c0.051-0.141,0.147-0.254,0.244-0.366c0.013,0.004,0.027,0.005,0.04,0.009C370.363,347.041,370.557,346.329,370.103,346.191z"/>
	<path fill="#B9BABC" d="M338.768,369.42"/>
</g>
<g>
	<g>
		<path fill="none" stroke="#221F1F" stroke-width="3" stroke-miterlimit="10" d="M222.301,366.457"/>
		<path fill="none" stroke="#221F1F" stroke-width="3" stroke-miterlimit="10" d="M209.04,364.244"/>
		<path fill="none" stroke="#221F1F" stroke-width="3" stroke-miterlimit="10" d="M222.12,374.932"/>
		<path fill="none" stroke="#221F1F" stroke-width="3" stroke-miterlimit="10" d="M208.859,372.719"/>
	</g>
	<g>
		<path fill="none" stroke="#221F1F" stroke-width="3" stroke-miterlimit="10" d="M228.645,374.266"/>
		<path fill="none" stroke="#221F1F" stroke-width="3" stroke-miterlimit="10" d="M234.798,371.659"/>
		<path fill="none" stroke="#221F1F" stroke-width="3" stroke-miterlimit="10" d="M228.645,366.848"/>
		<path fill="none" stroke="#221F1F" stroke-width="3" stroke-miterlimit="10" d="M234.798,364.241"/>
	</g>
	<g>
		<path fill="#221F1F" d="M262.619,371.636V356.51h-14.755c0.19-0.56,0.302-1.166,0.375-1.742c0.085,0.002,0.172-0.02,0.253-0.087
			c1.009-0.85,0.277-2.366,0.095-3.433c-0.027-0.16-0.204-0.271-0.356-0.271h-0.344c0.06-0.065,0.099-0.15,0.098-0.246
			c-0.002-0.457-0.023-0.885-0.136-1.328c-0.03-0.119-0.136-0.23-0.258-0.258c-0.672-0.15-1.221-0.077-1.735,0.195
			c-0.085-0.015-0.172-0.024-0.259-0.034c-0.136-0.295-0.375-0.53-0.686-0.66c-0.572-0.24-1.112,0.258-1.426,0.668
			c-0.025,0.033-0.041,0.066-0.053,0.099l-0.004,0.001c-0.094-0.18-0.196-0.373-0.375-0.462c-0.283-0.142-0.667-0.067-0.97-0.066
			c-0.204,0.001-0.365,0.167-0.369,0.369c-0.002,0.128-0.011,0.254-0.018,0.38c-0.096-0.027-0.217-0.011-0.291,0.039
			c-0.163,0.109-0.323,0.221-0.481,0.335c-0.265,0.052-0.531,0.096-0.809,0.106c-0.212,0.008-0.354,0.163-0.369,0.369
			c-0.036,0.477,0.004,0.903,0.122,1.307c0,0.016,0.001,0.03,0.001,0.046c0,0.109,0.042,0.191,0.103,0.252
			c0.101,0.251,0.236,0.498,0.407,0.745c-0.052,0.674,0.072,1.4,0.402,2.141c0.005,0.012,0.014,0.018,0.02,0.029
			c0.083,0.537,0.229,1.05,0.439,1.507h-8.135v1.04l-3.839-0.58c0.017-0.292-0.001-0.585-0.088-0.872
			c-0.171-0.57-0.647-1.34-1.942-1.771c-0.193-0.064-0.385-0.114-0.576-0.152c-0.459-0.754-1.193-1.22-2.118-1.332
			c-0.583-0.069-1.214,0.011-1.88,0.587c-0.356-0.329-0.794-0.554-1.311-0.673c-0.764-0.177-1.447-0.123-2.021,0.154
			c-0.508-0.206-1.057-0.289-1.651-0.239c-0.826,0.066-2.105,0.526-2.722,2.59c-0.438-0.274-0.931-0.447-1.479-0.521
			c-0.135-0.018-0.264-0.026-0.387-0.026c-0.495,0-1.291,0.141-1.9,0.922c-0.039-0.012-0.078-0.023-0.117-0.034
			c-1.322-0.357-2.704,0.628-2.91,2.033c-0.049,0.335-0.022,0.657,0.052,0.966l-1.706,0.739l-0.976-0.146v17.791l22.55,3.382
			l0.083,0.157l1.384-0.731c1.251,0.307,2.543,0.453,3.761,0.584l0.559,0.061c0.903,0.101,1.714,0.149,2.478,0.149
			c0.966,0,1.848-0.077,2.696-0.235c0.932-0.174,1.708-0.55,2.459-0.914c0.234-0.113,0.458-0.22,0.679-0.319
			c1.591,0.395,3.552,0.631,5.681,0.631c5.298,0,9.592-1.445,9.592-3.228c0-1.521-3.131-2.794-7.341-3.135v-1.753H262.619z
			 M225.085,376.927l-16.552-2.525v-11.724l12.442,1.866c0.062-0.003,0.117-0.016,0.186-0.008c0.547,0.069,1.076,0.161,1.604,0.278
			c0.559-0.012,1.266,0.084,2.169,0.324l0.274,0.041L225.085,376.927z M225.835,362.24l-4.391-0.658l4.457-1.931L225.835,362.24z
			 M227.839,362.11l0.053-2.111c0.044-0.058,0.088-0.122,0.132-0.182l3.788,0.572L227.839,362.11z M228.972,376.707
			c-0.27-0.115-0.524-0.238-0.763-0.37v-11.118l6.722-2.911l-0.147,5.849l-0.14,5.557L228.972,376.707z M245.317,373.415
			c-4.061,0.376-7.048,1.624-7.048,3.11c0,0.34,0.159,0.668,0.449,0.976c-0.767,0.22-1.568,0.35-2.516,0.35
			c-0.98,0-1.892-0.042-2.743-0.121l4.139-2.186l0.098-3.908h7.62V373.415z"/>
		<line fill="#221F1F" x1="234.784" y1="368.156" x2="234.791" y2="367.877"/>
	</g>
	<path fill="#221F1F" d="M246.853,353.941c-0.035-0.011-0.071-0.015-0.106-0.024c-0.111-0.101-0.269-0.14-0.403-0.074
		c-0.312-0.036-0.63-0.038-0.942-0.038c-0.476,0-0.476,0.738,0,0.738c0.011,0,0.022,0,0.033,0c0.006,0.021,0.009,0.043,0.018,0.063
		c0.044,0.1,0.016,0.211,0.063,0.331c0.09,0.227,0.263,0.327,0.502,0.344c0.171,0.012,0.302-0.124,0.356-0.271
		c0.051-0.141,0.147-0.254,0.244-0.366c0.013,0.004,0.027,0.005,0.04,0.009C247.113,354.791,247.307,354.079,246.853,353.941z"/>
	<path fill="#B9BABC" d="M215.518,377.17"/>
</g>
</svg>
