<?xml version="1.0" encoding="utf-8"?>
<!-- Generator: Adobe Illustrator 17.0.2, SVG Export Plug-In . SVG Version: 6.00 Build 0)  -->
<!DOCTYPE svg PUBLIC "-//W3C//DTD SVG 1.1//EN" "http://www.w3.org/Graphics/SVG/1.1/DTD/svg11.dtd">
<svg version="1.1" id="Layer_1" xmlns="http://www.w3.org/2000/svg" xmlns:xlink="http://www.w3.org/1999/xlink" x="0px" y="0px"
	 width="612px" height="792px" viewBox="0 0 612 792" enable-background="new 0 0 612 792" xml:space="preserve">
<path fill="#5A835F" d="M390.5,344.444V373H268.213c6.475,18.421,32.87,32.217,64.466,32.217c36.451,0,66-18.356,66-41
	C398.679,357.046,395.708,350.308,390.5,344.444z"/>
<text transform="matrix(1 0 0 1 398.4059 324.679)" fill="#5A835F" font-family="'Quicksand-Regular'" font-size="65">$</text>
<g>
	<path fill="#231F20" d="M218.435,299.887v74.333h173.667v-74.333H218.435z M389.102,371.22H221.435v-68.333h167.667V371.22z"/>
	<path fill="#231F20" d="M288.601,339.72c1.624-0.027,3.225,0.191,4.823,0.39c-1.331,0.532-1.141,2.89,0.576,2.89h2.5
		c1.497,0,1.83-1.792,1.01-2.604c0.771-0.014,1.544-0.071,2.323-0.229c1.896-0.385,1.091-3.277-0.797-2.893
		c-3.437,0.698-6.969-0.612-10.435-0.554C286.668,336.752,286.665,339.752,288.601,339.72z"/>
	<path fill="#231F20" d="M283.64,322.629c-0.932,1.696,1.659,3.21,2.59,1.514c0.623-1.133,1.871-1.684,3.068-1.346
		c0.311,0.491,0.874,0.82,1.601,0.648c0.287-0.068,0.543-0.117,0.792-0.132c0.089-0.003,0.178,0,0.267,0.003
		c-0.085,0.004,0.171,0.038,0.242,0.051c0.016,0.009,0.013,0.007,0.036,0.019c0.019,0.01,0.027,0.013,0.041,0.02
		c0.012,0.017,0.032,0.041,0.073,0.083c-0.199-0.201,0.074,0.125,0.098,0.166c0.027,0.047,0.046,0.078,0.06,0.098
		c0.006,0.025,0.017,0.064,0.046,0.144c0.273,0.77,1.014,1.276,1.845,1.048c0.745-0.204,1.321-1.073,1.047-1.844
		c-0.347-0.979-0.871-1.861-1.815-2.368c-0.754-0.405-1.596-0.463-2.427-0.373C288.482,319.007,285.135,319.908,283.64,322.629z"/>
	<path fill="#231F20" d="M288.23,327.311c0.028-0.041,0.033-0.048,0.049-0.07c0.062-0.072,0.128-0.141,0.197-0.207
		c0.03-0.026,0.029-0.027,0.046-0.042c0.032-0.021,0.066-0.04,0.099-0.059c-0.053,0.037,0.082-0.02,0.197-0.063
		c-0.043,0.046,0.549,0.012,0.218-0.036c0.808,0.117,1.608-0.187,1.845-1.048c0.196-0.713-0.237-1.728-1.048-1.845
		c-0.736-0.107-1.468-0.146-2.172,0.146c-0.875,0.363-1.484,0.937-2.021,1.71c-0.468,0.672-0.125,1.664,0.538,2.052
		C286.925,328.287,287.764,327.981,288.23,327.311z"/>
	<path fill="#231F20" d="M346.935,349.554c0-1.935-3-1.935-3,0c0,1.309,0.023,2.603,0.22,3.899c0.123,0.809,1.127,1.245,1.845,1.047
		c0.857-0.236,1.171-1.038,1.048-1.845C346.893,351.639,346.935,350.579,346.935,349.554z"/>
	<path fill="#231F20" d="M349.768,348.887v3.5c0,1.935,3,1.935,3,0v-3.5C352.768,346.952,349.768,346.952,349.768,348.887z"/>
	<path fill="#231F20" d="M355.011,348.259c-0.752,0.44-0.886,1.312-0.538,2.052c-0.129-0.274,0.062,0.18,0.068,0.196
		c0.068,0.206,0.113,0.42,0.156,0.633c0.012,0.059,0.02,0.097,0.027,0.126c0.002,0.03,0.006,0.074,0.013,0.139
		c0.023,0.215,0.029,0.432,0.031,0.648c0.01,0.817,0.675,1.5,1.5,1.5c0.81,0,1.51-0.682,1.5-1.5
		c-0.014-1.132-0.223-2.23-0.705-3.256C356.715,348.057,355.668,347.874,355.011,348.259z"/>
	<path fill="#231F20" d="M361.935,349.22c-0.02-1.933-3.02-1.935-3,0c0.012,1.254,0.184,2.496,0.387,3.732
		c0.133,0.808,1.121,1.247,1.845,1.048c0.85-0.234,1.18-1.039,1.048-1.845C362.055,351.181,361.945,350.209,361.935,349.22z"/>
	<path fill="#231F20" d="M364.768,348.554v3.833c0,1.935,3,1.935,3,0v-3.833C367.768,346.619,364.768,346.619,364.768,348.554z"/>
	<path fill="#231F20" d="M371.268,348.221c0.1-0.813-0.758-1.5-1.5-1.5c-0.893,0-1.4,0.689-1.5,1.5
		c-0.161,1.312,0.038,2.631,0.387,3.899c0.513,1.862,3.407,1.07,2.893-0.798C371.262,350.284,371.136,349.295,371.268,348.221z"/>
	<path fill="#231F20" d="M375.768,349.053c0-1.935-3-1.935-3,0c0,1.254,0.03,2.49,0.22,3.732c0.124,0.81,1.127,1.246,1.845,1.048
		c0.856-0.235,1.172-1.038,1.048-1.845C375.733,351.025,375.768,350.025,375.768,349.053z"/>
	<path fill="#231F20" d="M357.662,329.159c-1.53-1.357-3.675-2.239-5.725-2.115c-0.534-0.375-1.281-0.453-1.897,0.115
		c-4.078,3.76-8.159,8.589-3.82,13.863c3.013,3.661,9.848,4.603,12.911,0.557C361.896,337.927,361.028,332.144,357.662,329.159z
		 M347.171,336.194c-0.008-1.139,0.552-2.248,1.339-3.273c0.063,0.194,0.172,0.349,0.301,0.481
		C347.903,334.059,347.346,335.052,347.171,336.194z M356.379,340.18c-1.504,1.586-3.816,1.346-5.74,0.373
		c2.061-0.109,3.902-0.995,5.992-1.285c0.109,0.06,0.218,0.11,0.334,0.143C356.796,339.685,356.603,339.944,356.379,340.18z
		 M351.488,332.579c-0.033,0-0.063,0.006-0.097,0.007c0.011-0.069,0.041-0.125,0.044-0.199c0.059-1.474,0.188-2.713,1.912-2.24
		c1.359,0.372,2.632,1.347,3.392,2.507c0.538,0.822,0.881,1.811,1.004,2.828C356.285,333.622,353.9,332.542,351.488,332.579z"/>
	<path fill="#231F20" d="M250.054,342.881c5.378,1.114,12.144-1.695,11.009-7.971c-0.842-4.659-5.237-9.255-9.369-11.271
		c-1.985-0.968-4.259-1.319-6.064,0.179c-1.539,1.277-1.721,3.541-1.528,5.649c-0.879,1.326-1.368,2.933-1.333,4.545
		C242.859,338.164,246.004,342.042,250.054,342.881z M257.78,334.221c-0.009-0.005-0.014-0.011-0.023-0.016
		c-1.168-0.641-2.35-1.175-3.551-1.61c0.02-0.089,0.047-0.172,0.064-0.263c0.261-1.38,0.004-2.724-0.646-3.788
		C255.4,330.09,257.011,332.107,257.78,334.221z M247.751,325.939c0.547-0.531,1.935,0.038,2.862,0.518
		c-0.286-0.055-0.581-0.093-0.893-0.097c-0.9-0.01-1.734,0.17-2.497,0.485C247.342,326.5,247.5,326.183,247.751,325.939z
		 M250.61,329.539c0.77,0.394,0.829,1.436,0.7,2.241c-1.266-0.252-2.562-0.384-3.899-0.357c-0.062-0.309-0.132-0.66-0.2-1.042
		C248.2,329.575,249.62,329.032,250.61,329.539z M247.197,337.017c2.147,0.193,4.222-0.351,5.59-1.747
		c1.163,0.388,2.308,0.896,3.455,1.526c0.819,0.45,1.592,0.076,1.985-0.533c0.087,1.663-0.931,2.672-2.493,3.205
		c-3.411,1.163-7.022,0.655-9-2.467C246.888,337.03,247.043,337.034,247.197,337.017z"/>
	<path fill="#231F20" d="M233,316c0,1.015,0.137,2.288-0.295,3.243c-0.337,0.745-0.221,1.608,0.538,2.052
		c0.65,0.381,1.715,0.207,2.052-0.538c0.684-1.511,0.704-3.125,0.705-4.757C236.001,314.065,233.001,314.065,233,316z"/>
	<path fill="#231F20" d="M240.946,320.898c0.542-1.75,0.542-3.546,0-5.297c-0.57-1.842-3.466-1.056-2.893,0.797
		c0.393,1.269,0.393,2.433,0,3.703C237.479,321.954,240.376,322.741,240.946,320.898z"/>
	<path fill="#231F20" d="M246.5,318.5V316c0-1.935-3-1.935-3,0v2.5C243.5,320.435,246.5,320.435,246.5,318.5z"/>
	<path fill="#231F20" d="M252,318v-2c0-1.935-3-1.935-3,0v2C249,319.935,252,319.935,252,318z"/>
	<path fill="#231F20" d="M257.5,319v-3.5c0-1.935-3-1.935-3,0v3.5C254.5,320.935,257.5,320.935,257.5,319z"/>
	<path fill="#231F20" d="M262.946,318.601c-0.383-1.204-0.446-2.345-0.446-3.601c-0.001-1.935-3.001-1.935-3,0
		c0.001,1.503,0.095,2.957,0.554,4.399C260.638,321.235,263.535,320.45,262.946,318.601z"/>
	<path fill="#231F20" d="M224.201,305.701v62.723h161.973v-62.723H224.201z M377.084,308.55c-0.121,0.159-0.214,0.358-0.262,0.605
		c-0.021,0.109-0.212,0.219-0.501,0.331c-0.033-0.312-0.057-0.624-0.086-0.936H377.084z M368.435,310.72
		c0.095-0.721,0.128-1.445,0.145-2.17h4.645c0.058,0.564,0.121,1.127,0.164,1.692c-0.735,0.169-1.388,0.329-1.711,0.474
		c-1.238,0.556-2.403,0.793-3.54,0.851C368.294,311.324,368.394,311.032,368.435,310.72z M365.771,308.55
		c0.027,0.488,0.036,0.978,0.036,1.469c0,0.352-0.154,0.592-0.37,0.742c-0.022,0.247,0.045,0.48,0.169,0.685
		c-0.389-0.051-0.78-0.118-1.172-0.185v-0.402c-0.348-0.139-0.626-0.452-0.626-0.93c0-0.464-0.013-0.922-0.043-1.379H365.771z
		 M284.205,308.55h9.679c4.301,1.609,7.034,6.305,8.27,10.57c0.165,0.568,0.292,1.143,0.422,1.718
		c-3.269-1.302-6.424,0.827-7.335,4.568c-0.398,1.636-0.14,3.372,0.093,5.009c0.064,0.451,0.296,1.264,0.102,1.705
		c-0.226,0.516-2.094,0.282-2.501,0.269c-1.936-0.064-1.929,2.936,0,3c2.811,0.093,5.599-0.593,5.517-3.911
		c-0.023-0.929-0.187-1.845-0.299-2.768c0.039,0.003,0.076,0.012,0.116,0.012c0.829,0,1.485-0.683,1.5-1.5
		c0.001-0.076,0.009-0.152,0.013-0.228c0.471,0.548,1.252,0.743,1.911,0.357c0.682-0.4,0.981-1.364,0.538-2.052
		c-0.538-0.836-1.221-1.479-2.035-1.709c0.709-0.152,1.553,0.05,2.483,0.761c0.2,0.153,0.399,0.24,0.591,0.276
		c0.192,1.296,0.365,2.596,0.565,3.892c-0.049,0.16-0.078,0.335-0.066,0.537c0.287,4.798-1.05,9.392-3.182,13.655
		c-0.773,1.547-2.157,3.003-3.08,4.601c-0.195-0.051-0.408-0.067-0.637-0.036c-3.628,0.498-8.396-0.741-10.639-3.811
		c-1.129-1.545-3.734-0.051-2.59,1.514c2.676,3.662,7.283,5.339,11.749,5.323c-0.147,0.206-0.255,0.454-0.287,0.753
		c-0.571,5.324-7.43-0.716-9.344-2.278c-2.594-2.119-4.858-4.717-7.566-6.684c-0.212-0.155-0.423-0.235-0.625-0.265
		c0.125-1.098,0.292-2.201,0.997-3.349c0.674-1.097-0.437-2.609-1.694-2.203c-2.205-2.326-2.073-3.663,0.398-4.01
		c0.791-0.294,1.487-0.572,2.256-0.917c0.608-0.273,0.848-1.097,0.689-1.694c-0.838-3.147,0.089-5.973,0.387-9.101
		c0.283-2.973-0.612-5.977-0.333-9c0.01-0.108,0.003-0.205-0.006-0.3C281.173,309.858,282.596,309.031,284.205,308.55z
		 M296.596,359.239c-2.946,1.098-6.717-1-9.052-2.579c-3.901-2.638-6.731-6.705-10.382-9.667c-0.388-0.315-0.82-0.401-1.221-0.339
		c0.359-0.534,0.694-1.083,0.956-1.677c0.015-0.034,0.022-0.067,0.036-0.1c4.139,3.197,18.059,17.788,20.794,8.093
		C299.079,354.309,298.437,358.552,296.596,359.239z M250.063,360.362c-1.002,1.727-1.446,3.701-2.664,5.214h-0.797v-2.022
		c0-0.818-0.682-1.5-1.5-1.5s-1.5,0.682-1.5,1.5v2.022h-4.689c-0.017-0.755-0.06-1.504-0.198-2.254
		c-0.149-0.805-1.109-1.25-1.845-1.048c-0.838,0.23-1.196,1.042-1.048,1.845c0.083,0.451,0.1,0.954,0.106,1.457h-8.879V308.55h4.386
		v2.337c0,1.935,3,1.935,3,0v-2.337h0.515c0.117,0.58,0.231,1.161,0.372,1.735c0.195,0.794,1.074,1.26,1.845,1.048
		c0.804-0.221,1.242-1.052,1.048-1.845c-0.076-0.311-0.135-0.625-0.201-0.938h4.588v0.836c0,1.935,3,1.935,3,0v-0.202
		c-0.128-0.207-0.206-0.419-0.257-0.634h35.492c-0.077,0.023-0.161,0.044-0.237,0.067c-0.123,0.124-0.281,0.224-0.518,0.247
		c-0.175,0.017-0.344,0.048-0.516,0.073c-1.099,0.351-2.08,0.695-2.884,1.007c-2.884,2.185-5.805,4.132-7.589,7.425
		c-1.03,1.901-1.268,4.117-1.481,6.227c-0.357,3.523-2.982,5.162-3.79,8.226c-0.755,2.863,0.129,6.315-1.802,8.791
		c-1.167,1.496-1.741,3.23-2.013,5.079c-0.392,2.663,0.851,4.597,2.885,5.753c-0.019,0.052-0.042,0.101-0.06,0.154
		c-3.145,1.77-6.404,3.333-9.353,5.439C252.25,357.916,250.834,359.033,250.063,360.362z M280.156,365.576
		c0.176-0.142,0.324-0.255,0.805-0.422c-0.219,0.007,0.714-0.267,0.496-0.259c0.247-0.318,0.371-0.738,0.257-1.239
		c-1.083-4.757-3.49-10.22-7.386-13.328c-0.183-0.146-0.376-0.242-0.571-0.297c0.251-0.513,0.538-1.005,0.858-1.477
		c0.079,0.197,0.212,0.388,0.425,0.561c6.418,5.208,10.804,12.49,19.727,13.273h0.013c-0.005,0.055-0.015,0.109-0.013,0.166
		c0.021,0.616,0.199,1.161,0.476,1.641c1.039,0.847,3.203,1.168,4.502,0.605c0.034-0.687-0.403-1.318-1.079-1.525
		c-0.082-0.023-0.163-0.051-0.243-0.08c-0.021-0.01-0.031-0.016-0.08-0.04c-0.083-0.043-0.163-0.09-0.242-0.14
		c-0.023-0.014-0.032-0.019-0.048-0.028c-0.015-0.016-0.036-0.036-0.071-0.068c-0.06-0.057-0.115-0.116-0.169-0.179
		c0.169,0.188,0.032,0.006-0.027-0.083c-0.002-0.007-0.003-0.009-0.005-0.017c-0.006-0.019-0.009-0.024-0.014-0.038
		c0-0.016,0.001-0.025,0-0.048c-0.008-0.24-0.074-0.465-0.176-0.668c0.978-0.457,1.811-1.19,2.464-2.077
		c0.089,0.09,0.18,0.18,0.289,0.262c1.465,1.113,2.774,0.753,3.26,2.927c0.183,0.818,0.636,1.462,1.246,1.975
		c-0.033,0-0.066-0.001-0.099-0.001c0.138,0.18,0.187,0.372,0.167,0.556c1.791-0.082,3.614-0.034,5.447,0.05H280.156z
		 M362.077,361.761c-0.692-0.2-1.3-0.834-1.069-1.231c0.14-0.095,0.294-0.184,0.458-0.266c0.089-0.021,0.167-0.047,0.284-0.056
		c0.956-0.078,1.917,0.08,2.872,0.027c0.151,0.346,0.184,0.719-0.029,1.11C364.128,362.197,362.802,361.969,362.077,361.761z
		 M383.326,365.576h-18.723c1.641-0.166,3.31-0.724,4.162-2.116c0.341,0.394,0.758,0.734,1.231,0.99
		c2.994,1.621,9.936,1.075,9.403-3.639c-0.395-3.496-4.422-4.636-7.422-3.666c-1.436,0.146-2.831,0.727-3.629,1.947
		c-0.11,0.169-0.182,0.344-0.259,0.518c-0.43-0.58-0.925-1.136-1.384-1.632c-0.303-0.419-0.655-0.809-1.044-1.151
		c-0.789-0.695-1.693-0.454-2.173,0.144c-0.302-0.193-0.68-0.286-1.12-0.196c-0.852,0.174-1.769,0.516-2.578,1.013
		c-0.268,0.139-0.535,0.305-0.8,0.529c-0.249,0.21-0.444,0.432-0.608,0.66c-0.632,0.752-1.005,1.675-0.892,2.758
		c0.181,1.733,1.42,2.807,2.912,3.378c1.061,0.078,2.104,0.274,3.164,0.462h-6.641c0.064-0.051,0.112-0.112,0.194-0.149
		c0.48-0.468,0.729-1.186,0.276-1.796c-1.11-1.498-1.217-3.263-0.682-5.011c0.341-1.116-0.768-2.124-1.845-1.845
		c-0.817,0.211-1.592,0.259-2.358,0.651c-0.272,0.139-0.455,0.323-0.577,0.527c-1.301-0.989-3.114,0.979-1.893,2.329
		c0.92,1.017,0.787,2.478,0.448,3.707c-0.176,0.637,0.099,1.229,0.588,1.588h-30.306L320.502,330H312v31.044
		c-3.222-2.373-6.25-5.013-9.459-7.411c2.415-0.772,4.088-2.583,5.954-4.519c0.436-0.452,0.503-0.98,0.354-1.441
		c0.046-0.138,0.08-0.286,0.085-0.453c0.11-3.315,1.879-5.038,1.246-8.519c-0.669-3.682-2.854-6.963-3.501-10.756
		c-0.972-5.69-1.306-11.633-4.754-16.431c-1.033-0.59-1.982-1.934-2.752-2.964h12.771c-0.038,0.91-0.111,1.818-0.202,2.724
		c0.003,0,0.005,0,0.008,0v12.851h8.5v-13.256c0.019-0.001,0.038-0.003,0.058-0.004c-0.073-0.774-0.177-1.545-0.283-2.315h41.41
		v2.203c-0.596-0.087-1.203-0.161-1.833-0.199c-1.933-0.115-1.922,2.885,0,3c0.733,0.044,1.441,0.135,2.136,0.245
		c0.456,0.568,1.334,0.685,1.966,0.351c2.822,0.539,5.479,1.037,8.468-0.322c1.972-0.896,3.604-0.704,5.507-1.227
		c1.309-0.36,1.797-1.421,2.036-2.648c0.115-0.59-0.087-1.074-0.432-1.403h4.043V365.576z M372.493,360.115
		c0.453-0.018,0.866,0.013,1.043,0.052c0.546,0.12,0.997-0.043,1.323-0.337c0.708,0.168,1.337,0.532,1.536,1.114
		c0.031,0.089,0.044,0.171,0.048,0.249c-0.371-0.157-0.81-0.171-1.266,0.066C374.219,361.757,371.181,361.037,372.493,360.115z"/>
</g>
</svg>
