<?xml version="1.0" encoding="utf-8"?>
<!-- Generator: Adobe Illustrator 17.0.2, SVG Export Plug-In . SVG Version: 6.00 Build 0)  -->
<!DOCTYPE svg PUBLIC "-//W3C//DTD SVG 1.1//EN" "http://www.w3.org/Graphics/SVG/1.1/DTD/svg11.dtd">
<svg version="1.1" id="Layer_1" xmlns="http://www.w3.org/2000/svg" xmlns:xlink="http://www.w3.org/1999/xlink" x="0px" y="0px"
	 width="252px" height="252px" viewBox="180 270 252 252" enable-background="new 180 270 252 252" xml:space="preserve">
<path fill="#A29352" d="M298.255,380.585l11.755,46.391l-0.93,4.416l-5.114,4.649l-26.266,6.741l-9.762,1.162l-4.416-5.114
	l-2.092-10.46l-1.859-0.93l-3.951,4.184l-5.579-0.93l-27.428-10.227l-5.579-3.254l-1.395-7.67l9.46-23.939
	c-14.317,7.521-23.418,18.755-23.418,31.315c0,22.644,29.549,41,66,41s66-18.356,66-41
	C333.682,401.131,319.309,387.436,298.255,380.585z"/>
<g>
	<path fill="#A29352" d="M378.479,402.095l-0.585,0.065c-0.737,0-1.234-0.346-1.495-1.04l-4.029-10.725h-20.735l-4.03,10.725
		c-0.26,0.694-0.759,1.04-1.495,1.04l-0.585-0.065c-0.39-0.173-0.682-0.465-0.877-0.877c-0.195-0.412-0.206-0.812-0.032-1.203
		l15.795-42.185c0.303-0.65,0.845-0.975,1.625-0.975c0.779,0,1.277,0.325,1.495,0.975l15.795,42.185c0.172,0.39,0.172,0.791,0,1.203
		C379.151,401.629,378.87,401.922,378.479,402.095z M362.035,362.77l-9.23,24.44H371.2L362.035,362.77z"/>
	<path fill="#A29352" d="M384.85,389.16v-17.355c0-0.433,0.151-0.801,0.455-1.105c0.303-0.303,0.672-0.455,1.105-0.455
		s0.801,0.152,1.104,0.455c0.303,0.304,0.455,0.672,0.455,1.105v17.355c0,2.73,0.953,5.049,2.86,6.955
		c1.906,1.907,4.203,2.882,6.89,2.925c2.73-0.042,5.06-1.018,6.988-2.925c1.927-1.906,2.892-4.225,2.892-6.955v-17.355
		c0-0.433,0.163-0.801,0.488-1.105c0.324-0.303,0.703-0.455,1.137-0.455s0.802,0.152,1.105,0.455
		c0.303,0.304,0.455,0.672,0.455,1.105v17.355c0,3.597-1.268,6.663-3.803,9.197c-2.535,2.535-5.601,3.803-9.197,3.803
		c-3.598,0-6.652-1.268-9.165-3.803S384.85,392.757,384.85,389.16z"/>
</g>
<g>
	<path fill="#231F20" d="M283.429,353.574l-31.446,7.944c-1.053,0.266-2.035,0.715-2.918,1.336c-2.98,2.093-4.382,5.873-3.49,9.404
		l16.753,66.313c0.579,2.29,2.015,4.218,4.043,5.429c2.028,1.21,4.407,1.558,6.697,0.979l31.447-7.945
		c1.053-0.266,2.035-0.715,2.918-1.336c2.98-2.093,4.382-5.873,3.49-9.404l-16.753-66.313
		C292.975,355.254,288.157,352.38,283.429,353.574z M291.261,360.716l16.753,66.313c0.59,2.333-0.337,4.831-2.306,6.214
		c-0.583,0.409-1.231,0.706-1.929,0.882l-31.447,7.945c-1.513,0.383-3.084,0.152-4.425-0.647c-1.34-0.8-2.289-2.073-2.67-3.587
		l-16.753-66.313c-0.589-2.334,0.337-4.831,2.306-6.214c0.582-0.409,1.231-0.706,1.929-0.882l31.446-7.944
		C287.288,355.694,290.472,357.593,291.261,360.716z"/>
	<path fill="#231F20" d="M273.26,374.859c3.451,1.154,1.759,6.125,1.811,8.675c0.029,1.455,1.803,1.663,2.653,0.829
		c1.189-1.167,1.386-3.105,1.476-4.679c0.135-2.358-0.481-4.093-2.067-5.873c-0.22-0.247-0.477-0.395-0.743-0.472
		c-0.509-0.529-1.124-0.955-1.881-1.208C272.696,371.524,271.422,374.244,273.26,374.859z"/>
	<path fill="#231F20" d="M264.349,385.321c0.447,0.636,1.397,0.848,2.047,0.39c-0.189,0.461-0.153,1.007,0.149,1.437
		c0.47,0.669,1.421,0.835,2.09,0.365l0.693-0.487c-0.034,0.454,0.124,0.907,0.523,1.236c0.595,0.491,1.64,0.465,2.112-0.204
		c0.19-0.269,0.352-0.555,0.517-0.839c0.033,0.11,0.064,0.22,0.1,0.328c0.253,0.777,1.165,1.177,1.918,0.908
		c0.786-0.282,1.161-1.141,0.908-1.918c-0.199-0.609-0.265-0.842-0.25-1.493c0.019-0.819-0.871-1.432-1.62-1.37
		c-0.311,0.026-0.568,0.137-0.775,0.302c-0.497-0.281-1.059-0.231-1.526,0.054c-0.024-0.042-0.043-0.086-0.071-0.127
		c-0.42-0.598-1.222-0.79-1.866-0.49c0.063-0.382-0.016-0.789-0.246-1.116c-0.364-0.519-0.992-0.721-1.571-0.587
		c0.274-0.38,0.392-0.857,0.218-1.346c-0.044-0.122-0.109-0.233-0.184-0.338c0.18-0.194,0.311-0.438,0.363-0.735
		c0.058-0.328-0.016-0.679-0.177-0.981c0.186-0.087,0.359-0.215,0.508-0.395c0.38-0.46,0.449-1.209,0.138-1.735
		c0.383,0.085,0.793,0.023,1.153-0.231c0.21-0.147,0.37-0.356,0.481-0.59c0.412,0.077,0.861-0.002,1.189-0.232
		c0.716-0.503,0.771-1.38,0.365-2.09c-0.024-0.042-0.038-0.066-0.053-0.09c-0.01-0.027-0.027-0.066-0.058-0.137
		c-0.068-0.151-0.119-0.31-0.17-0.467c-0.052-0.162-0.073-0.42-0.063-0.738c0.026-0.819-0.876-1.431-1.62-1.37
		c-0.778,0.064-1.226,0.637-1.341,1.328c-0.495-0.553-1.357-0.666-1.975-0.232c-0.671,0.472-0.832,1.419-0.365,2.09
		c0.381,0.548,0.752,1.103,1.143,1.643c-0.219-0.187-0.423-0.377-0.58-0.564c-0.527-0.625-1.376-0.866-2.09-0.365
		c-0.625,0.439-0.893,1.463-0.365,2.09c0.252,0.299,0.525,0.568,0.803,0.832c-0.161-0.055-0.324-0.109-0.503-0.162
		c-0.786-0.23-1.607,0.482-1.736,1.22c-0.13,0.744,0.281,1.312,0.89,1.606c-0.581,0.125-1.06,0.549-1.172,1.19
		c-0.135,0.769,0.407,1.643,1.22,1.736c0.775,0.088,1.552,0.078,2.306-0.076c-0.373,0.193-0.748,0.396-1.092,0.659
		C264.064,383.727,263.865,384.632,264.349,385.321z"/>
</g>
<g>
	<path fill="#231F20" d="M249.297,364.836l3.751-2.145l2.315-0.619c0.14-0.21,0.245-0.443,0.265-0.689
		c0.188,0.206,0.433,0.356,0.717,0.427l3.667-0.98c0.012-0.061,0.025-0.122,0.031-0.185c0.004-0.049,0.007-0.076,0.009-0.104
		c0.007-0.028,0.016-0.069,0.031-0.145c0.031-0.163,0.081-0.322,0.13-0.48c0.051-0.163,0.182-0.386,0.373-0.64
		c0.492-0.655,0.106-1.675-0.538-2.052c-0.674-0.395-1.369-0.184-1.861,0.316c-0.088-0.737-0.727-1.325-1.482-1.325
		c-0.82,0-1.496,0.683-1.5,1.5c-0.003,0.667-0.019,1.334-0.01,2.001c-0.072-0.279-0.129-0.552-0.15-0.795
		c-0.072-0.814-0.628-1.5-1.5-1.5c-0.764,0-1.572,0.684-1.5,1.5c0.034,0.39,0.103,0.767,0.179,1.143
		c-0.101-0.137-0.202-0.276-0.319-0.422c-0.511-0.64-1.592-0.53-2.121,0c-0.534,0.534-0.525,1.235-0.195,1.826
		c-0.547-0.232-1.183-0.16-1.644,0.3c-0.552,0.552-0.612,1.578,0,2.121C248.361,364.259,248.819,364.567,249.297,364.836z"/>
	<path fill="#231F20" d="M247.32,365.967l1.567-0.896c-0.095-0.002-0.189-0.011-0.284-0.007c-0.817,0.032-1.5,0.658-1.5,1.5
		c0,0.308,0.106,0.605,0.28,0.854L247.32,365.967z"/>
</g>
<path fill="#231F20" d="M260.294,422.027l-1.439,3.767c-0.858,2.249-3.053,3.759-5.459,3.759c-0.712,0-1.413-0.13-2.085-0.387
	l-30.299-11.577c-1.458-0.557-2.611-1.648-3.249-3.073c-0.637-1.425-0.681-3.012-0.123-4.47l24.413-63.892
	c0.859-2.249,3.053-3.759,5.459-3.759c0.711,0,1.413,0.13,2.085,0.387l30.298,11.577c0.751,0.287,1.409,0.713,1.956,1.238
	l3.011-0.158l0.7,0.144c-0.973-1.784-2.555-3.246-4.597-4.027l-30.298-11.577c-1.015-0.388-2.076-0.584-3.155-0.584
	c-3.642,0-6.962,2.286-8.262,5.689l-24.413,63.891c-0.843,2.207-0.776,4.609,0.188,6.766c0.964,2.156,2.71,3.808,4.917,4.651
	l30.299,11.577c1.015,0.388,2.076,0.584,3.155,0.584c3.584,0,6.846-2.22,8.188-5.533L260.294,422.027z"/>
<g>
	<path fill="#231F20" d="M269.548,414.503c1.098-0.245,2.017-0.808,2.72-1.66c0.161-0.179,0.255-0.382,0.283-0.603l0.002-0.021
		c0.025-0.143,0.021-0.288-0.011-0.431l-0.576-2.587c-0.07-0.322-0.255-0.58-0.538-0.748c-0.272-0.16-0.578-0.207-0.884-0.138
		l-2.332,0.519c-0.314,0.07-0.57,0.246-0.742,0.508c-0.175,0.268-0.23,0.575-0.16,0.888c0.07,0.312,0.251,0.57,0.523,0.743
		c0.274,0.175,0.588,0.23,0.891,0.162l1.187-0.264l0.183,0.82c-0.327,0.251-0.676,0.416-1.062,0.501
		c-0.689,0.153-1.316,0.051-1.922-0.315c-0.598-0.36-0.96-0.857-1.108-1.521c-0.147-0.665-0.032-1.27,0.353-1.849
		c0.39-0.586,0.885-0.939,1.514-1.08c0.639-0.142,1.236-0.087,1.765,0.16c0.292,0.143,0.613,0.16,0.921,0.049
		c0.309-0.111,0.542-0.323,0.674-0.611c0.133-0.287,0.145-0.6,0.037-0.903c-0.11-0.311-0.327-0.546-0.612-0.672
		c-1.005-0.483-2.088-0.603-3.199-0.356c-1.32,0.294-2.36,1.011-3.092,2.131c-0.732,1.124-0.958,2.354-0.668,3.656
		c0.291,1.304,1.017,2.319,2.156,3.017c0.796,0.488,1.653,0.736,2.547,0.736C268.771,414.634,269.159,414.59,269.548,414.503z"/>
	<path fill="#231F20" d="M281.629,410.339c0.671-1.112,0.868-2.317,0.587-3.582c-0.281-1.261-0.964-2.274-2.031-3.012
		c-1.074-0.742-2.266-0.98-3.513-0.704c-1.251,0.278-2.222,0.987-2.885,2.107c-0.657,1.108-0.847,2.319-0.562,3.599
		c0.284,1.278,0.969,2.294,2.035,3.02c0.774,0.528,1.614,0.796,2.496,0.796c0.337,0,0.685-0.04,1.033-0.117
		c0.6-0.134,1.156-0.39,1.653-0.764C280.938,411.31,281.34,410.854,281.629,410.339z M279.625,409.099
		c-0.321,0.566-0.769,0.906-1.368,1.04c-0.603,0.134-1.151,0.02-1.687-0.351c-0.547-0.379-0.886-0.888-1.034-1.554
		c-0.148-0.67-0.06-1.274,0.271-1.848c0.324-0.56,0.776-0.898,1.384-1.034c0.161-0.036,0.321-0.054,0.475-0.054
		c0.426,0,0.821,0.135,1.21,0.413c0.544,0.389,0.879,0.896,1.024,1.551C280.047,407.915,279.957,408.516,279.625,409.099z"/>
	<path fill="#231F20" d="M284.34,410.022c0.069,0.31,0.246,0.562,0.51,0.729c0.188,0.12,0.395,0.181,0.612,0.181
		c0.086,0,0.175-0.01,0.262-0.029l3.831-0.853c0.3-0.067,0.55-0.245,0.722-0.515c0.17-0.27,0.225-0.572,0.157-0.875
		c-0.067-0.304-0.246-0.556-0.515-0.727c-0.269-0.17-0.566-0.226-0.871-0.16l-2.687,0.598l-1.283-5.767
		c-0.069-0.311-0.25-0.563-0.522-0.73c-0.266-0.165-0.567-0.215-0.874-0.146c-0.308,0.068-0.56,0.244-0.728,0.508
		c-0.169,0.264-0.222,0.567-0.153,0.876L284.34,410.022z"/>
	<path fill="#231F20" d="M296.641,407.061c0.688-1.089,0.896-2.28,0.614-3.541c-0.28-1.261-0.973-2.252-2.059-2.946
		c-1.084-0.691-2.281-0.904-3.537-0.624l-1.383,0.308c-0.308,0.068-0.56,0.244-0.728,0.508c-0.169,0.264-0.222,0.567-0.153,0.875
		l1.538,6.912c0.069,0.31,0.246,0.562,0.511,0.729c0.188,0.12,0.395,0.18,0.611,0.18c0.087,0,0.175-0.01,0.263-0.029l1.383-0.308
		C294.963,408.845,295.952,408.15,296.641,407.061z M294.67,405.806c-0.352,0.554-0.836,0.896-1.476,1.044l-0.238,0.053
		l-1.029-4.623l0.238-0.053c0.645-0.145,1.224-0.042,1.777,0.313s0.893,0.841,1.036,1.486
		C295.122,404.672,295.021,405.253,294.67,405.806z"/>
	<path fill="#231F20" d="M269.477,421.646l-0.065-0.041c-0.005-0.01-0.01-0.02-0.015-0.029c-0.072-0.211-0.26-0.345-0.468-0.464
		L268.583,421c-0.023-0.006-0.046-0.011-0.07-0.014l-0.065-0.047l-0.348,0.078c-0.054,0.012-0.166,0.037-0.273,0.106v-0.001
		l-1.482,1.344c-0.243,0.213-0.375,0.498-0.382,0.824c-0.007,0.328,0.116,0.619,0.326,0.813c0.291,0.322,0.682,0.448,1.103,0.358
		c0.109-0.025,0.211-0.062,0.3-0.11l1.102,4.953c0.068,0.308,0.244,0.56,0.509,0.729c0.189,0.12,0.395,0.18,0.612,0.18
		c0.086,0,0.175-0.01,0.263-0.03c0.306-0.068,0.559-0.242,0.729-0.502c0.176-0.267,0.233-0.573,0.163-0.884L269.477,421.646z"/>
	<path fill="#231F20" d="M276.737,420.815c-0.395-0.381-0.844-0.665-1.336-0.843c-0.515-0.186-1.049-0.22-1.576-0.104
		c-1.053,0.234-1.81,0.939-2.246,2.089c-0.382,0.961-0.449,2.06-0.195,3.277c0.284,1.197,0.811,2.163,1.561,2.867
		c0.703,0.674,1.468,1.015,2.273,1.016c0.214,0,0.433-0.025,0.65-0.073c0.519-0.116,0.981-0.371,1.375-0.76
		c0.375-0.371,0.664-0.819,0.858-1.329c0.384-0.985,0.445-2.083,0.184-3.264C278.023,422.513,277.502,421.544,276.737,420.815z
		 M275.931,426.104c-0.154,0.391-0.349,0.614-0.577,0.665c-0.244,0.051-0.508-0.069-0.813-0.353c-0.426-0.407-0.722-0.975-0.88-1.69
		c-0.16-0.717-0.134-1.367,0.069-1.912c0.17-0.402,0.365-0.626,0.62-0.674c0.034-0.009,0.068-0.014,0.104-0.014
		c0.185,0,0.418,0.127,0.666,0.359c0.431,0.422,0.73,1,0.89,1.717C276.169,424.917,276.141,425.558,275.931,426.104z"/>
	<path fill="#231F20" d="M284.291,418.964c-0.394-0.381-0.844-0.665-1.336-0.843c-0.514-0.186-1.049-0.222-1.576-0.104
		c-1.054,0.234-1.81,0.939-2.246,2.089c-0.382,0.962-0.448,2.06-0.194,3.276c0.283,1.195,0.809,2.161,1.56,2.868
		c0.702,0.674,1.468,1.016,2.273,1.016c0.214,0,0.433-0.024,0.65-0.073c0.521-0.116,0.982-0.372,1.375-0.76
		c0.377-0.373,0.666-0.822,0.858-1.329c0.385-0.986,0.446-2.084,0.185-3.265C285.576,420.66,285.055,419.691,284.291,418.964z
		 M283.486,424.251c-0.155,0.391-0.35,0.615-0.577,0.666c-0.244,0.054-0.508-0.069-0.814-0.353c-0.431-0.412-0.719-0.964-0.88-1.689
		c-0.159-0.717-0.134-1.367,0.069-1.913c0.17-0.402,0.365-0.625,0.622-0.673c0.034-0.009,0.067-0.014,0.103-0.014
		c0.185,0,0.418,0.127,0.666,0.359c0.431,0.422,0.73,1,0.89,1.717C283.725,423.079,283.699,423.701,283.486,424.251z"/>
	<path fill="#231F20" d="M291.654,417.112c-0.394-0.38-0.843-0.664-1.336-0.843c-0.515-0.186-1.05-0.221-1.576-0.104
		c-1.054,0.234-1.81,0.939-2.246,2.089c-0.382,0.961-0.449,2.06-0.195,3.277c0.284,1.197,0.811,2.163,1.561,2.867
		c0.702,0.674,1.468,1.016,2.273,1.016c0.214,0,0.433-0.024,0.65-0.073c0.519-0.116,0.981-0.371,1.375-0.76
		c0.375-0.371,0.664-0.819,0.858-1.329c0.384-0.985,0.445-2.083,0.184-3.264C292.94,418.81,292.419,417.842,291.654,417.112z
		 M290.848,422.401c-0.154,0.39-0.349,0.614-0.578,0.665c-0.285,0.063-0.61-0.166-0.812-0.354c-0.426-0.406-0.722-0.975-0.88-1.689
		c-0.16-0.717-0.134-1.367,0.069-1.912c0.17-0.402,0.365-0.626,0.62-0.673c0.035-0.009,0.069-0.014,0.104-0.014
		c0.185,0,0.417,0.127,0.665,0.359c0.431,0.422,0.73,1,0.89,1.717C291.086,421.216,291.059,421.856,290.848,422.401z"/>
	<path fill="#231F20" d="M301.718,421.603l-1.007-4.523c-0.067-0.301-0.24-0.546-0.498-0.71c-0.26-0.166-0.551-0.22-0.839-0.155
		c-0.27,0.06-0.5,0.201-0.668,0.409c-0.021,0.028-0.042,0.056-0.062,0.084c-0.476-0.115-0.972-0.115-1.479-0.002
		c-0.916,0.204-1.629,0.725-2.118,1.549c-0.482,0.813-0.622,1.699-0.415,2.631c0.21,0.936,0.711,1.67,1.48,2.175
		c0.356,0.248,0.729,0.42,1.115,0.516c-0.216,0.157-0.365,0.379-0.434,0.65c-0.074,0.298-0.03,0.597,0.129,0.871
		c0.165,0.275,0.415,0.455,0.697,0.514c0.263,0.07,0.533,0.105,0.805,0.105c0.238,0,0.483-0.027,0.727-0.082
		c0.905-0.201,1.617-0.702,2.116-1.488C301.768,423.361,301.919,422.505,301.718,421.603z M298.881,420.852
		c-0.156,0.268-0.372,0.424-0.677,0.492c-0.306,0.069-0.565,0.016-0.819-0.165c-0.268-0.189-0.435-0.446-0.51-0.784
		c-0.076-0.339-0.03-0.65,0.139-0.95c0.159-0.284,0.368-0.446,0.659-0.511c0.077-0.018,0.153-0.026,0.227-0.026
		c0.201,0,0.392,0.065,0.582,0.199c0.272,0.194,0.443,0.459,0.521,0.814C299.083,420.272,299.042,420.577,298.881,420.852z"/>
</g>
<g>
	<path fill="#231F20" d="M233.572,394.451c1.077,0.324,2.154,0.283,3.184-0.116c0.228-0.078,0.41-0.208,0.542-0.387l0.012-0.017
		c0.092-0.112,0.16-0.241,0.202-0.381l0.764-2.538c0.096-0.315,0.061-0.631-0.103-0.915c-0.159-0.272-0.402-0.463-0.703-0.553
		l-2.288-0.689c-0.308-0.092-0.618-0.065-0.896,0.08c-0.284,0.147-0.482,0.388-0.574,0.696c-0.092,0.307-0.06,0.62,0.093,0.904
		c0.154,0.287,0.4,0.489,0.698,0.577l1.164,0.351l-0.242,0.805c-0.408,0.059-0.793,0.032-1.172-0.083
		c-0.676-0.204-1.172-0.6-1.522-1.216c-0.345-0.606-0.418-1.218-0.222-1.869c0.197-0.652,0.593-1.123,1.213-1.439
		c0.627-0.321,1.231-0.386,1.848-0.2c0.627,0.189,1.12,0.529,1.46,1.004c0.185,0.267,0.456,0.44,0.779,0.494
		c0.324,0.055,0.631-0.016,0.887-0.203c0.256-0.185,0.42-0.452,0.474-0.769c0.056-0.325-0.018-0.636-0.205-0.886
		c-0.64-0.913-1.525-1.548-2.615-1.877c-1.295-0.39-2.553-0.274-3.739,0.345c-1.189,0.621-1.987,1.583-2.373,2.861
		c-0.384,1.279-0.249,2.52,0.403,3.686c0.455,0.815,1.081,1.451,1.861,1.889C232.83,394.185,233.189,394.336,233.572,394.451z"/>
	<path fill="#231F20" d="M246.144,396.735c1.129-0.641,1.891-1.595,2.265-2.836c0.372-1.237,0.273-2.455-0.296-3.621
		c-0.573-1.173-1.496-1.964-2.718-2.334c-1.227-0.37-2.421-0.227-3.547,0.425c-1.115,0.644-1.874,1.607-2.252,2.862
		c-0.378,1.254-0.279,2.475,0.296,3.63c0.417,0.84,1.018,1.485,1.787,1.916c0.294,0.165,0.616,0.301,0.958,0.404
		c0.588,0.177,1.199,0.226,1.816,0.144C245.066,397.242,245.64,397.042,246.144,396.735z M245.004,394.672
		c-0.557,0.337-1.114,0.414-1.702,0.237c-0.591-0.178-1.014-0.546-1.299-1.131c-0.291-0.598-0.338-1.208-0.141-1.862
		c0.199-0.657,0.572-1.14,1.142-1.479c0.557-0.33,1.117-0.403,1.713-0.224c0.158,0.047,0.307,0.11,0.44,0.185
		c0.371,0.208,0.65,0.52,0.853,0.952c0.284,0.605,0.328,1.212,0.134,1.854C245.951,393.846,245.579,394.326,245.004,394.672z"/>
	<path fill="#231F20" d="M248.663,397.786c-0.091,0.304-0.061,0.611,0.088,0.885c0.106,0.197,0.256,0.351,0.445,0.457
		c0.075,0.042,0.157,0.077,0.243,0.103l3.758,1.132c0.294,0.088,0.599,0.056,0.881-0.095c0.28-0.152,0.476-0.389,0.565-0.686
		c0.09-0.298,0.057-0.605-0.093-0.886c-0.151-0.28-0.383-0.474-0.681-0.566l-2.635-0.794l1.704-5.657
		c0.092-0.305,0.058-0.614-0.098-0.893c-0.151-0.274-0.39-0.465-0.69-0.556c-0.302-0.091-0.607-0.061-0.883,0.087
		c-0.277,0.148-0.471,0.386-0.563,0.689L248.663,397.786z"/>
	<path fill="#231F20" d="M230.012,400.645l-0.037-0.067c0.001-0.011,0.001-0.022,0.001-0.033c0.041-0.219-0.058-0.428-0.181-0.634
		l-0.245-0.268c-0.017-0.016-0.035-0.032-0.054-0.047l-0.034-0.073l-0.341-0.103c-0.053-0.016-0.162-0.049-0.29-0.041v-0.001
		l-1.95,0.447c-0.316,0.067-0.571,0.25-0.737,0.531c-0.167,0.283-0.202,0.597-0.114,0.868c0.096,0.423,0.376,0.724,0.786,0.852
		c0.108,0.032,0.214,0.049,0.316,0.051l-1.464,4.858c-0.091,0.302-0.062,0.608,0.087,0.885c0.107,0.197,0.256,0.35,0.445,0.457
		c0.075,0.042,0.157,0.077,0.244,0.103c0.3,0.091,0.606,0.062,0.882-0.081c0.284-0.147,0.484-0.385,0.575-0.691L230.012,400.645z"/>
	<path fill="#231F20" d="M236.749,403.475c-0.157-0.526-0.41-0.993-0.752-1.389c-0.358-0.414-0.807-0.706-1.324-0.862
		c-1.033-0.311-2.038-0.067-2.981,0.722c-0.804,0.651-1.4,1.576-1.775,2.762c-0.338,1.183-0.352,2.283-0.043,3.264
		c0.283,0.932,0.783,1.604,1.485,1.999c0.186,0.105,0.389,0.19,0.603,0.255c0.509,0.153,1.037,0.157,1.571,0.01
		c0.509-0.14,0.98-0.389,1.399-0.738c0.817-0.671,1.408-1.599,1.758-2.756C237.04,405.584,237.059,404.485,236.749,403.475z
		 M233.458,407.691c-0.326,0.265-0.605,0.365-0.829,0.297c-0.238-0.075-0.409-0.309-0.537-0.706
		c-0.172-0.563-0.152-1.204,0.06-1.904c0.211-0.704,0.553-1.258,0.997-1.633c0.345-0.268,0.625-0.367,0.871-0.284
		c0.034,0.009,0.066,0.022,0.097,0.039c0.161,0.09,0.302,0.315,0.405,0.639c0.169,0.579,0.147,1.23-0.065,1.933
		C234.245,406.773,233.908,407.318,233.458,407.691z"/>
	<path fill="#231F20" d="M244.242,405.558c-0.157-0.525-0.41-0.993-0.752-1.389c-0.357-0.413-0.806-0.707-1.323-0.862
		c-1.034-0.311-2.038-0.067-2.981,0.722c-0.804,0.652-1.399,1.576-1.773,2.761c-0.338,1.181-0.353,2.28-0.044,3.264
		c0.282,0.931,0.783,1.604,1.485,1.999c0.186,0.105,0.389,0.191,0.603,0.255c0.511,0.154,1.039,0.157,1.571,0.011
		c0.511-0.141,0.983-0.391,1.399-0.739c0.818-0.672,1.41-1.599,1.759-2.756C244.533,407.666,244.552,406.567,244.242,405.558z
		 M240.952,409.775c-0.327,0.265-0.606,0.365-0.829,0.298c-0.239-0.073-0.409-0.309-0.537-0.707c-0.174-0.57-0.155-1.192,0.06-1.903
		c0.212-0.703,0.553-1.258,0.997-1.634c0.345-0.267,0.625-0.367,0.872-0.283c0.034,0.009,0.065,0.021,0.096,0.038
		c0.161,0.09,0.302,0.315,0.405,0.639c0.169,0.579,0.147,1.23-0.065,1.933C241.735,408.869,241.407,409.399,240.952,409.775z"/>
	<path fill="#231F20" d="M251.569,407.549c-0.157-0.524-0.41-0.991-0.752-1.389c-0.358-0.414-0.807-0.707-1.324-0.862
		c-1.034-0.311-2.038-0.067-2.981,0.722c-0.804,0.651-1.4,1.576-1.775,2.762c-0.338,1.183-0.352,2.283-0.043,3.264
		c0.282,0.931,0.783,1.604,1.485,1.999c0.186,0.105,0.389,0.191,0.603,0.255c0.509,0.153,1.037,0.157,1.571,0.01
		c0.509-0.14,0.98-0.389,1.399-0.738c0.817-0.671,1.408-1.599,1.758-2.756C251.86,409.659,251.879,408.559,251.569,407.549z
		 M248.278,411.766c-0.326,0.265-0.604,0.365-0.83,0.297c-0.279-0.085-0.451-0.443-0.535-0.706c-0.172-0.563-0.152-1.203,0.06-1.904
		c0.211-0.704,0.553-1.258,0.997-1.633c0.345-0.267,0.625-0.367,0.87-0.284c0.035,0.009,0.067,0.022,0.098,0.039
		c0.161,0.09,0.301,0.315,0.404,0.639c0.169,0.579,0.147,1.23-0.065,1.933C249.065,410.849,248.728,411.394,248.278,411.766z"/>
	<path fill="#231F20" d="M257.694,410.497c-0.325-0.263-0.693-0.474-1.121-0.603c-0.899-0.271-1.775-0.165-2.605,0.314
		c-0.819,0.473-1.374,1.177-1.65,2.091c-0.275,0.919-0.198,1.804,0.226,2.621c0.19,0.39,0.431,0.723,0.72,0.996
		c-0.265,0.031-0.504,0.152-0.696,0.355c-0.211,0.223-0.319,0.506-0.314,0.822c0.009,0.321,0.139,0.6,0.356,0.79
		c0.195,0.19,0.414,0.353,0.65,0.485c0.208,0.117,0.435,0.213,0.673,0.285c0.888,0.268,1.754,0.18,2.574-0.261
		c0.822-0.442,1.373-1.115,1.639-2l0.642-2.133C258.031,413.168,257.833,411.83,257.694,410.497z M256.603,413.596
		c-0.103,0.344-0.287,0.591-0.562,0.752c-0.267,0.157-0.532,0.187-0.831,0.097c-0.3-0.09-0.501-0.263-0.634-0.545
		c-0.141-0.296-0.16-0.602-0.061-0.933c0.1-0.333,0.292-0.582,0.586-0.76c0.278-0.169,0.54-0.209,0.825-0.123
		c0.076,0.022,0.146,0.052,0.21,0.088c0.175,0.098,0.309,0.249,0.41,0.459C256.689,412.933,256.708,413.249,256.603,413.596z"/>
</g>
</svg>
