<?xml version="1.0" encoding="utf-8"?>
<!-- Generator: Adobe Illustrator 17.0.2, SVG Export Plug-In . SVG Version: 6.00 Build 0)  -->
<!DOCTYPE svg PUBLIC "-//W3C//DTD SVG 1.1//EN" "http://www.w3.org/Graphics/SVG/1.1/DTD/svg11.dtd">
<svg version="1.1" id="Layer_1" xmlns="http://www.w3.org/2000/svg" xmlns:xlink="http://www.w3.org/1999/xlink" x="0px" y="0px"
	 width="612px" height="792px" viewBox="0 0 612 792" enable-background="new 0 0 612 792" xml:space="preserve">
<path fill="#5F8893" d="M372.579,376.97h-40.062v-27.256c-7.299-1.728-15.212-2.682-23.487-2.682
	c-19.618,0-37.227,5.323-49.316,13.764l-1.281,22.983l-15.292,6.566c1.932,21.567,30.689,38.687,65.889,38.687
	c36.451,0,66-18.356,66-41C375.03,384.197,374.164,380.49,372.579,376.97z M327.296,419.499c-7.016,0-12.704-1.427-12.704-3.188
	s5.688-3.188,12.704-3.188s12.704,1.427,12.704,3.188S334.312,419.499,327.296,419.499z"/>
<g>
	<g>
		<path fill="#231F20" d="M305.322,377.955v-27.016h-26.353c0.339-1.001,0.54-2.082,0.67-3.112c0.151,0.004,0.308-0.035,0.451-0.156
			c1.802-1.518,0.494-4.227,0.169-6.132c-0.049-0.285-0.365-0.484-0.635-0.484h-0.615c0.107-0.116,0.176-0.268,0.175-0.439
			c-0.005-0.816-0.042-1.582-0.243-2.372c-0.054-0.213-0.242-0.412-0.46-0.46c-1.2-0.267-2.18-0.137-3.099,0.348
			c-0.152-0.026-0.307-0.042-0.463-0.06c-0.244-0.526-0.669-0.946-1.225-1.179c-1.022-0.429-1.985,0.46-2.547,1.194
			c-0.045,0.059-0.074,0.118-0.095,0.176c-0.003,0.001-0.005,0.001-0.008,0.001c-0.169-0.321-0.35-0.665-0.67-0.825
			c-0.505-0.253-1.192-0.12-1.733-0.117c-0.364,0.001-0.652,0.299-0.659,0.659c-0.004,0.229-0.019,0.454-0.032,0.68
			c-0.172-0.049-0.387-0.02-0.52,0.069c-0.291,0.195-0.577,0.395-0.859,0.599c-0.473,0.094-0.949,0.172-1.445,0.19
			c-0.38,0.014-0.631,0.29-0.659,0.659c-0.064,0.852,0.006,1.612,0.218,2.334c0,0.027,0.002,0.054,0.002,0.082
			c0,0.194,0.074,0.342,0.184,0.45c0.181,0.449,0.422,0.888,0.726,1.331c-0.094,1.204,0.128,2.5,0.718,3.824
			c0.009,0.021,0.025,0.032,0.036,0.052c0.148,0.958,0.409,1.875,0.785,2.691h-14.528v3.05l-7.818-1.182
			c0.243-0.874,0.268-1.663,0.053-2.378c-0.367-1.222-1.364-2.111-2.965-2.643c-0.43-0.143-0.853-0.244-1.28-0.305
			c-0.68-1.331-1.836-2.125-3.378-2.311c-0.148-0.018-0.294-0.027-0.436-0.027c-0.814,0-1.877,0.287-2.852,1.445
			c-0.616-0.814-1.45-1.345-2.493-1.587c-1.339-0.311-2.488-0.178-3.401,0.383c-0.882-0.427-1.846-0.605-2.919-0.517
			c-2.273,0.184-3.808,2.003-4.442,5.196c-0.77-0.721-1.805-1.313-3.229-1.504c-1.624-0.219-2.862,0.426-3.672,1.772
			c-0.238-0.103-0.48-0.187-0.723-0.253c-0.272-0.073-0.551-0.11-0.828-0.11c-1.671,0-3.127,1.332-3.386,3.098
			c-0.125,0.848,0.059,1.658,0.439,2.408l-4.012,1.738l-0.723-0.108v29.391l36.968,5.545l0.012,0.028l0.044-0.019l1.118-0.484
			l1.293-0.56c2.894,1.112,6.115,1.464,9.081,1.784l1.001,0.109c1.583,0.176,3.002,0.262,4.338,0.262
			c1.676,0,3.204-0.133,4.671-0.407c1.561-0.292,2.9-0.94,4.196-1.567c0.125-0.061,0.25-0.12,0.374-0.18
			c3.021,0.898,6.977,1.447,11.324,1.447c9.462,0,17.132-2.581,17.132-5.766c0-2.717-5.593-4.99-13.111-5.599v-3.131H305.322z
			 M237.908,351.02c0,0.24-0.032,0.495-0.045,0.741l-1.024-0.155C237.195,351.396,237.549,351.195,237.908,351.02z M236.292,354.558
			l0.768,0.116l-1.287,0.557c-0.035-0.131-0.062-0.274-0.091-0.414L236.292,354.558z M231.75,349.994
			c0.041,0.146,0.078,0.297,0.11,0.459c-0.062,0.023-0.123,0.046-0.185,0.069c-0.176-0.766-0.431-1.487-0.756-2.139
			C231.259,348.738,231.574,349.374,231.75,349.994z M225.164,348.257c0.259-0.185,0.549-0.187,0.927-0.042
			c-0.159,0.546-0.263,1.128-0.335,1.716l-1.58-0.239C224.399,349.095,224.713,348.579,225.164,348.257z M226.389,355.481
			c-0.001,0.007,0.001,0.014,0,0.021l-2.564,1.088c-0.019-0.135-0.045-0.265-0.071-0.396l2.301-0.996
			C226.154,355.306,226.264,355.403,226.389,355.481z M223.675,352.668l0.079-0.005l0.448,0.068l-0.536,0.232
			C223.668,352.868,223.672,352.768,223.675,352.668z M232.514,356.161c0.043,0.144,0.087,0.285,0.138,0.422l-8.123,3.518
			l-0.959-0.144L232.514,356.161z M217.111,351.857l0.112-0.004c0.113,0,0.221,0.014,0.326,0.04l-1.111,0.481
			C216.689,351.902,216.972,351.867,217.111,351.857z M219.577,354.284c0.066,0.13,0.123,0.249,0.181,0.371l-3.654,1.582
			c-0.015-0.14-0.026-0.285-0.037-0.434L219.577,354.284z M220.614,357.554c-0.009,0.2-0.041,0.341-0.076,0.431l-2.642,1.121
			l-0.587-0.088c0.006-0.014,0.014-0.027,0.019-0.041L220.614,357.554z M212.275,353.302c0.17,0.029,0.362,0.113,0.561,0.244
			c-0.014,0.137-0.016,0.266-0.026,0.4l-0.392,0.17c-0.055-0.079-0.127-0.158-0.175-0.237
			C212.12,353.676,212.164,353.354,212.275,353.302z M211.315,357.862c0.137,0.111,0.278,0.216,0.419,0.32l-0.861-0.129
			L211.315,357.862z M239.687,388.732l-32.143-4.822v-23.323l26.444,3.967c-0.012,0.427-0.023,0.852-0.036,1.287
			c-0.238,7.945-0.507,16.95,5.734,22.599V388.732z M239.687,383.488c-2.912-4.632-2.661-11.675-2.44-17.59
			c0.011-0.289,0.021-0.568,0.031-0.85l2.409,0.361V383.488z M240.379,362.479l-12.112-1.817l12.303-5.328L240.379,362.479z
			 M241.588,352.324l-0.351-0.053c0.032-0.359,0.058-0.723,0.064-1.092c0.155,0.112,0.287,0.237,0.387,0.372
			C241.785,351.679,241.748,351.941,241.588,352.324z M242.376,362.583l0.143-5.688c0.337-0.439,0.626-0.856,0.893-1.262
			l11.127,1.682L242.376,362.583z M242.779,386.645c-0.033-0.021-0.06-0.047-0.092-0.068v-20.859l14.41-6.241l-0.575,22.825
			l-12.072,5.228C243.856,387.257,243.289,386.967,242.779,386.645z M274.42,381.132c-7.252,0.671-12.587,2.9-12.587,5.554
			c0,0.841,0.547,1.637,1.508,2.357c-1.579,0.505-3.215,0.797-5.193,0.798c-3.61,0-6.74-0.308-9.399-0.902l10.723-4.644l0.16-6.339
			h14.788V381.132z"/>
		
			<rect x="209.394" y="367.889" transform="matrix(0.9864 0.1647 -0.1647 0.9864 63.8441 -31.4131)" fill="#231F20" width="24.011" height="3"/>
		
			<rect x="209.613" y="373.054" transform="matrix(-0.9864 -0.1647 0.1647 -0.9864 378.5408 780.4866)" fill="#231F20" width="24.011" height="3"/>
		
			<rect x="209.405" y="378.334" transform="matrix(-0.9864 -0.1647 0.1647 -0.9864 377.2564 790.9404)" fill="#231F20" width="24.011" height="3"/>
		
			<rect x="248.851" y="371.648" transform="matrix(-0.3899 -0.9208 0.9208 -0.3899 0.2538 755.3981)" fill="#231F20" width="3" height="11.934"/>
		
			<rect x="248.626" y="367.234" transform="matrix(0.3899 0.9208 -0.9208 0.3899 496.247 -2.6536)" fill="#231F20" width="3" height="11.934"/>
		
			<rect x="248.595" y="362.573" transform="matrix(0.3899 0.9208 -0.9208 0.3899 491.9366 -5.4675)" fill="#231F20" width="3" height="11.935"/>
	</g>
	<path fill="#BABBBD" d="M221.199,387.839"/>
</g>
<path fill="#5F8893" d="M432.344,352.916c-1.669-2.231-3.803-3.803-6.402-4.713c2.902-2.34,4.354-5.188,4.354-8.547
	c0-3.357-1.104-6.143-3.314-8.353c-2.011-2.011-4.403-3.097-7.168-3.278v-9.263c0-0.875-0.709-1.584-1.584-1.584
	s-1.584,0.709-1.584,1.584v9.226h-7.799c-0.434,0-0.803,0.152-1.105,0.455c-0.304,0.304-0.455,0.672-0.455,1.105v42.38
	c0,0.434,0.141,0.802,0.423,1.105c0.281,0.304,0.639,0.455,1.072,0.455h7.864v7.576c0,0.875,0.709,1.584,1.584,1.584
	s1.584-0.709,1.584-1.584v-7.576h2.033c3.596,0,6.662-1.268,9.197-3.803c2.535-2.535,3.803-5.6,3.803-9.197
	C434.846,357.672,434.012,355.148,432.344,352.916z M424.739,333.578c1.581,1.604,2.372,3.521,2.372,5.752
	c0,2.232-0.791,4.139-2.372,5.72c-1.386,1.385-3.027,2.163-4.926,2.336v-16.175C421.712,331.386,423.354,332.175,424.739,333.578z
	 M410.471,331.173h6.174v16.25h-6.174V331.173z M410.471,370.303v-19.63h6.174v19.63H410.471z M428.736,367.443
	c-1.907,1.907-4.204,2.86-6.89,2.86h-2.033v-19.63h2.033c2.686,0,4.982,0.965,6.89,2.893c1.906,1.929,2.882,4.236,2.925,6.922
	C431.618,363.218,430.642,365.537,428.736,367.443z"/>
<g>
	<path fill="#231F20" d="M331.5,342.5V378h51v-35.5H331.5z M379.5,375h-45v-13.5v-3v-13h45V375z"/>
	<rect x="262.525" y="358.5" fill="#231F20" width="2" height="3"/>
	<rect x="284.518" y="358.5" fill="#231F20" width="3.999" height="3"/>
	<rect x="292.515" y="358.5" fill="#231F20" width="3.999" height="3"/>
	<rect x="276.521" y="358.5" fill="#231F20" width="3.999" height="3"/>
	<rect x="300.512" y="358.5" fill="#231F20" width="3.999" height="3"/>
	<rect x="268.524" y="358.5" fill="#231F20" width="3.999" height="3"/>
	<rect x="324.503" y="358.5" fill="#231F20" width="3.999" height="3"/>
	<rect x="316.506" y="358.5" fill="#231F20" width="3.999" height="3"/>
	<rect x="308.509" y="358.5" fill="#231F20" width="3.999" height="3"/>
	<path fill="#231F20" d="M342.99,366.872c1.234,0,2.277-0.614,3.108-1.837c0.711-1.09,1.071-2.374,1.071-3.817
		c0-1.442-0.359-2.73-1.085-3.851c-0.833-1.197-1.874-1.804-3.095-1.804c-1.222,0-2.263,0.607-3.105,1.819
		c-0.704,1.062-1.062,2.353-1.062,3.836c0,1.485,0.37,2.787,1.1,3.868C340.918,366.562,342.14,366.872,342.99,366.872z
		 M341.811,358.72c0.539-0.817,1.011-0.817,1.166-0.817c0.156,0,0.631,0,1.19,0.83c0.446,0.666,0.664,1.479,0.664,2.485
		c0,1.008-0.225,1.835-0.676,2.512c-0.564,0.804-1.026,0.804-1.179,0.804c-0.15,0-0.606,0-1.14-0.785
		c-0.447-0.674-0.674-1.525-0.674-2.53S341.381,359.373,341.811,358.72z"/>
	<path fill="#231F20" d="M352.043,359.06c0.254,0,0.48-0.063,0.642-0.169l0.111-0.065v6.884c0,0.314,0.122,0.608,0.339,0.822
		c0.22,0.22,0.512,0.34,0.823,0.34s0.604-0.121,0.818-0.336c0.223-0.219,0.345-0.512,0.345-0.826v-8.805
		c0.065-0.594-0.264-1.092-0.85-1.259c-0.327-0.088-0.659-0.038-0.91,0.12l-1.817,1.105c-0.371,0.196-0.521,0.478-0.582,0.68
		c-0.062,0.205-0.092,0.529,0.128,0.931C351.305,358.849,351.651,359.06,352.043,359.06z"/>
	<path fill="#231F20" d="M362.9,366.872c1.234,0,2.277-0.614,3.108-1.837c0.711-1.09,1.071-2.374,1.071-3.817
		c0-1.442-0.359-2.73-1.085-3.851c-0.833-1.197-1.874-1.804-3.095-1.804c-1.222,0-2.263,0.607-3.105,1.819
		c-0.704,1.062-1.062,2.353-1.062,3.836c0,1.485,0.37,2.787,1.1,3.868C360.828,366.562,362.05,366.872,362.9,366.872z
		 M361.721,358.72c0.539-0.817,1.011-0.817,1.166-0.817c0.156,0,0.631,0,1.19,0.83c0.446,0.666,0.664,1.479,0.664,2.485
		c0,1.008-0.225,1.835-0.676,2.512c-0.564,0.804-1.026,0.804-1.179,0.804c-0.15,0-0.606,0-1.14-0.785
		c-0.447-0.674-0.674-1.525-0.674-2.53S361.291,359.373,361.721,358.72z"/>
	<path fill="#231F20" d="M371.953,359.06c0.254,0,0.48-0.063,0.642-0.169l0.111-0.065v6.884c0,0.314,0.122,0.608,0.339,0.822
		c0.22,0.22,0.512,0.34,0.823,0.34s0.604-0.121,0.818-0.336c0.223-0.219,0.345-0.512,0.345-0.826v-8.805
		c0.065-0.594-0.264-1.092-0.85-1.259c-0.327-0.088-0.659-0.038-0.91,0.12l-1.817,1.105c-0.371,0.196-0.521,0.478-0.582,0.68
		c-0.062,0.205-0.092,0.529,0.128,0.931C371.215,358.849,371.562,359.06,371.953,359.06z"/>
</g>
<g>
	<path fill="#231F20" d="M370.759,398.115c-0.35-0.35-0.774-0.524-1.273-0.524h-0.6v-5.994c0-2.311-0.821-4.286-2.463-5.929
		c-1.643-1.642-3.618-2.463-5.929-2.463s-4.286,0.821-5.929,2.463c-1.642,1.643-2.463,3.618-2.463,5.929
		c0,0.325,0.118,0.605,0.355,0.843s0.519,0.355,0.843,0.355h1.199c0.325,0,0.605-0.118,0.843-0.355s0.355-0.518,0.355-0.843
		c0-1.323,0.469-2.454,1.405-3.391s2.066-1.404,3.391-1.404c1.323,0,2.453,0.468,3.391,1.404c0.937,0.937,1.404,2.067,1.404,3.391
		v5.994h-13.786c-0.499,0-0.924,0.175-1.273,0.524s-0.524,0.774-0.524,1.273v10.789c0,0.5,0.175,0.925,0.524,1.274
		s0.774,0.524,1.273,0.524h17.982c0.499,0,0.924-0.175,1.273-0.524s0.524-0.774,0.524-1.274v-10.789
		C371.283,398.89,371.108,398.465,370.759,398.115z"/>
	<path fill="#231F20" d="M297.677,401.542l5.461-3.877l-11.819-2.196l-1.23,11.459l5.12-3.635c1.164,2.139,4.982,7.896,13.114,9.567
		l0.604-2.939C301.423,408.38,298.281,402.766,297.677,401.542z"/>
	<path fill="#231F20" d="M327.131,411.488c-1.506,0-14.719,0.13-14.719,4.64c0,4.509,13.213,4.64,14.719,4.64
		c1.507,0,14.719-0.13,14.719-4.64C341.85,411.618,328.638,411.488,327.131,411.488z M327.131,418.207
		c-6.783,0-11.148-1.261-12.057-2.08c0.909-0.819,5.274-2.08,12.057-2.08s11.148,1.261,12.058,2.08
		C338.28,416.946,333.914,418.207,327.131,418.207z"/>
</g>
</svg>
