<?xml version="1.0" encoding="utf-8"?>
<!-- Generator: Adobe Illustrator 17.0.2, SVG Export Plug-In . SVG Version: 6.00 Build 0)  -->
<!DOCTYPE svg PUBLIC "-//W3C//DTD SVG 1.1//EN" "http://www.w3.org/Graphics/SVG/1.1/DTD/svg11.dtd">
<svg version="1.1" id="Layer_1" xmlns="http://www.w3.org/2000/svg" xmlns:xlink="http://www.w3.org/1999/xlink" x="0px" y="0px"
	 width="252px" height="252px" viewBox="180 270 252 252" enable-background="new 180 270 252 252" xml:space="preserve">
<path fill="#5F8893" d="M360.109,408.502h-40.062v-27.256c-7.299-1.728-15.212-2.682-23.487-2.682
	c-19.618,0-37.227,5.323-49.316,13.764l-1.281,22.983l-15.292,6.566c1.932,21.567,30.689,38.687,65.889,38.687
	c36.451,0,66-18.356,66-41C362.56,415.729,361.694,412.022,360.109,408.502z M314.826,451.031c-7.016,0-12.704-1.427-12.704-3.188
	s5.688-3.188,12.704-3.188s12.704,1.427,12.704,3.188S321.842,451.031,314.826,451.031z"/>
<g>
	<g>
		<path fill="#231F20" d="M292.852,409.487v-27.016h-26.353c0.339-1.001,0.54-2.082,0.67-3.112c0.151,0.004,0.308-0.035,0.451-0.156
			c1.802-1.518,0.494-4.227,0.169-6.132c-0.049-0.285-0.365-0.484-0.635-0.484h-0.615c0.107-0.116,0.176-0.268,0.175-0.439
			c-0.005-0.816-0.042-1.582-0.243-2.372c-0.054-0.213-0.242-0.412-0.46-0.46c-1.2-0.267-2.18-0.137-3.099,0.348
			c-0.152-0.026-0.307-0.042-0.463-0.06c-0.244-0.526-0.669-0.946-1.225-1.179c-1.022-0.429-1.985,0.46-2.547,1.194
			c-0.045,0.059-0.074,0.118-0.095,0.176c-0.003,0.001-0.005,0.001-0.008,0.001c-0.169-0.321-0.35-0.665-0.67-0.825
			c-0.505-0.253-1.192-0.12-1.733-0.117c-0.364,0.001-0.652,0.299-0.659,0.659c-0.004,0.229-0.019,0.454-0.032,0.68
			c-0.172-0.049-0.387-0.02-0.52,0.069c-0.291,0.195-0.577,0.395-0.859,0.599c-0.473,0.094-0.949,0.172-1.445,0.19
			c-0.38,0.014-0.631,0.29-0.659,0.659c-0.064,0.852,0.006,1.612,0.218,2.334c0,0.027,0.002,0.054,0.002,0.082
			c0,0.194,0.074,0.342,0.184,0.45c0.181,0.449,0.422,0.888,0.726,1.331c-0.094,1.204,0.128,2.5,0.718,3.824
			c0.009,0.021,0.025,0.032,0.036,0.052c0.148,0.958,0.409,1.875,0.785,2.691h-14.528v3.05l-7.818-1.182
			c0.243-0.874,0.268-1.663,0.053-2.378c-0.367-1.222-1.364-2.111-2.965-2.643c-0.43-0.143-0.853-0.244-1.28-0.305
			c-0.68-1.331-1.836-2.125-3.378-2.311c-0.148-0.018-0.294-0.027-0.436-0.027c-0.814,0-1.877,0.287-2.852,1.445
			c-0.616-0.814-1.45-1.345-2.493-1.587c-1.339-0.311-2.488-0.178-3.401,0.383c-0.882-0.427-1.846-0.605-2.919-0.517
			c-2.273,0.184-3.808,2.003-4.442,5.196c-0.77-0.721-1.805-1.313-3.229-1.504c-1.624-0.219-2.862,0.426-3.672,1.772
			c-0.238-0.103-0.48-0.187-0.723-0.253c-0.272-0.073-0.551-0.11-0.828-0.11c-1.671,0-3.127,1.332-3.386,3.098
			c-0.125,0.848,0.059,1.658,0.439,2.408l-4.012,1.738l-0.723-0.108v29.391l36.968,5.545l0.012,0.028l0.044-0.019l1.118-0.484
			l1.293-0.56c2.894,1.112,6.115,1.464,9.081,1.784l1.001,0.109c1.583,0.176,3.002,0.262,4.338,0.262
			c1.676,0,3.204-0.133,4.671-0.407c1.561-0.292,2.9-0.94,4.196-1.567c0.125-0.061,0.25-0.12,0.374-0.18
			c3.021,0.898,6.977,1.447,11.324,1.447c9.462,0,17.132-2.581,17.132-5.766c0-2.717-5.593-4.99-13.111-5.599v-3.131h22.338V409.487
			z M225.438,382.552c0,0.24-0.032,0.495-0.045,0.741l-1.024-0.155C224.725,382.928,225.079,382.727,225.438,382.552z
			 M223.822,386.09l0.768,0.116l-1.287,0.557c-0.035-0.131-0.062-0.274-0.091-0.414L223.822,386.09z M219.28,381.526
			c0.041,0.146,0.078,0.297,0.11,0.459c-0.062,0.023-0.123,0.046-0.185,0.069c-0.176-0.766-0.431-1.487-0.756-2.139
			C218.789,380.27,219.104,380.906,219.28,381.526z M212.694,379.789c0.259-0.185,0.549-0.187,0.927-0.042
			c-0.159,0.546-0.263,1.128-0.335,1.716l-1.58-0.239C211.929,380.627,212.243,380.111,212.694,379.789z M213.919,387.013
			c-0.001,0.007,0.001,0.014,0,0.021l-2.564,1.088c-0.019-0.135-0.045-0.265-0.071-0.396l2.301-0.996
			C213.684,386.838,213.794,386.935,213.919,387.013z M211.205,384.2l0.079-0.005l0.448,0.068l-0.536,0.232
			C211.198,384.4,211.202,384.3,211.205,384.2z M220.044,387.693c0.043,0.144,0.087,0.285,0.138,0.422l-8.123,3.518l-0.959-0.144
			L220.044,387.693z M204.641,383.389l0.112-0.004c0.113,0,0.221,0.014,0.326,0.04l-1.111,0.481
			C204.219,383.434,204.502,383.399,204.641,383.389z M207.107,385.816c0.066,0.13,0.123,0.249,0.181,0.371l-3.654,1.582
			c-0.015-0.14-0.026-0.285-0.037-0.434L207.107,385.816z M208.144,389.086c-0.009,0.2-0.041,0.341-0.076,0.431l-2.642,1.121
			l-0.587-0.088c0.006-0.014,0.014-0.027,0.019-0.041L208.144,389.086z M199.805,384.834c0.17,0.029,0.362,0.113,0.561,0.244
			c-0.014,0.137-0.016,0.266-0.026,0.4l-0.392,0.17c-0.055-0.079-0.127-0.158-0.175-0.237
			C199.65,385.208,199.694,384.886,199.805,384.834z M198.845,389.394c0.137,0.111,0.278,0.216,0.419,0.32l-0.861-0.129
			L198.845,389.394z M227.217,420.264l-32.143-4.822v-23.323l26.444,3.967c-0.012,0.427-0.023,0.852-0.036,1.287
			c-0.238,7.945-0.507,16.95,5.734,22.599v0.292H227.217z M227.217,415.02c-2.912-4.632-2.661-11.675-2.44-17.59
			c0.011-0.289,0.021-0.568,0.031-0.85l2.409,0.361V415.02z M227.909,394.011l-12.112-1.817l12.303-5.328L227.909,394.011z
			 M229.118,383.856l-0.351-0.053c0.032-0.359,0.058-0.723,0.064-1.092c0.155,0.112,0.287,0.237,0.387,0.372
			C229.315,383.211,229.278,383.473,229.118,383.856z M229.906,394.115l0.143-5.688c0.337-0.439,0.626-0.856,0.893-1.262
			l11.127,1.682L229.906,394.115z M230.309,418.177c-0.033-0.021-0.06-0.047-0.092-0.068V397.25l14.41-6.241l-0.575,22.825
			l-12.072,5.228C231.386,418.789,230.819,418.499,230.309,418.177z M261.95,412.664c-7.252,0.671-12.587,2.9-12.587,5.554
			c0,0.841,0.547,1.637,1.508,2.357c-1.579,0.505-3.215,0.797-5.193,0.798c-3.61,0-6.74-0.308-9.399-0.902l10.723-4.644l0.16-6.339
			h14.788V412.664z"/>
		
			<rect x="196.918" y="399.449" transform="matrix(-0.9863 -0.1647 0.1647 -0.9863 348.963 830.8305)" fill="#231F20" width="24.012" height="3"/>
		
			<rect x="197.149" y="404.558" transform="matrix(0.9863 0.1647 -0.1647 0.9863 69.73 -28.9013)" fill="#231F20" width="24.012" height="3"/>
		
			<rect x="196.94" y="409.838" transform="matrix(0.9863 0.1647 -0.1647 0.9863 70.5967 -28.7947)" fill="#231F20" width="24.012" height="3"/>
		
			<rect x="236.38" y="403.208" transform="matrix(0.3899 0.9208 -0.9208 0.3899 521.9136 30.5778)" fill="#231F20" width="3" height="11.933"/>
		
			<rect x="236.158" y="398.739" transform="matrix(-0.3899 -0.9208 0.9208 -0.3899 -42.3472 781.3552)" fill="#231F20" width="3" height="11.933"/>
		
			<rect x="236.127" y="394.079" transform="matrix(-0.3899 -0.9208 0.9208 -0.3899 -38.0997 774.8501)" fill="#231F20" width="3" height="11.934"/>
	</g>
	<path fill="#BABBBD" d="M208.729,419.371"/>
</g>
<path fill="#5F8893" d="M419.874,384.448c-1.669-2.231-3.803-3.803-6.402-4.713c2.902-2.34,4.354-5.188,4.354-8.547
	c0-3.357-1.104-6.143-3.314-8.353c-2.011-2.011-4.403-3.097-7.168-3.278v-9.263c0-0.875-0.709-1.584-1.584-1.584
	s-1.584,0.709-1.584,1.584v9.226h-7.799c-0.434,0-0.803,0.152-1.105,0.455c-0.304,0.304-0.455,0.672-0.455,1.105v42.38
	c0,0.434,0.141,0.802,0.423,1.105c0.281,0.304,0.639,0.455,1.072,0.455h7.864v7.576c0,0.875,0.709,1.584,1.584,1.584
	s1.584-0.709,1.584-1.584v-7.576h2.033c3.596,0,6.662-1.268,9.197-3.803s3.803-5.6,3.803-9.197
	C422.376,389.204,421.542,386.68,419.874,384.448z M412.269,365.11c1.581,1.604,2.372,3.521,2.372,5.752
	c0,2.232-0.791,4.139-2.372,5.72c-1.386,1.385-3.027,2.163-4.926,2.336v-16.175C409.242,362.918,410.884,363.707,412.269,365.11z
	 M398.001,362.705h6.174v16.25h-6.174V362.705z M398.001,401.835v-19.63h6.174v19.63H398.001z M416.266,398.975
	c-1.907,1.907-4.204,2.86-6.89,2.86h-2.033v-19.63h2.033c2.686,0,4.982,0.965,6.89,2.893c1.906,1.929,2.882,4.236,2.925,6.922
	C419.148,394.75,418.172,397.069,416.266,398.975z"/>
<g>
	<path fill="#231F20" d="M319.03,374.032v35.5h51v-35.5H319.03z M367.03,406.532h-45v-13.5v-3v-13h45V406.532z"/>
	<rect x="250.055" y="390.032" fill="#231F20" width="2" height="3"/>
	<rect x="272.048" y="390.032" fill="#231F20" width="3.999" height="3"/>
	<rect x="280.045" y="390.032" fill="#231F20" width="3.999" height="3"/>
	<rect x="264.051" y="390.032" fill="#231F20" width="3.999" height="3"/>
	<rect x="288.042" y="390.032" fill="#231F20" width="3.999" height="3"/>
	<rect x="256.054" y="390.032" fill="#231F20" width="3.999" height="3"/>
	<rect x="312.033" y="390.032" fill="#231F20" width="3.999" height="3"/>
	<rect x="304.036" y="390.032" fill="#231F20" width="3.999" height="3"/>
	<rect x="296.039" y="390.032" fill="#231F20" width="3.999" height="3"/>
	<path fill="#231F20" d="M330.52,398.404c1.234,0,2.277-0.614,3.108-1.837c0.711-1.09,1.071-2.374,1.071-3.817
		c0-1.442-0.359-2.73-1.085-3.851c-0.833-1.197-1.874-1.804-3.095-1.804c-1.222,0-2.263,0.607-3.105,1.819
		c-0.704,1.062-1.062,2.353-1.062,3.836c0,1.485,0.37,2.787,1.1,3.868C328.448,398.094,329.67,398.404,330.52,398.404z
		 M329.341,390.252c0.539-0.817,1.011-0.817,1.166-0.817c0.156,0,0.631,0,1.19,0.83c0.446,0.666,0.664,1.479,0.664,2.485
		c0,1.008-0.225,1.835-0.676,2.512c-0.564,0.804-1.026,0.804-1.179,0.804c-0.15,0-0.606,0-1.14-0.785
		c-0.447-0.674-0.674-1.525-0.674-2.53S328.911,390.905,329.341,390.252z"/>
	<path fill="#231F20" d="M339.573,390.592c0.254,0,0.48-0.063,0.642-0.169l0.111-0.065v6.884c0,0.314,0.122,0.608,0.339,0.822
		c0.22,0.22,0.512,0.34,0.823,0.34s0.604-0.121,0.818-0.336c0.223-0.219,0.345-0.512,0.345-0.826v-8.805
		c0.065-0.594-0.264-1.092-0.85-1.259c-0.327-0.088-0.659-0.038-0.91,0.12l-1.817,1.105c-0.371,0.196-0.521,0.478-0.582,0.68
		c-0.062,0.205-0.092,0.529,0.128,0.931C338.835,390.381,339.181,390.592,339.573,390.592z"/>
	<path fill="#231F20" d="M350.43,398.404c1.234,0,2.277-0.614,3.108-1.837c0.711-1.09,1.071-2.374,1.071-3.817
		c0-1.442-0.359-2.73-1.085-3.851c-0.833-1.197-1.874-1.804-3.095-1.804c-1.222,0-2.263,0.607-3.105,1.819
		c-0.704,1.062-1.062,2.353-1.062,3.836c0,1.485,0.37,2.787,1.1,3.868C348.358,398.094,349.58,398.404,350.43,398.404z
		 M349.251,390.252c0.539-0.817,1.011-0.817,1.166-0.817c0.156,0,0.631,0,1.19,0.83c0.446,0.666,0.664,1.479,0.664,2.485
		c0,1.008-0.225,1.835-0.676,2.512c-0.564,0.804-1.026,0.804-1.179,0.804c-0.15,0-0.606,0-1.14-0.785
		c-0.447-0.674-0.674-1.525-0.674-2.53S348.821,390.905,349.251,390.252z"/>
	<path fill="#231F20" d="M359.483,390.592c0.254,0,0.48-0.063,0.642-0.169l0.111-0.065v6.884c0,0.314,0.122,0.608,0.339,0.822
		c0.22,0.22,0.512,0.34,0.823,0.34s0.604-0.121,0.818-0.336c0.223-0.219,0.345-0.512,0.345-0.826v-8.805
		c0.065-0.594-0.264-1.092-0.85-1.259c-0.327-0.088-0.659-0.038-0.91,0.12l-1.817,1.105c-0.371,0.196-0.521,0.478-0.582,0.68
		c-0.062,0.205-0.092,0.529,0.128,0.931C358.745,390.381,359.092,390.592,359.483,390.592z"/>
</g>
<g>
	<path fill="#231F20" d="M358.289,429.647c-0.35-0.35-0.774-0.524-1.273-0.524h-0.6v-5.994c0-2.311-0.821-4.286-2.463-5.929
		c-1.643-1.642-3.618-2.463-5.929-2.463s-4.286,0.821-5.929,2.463c-1.642,1.643-2.463,3.618-2.463,5.929
		c0,0.325,0.118,0.605,0.355,0.843s0.519,0.355,0.843,0.355h1.199c0.325,0,0.605-0.118,0.843-0.355s0.355-0.518,0.355-0.843
		c0-1.323,0.469-2.454,1.405-3.391s2.066-1.404,3.391-1.404c1.323,0,2.453,0.468,3.391,1.404c0.937,0.937,1.404,2.067,1.404,3.391
		v5.994h-13.786c-0.499,0-0.924,0.175-1.273,0.524s-0.524,0.774-0.524,1.273v10.789c0,0.5,0.175,0.925,0.524,1.274
		s0.774,0.524,1.273,0.524h17.982c0.499,0,0.924-0.175,1.273-0.524s0.524-0.774,0.524-1.274V430.92
		C358.813,430.422,358.638,429.997,358.289,429.647z"/>
	<path fill="#231F20" d="M285.207,433.074l5.461-3.877l-11.819-2.196l-1.23,11.459l5.12-3.635c1.164,2.139,4.982,7.896,13.114,9.567
		l0.604-2.939C288.953,439.912,285.811,434.298,285.207,433.074z"/>
	<path fill="#231F20" d="M314.661,443.02c-1.506,0-14.719,0.13-14.719,4.64c0,4.509,13.213,4.64,14.719,4.64
		c1.507,0,14.719-0.13,14.719-4.64S316.168,443.02,314.661,443.02z M314.661,449.739c-6.783,0-11.148-1.261-12.057-2.08
		c0.909-0.819,5.274-2.08,12.057-2.08s11.148,1.261,12.058,2.08C325.81,448.478,321.444,449.739,314.661,449.739z"/>
</g>
</svg>
