<?xml version="1.0" encoding="utf-8"?>
<!-- Generator: Adobe Illustrator 17.0.2, SVG Export Plug-In . SVG Version: 6.00 Build 0)  -->
<!DOCTYPE svg PUBLIC "-//W3C//DTD SVG 1.1//EN" "http://www.w3.org/Graphics/SVG/1.1/DTD/svg11.dtd">
<svg version="1.1" id="Layer_1" xmlns="http://www.w3.org/2000/svg" xmlns:xlink="http://www.w3.org/1999/xlink" x="0px" y="0px"
	 width="252px" height="252px" viewBox="180 270 252 252" enable-background="new 180 270 252 252" xml:space="preserve">
<g>
	<path fill="#5A835F" d="M293.976,398.279l4.217,1.375C267.327,382.292,282.876,392.762,293.976,398.279z"/>
	<path fill="#5A835F" d="M336.82,391.954l0.787,0.002l13.696-3.676c-3.549-4.311-8.29-8.182-13.953-11.443
		c1.38,4.196,2.585,8.445,2.843,11.151C340.325,389.372,339.015,390.703,336.82,391.954z"/>
	<path fill="#5A835F" d="M254.026,425.237l13.75-16l33.191-0.057l0.529,38.338c15.87-1.344,29.944-6.185,40.138-13.241l-4.026,0.166
		l4.743-7.468l-8.578,0.303l0.404-6.156l-18.872,0.908l-0.101-23.111l-0.376-0.148c-5.323,1.129-9.99,1.933-12.172,2.311
		c-0.482,0.083-0.937-0.12-1.156-0.076c-1.074,0.215-4.085-1.019-7.521-2.727l-11.117-3.625c0,0-8.223-7.041-14.333-1.667
		c-4.453,3.917-6.125,1.901-6.125,1.901c-0.765-4.899-8.387-5.935-16.14-5.609l0.015,0.458l-12.25,15.5l-5.75,2.75l-1.729-0.012
		c0.548,13.281,11.253,24.985,27.479,32.233v-14.971H254.026z"/>
</g>
<g>
	<path fill="#231F20" d="M300.869,375.129c0.061-0.815,0.251-1.611,0.462-2.397c0.376-1.406,0.983-4.345,2.107-6.562
		c-3.172,0.027-6.802-0.124-7.866-3.7c-2.233-7.5-14.479-4.529-20.215-4.734c-0.489-0.018-1.073-0.445-1-1
		c0.643-4.854-3.696-4.471-7.283-4.553c-2.542-0.058-5.049-0.059-7.573,0.145c0.764,1.245,1.03,2.765,0.833,4.266
		c-0.254,1.946-1.021,4.299-0.91,6.197c0.069,1.175,2.728,0.505,3.297,0.453c0.441-0.04,0.85,0.336,0.964,0.734
		c1.847,6.426,1.664,12.969,1.486,19.532c4.9-0.674,8.822-1.296,12.969-4.46c2.168-1.655,4.91-2.136,7.576-1.252
		c1.832,0.608,1.732,2.246,2.14,3.943c1.057,4.396,5.578,2.587,9.189,3.135c0.827,0.126,1.699,0.24,2.502,0.506
		c-0.304-2.568-1.146-5.61,0.263-7.827C300.707,376.146,300.652,378.039,300.869,375.129z"/>
	<path fill="#231F20" d="M323.746,349.463c-2.906,1.875-2.862,4.211-2.969,7.436c-0.77,0.726-1.541,1.453-2.311,2.179
		c-0.03-0.528-0.022-1.056,0.023-1.583c0.046-0.928,0.262-1.834,0.502-2.726c0.127-0.475,0.329-1.014,0.576-1.569
		c-0.209-0.014-0.42-0.112-0.601-0.335c-1.572-1.943-2.151-2.43-4.648-1.309c-1.08,0.485-3.469,0.176-3.798,1.874
		c-0.288,1.489-0.876,2.352-2.25,2.989c-2.171,1.005-12.653-1.1-11.621,2.614c0.071,0.255,0.03,0.471-0.058,0.656
		c0.163,0.265,0.321,0.545,0.467,0.858c1.836,3.939,4.271,3.639,7.417,3.611c0.124-0.001,0.225,0.031,0.325,0.063
		c0.479-0.456,1.02-0.763,1.633-0.847c1.897-0.259,3.056,0.734,4.448,1.946c3.835,3.338,7.026,1.217,10.822,1.771
		c0.078-0.16,0.192-0.309,0.396-0.417c2.211-1.174,0.53-4.383,2.73-5.743c2.048-1.267,4.273,0.429,6.531-0.113
		c0.401-0.096,0.893-0.223,1.429-0.352c-1.248-0.296-2.218-1.436-1.781-2.917c0.514-1.745-0.235-2.823-1.287-4.086
		c-0.036-0.043-0.078-0.07-0.118-0.103c0.423-0.757,0.532-1.618-0.184-2.841C328.345,348.691,325.449,348.364,323.746,349.463z"/>
	<path fill="#231F20" d="M325.349,376.485c-1.257-3.265-0.325-7.748-5.401-7.179c-4.395,0.493-7.112,0.303-10.482-2.57
		c-5.031-4.29-6.279,7.743-6.734,10.022c-0.183,0.913-0.144,1.469-0.975,1.879c-1.647,0.814-0.212,6.213-0.129,7.58
		c0.011,0.183-0.027,0.332-0.088,0.463c2.111,2.416,6.167,1.246,8.876,1.297c5.598,0.106,4.34-4.2,4.571-8.169
		C315.196,376.22,320.548,376.046,325.349,376.485z"/>
	<path fill="#231F20" d="M336.584,359.872c0.16-0.164,0.376-0.282,0.668-0.291c3.531-0.11,7.059-1.154,10.602-0.772
		c2.42,0.261,2.345,2.919,2.985,4.782c0.259,0.753,0.658,2.223,1.476,2.609c1.438,0.677,1.367-1.098,1.368-1.793
		c0.002-1.933-0.22-3.856-0.488-5.768c-0.376-2.68-1.188-5.678-0.793-8.392c-1.013,0.11-2.019,0.256-2.973,0.592
		c-2.25,0.793-3.535,2.714-5.965,3.33c-2.152,0.545-3.397,0.921-4.922,2.544c-1.242,1.321-1.937,2.219-3.507,3.305
		C335.553,359.94,336.076,359.885,336.584,359.872z"/>
	<path fill="#231F20" d="M330.982,369.074c1.068-0.738,2.165-1.63,3.463-1.873c0.83-0.155,2.321,0.241,3.212-0.062
		c0.105-0.26,0.319-0.461,0.628-0.544c0.036-0.085,0.065-0.178,0.082-0.285c0.159-1.044,0.322-2.199,0.22-3.262
		c-0.19-1.978-3.216-1.172-4.19-0.927c-1.664,0.42-3.292,0.899-5.018,0.925c-0.995,0.015-4.163-1.7-4.026,1.225
		c0.023,0.484,0.08,0.991-0.01,1.472c-0.184,0.981-0.631,1.585-1.304,2.084c3.154,1.722,1.681,5.529,3.456,8.547
		c0.072,0.123,0.105,0.243,0.124,0.361c0.101,0.013,0.197,0.026,0.295,0.039c0.046-0.352,0.246-0.691,0.649-0.859
		c1.67-0.695-0.165-3.222,0.217-4.612C329.044,370.343,330.219,369.601,330.982,369.074z"/>
	<path fill="#231F20" d="M348.157,361.462c-0.446-1.434-4.9-0.769-8.085-0.265c0.306,0.464,0.5,1.059,0.514,1.851
		c0.017,1.037,0.031,2.27-0.167,3.415c2.049-0.103,4.093-0.193,6.072,0.479c1.978,0.672,3.122,2.553,5,3.397
		c0.046,0.021,0.068,0.053,0.107,0.078c0.072-0.124,0.132-0.259,0.169-0.413c0.154-0.644,0.328-1.185,0.527-1.675
		C349.498,368.063,348.775,363.447,348.157,361.462z"/>
	<path fill="#231F20" d="M350.171,371.895c-1.723-0.931-2.953-2.84-4.897-3.258c-1.842-0.396-3.709-0.235-5.574-0.142
		c-1.038,1.529-4.054,0.038-5.388,0.82c-1.091,0.639-2.351,1.312-3.243,2.217c-0.856,0.869,0.197,2.435,0.391,3.37
		c0.214,1.031-0.282,1.721-0.992,2.223c0.777,0.109,1.414,0.193,1.84,0.219c0.834,0.051,1.372,1.07,0.707,1.707
		c-1.419,1.359-2.719,2.792-4.264,3.971c1.472,1.268,3.204,2.294,4.447,3.771c1.39,1.652,2.686,3.327,4.252,4.808
		c2.67-2.648,6.638-4.771,8.765-7.11c1.182-1.3,1.643-2.844,1.881-4.536c0.255-1.814-1.224-5.199,1.325-5.958
		c0.516-0.154,0.854-0.699,0.698-1.23C350.012,372.399,350.052,372.125,350.171,371.895z"/>
	<path fill="#231F20" d="M367.259,343.171c-1.324-2.576-3.98-0.939-5.24,0.547c-1.629,1.921-2.387,4.591-4.894,5.646
		c-0.935,0.393-1.935,0.57-2.954,0.693c0.126,0.198,0.201,0.436,0.16,0.717c-0.363,2.487,2.033,9.701,1.483,14.076
		c0.207-0.104,0.406-0.208,0.635-0.315c1.056-0.49,7.565-1.658,5.907-4.502c-2.038-3.494,6.659-4.964,7.564-8.157
		C370.654,349.286,368.393,345.378,367.259,343.171z"/>
	<path fill="#231F20" d="M249.553,344.865c0.652,0.807,1.24,1.702,1.627,2.669c2.112,5.269,4.301,2.023,6.621,3.117
		c0.143-0.112,0.309-0.203,0.526-0.226c3.519-0.384,6.993-0.24,10.523-0.202c1.682,0.018,3.825-0.306,5.437,0.396
		c0.849,0.37,1.725,0.917,1.994,1.886c0.486,1.753-0.616,3.343,1.66,3.265c4.712-0.163,10.291-1.104,14.767,0.871
		c0.67,0.296,1.252,0.595,1.776,0.93c0.373-4.227,7.741-2.375,11.023-2.633c2.94-0.231,2.083-1.597,3.581-3.368
		c1.622-1.918,2.971-1.128,5.35-2.249c2.987-1.408,3.914-0.377,5.941,2.129c0.024,0.03,0.04,0.061,0.061,0.092
		c0.578-0.95,1.246-1.804,1.9-2.29c0.965-0.718,3.615-0.568,4.841-0.673c0.661-0.057,1.37-0.843,0.863-1.505
		c-2.686-3.514-5.615-2.31-9.341-2.542c0.151-0.42,0.296-0.843,0.469-1.265c0.249-0.609-0.371-1.273-0.964-1.266
		c-1.46,0.019-2.381,0.363-3.656,1.06c-1.755,0.959-3.323,0.898-4.974,0.752c2.192-1.54,5.252-3.726,1.433-4.758
		c-0.963-0.26-2.168,0.017-3.134,0.128c-1.896,0.217-3.839-0.469-5.667-0.917c-4.559-1.116-8.783-1.426-13.476-1.3
		c-10.755,0.289-21.475,0.854-32.238,0.814c-3.072-0.012-6.14-0.058-9.202-0.225C247.46,340.458,247.309,342.086,249.553,344.865z"
		/>
</g>
<g>
	<path fill="#5A835F" d="M393.766,322.676c0-0.433,0.151-0.801,0.455-1.105c0.303-0.302,0.672-0.455,1.105-0.455
		s0.801,0.152,1.104,0.455c0.303,0.304,0.455,0.672,0.455,1.105v2.6c4.073,0.348,7.931,1.864,11.57,4.55
		c0.606,0.477,0.91,0.954,0.91,1.43c0,0.478-0.163,0.877-0.487,1.203c-0.325,0.325-0.716,0.487-1.171,0.487
		c-0.454,0-0.855-0.151-1.202-0.455c-3.033-2.427-6.283-3.835-9.75-4.225v18.2c4.94,1.04,8.515,2.525,10.725,4.453
		c2.211,1.929,3.315,4.55,3.315,7.865s-1.3,6.088-3.9,8.32s-5.937,3.413-10.01,3.542v5.07c0,0.433-0.152,0.801-0.455,1.105
		c-0.304,0.303-0.672,0.455-1.104,0.455c-0.434,0-0.803-0.152-1.105-0.455c-0.304-0.304-0.455-0.672-0.455-1.105v-5.135
		c-5.417-0.433-10.292-2.535-14.625-6.305c-0.477-0.39-0.715-0.823-0.715-1.3s0.163-0.877,0.487-1.203
		c0.325-0.325,0.716-0.487,1.17-0.487c0.455,0,0.834,0.152,1.138,0.455c3.727,3.467,7.951,5.438,12.675,5.915v-18.525
		c-4.854-1.083-8.363-2.578-10.529-4.485c-2.168-1.906-3.25-4.495-3.25-7.768c0-3.271,1.288-6.022,3.867-8.255
		c2.578-2.231,5.839-3.39,9.782-3.478L393.766,322.676L393.766,322.676z M386.324,330.607c-1.929,1.647-2.893,3.651-2.893,6.013
		s0.736,4.247,2.21,5.655c1.473,1.409,4.226,2.59,8.255,3.542v-17.745C390.777,328.115,388.252,328.96,386.324,330.607z
		 M404.524,365.154c1.972-1.667,2.957-3.715,2.957-6.142s-0.77-4.344-2.307-5.753c-1.539-1.407-4.346-2.567-8.418-3.478v17.94
		C399.963,367.679,402.551,366.823,404.524,365.154z"/>
</g>
<path fill="#231F20" d="M315.042,400.294c-1.083-0.972-1.079-1.433-0.438-1.628l-2.257-0.886l-0.11-5.963l22.731,0.05
	c-1.063-1.224-2.011-2.537-3.184-3.66c-1.703-1.632-3.678-2.867-5.31-4.578c-0.452-0.474-0.354-1.227,0.202-1.571
	c1.315-0.813,2.392-1.877,3.459-2.96c-4.63-0.596-13.393-1.742-13.156,2.255c0.117,1.974,0.535,6.022-1.304,7.51
	c-1.784,1.444-3.841,1.069-5.989,1.095c0.031,1.778-0.026,5.668-2.826,5.395c-1.014-0.099-2.168-0.523-2.796,0.785
	c-0.354,0.739-0.366,1.545-0.463,2.342c-0.121,1-0.466,1.821-1.003,2.592c0.831,0.153,1.669,0.394,2.486,0.703
	c3.037,1.146,6.86,2.285,9.966,0.629L315.042,400.294z"/>
<path fill="#231F20" d="M307.693,390.101c-2.357,0.255-5.395,0.608-6.877-1.168c-3.101-3.716-8.56-1.463-12.706-2.636
	c-1.848-0.523-2.17-3.651-2.442-5.105c-0.917-4.896-7.388,0.649-9.708,1.807c-3.491,1.741-7.033,2.005-10.839,2.521
	c-0.076,3.194-0.087,6.391,0.172,9.578c2.683-0.406,5.099-0.672,7.142,2.67c1.211,1.981,3.085,7.291,6.632,4.765
	c4.757-3.387,5.806,2.13,7.724,6.591l7.637-0.013c0.131-1.264,0.361-2.514,0.735-3.772c0.926-3.111,2.938-4.299,5.256-4.424
	c0.018-0.194,0.077-0.39,0.233-0.571c1.166-1.348,0.894-2.951,1.374-4.54c0.304-1.008,1.106-1.655,1.942-2.209
	c0.717-0.476,1.688-0.458,2.493-0.303C307.948,393.577,307.743,391.209,307.693,390.101z"/>
<path fill="#231F20" d="M262.64,367.959c-0.653-2.909-1.474-2.493-4.13-2.716c-0.568-0.048-0.966-0.42-1-1
	c-0.203-3.484,2.794-11.076-2.347-11.726c-2.092-0.264-3.482-0.977-4.939-2.517c-1.627-1.719-2.631-4.357-4.114-6.311
	c-1.159-1.527-0.821-4.304-0.846-6.265c-0.9-0.068-1.8-0.137-2.699-0.235c-4.603-0.502-9.041-1.032-13.62-0.096
	c-0.412,0.084-0.761,0.546-0.734,0.964c-0.957,2.109-2.159,2.301-3.603,0.575c-0.96-0.855-2.379,0.555-1.414,1.414
	c0.041,0.037,0.087,0.072,0.129,0.109c-0.039,0.266,0.019,0.551,0.237,0.807c2.128,2.497,0.764,7.191,0.48,10.087
	c-0.364,3.71,1.145,7.229,0.47,10.931c-0.372,2.042,0.014,4.06,0.906,5.917c0.192,0.401,0.397,0.793,0.597,1.188l20.084-0.198
	l0.679,20.767l-1.715,2.17c2.367,0.652,5.331,0.149,7.629,0.917c2.972,0.993,5.421,2.395,8.604,2.659
	c0.686,0.057,1.358,0.026,2.018-0.038c-0.488-5.695-0.009-11.34,0.032-17.047C263.369,374.883,263.396,371.326,262.64,367.959z"/>
<path fill="#231F20" d="M247.597,387.001v-19.614l-34.053,0.003c-1.863,0.113-2.771,1.191-3.067,1.634l-12.866,15.92l0.139,0.112
	h-0.051v24.081h35.927v-0.299l13.5-17.683l0.075-0.185C247.298,390.734,247.767,389.44,247.597,387.001z M212.861,370.846
	l0.029,0.06l0.085-0.223c0.02-0.027,0.208-0.266,0.661-0.296h29.221l-12.447,14.669h-29.033L212.861,370.846z M230.66,406.17h-7.977
	v-11.616h-7.75v11.616h-1.25v-11.616h-7.75v11.616h-5.267v-18.147h29.994V406.17z M244.462,389.702l-1.779,2.33v-11.853l-7,8.5
	V401.2l-2.056,2.693v-17.991l10.971-12.93v14.082l0.004,0.109C244.702,388.542,244.54,389.39,244.462,389.702z"/>
<g>
	<path fill="#231F20" d="M303.216,447.639v-40.042l-34.053,0.003c-1.852,0.112-2.76,1.179-3.062,1.626l-12.694,15.387h-0.088v45.162
		h35.927v-0.298l13.5-17.683l0.075-0.185C302.918,451.372,303.386,450.078,303.216,447.639z M268.471,411.068l0.035,0.055
		l0.088-0.23c0.02-0.027,0.208-0.266,0.661-0.296h28.931l-11.893,14.017h-28.997L268.471,411.068z M286.279,466.808h-7.977v-11.616
		h-7.75v11.616h-1.25v-11.616h-7.75v11.616h-5.266V427.58h29.993V466.808z M300.081,450.341l-10.835,14.192V425.77l10.971-12.93
		v34.853l0.004,0.109C300.321,449.18,300.159,450.029,300.081,450.341z"/>
	<rect x="260.239" y="445.142" fill="#231F20" width="5.903" height="6.197"/>
	<rect x="267.498" y="445.142" fill="#231F20" width="5.903" height="6.197"/>
	<rect x="274.624" y="445.142" fill="#231F20" width="5.903" height="6.197"/>
	<rect x="260.239" y="437.355" fill="#231F20" width="5.903" height="6.197"/>
	<rect x="267.498" y="437.355" fill="#231F20" width="5.903" height="6.197"/>
	<rect x="274.624" y="437.355" fill="#231F20" width="5.903" height="6.197"/>
	<rect x="260.239" y="429.832" fill="#231F20" width="5.903" height="6.197"/>
	<rect x="267.498" y="429.832" fill="#231F20" width="5.903" height="6.197"/>
	<rect x="274.624" y="429.832" fill="#231F20" width="5.903" height="6.197"/>
	<polygon fill="#231F20" points="291.274,443.304 291.278,449.325 298.682,440.267 298.677,434.246 	"/>
	<polygon fill="#231F20" points="298.672,426.681 291.142,435.87 291.146,441.891 298.676,432.702 	"/>
	<polygon fill="#231F20" points="298.666,419.372 290.747,428.562 290.751,434.583 298.671,425.393 	"/>
</g>
<g>
	<polygon fill="#FFFFFF" points="337.712,391.864 365.374,384.411 392.538,392.196 	"/>
	<g>
		<rect x="318.88" y="401.108" fill="#231F20" width="3.152" height="3.468"/>
		<rect x="324.344" y="401.108" fill="#231F20" width="3.152" height="3.468"/>
		<rect x="330.228" y="401.108" fill="#231F20" width="3.152" height="3.468"/>
		<rect x="318.88" y="406.467" fill="#231F20" width="3.152" height="3.468"/>
		<rect x="324.344" y="406.467" fill="#231F20" width="3.152" height="3.468"/>
		<rect x="330.228" y="406.467" fill="#231F20" width="3.152" height="3.468"/>
		<rect x="318.88" y="412.141" fill="#231F20" width="3.152" height="3.468"/>
		<rect x="324.344" y="412.141" fill="#231F20" width="3.152" height="3.468"/>
		<rect x="330.228" y="412.141" fill="#231F20" width="3.152" height="3.468"/>
		<rect x="397.954" y="401.108" fill="#231F20" width="3.152" height="3.468"/>
		<rect x="403.839" y="401.108" fill="#231F20" width="3.152" height="3.468"/>
		<rect x="409.723" y="401.108" fill="#231F20" width="3.152" height="3.468"/>
		<rect x="397.954" y="406.467" fill="#231F20" width="3.152" height="3.468"/>
		<rect x="403.839" y="406.467" fill="#231F20" width="3.152" height="3.468"/>
		<rect x="409.723" y="406.467" fill="#231F20" width="3.152" height="3.468"/>
		<rect x="397.954" y="412.141" fill="#231F20" width="3.152" height="3.468"/>
		<rect x="403.839" y="412.141" fill="#231F20" width="3.152" height="3.468"/>
		<rect x="409.723" y="412.141" fill="#231F20" width="3.152" height="3.468"/>
		<path fill="#231F20" d="M422.112,399.28l-0.341-8.521H392.97l-26.096-7.479v-5.234l5.646-3.069l-8.646-8.645v16.93l-26.184,7.055
			h-26.982l0.166,8.963h3.027l-0.442,23.852h18.447v4.858h8.106l-5.721,7.3l61.664-0.245l-5.08-7.056h8.518v-4.858h19.139
			l-0.331-23.852h3.911V399.28z M403.043,393.759l0.404,0.002l-0.009-0.002h15.45l0.101,2.521h-25.194l-0.115-2.521H403.043z
			 M365.361,385.967l16.268,4.662l-32.832-0.198L365.361,385.967z M339.951,393.378l49.55,0.299v0.082h1.176l1.008,22.176h-2.198
			l-0.302-18.834l-4.638,0.221l0.725,18.613h-3.309l-0.413-18.597h-3.975l0.423,18.597h-2.664l-0.409-18.759l-4.638-0.068
			l0.409,18.828h-3.28v-18.818l-3.754-0.01l-0.423,18.828h-3.094l0.204-18.759h-4.417l-0.204,18.759h-3.291l0.846-18.759
			l-3.754-0.058l-0.627,18.818h-3.092l1.069-18.597h-3.975l-0.845,18.597h-2.488L339.951,393.378z M347.04,423.886l0.764-0.975
			h35.716l0.702,0.975H347.04z M386.383,426.886l0.702,0.975h-43.16l0.764-0.975H386.383z M350.156,419.911l0.765-0.976h29.738
			l0.702,0.976H350.156z M313.819,396.28l-0.055-2.963h16.099l7.088,0.043l-0.049,2.92H313.819z M331.906,420.132h-15.391
			l0.386-20.852h19.95l-0.282,16.655h-4.663V420.132z M334.906,424.99v-6.055h12.203l-4.745,6.055H334.906z M340.472,432.266
			l1.101-1.405h47.672l0.87,1.208L340.472,432.266z M396.393,424.99h-7.678l-4.359-6.055h12.038L396.393,424.99L396.393,424.99z
			 M399.393,420.132v-4.196h-4.705l-0.757-16.655h21.27l0.29,20.852L399.393,420.132L399.393,420.132z"/>
	</g>
</g>
<path fill="#231F20" d="M340.487,449.23l-2.08-2.161c-5.519,5.314-11.926,4.727-13.276,4.532l-0.105-6.697l-8.5,8.5l8.75,7.5
	l-0.098-6.278c0.451,0.047,1.05,0.088,1.775,0.088C330.134,454.715,335.623,453.914,340.487,449.23z"/>
<path fill="#231F20" d="M226.005,431.4l5.811-3.797l-11.725-2.649l-1.67,11.403l5.05-3.3c1.035,2.121,4.617,8.128,12.769,10.132
	l0.716-2.913C229.38,438.413,226.484,432.499,226.005,431.4z"/>
</svg>
