<?xml version="1.0" encoding="utf-8"?>
<!-- Generator: Adobe Illustrator 17.0.2, SVG Export Plug-In . SVG Version: 6.00 Build 0)  -->
<!DOCTYPE svg PUBLIC "-//W3C//DTD SVG 1.1//EN" "http://www.w3.org/Graphics/SVG/1.1/DTD/svg11.dtd">
<svg version="1.1" id="Layer_1" xmlns="http://www.w3.org/2000/svg" xmlns:xlink="http://www.w3.org/1999/xlink" x="0px" y="0px"
	 width="252px" height="252px" viewBox="180 270 252 252" enable-background="new 180 270 252 252" xml:space="preserve">
<g>
	<path fill="#A29352" d="M313.833,437.667C311.833,434,299.667,412,299.667,412l0.167-0.5c0,0,3.528-9.835,5.275-13.749L301,397.25
		l-1.533-0.981l1.154,4.397l-4.471-6.52l-7.65-4.896l-5.353-3.346l-19.225-3.18l-1.049,27.251l-6.272,26.065
		c11.036,5.155,24.755,8.212,39.626,8.212c7.998,0,15.663-0.885,22.758-2.504C316.595,440.635,314.736,439.322,313.833,437.667z"/>
	<path fill="#A29352" d="M355.96,385.807l-2.71,4.943L346.5,398l-14.75,3l-4.581-0.559c2.662,2.196,4.831,4.059,4.831,4.059
		s0.167,10.833,0.5,13.5c0.251,2.008,3.432,12.05,4.987,17.243c15.077-7.514,24.74-19.048,24.74-31.99
		C362.227,397.013,359.975,391.101,355.96,385.807z"/>
	<path fill="#A29352" d="M267.919,372.778l-3.518-5.447c-20.371,6.98-34.175,20.447-34.175,35.921c0,2.028,0.247,4.021,0.705,5.97
		l2.476-1.968l4.597-1.36l12.753-25.888L263,372.227L267.919,372.778z"/>
</g>
<g>
	<path fill="#A29352" d="M396.585,389.592L396,389.657c-0.737,0-1.234-0.346-1.495-1.04l-4.029-10.725h-20.735l-4.03,10.725
		c-0.26,0.694-0.759,1.04-1.495,1.04l-0.585-0.065c-0.39-0.173-0.682-0.465-0.877-0.877c-0.195-0.412-0.206-0.812-0.032-1.203
		l15.795-42.185c0.303-0.65,0.845-0.975,1.625-0.975c0.779,0,1.277,0.325,1.495,0.975l15.795,42.185c0.172,0.39,0.172,0.791,0,1.203
		C397.257,389.127,396.976,389.419,396.585,389.592z M380.141,350.267l-9.23,24.44h18.396L380.141,350.267z"/>
	<path fill="#A29352" d="M402.956,376.657v-17.355c0-0.433,0.151-0.801,0.455-1.105c0.303-0.303,0.672-0.455,1.105-0.455
		s0.801,0.152,1.104,0.455c0.303,0.304,0.455,0.672,0.455,1.105v17.355c0,2.73,0.953,5.049,2.86,6.955
		c1.906,1.907,4.203,2.882,6.89,2.925c2.73-0.042,5.06-1.018,6.988-2.925c1.927-1.906,2.892-4.225,2.892-6.955v-17.355
		c0-0.433,0.163-0.801,0.488-1.105c0.324-0.303,0.703-0.455,1.137-0.455s0.802,0.152,1.105,0.455
		c0.303,0.304,0.455,0.672,0.455,1.105v17.355c0,3.597-1.268,6.663-3.803,9.197c-2.535,2.535-5.601,3.803-9.197,3.803
		c-3.598,0-6.652-1.268-9.165-3.803C404.212,383.32,402.956,380.254,402.956,376.657z"/>
</g>
<path fill="none" stroke="#231F20" stroke-width="3" stroke-miterlimit="10" d="M272.254,428.086"/>
<path fill="none" stroke="#231F20" stroke-width="3" stroke-miterlimit="10" d="M270.489,428.086"/>
<path fill="#231F20" d="M356.139,367.035c-4.884-9.507-15.222-16.016-24.836-19.842c-6.4-2.547-13.428-3.367-20.135-4.747
	c-8.139-1.674-15.576-5.414-23.702-7.107c-9.665-2.014-23.133-0.56-27.638,9.592c-3.5,7.888,0.454,17.592,4.446,24.479
	c0.419,0.723,0.865,1.431,1.33,2.129l-3.773-0.41l-12.444,7.919l-13.555,27.457l-45.554,1.779l-3.899,31.192l4.487-0.026
	c-4.348,5.53-0.138,15.563,0.07,16.047l0.401,0.936l14.412-0.379h34.162l-0.021-0.062L267,445l-0.5-5l-3-11.5l-5.383,4.974
	l5.877-21.94l1.187-26.57l16.45,2.559c4.208,2.924,8.776,5.448,13.531,7.56l4.019,5.305c-1.096,3.162-1.664,6.541-2.414,9.772
	c-0.577,2.486-1.222,4.97-2.272,7.303c-1.752,3.895-5.211,2.047-8.101,3.5c-7.429,3.735-5.815,14.892-5.453,22.278
	c-0.234,0.159-0.412,0.405-0.441,0.757c-0.141,1.743-0.088,2.656,0.536,4.266c0.163,0.421,0.485,0.734,0.964,0.734
	c2.035,0,2.406,1.245,3.824,2.7c1.45,1.489,3.305,2.534,5.177,3.382c4.814,2.181,10.698,2.042,15.844,1.82
	c12.04-0.518,23.627-4.727,34.98-8.385c7.255-2.337-0.469-14.42-1.223-17.999c-1.965-9.321,2.031-20.795-1.425-29.821
	c5.464-1.277,10.864-2.837,14.651-7.026C360.314,386.499,360.332,375.196,356.139,367.035z M193.336,453.381
	c-0.956-2.688-3.214-10.404,1.152-13.207h8.551c-1.783,3.497-2.987,8.656,0.057,12.95L193.336,453.381z M224.598,453.055
	c-0.775-2.68-2.423-10.081,1.993-12.881h8.553c-1.774,3.478-2.975,8.602,0.008,12.881H224.598z M198.015,418.645l45.737-1.669
	v12.522h3v-13.736l15.314-28.227l-1.013,23.381l-5.995,22.381l-5.58,2.819l-59.7,0.341l3.16-25.274l44.793-1.75l13.973-28.305
	l9.49-6.039c0.527,1.822,0.99,3.635,1.244,5.485l-18.117,33.378l-46.415,1.694L198.015,418.645z M292.136,386.121l-27.549-4.285
	c-0.189-2.567-0.816-5.057-1.546-7.558l29.182,3.172l3.45,13.339L292.136,386.121z M294.084,374.635l-2.493-0.271l-0.213-0.179
	l0.042,0.16l-0.117-0.013c-1.448-2.181-2.589-4.502-3.039-7.129c-0.953-5.569,6.784-2.672,9.106-1.665
	c2.263,0.982,4.583,1.932,6.911,2.886l-2.239,1.399c-0.689-0.307-1.381-0.606-2.065-0.924c-2.491-1.16-5.766-3.22-8.625-3.144
	C288.747,365.825,291.942,371.369,294.084,374.635z M297.714,358.693c-4.877-2.994-17.667-10.71-16.78,0.871
	c0.393,5.138,2.549,9.752,5.176,14.205l-2.704-0.294c-3.058-5.317-5.282-10.843-4.383-16.604c1.317-8.439,9.896-5.443,15.179-2.548
	c3.576,1.96,6.866,4.166,10.62,5.576l-0.075,1.874C302.349,361.044,299.994,360.093,297.714,358.693z M302.911,393.166
	c0.034-0.377-0.064-0.72-0.364-0.981c-0.415-2.714-1.6-5.106-3.122-7.36l3.98,3.328c0.43,1.02,0.773,2.073,0.999,3.168
	C303.88,391.882,303.384,392.501,302.911,393.166z M295.376,377.529L307.421,370l0.223-5.562l5.08,6.435l0.618-6.183l2.751,4.676
	l1.634-4.083l2.768,3.194c4.044,13.277,2.458,17.252,1.838,18.191l-1.256-0.072c0.061-4.045,0.631-8.175-0.746-12.069
	c-0.427-1.207-2.36-0.688-1.929,0.532c1.3,3.677,0.747,7.6,0.678,11.422l-6.806-0.392c0.138-4.443,0.643-8.945-1.926-12.859
	c-0.704-1.073-2.437-0.072-1.727,1.009c2.329,3.548,1.814,7.702,1.661,11.735l-5.157-0.297L295.376,377.529z M310.481,363.165
	l-0.004,0.023l-1.718-2.176c0.668,0.13,1.34,0.25,2.018,0.357l-0.296,1.789c-0.005-0.001-0.01-0.002-0.015-0.003L310.481,363.165z
	 M307.56,388.824c-0.42,0.228-0.822,0.49-1.213,0.773c-0.19-0.289-0.381-0.58-0.573-0.876L307.56,388.824z M333.789,438.515
	c-0.119,1.273-2.12,1.284-2,0c0.501-5.36-1.511-10.346-4.999-14.289c-2.234-2.525-4.426-4.672-4.205-8.248
	c0.204-3.285,1.191-7.049-0.136-10.385c-2.623-6.596-15.918-5.196-14.696,3.156c0.184,1.261-1.743,1.804-1.929,0.532
	c-0.713-4.874,1.678-9.218,7.022-9.603c3.873-0.279,10.355,0.874,11.532,5.384c0.673,2.581,0.586,5.316,0.911,7.953
	c0.233,1.897-1.409,3.055-0.536,5.234c0.707,1.764,2.218,3.158,3.451,4.563C332.023,427.164,334.343,432.587,333.789,438.515z
	 M323.238,389.699l0.285-0.132c0.303-0.14,0.736-0.422,1.165-0.976c0.47,0.641,0.925,1.28,1.365,1.917
	C325.112,390.216,324.167,389.948,323.238,389.699z M350.149,391.607c-3.235,3.578-7.755,5.064-12.409,6.199
	c-0.122-0.195-0.24-0.39-0.372-0.582c-0.81-1.181-1.91-2.193-3.192-3.074c-1.733-4.86-4.387-8.862-8.013-12.075
	c-0.015-0.82-0.072-1.726-0.183-2.73c5.252,4.094,8.756,9.39,10.748,16.14c0.076,0.258,0.037,0.475-0.051,0.662
	c2.265-0.506,4.522-1.092,6.549-1.962c-0.098-0.139-0.174-0.298-0.191-0.502c-0.946-11.196-9.129-25.275-20.555-28.225
	c-0.266-0.069-0.532-0.124-0.798-0.188l-2.273-2.623c2.202,0.411,4.361,0.963,6.411,1.841c10.609,4.544,18.085,17.565,19.172,28.828
	c1.171-0.662,2.23-1.451,3.113-2.427c0.34-0.376,0.647-0.769,0.949-1.164c-0.092-0.143-0.159-0.308-0.159-0.522
	c0.008-11.247-9.119-27.71-20.421-31.078c-9.63-2.87-21.824-0.222-30.29-6.453c-4.896-3.603-7.983-7.636-14.732-6.918
	c-5.443,0.58-13.616,3.069-12.999,10.046c0.647,7.316,5.123,12.094,9.421,17.612c0.19,0.244,0.366,0.492,0.55,0.738l-3.299-0.359
	c-1.573-2.049-3.126-4.13-4.554-6.352c-2.589-4.027-5.638-10.563-3.596-15.414c3.724-8.851,17.978-10.705,25.202-5.501
	c3.311,2.385,5.556,5.648,9.697,6.826c3.59,1.021,7.244,1.475,10.958,1.76c6.03,0.463,12.866,0.619,18.213,3.82
	c9.14,5.471,16.802,18.097,17.748,29.031c3.73-7.262,2.36-16.464-2.957-22.786c-5.921-7.041-14.402-12.455-23.366-14.676
	c-5.76-1.427-11.68-2.172-17.413-3.703c-5.069-1.354-9.811-3.686-14.901-4.948c-9.522-2.361-27.038-2.249-27.249,11.376
	c-0.11,7.137,3.095,14.44,7.522,20.056l-2.678-0.291c-0.583-0.855-1.143-1.723-1.659-2.615c-3.658-6.31-7.281-15.201-4.073-22.429
	c4.128-9.302,16.468-10.635,25.324-8.789c7.446,1.551,14.26,4.978,21.718,6.512c6.145,1.264,12.585,2.015,18.449,4.349
	c8.809,3.506,18.281,9.47,22.756,18.181C356.107,374.678,356.091,385.034,350.149,391.607z"/>
<g>
	<path fill="#231F20" d="M316.009,396.862c-2.105-2.622-4.103-5.284-4.946-8.477l-3.105-0.282l-0.051-0.015
		c0.144,0.23,0.287,0.456,0.43,0.684c-0.086-0.104-0.204-0.183-0.351-0.199c-0.44-0.049-0.865-0.001-1.278,0.095
		c-0.94-0.024-1.955-0.252-2.855-0.629c-0.395-1.125-0.866-2.154-1.047-2.66c-0.216-0.603-1.107-0.369-0.964,0.266
		c0.097,0.43,0.172,0.855,0.229,1.277c-0.996-0.929-1.67-2.079-2.939-2.717c-0.574-0.289-1.081,0.573-0.505,0.863
		c0.833,0.42,1.44,1.114,2.05,1.803c-0.122,0.12-0.189,0.289-0.119,0.467c0.461,1.179,0.724,2.606,1.549,3.588
		c-0.079,0.992-0.052,1.918,0.37,2.837c0.132,0.287,0.584,0.326,0.785,0.101c1.253-1.395,1.628-3.696,3.483-4.207
		c0.463,0.016,0.924-0.012,1.375-0.101c0.357-0.071,0.421-0.386,0.307-0.641c1.917,3.044,3.666,5.787,3.834,6.916
		c0.015,0.101-0.004,0.189-0.014,0.28C313.498,396.395,314.753,396.644,316.009,396.862z M304.909,389.602
		c-0.172,0.155-0.342,0.317-0.507,0.483c-0.045-0.29-0.113-0.592-0.194-0.896c0.304,0.095,0.614,0.175,0.926,0.246
		C305.061,389.493,304.98,389.538,304.909,389.602z"/>
	<path fill="#231F20" d="M322.247,388.999l-0.261,0.379l-2.812-0.256c2.306,2.65,4.106,6.015,5.462,8.683
		c1.263,0.054,2.522,0.072,3.772,0.047C326.534,394.799,324.498,391.806,322.247,388.999z"/>
</g>
</svg>
