<?xml version="1.0" encoding="utf-8"?>
<!-- Generator: Adobe Illustrator 17.0.2, SVG Export Plug-In . SVG Version: 6.00 Build 0)  -->
<!DOCTYPE svg PUBLIC "-//W3C//DTD SVG 1.1//EN" "http://www.w3.org/Graphics/SVG/1.1/DTD/svg11.dtd">
<svg version="1.1" id="Layer_1" xmlns="http://www.w3.org/2000/svg" xmlns:xlink="http://www.w3.org/1999/xlink" x="0px" y="0px"
	 width="252px" height="252px" viewBox="180 270 252 252" enable-background="new 180 270 252 252" xml:space="preserve">
<path fill="#5F8893" d="M297.804,370.825c-2.874,0-5.699,0.127-8.477,0.348l10.41,2.499l-0.715,36.061l-0.435-0.138l-0.694,4.624
	l-26.667,9.667l-38.723-6.112c4.639,19.824,32.102,35.052,65.3,35.052c36.451,0,66-18.356,66-41S334.255,370.825,297.804,370.825z
	 M340.144,412.06h-14.138v-30.011h14.138V412.06z"/>
<path fill="#231F20" d="M498.816,422.15"/>
<path fill="#5F8893" d="M402.372,381.08c-1.669-2.231-3.803-3.803-6.402-4.713c2.902-2.34,4.354-5.188,4.354-8.547
	c0-3.357-1.104-6.143-3.314-8.353c-2.011-2.011-4.403-3.097-7.168-3.278v-9.263c0-0.875-0.709-1.584-1.584-1.584
	s-1.584,0.709-1.584,1.584v9.225h-7.799c-0.434,0-0.803,0.152-1.105,0.455c-0.304,0.304-0.455,0.672-0.455,1.105v42.38
	c0,0.434,0.141,0.802,0.423,1.105c0.281,0.304,0.639,0.455,1.072,0.455h7.864v7.576c0,0.875,0.709,1.584,1.584,1.584
	s1.584-0.709,1.584-1.584v-7.576h2.033c3.596,0,6.662-1.268,9.197-3.803s3.803-5.6,3.803-9.197
	C404.875,385.836,404.04,383.312,402.372,381.08z M394.768,361.742c1.581,1.604,2.372,3.521,2.372,5.752
	c0,2.232-0.791,4.139-2.372,5.72c-1.386,1.385-3.027,2.163-4.926,2.336v-16.175C391.74,359.55,393.382,360.339,394.768,361.742z
	 M380.5,359.337h6.174v16.25H380.5V359.337z M380.5,398.467v-19.63h6.174v19.63H380.5z M398.765,395.607
	c-1.907,1.907-4.204,2.86-6.89,2.86h-2.033v-19.63h2.033c2.686,0,4.982,0.965,6.89,2.893c1.906,1.929,2.882,4.236,2.925,6.922
	C401.646,391.382,400.671,393.701,398.765,395.607z"/>
<path fill="#BABBBD" d="M242.894,420.219"/>
<g>
	<path fill="#231F20" d="M341.644,380.548h-17.137v33.011h1.218c-0.708,1.012-1.445,2.016-2.194,3.026
		c-3.176,4.286-7.021,9.105-12.208,10.927c-7.512,2.638-15.617-3.624-22.46-8.272l11.352-4.916l1.081-42.961l-0.277,0.12l0.04-0.263
		l-24.129-3.646c1.107-2.795,0.785-5.397-3.131-6.698c-0.897-0.298-1.719-0.439-2.497-0.48c-0.665-1.808-1.961-3.144-4.276-3.423
		c-2.283-0.276-3.871,1.425-4.945,3.73c-0.614-1.962-1.74-3.492-3.988-4.014c-2.164-0.502-3.661-0.066-4.698,0.915
		c-1.211-0.799-2.683-1.224-4.429-1.083c-3.45,0.278-4.912,3.811-5.492,7.345l-1.813,0.785c-1.151-1.336-2.618-2.262-4.659-2.535
		c-2.532-0.339-3.943,1.168-4.682,3.295c-0.673-0.461-1.408-0.82-2.182-1.028c-2.191-0.59-4.187,1.166-4.499,3.288
		c-0.18,1.22,0.217,2.411,0.952,3.507l-7.618,3.299l0.041,0.095l-0.619-0.093v43.034l54.964,8.244l0.073,0.169l0.271-0.117
		l1.026,0.154v-0.598l10.97-4.751c0.222,0.128,0.443,0.253,0.668,0.39c7.62,4.617,17.622,13.308,27.253,8.853
		c4.777-2.21,8.314-6.315,11.474-10.417c1.491-1.935,2.962-3.869,4.275-5.877h12.277v-33.015H341.644z M266.113,359.13
		c1.558-0.886,2.476,0.075,3.005,1.434c-2.082,0.453-3.895,1.636-5.939,2.74C263.794,361.505,264.726,359.919,266.113,359.13z
		 M268.558,362.543c0.317-0.127,0.662-0.208,1.018-0.267c0.138,0.788,0.192,1.527,0.194,1.983c0.003,0.734-0.045,1.474-0.115,2.215
		l-6.483-0.98C264.965,364.511,266.639,363.316,268.558,362.543z M269.206,369.441c-0.088,0.42-0.178,0.84-0.283,1.253l-4.748,2.056
		c-0.35-0.634-0.589-1.382-0.765-2.197l3.453-1.466L269.206,369.441z M262.304,373.56l-12.868,5.573l-4.612-0.692l16.608-7.049
		C261.625,372.138,261.9,372.864,262.304,373.56z M255.345,370.716l-0.965,0.409c0.255-0.804,0.672-1.445,1.201-1.97
		c-0.067,0.353-0.148,0.7-0.241,1.039C255.286,370.39,255.302,370.56,255.345,370.716z M257.455,369.821
		c0.125-0.663,0.217-1.349,0.237-2.067c0.031-0.014,0.064-0.025,0.095-0.039l2.441,0.369c-0.02,0.197-0.042,0.4-0.056,0.584
		L257.455,369.821z M256.072,358.522c2.397-0.787,3.812,2.148,4.294,3.851c0.193,0.684,0.308,1.383,0.389,2.088
		c-0.141,0.057-0.277,0.117-0.421,0.171c-0.276,0.103-0.552,0.206-0.828,0.308l-2.053-0.31c-0.374-2.079-1.182-4.086-2.451-5.587
		C255.315,358.833,255.667,358.655,256.072,358.522z M253.192,362.247c0.076-0.565,0.224-1.083,0.437-1.554
		c0.354,0.391,0.655,0.787,0.879,1.145c0.48,0.768,0.806,1.616,1.012,2.501l-2.462-0.372
		C253.078,363.393,253.115,362.82,253.192,362.247z M252.456,371.943l-7.038,2.987c0.067-0.611,0.041-1.235-0.044-1.86l7.298-3.161
		c-0.156,0.384-0.285,0.794-0.375,1.247C252.235,371.468,252.308,371.736,252.456,371.943z M248.029,358.915
		c1.305-0.933,2.85-0.447,4.15,0.476c-0.552,1.246-0.821,2.764-0.951,4.298l-4.284-0.647l-1.348,0.081
		C246.001,361.403,246.731,359.842,248.029,358.915z M245.13,369.179c-0.021-0.822-0.026-1.778,0.027-2.776l0.669-0.29l0.98-0.058
		l4.307,0.651c0,0.204-0.001,0.41,0.001,0.607l-6.518,2.823c-0.01-0.026-0.018-0.053-0.028-0.078
		C244.892,369.926,245.142,369.638,245.13,369.179z M243.524,373.871c0.029,0.613-0.04,1.192-0.257,1.692
		c-0.046,0.106-0.055,0.207-0.067,0.309l-4.051,1.719l-3.131-0.47L243.524,373.871z M236.584,364.099
		c1.344-0.094,2.367,0.502,3.186,1.369l-5.183,2.245c-0.215-0.315-0.444-0.622-0.701-0.912
		C234.298,365.321,235.106,364.201,236.584,364.099z M241.473,367.999c0.063,0.118,0.125,0.235,0.185,0.351
		c0.354,0.678,0.798,1.582,1.165,2.555l-8.271,3.582c-0.224-0.074-0.447-0.141-0.673-0.232c0.001-0.072,0.017-0.138,0.003-0.216
		c-0.12-0.64-0.25-1.573-0.318-2.615L241.473,367.999z M229.605,366.309c0.795,0.136,1.558,0.611,2.208,1.21
		c-0.073,0.481-0.125,0.972-0.158,1.462l-3.057,1.324c-0.214-0.275-0.422-0.553-0.595-0.838
		C227.232,368.196,227.795,365.999,229.605,366.309z M231.749,373.14c-0.279-0.179-0.545-0.379-0.811-0.578l0.738-0.32
		C231.697,372.549,231.718,372.859,231.749,373.14z M228.771,373.5c1.011,0.83,2.146,1.544,3.236,2.089l-1.478,0.64l0.032,0.073
		l-6.135-0.92L228.771,373.5z M271.727,422.477l-50.333-7.55V377.96l37.932,5.69c0.476,3.223,0.502,6.596,0.484,9.911l-34.351-5.734
		l-0.465,2.782l34.805,5.81c-0.001,0.945,0.003,1.882,0.026,2.801c0.017,0.67-0.023,1.381-0.088,2.113l-33.945-5.667l-0.465,2.782
		l34.076,5.688c-0.231,1.708-0.463,3.459-0.462,5.128l-33.464-5.586l-0.465,2.782l34.251,5.718c0.166,0.661,0.398,1.295,0.732,1.883
		c1.689,2.97,6.797,2.892,9.648,2.858c0.718-0.009,1.41-0.006,2.085,0.008v5.55H271.727z M271.727,413.81
		c-4.764,0.302-10.554,0.622-9.356-6.177c0.805-4.569,0.455-9.259,0.274-13.873c-0.127-3.248-0.018-6.472-0.319-9.659l9.401,1.41
		V413.81z M271.726,366.787c0.178-1.508,0.23-3.058,0.038-4.472c1.368,0.252,2.674,0.902,3.438,1.922
		c0.644,0.859,0.365,2.007-0.129,3.056L271.726,366.787z M274.628,382.912l-1.135-0.17l0.252-10.019
		c0.589-0.748,1.166-1.538,1.688-2.341l20.852,3.151L274.628,382.912z M274.727,422.093v-5.004c2.606,0.24,4.99,0.765,7.454,1.776
		L274.727,422.093z M285.847,417.277c-0.652-0.398-1.291-0.767-1.909-1.088c-2.834-1.471-6.008-2.419-9.211-2.485v-27.566
		l23.451-10.156l-0.915,36.351L285.847,417.277z M327.506,410.56v-27.011h11.137v16.469c-0.903-1.972-2.89-3.347-5.196-3.347
		c-3.152,0-5.716,2.564-5.716,5.717c0,1.692,0.744,3.211,1.916,4.258c-0.546,1.362-1.214,2.657-1.963,3.914L327.506,410.56
		L327.506,410.56z M331.145,410.56c0.443-0.835,0.858-1.685,1.217-2.563c0.352,0.068,0.714,0.106,1.085,0.106
		c2.307,0,4.294-1.376,5.196-3.347v5.804H331.145z"/>
	
		<rect x="285.636" y="395.673" transform="matrix(0.3899 0.9208 -0.9208 0.3899 547.8694 -17.4925)" fill="#231F20" width="3" height="18.111"/>
	
		<rect x="285.293" y="388.924" transform="matrix(-0.3899 -0.9208 0.9208 -0.3899 32.1413 817.2525)" fill="#231F20" width="3" height="18.111"/>
	
		<rect x="285.245" y="381.852" transform="matrix(-0.3899 -0.9208 0.9208 -0.3899 38.5868 807.3787)" fill="#231F20" width="3" height="18.111"/>
	<rect x="329.219" y="387.505" fill="#231F20" width="3" height="5.208"/>
	<rect x="333.684" y="387.505" fill="#231F20" width="3" height="5.208"/>
</g>
</svg>
