<?xml version="1.0" encoding="utf-8"?>
<!-- Generator: Adobe Illustrator 17.0.2, SVG Export Plug-In . SVG Version: 6.00 Build 0)  -->
<!DOCTYPE svg PUBLIC "-//W3C//DTD SVG 1.1//EN" "http://www.w3.org/Graphics/SVG/1.1/DTD/svg11.dtd">
<svg version="1.1" id="Layer_1" xmlns="http://www.w3.org/2000/svg" xmlns:xlink="http://www.w3.org/1999/xlink" x="0px" y="0px"
	 width="252px" height="252px" viewBox="180 270 252 252" enable-background="new 180 270 252 252" xml:space="preserve">
<path fill="#5A835F" d="M331.125,371.554v8.071h-16.25V369.25h9.894c-9.013-2.869-19.218-4.497-30.042-4.497
	c-13.468,0-25.987,2.511-36.428,6.814l2.45,0.684l6.875,0.375l6,1.75l-6.25,13.5l-20.5-1l-5.219-5.494
	c-8.121,6.813-12.929,15.242-12.929,24.371c0,22.644,29.549,41,66,41s66-18.356,66-41
	C360.727,391.467,348.96,378.894,331.125,371.554z M298.5,411.625h-27.375V400.5H298.5V411.625z"/>
<path fill="#231F20" d="M514.816,502.15"/>
<path fill="#231F20" d="M345.008,370.48l-19.294-33.933c1.898-0.535,3.066-2.728,4.043-4.252c1.048-1.634-1.55-3.137-2.59-1.514
	c-0.483,0.753-1.589,2.829-2.388,2.928c-1.4,0.173-2.939-0.216-4.349-0.229c-0.024,0-0.043,0.005-0.066,0.006v-0.005l-16.123,0.712
	l-9.619-3.092v-12.995c1.843-0.264,3.125-1.843,3.618-4.3c0.379-1.889-2.512-2.694-2.893-0.798c-0.29,1.448-0.432,2.577-1.973,2.036
	c-1.323-0.464-2.509-1.347-3.806-1.894c-4.152-1.749-5.164,2.898-5.277,6.01h-0.012v0.433c0,0.003,0,0.006,0,0.009
	c0,0.001,0,0.002,0,0.003v14.241l-3.824,1.396l-15.515,0.685c-0.202-0.105-0.443-0.168-0.732-0.155
	c-1.82,0.079-3.359,0.666-4.945,1.529c-2.15,1.171-3.199,0.935-5.01-0.86c-1.375-1.363-3.497,0.758-2.121,2.121
	c1.205,1.194,2.461,2.127,3.956,2.443L236.78,376.69c-0.831,0.88-1.355,1.823-1.519,2.807l-0.053,0.098l0.032,0.017
	c-0.025,0.181-0.04,0.364-0.04,0.547c0,5.256,10.276,9.517,22.952,9.517c3.44,0,6.701-0.316,9.63-0.878l0.855,0.056l0.105-0.252
	c7.344-1.587,12.362-4.771,12.362-8.443c0-1.264-0.599-2.469-1.678-3.572l-20.349-35.786c1.475-0.525,2.717-1.557,4.273-1.909
	l0.005,0.111l19.501-0.862l1.423,0.528v55.884c-0.279,0.009-0.56,0.007-0.837,0.022c-6.48,0.349-11.232,2.292-15.408,6.299
	c-2.874,2.758-7.625,8.274-7.161,14.234c0.019,0.245,0.094,0.468,0.228,0.676c-0.009,0.39,0.146,0.754,0.447,1.042
	c5.445,5.205,13.319,7.735,24.071,7.735c0,0,0,0,0.001,0c3.032,0,6.339-0.201,10.11-0.614c5.788-0.635,12.856-3.028,15.335-7.839
	c1.392-2.701,1.136-5.788-0.759-9.176c-4.112-7.35-12.64-11.892-23.027-12.365v-54.786l5.614,2.083l8.339-4.535l19.217-0.849
	c0.773,0.009,1.59,0.118,2.408,0.193l-18.298,33.818c-1.733,1.339-2.719,2.869-2.719,4.495c0,5.256,10.276,9.517,22.952,9.517
	s22.952-4.261,22.952-9.517C347.742,373.356,346.751,371.821,345.008,370.48z M250.793,382.658l-5.934-3.662l10.939-6.685
	l1.562,0.411l-5.402,9.111L250.793,382.658z M260.41,373.461l2.815,0.17l-6.406,10.805l-2.806-0.185L260.41,373.461z
	 M266.211,374.477l5.02,0.303l-4.541,10.94l-6.875-0.453L266.211,374.477z M273.309,371.899l-3.763-0.227l0.269-0.649l-9.24-0.557
	l-5.251-1.382l-3.093,1.89c-3.937,0.434-7.465,1.283-10.268,2.44l15.703-29.023L273.309,371.899z M294.792,403.236h3
	c0,3.603-5.232,6.319-12.171,6.319c-6.938,0-12.171-2.717-12.171-6.319h3c0,1.321,3.658,3.319,9.171,3.319
	C291.134,406.556,294.792,404.558,294.792,403.236z M291.621,331.167l-4.343,1.586v-13.164c0.008-0.665,0.102-3.884,0.678-3.795
	c1.274,0.198,2.452,1.154,3.591,1.707c0.025,0.012,0.049,0.02,0.075,0.032v13.634H291.621z M321.654,378.075
	c0,0-5.277-0.754-4.146-3.015l0.188-0.565c0,0,6.973-3.015,7.727-2.827c0.754,0.188,2.261,0.754,2.827,2.073
	C328.816,375.06,321.654,378.075,321.654,378.075z M324.79,365.47c-5.948,0-11.368,0.938-15.445,2.477l15.004-27.731l15.738,27.677
	C336.027,366.387,330.667,365.47,324.79,365.47z"/>
<g>
	<path fill="#5A835F" d="M379.49,327.022c0-0.433,0.151-0.801,0.455-1.105c0.303-0.302,0.672-0.455,1.105-0.455
		s0.801,0.152,1.104,0.455c0.303,0.304,0.455,0.672,0.455,1.105v2.6c4.073,0.348,7.931,1.864,11.57,4.55
		c0.606,0.477,0.91,0.954,0.91,1.43c0,0.478-0.163,0.877-0.487,1.203c-0.325,0.325-0.716,0.487-1.171,0.487
		c-0.454,0-0.855-0.151-1.202-0.455c-3.033-2.427-6.283-3.835-9.75-4.225v18.2c4.94,1.04,8.515,2.525,10.725,4.453
		c2.211,1.929,3.315,4.55,3.315,7.865s-1.3,6.088-3.9,8.32s-5.937,3.413-10.01,3.542v5.07c0,0.433-0.152,0.801-0.455,1.105
		c-0.304,0.303-0.672,0.455-1.104,0.455c-0.434,0-0.803-0.152-1.105-0.455c-0.304-0.304-0.455-0.672-0.455-1.105v-5.135
		c-5.417-0.433-10.292-2.535-14.625-6.305c-0.477-0.39-0.715-0.823-0.715-1.3s0.163-0.877,0.487-1.203
		c0.325-0.325,0.716-0.487,1.17-0.487c0.455,0,0.834,0.152,1.138,0.455c3.727,3.467,7.951,5.438,12.675,5.915v-18.525
		c-4.854-1.083-8.363-2.578-10.529-4.485c-2.168-1.906-3.25-4.495-3.25-7.768c0-3.271,1.288-6.022,3.867-8.255
		c2.578-2.231,5.839-3.39,9.782-3.478L379.49,327.022L379.49,327.022z M372.048,334.953c-1.929,1.647-2.893,3.651-2.893,6.013
		s0.736,4.247,2.21,5.655c1.473,1.409,4.226,2.59,8.255,3.542v-17.745C376.501,332.461,373.976,333.306,372.048,334.953z
		 M390.248,369.5c1.972-1.667,2.957-3.715,2.957-6.142s-0.77-4.344-2.307-5.753c-1.539-1.407-4.346-2.567-8.418-3.478v17.94
		C385.687,372.025,388.275,371.169,390.248,369.5z"/>
</g>
</svg>
