<?xml version="1.0" encoding="utf-8"?>
<!-- Generator: Adobe Illustrator 17.0.2, SVG Export Plug-In . SVG Version: 6.00 Build 0)  -->
<!DOCTYPE svg PUBLIC "-//W3C//DTD SVG 1.1//EN" "http://www.w3.org/Graphics/SVG/1.1/DTD/svg11.dtd">
<svg version="1.1" id="Layer_1" xmlns="http://www.w3.org/2000/svg" xmlns:xlink="http://www.w3.org/1999/xlink" x="0px" y="0px"
	 width="612px" height="792px" viewBox="0 0 612 792" enable-background="new 0 0 612 792" xml:space="preserve">
<path fill="#A29352" d="M274.576,421.466c-4.593,0-9.075,0.293-13.403,0.847l2.505,1.82l3.256,5.719l4.839,7.215l4.399,9.855
	l2.464,10.383l0.704,7.743l-0.616,12.231l-1.056,4.927l-30.708,7.567l-7.655-7.127l-8.183-11.527l-4.839-13.55l-1.232-9.239
	l0.264-12.494l0.208-0.795c-10.532,7.265-16.947,16.879-16.947,27.425c0,22.644,29.549,41,66,41s66-18.356,66-41
	C340.576,439.822,311.027,421.466,274.576,421.466z"/>
<g>
	<path fill="#A29352" d="M385.373,447.642l-0.585,0.065c-0.737,0-1.234-0.346-1.495-1.04l-4.029-10.725h-20.735l-4.03,10.725
		c-0.26,0.694-0.759,1.04-1.495,1.04l-0.585-0.065c-0.39-0.173-0.682-0.465-0.877-0.877c-0.195-0.412-0.206-0.812-0.032-1.203
		l15.795-42.185c0.303-0.65,0.845-0.975,1.625-0.975c0.779,0,1.277,0.325,1.495,0.975l15.795,42.185c0.172,0.39,0.172,0.791,0,1.203
		C386.045,447.177,385.764,447.469,385.373,447.642z M368.929,408.317l-9.23,24.44h18.396L368.929,408.317z"/>
	<path fill="#A29352" d="M391.743,434.707v-17.355c0-0.433,0.151-0.801,0.455-1.105c0.303-0.303,0.672-0.455,1.105-0.455
		c0.433,0,0.801,0.152,1.104,0.455c0.303,0.304,0.455,0.672,0.455,1.105v17.355c0,2.73,0.953,5.049,2.86,6.955
		c1.906,1.907,4.203,2.882,6.89,2.925c2.73-0.042,5.06-1.018,6.988-2.925c1.927-1.906,2.892-4.225,2.892-6.955v-17.355
		c0-0.433,0.163-0.801,0.488-1.105c0.324-0.303,0.703-0.455,1.137-0.455s0.802,0.152,1.105,0.455
		c0.303,0.304,0.455,0.672,0.455,1.105v17.355c0,3.597-1.268,6.663-3.803,9.197c-2.535,2.535-5.601,3.803-9.197,3.803
		c-3.598,0-6.652-1.268-9.165-3.803C393,441.37,391.743,438.304,391.743,434.707z"/>
</g>
<g>
	<path fill="#231F20" d="M246.445,465.657c0.626-2.144,1.335-4.134,2.77-5.884c0.657-0.802,0.543-2.257-0.662-2.507
		c-2.935-0.609-6.131-1.378-7.369-4.446c-0.442-1.096-2.084-1.635-2.742-0.358c-1.601,3.109-2.617,6.577-4.909,9.281
		c-0.72,0.85-0.486,2.174,0.662,2.507c0.824,0.24,1.679,0.442,2.546,0.597c0.24,0.236,0.572,0.393,1.008,0.392
		c2.435-0.004,4.578,0.672,6.849,1.466C245.381,466.977,246.228,466.401,246.445,465.657z"/>
	<path fill="#231F20" d="M246.841,451.708c0.942-0.191,1.827-0.821,2.122-1.759c0.456-1.453-0.912-2.386-2.045-2.852
		c-0.241-0.099-0.495-0.094-0.736-0.028c-0.026-0.017-0.048-0.039-0.074-0.055c-0.719-0.421-1.623-0.156-2.052,0.538
		c-0.696,1.124-0.957,2.451-0.034,3.523C244.699,451.863,245.907,451.897,246.841,451.708z"/>
	<path fill="#231F20" d="M235.289,452.831c0.158-0.857-0.069-1.661-0.703-2.281c-0.683-0.668-1.579-0.786-2.48-0.654
		c-0.712,0.104-1.362,0.65-1.728,1.242c-0.494,0.799-0.358,1.835,0.116,2.603c0.126,0.204,0.296,0.365,0.487,0.489
		c0.372,0.514,1.015,0.813,1.641,0.791C233.816,454.978,235.066,454.036,235.289,452.831z"/>
	<path fill="#231F20" d="M240.206,468.317c-0.248-0.001-0.463,0.048-0.648,0.133c-0.388,0.002-0.781,0.157-1.114,0.423
		c-0.773,0.617-1.232,1.767-0.847,2.725c0.353,0.877,1.102,1.648,2.076,1.801c1.304,0.204,2.31-0.399,2.786-1.625
		c0.226-0.58,0.148-1.282,0.053-1.879C242.334,468.777,241.223,468.322,240.206,468.317z"/>
	<path fill="#231F20" d="M253.558,469.402c0.873-0.383,1.363-1.285,1.465-2.187c0.132-1.169-0.948-1.998-1.935-2.319
		c-0.185-0.347-0.501-0.622-0.911-0.735c-0.776-0.213-1.644,0.255-1.845,1.048c-0.268,1.054-0.542,2.559,0.191,3.51
		C251.312,469.743,252.411,469.906,253.558,469.402z"/>
	<path fill="#231F20" d="M248.398,469.41c-1.059-1.608-3.658-0.106-2.59,1.514c1.118,1.698,2.104,3.479,3.273,5.143
		c1.103,1.57,3.706,0.073,2.59-1.514C250.502,472.889,249.516,471.108,248.398,469.41z"/>
	<path fill="#231F20" d="M256.578,478.905c-0.107-0.34-0.321-0.64-0.653-0.798c-1.261-0.6-2.469-0.458-3.342,0.678
		c-0.606,0.789-0.461,1.938-0.095,2.778c0.518,1.191,1.961,1.344,2.996,0.837c0.608-0.299,1.054-0.896,1.447-1.423
		c0.346-0.463,0.242-1.343-0.092-1.785C256.754,479.08,256.667,478.989,256.578,478.905z"/>
	<path fill="#231F20" d="M239.018,440.477c0.238-1.917-2.765-1.894-3,0c-0.343,2.765,0.164,5.345,1.257,7.887
		c0.762,1.773,3.346,0.243,2.59-1.514C238.982,444.798,238.744,442.683,239.018,440.477z"/>
	<path fill="#231F20" d="M236.334,436.444c0.881,0.318,1.846-0.288,2.458-0.863c0.681-0.64,1.119-1.51,0.945-2.453
		c-0.259-1.405-1.878-1.498-2.969-1.228c-0.336,0.083-0.607,0.292-0.799,0.559c-0.399,0.177-0.727,0.512-0.833,0.957
		C234.842,434.647,234.987,435.958,236.334,436.444z"/>
	<path fill="#231F20" d="M267.525,426.91c-3.485-4.782-8.206-9.73-10.482-9.937c-0.079-0.007-0.165-0.011-0.257-0.011
		c-0.312,0-0.757,0.074-1.292,0.2c0.002-0.008,0.003-0.013,0.005-0.021l-3.34,1.028c-0.002,0.008-0.004,0.016-0.006,0.024
		c-7.972,2.817-22.67,9.629-26.189,11.274l-0.637,0.297l-0.179,0.679c-0.1,0.377-9.619,38.027,20.864,60.44l0.573,0.421
		l26.542-6.825l5.959-1.65l0.173-0.771C285.301,455.098,273.066,434.51,267.525,426.91z M247.224,488.042
		c-25.98-19.616-20.403-51.187-19.327-56.167c7.555-3.518,17.478-7.911,23.581-10.256c-0.856,4.969-1.57,12.132-0.772,20.24
		c1.163,11.798,5.871,27.466,20.813,39.937L247.224,488.042z M276.529,480.507l-1.373,0.353
		c-12.596-9.703-19.816-22.841-21.453-39.189c-0.875-8.74,0.124-16.46,1.061-21.234c0.912-0.292,1.588-0.462,1.959-0.477
		C260.494,421.297,283.779,445.952,276.529,480.507z"/>
</g>
<path fill="#231F20" d="M285.603,414.598c-0.173-0.361-0.365-0.691-0.564-1.018c0.092-0.272,0.146-0.574,0.131-0.921
	c-0.074-1.728-0.126-2.285-0.678-3.901c-0.555-1.626-2.156-2.198-3.673-1.494c-2.723,1.264-3.239,3.552-1.953,6.141
	c0.836,1.682,3.425,3.188,0.269,3.832c-1.66,0.339-2.992,0.975-4.041,2.319c-0.876,1.123-1.504,3.005-1.029,4.431
	c0.815,2.444,1.613,2.289-1.203,1.306c-2.376-0.829-5.796-0.196-7.186,2.093l7.238,11.44l1.207,3.622
	c3.063-4.796-1.396-8.395-4.025-12.318c0.024,0.036,4.578,1.042,5.073,0.992c1.312-0.134,2.827-0.42,3.766-1.471
	c0.869-0.971,1.435-1.775,1.435-3.137c0-0.717-1.775-3.895-0.774-4.259c2.531-0.921,5.492-1.052,6.365-4.225
	C286.276,416.899,286.106,415.644,285.603,414.598z"/>
<path fill="#231F20" d="M295.399,441.733c-3.389-1.161-7.01-3.27-6.103-7.426c0.693-3.177,3.575-6.363,5.302-9.062
	c2.846-4.446,3.483-9.417,1.26-14.304c-3.142-6.907-16.044-16.407-23.938-11.575c-1.648,1.009-2.824,2.432-4.34,3.592
	c-1.843,1.411-5.027-0.316-7.106-0.572c-4.148-0.511-6.454,6.432-8.775,8.652c-2.779,2.659-19.924,7.422-10.677,13.437l3.754-1.479
	c0.212-1.126,0.313-1.991,0.357-3.07c0.709-0.446,1.462-0.832,2.203-1.21c1.634-0.833,3.36-1.472,5.025-2.237
	c3.459-1.588,5.425-4.864,7.383-7.954c1.324-2.089,5.977,0.418,8.952-0.55c2.288-0.745,3.523-2.288,5.02-3.347
	c-1.275,1.793-2.568,3.345-4.84,4.485c-1.967,0.988-4.585,0.979-4.918,3.637c-0.146,1.167,0.411,2.488,1.217,3.584
	c-0.015-0.008-0.03-0.016-0.045-0.024c-3.409-1.692-8.479-1.082-9.917,2.882l1.87-0.06l5.202,4.889
	c-0.375-1.362-1.124-2.099-2.445-2.905c0.015-0.046,0.028-0.096,0.047-0.138c0.58-1.297,2.554-0.433,3.398-0.014
	c2.29,1.137,5.236,3.135,7.94,2.505c2.276-0.53,3.315-2.369,3.366-4.611c0.055-2.417-3.545-3.465-5.017-4.83
	c1.48-0.545,3.098-0.922,4.397-1.788c2.763-1.84,4.214-5.459,6.151-8.03c0.021-0.028,0.031-0.056,0.051-0.084
	c4.097,1.266,8.701,4.059,10.638,7.734c3.194,6.058-0.199,10.277-3.399,15.268c-2.335,3.641-4.129,7.433-2.781,11.754
	c1.287,4.125,5.674,6.381,9.439,7.671C297.129,447.603,298.431,442.772,295.399,441.733z"/>
<path fill="#231F20" d="M318.939,428.786c-2.946-1.041-5.986-1.78-8.797-3.17c-3.706-1.833-4.884-5.824-5.742-9.551
	c-1.169-5.074-1.077-11.794-4.808-15.896c-3.828-4.208-10.752-5.085-15.727-7.3c-6.697-2.981-13.35-8.339-20.822-9.094
	c-15.379-1.553-21.042,14.781-27.013,25.866c-2.777,5.156-8.163,10.485-6.47,16.762c0.21,0.777,0.56,1.492,1,2.162l5.089-2.006
	c-1.008-1.028-1.678-2.335-1.345-3.894c0.336-1.572,1.706-3.284,2.562-4.624c3.376-5.289,6.086-10.94,9.057-16.457
	c3.224-5.988,6.911-12.416,14.395-12.968c3.249-0.24,6.544,0.929,9.733,2.512c-0.503,0.564-0.926,1.176-1.331,1.863
	c-0.747,1.266-1.628,5.043-2.014,2.108c-0.275-2.097-2.159-3.998-3.977-4.938c-2.273-1.176-5.563,0.081-7.29,1.712
	c-1.443,1.364-1.762,2.751-1.797,4.364c-1.716,0.264-3.29,0.902-4.174,2.618c-0.479,0.931-0.51,2.003-0.498,3.031
	c-0.521-0.107-1.101-0.021-1.694,0.375c-3.369,2.25-2.376,7.339,1.572,8.425c1.958,0.539,3.629-0.563,4.499-2.255
	c0.692-1.347,0.62-3.011,0.67-4.478c0.078-2.27-0.529-2.835,2.172-2.919c1.327-0.041,2.545-1.106,2.5-2.5
	c-0.056-1.712-0.633-2.828,1.569-3.732c0.948-0.389,1.534,1.104,1.496,1.676c-0.109,1.618,0.496,3.458,2.249,3.947
	c6.4,1.783,6.694-3.473,10.432-6.597c0.077-0.064,0.131-0.134,0.197-0.201c1.764,1.017,3.471,2.014,5.086,2.799
	c4.832,2.348,10.313,3.464,14.978,6.051c3.79,2.101,3.924,9.705,4.582,13.392c0.816,4.579,2.278,9.084,5.776,12.31
	c3.357,3.095,8.396,3.957,12.557,5.427C320.658,434.685,321.957,429.853,318.939,428.786z"/>
</svg>
