<?xml version="1.0" encoding="utf-8"?>
<!-- Generator: Adobe Illustrator 17.0.2, SVG Export Plug-In . SVG Version: 6.00 Build 0)  -->
<!DOCTYPE svg PUBLIC "-//W3C//DTD SVG 1.1//EN" "http://www.w3.org/Graphics/SVG/1.1/DTD/svg11.dtd">
<svg version="1.1" id="Layer_1" xmlns="http://www.w3.org/2000/svg" xmlns:xlink="http://www.w3.org/1999/xlink" x="0px" y="0px"
	 width="252px" height="252px" viewBox="180 270 252 252" enable-background="new 180 270 252 252" xml:space="preserve">
<path fill="#5F8893" d="M301.76,379.924c-3.532,0-6.997,0.177-10.38,0.509l-2.047,23.401l-1,6.667l-26.667,9.667l-25.515-3.685
	c-0.253,1.46-0.392,2.941-0.392,4.443c0,22.644,29.549,41,66,41s66-18.356,66-41S338.211,379.924,301.76,379.924z"/>
<g>
	
		<rect x="215.414" y="387.116" transform="matrix(-0.9863 -0.1647 0.1647 -0.9863 400.0926 810.2252)" fill="#231F20" width="36.442" height="2.821"/>
	
		<rect x="215.752" y="394.903" transform="matrix(0.9863 0.1647 -0.1647 0.9863 68.464 -33.1217)" fill="#231F20" width="36.442" height="2.821"/>
	
		<rect x="215.437" y="402.915" transform="matrix(0.9863 0.1647 -0.1647 0.9863 69.7792 -32.9603)" fill="#231F20" width="36.442" height="2.821"/>
	
		<rect x="276.077" y="391.954" transform="matrix(0.3899 0.9208 -0.9208 0.3899 538.6131 -10.9581)" fill="#231F20" width="3" height="18.111"/>
	
		<rect x="275.732" y="385.204" transform="matrix(-0.3899 -0.9208 0.9208 -0.3899 22.2773 803.2785)" fill="#231F20" width="3" height="18.111"/>
	
		<rect x="275.684" y="378.132" transform="matrix(-0.3899 -0.9208 0.9208 -0.3899 28.723 793.4051)" fill="#231F20" width="3" height="18.111"/>
	<path fill="#231F20" d="M361,401.5v-41h-39.994c0.514-1.519,0.819-3.159,1.016-4.723c0.229,0.006,0.468-0.054,0.685-0.236
		c2.734-2.304,0.75-6.415,0.257-9.306c-0.074-0.432-0.553-0.734-0.964-0.734h-0.933c0.163-0.176,0.268-0.406,0.266-0.667
		c-0.007-1.238-0.063-2.4-0.369-3.599c-0.083-0.323-0.368-0.625-0.698-0.698c-1.822-0.406-3.309-0.208-4.703,0.529
		c-0.23-0.039-0.466-0.064-0.702-0.091c-0.37-0.799-1.016-1.436-1.859-1.79c-1.551-0.651-3.013,0.698-3.866,1.812
		c-0.069,0.09-0.112,0.178-0.144,0.266c-0.004,0.001-0.008,0.001-0.012,0.002c-0.256-0.487-0.531-1.01-1.017-1.253
		c-0.767-0.383-1.809-0.181-2.63-0.178c-0.553,0.002-0.99,0.453-1,1c-0.006,0.348-0.029,0.689-0.049,1.031
		c-0.26-0.074-0.588-0.03-0.789,0.105c-0.442,0.297-0.875,0.6-1.303,0.909c-0.717,0.142-1.44,0.26-2.192,0.288
		c-0.576,0.021-0.958,0.441-1,1c-0.096,1.293,0.01,2.446,0.331,3.542c0.001,0.042,0.002,0.082,0.002,0.124
		c0,0.295,0.113,0.519,0.279,0.683c0.274,0.681,0.64,1.348,1.102,2.019c-0.142,1.827,0.195,3.794,1.089,5.803
		c0.014,0.032,0.038,0.049,0.054,0.078c0.224,1.454,0.621,2.845,1.191,4.083H281v5.414l-13.631-2.06
		c1.107-2.795,0.785-5.397-3.131-6.698c-0.897-0.298-1.719-0.439-2.497-0.48c-0.665-1.808-1.961-3.144-4.276-3.423
		c-2.283-0.276-3.871,1.425-4.945,3.73c-0.614-1.962-1.74-3.492-3.988-4.014c-2.164-0.502-3.661-0.066-4.698,0.915
		c-1.211-0.799-2.683-1.224-4.429-1.083c-3.45,0.278-4.912,3.811-5.492,7.345l-1.813,0.785c-1.151-1.336-2.618-2.262-4.659-2.535
		c-2.532-0.339-3.943,1.168-4.682,3.295c-0.673-0.461-1.408-0.82-2.182-1.028c-2.191-0.59-4.187,1.166-4.499,3.288
		c-0.179,1.219,0.226,2.407,0.959,3.504l-7.626,3.303l0.041,0.095l-0.619-0.093v43.034l54.964,8.244l0.073,0.169l0.271-0.117
		l1.026,0.154v-0.598l3.701-1.603c4.607,1.678,9.823,2.106,14.506,2.627c4.403,0.49,8.859,0.612,13.226-0.204
		c1.844-0.344,3.504-1.067,5.128-1.842c4.757,1.767,11.629,2.877,19.273,2.877c14.359,0,26-3.917,26-8.75
		c0-4.125-8.484-7.581-19.897-8.505V401.5H361z M256.552,355.411c1.558-0.886,2.476,0.075,3.005,1.433
		c-2.082,0.453-3.895,1.636-5.939,2.74C254.234,357.786,255.166,356.2,256.552,355.411z M258.998,358.824
		c0.317-0.127,0.662-0.208,1.018-0.267c0.138,0.788,0.192,1.527,0.194,1.983c0.003,0.734-0.045,1.474-0.115,2.215l-6.483-0.98
		C255.405,360.792,257.079,359.597,258.998,358.824z M259.646,365.721c-0.088,0.42-0.178,0.84-0.283,1.253l-4.748,2.056
		c-0.349-0.633-0.584-1.384-0.76-2.199l3.449-1.464L259.646,365.721z M252.744,369.841l-12.869,5.573l-4.612-0.692l16.609-7.049
		C252.064,368.419,252.34,369.145,252.744,369.841z M245.785,366.997l-0.965,0.41c0.255-0.804,0.672-1.446,1.201-1.97
		c-0.067,0.353-0.148,0.7-0.241,1.039C245.726,366.671,245.742,366.841,245.785,366.997z M247.894,366.102
		c0.125-0.663,0.217-1.349,0.237-2.067c0.031-0.014,0.065-0.025,0.096-0.039l2.438,0.368c-0.021,0.206-0.034,0.391-0.05,0.583
		L247.894,366.102z M246.511,354.803c2.397-0.787,3.812,2.148,4.294,3.851c0.193,0.684,0.308,1.383,0.389,2.088
		c-0.141,0.057-0.277,0.117-0.421,0.171c-0.275,0.103-0.551,0.206-0.827,0.308l-2.053-0.31c-0.374-2.079-1.182-4.085-2.451-5.586
		C245.755,355.114,246.106,354.936,246.511,354.803z M243.632,358.528c0.076-0.565,0.224-1.083,0.437-1.554
		c0.354,0.391,0.655,0.786,0.879,1.144c0.479,0.767,0.797,1.616,1.003,2.499l-2.459-0.372
		C243.513,359.673,243.555,359.1,243.632,358.528z M242.896,368.224l-7.038,2.987c0.067-0.611,0.041-1.235-0.044-1.861l7.298-3.16
		c-0.156,0.384-0.285,0.794-0.375,1.247C242.675,367.749,242.748,368.017,242.896,368.224z M238.469,355.196
		c1.305-0.933,2.85-0.447,4.15,0.476c-0.552,1.244-0.818,2.763-0.949,4.298l-4.286-0.648l-1.349,0.081
		C236.441,357.684,237.171,356.123,238.469,355.196z M235.57,365.46c-0.021-0.822-0.026-1.778,0.027-2.776l0.669-0.29l0.98-0.058
		l4.305,0.651c0,0.21,0.003,0.404,0.005,0.607l-6.519,2.823c-0.01-0.026-0.018-0.053-0.028-0.079
		C235.332,366.207,235.582,365.919,235.57,365.46z M233.964,370.151c0.029,0.613-0.04,1.192-0.257,1.692
		c-0.046,0.106-0.055,0.207-0.067,0.309l-4.051,1.719l-3.131-0.47L233.964,370.151z M227.024,360.38
		c1.344-0.094,2.367,0.502,3.186,1.369l-5.183,2.245c-0.215-0.315-0.444-0.622-0.701-0.912
		C224.738,361.602,225.545,360.483,227.024,360.38z M231.913,364.28c0.063,0.118,0.125,0.235,0.185,0.351
		c0.354,0.678,0.798,1.582,1.165,2.555l-8.272,3.582c-0.224-0.074-0.447-0.141-0.672-0.231c0.001-0.072,0.017-0.138,0.003-0.216
		c-0.12-0.64-0.25-1.573-0.318-2.615L231.913,364.28z M220.045,362.59c0.795,0.136,1.558,0.611,2.208,1.211
		c-0.073,0.481-0.125,0.972-0.158,1.462l-3.057,1.324c-0.214-0.275-0.422-0.553-0.595-0.838
		C217.672,364.477,218.235,362.28,220.045,362.59z M222.188,369.421c-0.279-0.179-0.545-0.379-0.811-0.578l0.738-0.32
		C222.137,368.83,222.158,369.14,222.188,369.421z M219.21,369.781c1.012,0.832,2.15,1.54,3.239,2.087l-1.481,0.641l0.032,0.074
		l-6.135-0.92L219.21,369.781z M262.167,418.758l-50.333-7.55v-36.966l42.443,6.367c-0.308,12.086-1.456,26.716,7.89,35.447V418.758
		z M262.167,413.407c-7.362-7.774-6.269-21.931-5.915-32.503l5.915,0.887V413.407z M262.166,363.068
		c0.178-1.508,0.23-3.058,0.038-4.472c1.368,0.252,2.674,0.902,3.438,1.922c0.644,0.859,0.365,2.007-0.129,3.055L262.166,363.068z
		 M265.067,379.193l-1.135-0.17l0.252-10.02c0.589-0.749,1.166-1.538,1.688-2.341l20.852,3.151L265.067,379.193z M265.167,418.374
		v-0.073c0.024,0.014,0.047,0.028,0.071,0.042L265.167,418.374z M267.679,417.286c-0.834-0.399-1.642-0.832-2.406-1.315
		c-0.037-0.023-0.07-0.049-0.106-0.073V382.42l23.452-10.157l-0.915,36.351L267.679,417.286z M314.103,406.314
		c-11.01,1.017-19.103,4.408-19.103,8.436c0,1.695,1.437,3.277,3.917,4.618c-2.98,1.086-5.905,1.686-9.448,1.688
		c-5.557,0.003-12.082-0.433-17.809-2.224l18.995-8.226l0.229-9.105h23.219V406.314z M320.27,353.294
		c-0.122,1.981-0.446,4.862-1.395,7.206h-5.472c-0.161-0.197-0.404-0.332-0.736-0.333c-0.467-0.001-0.92-0.005-1.367-0.057
		c0.691-2.05,1.313-4.073,1.367-6.277c0.031-1.282-1.937-1.284-1.995-0.023c-1.523-0.769-3.213-0.864-4.938-0.608
		c-1.272,0.189-0.729,2.116,0.532,1.928c0.047-0.007,0.092-0.01,0.138-0.016c0.02,0.074,0.026,0.147,0.066,0.223
		c0.389,0.74,0.973,1.36,1.86,1.374c0.687,0.011,1.287-0.455,1.781-0.919c0.101,0.06,0.202,0.117,0.301,0.184
		c-0.306,1.538-0.841,3.016-1.354,4.522h-3.807c-0.02-0.057-0.022-0.113-0.055-0.171c-0.766-1.373-1.27-2.99-1.518-4.67
		c0.11-2.375,0.636-4.511,1.566-6.57c2.685-0.946,5.4-1.104,7.381,1.452c0.43,0.554,1.236,0.259,1.571-0.202
		c1.153-1.59,2.462-2.822,4.456-3.117c0.142,0.143,0.331,0.238,0.558,0.265C320.031,349.213,320.396,351.248,320.27,353.294z"/>
	<path fill="#231F20" d="M318.266,353.536c-0.094-0.029-0.191-0.041-0.286-0.065c-0.3-0.273-0.73-0.378-1.094-0.201
		c-0.846-0.098-1.708-0.102-2.553-0.103c-1.29,0-1.29,2,0,2c0.029,0,0.059,0,0.088,0c0.017,0.057,0.024,0.115,0.048,0.171
		c0.119,0.271,0.042,0.572,0.171,0.897c0.244,0.615,0.714,0.885,1.359,0.932c0.465,0.033,0.82-0.335,0.964-0.734
		c0.138-0.381,0.397-0.687,0.66-0.993c0.036,0.01,0.074,0.014,0.11,0.025C318.971,355.842,319.496,353.911,318.266,353.536z"/>
</g>
<path fill="#BABBBD" d="M233.333,416.5"/>
<path fill="#5F8893" d="M402.177,381.749c-1.669-2.231-3.803-3.803-6.402-4.713c2.902-2.34,4.354-5.188,4.354-8.547
	c0-3.357-1.104-6.143-3.314-8.353c-2.011-2.011-4.403-3.097-7.168-3.278v-9.263c0-0.875-0.709-1.584-1.584-1.584
	s-1.584,0.709-1.584,1.584v9.225h-7.799c-0.434,0-0.803,0.152-1.105,0.455c-0.304,0.304-0.455,0.672-0.455,1.105v42.38
	c0,0.434,0.141,0.802,0.423,1.105c0.281,0.304,0.639,0.455,1.072,0.455h7.864v7.576c0,0.875,0.709,1.584,1.584,1.584
	s1.584-0.709,1.584-1.584v-7.576h2.033c3.596,0,6.662-1.268,9.197-3.803s3.803-5.6,3.803-9.197
	C404.68,386.505,403.845,383.981,402.177,381.749z M394.572,362.411c1.581,1.604,2.372,3.521,2.372,5.752
	c0,2.232-0.791,4.139-2.372,5.72c-1.386,1.385-3.027,2.163-4.926,2.336v-16.176C391.545,360.219,393.187,361.009,394.572,362.411z
	 M380.305,360.007h6.174v16.25h-6.174V360.007z M380.305,399.137v-19.63h6.174v19.63H380.305z M398.569,396.277
	c-1.907,1.907-4.204,2.86-6.89,2.86h-2.033v-19.63h2.033c2.686,0,4.982,0.965,6.89,2.893c1.906,1.929,2.882,4.236,2.925,6.922
	C401.451,392.052,400.476,394.37,398.569,396.277z"/>
</svg>
