<?xml version="1.0" encoding="utf-8"?>
<!-- Generator: Adobe Illustrator 17.0.2, SVG Export Plug-In . SVG Version: 6.00 Build 0)  -->
<!DOCTYPE svg PUBLIC "-//W3C//DTD SVG 1.1//EN" "http://www.w3.org/Graphics/SVG/1.1/DTD/svg11.dtd">
<svg version="1.1" id="Layer_1" xmlns="http://www.w3.org/2000/svg" xmlns:xlink="http://www.w3.org/1999/xlink" x="0px" y="0px"
	 width="612px" height="792px" viewBox="0 0 612 792" enable-background="new 0 0 612 792" xml:space="preserve">
<path fill="#5A835F" d="M361.978,306.03v15.92l-28.533,0.25l-0.501,7.258l-14.266-0.501l7.008,10.512l-75.782,0.484
	c3.874,20.35,31.722,36.137,65.522,36.137c36.451,0,66-18.356,66-41C381.427,323.732,373.989,313.455,361.978,306.03z"/>
<rect x="242.167" y="276.331" transform="matrix(0.9999 0.0169 -0.0169 0.9999 5.0446 -4.0816)" fill="#231F20" width="3" height="39.339"/>
<g>
	<path fill="#231F20" d="M369.426,287.5l-0.453-11.333h-42.845l-40.044-11.476v-10.493l8.4-2.419l-11.4-11.4v24.293L242.898,275.5
		l-40.045,0l0.222,12h4.597l-0.667,36h27.829v7.333h13.04l-8.631,11.012l90.011-0.357l-7.671-10.655h13.585V323.5h28.876l-0.499-36
		H369.426z M286.083,247.621l2.683,2.683l-2.683,0.773V247.621z M366.09,279.167l0.213,5.333h-39.552l-0.242-5.333H366.09z
		 M284.571,267.378l30.103,8.627l-60.757-0.367L284.571,267.378z M234.833,320.5h-24.773l0.611-33h32.995v-3H206.02l-0.111-6
		l25.857,0l-0.015,0.004l89.25,0.539v0.123h2.506l1.591,35h-4.106l-0.468-29.19l-7,0.333l1.123,28.857h-5.006L309,285.333h-6
		l0.655,28.833h-4.021L299,285.088l-7-0.103l0.634,29.181h-4.967V285L282,284.985l-0.655,29.182h-4.661L277,285.088h-6.667
		l-0.317,29.078h-4.994l1.311-29.078L260.667,285l-0.972,29.167h-4.685l1.657-28.833h-6l-1.311,28.833h-14.523V320.5z
		 M255.343,326.167l2.351-3h54.67l2.16,3H255.343z M316.684,329.167l2.16,3h-68.204l2.351-3H316.684z M260.045,320.167l2.351-3
		h45.647l2.16,3H260.045z M237.833,327.833v-10.667h20.751l-8.36,10.667H237.833z M323.413,338.512l-77.988,0.31l2.864-3.655h72.715
		L323.413,338.512z M332.167,327.833h-12.745l-7.68-10.667h20.425V327.833z M335.167,320.5v-6.333H328.1l-1.212-26.667h33.655
		l0.459,33H335.167z"/>
	<rect x="214.409" y="291.023" fill="#231F20" width="4.758" height="5.234"/>
	<rect x="222.656" y="291.023" fill="#231F20" width="4.758" height="5.234"/>
	<rect x="231.537" y="291.023" fill="#231F20" width="4.758" height="5.234"/>
	<rect x="214.409" y="299.112" fill="#231F20" width="4.758" height="5.234"/>
	<rect x="222.656" y="299.112" fill="#231F20" width="4.758" height="5.234"/>
	<rect x="231.537" y="299.112" fill="#231F20" width="4.758" height="5.234"/>
	<rect x="214.409" y="307.676" fill="#231F20" width="4.758" height="5.234"/>
	<rect x="222.656" y="307.676" fill="#231F20" width="4.758" height="5.234"/>
	<rect x="231.537" y="307.676" fill="#231F20" width="4.758" height="5.234"/>
	<rect x="333.759" y="291.023" fill="#231F20" width="4.758" height="5.234"/>
	<rect x="342.64" y="291.023" fill="#231F20" width="4.758" height="5.234"/>
	<rect x="351.522" y="291.023" fill="#231F20" width="4.758" height="5.234"/>
	<rect x="333.759" y="299.112" fill="#231F20" width="4.758" height="5.234"/>
	<rect x="342.64" y="299.112" fill="#231F20" width="4.758" height="5.234"/>
	<rect x="351.522" y="299.112" fill="#231F20" width="4.758" height="5.234"/>
	<rect x="333.759" y="307.676" fill="#231F20" width="4.758" height="5.234"/>
	<rect x="342.64" y="307.676" fill="#231F20" width="4.758" height="5.234"/>
	<rect x="351.522" y="307.676" fill="#231F20" width="4.758" height="5.234"/>
</g>
<g>
	<path fill="#5A835F" d="M397.795,255.904c0-0.433,0.151-0.801,0.455-1.105c0.303-0.302,0.672-0.455,1.105-0.455
		c0.433,0,0.801,0.152,1.104,0.455c0.303,0.304,0.455,0.672,0.455,1.105v2.6c4.073,0.348,7.931,1.864,11.57,4.55
		c0.606,0.477,0.91,0.954,0.91,1.43c0,0.478-0.163,0.877-0.487,1.203c-0.325,0.325-0.716,0.487-1.171,0.487
		c-0.454,0-0.855-0.151-1.202-0.455c-3.033-2.427-6.283-3.835-9.75-4.225v18.2c4.94,1.04,8.515,2.525,10.725,4.453
		c2.211,1.929,3.315,4.55,3.315,7.865c0,3.315-1.3,6.088-3.9,8.32c-2.6,2.232-5.937,3.413-10.01,3.542v5.07
		c0,0.433-0.152,0.801-0.455,1.105c-0.304,0.303-0.672,0.455-1.104,0.455c-0.434,0-0.803-0.152-1.105-0.455
		c-0.304-0.304-0.455-0.672-0.455-1.105v-5.135c-5.417-0.433-10.292-2.535-14.625-6.305c-0.477-0.39-0.715-0.823-0.715-1.3
		c0-0.477,0.163-0.877,0.487-1.203c0.325-0.325,0.716-0.487,1.17-0.487c0.455,0,0.834,0.152,1.138,0.455
		c3.727,3.467,7.951,5.438,12.675,5.915v-18.525c-4.854-1.083-8.363-2.578-10.529-4.485c-2.168-1.906-3.25-4.495-3.25-7.768
		c0-3.271,1.288-6.022,3.867-8.255c2.578-2.231,5.839-3.39,9.782-3.478V255.904z M390.353,263.834
		c-1.929,1.647-2.893,3.651-2.893,6.013c0,2.362,0.736,4.247,2.21,5.655c1.473,1.409,4.226,2.59,8.255,3.542v-17.745
		C394.806,261.343,392.28,262.188,390.353,263.834z M408.553,298.381c1.972-1.667,2.957-3.715,2.957-6.142
		c0-2.427-0.77-4.344-2.307-5.753c-1.539-1.407-4.346-2.567-8.418-3.478v17.94C403.991,300.906,406.58,300.05,408.553,298.381z"/>
</g>
</svg>
