<?xml version="1.0" encoding="utf-8"?>
<!-- Generator: Adobe Illustrator 17.0.2, SVG Export Plug-In . SVG Version: 6.00 Build 0)  -->
<!DOCTYPE svg PUBLIC "-//W3C//DTD SVG 1.1//EN" "http://www.w3.org/Graphics/SVG/1.1/DTD/svg11.dtd">
<svg version="1.1" id="Layer_1" xmlns="http://www.w3.org/2000/svg" xmlns:xlink="http://www.w3.org/1999/xlink" x="0px" y="0px"
	 width="252px" height="252px" viewBox="180 270 252 252" enable-background="new 180 270 252 252" xml:space="preserve">
<path fill="#5A835F" d="M355.978,394.03v15.92l-28.533,0.25l-0.501,7.258l-14.266-0.501l7.008,10.512l-75.782,0.484
	c3.874,20.35,31.722,36.137,65.522,36.137c36.451,0,66-18.356,66-41C375.427,411.732,367.989,401.455,355.978,394.03z"/>
<rect x="236.185" y="364.337" transform="matrix(-0.9999 -0.0169 0.0169 -0.9999 468.8463 771.9764)" fill="#231F20" width="3" height="39.341"/>
<g>
	<path fill="#231F20" d="M363.426,375.5l-0.453-11.333h-42.845l-40.044-11.476v-10.493l8.4-2.419l-11.4-11.4v24.293L236.898,363.5
		h-40.045l0.222,12h4.597l-0.667,36h27.829v7.333h13.04l-8.631,11.012l90.011-0.357l-7.671-10.655h13.585V411.5h28.876l-0.499-36
		H363.426z M280.083,335.621l2.683,2.683l-2.683,0.773V335.621z M360.09,367.167l0.213,5.333h-39.552l-0.242-5.333H360.09z
		 M278.571,355.378l30.103,8.627l-60.757-0.367L278.571,355.378z M228.833,408.5H204.06l0.611-33h32.995v-3H200.02l-0.111-6h25.857
		l-0.015,0.004l89.25,0.539v0.123h2.506l1.591,35h-4.106l-0.468-29.19l-7,0.333l1.123,28.857h-5.006L303,373.333h-6l0.655,28.833
		h-4.021L293,373.088l-7-0.103l0.634,29.181h-4.967V373L276,372.985l-0.655,29.182h-4.661L271,373.088h-6.667l-0.317,29.078h-4.994
		l1.311-29.078L254.667,373l-0.972,29.167h-4.685l1.657-28.833h-6l-1.311,28.833h-14.523L228.833,408.5L228.833,408.5z
		 M249.343,414.167l2.351-3h54.67l2.16,3H249.343z M310.684,417.167l2.16,3H244.64l2.351-3H310.684z M254.045,408.167l2.351-3
		h45.647l2.16,3H254.045z M231.833,415.833v-10.667h20.751l-8.36,10.667H231.833z M317.413,426.512l-77.988,0.31l2.864-3.655h72.715
		L317.413,426.512z M326.167,415.833h-12.745l-7.68-10.667h20.425V415.833z M329.167,408.5v-6.333H322.1l-1.212-26.667h33.655
		l0.459,33H329.167z"/>
	<rect x="208.409" y="379.023" fill="#231F20" width="4.758" height="5.234"/>
	<rect x="216.656" y="379.023" fill="#231F20" width="4.758" height="5.234"/>
	<rect x="225.537" y="379.023" fill="#231F20" width="4.758" height="5.234"/>
	<rect x="208.409" y="387.112" fill="#231F20" width="4.758" height="5.234"/>
	<rect x="216.656" y="387.112" fill="#231F20" width="4.758" height="5.234"/>
	<rect x="225.537" y="387.112" fill="#231F20" width="4.758" height="5.234"/>
	<rect x="208.409" y="395.676" fill="#231F20" width="4.758" height="5.234"/>
	<rect x="216.656" y="395.676" fill="#231F20" width="4.758" height="5.234"/>
	<rect x="225.537" y="395.676" fill="#231F20" width="4.758" height="5.234"/>
	<rect x="327.759" y="379.023" fill="#231F20" width="4.758" height="5.234"/>
	<rect x="336.64" y="379.023" fill="#231F20" width="4.758" height="5.234"/>
	<rect x="345.522" y="379.023" fill="#231F20" width="4.758" height="5.234"/>
	<rect x="327.759" y="387.112" fill="#231F20" width="4.758" height="5.234"/>
	<rect x="336.64" y="387.112" fill="#231F20" width="4.758" height="5.234"/>
	<rect x="345.522" y="387.112" fill="#231F20" width="4.758" height="5.234"/>
	<rect x="327.759" y="395.676" fill="#231F20" width="4.758" height="5.234"/>
	<rect x="336.64" y="395.676" fill="#231F20" width="4.758" height="5.234"/>
	<rect x="345.522" y="395.676" fill="#231F20" width="4.758" height="5.234"/>
</g>
<g>
	<path fill="#5A835F" d="M391.795,343.904c0-0.433,0.151-0.801,0.455-1.105c0.303-0.302,0.672-0.455,1.105-0.455
		s0.801,0.152,1.104,0.455c0.303,0.304,0.455,0.672,0.455,1.105v2.6c4.073,0.348,7.931,1.864,11.57,4.55
		c0.606,0.477,0.91,0.954,0.91,1.43c0,0.478-0.163,0.877-0.487,1.203c-0.325,0.325-0.716,0.487-1.171,0.487
		c-0.454,0-0.855-0.151-1.202-0.455c-3.033-2.427-6.283-3.835-9.75-4.225v18.2c4.94,1.04,8.515,2.525,10.725,4.453
		c2.211,1.929,3.315,4.55,3.315,7.865s-1.3,6.088-3.9,8.32s-5.937,3.413-10.01,3.542v5.07c0,0.433-0.152,0.801-0.455,1.105
		c-0.304,0.303-0.672,0.455-1.104,0.455c-0.434,0-0.803-0.152-1.105-0.455c-0.304-0.304-0.455-0.672-0.455-1.105v-5.135
		c-5.417-0.433-10.292-2.535-14.625-6.305c-0.477-0.39-0.715-0.823-0.715-1.3s0.163-0.877,0.487-1.203
		c0.325-0.325,0.716-0.487,1.17-0.487c0.455,0,0.834,0.152,1.138,0.455c3.727,3.467,7.951,5.438,12.675,5.915v-18.525
		c-4.854-1.083-8.363-2.578-10.529-4.485c-2.168-1.906-3.25-4.495-3.25-7.768c0-3.271,1.288-6.022,3.867-8.255
		c2.578-2.231,5.839-3.39,9.782-3.478L391.795,343.904L391.795,343.904z M384.353,351.834c-1.929,1.647-2.893,3.651-2.893,6.013
		s0.736,4.247,2.21,5.655c1.473,1.409,4.226,2.59,8.255,3.542v-17.745C388.806,349.343,386.28,350.188,384.353,351.834z
		 M402.553,386.381c1.972-1.667,2.957-3.715,2.957-6.142s-0.77-4.344-2.307-5.753c-1.539-1.407-4.346-2.567-8.418-3.478v17.94
		C397.991,388.906,400.58,388.05,402.553,386.381z"/>
</g>
</svg>
