<?xml version="1.0" encoding="utf-8"?>
<!-- Generator: Adobe Illustrator 17.0.2, SVG Export Plug-In . SVG Version: 6.00 Build 0)  -->
<!DOCTYPE svg PUBLIC "-//W3C//DTD SVG 1.1//EN" "http://www.w3.org/Graphics/SVG/1.1/DTD/svg11.dtd">
<svg version="1.1" id="Layer_1" xmlns="http://www.w3.org/2000/svg" xmlns:xlink="http://www.w3.org/1999/xlink" x="0px" y="0px"
	 width="252px" height="252px" viewBox="180 270 252 252" enable-background="new 180 270 252 252" xml:space="preserve">
<path fill="#A29352" d="M350.446,384.949l-0.511,10.477h-8.438l-2.103,2.507l4.879,9.777l-1.521,11.256l-5.857,4.458l-11.89-1.151
	l-1.534-3.068h-2.685l-1.151-0.384l-0.767,3.068l-11.123,0.767l-6.52-2.301l-3.068-10.739l-3.835,4.986l-3.835,2.301l-18.074,0.693
	l-6.17,4.867l-13.342,0.193l-12.656,0.863c6.664,18.263,32.934,31.903,64.349,31.903c36.451,0,66-18.356,66-41
	C370.593,402.85,362.862,392.404,350.446,384.949z"/>
<g>
	<polygon fill="#231F20" points="266.399,378.239 267.105,391.389 299.004,390.854 296.168,376.628 	"/>
	
		<rect x="270.813" y="406.846" transform="matrix(0.9992 -0.04 0.04 0.9992 -16.1104 11.4929)" fill="#231F20" width="16.68" height="3"/>
</g>
<rect x="201.225" y="423.055" fill="#231F20" width="20.117" height="3"/>
<path fill="none" stroke="#231F20" stroke-width="3" stroke-miterlimit="10" d="M267.754,398.086"/>
<path fill="none" stroke="#231F20" stroke-width="3" stroke-miterlimit="10" d="M265.989,398.086"/>
<path fill="#231F20" d="M353.092,368.486l-9.629,0.082c-0.014-0.287-0.141-0.57-0.458-0.765c-1.581-0.97-3.335-1.284-5.123-1.299
	c0.196-3.272-3.688-4.561-6.467-4.008c-0.726,0.145-1.418,0.449-2.029,0.866c-0.174-1.419-0.953-2.619-2.547-3.044
	c-1.26-0.336-2.853,0.173-4.106,1.104c-0.654-1.539-1.992-2.078-3.449-1.995c1.526-0.936,4.759-4.994-0.514-22.131l-0.093-0.302
	l-6.407-7.393l-1.19,2.976l-4.308-7.323l-0.794,7.934l-5.507-6.977l-0.484,12.085l-10.181,6.363l-2.715-0.295l-0.213-0.179
	l0.042,0.16l-29.589-3.216l-12.444,7.919l-13.555,27.457l-45.554,1.779l-3.899,31.192l4.487-0.026
	c-4.348,5.53-0.138,15.563,0.07,16.047l0.401,0.936L203.289,426l-0.86-2.578c0.078-0.02,0.155-0.046,0.227-0.085
	c0.152,0.059,0.31,0.078,0.468,0.064c0.239,0.21,0.49,0.415,0.773,0.604c0.205,0.137,0.462,0.163,0.704,0.11
	c0.051,0.009,0.1,0.026,0.153,0.026h3.199c0.297,0.293,0.74,0.402,1.099,0.278c0.046,0.095,0.082,0.191,0.132,0.285
	c0.352,0.662,1.369,0.639,1.727,0c0.043-0.076,0.073-0.167,0.113-0.247c0.172,0.24,0.514,0.405,0.789,0.389
	c0.784-0.044,1.333-0.045,1.782-0.644c0.176,0.165,0.415,0.269,0.688,0.291c0.358,0.029,0.686,0.05,1.006,0.065
	c0.196,0.178,0.394,0.354,0.606,0.504c0.486,0.343,1.383,0.019,1.469-0.598c0-0.002,0-0.004,0.001-0.007
	c0.002,0,0.004,0,0.007-0.001c0.005-0.001,0.009-0.004,0.014-0.005c0.107,0.337,0.183,0.553,0.206,0.613l0.359,0.986h17.459
	l-0.015-0.044l20.09-1.572c0.395,0.088,0.798,0.143,1.21,0.143l11.051,0.062v-0.001c0.003,0,0.005,0.001,0.008,0.001
	c2.961,0,5.641-2.396,7.189-6.333l19.177-1.081l0.865-0.039l0.005-0.01l0.48-0.027l0.054-1.026l0.813-1.603
	c0.001-0.002,0.004-0.004,0.005-0.006l0.089,0.119c0.051,0.09,0.11,0.171,0.182,0.243l0.262,0.35l2.151,6.142l4.191,3.726
	l13.111-0.455v-0.003c2.086-0.02,3.973-1.201,5.437-3.183c1.311,2.161,3.116,3.125,5.73,3.125l10.982,0.061c0.002,0,0.003,0,0.005,0
	c0.001,0,0.003,0,0.004,0h0.06v-0.005c4.768-0.056,8.494-6.193,8.494-14.024c0-6.456-2.534-11.756-6.094-13.453l10.47-0.187
	L353.092,368.486z M302.921,340l0.222-5.562l5.08,6.435l0.618-6.183l2.751,4.676l1.634-4.083l2.768,3.194
	c4.044,13.277,2.458,17.252,1.838,18.191l-1.256-0.072c0.061-4.045,0.631-8.175-0.746-12.069c-0.427-1.207-2.36-0.688-1.929,0.532
	c1.3,3.677,0.747,7.6,0.678,11.422l-2.232-0.129c0.113-4.26,1.011-9.059-1.559-12.77c-0.729-1.052-2.463-0.054-1.727,1.009
	c2.299,3.32,1.42,7.797,1.29,11.646l-2.578-0.149c0.138-4.443,0.643-8.945-1.926-12.859c-0.704-1.073-2.437-0.072-1.727,1.009
	c2.329,3.548,1.814,7.702,1.661,11.735l-5.157-0.297l-9.748-8.15L302.921,340z M317.897,359.68c-0.968,0.287-1.911,0.788-2.67,1.407
	c-0.143-0.599-0.394-1.135-0.727-1.603L317.897,359.68z M300.134,358.655c-0.009,0.002-0.02,0.003-0.029,0.004
	c-0.005-0.002-0.011-0.005-0.016-0.007L300.134,358.655z M292.887,355.438c0.768,1.046,1.703,1.912,2.77,2.713
	c0.163,0.292,0.323,0.585,0.478,0.88c-1.062,2.142-0.876,4.513,0.738,6.51c-0.464,0.13-0.872,0.319-1.227,0.568L292.887,355.438z
	 M293.621,368.99l-8.061,0.068l-25.607,2.2l0.728-16.293l25.296,3.935L293.621,368.99z M296.885,367.913
	c-0.234,0.287-0.41,0.577-0.547,0.868l-0.019-0.072C296.486,368.394,296.674,368.126,296.885,367.913z M287.722,347.451l3.45,13.339
	l-3.536-4.668l-27.201-4.231l0.049-0.091l-0.424-0.228c-0.211-2.473-0.815-4.879-1.52-7.293L287.722,347.451z M188.836,423.381
	c-0.956-2.688-3.214-10.404,1.152-13.207h8.551c-1.783,3.497-2.987,8.656,0.057,12.95L188.836,423.381z M206.08,409.393
	c0.001-0.018-0.005-0.036-0.006-0.054h0.076C206.126,409.357,206.102,409.374,206.08,409.393z M220.098,423.055
	c-0.775-2.68-2.423-10.081,1.993-12.881h8.553c-1.774,3.478-2.975,8.602,0.008,12.881H220.098z M244.979,406.117l-59.7,0.341
	l3.16-25.274l44.793-1.75l13.973-28.305l9.49-6.039c0.512,1.77,0.961,3.533,1.218,5.328l-0.072-0.038l-18.025,33.573l-46.41,1.694
	l0.109,2.998l45.737-1.669v12.522h3v-13.739l15.329-28.551l-0.62,14.307l-5.774,0.496l0.487,10.711l4.457-0.231l-5.573,20.806
	L244.979,406.117z M255.792,421.407c-2.352-0.889-4.648-5.099-4.648-10.854c0-1.075,0.087-2.124,0.247-3.139l8.103-0.491
	c-0.193,1.198-0.298,2.438-0.298,3.692c0,4.461,1.21,8.37,3.132,10.922L255.792,421.407z M297.631,400.821h-1.192
	c0.293-0.676,0.457-1.42,0.457-2.202c0-3.065-2.494-5.559-5.559-5.559s-5.559,2.494-5.559,5.559s2.494,5.559,5.559,5.559
	c0.641,0,1.254-0.115,1.828-0.315l-0.549,10.432l-19.793,0.892l-0.075,0.243l-2.782,0.157l-4.409-10.707
	c0.731,0.355,1.548,0.56,2.414,0.56c3.065,0,5.559-2.494,5.559-5.559s-2.494-5.559-5.559-5.559s-5.559,2.494-5.559,5.559
	c0,1.456,0.567,2.779,1.486,3.771l-3.562,0.216l-0.107-0.035c-0.005,0.014-0.007,0.029-0.012,0.042l-5.471,0.332l4.291-9.882
	l3.692-2.553l-0.771-12.586l-7.426,0.385l-0.219-4.817l31.329-2.695l17.991-0.152l4.82,22.595h-4.851L297.631,400.821z
	 M293.896,398.62c0,1.411-1.148,2.559-2.559,2.559s-2.559-1.148-2.559-2.559s1.148-2.559,2.559-2.559
	S293.896,397.209,293.896,398.62z M265.413,399.88c0-1.411,1.148-2.559,2.559-2.559s2.559,1.148,2.559,2.559
	s-1.148,2.559-2.559,2.559S265.413,401.291,265.413,399.88z M256.55,392.525l2.622-9.788l0.461,7.53l-3.004,2.077L256.55,392.525z
	 M310.914,421.614l-5.688-0.032c-2.629,0-5.559-4.529-5.559-11.029s2.93-11.029,5.549-11.029l5.741,0.038
	c-1.982,2.548-3.239,6.511-3.239,11.052C307.719,415.123,308.957,419.064,310.914,421.614z M316.698,417.409
	c-1.824,0-3.302-2.936-3.302-6.559s1.478-6.559,3.302-6.559S320,407.227,320,410.85S318.522,417.409,316.698,417.409z
	 M319.347,397.5h0.184c-0.002,0.036-0.003,0.071-0.001,0.107C319.469,397.568,319.407,397.537,319.347,397.5z M333.118,421.613
	l-5.614-0.031c-1.617,0-2.85-0.25-3.979-3.433c0.828-2.165,1.31-4.738,1.31-7.534c0-2.816-0.488-5.407-1.327-7.582
	c1.065-2.188,2.54-3.509,3.987-3.509l5.669,0.038c-1.982,2.548-3.24,6.512-3.24,11.053
	C329.923,415.123,331.161,419.064,333.118,421.613z M342.75,410.101c0,3.622-1.478,6.559-3.302,6.559s-3.302-2.936-3.302-6.559
	s1.478-6.559,3.302-6.559C341.272,403.542,342.75,406.479,342.75,410.101z M348.584,394.025L322,394.5h-10.479l-4.825-22.621
	l43.212-0.366L348.584,394.025z"/>
<g>
	<path fill="#A29352" d="M396.492,386.762l-0.585,0.065c-0.737,0-1.234-0.346-1.495-1.04l-4.029-10.725h-20.735l-4.03,10.725
		c-0.26,0.694-0.759,1.04-1.495,1.04l-0.585-0.065c-0.39-0.173-0.682-0.465-0.877-0.877c-0.195-0.412-0.206-0.812-0.032-1.203
		l15.795-42.185c0.303-0.65,0.845-0.975,1.625-0.975c0.779,0,1.277,0.325,1.495,0.975l15.795,42.185c0.172,0.39,0.172,0.791,0,1.203
		C397.164,386.297,396.883,386.589,396.492,386.762z M380.048,347.437l-9.23,24.44h18.396L380.048,347.437z"/>
	<path fill="#A29352" d="M402.863,373.827v-17.355c0-0.433,0.151-0.801,0.455-1.105c0.303-0.303,0.672-0.455,1.105-0.455
		s0.801,0.152,1.104,0.455c0.303,0.304,0.455,0.672,0.455,1.105v17.355c0,2.73,0.953,5.049,2.86,6.955
		c1.906,1.907,4.203,2.882,6.89,2.925c2.73-0.042,5.06-1.018,6.988-2.925c1.927-1.906,2.892-4.225,2.892-6.955v-17.355
		c0-0.433,0.163-0.801,0.488-1.105c0.324-0.303,0.703-0.455,1.137-0.455s0.802,0.152,1.105,0.455
		c0.303,0.304,0.455,0.672,0.455,1.105v17.355c0,3.597-1.268,6.663-3.803,9.197c-2.535,2.535-5.601,3.803-9.197,3.803
		c-3.598,0-6.652-1.268-9.165-3.803C404.119,380.49,402.863,377.424,402.863,373.827z"/>
</g>
</svg>
