<?xml version="1.0" encoding="utf-8"?>
<!-- Generator: Adobe Illustrator 17.0.2, SVG Export Plug-In . SVG Version: 6.00 Build 0)  -->
<!DOCTYPE svg PUBLIC "-//W3C//DTD SVG 1.1//EN" "http://www.w3.org/Graphics/SVG/1.1/DTD/svg11.dtd">
<svg version="1.1" id="Layer_1" xmlns="http://www.w3.org/2000/svg" xmlns:xlink="http://www.w3.org/1999/xlink" x="0px" y="0px"
	 width="252px" height="252px" viewBox="180 270 252 252" enable-background="new 180 270 252 252" xml:space="preserve">
<path fill="#5F8893" d="M340.104,399.038L339.833,401l-1.5,4.667l-2,3.667l-7.333,2l-2.904-0.518l-1.924,1.345l-0.339,3.507
	l-2.167,6l-5.167,5.167l-3.833,0.833l-0.833,4.167l-6.5,5.333l-8,1.5l-7.5,0.333l-4.104-1.97l-1.495-0.083l-6.05,5.402l-4.754,2.377
	l-4.322-3.241l-5.402-5.834l-5.618-4.106h-4.538l-9.724-2.161l-7.347,1.297l-11.453,1.513l-0.157-0.039
	c4.943,19.606,32.247,34.606,65.196,34.606c36.451,0,66-18.356,66-41C356.065,415.548,350.047,406.214,340.104,399.038z"/>
<path fill="#231F20" d="M498.816,422.15"/>
<path fill="#5F8893" d="M225.026,423.766l1.309-8.673c-1.472,3.402-2.27,6.976-2.27,10.667c0,0.691,0.029,1.379,0.084,2.062
	L225.026,423.766z"/>
<path fill="none" stroke="#231F20" stroke-width="2.1366" stroke-miterlimit="10" d="M238.251,418.853"/>
<path fill="none" stroke="#231F20" stroke-width="2.1366" stroke-miterlimit="10" d="M243.566,395.665"/>
<path fill="#5F8893" d="M402.839,377.578c-1.669-2.231-3.803-3.803-6.402-4.713c2.902-2.34,4.354-5.188,4.354-8.547
	c0-3.357-1.104-6.143-3.314-8.353c-2.011-2.011-4.403-3.096-7.167-3.278v-9.263c0-0.875-0.709-1.584-1.584-1.584
	s-1.584,0.709-1.584,1.584v9.225h-7.799c-0.434,0-0.803,0.152-1.105,0.455c-0.304,0.304-0.455,0.672-0.455,1.105v42.38
	c0,0.434,0.141,0.802,0.423,1.105c0.281,0.304,0.639,0.455,1.072,0.455h7.865v7.576c0,0.875,0.709,1.584,1.584,1.584
	s1.584-0.709,1.584-1.584v-7.576h2.033c3.596,0,6.662-1.268,9.197-3.803s3.803-5.6,3.803-9.197
	C405.342,382.334,404.507,379.81,402.839,377.578z M395.235,358.24c1.581,1.604,2.372,3.521,2.372,5.752
	c0,2.232-0.791,4.139-2.372,5.72c-1.385,1.385-3.027,2.163-4.925,2.336v-16.175C392.208,356.048,393.849,356.838,395.235,358.24z
	 M380.967,355.836h6.174v16.25h-6.174V355.836z M380.967,394.966v-19.63h6.174v19.63H380.967z M399.232,392.106
	c-1.907,1.907-4.204,2.86-6.89,2.86h-2.033v-19.63h2.033c2.686,0,4.982,0.965,6.89,2.893c1.906,1.929,2.882,4.236,2.925,6.922
	C402.114,387.881,401.138,390.199,399.232,392.106z"/>
<g>
	<path fill="#231F20" d="M260.407,410.135c-1.362,1.331-0.747,4.262,1.342,6.401c1.329,1.361,3.005,2.173,4.482,2.173
		c0.542,0,1.309-0.118,1.886-0.681c1.362-1.331,0.747-4.261-1.342-6.401c-1.33-1.361-3.005-2.173-4.482-2.173
		C261.75,409.454,260.983,409.572,260.407,410.135z"/>
	<path fill="#231F20" d="M358.901,370.973c0.12-1.217-0.24-2.412-1.016-3.363l-0.981-0.921c0.339-0.407,0.687-0.805,1.009-1.226
		c1.72-2.246,3.72-5.185,3.164-8.184c-1.383-7.461-11.487-4.736-16.001-1.697l-23.059-21.652c-0.879-1.036-2.153-1.627-3.513-1.627
		c-1.044,0-2.066,0.363-2.892,1.035l-6.254,5.249c-1.597-0.707-3.517-0.803-5.2-0.723c-3.602,0.173-6.633,1.817-9.671,3.635
		c-4.252,2.544-8.175,5.561-12.64,7.749c-4.588,2.249-9.48,3.625-14.012,6.073c-4.794,2.59-9.294,5.706-13.822,8.725
		c-4.624,3.083-9.058,6.461-13.701,9.498c-5.242,3.43-11.196,2.564-17.121,2.511c-0.516-0.005-1.017,0.303-1.193,0.79
		c-0.199,0.548,0.128,1.08,0.297,1.587c0.193,0.577,0.098,1.179,0.106,1.776c0.01,0.768,0.048,1.537,0.091,2.304
		c0.086,1.543,0.225,3.082,0.393,4.617c0.093,0.848,0.196,1.694,0.306,2.54c0.454,3.502,1.03,6.987,1.509,10.485
		c0.269,1.965,0.509,3.934,0.682,5.909c0.406,4.654,0.097,9.118-0.882,13.682c-0.905,4.218-2.009,8.348-2.376,12.661
		c-0.066,0.775,0.661,1.272,1.335,1.335c5.846,0.553,11.442-1.737,17.127-2.69c5.978-1.001,10.997,2.173,16.791,2.69
		c0.096,0.009,0.186,0.007,0.271-0.002c0.016,0.001,0.032,0.002,0.049,0.003c0.677,0.066,1.352,0.139,2.031,0.128
		c0.105,0.013,0.21,0.035,0.315,0.053l10.6,10.073c0.909,1.072,2.21,1.628,3.519,1.628c1.013,0,2.03-0.333,2.873-1.02l8.034-6.534
		c9.548,3.78,26.074,1.858,28.829-8.886c0.062-0.009,0.122-0.014,0.186-0.031c7.24-1.973,11.014-9.558,11.618-17.088
		c5.29,0.735,10.168-0.43,13.225-5.083c2.725-4.148,2.953-9.81,2.439-14.699l14.932-12.144c1.342-1.091,2.104-3.824,2.306-4.636
		c0.322-1.296,0.566-2.928,0.229-4.192C358.854,371.199,358.89,371.09,358.901,370.973z M249.156,428.956
		c-2.652-0.767-5.299-0.938-8.036-0.65c-5.468,0.576-10.673,2.905-16.189,2.836c0.468-3.909,1.505-7.705,2.331-11.554
		c0.892-4.161,1.119-8.286,0.865-12.529c-0.568-9.493-3.095-18.755-3.063-28.297c3.84,0.106,7.666,0.332,11.446-0.571
		c4.518-1.079,8.133-4.526,11.779-7.184c4-2.916,8.309-5.506,12.446-8.229c4.012-2.64,8.118-5.122,12.456-7.193
		c4.023-1.92,8.315-3.058,12.246-5.19c3.85-2.088,7.352-4.769,11.108-7.016c2.927-1.751,5.674-2.938,9.117-2.867
		c0.4,0.008,0.829,0.052,1.257,0.121l-68.991,57.904c-0.57,0.464-0.991,1.055-1.278,1.71c-0.94,1.181-1.259,3.466-1.35,5.281
		c-0.066,1.306-0.104,4.486,0.973,5.808l20.717,19.687C254.294,430.712,251.752,429.707,249.156,428.956z M275.349,442.534
		c-0.813,0.662-2.022,0.53-2.694-0.295l-34.331-32.623c-0.349-0.597-0.451-2.31-0.366-3.98l33.628,32.281
		c0.88,1.039,2.156,1.633,3.518,1.633c1.045,0,2.066-0.363,2.876-1.021l19.325-15.717c0.202,0.452,0.417,0.9,0.642,1.344
		L275.349,442.534z M258.93,408.623c0.859-0.839,2.022-1.283,3.363-1.283c2.034,0,4.275,1.051,5.994,2.811
		c2.99,3.061,3.564,7.185,1.307,9.389c-0.859,0.839-2.022,1.283-3.362,1.283c-2.035,0-4.275-1.05-5.994-2.81
		C257.248,414.952,256.673,410.828,258.93,408.623z M311.531,427.725c-1.491,9.981-15.798,10.748-24.017,8.359l11.742-9.55
		c0.866,1.472,1.732,2.807,2.37,3.877c0.881,1.477,3.191,0.135,2.306-1.348c-2.123-3.558-8.527-11.564-3.321-14.941
		c3.39-2.2,6.707,1.605,8.412,4.16C310.875,421.055,312.031,424.375,311.531,427.725z M314.288,426.278
		c0.018-0.793-0.024-1.622-0.142-2.492c-0.25-1.857-1.006-3.967-2.126-5.936c0.228-0.215,0.379-0.524,0.374-0.934
		c-0.065-5.634-1.626-12.397,1.553-17.47c3.55-5.665,8.067,2.907,8.783,6.144C324.288,412.626,321.729,423.48,314.288,426.278z
		 M324.512,402.148c-0.132-0.359-0.292-0.723-0.464-1.086l3.566-2.9c0.088,0.547,0.183,1.094,0.279,1.639l-3.28,2.668
		C324.576,402.364,324.55,402.251,324.512,402.148z M337.145,404.71c-2.057,4.238-6.386,5.394-10.775,4.776
		c-0.211-0.03-0.407-0.015-0.585,0.033c-0.022-1.447-0.172-2.861-0.428-4.214l3.007-2.446c0.017,0.145,0.04,0.291,0.054,0.436
		c0.165,1.698,2.838,1.714,2.671,0c-0.496-5.095-2.339-9.907,0.611-14.595c0.928-1.475,3.889-4.88,5.497-2.534
		c1.285,1.875,1.391,4.806,1.58,6.998C339.109,397.029,338.861,401.174,337.145,404.71z M316.999,395.068
		c-1.2-0.076-2.452,0.267-3.701,1.222c-1.446,1.106-2.387,2.559-3.002,4.203l-25.664,20.771l-28.408-26.18l61.943-53.608
		l30.636,27.851L316.999,395.068z M354.613,378.07l-13.665,11.114c-0.09-0.534-0.2-1.067-0.334-1.595l15.322-12.462
		C355.59,376.428,355.077,377.693,354.613,378.07z M354.993,364.893l-7.911-7.428c2.288-1.396,5.027-2.237,7.661-2.324
		c3.685-0.123,4.288,3.12,2.945,5.834C356.986,362.393,356.022,363.671,354.993,364.893z"/>
	<path fill="#231F20" d="M313.384,389.808l7.155-6.657l-6.656-7.156l-7.156,6.657L313.384,389.808z M318.172,383.065l-4.702,4.375
		l-4.376-4.702l4.703-4.375L318.172,383.065z"/>
	
		<rect x="311.974" y="381.019" transform="matrix(0.7321 -0.6811 0.6811 0.7321 -176.7215 316.2899)" fill="#231F20" width="3.654" height="3.654"/>
	<path fill="#231F20" d="M308.433,370.138l-6.656-7.156l-7.157,6.657l6.658,7.156L308.433,370.138z M301.69,365.35l4.375,4.702
		l-4.702,4.375l-4.375-4.702L301.69,365.35z"/>
	
		<rect x="299.839" y="367.98" transform="matrix(-0.6811 -0.7321 0.7321 -0.6811 236.3902 842.5628)" fill="#231F20" width="3.654" height="3.654"/>
	
		<rect x="284.834" y="381.941" transform="matrix(0.7322 -0.6811 0.6811 0.7322 -184.613 298.0182)" fill="#231F20" width="3.654" height="3.654"/>
	
		<rect x="303.41" y="377.555" transform="matrix(0.6811 0.7321 -0.7321 0.6811 374.855 -102.4185)" fill="#231F20" width="3.207" height="3.207"/>
	
		<rect x="308.385" y="372.923" transform="matrix(0.7321 -0.6812 0.6812 0.7321 -172.0806 311.4996)" fill="#231F20" width="3.207" height="3.207"/>
	<path fill="#231F20" d="M286.772,376.94l-7.156,6.657l6.657,7.156l6.515-6.061l0.037,0.04l2.105-1.958l1.958,2.105l2.296-2.136
		l1.994,2.143l2.088,2.245l-2.143,1.994l-2.296,2.136l2.075,2.231l-0.005,0.005l2.322,2.486l2.348-2.185l-2.213-2.368l2.096-1.95
		l2.348-2.185l-2.136-2.296l-2.185-2.348l-2.136-2.296l-2.296,2.136l-1.946-2.092l2.296-2.137l-2.185-2.348l-2.296,2.136
		l-1.661-1.785l2.296-2.136l-2.185-2.348l-2.348,2.185l2.065,2.22l-2.296,2.136l1.958,2.105l-1.464,1.362L286.772,376.94z
		 M286.359,388.385l-4.375-4.702l4.702-4.375l4.375,4.702L286.359,388.385z M295.269,378.532l1.732,1.862l-2.053,1.91l-1.732-1.862
		L295.269,378.532z"/>
	<polygon fill="#231F20" points="296.965,397.136 294.948,394.968 297.244,392.831 295.06,390.483 292.711,392.668 294.848,394.964 
		292.551,397.101 294.736,399.449 297.032,397.313 299.098,399.532 301.446,397.348 299.261,395 	"/>
	
		<rect x="295.432" y="385.348" transform="matrix(-0.6811 -0.7321 0.7321 -0.6811 216.0533 867.9957)" fill="#231F20" width="3.207" height="3.207"/>
</g>
<g>
	<path fill="none" d="M285.333,367.999"/>
</g>
</svg>
