<?xml version="1.0" encoding="utf-8"?>
<!-- Generator: Adobe Illustrator 17.0.2, SVG Export Plug-In . SVG Version: 6.00 Build 0)  -->
<!DOCTYPE svg PUBLIC "-//W3C//DTD SVG 1.1//EN" "http://www.w3.org/Graphics/SVG/1.1/DTD/svg11.dtd">
<svg version="1.1" id="Layer_1" xmlns="http://www.w3.org/2000/svg" xmlns:xlink="http://www.w3.org/1999/xlink" x="0px" y="0px"
	 width="612px" height="792px" viewBox="0 0 612 792" enable-background="new 0 0 612 792" xml:space="preserve">
<path fill="#5A835F" d="M374.615,360.855l-3.918,0.739l-2.572,2.531l3.625,3.625l-0.5,21l-12,2.75l-11.375-1.375l-3.625-1.625
	v-10.125l-6.875-0.25l-12.375-1.5l-1.25-5.5l-2.908-0.13l-35.606,0.145l-23.661,31.43c11.988,10.307,31.486,17.021,53.519,17.021
	c36.451,0,66-18.356,66-41C381.095,372.238,378.767,366.223,374.615,360.855z M334.886,389.031l-11.531,0.887l-7.835-1.774
	l-2.07-0.444l-0.443-2.07l7.096-2.217l8.87-0.148l7.096,1.035l3.252,2.07L334.886,389.031z"/>
<path fill="#231F20" d="M498.816,422.15"/>
<g>
	<path fill="#5A835F" d="M384.738,273.571c0-0.433,0.151-0.801,0.455-1.105c0.303-0.302,0.672-0.455,1.105-0.455
		c0.433,0,0.801,0.152,1.104,0.455c0.303,0.304,0.455,0.672,0.455,1.105v2.6c4.073,0.348,7.931,1.864,11.57,4.55
		c0.606,0.477,0.91,0.954,0.91,1.43c0,0.478-0.163,0.877-0.487,1.203c-0.325,0.325-0.716,0.487-1.171,0.487
		c-0.454,0-0.855-0.151-1.202-0.455c-3.033-2.427-6.283-3.835-9.75-4.225v18.2c4.94,1.04,8.515,2.525,10.725,4.453
		c2.211,1.929,3.315,4.55,3.315,7.865c0,3.315-1.3,6.088-3.9,8.32c-2.6,2.232-5.937,3.413-10.01,3.542v5.07
		c0,0.433-0.152,0.801-0.455,1.105c-0.304,0.303-0.672,0.455-1.104,0.455c-0.434,0-0.803-0.152-1.105-0.455
		c-0.304-0.304-0.455-0.672-0.455-1.105v-5.135c-5.417-0.433-10.292-2.535-14.625-6.305c-0.477-0.39-0.715-0.823-0.715-1.3
		c0-0.477,0.163-0.877,0.487-1.203c0.325-0.325,0.716-0.487,1.17-0.487c0.455,0,0.834,0.152,1.138,0.455
		c3.727,3.467,7.951,5.438,12.675,5.915v-18.525c-4.854-1.083-8.363-2.578-10.529-4.485c-2.168-1.906-3.25-4.495-3.25-7.768
		c0-3.271,1.288-6.022,3.867-8.255c2.578-2.231,5.839-3.39,9.782-3.478V273.571z M377.296,281.501
		c-1.929,1.647-2.893,3.651-2.893,6.013c0,2.362,0.736,4.247,2.21,5.655c1.473,1.409,4.226,2.59,8.255,3.542v-17.745
		C381.749,279.01,379.224,279.854,377.296,281.501z M395.496,316.048c1.972-1.667,2.957-3.715,2.957-6.142
		c0-2.427-0.77-4.344-2.307-5.753c-1.539-1.407-4.346-2.567-8.418-3.478v17.94C390.935,318.573,393.523,317.717,395.496,316.048z"/>
</g>
<polygon fill="#FFFFFF" points="283.884,328.716 290.537,338.916 297.633,343.942 333.999,343.647 343.608,331.524 "/>
<polygon fill="#FFFFFF" points="323.799,370.404 323.799,376.021 331.929,378.239 345.086,378.239 344.791,388.587 348.782,390.657 
	360.756,391.544 369.922,389.622 371.548,383.561 371.104,367.152 368,364.639 358.243,363.16 345.825,365.378 "/>
<line fill="none" stroke="#FFFFFF" stroke-width="3" stroke-miterlimit="10" x1="254.616" y1="407.812" x2="254.633" y2="396.29"/>
<g>
	<path fill="#231F20" d="M325.982,381.685c-1.506,0-14.719,0.13-14.719,4.64c0,4.509,13.213,4.64,14.719,4.64
		c1.507,0,14.719-0.13,14.719-4.64C340.702,381.815,327.489,381.685,325.982,381.685z M325.982,388.405
		c-6.783,0-11.148-1.261-12.057-2.08c0.909-0.819,5.274-2.08,12.057-2.08s11.148,1.261,12.058,2.08
		C337.131,387.143,332.765,388.405,325.982,388.405z"/>
	<path fill="#231F20" d="M297.018,315.69c0.554-0.429,2.715-0.002,3.397-0.049c1.223-0.085,2.329-0.198,3.559-0.1
		c1.983,0.158,3.507-0.136,5.041-1.43c0.987-0.833-0.435-2.24-1.414-1.414c-1.841,1.552-4.938,0.671-7.185,0.944
		c-1.968,0.239-3.15-0.651-4.811,0.635C294.585,315.064,296.012,316.469,297.018,315.69z"/>
	<path fill="#231F20" d="M303.067,309.7c0.297-0.506,0.081-1.047-0.359-1.368c-1.008-0.736-2.202-0.922-3.396-1.153
		c-1.26-0.244-1.797,1.683-0.532,1.929c1.028,0.199,2.05,0.318,2.918,0.952C302.14,310.38,302.813,310.134,303.067,309.7z"/>
	<path fill="#231F20" d="M307.575,294.578c1.639-0.442,2.64-0.774,4.339-0.038c1.362,0.59,2.548,1.322,4.02,1.624
		c1.259,0.258,1.795-1.67,0.532-1.929c-1.523-0.312-2.863-1.133-4.293-1.703c-0.427-0.17-0.919-0.211-1.312-0.459
		c-0.291-0.183-0.467-0.349-0.82-0.398c-0.418-0.057-0.836-0.095-1.258-0.115c-0.837-0.04-1.676-0.01-2.514-0.023
		c-0.479-0.007-0.958-0.026-1.434-0.075c-0.814-0.084-1.498,1.129-1.179,1.82C304.438,294.98,305.947,295.017,307.575,294.578z"/>
	<path fill="#231F20" d="M315.463,296.514c-2.791-0.193-5.114-1.843-7.997-1.473c-1.166,0.149-1.253,1.85-0.253,1.98
		c0.135,0.864,0.686,1.579,1.605,1.917c1.12,0.412,2.256-0.323,2.6-1.386c1.324,0.393,2.64,0.864,4.046,0.962
		C316.751,298.604,316.742,296.603,315.463,296.514z"/>
	<path fill="#231F20" d="M232.498,359.303c0.089,0.367,0.329,0.667,0.676,0.845c0.207,0.105,0.424,0.158,0.645,0.158
		c0.11,0,0.222-0.014,0.331-0.041l0.47-0.248c0.463-0.356,0.638-0.904,0.466-1.464l-0.963-3.142l4.626-3.565l2.794,1.731
		c0.515,0.318,1.041,0.31,1.601-0.136l0.191-0.191l0.099-0.137c0.169-0.306,0.212-0.665,0.12-1.005
		c-0.094-0.359-0.317-0.65-0.604-0.805l-12.828-7.97c-0.472-0.316-1.068-0.29-1.548,0.08c-0.459,0.356-0.648,0.88-0.51,1.473
		L232.498,359.303z M236.312,350.324l-3.037,2.34l-1.584-5.208L236.312,350.324z"/>
	<path fill="#231F20" d="M241.124,348.468c0.869,1.128,2.021,1.795,3.425,1.984c0.246,0.033,0.491,0.049,0.729,0.049
		c1.123,0,2.163-0.363,3.092-1.079c1.129-0.871,1.793-2.026,1.977-3.436c0.183-1.411-0.166-2.698-1.036-3.827l-3.557-4.614
		c-0.217-0.286-0.533-0.469-0.887-0.514c-0.358-0.048-0.7,0.046-0.991,0.268c-0.277,0.214-0.459,0.522-0.511,0.857
		c-0.064,0.369,0.025,0.735,0.253,1.029l3.558,4.618c0.432,0.561,0.589,1.145,0.495,1.839c-0.093,0.692-0.405,1.242-0.939,1.668
		c-0.561,0.418-1.15,0.571-1.844,0.48c-0.691-0.089-1.215-0.392-1.647-0.954l-3.56-4.619c-0.218-0.282-0.532-0.463-0.881-0.508
		c-0.364-0.05-0.707,0.046-0.99,0.265c-0.286,0.219-0.468,0.535-0.513,0.889c-0.045,0.353,0.05,0.703,0.268,0.986L241.124,348.468z"
		/>
	<path fill="#231F20" d="M266.196,369.738l-14.936-4.875c-0.518-0.191-1.071-0.025-1.437,0.432
		c-0.357,0.447-0.416,0.971-0.145,1.508l8.052,13.47c0.168,0.326,0.463,0.553,0.827,0.638c0.11,0.026,0.222,0.04,0.332,0.04
		c0.104,0,0.207-0.012,0.309-0.036c0.109-0.026,0.214-0.065,0.312-0.117l0.385-0.342c0.354-0.443,0.392-1,0.1-1.487l-1.784-2.992
		l3.873-4.851l3.312,1.078c0.149,0.048,0.297,0.073,0.439,0.073c0.271,0,0.665-0.091,1.037-0.568l0.146-0.242l0.056-0.144
		c0.086-0.329,0.044-0.664-0.122-0.971C266.779,370.038,266.5,369.816,266.196,369.738z M256.777,373.584l-3.09-5.202l5.748,1.873
		L256.777,373.584z"/>
	<path fill="#231F20" d="M273.736,360.498l-7.576-6.049c-0.232-0.187-0.511-0.286-0.805-0.286l-0.148,0.008
		c-0.347,0.036-0.645,0.199-0.864,0.472c-0.209,0.263-0.305,0.583-0.277,0.923c0.022,0.301,0.145,0.576,0.35,0.791
		c-0.268,0.074-0.533,0.167-0.793,0.278c-0.877,0.376-1.624,0.944-2.22,1.69c-1.026,1.286-1.426,2.79-1.189,4.47
		c0.235,1.662,1.032,3.046,2.37,4.116c1.19,0.95,2.535,1.431,3.996,1.431c0.176,0,0.354-0.007,0.533-0.021
		c1.687-0.134,3.068-0.86,4.106-2.16c0.605-0.757,1-1.611,1.173-2.538c0.048-0.257,0.079-0.515,0.092-0.773
		c0.519,0.533,0.805,1.16,0.889,1.941c0.102,0.952-0.132,1.747-0.735,2.502c-0.325,0.407-0.722,0.727-1.145,0.936
		c-0.458,0.182-0.655,0.482-0.74,0.704c-0.123,0.322-0.095,0.679,0.065,0.998c0.199,0.492,0.628,0.786,1.149,0.786
		c0.118,0,0.241-0.015,0.403-0.055l0.203-0.073c0.859-0.456,1.562-1.021,2.088-1.679c1.03-1.292,1.46-2.776,1.278-4.41
		C275.758,362.868,275.016,361.521,273.736,360.498z M269.22,364.552c-0.582,0.729-1.34,1.12-2.318,1.194
		c-0.998,0.074-1.877-0.201-2.7-0.859c-0.807-0.643-1.286-1.461-1.425-2.433c-0.142-0.979,0.068-1.78,0.659-2.521
		c0.463-0.579,1.051-0.957,1.749-1.122c0.178-0.042,0.367-0.071,0.56-0.088c0.114-0.009,0.228-0.014,0.339-0.014
		c0.848,0,1.615,0.284,2.346,0.868c0.812,0.647,1.297,1.471,1.443,2.449C270.018,363.009,269.811,363.812,269.22,364.552z"/>
	<path fill="#231F20" d="M386.885,348.054v-5.529h-43.831c0.013-0.02,0.024-0.042,0.037-0.062h-3.551
		c0.018,0.021,0.039,0.04,0.056,0.062h-1.283c-0.004-0.003-0.007-0.006-0.01-0.009c-0.022-0.021-0.047-0.034-0.07-0.053h-0.145
		c9.627-8.514,15.901-22.237,15.901-37.709c0-25.778-17.383-46.75-38.75-46.75s-38.75,20.972-38.75,46.75
		c0,15.472,6.273,29.196,15.901,37.709h-9.701l-8.849-5.46c-0.024-0.344-0.051-0.693-0.068-1.018l-0.04-0.51l-0.014,0.001
		c-0.091-0.59-0.336-1.141-0.738-1.631l-14.991-14.998c-0.643-0.766-1.584-1.205-2.583-1.205c-0.766,0-1.516,0.267-2.111,0.75
		l-42.178,34.397l-10.283,7.391c-1.434,1.167-1.646,3.289-0.447,4.76l20.861,21.799c0.643,0.77,1.587,1.212,2.591,1.212
		c0.769,0,1.52-0.267,2.118-0.755l9.701-8.036l-0.746,0.974l-8.3,9.563c-0.545,0.71-0.78,1.591-0.66,2.483
		c0.12,0.89,0.578,1.681,1.323,2.252l25.326,16.399c0.588,0.439,1.286,0.672,2.02,0.673c0.263,0,0.525-0.031,0.781-0.092
		c0.748-0.178,1.417-0.611,1.887-1.224l28.845-38.242h36.617v2.981c0,4.51,13.213,4.64,14.719,4.64c0.598,0,3.039-0.022,5.766-0.329
		v3.414h-0.021c0,0.077,0.013,0.149,0.021,0.223v4.976c0,4.51,13.213,4.64,14.719,4.64c1.506,0,14.719-0.13,14.719-4.64v-14.895
		c0.078-0.225,0.125-0.461,0.125-0.713h-0.125v-5.216c0-1.386-1.251-2.357-3.024-3.039l14.674-5.29l-0.065,0.016l2.625-1.24v-9.162
		l0.083-0.03L386.885,348.054z M337.607,336.715c-0.186-2.297-1.078-4.401-2.198-6.707c-1.409-2.903-1.133-5.296-1.727-8.356
		c-0.288-1.481-0.855-2.885-1.304-4.32c-0.222-0.709-0.418-1.428-0.532-2.163c-0.106-0.683,0.015-1.346-0.304-1.986
		c0.359-0.248,0.741-0.487,1.081-0.769c0.023,0.077,0.031,0.152,0.076,0.231c2.481,4.365,2.231,8.709,3.208,13.449
		C336.733,330.102,339.694,333.289,337.607,336.715z M292.889,297.989c0-0.019,0.004-0.034,0.003-0.053
		c-0.084-1.024-0.054-1.999,0.069-2.936c0.141,0.086,0.302,0.149,0.51,0.147c0.798-0.006,1.157-0.043,1.93-0.188
		c0.615-0.195,1.24-0.345,1.877-0.45c0.781,0.409,1.316,0.836,1.629,1.278c-1.693-0.936-4.127-1.312-5.232,0.685
		c-0.432,0.78-0.229,1.644,0.466,2.166c0.856,0.644,1.869-0.25,2.298-0.935c0.158-0.252,0.177-0.496,0.121-0.714
		c0.559,0.071,1.138,0.395,1.562,0.652c0.254,0.154,0.499,0.17,0.717,0.113c-0.018,0.025-0.027,0.05-0.046,0.075
		c-1.207,2.275-1.857,4.548-3.82,6.318c-2.812,2.535-0.01,5.414,2.412,6.964c1.09,0.697,2.092-1.035,1.01-1.727
		c-1.322-0.846-3.439-2.428-1.327-4.326c0.744-0.669,1.178-1.334,1.632-2.239c0.976-1.943,2.225-4.154,2.756-6.272
		c0.402-1.605-0.837-2.691-2.009-3.474c-1.881-1.257-4.005,0.06-5.977,0.074c-0.057,0-0.097,0.023-0.149,0.031
		c0.865-3.256,2.783-6.105,4.738-9.092c0.956-1.461,1.801-2.948,2.567-4.514c2.287-4.681,6.445-3.908,10.416-1.732
		c3.388,1.856,7.049,2.442,10.547,3.998c4.908,2.184,3.123,12.163,3.128,16.648c0.003,3.138,0.405,6.222-2.068,8.685
		c-0.75,0.747-1.49,1.731-1.49,2.86c0,1.908,1.781,2.917,3.392,3.496c-0.152,4.731-5.716,6.766-9.31,8.68
		c-2.456,1.309-5.021,2.347-7.678,3.172c-2.648,0.822-5.156,0.165-7.797-0.012c-6.02-0.403-4.188-3.501-4.789-7.352
		c-0.347-2.226-0.844-4.424-1.291-6.631c-0.445-2.196-0.838-4.407-0.984-6.646c-0.07-1.068-0.092-2.152-0.032-3.226
		c0.018-0.319,0.043-0.637,0.076-0.954c0.087-0.841,0.147-1.683,0.152-2.532C292.896,298.012,292.89,298.002,292.889,297.989z
		 M298.894,337.892c1.563-0.671,3.235-0.799,4.901-1.024c0.947-0.128,1.924-0.335,2.807-0.712c1.183-0.505,0.163-2.227-1.009-1.727
		c-2.137,0.912-4.494,0.69-6.691,1.367c0.057-0.129,0.117-0.256,0.162-0.392c0.668-2.01,0.689-4.118,0.674-6.215
		c1.815,1.835,2.986,2.919,6.169,2.323c1.995-0.374,3.608-0.971,4.985-1.87c0.167,0.429,0.578,0.764,1.153,0.617
		c5.496-1.399,12.708-4.783,16.293-9.969c-1.507,5.699-4.972,10.753-10.084,14.021c-2.75,1.758-5.882,2.664-8.546,4.61
		c-1.266,0.925-2.224,2.183-3.06,3.542h-8.379c-0.901-0.672-1.775-1.395-2.617-2.179
		C296.223,339.075,297.736,338.389,298.894,337.892z M312.872,327.951c0.421-0.127,1.019-1.249,1.258-1.603
		c0.209-0.31,0.447-0.634,0.606-0.973c0.104-0.222,0.096-0.552,0.227-0.745c0.203-0.298,0.896-0.497,1.206-0.659
		c0.518-0.271,1.034-0.546,1.551-0.821c4.026-2.145,8.682-4.487,8.834-9.483c0.292-0.083,0.575-0.18,0.813-0.261
		c0.401-0.137,0.831-0.149,1.267-0.123c-0.036,0.101-0.069,0.205-0.07,0.331C328.496,321.071,319.475,325.961,312.872,327.951z
		 M328.042,311.256c0.903-1.713,2.714-2.637,4.508-3.401C333.543,312.598,329.986,311.044,328.042,311.256z M291.176,288.338
		c0.826-1.202,1.103-2.35,1.328-3.777c0.41-2.601,2.482-4.217,3.828-6.325c1.177-1.843-0.073-5.36,4.152-5.051
		c1.233,0.09,1.905-0.645,2.621-1.436c2.111-2.327,2.734-3.159,6.114-3.331c2.682-0.136,5.411-0.008,8.02,0.625
		c4.081,0.989,8.953,2.555,12.673,4.574c0.353,0.209,0.707,0.417,1.06,0.625c2.598,1.705,9.423,6.922,9.115,9.038
		c-0.259,1.781-0.321,1.6,0.099,3.332c0.4,1.647,0.336,3.22,0.165,4.806c-0.11,1.021-0.385,2.009-0.441,3.044
		c-0.109,2.008,0.909,3.839,1.525,5.691c1.099,3.304-2.978,8.473-6.612,8.778c-0.131,0.011-0.239,0.053-0.343,0.099
		c0.256-0.114-0.052-2.247-0.052-2.549c0.001-0.406,0.071-0.833-0.021-1.233c-0.096-0.418-0.39-0.702-0.579-1.074
		c-0.403-0.793-0.406-1.761,0.024-2.544c0.735-1.339,3.668-0.769,2.633,0.746c-0.73,1.068,1.004,2.067,1.727,1.009
		c0.894-1.309,0.589-2.926-0.701-3.856c-1.23-0.887-2.745-0.889-4.072-0.214c-2.363,1.204-2.312,4.474-0.966,6.42
		c-2.766,1.176-5.517,2.521-6.589,5.51c-0.768-0.382-1.38-1.258-1.825-2.662c1-1.19,0.94-0.921,1.84-2.252
		c1.831-2.71,0.82-8.33,0.801-11.317c-0.022-3.469,0.749-8.158-0.728-11.54c3.759,0.721,8.385-1.148,11.194,1.908
		c0.875,0.951,2.285-0.467,1.414-1.414c-3.625-3.943-8.634-1.132-13.069-2.677c-0.39-0.136-0.697-0.018-0.91,0.201
		c-1.819-1.764-4.689-2.465-6.99-3.099c-1.094-0.301-2.358-0.893-3.709-1.56c0.181-0.02,0.363-0.037,0.543-0.069
		c3.004-0.543,6.218-3.098,9.349-1.643c1.162,0.54,2.178-1.184,1.009-1.727c-2.207-1.026-4.034-0.821-6.324-0.048
		c-1.801,0.608-3.62,1.224-5.532,1.339c-0.949,0.057-1.886-0.09-2.809-0.304c-1.406-0.326-2.743-0.686-3.275-2.185
		c-0.428-1.207-2.361-0.687-1.928,0.532c0.118,0.334,0.271,0.644,0.438,0.941c-2.071-0.138-3.952,0.56-5.345,2.861
		c-3.783,6.25-9.51,13.245-9.157,20.892c-0.201,1.107-0.582,3.195-1.589,1.278C287.403,295.113,289.118,291.331,291.176,288.338z
		 M290.413,334.316c-0.048-0.066-0.099-0.125-0.147-0.191c-0.199-0.274-0.467-0.402-0.739-0.428
		c0.022-0.046,0.052-0.083,0.066-0.139c0.72-2.898,1.779-6.555,4.259-8.497c0.222,0.485,0.508,0.903,0.845,1.261
		C292.645,327.644,291.169,332.086,290.413,334.316z M285.307,342.525h-2.52l-0.028-0.017
		C284.285,342.514,285.304,342.52,285.307,342.525z M212.756,354.892l42.222-34.433c0.112-0.091,0.261-0.141,0.42-0.141
		c0.22,0,0.429,0.094,0.591,0.29l14.97,14.974c0.019,0.025,0.025,0.054,0.04,0.081c-0.366-0.036-0.737-0.032-1.101,0.056
		c-0.746,0.177-1.414,0.609-1.881,1.217l-3.549,4.632l-36.81,28.943c-0.268,0.219-0.737,0.183-1.005-0.143l-13.998-14.51
		c-0.111-0.144-0.163-0.323-0.146-0.503C212.527,355.17,212.615,355.006,212.756,354.892z M220.646,382.261l-16.91-17.673l0,0
		c0,0-1.708-1.625-1.458-2.042c0.01-0.017,0.05-0.053,0.083-0.085c0.03-0.057,0.045-0.125,0.092-0.164l1.944-1.397
		c0.703-0.512,1.499-1.083,2.28-1.638l2.524-1.813l-0.722,0.538c1.022-0.72,1.757-1.233,1.757-1.233s0.795,1.18,1.267,1.781
		l0.023-0.017l11.765,12.2L220.646,382.261z M228.057,373.48l-2.357,10.479c-0.157,0.698-0.776,1.171-1.462,1.171
		c-0.109,0-0.22-0.012-0.331-0.037c-0.495-0.111-1.375-0.614-1.232-1.239c0.148-0.646,0.262-1.3,0.411-1.946
		c0.193-0.841,0.38-1.684,0.569-2.526c0.216-0.967,0.436-1.933,0.653-2.899c0.185-0.821,0.369-1.642,0.554-2.463
		c0.089-0.393,0.176-0.786,0.269-1.198c0.182-0.809,0.988-1.316,1.792-1.134C227.731,371.869,228.239,372.672,228.057,373.48z
		 M228.552,381.584l2.345-10.231l27.03-21.253l-15.006,19.581L228.552,381.584z M230.764,393.519l-0.011,0.013l-0.132-0.105
		l-0.348-0.225l0.026-0.031l-1.733-1.383l0.017-0.07l-0.008,0.009c-0.004-0.128,0.028-0.25,0.098-0.343l3.948-4.547
		c0.498-0.577,0.963-1.114,1.343-1.547l0.156-0.18l-0.047,0.056c0.494-0.562,0.825-0.925,0.831-0.897
		c0.017,0.086,1.085,0.884,1.72,1.353l0.006-0.007l14.262,9.156l0.089,11.841L230.764,393.519z M256.257,407.428
		c-0.192,0.705-0.748,0.876-1.56,1.133c-0.455,0.144-0.892-0.102-1.192-0.345l0,0.03l-0.177-0.115l-0.001-0.07
		c-0.129-0.125-0.212-0.226-0.212-0.226v-0.727v-10.988c1.446,0.316,2.404,0.177,2.849,0.066l0-0.016
		c0.055-0.025,0.109-0.053,0.162-0.081l0,0.054c0.078-0.025,0.13-0.044,0.13-0.044V407.428z M255.094,393.561
		c-0.209,0.271-0.646,0.366-1.011,0.092l-16.968-10.89c-0.142-0.114-0.233-0.275-0.257-0.456c-0.025-0.182,0.022-0.362,0.133-0.506
		l33.14-43.243c0.123-0.16,0.33-0.255,0.553-0.255c0.158,0,0.308,0.049,0.465,0.167l18.02,11.117
		c0.291,0.238,0.35,0.663,0.136,0.942L255.094,393.561z M258.52,404.131l-0.078-10.496l32.037-40.297
		c0.065,0.195,0.13,0.39,0.195,0.583c0.517,1.545,1.567,4.682,1.573,5.495L258.52,404.131z M322.751,369.387h-34.686l1.689-2.24
		h32.996V369.387z M322.751,364.588h-31.065l1.682-2.23h29.384V364.588z M322.751,359.798h-27.867
		c0.064-0.726-0.126-1.723-0.553-3.194h28.421V359.798z M322.756,354.044h-29.233c-0.107-0.325-0.219-0.661-0.338-1.017
		c-0.418-1.252-0.852-2.546-1.187-3.697l-0.155-0.484l-0.013,0.004c-0.225-0.556-0.591-1.036-1.096-1.421l-3.799-2.344h87.831
		l-22.812,8.051c-1.751-3.557-13.095-3.671-14.485-3.671C335.97,349.465,322.876,349.596,322.756,354.044z M325.435,359.321h-0.125
		v-2.366c3.92,1.722,11.074,1.79,12.159,1.79s8.239-0.068,12.159-1.79v2.383c-0.951,0.819-5.298,2.062-12.035,2.062
		c-7.231,0-11.714-1.433-12.192-2.236C325.411,359.18,325.435,359.238,325.435,359.321z M325.412,354.104
		c0.909-0.818,5.275-2.08,12.058-2.08s11.148,1.261,12.057,2.08c-0.909,0.819-5.274,2.08-12.057,2.08
		S326.321,354.923,325.412,354.104z M343.236,376.671c-1.649,0.205-3.578,0.338-5.766,0.338c-7.121,0-11.569-1.389-12.159-2.198
		v-2.222c3.925,1.713,11.056,1.78,12.139,1.78c0.599,0,3.052-0.021,5.787-0.33V376.671z M343.236,371.468
		c-1.653,0.207-3.59,0.341-5.787,0.341c-7.053,0-11.481-1.362-12.139-2.174v-2.137c3.93,1.703,11.034,1.77,12.115,1.77
		c0.601,0,3.065-0.022,5.811-0.334V371.468z M343.351,366.35c-1.684,0.217-3.668,0.358-5.926,0.358
		c-6.974,0-11.381-1.332-12.115-2.146v-2.45c3.891,1.777,11.187,1.848,12.284,1.848c1.074,0,8.089-0.068,12.035-1.738v0.868
		C346.659,363.639,343.921,364.615,343.351,366.35z M370.115,387.735c-0.59,0.809-5.038,2.198-12.159,2.198
		s-11.569-1.389-12.159-2.198v-2.222c3.925,1.713,11.056,1.78,12.139,1.78c1.087,0,8.264-0.069,12.18-1.799V387.735z
		 M370.115,382.512c-0.521,0.805-4.99,2.221-12.18,2.221c-7.053,0-11.481-1.362-12.139-2.174v-2.137
		c3.93,1.703,11.034,1.77,12.115,1.77c1.089,0,8.293-0.069,12.204-1.811V382.512z M370.115,377.553h-0.044
		c0-0.083,0.024-0.141,0.033-0.156c-0.478,0.802-4.961,2.236-12.192,2.236c-6.974,0-11.381-1.332-12.115-2.146v-2.45
		c3.891,1.777,11.187,1.848,12.284,1.848c1.074,0,8.089-0.068,12.035-1.737V377.553z M370.115,372.263
		c-0.951,0.819-5.298,2.062-12.035,2.062c-7.231,0-11.714-1.433-12.192-2.236c0.009,0.015,0.033,0.073,0.033,0.156h-0.125v-2.366
		c3.921,1.722,11.075,1.79,12.159,1.79s8.239-0.068,12.159-1.79V372.263z M370.013,367.029c-0.909,0.819-5.274,2.08-12.057,2.08
		s-11.148-1.261-12.058-2.08c0.909-0.818,5.275-2.08,12.058-2.08S369.104,366.21,370.013,367.029z M384.325,355.979l-19.197,6.92
		c-1.338-0.198-2.669-0.319-3.823-0.393l23.02-8.163V355.979z M384.325,351.627l-30.943,10.972
		c-0.388,0.034-0.786,0.073-1.192,0.118v-1.801l32.135-11.672V351.627z M384.325,346.521l-32.135,11.672v-2.425l32.135-11.342
		V346.521z"/>
</g>
</svg>
