<?xml version="1.0" encoding="utf-8"?>
<!-- Generator: Adobe Illustrator 17.0.2, SVG Export Plug-In . SVG Version: 6.00 Build 0)  -->
<!DOCTYPE svg PUBLIC "-//W3C//DTD SVG 1.1//EN" "http://www.w3.org/Graphics/SVG/1.1/DTD/svg11.dtd">
<svg version="1.1" id="Layer_1" xmlns="http://www.w3.org/2000/svg" xmlns:xlink="http://www.w3.org/1999/xlink" x="0px" y="0px"
	 width="612px" height="792px" viewBox="0 0 612 792" enable-background="new 0 0 612 792" xml:space="preserve">
<path fill="#231F20" d="M498.816,422.15"/>
<path fill="#A29352" d="M338.127,337.161l-1.633,4.9L329,345.309l5.995,0.25l8.493,3.747v4.746c0,0,0.999,5.495,0.749,7.244
	c-0.25,1.749-4.247,3.747-8.993,3.997c-4.746,0.25-3.997,0.25-6.744,2.498c-2.748,2.248-3.497,1.499-6.744,0.25
	c-3.247-1.249-3.497-1.749-6.245-2.248s-6.245,3.247-11.241,1.749c-4.996-1.499-6.744-6.495-6.744-6.495l2.498-6.245l4.746-3.247
	l3.247-2.498l3.247-0.5l5.995-2.498l2.248-0.25l-0.999-1.998l-6.495-2.498l-5.995-6.245l-3.172-9.76
	c-3.972-0.463-8.063-0.716-12.252-0.716c-5.589,0-11.012,0.436-16.195,1.248l2.892,7.231l1.998,13.489l0.749,13.489l3.747,7.744
	l-2.248,3.247l-6.744-0.749l-2.498-6.744l-0.749-9.492l-2.498-7.744l-1.249-6.495l-0.999-6.994l-1.899-5.006
	c-7.618,2.002-14.495,4.874-20.333,8.405v11.839l3.497,14.738l-3.997,3.497l-5.539,0.399l-0.955-4.646l2.998-6.245v-7.494
	l-2.89-7.226c-8.22,6.837-13.088,15.32-13.088,24.51c0,22.644,29.549,41,66,41s66-18.356,66-41
	C356.595,354.548,349.555,344.533,338.127,337.161z"/>
<g>
	<path fill="#A29352" d="M403.859,333.758l-0.585,0.064c-0.737,0-1.234-0.346-1.495-1.04l-4.029-10.725h-20.735l-4.03,10.725
		c-0.26,0.694-0.759,1.04-1.495,1.04l-0.585-0.064c-0.39-0.173-0.682-0.466-0.877-0.878c-0.195-0.411-0.206-0.812-0.032-1.202
		l15.795-42.186c0.303-0.649,0.845-0.975,1.625-0.975c0.779,0,1.277,0.325,1.495,0.975l15.795,42.186
		c0.172,0.39,0.172,0.791,0,1.202C404.531,333.292,404.25,333.585,403.859,333.758z M387.415,294.433l-9.23,24.439h18.396
		L387.415,294.433z"/>
	<path fill="#A29352" d="M410.229,320.822v-17.354c0-0.433,0.151-0.802,0.455-1.105c0.303-0.303,0.672-0.455,1.105-0.455
		c0.433,0,0.801,0.152,1.104,0.455c0.303,0.304,0.455,0.673,0.455,1.105v17.354c0,2.73,0.953,5.049,2.86,6.955
		c1.906,1.907,4.203,2.883,6.89,2.925c2.73-0.042,5.06-1.018,6.988-2.925c1.927-1.906,2.892-4.225,2.892-6.955v-17.354
		c0-0.433,0.163-0.802,0.488-1.105c0.324-0.303,0.703-0.455,1.137-0.455s0.802,0.152,1.105,0.455
		c0.303,0.304,0.455,0.673,0.455,1.105v17.354c0,3.598-1.268,6.663-3.803,9.197c-2.535,2.535-5.601,3.803-9.197,3.803
		c-3.598,0-6.652-1.268-9.165-3.803C411.486,327.485,410.229,324.42,410.229,320.822z"/>
</g>
<path fill="#231F20" d="M282.266,248.9c-0.561-0.009-1.082-0.116-1.502-0.51c-0.939-0.882-2.356,0.529-1.414,1.414
	c0.81,0.761,1.818,1.079,2.916,1.096C283.556,250.921,283.554,248.921,282.266,248.9z"/>
<path fill="#231F20" d="M322.437,345.297v3.615c0,1.29,2,1.29,2,0v-3.615C324.437,344.007,322.437,344.007,322.437,345.297z"/>
<path fill="#231F20" d="M322.594,338.805c-0.563-1.583-1.815-2.825-3.51-3.108c-0.537-0.09-1.075,0.133-1.23,0.698
	c-0.133,0.484,0.16,1.14,0.698,1.23c0.992,0.166,1.77,0.747,2.113,1.712C321.094,340.543,323.027,340.023,322.594,338.805z"/>
<g>
	<path fill="#231F20" d="M344.782,357.215c-0.51-2.045,0.191-3.581,0.228-5.542c0.044-2.337-0.992-3.811-2.856-5.13
		c-2.659-1.882-6.307-2.095-9.797-1.956c2.913-0.418,5.855-1.268,7.257-3.549c2.747-4.472-0.181-8.956-3.614-12.002
		c-4.652-4.127-11.295-6.917-17.428-7.463c-4.627-0.412-9.383,0.716-14.014,0.833c-4.852,0.123-8.964-4.205-13.152-6.089
		c-0.171-0.077-0.335-0.094-0.493-0.086c-0.329-2.281-1.59-4.862-2.036-6.443c-2.037-7.223-2.072-14.767-2.142-22.211
		c-0.063-6.756,0.332-12.654,2.05-19.113c0.343,0.226,0.787,0.236,1.126-0.19c1.294-1.629,1.217-3.702,2.194-5.466
		c0.163-0.295,0.161-0.578,0.065-0.821c0.06-0.108,0.124-0.21,0.182-0.32c-0.053,0.657-0.159,1.307-0.377,1.899
		c-0.448,1.213,1.486,1.731,1.929,0.532c0.526-1.424,0.502-3.154,0.502-4.648c0-0.164-0.002-0.337-0.004-0.511
		c0.609,0.349,1.681-0.19,1.54-1.147c-0.28-1.905-0.603-3.801-1.052-5.671c0.175-3.837-0.674-7.554-2.93-10.051
		c-3.373-3.733-7.872-5.774-12.865-5.413c-1.78,0.129-3.397,0.639-4.971,1.315c-0.217-0.063-0.456-0.073-0.706,0.034
		c-1.487,0.634-3.38-0.254-4.929-0.306c-1.29-0.044-1.286,1.956,0,2c0.387,0.013,0.761,0.056,1.131,0.105
		c-1.571,0.458-3.226,0.505-4.793,0.987c-0.721,0.222-0.827,0.972-0.551,1.482c-0.604,0.285-1.204,0.589-1.795,0.938
		c-0.316,0.187-0.446,0.46-0.465,0.741c-0.809-0.354-1.626-0.709-2.473-0.996c-2.112-0.713-4.487-0.352-6.618,0.023
		c-2.686,0.474-5.318,1.858-7.798,2.944c-3.327,1.456-6.5,1.942-10.005,2.652c-3.796,0.769-5.797,4.353-7.041,7.685
		c-2.399,6.43-0.914,12.876-0.662,19.512c-0.64,0.248-1.057,0.74-1.331,1.356c-3.754-1.617-6.265-5.11-9.993-6.804
		c-0.769-0.35-1.46,0.283-1.512,0.906c-0.295,0.212-0.48,0.57-0.359,1.026c1.375,5.187,7.149,7.093,11.396,9.377
		c0.006,0.209,0.013,0.415,0.016,0.6c0.016,0.923,1.041,1.174,1.616,0.774c0.879,1.129,2.212,2.268,3.65,2.965
		c-0.002,0.005-0.006,0.007-0.008,0.012c-1.898,4.921-4.609,9.386-5.355,14.678c-0.743,5.275,2.251,9.345,2.945,14.372
		c0.093,0.676,0.959,0.861,1.469,0.598c1.115-0.577,2.204-1.154,3.314-1.683c-0.016,6.116-0.098,12.226,0.578,18.315
		c0.642,5.78,3.774,10.769,5.499,16.236c0.808,2.562,0.727,4.639,0.217,6.583c-0.342,0.274-0.44,0.713-0.338,1.096
		c-0.725,2.101-1.863,4.121-2.805,6.525c-0.775,1.977,0.357,3.314,2.115,3.986c2.923,1.117,7.482,0.352,9.594-1.994
		c1.985-2.205,0.7-6.072-0.064-8.451c-2.272-7.075-2.882-13.236-2.496-20.653c0.203-3.889-0.438-7.866,0.109-11.72
		c0.295-2.078,1.587-3.624,1.953-5.666c1.684,1.152,3.538,1.758,5.719,1.781c2.317,0.025,3.868-2.011,5.711-3.381
		c3.225,7.263,8.099,14.579,7.943,22.673c-0.125,6.507,4.014,11.821,4.638,18.32c0.314,3.268-0.833,10.01,1.788,12.631
		c1.891,1.891,6.943,1.68,9.222,0.931c2.145-0.705,2.636-3.786,1.555-5.528c-2.205-3.553-3.415-6.222-3.822-10.517
		c-0.318-3.357-0.082-6.751-0.038-10.116c0.086-6.522-2.028-11.538-4.385-17.492c-2.231-5.637-1.03-11.775-3.037-17.333
		c3.097,1.954,6.264,3.788,9.644,5.259c0.083,0.036,0.162,0.038,0.243,0.053c1.041,0.757,2.172,1.536,2.952,3.035
		c0.635,1.221,2.137,2.096,3.403,1.764c2.4,2.752,5.343,4.328,8.465,6.194c3.528,2.109,4.944,7.345,7.069,10.663
		c2.845,4.442,6.825,7.055,11.737,8.017c-2.835,0.935-5.418,2.567-8.46,2.955c-0.031,0.004-0.055,0.017-0.085,0.023
		c-0.117-0.011-0.235-0.006-0.35,0.038c-0.911,0.348-1.34,1.008-1.403,1.945c-1.862,0.895-3.631,2.029-5.245,3.306
		c-2.319,1.834-1.727,4.996-3.867,6.831c-0.067,0.058-0.097,0.122-0.143,0.184c-0.228,0.21-0.345,0.52-0.187,0.915
		c1.675,4.177,4.753,6.384,9.144,7.242c1.98,0.387,3.802,0.17,5.706-0.408c2.137-0.649,3.267-1.617,5.838-1.182
		c1.647,0.279,3.562,1.58,5.203,2.182c2.199,0.807,4.39,0.722,6.598,0.094c0.971-0.276,1.91-1.061,2.728-1.632
		c1.753-1.221,4.003-0.982,6.024-1.11c3.238-0.206,6.214-1.438,7.129-4.595c0.134-0.152,0.239-0.336,0.26-0.582
		C345.452,359.893,345.137,358.638,344.782,357.215z M282.398,241.836c4.866-0.482,7.049,2.274,7.39,6.167
		c-0.128,0.637-0.25,1.275-0.406,1.904c-0.086-1.08-0.543-2.142-1.567-3.169c-2.353-2.358-6.676-3.111-9.841-3.29
		c-0.871-0.049-1.702,0.022-2.511,0.241C277.674,242.742,279.997,242.074,282.398,241.836z M228.502,281.328
		c-0.242-0.39-0.617-0.505-0.97-0.452c-0.138-1.613-0.172-3.494,1.756-3.22c1.136,0.161,3.771,0.307,4.438,1.314
		c0.579,0.875,1.816,5.512-0.047,5.687C231.882,284.827,229.378,282.742,228.502,281.328z M247.108,361.699
		c-0.107,0.982-0.528,1.893-1.515,2.576c-1.858,1.284-8.62,1.731-6.738-2.201c0.133-0.277,0.266-0.546,0.4-0.813
		c0.118-0.017,0.24-0.047,0.363-0.117c2.425-1.357,4.946-0.568,7.311,0.509C246.988,361.68,247.048,361.681,247.108,361.699z
		 M246.669,359.389c-2.021-0.789-4.084-1.222-6.13-0.729c0.316-0.679,0.608-1.366,0.849-2.09
		C243.826,356.108,246.761,356.829,246.669,359.389z M245.718,317.582c-0.143,1.933-1.405,3.885-1.973,5.759
		c-0.669,2.211-0.244,4.834-0.094,7.072c0.344,5.106-0.505,10.244-0.237,15.37c0.169,3.217,1.102,6.19,2.102,9.178
		c-1.092-0.425-2.35-0.589-3.6-0.483c0.625-3.698-0.884-7.558-2.242-10.902c-2.034-5.007-3.696-9.177-4.154-14.619
		c-0.43-5.109-0.265-10.272-0.254-15.392c0-0.175-0.041-0.322-0.104-0.449c0.543-0.218,1.095-0.424,1.665-0.605
		c4.261-1.349,6.688,2.024,9.211,4.406C245.867,317.076,245.739,317.292,245.718,317.582z M256.957,315.268
		c-3.111,3.001-6.219,3.029-9.458,0.28c-2.598-2.204-4.229-4.427-7.699-5.214c-3.179-0.721-6.739,1.32-9.606,2.898
		c-1.022-5.218-3.506-8.991-2.224-14.86c0.896-4.101,3.304-7.881,4.822-11.786c0.583,0.09,1.159,0.084,1.706-0.06
		c0.12-0.031,0.22-0.086,0.328-0.131c8.263,4.982,16.287,10.351,24.643,15.181c3.5,2.023,6.849,4.297,10.226,6.518
		c-1.272,0.749-2.175,1.457-3.184,2.559c-2.1,2.294-4.208,2.536-6.95,3.201C258.706,314.06,257.603,314.645,256.957,315.268z
		 M236.171,276.551c-0.046,0.028-0.068,0.066-0.107,0.097c-0.101,0.03-0.292,0.079-0.354,0.096
		c-0.276,0.078-0.536,0.188-0.798,0.299c0.5-7.074,4.966-12.706,5.717-19.615c0.078-0.715,5.813-0.672,7.685-0.781
		C246.411,263.749,242.755,272.647,236.171,276.551z M240.825,275.437c2.405,6.158,7.881,12.256,14.729,12.818
		c2.91,0.239,5.829-0.959,8.444-2.851c0.149,5.551,0.557,10.533,2.928,15.104c-1.775-0.854-3.546-1.71-5.265-2.638
		c-8.48-4.581-16.815-10.02-25.045-15.07c0.016-1.477-0.345-3.034-0.757-4.01c0.452-0.178,0.902-0.281,1.32-0.512
		c0,0,0.001,0,0.001,0C238.503,277.494,239.714,276.532,240.825,275.437z M280.889,364.88c0.099,0.044,0.194,0.052,0.29,0.066
		c1.061,2.14,1.716,4.624-1.582,4.65c-1.384,0.011-4.509,0.117-5.084-1.465c-0.195-0.536-0.325-1.117-0.427-1.717
		c0.007-0.009,0.015-0.016,0.021-0.025C275.432,364.476,278.863,363.974,280.889,364.88z M279.796,362.471
		c0.017,0.031,0.04,0.07,0.059,0.102c-2.069-0.305-4.334,0.135-6.011,1.338c-0.049-1.254-0.031-2.517-0.058-3.683
		c1.938-0.471,3.451-0.007,5.393,0.65C279.338,361.455,279.536,362.003,279.796,362.471z M278.261,341.687
		c0.434,5.049-0.195,10.112,0.285,15.175c0.052,0.544,0.113,1.152,0.195,1.775c-1.732-0.532-3.284-0.811-5.067-0.445
		c-0.319-4.222-1.168-8.181-3.147-11.994c-2.543-4.898-0.728-10.4-2.844-15.458c-0.07-0.168-0.148-0.333-0.219-0.5
		c1.438,0.801,2.878,1.616,3.696,3.11c0.313,0.572,1.121,0.644,1.571,0.202c1.169-1.147,1.62-2.487,1.796-3.918
		C276.036,333.556,277.88,337.268,278.261,341.687z M273.09,325.197c0.015,0.061,0.033,0.12,0.048,0.181
		c-0.289,0.145-0.511,0.416-0.508,0.84c0.014,1.697,0.198,3.469-0.593,4.936c-1.222-1.389-2.907-2.232-4.53-3.189
		c-0.382-0.225-0.745-0.158-1.021,0.039c-1.845-4.143-3.855-8.215-5.684-12.366c0.137-0.048,0.274-0.095,0.416-0.129
		c1.829-0.443,3.324-0.64,4.938-1.671c1.738-1.109,2.651-2.866,4.492-3.98C272.871,314.616,271.859,320.143,273.09,325.197z
		 M270.298,302.149c-3.765-5.022-4.141-10.606-4.304-16.902c-0.012-0.476-0.295-0.774-0.643-0.898
		c3.068-2.602,5.589-6.069,6.961-9.079c0.005-0.002,0.01-0.002,0.014-0.004c1.135-0.589,2.352-1.121,3.549-1.695
		c0.097,2.571,0.594,4.921,1.284,7.431c1.103,4.014,0.526,7.405,0.268,11.476c-0.354,5.602,2.31,10.572,2.717,15.998
		C277.219,305.831,273.814,303.903,270.298,302.149z M287.006,316.587c-0.551-1.059-1.019-1.555-2.039-2.159
		c-3.495-2.07-2.478-6.964-3.492-10.658c-0.582-2.119-1.306-4.176-1.81-6.319c-0.813-3.457,0.126-6.941,0.441-10.395
		c0.008-0.083,0.007-0.165,0.013-0.248c0.575,0.507,1.269,0.863,2.082,1.011c0.536,0.098,1.076-0.139,1.23-0.698
		c0.135-0.49-0.162-1.132-0.698-1.23c-0.99-0.181-1.554-0.66-2.013-1.549c-0.175-0.338-0.45-0.472-0.733-0.486
		c-0.518-3.619-2.097-7.197-2.143-10.858c-0.002-0.153-0.036-0.285-0.087-0.401c1.685-0.966,3.194-2.153,4.168-3.914
		c0.625-1.129-1.103-2.138-1.727-1.009c-1.258,2.275-3.673,3.477-6.06,4.554c-0.036-0.007-0.068-0.023-0.105-0.028
		c-1.457-0.193-2.576-1.115-3.354-2.316c-0.698-1.078-2.43-0.077-1.727,1.009c0.711,1.099,1.589,1.943,2.639,2.517
		c-0.074,0.037-0.153,0.072-0.225,0.109c-0.295,0.079-0.564,0.275-0.707,0.62c-2.263,5.472-7.34,10.077-12.973,11.833
		c-6.793,2.119-13.307-6.337-15.224-11.833c-0.041-0.119-0.107-0.208-0.174-0.294c4.013-4.751,6.523-11.249,8.006-16.848
		c0.074-0.278,0.023-0.513-0.085-0.708c2.74-0.777,5.294-2.492,7.659-3.916c1.103-0.664,0.098-2.394-1.009-1.727
		c-3.878,2.335-7.572,4.508-12.286,4.225c-1.547-0.093-4.54-0.431-5.553,1.258c-0.276,0.461-0.322,0.766-0.389,1.301
		c-0.338,2.69-1.568,5.246-2.605,7.723c-1.55,3.701-2.723,7.231-3.069,11.163c-1.13-0.374-2.391-0.516-3.548-0.648
		c-0.216-5.228-1.246-10.401-0.42-15.628c0.42-2.66,1.857-5.729,3.575-7.824c1.854-2.259,6.186-2.182,8.797-2.755
		c6.167-1.354,10.924-5.844,17.65-4.572c4.026,0.762,6.305,3.279,10.502,2.435c0.16,0.194,0.392,0.337,0.703,0.365
		c1.688,0.154,2.659-0.641,4.12-1.342c3.096-1.484,6.208-0.751,9.346,0.338c3.101,1.076,4.061,2.803,3.355,5.184
		c-0.556-0.427-1.243-0.698-1.893-0.923c-0.327-0.113-0.738,0.014-0.973,0.257c-1.081,1.118-1.741,2.462-2.165,3.937
		c-0.4-0.155-0.865-0.285-1.308-0.455c0.004-0.307,0.033-0.598,0.203-0.875c0.675-1.103-1.055-2.107-1.727-1.009
		c-0.072,0.117-0.12,0.239-0.172,0.36c-0.683-1.382-0.969-2.997-1.695-4.366c-0.247-0.465-0.677-0.56-1.063-0.447
		c-0.353-0.342-0.901-0.443-1.311,0.043c-1.833,2.177-5.26,3.281-5.421,6.62c-0.07,1.445,0.309,2.687,0.908,3.834
		c-0.194,0.607-0.296,1.251-0.107,1.844c-0.261,0.818-0.138,1.72,0.371,2.459c0.309,0.448,0.871,0.65,1.368,0.359
		c0.062-0.036,0.108-0.095,0.16-0.145c0.06,0.058,0.116,0.12,0.177,0.177c-0.058,0.156-0.105,0.317-0.177,0.468
		c-0.236,0.491-0.14,1.076,0.359,1.368c0.441,0.258,1.132,0.133,1.368-0.359c0.029-0.06,0.046-0.123,0.073-0.183
		c0.285,0.194,0.565,0.373,0.827,0.519c0.026,0.015,0.052,0.027,0.078,0.041c-0.205,0.372-0.121,0.894,0.168,1.183
		c0.417,0.417,0.99,0.341,1.414,0c0.015-0.012,0.024-0.027,0.039-0.039c0.821,0.494,1.755,0.716,2.826,0.411
		c0.525-0.149,0.941-0.415,1.284-0.756c0.512-0.231,1.027-0.559,1.551-1.01c1.444-1.245,1.659-2.921,0.914-4.346
		c0.082-0.136,0.169-0.267,0.263-0.387c0.055-0.07,0.097-0.143,0.132-0.216c-0.063,0.358,0.053,0.74,0.464,0.975
		c5.21,2.989,2.427,7.711,1.282,12.131c-1.154,4.451-0.53,9.684-0.516,14.238c0.029,9.399,0.572,18.428,3.664,27.372
		C288.99,316.657,288.293,319.061,287.006,316.587z M285.974,254.175c-0.493,0.877-1.009,1.734-1.49,2.61
		c-0.037-0.053-0.055-0.11-0.106-0.161c-0.195-0.196-0.396-0.365-0.601-0.521c0.016-0.041,0.043-0.067,0.055-0.112
		c0.256-0.981,0.613-1.882,1.183-2.682C285.301,253.633,285.593,253.95,285.974,254.175z M308.153,332.566
		c-0.803-1.319-0.336-2.202,0.357-3.45c0.088-0.158,0.121-0.311,0.126-0.459c4.228-3.836,11.044-4.74,16.348-2.812
		c6.347,2.307,10.448,4.861,10.384,12.02c0,0.021-0.007,0.037-0.008,0.057c-0.072,0.079-0.14,0.163-0.223,0.227
		c-0.354,0.271-0.778,0.372-1.214,0.411c0.029-0.098,0.058-0.196,0.054-0.317c-0.215-6.489-4.923-10.678-11.221-11.561
		c-4.584-0.643-12.326-0.093-13.665,5.408c-0.06,0.248-0.016,0.457,0.068,0.64c-0.303,0.036-0.605,0.073-0.92,0.072
		C308.214,332.724,308.202,332.647,308.153,332.566z M308.817,334.748c-0.036-0.053-0.074-0.102-0.109-0.156
		c1.098-0.367,2.116-0.804,3.184-1.336c2.501-1.246,5.141-1.174,7.856-1.212c2.99-0.042,5.274,0.786,7.129,2.256
		c-0.074-0.017-0.141-0.045-0.226-0.045c-0.495,0-1.066,0.458-1,1c0.119,0.974-0.017,1.784-0.711,2.506
		c-0.893,0.93,0.519,2.346,1.414,1.414c1.037-1.08,1.479-2.434,1.297-3.92c-0.016-0.131-0.05-0.256-0.097-0.373
		c1.427,1.326,2.587,3.071,3.638,5.089c-0.225,0.177-0.327,0.433-0.334,0.699c-0.846,0.197-1.657,0.321-2.315,0.376
		c-0.35-0.258-0.823-0.305-1.192,0.129c-0.041,0.048-0.075,0.096-0.114,0.144c-0.087,0.076-0.157,0.164-0.209,0.266
		c-2.096,2.769-1.999,5.937-1.978,9.335c0,0.054,0.023,0.092,0.03,0.142c-1.115,0.424-2.577,0.063-3.731-0.563
		c0.011-0.042,0.035-0.069,0.042-0.116c0.48-3.366,1.334-6.871-0.904-9.808c-0.347-0.455-0.888-0.502-1.309-0.325
		C316.732,339.084,312.17,337.133,308.817,334.748z M343.295,360.737c-0.874,4.806-6.757,3.623-10.247,4.227
		c-1.183,0.205-2.281,1.054-3.223,1.71c-3.458,2.41-7.139,0.508-10.359-1.008c-2.563-1.207-4.67-0.851-7.211,0.112
		c-5.087,1.929-11.001,0.775-13.42-4.495c0.668-0.672,1.12-1.404,1.467-2.339c0.466-1.256,0.415-2.515,1.386-3.555
		c1.533-1.643,3.953-2.89,5.986-3.805c0.55-0.248,0.609-0.752,0.405-1.168c0.01-0.055,0.035-0.099,0.036-0.16
		c0.004-0.147-0.006-0.123,0.006-0.167c4.119-0.583,7.512-3.431,11.701-3.591c0.039-0.001,0.066-0.02,0.102-0.025
		c-0.083,1.028-0.268,2.072-0.423,3.109c-0.739,0.125-1.307,1.033-0.587,1.644c2.507,2.125,7.49,3.309,9.202-0.403
		c0.389-0.844-0.411-1.6-1.086-1.509c-0.006-0.82,0.013-1.635,0.095-2.433c0.045,0.003,0.079,0.022,0.128,0.02
		c4.01-0.204,8.063-0.603,11.983,0.5c1.116,0.314,2.029,0.887,2.883,1.652c1.846,1.654,0.43,3.591,0.411,5.352
		c-0.022,2.109,0.782,4.148,0.813,6.213C343.33,360.66,343.304,360.688,343.295,360.737z"/>
	<path fill="#231F20" d="M264.456,266.329c1.197-0.447,0.679-2.381-0.532-1.928c-3.148,1.175-6.917-0.969-8.712-3.557
		c-0.729-1.052-2.464-0.053-1.727,1.009C255.758,265.129,260.44,267.828,264.456,266.329z"/>
	<path fill="#231F20" d="M260.711,262.312c1.246,0.34,1.774-1.59,0.532-1.929c-0.094-0.026-0.191-0.055-0.286-0.087
		c-0.003-0.234-0.083-0.466-0.277-0.66c-0.358-0.358-1.067-0.421-1.414,0c-0.411,0.498-0.588,1.141-0.183,1.712
		C259.466,261.888,260.093,262.143,260.711,262.312z"/>
	<path fill="#231F20" d="M256.092,273.036c-1.254,0.3-0.722,2.228,0.532,1.928c1.27-0.304,2.539-0.628,3.832-0.779
		c-1.176,1.849-1.672,4.098-3.198,5.735c-0.878,0.942,0.533,2.359,1.414,1.414c1.912-2.05,2.224-5.09,4.218-7.029
		c0.016-0.015,0.019-0.033,0.033-0.049c1.459,0.386,2.591,1.483,3.573,2.66c0.828,0.991,2.235-0.432,1.414-1.414
		C264.55,271.479,260.795,271.911,256.092,273.036z"/>
	<path fill="#231F20" d="M242.195,321.695c-1.6,1.433-1.007,4.002-1.385,5.884c-0.193,0.961-1.189,1.225-1.705,0.293
		c-0.514-0.929-0.286-2.417-0.059-3.397c0.291-1.255-1.637-1.788-1.929-0.532c-0.655,2.827-0.167,7.089,3.707,6.399
		c1.379-0.246,1.888-1.79,2.036-2.98c0.146-1.176-0.218-3.387,0.748-4.253C244.572,322.247,243.152,320.837,242.195,321.695z"/>
	<path fill="#231F20" d="M337.5,348.711c-0.542,6.388-7.67,5.602-12.23,5.601c-5.369-0.002-11.231,0.635-16.19-1.845
		c-1.15-0.575-2.163,1.15-1.009,1.727c6.351,3.176,13.97,2.016,20.833,2.168c5.235,0.116,10.119-2.018,10.596-7.651
		C339.609,347.425,337.608,347.436,337.5,348.711z"/>
</g>
<g>
	<path fill="#231F20" d="M329.134,294.538c0.032,0.018,0.064,0.034,0.095,0.048c0.44,0.199,0.909,0.025,1.14-0.424
		c0.222-0.434,0.163-1.066-0.385-1.382c-0.531-0.306-1.118-0.86-1.299-1.426c0.232,0.077,0.638,0.305,0.882,0.453
		c0.491,0.304,1.117-0.026,1.319-0.473c0.212-0.468,0.027-0.982-0.46-1.278c-0.271-0.165-0.501-0.288-0.724-0.389
		c-0.584-0.264-1.103-0.359-1.589-0.292c-0.747,0.104-1.303,0.672-1.416,1.445C326.465,292.394,327.865,293.806,329.134,294.538z"/>
	<path fill="#231F20" d="M356.954,301.247c0.458-2.124,0.318-4.385-0.359-6.448c-0.345-1.052-0.802-2.121-1.399-3.055
		c-0.577-0.903-1.366-1.645-1.946-2.548c-0.595-0.928-1.192-1.829-1.947-2.639c-2.858-3.071-6.556-5.646-10.99-7.653
		c-8.442-3.821-18.821-5.197-27.765-3.68c-2.31,0.392-4.251,1.116-5.769,2.153c-3.468,2.369-5.621,6.048-6.064,10.358
		c-0.5,4.866,1.252,9.898,4.683,13.461c2.881,2.99,7.045,5.804,11.726,7.923c3.202,1.449,6.528,2.525,9.618,3.111
		c8.521,1.616,17.398,0.588,23.746-2.75C353.9,307.686,356.196,304.763,356.954,301.247z M305.554,281.055
		c0.233-0.189,0.472-0.383,0.709-0.596c1.859-1.675,3.49-2.806,5.988-3.319c2.336-0.479,4.714-0.624,7.094-0.522
		c1.184,0.051,2.37,0.12,3.552,0.204c5.746,0.409,11.172,1.756,16.588,4.118c0.206,0.09,0.412,0.181,0.618,0.274
		c8.344,3.777,12.692,8.603,13.292,14.753c0.395,4.041-2.027,7.278-6.646,8.882c-6.956,2.415-16.449,1.789-28.217-1.86
		c-1.311-0.407-2.851-0.912-4.324-1.579c-2.294-1.038-3.98-2.258-5.308-3.839c-1.611-1.918-3.003-4.16-3.965-6.469
		c-0.927-2.225-1.912-5.25-1.236-7.664C304.017,282.299,304.75,281.705,305.554,281.055z M346.205,309.214
		c-5.885,2.086-13.177,2.373-20.533,0.81c-2.142-0.456-4.437-1.233-6.82-2.312c-3.592-1.626-7.317-3.921-10.487-6.462
		c-3.746-3.002-5.674-6.767-5.747-11.208c0.392,1.189,0.911,2.442,1.55,3.741c2.248,4.574,5.165,7.55,9.181,9.368l0.208,0.092
		c10.004,4.386,22.036,5.954,31.398,4.092c3.248-0.646,7.541-2.269,9.553-6.327c0.384-0.774,0.652-1.61,0.8-2.502
		C355.276,303.037,351.848,307.212,346.205,309.214z"/>
	<path fill="#231F20" d="M321.179,289.801c-0.072,1.988,0.765,3.902,1.573,5.753c0.678,1.553,1.379,3.158,1.531,4.785
		c0.154,1.651,0.623,3.749,1.984,4.365c0.596,0.27,1.299,0.224,2.087-0.136c3.484-1.591,3.837-4.336,3.179-7.965
		c0.04,0.006,0.081,0.01,0.123,0.011c1.222,0.03,2.42,0.328,3.768,0.938c1.043,0.472,2.062,1.082,3.048,1.672
		c1,0.599,2.035,1.217,3.11,1.704c1.478,0.669,2.8,0.985,4.161,0.996c0.438,0.003,0.767-0.25,0.857-0.661
		c0.139-0.624-0.35-1.278-1.004-1.285c-1.245-0.009-2.47-0.306-3.855-0.933c-1.035-0.468-2.052-1.075-3.036-1.661
		c-1.005-0.599-2.044-1.219-3.124-1.708c-1.304-0.59-3.131-1.303-4.578-0.872c-0.076,0.023-0.122,0.171-0.182,0.187
		c-0.12,0.032-0.231-0.046-0.338-0.022c-0.59,0.133-1.215,0.256-1.044,1.061c0.196,0.927,0.341,1.798,0.443,2.63l-0.02,1.573
		c-2.089,1.838-2.887,1.896-3.176,1.766c-0.301-0.136-0.371-0.643-0.38-1.076c-0.056-0.386-0.1-0.768-0.144-1.146
		c-0.11-0.955-0.224-1.941-0.524-2.923c-0.317-1.042-0.775-2.054-1.217-3.032c-0.231-0.509-0.46-1.017-0.67-1.528
		c-0.574-1.394-0.635-2.496-0.184-3.368c0.528-1.024,1.793-1.755,3.866-2.236c0.322-0.075,0.589-0.266,0.731-0.523
		c0.131-0.237,0.149-0.507,0.053-0.782c-0.428-1.229-0.833-2.39-1.539-3.52c-0.339-0.542-1.09-0.558-1.512-0.074
		c-0.3,0.344-0.338,0.796-0.098,1.18c0.434,0.694,0.726,1.421,0.962,2.074C323.774,285.672,321.289,286.805,321.179,289.801z"/>
	<path fill="#231F20" d="M334.262,287.137c0.269,0.122,0.576,0.195,0.915,0.22c0.424,0.031,0.811-0.007,1.185-0.044
		c0.645-0.063,1.202-0.118,1.847,0.165l0.082,0.037c1.126,0.51,2.464,1.443,2.529,2.396c0.034,0.506-0.313,0.992-1.033,1.443
		c-0.236,0.149-0.381,0.383-0.411,0.659c-0.033,0.315,0.091,0.653,0.325,0.883c1.142,1.117,2.208,1.868,3.455,2.432
		c0.222,0.101,0.453,0.196,0.69,0.286c0.587,0.223,1.101-0.131,1.286-0.577c0.203-0.489,0.021-0.977-0.444-1.187l-0.065-0.027
		c-1.004-0.38-1.881-0.896-2.76-1.618c0.7-0.682,1.081-1.447,1.106-2.228c0.025-0.802-0.322-1.567-1.033-2.273
		c-0.514-0.51-1.553-1.446-2.73-1.979c-0.32-0.145-0.633-0.251-0.931-0.317c-0.509-0.112-1.024-0.12-1.479-0.126
		c-0.527-0.008-1.025-0.015-1.394-0.181c-0.331-0.15-0.722-0.474-0.818-1.666c-0.028-0.353-0.219-0.634-0.523-0.772
		c-0.327-0.148-0.731-0.108-1.03,0.102c-0.277,0.195-0.419,0.509-0.391,0.861C332.752,285.019,332.979,286.556,334.262,287.137z"/>
	<path fill="#231F20" d="M319.539,296.975c1.276,0.102,1.6-1.873,0.311-1.976c-3.655-0.293-6.659-2.403-7.84-5.927
		c-1.491-4.449,2.501-6.66,6.375-6.523c1.271,0.045,1.6-1.931,0.311-1.976c-4.716-0.166-9.075,1.915-8.941,7.177
		C309.886,292.862,314.797,296.594,319.539,296.975z"/>
</g>
<g>
	<path fill="#231F20" d="M333.534,276.455c0.037,0.003,0.072,0.005,0.106,0.005c0.483,0,0.838-0.352,0.863-0.856
		c0.023-0.487-0.291-1.038-0.921-1.1c-0.61-0.06-1.373-0.322-1.771-0.763c0.243-0.026,0.707,0.015,0.99,0.049
		c0.572,0.075,1.007-0.484,1.007-0.975c0-0.514-0.38-0.906-0.946-0.975c-0.314-0.039-0.575-0.056-0.82-0.056
		c-0.641,0-1.153,0.127-1.568,0.389c-0.638,0.403-0.91,1.149-0.694,1.9C330.219,275.602,332.076,276.312,333.534,276.455z"/>
	<path fill="#231F20" d="M335.154,267.598c0.295,0,0.605-0.06,0.924-0.177c0.399-0.146,0.736-0.341,1.062-0.528
		c0.562-0.323,1.046-0.603,1.751-0.611l0.09,0c1.236,0,2.84,0.298,3.292,1.14c0.239,0.447,0.124,1.032-0.346,1.74
		c-0.153,0.232-0.189,0.506-0.103,0.77c0.1,0.301,0.353,0.558,0.66,0.67c1.501,0.547,2.781,0.791,4.15,0.791
		c0.244,0,0.493-0.008,0.747-0.024c0.627-0.04,0.949-0.574,0.934-1.056c-0.017-0.529-0.384-0.898-0.895-0.898l-0.07,0.002
		c-1.071,0.068-2.083-0.041-3.182-0.336c0.356-0.91,0.388-1.764,0.089-2.486c-0.308-0.741-0.939-1.295-1.879-1.645
		c-0.679-0.253-2.011-0.677-3.304-0.677c-0.352,0-0.681,0.032-0.979,0.095c-0.51,0.108-0.982,0.313-1.399,0.495
		c-0.483,0.21-0.94,0.409-1.345,0.41c-0.363,0-0.854-0.134-1.433-1.18c-0.171-0.31-0.461-0.487-0.795-0.487
		c-0.359,0-0.711,0.203-0.896,0.518c-0.172,0.292-0.172,0.636-0.001,0.946C332.905,266.291,333.746,267.598,335.154,267.598z"/>
	<path fill="#231F20" d="M314.283,275.555c-0.136-2.391,1.965-4.544,4.514-5.591c1.176-0.483,0.662-2.419-0.532-1.929
		c-3.693,1.517-6.476,4.398-5.861,8.117L314.283,275.555z"/>
	<path fill="#231F20" d="M361.646,271.095c-0.695-3.219-2.763-6.04-5.459-7.894c-0.845-0.581-1.856-0.85-2.706-1.43
		c-0.97-0.662-1.952-1.273-3.039-1.728c-3.87-1.619-8.301-2.44-13.168-2.44c-9.267,0-19.289,3.027-26.812,8.097
		c-1.943,1.31-3.413,2.77-4.368,4.34c-2.038,3.352-2.54,7.271-1.479,11.123l4.429-3.824c-0.363-0.401-1.029-0.54-1.448-0.081
		c-0.021-0.043-0.039-0.086-0.067-0.129c-0.507-0.781-0.534-1.617-0.532-2.516c0.002-1.182,0.132-2.139,0.623-3.215
		c0.236-0.517,0.516-1.014,0.852-1.473c0.686-0.934,1.583-1.684,2.517-2.359c1.933-1.397,4.039-2.513,6.248-3.403
		c1.096-0.442,2.203-0.865,3.311-1.275c5.403-1.997,10.902-3.007,16.811-3.089c0.225-0.003,0.45-0.005,0.676-0.005
		c9.159,0,15.11,2.604,18.193,7.959c2.026,3.518,1.154,7.466-2.393,10.832c-2.168,2.057-4.934,3.826-8.261,5.309l1.685,1.211
		c2.156-1.053,4.169-2.227,5.968-3.515c2.692-1.928,5.935-5.176,6.094-9.703c0.03-0.864-0.07-1.736-0.303-2.61
		c1.838,4.141,0.437,9.358-3.879,13.509c-1.568,1.507-3.393,2.876-5.401,4.101l1.711,1.23c3.075-1.98,5.721-4.308,7.703-6.855
		C361.519,278.221,362.404,274.61,361.646,271.095z M306.444,278.631c-0.011-0.023-0.023-0.047-0.033-0.07
		c0.026,0.006,0.049,0.024,0.076,0.027C306.472,278.603,306.458,278.617,306.444,278.631z"/>
	<g>
		<path fill="#231F20" d="M335.299,278.942l2.806,1.174c-0.341-0.898-0.873-1.815-1.533-2.77c0.039-0.011,0.078-0.025,0.116-0.041
			c1.126-0.477,2.34-0.699,3.819-0.699c1.145,0,2.324,0.135,3.466,0.266c1.158,0.133,2.355,0.27,3.536,0.27
			c1.622,0,2.957-0.257,4.201-0.809c0.4-0.178,0.596-0.544,0.508-0.956c-0.131-0.625-0.846-1.021-1.444-0.756
			c-1.138,0.505-2.376,0.74-3.896,0.74c-1.136,0-2.312-0.133-3.451-0.261c-1.162-0.131-2.364-0.268-3.55-0.268
			c-0.995,0-1.985,0.101-2.947,0.357c-0.521,0.138-0.931,0.45-1.375,0.736c-0.393,0.254-1.005,0.429-1.228,0.868
			c-0.145,0.286-0.108,0.611,0.1,0.894C334.739,278.116,335.026,278.531,335.299,278.942z"/>
		<path fill="#231F20" d="M324.333,275.419c0.052,0.128,0.117,0.249,0.177,0.373l2.677,0.282c-0.725-0.831-1.081-1.635-1.039-2.437
			c0.059-1.151,0.909-2.338,2.6-3.631c0.263-0.202,0.427-0.485,0.45-0.778c0.021-0.27-0.073-0.523-0.274-0.734
			c-0.896-0.943-1.744-1.834-2.854-2.572c-0.532-0.354-1.223-0.059-1.408,0.556c-0.132,0.437,0.021,0.865,0.397,1.116
			c0.682,0.453,1.247,0.995,1.731,1.493C324.995,270.587,323.198,272.645,324.333,275.419z"/>
	</g>
</g>
</svg>
