<?xml version="1.0" encoding="utf-8"?>
<!-- Generator: Adobe Illustrator 17.0.2, SVG Export Plug-In . SVG Version: 6.00 Build 0)  -->
<!DOCTYPE svg PUBLIC "-//W3C//DTD SVG 1.1//EN" "http://www.w3.org/Graphics/SVG/1.1/DTD/svg11.dtd">
<svg version="1.1" id="Layer_1" xmlns="http://www.w3.org/2000/svg" xmlns:xlink="http://www.w3.org/1999/xlink" x="0px" y="0px"
	 width="612px" height="792px" viewBox="0 0 612 792" enable-background="new 0 0 612 792" xml:space="preserve">
<path fill="#5A835F" d="M315.125,291.554v8.071h-16.25V289.25h9.894c-9.013-2.869-19.218-4.497-30.042-4.497
	c-13.468,0-25.987,2.511-36.428,6.814l2.45,0.684l6.875,0.375l6,1.75l-6.25,13.5l-20.5-1l-5.219-5.494
	c-8.121,6.813-12.929,15.242-12.929,24.371c0,22.644,29.549,41,66,41c36.451,0,66-18.356,66-41
	C344.727,311.467,332.96,298.894,315.125,291.554z M282.5,331.625h-27.375V320.5H282.5V331.625z"/>
<path fill="#231F20" d="M498.816,422.15"/>
<path fill="#231F20" d="M329.008,290.48l-19.294-33.933c1.898-0.535,3.066-2.728,4.043-4.252c1.048-1.634-1.55-3.137-2.59-1.514
	c-0.483,0.753-1.589,2.829-2.388,2.928c-1.4,0.173-2.939-0.216-4.349-0.229c-0.024,0-0.043,0.005-0.066,0.006l0-0.005l-16.123,0.712
	l-9.619-3.092v-12.995c1.843-0.264,3.125-1.843,3.618-4.3c0.379-1.889-2.512-2.694-2.893-0.798c-0.29,1.448-0.432,2.577-1.973,2.036
	c-1.323-0.464-2.509-1.347-3.806-1.894c-4.152-1.749-5.164,2.898-5.277,6.01h-0.012v0.433c0,0.003,0,0.006,0,0.009
	c0,0.001,0,0.002,0,0.003v14.241l-3.824,1.396l-15.515,0.685c-0.202-0.105-0.443-0.168-0.732-0.155
	c-1.82,0.079-3.359,0.666-4.945,1.529c-2.15,1.171-3.199,0.935-5.01-0.86c-1.375-1.363-3.497,0.758-2.121,2.121
	c1.205,1.194,2.461,2.127,3.956,2.443L220.78,296.69c-0.831,0.88-1.355,1.823-1.519,2.807l-0.053,0.098l0.032,0.017
	c-0.025,0.181-0.04,0.364-0.04,0.547c0,5.256,10.276,9.517,22.952,9.517c3.44,0,6.701-0.316,9.63-0.878l0.855,0.056l0.105-0.252
	c7.344-1.587,12.362-4.771,12.362-8.443c0-1.264-0.599-2.469-1.678-3.572l-20.349-35.786c1.475-0.525,2.717-1.557,4.273-1.909
	l0.005,0.111l19.501-0.862l1.423,0.528v55.884c-0.279,0.009-0.56,0.007-0.837,0.022c-6.48,0.349-11.232,2.292-15.408,6.299
	c-2.874,2.758-7.625,8.274-7.161,14.234c0.019,0.245,0.094,0.468,0.228,0.676c-0.009,0.39,0.146,0.754,0.447,1.042
	c5.445,5.205,13.319,7.735,24.071,7.735c0,0,0,0,0.001,0c3.032,0,6.339-0.201,10.11-0.614c5.788-0.635,12.856-3.028,15.335-7.839
	c1.392-2.701,1.136-5.788-0.759-9.176c-4.112-7.35-12.64-11.892-23.027-12.365v-54.786l5.614,2.083l8.339-4.535l19.217-0.849
	c0.773,0.009,1.59,0.118,2.408,0.193l-18.298,33.818c-1.733,1.339-2.719,2.869-2.719,4.495c0,5.256,10.276,9.517,22.952,9.517
	c12.676,0,22.952-4.261,22.952-9.517C331.742,293.356,330.751,291.821,329.008,290.48z M234.793,302.658l-5.934-3.662l10.939-6.685
	l1.562,0.411l-5.402,9.111L234.793,302.658z M244.41,293.461l2.815,0.17l-6.406,10.805l-2.806-0.185L244.41,293.461z
	 M250.211,294.477l5.02,0.303l-4.541,10.94l-6.875-0.453L250.211,294.477z M257.309,291.899l-3.763-0.227l0.269-0.649l-9.24-0.557
	l-5.251-1.382l-3.093,1.89c-3.937,0.434-7.465,1.283-10.268,2.44l15.703-29.023L257.309,291.899z M278.792,323.236h3
	c0,3.603-5.232,6.319-12.171,6.319c-6.938,0-12.171-2.717-12.171-6.319h3c0,1.321,3.658,3.319,9.171,3.319
	C275.134,326.556,278.792,324.558,278.792,323.236z M275.621,251.167l-4.343,1.586v-13.164c0.008-0.665,0.102-3.884,0.678-3.795
	c1.274,0.198,2.452,1.154,3.591,1.707c0.025,0.012,0.049,0.02,0.075,0.032V251.167z M305.654,298.075c0,0-5.277-0.754-4.146-3.015
	l0.188-0.565c0,0,6.973-3.015,7.727-2.827c0.754,0.188,2.261,0.754,2.827,2.073C312.816,295.06,305.654,298.075,305.654,298.075z
	 M308.79,285.47c-5.948,0-11.368,0.938-15.445,2.477l15.004-27.731l15.738,27.677C320.027,286.387,314.667,285.47,308.79,285.47z"/>
<g>
	<path fill="#5A835F" d="M363.49,247.022c0-0.433,0.151-0.801,0.455-1.105c0.303-0.302,0.672-0.455,1.105-0.455
		c0.433,0,0.801,0.152,1.104,0.455c0.303,0.304,0.455,0.672,0.455,1.105v2.6c4.073,0.348,7.931,1.864,11.57,4.55
		c0.606,0.477,0.91,0.954,0.91,1.43c0,0.478-0.163,0.877-0.487,1.203c-0.325,0.325-0.716,0.487-1.171,0.487
		c-0.454,0-0.855-0.151-1.202-0.455c-3.033-2.427-6.283-3.835-9.75-4.225v18.2c4.94,1.04,8.515,2.525,10.725,4.453
		c2.211,1.929,3.315,4.55,3.315,7.865c0,3.315-1.3,6.088-3.9,8.32c-2.6,2.232-5.937,3.413-10.01,3.542v5.07
		c0,0.433-0.152,0.801-0.455,1.105c-0.304,0.303-0.672,0.455-1.104,0.455c-0.434,0-0.803-0.152-1.105-0.455
		c-0.304-0.304-0.455-0.672-0.455-1.105v-5.135c-5.417-0.433-10.292-2.535-14.625-6.305c-0.477-0.39-0.715-0.823-0.715-1.3
		c0-0.477,0.163-0.877,0.487-1.203c0.325-0.325,0.716-0.487,1.17-0.487c0.455,0,0.834,0.152,1.138,0.455
		c3.727,3.467,7.951,5.438,12.675,5.915v-18.525c-4.854-1.083-8.363-2.578-10.529-4.485c-2.168-1.906-3.25-4.495-3.25-7.768
		c0-3.271,1.288-6.022,3.867-8.255c2.578-2.231,5.839-3.39,9.782-3.478V247.022z M356.048,254.953
		c-1.929,1.647-2.893,3.651-2.893,6.013c0,2.362,0.736,4.247,2.21,5.655c1.473,1.409,4.226,2.59,8.255,3.542v-17.745
		C360.501,252.461,357.976,253.306,356.048,254.953z M374.248,289.5c1.972-1.667,2.957-3.715,2.957-6.142
		c0-2.427-0.77-4.344-2.307-5.753c-1.539-1.407-4.346-2.567-8.418-3.478v17.94C369.687,292.025,372.275,291.169,374.248,289.5z"/>
</g>
</svg>
