<?xml version="1.0" encoding="utf-8"?>
<!-- Generator: Adobe Illustrator 17.0.2, SVG Export Plug-In . SVG Version: 6.00 Build 0)  -->
<!DOCTYPE svg PUBLIC "-//W3C//DTD SVG 1.1//EN" "http://www.w3.org/Graphics/SVG/1.1/DTD/svg11.dtd">
<svg version="1.1" id="Layer_1" xmlns="http://www.w3.org/2000/svg" xmlns:xlink="http://www.w3.org/1999/xlink" x="0px" y="0px"
	 width="252px" height="252px" viewBox="180 270 252 252" enable-background="new 180 270 252 252" xml:space="preserve">
<path fill="#5A835F" d="M338.446,428.461c-1.351-1.557-2.858-3-3.935-3.195c-2.451-0.446-9.36-6.463-9.36-6.463l-8.023-8.692
	l-6.686-4.011l-3.343-4.235c0,0,3.343-0.446,4.903-0.668s7.132,2.674,7.132,2.674l3.12,2.006l-2.006-8.023l-3.343-11.143
	l-3.343-8.915c0,0-2.229-5.126-0.669-5.126s2.897,2.006,2.897,2.006l4.68,7.8l3.343,6.24l2.897,2.006l-0.223-4.234l-5.572-10.475
	c0,0-1.56-3.566-1.56-4.903s1.114-4.68,2.006-4.68c0.891,0,2.451,0.446,3.343,1.337c0.891,0.891,3.566,7.354,3.566,7.354l3.12,8.469
	l1.114,3.12l0.223-9.137l-1.337-7.355c0,0-0.509-1.429-0.493-2.629c-9.535-4.546-21.122-7.51-33.75-8.266l-2.79,13.079l-4.266,4.503
	l-6.399-3.555l-1.88-13.845c-26.083,2.198-47.316,13.86-54.458,29.238l3.301,2.201l3.12,12.258l0.891-10.92l0.669-12.035
	l2.229-0.446l2.006,4.012l0.669,15.823l3.12-7.355l0.891-10.92l3.343-2.674l2.452,3.566l1.114,5.349l-3.789,13.595l1.337,1.783
	l3.566-6.463l2.006-10.475l2.229-3.566l1.56,2.897l-2.006,13.372l-1.114,11.812l0.891,6.017l4.012-2.897l0.466,3.84l-0.243-4.732
	l3.566-11.143l1.56-5.349c0,0,2.006-4.234,3.12-3.789c1.114,0.446,3.566,0.669,3.566,1.783s-2.229,6.909-2.229,6.909
	s-1.114,3.12-0.223,4.903c0.891,1.783,4.234,0,5.126-1.56s6.017-7.8,6.017-7.8l2.229-9.138l3.789-2.674l1.56,4.68l2.229-1.56
	c0,0,1.56,0.892,1.56,2.897c0,2.006-0.446,6.017-1.783,7.132c-1.337,1.114-4.903,4.457-4.903,5.349s-0.891,7.132-0.891,7.132
	s-0.669,3.566-1.337,4.68c-0.669,1.114-2.229,5.349-2.674,7.577c-0.446,2.229-4.012,6.24-4.012,6.24s7.577-6.017,8.469-6.017
	s1.783,1.114,1.783,2.451c0,0.52-0.708,1.577-1.571,2.676l7.143,7.576l2.674,1.114l-4.68-9.137c0,0-4.457-7.577-3.789-8.692
	c0.669-1.115,1.114-1.56,2.897-1.337s6.24,4.234,6.24,4.234s-5.126-14.041-4.68-15.378s0.891-6.463,2.229-6.686
	c1.337-0.223,3.343,0,3.343,0s1.337-1.783,2.674-1.783s3.566,3.343,3.343,4.234c-0.223,0.891-0.891,5.572-0.669,7.577
	c0.223,2.006,1.783,9.806,2.897,11.366s3.789,2.674,3.789,2.674s1.56-5.794,1.56-8.246c0-2.451-0.223-4.68,0.891-5.126
	c1.114-0.446,4.457-1.115,4.457-0.223c0,0.891,1.337,10.92,1.337,10.92l-0.669,10.475l-2.897,6.909l0.123,0.044
	c2.051-0.462,4.055-0.983,6.005-1.564l0.781-4.944c0,0,3.12-4.234,4.012-3.789c0.891,0.446,1.114,6.463,1.114,6.463l-0.012,0.278
	C330.032,433.268,334.501,431.022,338.446,428.461z"/>
<g>
	<path fill="#5A835F" d="M346.991,380.247c-0.223,1.337,0.891,14.263,0.891,14.263l2.006,12.926c0,0,0.446,8.023,0.446,8.692
		c0,0.176,0.125,0.631,0.318,1.231c3.914-5.24,6.105-11.077,6.105-17.233c0-8.023-3.724-15.502-10.136-21.823
		C346.899,379.088,347.068,379.789,346.991,380.247z"/>
	<path fill="#5A835F" d="M336.015,370.298c0.034,0.087,0.056,0.142,0.056,0.142l3.566,12.926l1.114-6.686
		c0,0-0.187-1.902,0.117-3.222C339.341,372.353,337.722,371.298,336.015,370.298z"/>
</g>
<g>
	<path fill="#5A835F" d="M287.083,438.67c0.054,0.745,0.092,1.58,0.119,2.39c0.558,0.019,1.123,0.02,1.684,0.031L287.083,438.67z"/>
	<path fill="#5A835F" d="M281.915,431.729l-3.789,6.018l6.017-1.783c0,0,0.336-0.133,0.771-0.206L281.915,431.729z"/>
</g>
<polygon fill="#5A835F" points="260.519,421.477 260.517,421.433 260.438,421.574 "/>
<g>
	<path fill="#5A835F" d="M375.79,312.618c0-0.433,0.151-0.802,0.455-1.105c0.303-0.302,0.672-0.454,1.105-0.454
		s0.801,0.152,1.104,0.454c0.303,0.304,0.455,0.673,0.455,1.105v2.6c4.073,0.348,7.931,1.864,11.57,4.551
		c0.606,0.477,0.91,0.953,0.91,1.43c0,0.478-0.163,0.877-0.487,1.202c-0.325,0.325-0.716,0.487-1.171,0.487
		c-0.454,0-0.855-0.151-1.202-0.454c-3.033-2.427-6.283-3.836-9.75-4.226v18.2c4.94,1.04,8.515,2.524,10.725,4.452
		c2.211,1.929,3.315,4.55,3.315,7.865s-1.3,6.089-3.9,8.32c-2.6,2.232-5.937,3.412-10.01,3.542v5.07
		c0,0.433-0.152,0.801-0.455,1.104c-0.304,0.303-0.672,0.455-1.104,0.455c-0.434,0-0.803-0.152-1.105-0.455
		c-0.304-0.304-0.455-0.672-0.455-1.104v-5.135c-5.417-0.433-10.292-2.535-14.625-6.306c-0.477-0.39-0.715-0.822-0.715-1.3
		c0-0.477,0.163-0.877,0.487-1.202c0.325-0.325,0.716-0.487,1.17-0.487c0.455,0,0.834,0.152,1.138,0.455
		c3.727,3.467,7.951,5.438,12.675,5.914v-18.524c-4.854-1.083-8.363-2.578-10.529-4.485c-2.168-1.906-3.25-4.495-3.25-7.768
		c0-3.271,1.288-6.022,3.867-8.255c2.578-2.231,5.839-3.39,9.782-3.478L375.79,312.618L375.79,312.618z M368.348,320.548
		c-1.929,1.647-2.893,3.651-2.893,6.013s0.736,4.247,2.21,5.655c1.473,1.408,4.226,2.59,8.255,3.542v-17.745
		C372.801,318.056,370.275,318.901,368.348,320.548z M386.548,355.096c1.972-1.668,2.957-3.715,2.957-6.143
		c0-2.427-0.77-4.344-2.307-5.753c-1.539-1.407-4.346-2.567-8.418-3.478v17.94C381.986,357.62,384.575,356.764,386.548,355.096z"/>
</g>
<path fill="#231F20" d="M348.016,444.657c0.96-0.388,1.878-0.832,2.746-1.338c-2.841-5.379-5.69-10.793-9.983-15.154
	c-5.02-5.099-12.018-7.369-16.971-12.582c-2.483-2.614-4.414-5.736-7.254-7.985c-2.341-1.854-5.183-2.978-7.305-5.04
	c4.342-0.693,9.055,3.028,12.042,5.664c1.053,0.929,3.013,0.06,2.507-1.459c-1.848-5.542-1.51-11.418-3.618-16.925
	c-0.798-2.086-1.847-4.087-2.819-6.096c-0.866-1.79-1.648-3.605-2.319-5.478c-0.568-1.584-0.186-3.346-1.477-4.516
	c5.691,5.159,5.42,14.798,12.169,19.033c0.797,0.5,1.994,0.035,2.203-0.896c1.466-6.505-5.338-13.272-6.715-19.383
	c-0.403-1.786,0.669-6.521,2.679-3.143c1.082,1.818,1.735,3.906,2.449,5.888c1.825,5.064,3.793,10.127,6.239,14.926
	c0.72,1.412,2.717,0.638,2.795-0.757c0.287-5.115-1.021-9.851-2.085-14.813c-0.306-1.425-0.546-2.887-0.692-4.338
	c-0.05-0.576-0.078-1.154-0.083-1.733c0.006-0.276,0.012-0.553,0.018-0.83c0.148-1.182,0.182-1.378,0.102-0.589
	c2.391,2.084,2.643,7.315,3.273,10.229c0.988,4.572,2.549,9.286,4.211,13.656c0.675,1.775,3.396,1.107,2.893-0.797
	c-1.211-4.585-1.331-9.803-0.291-14.446c1.083-4.834,2.627,3.434,2.615,5.284c-0.015,2.32-0.203,4.584,0.053,6.899
	c0.635,5.76,2.191,11.286,2.595,17.097c0.303,4.358,0.615,8.691,1.52,12.972c1.381,6.53,5.183,12.24,9.508,17.429
	c0.621-0.882,1.208-1.798,1.766-2.738c-4.089-5.082-7.278-10.275-8.656-16.787c-1.238-5.854-0.967-11.939-1.832-17.848
	c-0.927-6.333-1.985-12.021-1.945-18.449c0.018-2.905-0.968-8.067-4.289-8.981c-3.245-0.893-4.484,2.836-4.807,7.365
	c-0.52-2.039-1.007-4.086-1.476-6.136c-0.59-2.577-1.796-7.907-5.276-8.164c-3-0.222-3.014,3.623-2.956,5.701
	c0.096,3.424,0.91,6.726,1.647,10.039c-1.259-3.277-2.456-6.58-3.834-9.816c-1.142-2.682-3.131-6.15-6.463-4.669
	c-3.618,1.608-2.892,7.494-2.049,10.349c1.11,3.761,5.222,8.584,6.145,12.889c-2.878-3.424-4.214-8.814-6.356-12.458
	c-1.064-1.809-3.597-6.616-6.355-4.912c-3.084,1.905,0.193,9.414,1.135,11.511c1.646,3.665,3.604,7.193,4.822,11.034
	c1.026,3.237,1.172,6.625,1.691,9.954c-4.172-2.978-9.199-5.132-14.015-2.775c-0.698,0.342-0.975,1.413-0.538,2.052
	c1.349,1.975,2.988,3.306,4.985,4.602c0.505,0.328,0.986,0.651,1.456,0.974c-1.088,0.35-2.08,1.027-2.631,1.874
	c-1.017,1.562-1.004,3.642-0.741,5.412c0.144,0.968,0.572,7.972-0.526,6.426c-2.682-3.776-4.399-8.932-4.223-13.559
	c0.185-4.861,0.179-9.129-3.656-12.604c-0.649-0.588-1.887-0.75-2.372,0.186c-0.464,0.894-0.88,1.788-1.265,2.683
	c-1.715-1.641-4.028-0.92-5.326,2.139c-0.685,1.613-1.372,3.622-1.164,5.405c0.396,3.406,1.937,6.519,2.696,9.841
	c0.038,0.5,0.053,0.999,0.06,1.497c-1.808-1.312-3.916-2.096-5.817-1.081c-1.973,1.054-2.162,2.854-1.69,4.676
	c-1.201,0.356-2.428,1.195-3.276,1.802c-0.047,0.033-0.088,0.072-0.134,0.106c0.185-0.337,0.371-0.672,0.555-1.012
	c2.938-5.409,2.763-11.595,5.031-17.203c1.733-2.935,4.145-5.433,5.557-8.558c0.739-1.636,0.694-3.758,0.531-5.503
	c-0.309-3.309-2.294-4.698-4.426-3.655c-0.095-0.97-0.22-1.948-0.391-2.941c-0.178-1.038-1.406-1.26-2.203-0.896
	c-4.709,2.146-6.01,6.211-7.31,10.899c-1.237,4.462-4.438,8.854-8.14,11.637c-1.515,1.14,1.02-5.404,1.45-6.283
	c0.788-1.607,1.431-3.584,0.937-5.381c-0.697-2.534-4.576-4.9-6.728-2.51c-2.871,3.19-4.029,8.304-5.599,12.196
	c-1.151,2.852-1.793,5.496-2.073,8.114c-0.762,0.65-1.501,1.332-2.189,2.061c-0.136-3.366-0.648-6.718-0.268-10.092
	c0.451-4.004,1.689-7.845,2.595-11.759c0.519-2.24,2.28-10.241-1.115-11.513c-3.035-1.138-4.59,4.068-5.284,6.049
	c-1.397,3.989-1.664,9.536-3.824,13.453c0.072-4.402,3.172-9.93,3.533-13.834c0.274-2.964-0.153-8.879-4.014-9.756
	c-3.555-0.808-4.835,2.979-5.437,5.832c-0.726,3.441-1.26,6.913-1.861,10.372c0.082-3.393,0.242-6.79-0.327-10.168
	c-0.345-2.05-1.103-5.819-4.004-5.021c-3.364,0.925-3.516,6.389-3.596,9.031c-0.063,2.102-0.145,4.205-0.261,6.306
	c-1.194-4.381-3.132-7.799-6.142-6.295c-3.082,1.54-3.05,6.795-2.47,9.642c1.284,6.298,1.346,12.083,1.663,18.477
	c0.295,5.964,1.739,11.881,1.657,17.865c-0.062,4.54-1.069,8.639-2.66,12.621c0.467,1.375,0.991,2.72,1.672,3.969
	c2.259-4.783,3.892-9.807,3.963-15.039c0.06-4.375-0.473-8.687-1.019-13.021c-0.729-5.779-0.272-11.502-0.764-17.276
	c-0.198-2.321-0.82-4.505-1.284-6.779c-0.369-1.812-0.455-10.223,1.543-5.69c1.919,4.354,2.812,9.497,2.511,14.229
	c-0.125,1.966,2.674,2.094,2.992,0.222c0.784-4.609,1.404-9.536,1.488-14.212c0.053-2.98-0.712-8.161,1.231-10.669
	c-0.232-0.758-0.16-0.572,0.214,0.559c0.06,0.271,0.119,0.541,0.179,0.811c0.107,0.569,0.192,1.141,0.254,1.716
	c0.138,1.452,0.185,2.932,0.161,4.39c-0.084,5.074-0.45,9.974,0.822,14.937c0.347,1.354,2.456,1.726,2.889,0.202
	c1.471-5.181,2.422-10.53,3.232-15.852c0.317-2.083,0.553-4.257,1.263-6.251c1.318-3.703,3.286,0.735,3.237,2.565
	c-0.168,6.261-5.533,14.218-2.836,20.316c0.386,0.873,1.651,1.098,2.335,0.453c5.802-5.461,3.67-14.866,8.255-21.029
	c-1.04,1.398-0.324,3.052-0.575,4.716c-0.296,1.966-0.711,3.899-1.215,5.823c-0.565,2.159-1.206,4.325-1.585,6.526
	c-1.001,5.812,0.467,11.51-0.273,17.306c-0.203,1.588,1.889,2.062,2.742,0.947c0.69-0.902,1.51-1.915,2.418-2.909
	c0.038,1.281,0.145,2.58,0.308,3.917c-1.341,2.175-2.397,4.535-3.77,6.702c-0.597,0.942-1.262,1.82-1.964,2.661
	c-1.607,1.54-3.351,2.937-4.987,4.451c0.14-5.124-0.881-10.497-5.525-13.175c-0.673-0.388-1.716-0.02-2.003,0.7
	c-0.885,2.222-1.073,4.325-1.033,6.705c0.069,4.14-0.173,7.415-1.346,11.402c-1.199,4.076-1.551,7.799-1.619,11.645
	c-0.472,1.282-0.902,2.582-1.317,3.887c0.062,0.106,0.106,0.234,0.12,0.39c0.179,1.874,1.004,3.595,1.205,5.449
	c0.156,1.443-0.053,2.664-0.575,3.926c-0.335,1.538-0.778,3.039-1.318,4.509c-0.151,0.509-0.348,1.021-0.597,1.535
	c-0.014,0.035-0.031,0.069-0.045,0.104c0.452,1.251,1.067,2.452,1.811,3.563c1.411-3.037,2.597-6.161,3.27-9.47
	c1.427-7.012-0.599-14.085,0.96-21.105c0.782-3.52,2.293-6.865,2.573-10.477c0.231-2.977-0.424-5.962,0.101-8.874
	c3,3.215,2.545,9.202,2.027,13.152c-0.182,1.392,1.633,2.533,2.611,1.265c3.566-4.628,8.628-7.629,12.02-12.453
	c1.285-1.827,2.359-3.814,3.482-5.742c1.001-1.718,2.071-3.38,3.249-4.982c0.997-1.356,2.672-2.023,2.921-3.747
	c-1.101,7.602-9.249,12.76-8.992,20.724c0.03,0.94,1.084,1.673,1.974,1.327c6.215-2.417,8.029-11.84,12.329-16.395
	c1.257-1.332,5.783-3.087,4.104,0.467c-0.904,1.914-2.272,3.621-3.517,5.32c-3.182,4.342-6.283,8.802-8.897,13.511
	c-0.769,1.386,0.988,2.61,2.189,1.896c4.403-2.618,7.602-6.348,11.123-10.002c1.011-1.049,2.09-2.065,3.212-2.997
	c0.45-0.363,0.914-0.709,1.391-1.036c0.233-0.149,0.466-0.299,0.699-0.448c1.063-0.537,1.245-0.619,0.546-0.245
	c-0.393,3.147-4.592,6.278-6.657,8.427c-3.241,3.372-6.279,7.3-8.976,11.119c-1.095,1.551,0.978,3.435,2.277,1.954
	c3.127-3.565,7.389-6.579,11.821-8.309c4.615-1.801-1.381,4.097-2.922,5.12c-1.933,1.284-3.916,2.392-5.694,3.896
	c-4.423,3.744-8.138,8.121-12.733,11.701c-3.446,2.685-6.866,5.363-9.911,8.505c-3.797,3.918-6.235,8.872-8.032,14.092
	c1.051,0.229,2.134,0.305,3.232,0.199c1.804-4.917,4.192-9.361,8.001-13.291c2.2-2.269,4.688-4.225,7.197-6.157
	c-0.241,1.637-0.296,3.268-0.278,4.899c1.019-0.187,2.013-0.442,2.986-0.764c0.021-1.833,0.174-3.67,0.607-5.53
	c0.115-0.496,0.243-0.988,0.37-1.481c0.989-0.793,1.964-1.602,2.899-2.453c3.767-3.425,7.159-6.686,11.08-9.669
	c0.262,0.233,0.519,0.451,0.762,0.638c5.095,3.92,8.931,8.251,13.356,12.875c0.301,0.314,0.614,0.617,0.923,0.923
	c0.096,1.994,0.157,3.99,0.178,5.986c1.004,0.552,1.98,1.157,2.947,1.78c0.004-1.629-0.015-3.257-0.06-4.885
	c2.595,2.33,5.263,4.59,7.636,7.13c0.167,2.237,0.388,4.475,0.622,6.713c1.013,0.104,1.998,0.352,2.866,0.81
	c-0.161-1.275-0.321-2.554-0.465-3.839c2.037,2.889,3.483,5.968,4.604,9.234c1.058-0.022,2.124-0.138,3.187-0.35
	c-1.391-4.324-3.318-8.413-6.223-11.86c-2.82-3.346-6.046-6.256-9.297-9.173c-4.335-3.89-7.737-8.515-11.89-12.556
	c-1.669-1.625-3.57-2.868-5.409-4.283c-0.263-0.203-0.662-0.578-1.108-1.035c0.172-0.117,0.334-0.237,0.509-0.353
	c0.621-0.413,1.328-0.964,2.018-1.61c2.763,1.88,5.276,4.221,7.237,6.797c1.193,1.567,3.392-0.168,2.407-1.792
	c-1.977-3.259-4.185-6.589-6.555-9.659c0.188-0.772,0.202-1.553-0.052-2.311c-0.564-1.678-1.882-2.174-3.574-1.945
	c-0.545-0.588-1.101-1.207-1.627-1.847c0.226-0.243,0.445-0.491,0.672-0.733c0.224-0.239,0.479-0.511,0.749-0.807
	c0.569,0.599,1.127,1.208,1.654,1.838c3.259,3.89,6.191,7.833,10.402,10.75c1.148,0.796,2.987-0.304,2.315-1.739
	c-2.281-4.879-5.065-9.544-7.938-14.096c-1.124-1.782-2.37-3.58-3.139-5.551c-1.429-3.662,2.965-1.597,4.126-0.181
	c3.973,4.842,5.128,14.369,11.161,17.211c0.864,0.407,1.966-0.251,2.062-1.187c0.809-7.926-6.961-13.638-7.532-21.298
	c0.129,1.738,1.754,2.519,2.654,3.941c1.064,1.68,2.016,3.413,2.895,5.196c0.987,2.001,1.92,4.058,3.075,5.97
	c3.049,5.047,7.89,8.394,11.126,13.258c0.887,1.333,2.778,0.321,2.692-1.081c-0.242-3.976-0.28-9.98,2.935-12.979
	c0.321,2.941-0.539,5.874-0.516,8.86c0.028,3.623,1.304,7.065,1.839,10.63c1.068,7.111-1.445,14.027-0.508,21.121
	c0.374,2.83,1.122,5.552,2.067,8.215c0.89-0.695,1.727-1.448,2.486-2.26c-1.258-3.844-2.011-7.793-1.638-12.082
	c0.595-6.824,1.284-12.504-0.208-19.284c-0.893-4.059-0.907-7.343-0.551-11.468c0.205-2.372,0.163-4.482-0.565-6.761
	c-0.236-0.738-1.251-1.178-1.95-0.837c-4.819,2.35-6.211,7.639-6.427,12.76c-0.653-0.695-1.328-1.37-2.004-2.043
	c1.793-4.412,2.695-8.736,2.288-14.153c-0.24-3.186-0.043-6.97-0.711-10.322c0.599,0.616,1.192,1.269,1.787,1.987
	c4.43,5.344,9.334,8.292,15.082,12.018c6.602,4.279,10.006,10.82,13.635,17.544C347.865,444.382,347.941,444.519,348.016,444.657z
	 M289.184,390.793c0.265-0.349,0.591-0.824,0.969-1.129c0.038,0.083,0.099,0.22,0.17,0.481c0.314,1.158,0.212,2.47,0.105,3.649
	c-0.161,1.776-1.183,3.456-2.386,5.071C288.793,396.271,289.164,393.582,289.184,390.793z M262.155,416.711
	c-0.113,0.182-0.223,0.366-0.335,0.549c-0.252-2.624-0.255-5.266,0.422-7.969c0.839-3.351,2.351-6.777,3.751-9.927
	c0.306-0.688,0.554-1.403,0.819-2.107c0.298-0.851,0.663-1.671,1.096-2.46c2.529-0.273,3.267,0.537,2.212,2.43
	c-0.96,3.199-4.132,6.924-2.433,10.519c0.445,0.941,1.117,1.365,1.871,1.456C266.544,409.784,263.19,415.044,262.155,416.711z
	 M280.748,413.21c-3.354-2.103-7.832,1.786-9.729,4.08c-2.5,3.021-4.204,9.126-7.26,12.295c1.234-4.3,4.959-8.417,6.784-12.229
	c0.907-1.893,3.479-6.679,0.526-8.015c-0.196-0.089-0.396-0.144-0.599-0.176c0.68-0.123,1.379-0.437,2.005-0.833
	c2.951-1.869,5.224-5.127,7.129-7.985c2.829-4.243,2.535-10.143,6.407-13.359c0.842,7.491-0.858,14.397-5.819,20.409
	c-1.221,1.479,0.889,3.614,2.121,2.121c0.305-0.37,0.577-0.746,0.859-1.121c-0.458,1.95-0.832,3.919-1.306,5.861
	C281.6,413.875,281.242,413.52,280.748,413.21z M280.179,435.724c0.556-0.622,1.129-1.228,1.691-1.844
	c0.018,0.022,0.041,0.051,0.059,0.073c0.167,0.205,0.33,0.413,0.494,0.62C281.693,434.897,280.939,435.287,280.179,435.724z
	 M291.952,433.416c-1.558-1.888-3.112-3.781-4.84-5.516c0.28-0.402,0.539-0.817,0.767-1.241
	C289.207,428.931,290.596,431.164,291.952,433.416z M293.736,410.145c-0.656-1.905-1.12-3.815-0.734-5.556
	c0.256-1.157,0.557-2.438,1.208-3.445c0.147-0.228,0.247-0.34,0.308-0.407c0.268,0.406,0.434,0.957,0.58,1.37
	C294.271,404.77,293.808,407.446,293.736,410.145z M302.667,433.905c-2.383-2.843-3.666-7.692-5.377-11.057
	c0.057-0.007,0.113-0.012,0.169-0.025C299.174,426.324,301.859,430.111,302.667,433.905z M296.808,413.196
	c-0.43-4.661,0.458-9.252,2.469-13.75c2.713,4.239,0.642,9.771,2.049,14.673c0.177,0.618,0.367,1.256,0.566,1.898
	C300.354,414.101,298.519,412.584,296.808,413.196z M315.154,427.912c-0.158,2.49-0.82,4.768-1.701,6.958
	c-0.916-0.978-1.787-1.995-2.553-3.11c-1.426-2.076-2.577-4.305-3.699-6.552c1.032,0.604,2.197,0.691,3.234-0.422
	c2.71-2.909,0.819-7.421,0.875-10.761c-0.43-2.124,0.519-2.672,2.846-1.644c0.173,0.884,0.272,1.776,0.298,2.677
	c0.038,0.751,0.058,1.508,0.14,2.257C314.972,420.74,315.372,424.464,315.154,427.912z"/>
<path fill="#231F20" d="M275.053,429.878c-0.092,0.167-0.184,0.334-0.275,0.502c-0.103,0.109-0.207,0.219-0.31,0.328
	C274.662,430.431,274.858,430.155,275.053,429.878z"/>
<g>
	<polygon fill="#231F20" points="289.57,347.418 308.658,330.318 282.27,321.449 262.852,335.801 	"/>
	<polygon fill="#231F20" points="288.354,350.16 260.528,338.062 263.785,364.345 288.354,375.752 	"/>
	<polygon fill="#231F20" points="291.354,349.847 291.354,375.668 309.525,357.946 310.408,332.778 	"/>
</g>
</svg>
