<?xml version="1.0" encoding="utf-8"?>
<!-- Generator: Adobe Illustrator 17.0.2, SVG Export Plug-In . SVG Version: 6.00 Build 0)  -->
<!DOCTYPE svg PUBLIC "-//W3C//DTD SVG 1.1//EN" "http://www.w3.org/Graphics/SVG/1.1/DTD/svg11.dtd">
<svg version="1.1" id="Layer_1" xmlns="http://www.w3.org/2000/svg" xmlns:xlink="http://www.w3.org/1999/xlink" x="0px" y="0px"
	 width="612px" height="792px" viewBox="0 0 612 792" enable-background="new 0 0 612 792" xml:space="preserve">
<g>
	<path fill="#A29352" d="M235.045,280.783h38.941l27.989,5.667c-11.849-7.035-27.896-11.364-45.58-11.364
		c-16.425,0-31.437,3.736-42.987,9.903L235.045,280.783z"/>
	<path fill="#A29352" d="M310.833,292.91v34.456H196.667v-28.732c-4.017,5.296-6.273,11.209-6.273,17.452c0,22.644,29.549,41,66,41
		s66-18.356,66-41C322.394,307.484,318.121,299.504,310.833,292.91z"/>
</g>
<path fill="#231F20" d="M498.816,422.15"/>
<g>
	<path fill="#A29352" d="M367.191,301.262l-0.585,0.065c-0.737,0-1.234-0.346-1.495-1.04l-4.029-10.725h-20.735l-4.03,10.725
		c-0.26,0.694-0.759,1.04-1.495,1.04l-0.585-0.065c-0.39-0.173-0.682-0.465-0.877-0.877c-0.195-0.412-0.206-0.812-0.032-1.203
		l15.795-42.185c0.303-0.65,0.845-0.975,1.625-0.975c0.779,0,1.277,0.325,1.495,0.975l15.795,42.185c0.172,0.39,0.172,0.791,0,1.203
		C367.863,300.797,367.582,301.089,367.191,301.262z M350.747,261.937l-9.23,24.44h18.396L350.747,261.937z"/>
	<path fill="#A29352" d="M373.562,288.327v-17.355c0-0.433,0.151-0.801,0.455-1.105c0.303-0.303,0.672-0.455,1.105-0.455
		c0.433,0,0.801,0.152,1.104,0.455c0.303,0.304,0.455,0.672,0.455,1.105v17.355c0,2.73,0.953,5.049,2.86,6.955
		c1.906,1.907,4.203,2.882,6.89,2.925c2.73-0.042,5.06-1.018,6.988-2.925c1.927-1.906,2.892-4.225,2.892-6.955v-17.355
		c0-0.433,0.163-0.801,0.488-1.105c0.324-0.303,0.703-0.455,1.137-0.455s0.802,0.152,1.105,0.455
		c0.303,0.304,0.455,0.672,0.455,1.105v17.355c0,3.597-1.268,6.663-3.803,9.197c-2.535,2.535-5.601,3.803-9.197,3.803
		c-3.598,0-6.652-1.268-9.165-3.803C374.818,294.99,373.562,291.924,373.562,288.327z"/>
</g>
<path fill="#231F20" d="M312.333,286.744h-1.349l-36.701-7.431l-39.383-0.03l-38.379,7.461h-1.355v42.123h77.129
	c0.104,2.353,0.662,4.728,0.09,7.018c-0.469,1.877,2.424,2.674,2.893,0.797c0.631-2.526,0.114-4.999-0.062-7.554
	c-0.006-0.087-0.004-0.174-0.003-0.262h2.124c0.438,2.74,0.358,5.735,1.053,8.179c0.528,1.858,3.423,1.067,2.893-0.798
	c-0.671-2.359-0.755-4.915-1.079-7.382h32.129V286.744z M235.189,282.283h38.646l22.031,4.461h-83.623L235.189,282.283z
	 M309.333,325.866h-29.62c0.167-2.429,0.257-4.837,0.003-7.256c0.775-0.309,1.213-0.985,1.022-1.833
	c-0.209-0.93-0.553-1.809-1.047-2.625c-0.472-0.781-1.157-1.041-1.97-1.355c-0.277-0.107-0.555-0.178-0.833-0.233
	c0.607-0.442,0.82-1.308,0.423-1.968c-0.154-0.257-0.078-0.062-0.103-0.206c0.02-0.093,0.042-0.185,0.072-0.276
	c0.234-0.783-0.273-1.632-1.048-1.845c-0.801-0.22-1.611,0.265-1.845,1.048c-0.288,0.962-0.186,1.931,0.333,2.793
	c0.106,0.176,0.243,0.324,0.401,0.44c-0.851,0.166-1.655,0.574-2.35,1.2c-0.209,0.188-0.323,0.395-0.395,0.605
	c-0.53,0.41-0.718,1.129-0.471,1.749c-0.362,0.838-0.151,1.809,0.665,2.519c0.264,0.23,0.552,0.408,0.854,0.549
	c0,0.002,0,0.004,0,0.006c0.049,2.335-0.572,4.455-0.934,6.688h-74.323v-36.123h111.167V325.866z"/>
</svg>
