<?xml version="1.0" encoding="utf-8"?>
<!-- Generator: Adobe Illustrator 17.0.2, SVG Export Plug-In . SVG Version: 6.00 Build 0)  -->
<!DOCTYPE svg PUBLIC "-//W3C//DTD SVG 1.1//EN" "http://www.w3.org/Graphics/SVG/1.1/DTD/svg11.dtd">
<svg version="1.1" id="Layer_1" xmlns="http://www.w3.org/2000/svg" xmlns:xlink="http://www.w3.org/1999/xlink" x="0px" y="0px"
	 width="612px" height="792px" viewBox="0 0 612 792" enable-background="new 0 0 612 792" xml:space="preserve">
<g>
	<path fill="#5F8893" d="M222.978,453.747l-1.847-16.442l-0.369-9.791h8.313l11.084-3.879l6.651-5.727l12.932-7.944l7.02-4.249
		c0,0,7.02-3.51,7.759-3.51s5.357,0.739,12.193-5.912c0.018-0.018,0.037-0.034,0.055-0.051c-2.215-0.14-4.463-0.211-6.737-0.211
		c-36.451,0-66,18.356-66,41c0,7.867,3.573,15.214,9.757,21.456L222.978,453.747z"/>
	<path fill="#5F8893" d="M341.394,438.599l-3.695,4.064l-0.37,8.128l-4.064,7.39l-6.466,2.402l-5.542,0.185l-1.847,8.683
		l-1.441,1.121c16.966-7.42,28.061-19.671,28.061-33.539c0-0.547-0.032-1.089-0.066-1.631L341.394,438.599z"/>
	<path fill="#5F8893" d="M266.724,477.198l-10.568-1.943C259.554,476.074,263.08,476.734,266.724,477.198z"/>
</g>
<g>
	<polygon fill="none" stroke="#231F20" stroke-width="3" stroke-miterlimit="10" points="218.186,392.117 183.044,386.846 
		183.044,413.203 218.186,418.474 	"/>
	<polyline fill="none" stroke="#231F20" stroke-width="3" stroke-miterlimit="10" points="217.928,418.691 234.997,411.298 
		235.655,385.168 218.585,392.56 	"/>
	<polyline fill="none" stroke="#231F20" stroke-width="3" stroke-miterlimit="10" points="236.378,384.529 200.823,379.156 
		199.899,379.211 182.829,386.604 	"/>
	<path fill="none" stroke="#231F20" stroke-width="2" stroke-miterlimit="10" d="M249.375,415.399
		c-1.959-0.091-3.571,0.379-5.329,1.216c-2.99,1.424-5.502,2.223-8.858,2.225c-5.128,0.003-11.514-0.552-15.943-3.351
		c-7.435-4.698-6.1-16.361-5.911-24.235l5.003,0.874l0.191-7.587c2.192-2.787,4.212-6.418,0.035-7.806
		c-0.591-0.196-1.133-0.289-1.645-0.316c-0.438-1.192-1.292-2.072-2.817-2.256c-1.504-0.182-2.551,0.939-3.259,2.458
		c-0.404-1.293-1.146-2.301-2.628-2.645c-1.426-0.331-2.412-0.043-3.095,0.603c-0.798-0.526-1.768-0.807-2.918-0.714
		c-2.939,0.237-3.693,4.058-3.825,6.832c-0.876-1.666-2.051-2.877-4.058-3.146c-1.668-0.223-2.598,0.77-3.085,2.171
		c-0.443-0.304-0.928-0.54-1.438-0.677c-1.443-0.389-2.759,0.768-2.965,2.167c-0.401,2.729,3.568,5.237,5.783,5.853
		c0.82,0.228,1.168-1.044,0.35-1.271c-0.232-0.064-0.467-0.147-0.703-0.242c0.001-0.047,0.011-0.091,0.002-0.142
		c-0.125-0.664-0.267-1.808-0.237-2.957c0.5,0.301,1.274-0.266,0.909-0.895c-0.188-0.323-0.415-0.631-0.67-0.918
		c0.271-0.975,0.803-1.712,1.777-1.78c1.734-0.121,2.661,1.494,3.344,2.801c0.616,1.179,1.647,3.398,1.06,4.753
		c-0.334,0.771,0.801,1.443,1.138,0.665c0.584-1.349,0.247-2.894-0.28-4.292c0.213-0.087,0.377-0.276,0.37-0.579
		c-0.052-2.071,0.031-5.421,1.91-6.763c0.86-0.615,1.878-0.295,2.734,0.314c-0.818,1.844-0.711,4.601-0.685,6.344
		c0.009,0.592,0.646,0.762,1.03,0.529c-0.113,0.268-0.205,0.559-0.268,0.879c-0.164,0.83,1.107,1.184,1.271,0.35
		c0.141-0.715,0.466-1.245,0.894-1.668c-0.044,0.233-0.097,0.461-0.159,0.684c-0.227,0.82,1.044,1.168,1.271,0.35
		c0.166-0.601,0.259-1.267,0.279-1.958c0.568-0.262,1.181-0.472,1.782-0.679c-0.121,0.805-0.18,1.526-0.189,2.04
		c-0.008,0.48,0.407,0.679,0.774,0.616c0.125,0.64,0.33,1.26,0.671,1.848l-9.462,4.098l10.497,1.834
		c-0.137,8.237-1.311,18.66,5.333,24.673c3.665,3.317,9.145,3.684,13.814,4.204c2.901,0.323,5.837,0.403,8.715-0.134
		c3.402-0.635,5.855-3.22,9.489-3.052C250.225,416.757,250.222,415.439,249.375,415.399z M217.222,377.685
		c0.901,0.166,1.762,0.594,2.266,1.266c0.722,0.964-0.316,2.481-0.821,3.285c-0.026,0.042-0.058,0.079-0.085,0.12l0.014-0.557
		l-1.722,0.746C217.203,381.038,217.434,379.236,217.222,377.685z M190.855,384.817c-1.006-0.646-1.91-1.501-2.468-2.42
		c-0.508-0.838-0.137-2.285,1.055-2.081c0.524,0.09,1.026,0.403,1.455,0.798C190.705,382.385,190.741,383.759,190.855,384.817z
		 M204.95,382.078c-0.024-1.481-0.163-2.962,0.036-4.438c0.05-0.373,0.147-0.714,0.288-1.024c0.233,0.258,0.432,0.518,0.579,0.754
		c0.575,0.92,0.824,2.014,0.846,3.113C205.994,380.888,205.379,381.385,204.95,382.078z M209.691,379.211
		c-0.603,0.225-1.212,0.444-1.797,0.688c-0.176-1.609-0.741-3.216-1.717-4.37c0.207-0.138,0.438-0.256,0.705-0.344
		c1.58-0.519,2.512,1.416,2.829,2.537c0.128,0.451,0.203,0.911,0.256,1.376C209.876,379.136,209.785,379.176,209.691,379.211z
		 M213.499,375.586c1.026-0.584,1.632,0.049,1.98,0.945c-1.372,0.299-2.566,1.078-3.914,1.805
		C211.971,377.151,212.585,376.105,213.499,375.586z M211.351,379.897c1.264-0.667,2.42-1.524,3.759-2.063
		c0.208-0.084,0.436-0.137,0.671-0.176c0.091,0.519,0.126,1.006,0.128,1.306c0.006,1.411-0.206,2.859-0.558,4.24l-3.128,1.355
		C211.575,383.388,211.487,381.643,211.351,379.897z"/>
	
		<line fill="none" stroke="#231F20" stroke-width="3" stroke-miterlimit="10" x1="214.103" y1="381.026" x2="195.861" y2="388.769"/>
	
		<line fill="none" stroke="#231F20" stroke-width="3" stroke-miterlimit="10" x1="207.514" y1="380.367" x2="190.445" y2="387.759"/>
	<g>
		
			<line fill="none" stroke="#231F20" stroke-width="3" stroke-miterlimit="10" x1="186.558" y1="395.412" x2="210.241" y2="399.365"/>
		
			<line fill="none" stroke="#231F20" stroke-width="3" stroke-miterlimit="10" x1="186.777" y1="400.577" x2="210.461" y2="404.531"/>
		
			<line fill="none" stroke="#231F20" stroke-width="3" stroke-miterlimit="10" x1="186.569" y1="405.857" x2="210.253" y2="409.81"/>
	</g>
	<g>
		
			<line fill="none" stroke="#231F20" stroke-width="3" stroke-miterlimit="10" x1="232.846" y1="403.287" x2="221.857" y2="407.943"/>
		
			<line fill="none" stroke="#231F20" stroke-width="3" stroke-miterlimit="10" x1="232.621" y1="398.873" x2="221.632" y2="403.528"/>
		<line fill="none" stroke="#231F20" stroke-width="3" stroke-miterlimit="10" x1="232.589" y1="394.213" x2="221.6" y2="398.868"/>
	</g>
	<path fill="#231F20" d="M254.163,374.35c-0.062-0.019-0.126-0.027-0.189-0.043c-0.197-0.18-0.481-0.249-0.721-0.132
		c-0.557-0.065-1.125-0.067-1.682-0.068c-0.85,0-0.85,1.318,0,1.318c0.019,0,0.039,0,0.058,0c0.011,0.038,0.016,0.076,0.032,0.113
		c0.078,0.178,0.028,0.377,0.113,0.591c0.161,0.405,0.47,0.583,0.896,0.614c0.306,0.022,0.54-0.221,0.635-0.484
		c0.091-0.251,0.262-0.453,0.435-0.654c0.024,0.007,0.049,0.009,0.072,0.016C254.628,375.869,254.974,374.597,254.163,374.35z"/>
	<path fill="#BABBBD" d="M198.199,415.839"/>
</g>
<g>
	<g>
		<path fill="#5F8893" d="M378.286,420.928v-42.38c0-0.433,0.151-0.801,0.455-1.105c0.303-0.303,0.672-0.455,1.105-0.455h10.14
			c3.12,0,5.785,1.105,7.995,3.315s3.314,4.995,3.314,8.353c0,3.359-1.452,6.208-4.354,8.547c2.6,0.91,4.733,2.481,6.402,4.713
			c1.668,2.232,2.503,4.756,2.503,7.572c0,3.597-1.268,6.663-3.803,9.197c-2.535,2.535-5.602,3.803-9.197,3.803h-13.065
			c-0.434,0-0.791-0.151-1.072-0.455C378.427,421.73,378.286,421.362,378.286,420.928z M381.471,396.423h8.515
			c2.253,0,4.17-0.79,5.753-2.373c1.581-1.582,2.372-3.488,2.372-5.72c0-2.231-0.791-4.148-2.372-5.752
			c-1.583-1.603-3.5-2.405-5.753-2.405h-8.515V396.423z M381.471,419.303h11.375c2.686,0,4.982-0.953,6.89-2.86
			c1.906-1.906,2.882-4.225,2.925-6.955c-0.043-2.687-1.019-4.994-2.925-6.922c-1.907-1.928-4.204-2.893-6.89-2.893h-11.375V419.303
			z"/>
	</g>
	
		<line fill="none" stroke="#5F8893" stroke-width="3.1682" stroke-linecap="round" stroke-linejoin="round" stroke-miterlimit="10" x1="389.23" y1="367.763" x2="389.23" y2="430.064"/>
</g>
<g>
	<path fill="#231F20" d="M266.064,465.296c-0.215-1.281-0.927-2.594-2.004-3.697c-1.329-1.36-3.005-2.173-4.482-2.173
		c-0.542,0-1.309,0.118-1.886,0.681c-1.362,1.331-0.747,4.261,1.342,6.401c1.33,1.361,3.005,2.173,4.482,2.173
		c0.542,0,1.309-0.118,1.886-0.681C266.02,467.396,266.255,466.436,266.064,465.296z"/>
	<path fill="#231F20" d="M356.188,420.142c-0.003-0.041,0-0.082-0.004-0.122c0-0.023-0.002-0.045-0.002-0.068
		c-0.001-0.088-0.023-0.161-0.056-0.225c-0.131-0.777-0.442-1.515-0.953-2.143l-0.982-0.922c0.338-0.406,0.686-0.805,1.008-1.225
		c1.72-2.246,3.72-5.185,3.164-8.184c-1.383-7.461-11.487-4.736-16-1.697l-23.059-21.652c-0.879-1.036-2.153-1.628-3.512-1.628
		c-1.045,0-2.066,0.363-2.892,1.035l-6.254,5.249c-1.597-0.707-3.517-0.803-5.2-0.723c-3.602,0.173-6.633,1.817-9.671,3.635
		c-4.252,2.544-8.175,5.561-12.64,7.749c-4.588,2.249-9.48,3.625-14.012,6.073c-4.794,2.59-9.294,5.706-13.822,8.725
		c-4.624,3.083-9.058,6.461-13.701,9.498c-5.242,3.43-11.196,2.564-17.121,2.511c-1.391-0.013-1.657,1.726-0.801,2.404
		c-0.087,9.302,2.184,18.376,2.99,27.605c0.406,4.654,0.097,9.118-0.882,13.682c-0.905,4.218-2.009,8.348-2.376,12.661
		c-0.066,0.775,0.661,1.272,1.335,1.335c5.846,0.553,11.442-1.737,17.127-2.69c5.978-1.001,10.997,2.173,16.791,2.69
		c0.214,0.019,0.399-0.007,0.558-0.066c0.764,0.024,1.507,0.117,2.208,0.484c0.062,0.033,0.13,0.044,0.198,0.047l10.302,9.789
		c0.771,0.91,1.842,1.479,3.028,1.605c0.166,0.018,0.331,0.026,0.495,0.026c1.045,0,2.049-0.355,2.869-1.022l8.034-6.534
		c9.548,3.78,26.074,1.858,28.829-8.886c0.061-0.009,0.122-0.014,0.186-0.031c7.24-1.973,11.014-9.558,11.618-17.088
		c5.29,0.735,10.168-0.43,13.225-5.082c2.725-4.148,2.953-9.81,2.439-14.699l14.932-12.144c1.45-1.18,2.885-5.297,2.632-8.038
		C356.243,421.433,356.203,420.785,356.188,420.142z M246.441,478.929c-2.652-0.767-5.299-0.938-8.036-0.65
		c-5.468,0.576-10.673,2.905-16.189,2.836c0.468-3.909,1.505-7.705,2.331-11.554c0.892-4.161,1.119-8.286,0.865-12.529
		c-0.568-9.493-3.095-18.755-3.063-28.297c3.84,0.106,7.666,0.332,11.446-0.571c4.518-1.079,8.133-4.526,11.779-7.184
		c4-2.916,8.309-5.506,12.446-8.229c4.012-2.64,8.118-5.122,12.456-7.193c4.023-1.92,8.315-3.058,12.246-5.19
		c3.85-2.088,7.352-4.769,11.108-7.016c2.927-1.751,5.674-2.938,9.117-2.867c0.4,0.008,0.829,0.052,1.258,0.121l-68.992,57.904
		c-0.571,0.465-0.993,1.058-1.279,1.715c-1.678,2.246-1.783,9.354-0.376,11.084l20.718,19.687
		C251.58,480.684,249.037,479.679,246.441,478.929z M272.635,492.507c-0.392,0.32-0.889,0.467-1.395,0.412
		c-0.511-0.055-0.972-0.306-1.299-0.707l-34.332-32.623c-0.349-0.598-0.451-2.31-0.366-3.979l33.628,32.28
		c0.879,1.039,2.156,1.633,3.518,1.633c1.045,0,2.066-0.363,2.876-1.021l19.325-15.717c0.202,0.452,0.417,0.9,0.642,1.344
		L272.635,492.507z M256.216,458.596c0.859-0.839,2.022-1.283,3.362-1.283c2.035,0,4.275,1.05,5.994,2.81
		c1.376,1.409,2.292,3.122,2.577,4.824c0.309,1.843-0.142,3.464-1.27,4.566c-0.859,0.839-2.021,1.283-3.362,1.283
		c-2.034,0-4.275-1.051-5.994-2.811C254.533,464.924,253.959,460.8,256.216,458.596z M308.817,477.697
		c-1.491,9.981-15.798,10.748-24.017,8.359l11.743-9.55c0.866,1.472,1.732,2.807,2.37,3.877c0.881,1.477,3.191,0.135,2.306-1.348
		c-2.123-3.558-8.527-11.564-3.321-14.941c3.39-2.2,6.707,1.605,8.412,4.16C308.161,471.027,309.317,474.347,308.817,477.697z
		 M311.573,476.251c0.018-0.793-0.024-1.622-0.142-2.492c-0.229-1.696-0.895-3.599-1.859-5.416c0.016-0.318,0.032-0.633,0.019-0.95
		c0.057-0.147,0.091-0.313,0.089-0.503c-0.065-5.634-1.626-12.397,1.553-17.47c3.55-5.665,8.067,2.907,8.783,6.144
		C321.574,462.598,319.015,473.452,311.573,476.251z M321.798,452.12c-0.132-0.359-0.292-0.723-0.464-1.086l3.566-2.9
		c0.088,0.547,0.183,1.094,0.279,1.639l-3.28,2.668C321.862,452.337,321.836,452.223,321.798,452.12z M334.431,454.682
		c-2.057,4.238-6.386,5.394-10.775,4.776c-0.211-0.03-0.407-0.015-0.585,0.033c-0.022-1.447-0.172-2.861-0.428-4.214l3.007-2.446
		c0.017,0.145,0.04,0.291,0.054,0.436c0.165,1.698,2.838,1.714,2.671,0c-0.496-5.095-2.339-9.907,0.611-14.595
		c0.928-1.475,3.89-4.88,5.497-2.534c1.285,1.875,1.391,4.806,1.58,6.998C336.394,447.001,336.147,451.146,334.431,454.682z
		 M314.285,445.04c-1.2-0.076-2.452,0.267-3.701,1.222c-1.446,1.106-2.387,2.559-3.002,4.203l-25.664,20.771l-28.408-26.18
		l61.943-53.608l30.636,27.851L314.285,445.04z M351.899,428.042l-13.666,11.114c-0.09-0.534-0.2-1.067-0.334-1.595l15.322-12.461
		C352.876,426.401,352.363,427.665,351.899,428.042z M352.279,414.866l-7.911-7.428c2.288-1.396,5.027-2.237,7.661-2.324
		c3.685-0.123,4.288,3.12,2.945,5.834C354.271,412.366,353.308,413.643,352.279,414.866z"/>
</g>
<path fill="#231F20" d="M235.242,405.955h16.178v3.177c-7.252,0.671-12.587,2.9-12.587,5.554c0,1.839,2.566,3.472,6.549,4.528
	l1.885-1.623l12.932-7.944l0.771-0.466c-0.325-0.033-0.65-0.068-0.983-0.095v-3.131h6.313l0.919-0.557c0,0,7.02-3.51,7.759-3.51
	c0.547,0,3.222,0.397,7.345-2.088v-20.861h-26.353c0.339-1.001,0.54-2.082,0.67-3.112c0.151,0.004,0.308-0.035,0.451-0.156
	c1.802-1.518,0.494-4.227,0.169-6.132c-0.049-0.285-0.365-0.484-0.635-0.484h-0.615c0.107-0.116,0.176-0.268,0.175-0.439
	c-0.005-0.816-0.042-1.582-0.243-2.372c-0.054-0.213-0.242-0.412-0.46-0.46c-1.2-0.267-2.18-0.137-3.099,0.348
	c-0.152-0.026-0.307-0.042-0.463-0.06c-0.244-0.526-0.669-0.946-1.225-1.179c-1.022-0.429-1.985,0.46-2.547,1.194
	c-0.045,0.059-0.074,0.118-0.095,0.176c-0.003,0.001-0.005,0.001-0.008,0.001c-0.169-0.321-0.35-0.665-0.67-0.825
	c-0.505-0.253-1.192-0.12-1.733-0.117c-0.364,0.001-0.652,0.299-0.659,0.659c-0.004,0.229-0.019,0.454-0.032,0.68
	c-0.172-0.049-0.387-0.02-0.52,0.069c-0.291,0.195-0.577,0.395-0.859,0.599c-0.473,0.094-0.949,0.172-1.445,0.19
	c-0.38,0.014-0.631,0.29-0.659,0.659c-0.064,0.852,0.006,1.612,0.218,2.334c0,0.027,0.002,0.054,0.002,0.082
	c0,0.194,0.074,0.342,0.184,0.45c0.181,0.449,0.422,0.888,0.726,1.331c-0.094,1.204,0.128,2.5,0.718,3.824
	c0.009,0.021,0.025,0.032,0.036,0.052c0.148,0.958,0.409,1.875,0.785,2.691h-14.528v4.777l6.047,1.452L235.242,405.955z"/>
<g>
	<g>
		<path fill="#231F20" d="M310.663,426.295l-1.7-1.914l-3.062,2.718c-0.447-0.504-0.914-1.009-1.378-1.511l3.082-2.737l-1.698-1.913
			l-3.145,2.791c-0.376-0.407-0.745-0.807-1.098-1.204l0.009-0.009l-2.343-2.641l-2.044,1.816c0,0,1.282,1.389,1.235,1.389
			c0.688,0.776,0.462,1.427,0.139,1.846l-3.582,3.181c0.047,0.054,0.107,0.125,0.166,0.214c-0.057-0.064-0.117-0.132-0.18-0.202
			l-5.019,4.455c-0.274,0.182-0.791,0.385-1.273-0.156c0,0.044-1.236-1.392-1.236-1.392l-2.623,1.649l2.212,2.491
			c0.411,0.464,0.809,0.927,1.203,1.377l-3.18,2.825l1.697,1.912l3.147-2.794c0.456,0.535,0.903,1.047,1.344,1.543l-3.133,2.78
			l1.7,1.914l3.176-2.818c3.043,3.055,5.854,4.587,9.124,2.184c2.634-1.934,2.704-4.043,1.521-6.26
			c1.551,0.608,3.163,0.418,4.678-1.217c2.074-2.231,1.096-4.863-0.882-7.527L310.663,426.295z M299.22,439.974
			c-2.377,2.111-5.72-2.199-6.873-3.496l4.215-3.741C297.714,434.035,301.7,437.773,299.22,439.974z M304.375,433.805
			c-2.163,1.92-4.924-1.699-5.884-2.78l3.822-3.393C303.272,428.712,306.631,431.802,304.375,433.805z"/>
	</g>
</g>
</svg>
