<?xml version="1.0" encoding="utf-8"?>
<!-- Generator: Adobe Illustrator 17.0.2, SVG Export Plug-In . SVG Version: 6.00 Build 0)  -->
<!DOCTYPE svg PUBLIC "-//W3C//DTD SVG 1.1//EN" "http://www.w3.org/Graphics/SVG/1.1/DTD/svg11.dtd">
<svg version="1.1" id="Layer_1" xmlns="http://www.w3.org/2000/svg" xmlns:xlink="http://www.w3.org/1999/xlink" x="0px" y="0px"
	 width="612px" height="792px" viewBox="0 0 612 792" enable-background="new 0 0 612 792" xml:space="preserve">
<path fill="#5A835F" d="M316.615,386.354c-0.123,1.425-0.319,2.848-0.319,2.848l-4.131,9.246l-4.721,0.197l-1.967-0.59l-6.885,6.688
	l-6.098,2.754l3.541,4.918l14.177,19.912c0.831-0.068,1.715-0.105,2.631-0.105c4.886,0,8.848,1.047,8.848,2.339
	c0,1.236-3.633,2.246-8.23,2.33l0.081,0.113l-29.704,12l-22.819-32.261l-6.688-1.771l-0.393-8.852l-6.098-2.754l5.115-11.016
	l-0.58-0.129c-15.533,7.501-25.538,19.211-25.538,32.379c0,22.644,29.549,41,66,41c36.451,0,66-18.356,66-41
	C358.836,407.166,341.312,392.284,316.615,386.354z M341,438.25l-8.167,0.083l-5.333-0.917l-1.5-2.333l-0.167-6.167l-4.5-0.167
	l-8.417-1.25l-1.5-2.5L311,411.917l4.083-2.333l10.5,0.25l4.917,1.583l0.333,5.833l-0.083,1.5l4.917-0.25l5.083,1l4.25,1.667
	l0.333,10.25l0.25,5.417L341,438.25z"/>
<g>
	<path fill="#5A835F" d="M376.869,337.426c0-0.433,0.151-0.802,0.455-1.105c0.303-0.302,0.672-0.454,1.105-0.454
		c0.433,0,0.801,0.152,1.104,0.454c0.303,0.304,0.455,0.673,0.455,1.105v2.6c4.073,0.348,7.931,1.864,11.57,4.551
		c0.606,0.477,0.91,0.953,0.91,1.43c0,0.478-0.163,0.877-0.487,1.202c-0.325,0.325-0.716,0.487-1.171,0.487
		c-0.454,0-0.855-0.151-1.202-0.454c-3.033-2.427-6.283-3.836-9.75-4.226v18.2c4.94,1.04,8.515,2.524,10.725,4.452
		c2.211,1.929,3.315,4.55,3.315,7.865s-1.3,6.089-3.9,8.32c-2.6,2.232-5.937,3.412-10.01,3.542v5.07
		c0,0.433-0.152,0.801-0.455,1.104c-0.304,0.303-0.672,0.455-1.104,0.455c-0.434,0-0.803-0.152-1.105-0.455
		c-0.304-0.304-0.455-0.672-0.455-1.104v-5.135c-5.417-0.433-10.292-2.535-14.625-6.306c-0.477-0.39-0.715-0.822-0.715-1.3
		c0-0.477,0.163-0.877,0.487-1.202c0.325-0.325,0.716-0.487,1.17-0.487c0.455,0,0.834,0.152,1.138,0.455
		c3.727,3.467,7.951,5.438,12.675,5.914v-18.524c-4.854-1.083-8.363-2.578-10.529-4.485c-2.168-1.906-3.25-4.495-3.25-7.768
		c0-3.271,1.288-6.022,3.867-8.255c2.578-2.231,5.839-3.39,9.782-3.478V337.426z M369.426,345.356
		c-1.929,1.647-2.893,3.651-2.893,6.013c0,2.362,0.736,4.247,2.21,5.655c1.473,1.408,4.226,2.59,8.255,3.542V342.82
		C373.879,342.864,371.354,343.709,369.426,345.356z M387.626,379.904c1.972-1.668,2.957-3.715,2.957-6.143
		c0-2.427-0.77-4.344-2.307-5.753c-1.539-1.407-4.346-2.567-8.418-3.478v17.94C383.065,382.428,385.654,381.572,387.626,379.904z"/>
</g>
<g>
	<path fill="#231F20" d="M347.977,360.351c-10.373-4.068-22.219-4.577-32.042-9.96c-5.11-2.8-10.51-5.914-15.092-0.671
		c-4.061,4.648-5.888,10.909-10.714,14.864c-2.534,2.077-5.974,5.831-2.737,7.899c-0.025,0.038-0.055,0.086-0.081,0.127
		c-3.506,0.37-6.638,0.81-9.591,2.97c-0.368-0.217-0.832-0.273-1.335-0.024c-2.551,1.263-5.665,0.554-8.409,0.936
		c-0.379,0.053-0.657,0.213-0.849,0.43l-7.178-3.821l-1.912-0.682l-13.245,31.724l7.216,2.854l-1.329,9.486l7.915,0.958
		l-0.145,0.104l24.013,33.274l31.276-12.163c3.236-0.076,10.035-0.613,10.035-3.79c0-3.528-8.401-3.803-10.977-3.803
		c-0.589,0-1.49,0.017-2.519,0.081l-16.764-22.619c3.973-1.864,7.876-4.512,10.496-7.882c0.247,0.856,1.177,1.531,2.07,0.988
		c0.737-0.448,1.372-0.905,1.979-1.409c1.923,0.392,3.381-0.48,4.47-2.056c0.359-0.131,0.674-0.408,0.848-0.867
		c3.051-8.006,11.545-12.276,18.293-16.739c6.874-4.547,12.437-11.2,17.049-17.941C349.29,361.789,348.881,360.705,347.977,360.351z
		 M274.211,379.156c-0.262,0.373-0.497,0.762-0.713,1.158l-1.982-1.055C272.419,379.243,273.32,379.236,274.211,379.156z
		 M248.74,402.478l10.911-26.137l12.936,6.886c-0.035,0.723,0.086,1.435,0.446,2.107c1.633,3.044,5.404,3.846,8.592,4.2
		c1.095,0.121,2.219,0.074,3.287-0.192l-5.52,25.257L248.74,402.478z M285.239,401.899l1.467,15.921l-4.819-0.583L285.239,401.899z
		 M254.879,408.131l21.269,8.411l-22.074-2.671L254.879,408.131z M320.313,434.865c-1.235,0.456-3.837,0.98-7.516,0.98
		c-3.678,0-6.278-0.524-7.516-0.98c1.237-0.456,3.837-0.98,7.516-0.98C316.478,433.885,319.078,434.409,320.313,434.865z
		 M306.832,431.55c-2.62,0.483-5.01,1.434-5.01,3.315c0,1.857,2.33,2.808,4.911,3.297l-23.195,9.02l-21.129-29.28l27.624,3.343
		l-1.007-10.937c0.472-0.154,0.952-0.324,1.433-0.503L306.832,431.55z M291.492,404.356c-0.518,0.917-1.751,1.491-2.822,2.09
		l-0.35-3.797c0.187-0.061,0.374-0.17,0.552-0.337c0.7-0.655,1.357-1.319,1.957-2.024c0.012,0.005,0.022,0.011,0.034,0.015
		C292.721,400.912,292.306,402.917,291.492,404.356z M290.184,395.686c-0.373,1.295-1.248,2.366-2.199,3.324l-0.596-6.47
		l-0.107,0.01l0.782-3.578c0.786,0.59,1.628,1.105,2.516,1.526C290.628,392.237,290.67,394,290.184,395.686z M305.186,396.07
		c-0.623-0.499-1.529-0.555-2,0.347c-1.759,3.366-4.99,6.138-8.534,8.178c0.097-0.287,0.181-0.576,0.247-0.859
		c0.602-2.594-0.012-4.859-2.355-5.969c0.101-0.196,0.2-0.392,0.291-0.597c0.765-1.721,0.804-3.742,0.761-5.639
		c0.354,0.078,0.712,0.143,1.073,0.193c1.916,0.264,2.103-2.732,0.195-2.994c-2.096-0.288-4.177-1.32-5.756-2.757
		c1.022-0.571,2.143-0.349,3.551-0.276c1.928,0.1,2.131-2.894,0.195-2.994c-2.437-0.126-4.674-0.477-6.633,1.265
		c-1.007,0.896-0.979,2.334-2.671,2.594c-1.679,0.258-3.569-0.247-5.154-0.737c-2.43-0.751-2.814-2.149-2.283-3.63
		c0.285,0.628,0.951,0.89,1.651,0.842c1.61-0.112,3.189,0.147,4.659,0.807c1.765,0.793,2.733-2.048,0.983-2.834
		c-1.914-0.859-3.959-1.05-6.028-0.926c0.65-0.806,1.418-1.555,2.116-2.144c2.65-2.238,6.125-2.227,9.41-2.508
		c4.865,1.448,10.47-0.225,14.541,3.444C308.357,383.302,306.956,390.224,305.186,396.07z M311.428,393.274
		c-0.551-0.214-1.212-0.151-1.699,0.383c-0.28-0.086-0.574-0.076-0.852-0.006c1.072-4.779,1.216-9.466-1.36-14.322
		c-3.44-6.485-9.748-5.157-15.58-6.225c8.013-5.366,19.092-0.618,20.464,9.154C312.622,383.828,312.482,389.407,311.428,393.274z"/>
	<path fill="#231F20" d="M344.125,418.528c0,0-0.114-0.033-0.114-0.033c-1.35-0.392-2.755-0.724-4.146-0.933
		c-0.41-0.062-0.822-0.107-1.236-0.13c-0.22-0.012-0.44-0.022-0.66-0.029c-1.592-0.053-3.197,0.009-4.785,0.047
		c-0.307,0.007-0.62,0.002-0.927,0.029c-0.101,0.009-0.202,0.019-0.305,0.028c0,0,0-0.389,0.005-0.391l-0.005-3.014l0.009-0.975
		c0.031-0.997-0.179-1.954-0.188-1.994l-0.04-0.112c-1.32-2.684-8.568-2.893-10.758-2.893c-2.426,0-10.08,0.244-10.901,3.259h-0.08
		l0.005,15.365c0,3.527,8.401,3.802,10.977,3.802c0.311,0,1.828-0.01,3.604-0.179l-0.015,1.875c0,0.058,0.006,0.113,0.015,0.158
		v3.542c0,3.528,8.402,3.803,10.978,3.803s10.977-0.274,10.977-3.803v-14.821C346.532,420.034,345.722,419.158,344.125,418.528z
		 M335.556,420.15c3.678,0,6.278,0.524,7.516,0.98c-1.237,0.456-3.837,0.98-7.516,0.98s-6.279-0.524-7.517-0.98
		C329.276,420.675,331.878,420.15,335.556,420.15z M320.975,410.951c3.678,0,6.278,0.524,7.516,0.98
		c-1.237,0.456-3.837,0.98-7.516,0.98s-6.279-0.524-7.517-0.98C314.695,411.476,317.297,410.951,320.975,410.951z M312.819,414.689
		c2.907,0.991,7.253,1.045,8.155,1.045s5.248-0.054,8.154-1.045v0.707c-0.851,0.484-3.719,1.229-8.065,1.229
		c-4.678,0-7.606-0.854-8.244-1.28V414.689z M324.578,427.548c-1.136,0.124-2.346,0.187-3.604,0.187
		c-4.651,0-7.531-0.854-8.155-1.278v-0.64c2.907,0.985,7.241,1.039,8.141,1.039c0.312,0,1.837-0.01,3.618-0.181V427.548z
		 M324.578,423.846c-1.138,0.125-2.353,0.188-3.618,0.188c-4.615,0-7.485-0.84-8.141-1.271v-0.572
		c2.908,0.98,7.227,1.034,8.123,1.034c0.439,0,1.905-0.015,3.636-0.182V423.846z M324.812,420.188
		c-1.207,0.143-2.508,0.215-3.869,0.215c-4.615,0-7.432-0.818-8.123-1.26v-0.772c2.907,1.021,7.325,1.077,8.244,1.077
		c0.576,0,2.582-0.022,4.716-0.303C325.33,419.452,325.009,419.8,324.812,420.188z M343.71,435.653
		c-0.631,0.428-3.509,1.279-8.154,1.279c-4.652,0-7.532-0.854-8.155-1.277v-0.641c2.907,0.986,7.24,1.04,8.14,1.04
		c0.905,0,5.263-0.055,8.17-1.051V435.653z M343.71,431.944c-0.607,0.426-3.494,1.288-8.17,1.288c-4.616,0-7.485-0.841-8.14-1.271
		v-0.571c2.907,0.98,7.227,1.034,8.123,1.034c0.908,0,5.279-0.055,8.187-1.057V431.944z M343.71,428.416
		c-0.589,0.399-3.396,1.186-8.187,1.186c-4.617,0-7.433-0.818-8.123-1.26v-0.773c2.907,1.022,7.324,1.078,8.243,1.078
		c0.886,0,5.156-0.053,8.066-1.017V428.416z M343.71,424.596c-0.853,0.484-3.722,1.229-8.066,1.229
		c-4.396,0-7.594-0.666-8.243-1.058v-0.878c2.908,0.991,7.253,1.045,8.155,1.045s5.246-0.054,8.154-1.045V424.596z"/>
</g>
</svg>
