<?xml version="1.0" encoding="utf-8"?>
<!-- Generator: Adobe Illustrator 17.0.2, SVG Export Plug-In . SVG Version: 6.00 Build 0)  -->
<!DOCTYPE svg PUBLIC "-//W3C//DTD SVG 1.1//EN" "http://www.w3.org/Graphics/SVG/1.1/DTD/svg11.dtd">
<svg version="1.1" id="Layer_1" xmlns="http://www.w3.org/2000/svg" xmlns:xlink="http://www.w3.org/1999/xlink" x="0px" y="0px"
	 width="252px" height="252px" viewBox="180 270 252 252" enable-background="new 180 270 252 252" xml:space="preserve">
<g>
	<path fill="#A29352" d="M342.295,418.922c-6.246-8.623-17.152-15.662-30.724-19.882l0.169,17.964L342.295,418.922z"/>
	<path fill="#A29352" d="M287.75,466.5v-4l9-9.5l1.438-23.485L285.25,440.5l-69.134-3.801c0.843,22.188,30.04,40.017,65.96,40.017
		c14.822,0,28.502-3.036,39.519-8.16L287.75,466.5z"/>
</g>
<g>
	<path fill="#A29352" d="M392.873,420.892l-0.585,0.065c-0.737,0-1.234-0.346-1.495-1.04l-4.029-10.725h-20.735l-4.03,10.725
		c-0.26,0.694-0.759,1.04-1.495,1.04l-0.585-0.065c-0.39-0.173-0.682-0.465-0.877-0.877c-0.195-0.412-0.206-0.812-0.032-1.203
		l15.795-42.185c0.303-0.65,0.845-0.975,1.625-0.975c0.779,0,1.277,0.325,1.495,0.975l15.795,42.185c0.172,0.39,0.172,0.791,0,1.203
		C393.545,420.427,393.264,420.719,392.873,420.892z M376.429,381.567l-9.23,24.44h18.396L376.429,381.567z"/>
	<path fill="#A29352" d="M399.243,407.957v-17.355c0-0.433,0.151-0.801,0.455-1.105c0.303-0.303,0.672-0.455,1.105-0.455
		s0.801,0.152,1.104,0.455c0.303,0.304,0.455,0.672,0.455,1.105v17.355c0,2.73,0.953,5.049,2.86,6.955
		c1.906,1.907,4.203,2.882,6.89,2.925c2.73-0.042,5.06-1.018,6.988-2.925c1.927-1.906,2.892-4.225,2.892-6.955v-17.355
		c0-0.433,0.163-0.801,0.488-1.105c0.324-0.303,0.703-0.455,1.137-0.455s0.802,0.152,1.105,0.455
		c0.303,0.304,0.455,0.672,0.455,1.105v17.355c0,3.597-1.268,6.663-3.803,9.197c-2.535,2.535-5.601,3.803-9.197,3.803
		c-3.598,0-6.652-1.268-9.165-3.803C400.5,414.62,399.243,411.554,399.243,407.957z"/>
</g>
<path fill="#231F20" d="M298.367,414.428l-2.568,37.664l-9.596,10.43l-0.343,5.165l55.99,3.268l8.61-13.369l2.627-40.069
	L298.367,414.428z M340.276,467.858l-51.223-2.99l0.073-1.093l8.752-9.513l49.113,3.169L340.276,467.858z M347.658,454.468
	l-48.799-3.148l2.299-33.73l48.738,2.751L347.658,454.468z"/>
<path fill="#231F20" d="M303.585,421.332l-1.879,26.307l42.642,3.143l1.641-27.655L303.585,421.332z M336.683,445.25
	c-4.503,0.05-9.427,0.483-12.326-2.78c-1.484,1.571-3.582,2.31-5.827,1.514c-1.068-0.379-1.579-1.157-1.812-2.094
	c-1.215,1.288-2.702,1.934-4.587,0.585c-0.374-0.268-0.666-0.568-0.923-0.883c-0.125,0.577-0.256,1.152-0.403,1.722
	c-0.482,1.873-3.375,1.078-2.893-0.797c1.177-4.574,1.571-9.314,3.906-13.499c0.716-1.283,2.853-0.741,2.795,0.757
	c-0.074,1.925-0.621,3.639-1.044,5.509c-1.053,1.889-0.521,3.166,1.594,3.831c0.199-0.324,0.398-0.649,0.597-0.974
	c0.344-0.614,0.699-1.221,1.064-1.823c0.795-1.334,2.705-0.698,2.795,0.757c0.068,1.099-0.104,2.153-0.071,3.24
	c1.656,1.307,2.834,0.879,3.534-1.286c0.634-1.318,2.297-0.697,2.742,0.358c1.66,3.942,7.558,2.899,10.86,2.862
	C338.618,442.229,338.616,445.229,336.683,445.25z"/>
<g>
	<polygon fill="#231F20" points="237.476,389.794 215.179,388.729 213.363,425.481 223.46,426.202 237.256,417.423 	"/>
	<path fill="#231F20" d="M262.75,416.75c0-2.895-2.523-5.25-5.625-5.25s-5.625,2.355-5.625,5.25s2.523,5.25,5.625,5.25
		S262.75,419.645,262.75,416.75z"/>
	<path fill="#231F20" d="M257.125,425c-3.382,0-6.307-1.876-7.72-4.594l-10.261-0.63l-10.661,6.784l49.209,3.515l0.328-7.914
		l-13.72-0.842C262.752,423.536,260.115,425,257.125,425z"/>
	<path fill="#231F20" d="M240.453,389.965l-0.003,3.08l-0.189,23.794l8.27,0.507c-0.015-0.198-0.032-0.396-0.032-0.597
		c0-4.549,3.869-8.25,8.625-8.25s8.625,3.701,8.625,8.25c0,0.563-0.06,1.112-0.173,1.643l12.567,0.771l1.134-27.373l-37.656-1.762
		C241.623,390.029,240.453,389.869,240.453,389.965z"/>
</g>
<path fill="#231F20" d="M298.901,426.655l-13.315,11.684c-3.277-18.101,2.854-55.932,3.778-61.415l20.075-12.275l0.318,51.91
	l3.001,0.237l-0.344-56.27l-71.953-2.106l-0.285,0.111c-2.833,1.109-27.758,10.877-30.358,12.438
	c-1.078,0.646-2.3,1.38-3.574,33.223c-0.613,15.354-0.918,30.718-0.921,30.872l-0.028,1.439l81.327,4.918l12.049-10.574
	L298.901,426.655z M240.984,361.438l64.852,1.898L287.61,374.48l-70.649-3.416C223.259,368.44,233.457,364.385,240.984,361.438z
	 M208.351,433.684c0.443-21.419,1.636-54.4,3.147-59.882l74.74,3.614c-1.347,8.098-6.713,42.57-3.726,60.752L208.351,433.684z"/>
</svg>
