<?xml version="1.0" encoding="utf-8"?>
<!-- Generator: Adobe Illustrator 17.0.2, SVG Export Plug-In . SVG Version: 6.00 Build 0)  -->
<!DOCTYPE svg PUBLIC "-//W3C//DTD SVG 1.1//EN" "http://www.w3.org/Graphics/SVG/1.1/DTD/svg11.dtd">
<svg version="1.1" id="Layer_1" xmlns="http://www.w3.org/2000/svg" xmlns:xlink="http://www.w3.org/1999/xlink" x="0px" y="0px"
	 width="612px" height="792px" viewBox="0 0 612 792" enable-background="new 0 0 612 792" xml:space="preserve">
<g>
	<path fill="#5F8893" d="M287.589,432.317c0-5.197,1.292-10.096,3.564-14.402c-33.824,1.769-60.393,19.373-60.393,40.842
		c0,22.644,29.549,41,66,41c8.968,0,17.513-1.116,25.308-3.128l-8.356-33.712C298.929,460.577,287.589,447.748,287.589,432.317z"/>
	<path fill="#5F8893" d="M349.5,434.109c-0.74,12.914-9.426,23.728-21.231,27.629l21.779,12.32l-12.101,3.775l7.878,8.34
		c10.525-7.264,16.935-16.874,16.935-27.417C362.76,449.505,357.822,440.97,349.5,434.109z"/>
</g>
<g>
	<path fill="#5F8893" d="M342.539,473.257l-26.952-15.245l7.816,31.538l4.956-10.457l10.162,11.409
		c1.652-0.84,3.238-1.727,4.751-2.661l-10.807-11.439L342.539,473.257z"/>
	<path fill="#5F8893" d="M329.131,484.47l-5.57,11.753c4.311-1.192,8.38-2.659,12.145-4.371L329.131,484.47z"/>
</g>
<g>
	<path fill="none" stroke="#231F20" stroke-width="3" stroke-miterlimit="10" d="M263.895,435.651"/>
	<path fill="none" stroke="#231F20" stroke-width="3" stroke-miterlimit="10" d="M280.573,428.586"/>
</g>
<path fill="#231F20" d="M258.266,404.369c-0.094-0.029-0.191-0.041-0.286-0.065c-0.3-0.273-0.73-0.378-1.094-0.201
	c-0.846-0.098-1.708-0.102-2.553-0.103c-1.29,0-1.29,2,0,2c0.029,0,0.059,0,0.088,0c0.017,0.057,0.024,0.115,0.048,0.171
	c0.119,0.271,0.042,0.572,0.171,0.897c0.244,0.615,0.714,0.885,1.359,0.932c0.465,0.033,0.82-0.335,0.964-0.734
	c0.138-0.381,0.397-0.687,0.66-0.993c0.036,0.01,0.074,0.014,0.11,0.025C258.971,406.675,259.496,404.744,258.266,404.369z"/>
<path fill="#BABBBD" d="M228.333,454.333"/>
<path fill="#5F8893" d="M397.177,419.583c-1.669-2.231-3.803-3.803-6.402-4.713c2.902-2.34,4.354-5.188,4.354-8.547
	c0-3.357-1.104-6.143-3.314-8.353c-2.011-2.011-4.403-3.097-7.168-3.278v-9.263c0-0.875-0.709-1.584-1.584-1.584
	s-1.584,0.709-1.584,1.584v9.225h-7.799c-0.434,0-0.803,0.152-1.105,0.455c-0.304,0.304-0.455,0.672-0.455,1.105v42.38
	c0,0.434,0.141,0.802,0.423,1.105c0.281,0.304,0.639,0.455,1.072,0.455h7.864v7.576c0,0.875,0.709,1.584,1.584,1.584
	s1.584-0.709,1.584-1.584v-7.576h2.033c3.596,0,6.662-1.268,9.197-3.803c2.535-2.535,3.803-5.6,3.803-9.197
	C399.68,424.339,398.845,421.815,397.177,419.583z M389.572,400.245c1.581,1.604,2.372,3.521,2.372,5.752
	c0,2.232-0.791,4.139-2.372,5.72c-1.386,1.385-3.027,2.163-4.926,2.336v-16.176C386.545,398.053,388.187,398.842,389.572,400.245z
	 M375.305,397.84h6.174v16.25h-6.174V397.84z M375.305,436.97v-19.63h6.174v19.63H375.305z M393.569,434.11
	c-1.907,1.907-4.204,2.86-6.89,2.86h-2.033v-19.63h2.033c2.686,0,4.982,0.965,6.89,2.893c1.906,1.929,2.882,4.236,2.925,6.922
	C396.451,429.885,395.476,432.204,393.569,434.11z"/>
<path fill="#231F20" d="M267.103,457.078v-4.745h28.027c-4.746-5.448-7.63-12.558-7.63-20.333c0-7.934,2.999-15.178,7.919-20.667
	h-34.413c0.514-1.519,0.819-3.159,1.016-4.723c0.229,0.006,0.468-0.054,0.685-0.236c2.734-2.304,0.75-6.415,0.257-9.306
	c-0.074-0.432-0.553-0.734-0.964-0.734h-0.933c0.163-0.176,0.268-0.406,0.266-0.667c-0.007-1.238-0.063-2.4-0.369-3.599
	c-0.083-0.323-0.368-0.625-0.698-0.698c-1.822-0.406-3.309-0.208-4.703,0.529c-0.23-0.039-0.466-0.064-0.702-0.091
	c-0.37-0.799-1.016-1.436-1.859-1.79c-1.551-0.651-3.013,0.698-3.866,1.812c-0.069,0.09-0.112,0.178-0.144,0.266
	c-0.004,0.001-0.008,0.001-0.012,0.002c-0.256-0.487-0.531-1.01-1.017-1.253c-0.767-0.383-1.809-0.181-2.63-0.178
	c-0.553,0.002-0.99,0.453-1,1c-0.006,0.348-0.029,0.689-0.049,1.031c-0.26-0.074-0.588-0.03-0.789,0.105
	c-0.442,0.297-0.875,0.6-1.303,0.909c-0.717,0.142-1.44,0.26-2.192,0.288c-0.576,0.021-0.958,0.441-1,1
	c-0.096,1.293,0.01,2.446,0.331,3.542c0.001,0.042,0.002,0.082,0.002,0.124c0,0.295,0.113,0.519,0.279,0.683
	c0.274,0.681,0.64,1.348,1.102,2.019c-0.142,1.827,0.195,3.794,1.089,5.803c0.014,0.032,0.038,0.049,0.054,0.078
	c0.224,1.454,0.621,2.845,1.191,4.083H221v41h33.103v4.814c-11.01,1.017-19.103,4.408-19.103,8.436c0,4.833,11.641,8.75,26,8.75
	s26-3.917,26-8.75C287,461.458,278.516,458.002,267.103,457.078z M260.27,404.128c-0.122,1.981-0.446,4.862-1.395,7.206h-5.472
	c-0.161-0.197-0.404-0.332-0.736-0.333c-0.467-0.001-0.92-0.005-1.367-0.057c0.691-2.05,1.313-4.073,1.367-6.277
	c0.031-1.282-1.937-1.284-1.995-0.023c-1.523-0.769-3.213-0.864-4.938-0.608c-1.272,0.189-0.729,2.116,0.532,1.928
	c0.047-0.007,0.092-0.01,0.138-0.016c0.02,0.074,0.026,0.147,0.066,0.223c0.389,0.74,0.973,1.36,1.86,1.374
	c0.687,0.011,1.287-0.455,1.781-0.919c0.101,0.06,0.202,0.117,0.301,0.184c-0.306,1.538-0.841,3.016-1.354,4.522h-3.807
	c-0.02-0.057-0.022-0.113-0.055-0.171c-0.766-1.373-1.27-2.99-1.518-4.67c0.11-2.375,0.636-4.511,1.566-6.57
	c2.685-0.946,5.4-1.104,7.381,1.452c0.43,0.554,1.236,0.259,1.571-0.202c1.153-1.59,2.462-2.822,4.456-3.117
	c0.142,0.143,0.331,0.238,0.558,0.265C260.031,400.046,260.396,402.081,260.27,404.128z"/>
<g>
	<g>
		<path fill="#231F20" d="M317.548,422.566l-1.062,6.705c1.896,0.3,7.781,1.687,8.383-2.107
			C325.495,423.207,319.443,422.867,317.548,422.566z"/>
	</g>
</g>
<path fill="#231F20" d="M316.057,432.359l-1.172,7.393c2.278,0.359,9.342,1.965,10.002-2.206
	C325.575,433.195,318.333,432.719,316.057,432.359z"/>
<polygon fill="#231F20" points="347.221,491.996 332.34,476.244 342.413,473.1 315.461,457.854 323.277,489.393 328.233,478.936 
	342.971,495.48 "/>
<g>
	<path fill="#231F20" d="M310.879,451.834l13.379,7.568C336.944,456.739,346.5,445.466,346.5,432c0-15.439-12.561-28-28-28
		s-28,12.561-28,28c0,13.471,9.563,24.748,22.256,27.405L310.879,451.834z M308.258,443.195l-4.37-0.692l1.302-3.904
		c0,0,2.479,0.432,2.442,0.387c0.951,0.149,1.311-0.494,1.438-0.913l1.396-8.805c0.123,0.019,0.243,0.038,0.355,0.056
		c-0.136-0.042-0.258-0.064-0.351-0.08l0.995-6.285c-0.021-0.702-0.338-1.562-1.699-1.778c0.048-0.04-2.439-0.385-2.439-0.385
		l0.567-3.587l4.631,0.735l-0.002,0.017c0.697,0.11,1.413,0.209,2.142,0.31l0.876-5.516l3.356,0.532l-0.857,5.408
		c0.9,0.124,1.805,0.249,2.688,0.389l0.851-5.372l3.358,0.532l-0.874,5.517c4.275,1.066,7.498,2.944,7.25,6.982
		c-0.177,2.955-1.671,4.51-3.776,5.193c3.083,1.278,4.79,3.501,3.717,7.707c-1.33,5.224-5.508,6.02-11.206,5.45l-0.884,5.57
		l-3.359-0.532l0.872-5.495c-0.871-0.137-1.761-0.286-2.68-0.451l-0.874,5.521l-3.355-0.532l0.882-5.581
		C309.87,443.465,309.071,443.325,308.258,443.195z"/>
	<path fill="#231F20" d="M319.19,459.982l-3.723-2.106l0.496,2.003c0.836,0.075,1.681,0.12,2.536,0.12
		C318.732,460,318.96,459.988,319.19,459.982z"/>
</g>
</svg>
