<?xml version="1.0" encoding="utf-8"?>
<!-- Generator: Adobe Illustrator 17.0.2, SVG Export Plug-In . SVG Version: 6.00 Build 0)  -->
<!DOCTYPE svg PUBLIC "-//W3C//DTD SVG 1.1//EN" "http://www.w3.org/Graphics/SVG/1.1/DTD/svg11.dtd">
<svg version="1.1" id="Layer_1" xmlns="http://www.w3.org/2000/svg" xmlns:xlink="http://www.w3.org/1999/xlink" x="0px" y="0px"
	 width="252px" height="252px" viewBox="180 270 252 252" enable-background="new 180 270 252 252" xml:space="preserve">
<path fill="#5A835F" d="M298.303,387.239l6.025,19.997l-5.587,26.847l-11.992,9.812l-2.453-0.409l-2.589-4.497l-6.132,2.589
	l-9.812,1.772l-4.633-2.726l-3.407-0.818l-4.906-0.136l-20.033-11.992l-3.952-4.225l-1.499-3.679l2.317-3.134l6.269-1.635
	l2.589-1.227l0.951-16.993c-13.372,7.503-21.778,18.357-21.778,30.432c0,22.644,29.549,41,66,41s66-18.356,66-41
	C349.679,407.697,327.713,391.374,298.303,387.239z"/>
<g>
	<path fill="#5A835F" d="M367.869,339.426c0-0.433,0.151-0.802,0.455-1.105c0.303-0.302,0.672-0.454,1.105-0.454
		s0.801,0.152,1.104,0.454c0.303,0.304,0.455,0.673,0.455,1.105v2.6c4.073,0.348,7.931,1.864,11.57,4.551
		c0.606,0.477,0.91,0.953,0.91,1.43c0,0.478-0.163,0.877-0.487,1.202c-0.325,0.325-0.716,0.487-1.171,0.487
		c-0.454,0-0.855-0.151-1.202-0.454c-3.033-2.427-6.283-3.836-9.75-4.226v18.2c4.94,1.04,8.515,2.524,10.725,4.452
		c2.211,1.929,3.315,4.55,3.315,7.865s-1.3,6.089-3.9,8.32c-2.6,2.232-5.937,3.412-10.01,3.542v5.07
		c0,0.433-0.152,0.801-0.455,1.104c-0.304,0.303-0.672,0.455-1.104,0.455c-0.434,0-0.803-0.152-1.105-0.455
		c-0.304-0.304-0.455-0.672-0.455-1.104v-5.135c-5.417-0.433-10.292-2.535-14.625-6.306c-0.477-0.39-0.715-0.822-0.715-1.3
		c0-0.477,0.163-0.877,0.487-1.202c0.325-0.325,0.716-0.487,1.17-0.487c0.455,0,0.834,0.152,1.138,0.455
		c3.727,3.467,7.951,5.438,12.675,5.914V365.88c-4.854-1.083-8.363-2.578-10.529-4.485c-2.168-1.906-3.25-4.495-3.25-7.768
		c0-3.271,1.288-6.022,3.867-8.255c2.578-2.231,5.839-3.39,9.782-3.478L367.869,339.426L367.869,339.426z M360.426,347.356
		c-1.929,1.647-2.893,3.651-2.893,6.013s0.736,4.247,2.21,5.655c1.473,1.408,4.226,2.59,8.255,3.542V344.82
		C364.879,344.864,362.354,345.709,360.426,347.356z M378.626,381.904c1.972-1.668,2.957-3.715,2.957-6.143
		c0-2.427-0.77-4.344-2.307-5.753c-1.539-1.407-4.346-2.567-8.418-3.478v17.94C374.065,384.428,376.654,383.572,378.626,381.904z"/>
</g>
<g>
	<circle fill="#231F20" cx="301.845" cy="364.865" r="5.25"/>
	<path fill="#231F20" d="M286.102,354.66c2.961-1.861,8.667-0.653,12.009-0.533c6.097,0.219,12.127-0.036,18.234,0.488
		c1.928,0.165,1.913-2.836,0-3c-6.433-0.551-12.796-0.292-19.223-0.523c-3.757-0.135-9.145-1.152-12.534,0.978
		C282.955,353.096,284.459,355.693,286.102,354.66z"/>
	<path fill="#231F20" d="M316.14,363.608c-0.252-0.44-0.779-0.769-1.295-0.743c-2.043,0.104-3.398,0.805-3.946,2.851
		c-0.372,1.387,1.121,2.178,2.123,1.737c-0.235,0.55-0.172,1.238,0.201,1.685c0.06,0.125,0.124,0.247,0.176,0.376
		c0.462,1.136,2.037,1.59,2.742,0.358c0.132-0.231,0.244-0.461,0.347-0.692c2.266-0.574,4.459-1.402,6.757-1.868
		c1.895-0.385,1.091-3.276-0.797-2.893c-1.861,0.378-3.653,0.994-5.471,1.52C316.862,365.161,316.584,364.384,316.14,363.608z"/>
</g>
<path fill="#231F20" d="M331.595,338.115h-59v1.944c-9.137-1.211-19.923,5.42-16.133,15.682c-0.504-0.021-1.01,0.035-1.504,0.215
	c-1.168,0.426-2.063,1.439-2.24,2.686c-0.447,3.163,2.274,5.441,5.093,6.133c0.307,1.14,0.952,2.163,2.063,2.984
	c-0.201,0.052-0.4,0.147-0.59,0.295c-2.133,1.658-4.287,3.276-6.696,4.515c-0.273,0.14-0.442,0.331-0.563,0.536
	c-0.337,0.002-0.684,0.13-0.991,0.449c-0.882,0.915-1.605,1.944-2.279,3.008c-10.109,8.782-12.476,22.961-12.859,36.282
	c-3.47,0.34-6.921,0.949-9.268,3.852c-1.958,2.422-1.069,4.956,0.624,6.976c0.796,1.292,1.902,2.28,3.187,3.032
	c-0.099,0.404-0.022,0.835,0.183,1.189c-0.016,0.473,0.189,0.95,0.716,1.266c7.021,4.204,13.856,8.844,21.578,11.694
	c2.407,0.888,4.743,0.916,6.971,0.395c0.035,0.131,0.083,0.259,0.163,0.374c4.015,5.783,15.989,1.959,21.459-0.986
	c1.029,2.385,2.451,4.379,4.586,4.229c2.449-0.172,4.397-1.579,6.373-2.941c2.908-2.004,5.627-3.192,8.998-4.261
	c3.745-1.187,11.013-2.923,12.325-7.4c0.82-2.798,0.099-5.489-0.685-8.223c-1.159-4.039-2.18-8.092-3.176-12.176
	c-1.824-7.48-3.783-16.434-8.913-22.458c-4.003-4.7-9.379-7.685-14.287-11.292h44.865L331.595,338.115L331.595,338.115z
	 M257.898,360.216c-0.101,0.456-0.18,0.912-0.236,1.365c-0.463-0.188-0.896-0.433-1.279-0.792c-0.495-0.465-0.721-1.092-0.734-1.448
	c-0.006-0.154-0.001-0.231,0.062-0.356c0.016-0.031,0.023-0.047,0.031-0.066c0.017-0.014,0.039-0.035,0.07-0.068
	c-0.186,0.193,0.111-0.064,0.164-0.092c-0.013,0.007,0.315-0.031,0.558-0.021c0.438,0.018,0.913,0.235,1.303,0.422
	c0.236,0.113,0.467,0.158,0.687,0.158C258.231,359.486,257.996,359.775,257.898,360.216z M259.212,359.144
	c0.372-0.195,0.658-0.534,0.804-0.91c1.025,0.474,2.044,0.957,3.072,1.427c1.104,0.505,2.117-0.114,2.257-1.295
	c0.539-4.538,2.566-8.673,7.851-6.804c0.572,0.203,1.445-0.112,1.694-0.689c0.954-2.211,2.642-3.231,4.918-2.592
	c0.019,0.032,0.042,0.061,0.06,0.093c2.628,4.625,1.961,12.89,1.599,18.031c-0.195,2.772-0.802,6.245-3.277,7.914
	c-3.127,2.108-11.056-1.293-12.801-3.961c-1.054-1.612-3.652-0.11-2.59,1.514c1.611,2.464,4.553,4.062,7.601,5.012
	c-1.146,0.444-2.308,0.845-3.506,1.14c-3.457,0.852-4.636-1.161-4.8-4.409c-0.023-0.453-0.21-0.796-0.476-1.036
	c0.24-0.656,0.492-1.31,0.771-1.957c0.284-0.658,0.074-1.376-0.353-1.836c1.943,0.548,4.188,0.485,6.057,0.579
	c1.934,0.097,1.925-2.904,0-3c-1.859-0.093-3.746-0.085-5.547-0.608c-2.259-0.656-2.19-2.788-1.757-4.743
	C261.042,359.88,260.097,359.144,259.212,359.144z M263.948,390.513c0.062-0.126,0.105-0.255,0.125-0.384
	c0.836-0.506,1.295-1.559,1.298-2.513c0-0.001,0-0.002,0-0.003c0.64,0.933,1.387,1.766,2.467,2.297
	c0.004,0.002,0.007,0.002,0.01,0.004c-1.015,1.92-2.008,3.851-2.989,5.788C265.002,393.998,264.763,392.272,263.948,390.513z
	 M263.979,381.136c0.01,0.002,0.02,0.005,0.03,0.007c3.351,0.579,6.879-1.154,9.947-2.493c-1.578,2.866-3.152,5.735-4.697,8.615
	C266.781,385.962,266.507,382.454,263.979,381.136z M259.276,382.393c0.194-1.47,0.445-2.928,0.763-4.372
	c0.555,1.199,1.402,2.192,2.684,2.745C261.512,380.684,260.318,381.391,259.276,382.393z M260.734,389.668
	c-0.733,0.804-1.418,1.648-2.046,2.535c0.004-1.296,0.025-2.589,0.081-3.877c0.042-0.064,0.085-0.127,0.121-0.204
	c0.15-0.321,0.317-0.629,0.494-0.93c0.114,0.585,0.319,1.149,0.652,1.667C260.236,389.172,260.473,389.441,260.734,389.668z
	 M251.362,393.286c1.718-3.425,3.002-6.153,1.592-9.958c-0.475-1.282-0.623-2.275-0.534-3.643c0.21-3.223,5.134-4.251,6.59-6.621
	c0.675-1.099,2.345,0.003,1.67,1.102c-2.293,3.733-7.418,4.499-5.111,10.153c1.104,2.706-0.487,5.441-1.523,7.856
	c-1.121,2.613-0.85,2.871,0.26,5.839c0.542,1.449,1.097,2.903,1.436,4.417c0.8,3.567,1.005,7.099,1.802,10.55
	c0.014,0.382,0.028,0.763,0.051,1.135c0.042,0.479,0.26,0.84,0.562,1.081c0.055,0.168,0.098,0.338,0.157,0.506
	c-0.005-0.135,0.003-0.267,0-0.401c0.917,0.566,2.366,0.188,2.28-1.186c-0.038-0.439-0.039-0.87-0.015-1.295
	c1.058-2.443,2.692-4.653,4.549-6.631c1.693-1.804,3.423-3.641,5.642-4.807c2.011-1.057,7.636-2.854,6.331-5.842
	c-0.808-1.851-1.704-5.551,0.731-6.716c2.265-1.083,6.99-2.002,5.931-5.814c-0.605-2.179-1.473-4.205-1.896-6.432
	c-0.033-0.172-0.019-0.324,0.019-0.463h1.92c0.003,0.014,0.012,0.022,0.015,0.037c0.559,2.939,3.658,7.872,1.109,10.691
	c-1.422,1.573-2.802,2.449-4.785,3.176c-3.219,1.179-0.978,4.853-0.293,6.946c0.827,2.526-5.538,4.814-6.804,5.479
	c-5.554,2.917-11.49,9.141-11.705,15.717c-0.022,0.678-0.582,0.964-1.104,0.906c-0.373,0.316-0.958,0.367-1.321,0.059
	c-0.453,0.33-1.145,0.343-1.466-0.306c-2.548-5.161-2.184-10.552-3.666-15.963C253.159,400.56,250.1,395.802,251.362,393.286z
	 M252.446,428.561c1.795,0.725,2.568-2.178,0.797-2.893c-1.5-0.605-2.971-1.295-4.357-2.123c2.221-1.081,4.404-2.234,6.361-3.796
	c4.654,1.417,8.932,4.772,13.233,6.855c0.019,0.023,0.033,0.049,0.054,0.071c-0.018-0.059-0.001-0.034,0.034,0.031
	c0,0.007,0.004,0.021,0.01,0.042c-0.035-0.089,0.017,0.295,0.018,0.366c0,0.083,0.013,0.156,0.024,0.232
	c-2.3-0.693-5.112-1.275-6.692-0.138c-1.171,0.842-1.517,2.207-1.108,3.399c-2.102,0.864-4.242,1.684-5.888,3.26
	c-0.027-0.015-0.049-0.033-0.078-0.047c-3.517-1.691-6.99-3.473-10.504-5.168c1.219-0.472,1.802-1.686,2.388-2.925
	C248.525,426.863,250.448,427.755,252.446,428.561z M245.808,421.342c-0.138,0.038-0.273,0.06-0.409,0.085
	c-0.099,0.001-0.197,0.011-0.293,0.031c-0.079-0.017-0.16-0.013-0.24-0.019c-1.183-0.602-2.359-1.215-3.514-1.87
	c-1.685-0.956-3.196,1.636-1.514,2.59c0.901,0.511,1.815,0.997,2.734,1.473c-1.025,1.509-2.048,2.452-4.379,2.353
	c-2.628-0.362-5.394-1.314-7.033-3.019c-0.657-0.202-1.208-0.579-1.584-1.183c-0.01-0.023-0.024-0.045-0.034-0.068
	c-0.143-0.352-0.38-0.588-0.651-0.75c-0.021-0.034-0.045-0.064-0.066-0.098c-0.192-0.805-0.159-1.514,0.043-2.133
	c0.394-0.597,1.036-1.102,1.6-1.478c2.1-1.4,4.867-1.433,7.379-1.606c2.941,0.623,5.478,2.282,8.3,3.878
	C246.947,419.983,246.583,421.132,245.808,421.342z M247.792,435.345c-3.923-1.94-7.645-4.279-11.372-6.588
	c0.092,0.018,0.184,0.037,0.276,0.054c0.452,0.083,0.872,0.13,1.278,0.161c5.214,2.285,10.235,4.971,15.363,7.438
	c0.325,0.156,0.644,0.193,0.934,0.142c0.508,0.661,1.451,0.941,2.134,0.123c1.743-2.087,4.461-2.847,6.888-3.885
	c1.03,0.376,2.502,0.884,3.385,1.533c-0.134,0.057-0.267,0.128-0.395,0.231C259.928,439.7,254.801,438.812,247.792,435.345z
	 M272.544,440.567c-1.84,0.448-5.845,1.454-8.313,0.635c2.552-1.046,5.775-2.335,6.197-4.777c0.525-3.042-1.073-4.599-3.81-5.556
	c-1.216-0.425-4.726-1.308-1.635-1.109c1.799,0.116,3.631,0.764,5.34,1.291c3.065,0.945,6.002,2.247,9.049,3.233
	c0.316,0.873,0.663,2.13,1.094,3.49C278.028,439.147,275.24,439.911,272.544,440.567z M291.201,416.004
	c-0.865-2.51-1.64-5.064-2.159-7.671c-1.691-8.494-2.29-19.353,5.638-24.965c1.04-0.736,2.385,0.748,1.331,1.494
	c-10.326,7.31-5.678,24.431-1.524,34.049c0.191,0.443,0.103,0.855-0.226,1.201c-3.688,3.879-11.517,2.007-14.263,6.285
	c1.397,2.646,2.956,5.192,3.989,8.014c0.809,2.211,1.041,4.679,2.606,6.539c0.828,0.985-0.661,2.321-1.494,1.331
	c-1.571-1.868-2.026-4.153-2.738-6.427c-1.01-3.226-2.865-6.051-4.406-9.034c-0.181-0.35-0.126-0.669,0.034-0.923
	c0.011-0.028,0.008-0.054,0.022-0.082c2.078-4.269,6.72-3.71,10.692-4.806C292.752,419.891,292.318,419.248,291.201,416.004z
	 M328.595,373.115h-45.589c-0.015-0.014-0.031-0.026-0.046-0.04c1.831-3.788,1.717-8.525,1.607-12.616
	c-0.122-4.542-0.122-9.43-2.108-13.6c-1.325-2.782-3.486-4.65-6.015-5.745h52.151V373.115z"/>
</svg>
