<?xml version="1.0" encoding="utf-8"?>
<!-- Generator: Adobe Illustrator 17.0.2, SVG Export Plug-In . SVG Version: 6.00 Build 0)  -->
<!DOCTYPE svg PUBLIC "-//W3C//DTD SVG 1.1//EN" "http://www.w3.org/Graphics/SVG/1.1/DTD/svg11.dtd">
<svg version="1.1" id="Layer_1" xmlns="http://www.w3.org/2000/svg" xmlns:xlink="http://www.w3.org/1999/xlink" x="0px" y="0px"
	 width="612px" height="792px" viewBox="0 0 612 792" enable-background="new 0 0 612 792" xml:space="preserve">
<g>
	<path fill="#A29352" d="M324.333,390.5L331,397l0.667,1.833l1.833,1.833l11,7.167l4.826,3.217
		c-4.021-10.889-15.006-20.125-29.905-25.79L324.333,390.5z"/>
	<path fill="#A29352" d="M237.226,448.514L237,444.667l-4-0.333l-1.474-0.076C233.272,445.756,235.177,447.177,237.226,448.514z"/>
	<path fill="#A29352" d="M228.2,399.392c-5.417,5.682-8.686,12.244-9.12,19.26l2.253-0.819l4.833-0.5L228.2,399.392z"/>
	<path fill="#A29352" d="M312.005,382.839c-6.86-1.913-14.338-3.117-22.2-3.468l-0.305,21.796L305.333,388L312.005,382.839z"/>
	<path fill="#A29352" d="M334.141,447.625c8.688-6.013,14.543-13.63,16.302-22.048L334.141,447.625z"/>
	<path fill="#A29352" d="M287.167,455.667L286.5,453l12.667-15.5l-3.833,1.833l-11.5,9.5l-18.667-17.667L260,424l3.833-3
		l-12.167-1.667l-9,0.333l1.167,9.833l4.333,0.167l9.667,0.667l5.167,1.833l0.667,2.667L264,454.667l-7.945,2.432
		c8.744,2.657,18.57,4.153,28.96,4.153c3.298,0,6.536-0.155,9.704-0.445L287.167,455.667z"/>
</g>
<g>
	<path fill="#A29352" d="M395.813,405.428l-0.585,0.065c-0.737,0-1.234-0.346-1.495-1.04l-4.029-10.725h-20.735l-4.03,10.725
		c-0.26,0.694-0.759,1.04-1.495,1.04l-0.585-0.065c-0.39-0.173-0.682-0.465-0.877-0.877c-0.195-0.412-0.206-0.812-0.032-1.203
		l15.795-42.185c0.303-0.65,0.845-0.975,1.625-0.975c0.779,0,1.277,0.325,1.495,0.975l15.795,42.185c0.172,0.39,0.172,0.791,0,1.203
		C396.485,404.963,396.203,405.255,395.813,405.428z M379.368,366.103l-9.23,24.44h18.396L379.368,366.103z"/>
	<path fill="#A29352" d="M402.183,392.493v-17.355c0-0.433,0.151-0.801,0.455-1.105c0.303-0.303,0.672-0.455,1.105-0.455
		c0.433,0,0.801,0.152,1.104,0.455c0.303,0.304,0.455,0.672,0.455,1.105v17.355c0,2.73,0.953,5.049,2.86,6.955
		c1.906,1.907,4.203,2.882,6.89,2.925c2.73-0.042,5.06-1.018,6.988-2.925c1.927-1.906,2.892-4.225,2.892-6.955v-17.355
		c0-0.433,0.163-0.801,0.488-1.105c0.324-0.303,0.703-0.455,1.137-0.455s0.802,0.152,1.105,0.455
		c0.303,0.304,0.455,0.672,0.455,1.105v17.355c0,3.597-1.268,6.663-3.803,9.197c-2.535,2.535-5.601,3.803-9.197,3.803
		c-3.598,0-6.652-1.268-9.165-3.803C403.44,399.156,402.183,396.09,402.183,392.493z"/>
</g>
<line fill="none" stroke="#FFFFFF" stroke-width="3" stroke-miterlimit="10" x1="314.037" y1="470.044" x2="314.054" y2="458.523"/>
<g>
	<path fill="#231F20" d="M272.936,384.026c-3.009,0-5.457,2.448-5.457,5.457s2.448,5.457,5.457,5.457s5.457-2.448,5.457-5.457
		S275.945,384.026,272.936,384.026z"/>
	<path fill="#231F20" d="M352.621,415.304c-0.424-1.267-0.862-2.576-1.201-3.741l-0.155-0.483l-0.013,0.004
		c-0.225-0.556-0.591-1.036-1.096-1.422l-16.901-10.428c-0.025-0.346-0.048-0.69-0.065-1.016l-0.039-0.512l-0.014,0.001
		c-0.091-0.59-0.336-1.14-0.737-1.63l-14.991-14.997c-0.643-0.766-1.584-1.205-2.583-1.205c-0.768,0-1.517,0.267-2.11,0.75
		l-21.187,17.279l-0.219-36.07l-55.94,0.347v53.796c-1.099-0.113-2.132-0.18-3-0.22V362.39l-9.203,1.227l0.357,51.375l1.36,0.971
		c-4.105,0.41-9.148,1.449-9.511,4.073v21.496c0.708,4.144,13.221,4.268,14.685,4.268c0.598,0,3.039-0.022,5.766-0.329v3.414h-0.021
		c0,0.077,0.013,0.149,0.021,0.223v4.976c0,4.51,13.213,4.64,14.719,4.64c1.486,0,14.349-0.13,14.703-4.459v-21.151
		c-0.008-0.117-0.045-0.223-0.071-0.334l15.494,16.191c0.643,0.771,1.587,1.212,2.591,1.212c0.768,0,1.52-0.268,2.119-0.756
		l9.703-8.037l-0.748,0.976l-8.301,9.563c-1.126,1.467-0.844,3.58,0.663,4.735l25.327,16.399c0.588,0.439,1.286,0.672,2.02,0.672
		c0.263,0,0.526-0.031,0.781-0.092c0.746-0.176,1.416-0.609,1.888-1.223l37.211-49.334
		C354.756,422.001,354.258,420.193,352.621,415.304z M314.399,382.691c0.111-0.091,0.261-0.141,0.419-0.141
		c0.221,0,0.429,0.094,0.592,0.29l14.97,14.973c0.019,0.025,0.025,0.054,0.04,0.081c-0.366-0.036-0.736-0.032-1.101,0.056
		c-0.746,0.177-1.414,0.608-1.881,1.218l-3.548,4.629l-36.812,28.945c-0.268,0.217-0.737,0.182-1.005-0.143l-13.998-14.512
		c-0.111-0.144-0.163-0.322-0.146-0.503c0.018-0.183,0.105-0.347,0.247-0.461L314.399,382.691z M272.936,397.939
		c-4.663,0-8.457-3.793-8.457-8.457s3.794-8.457,8.457-8.457s8.457,3.794,8.457,8.457S277.599,397.939,272.936,397.939z
		 M238.792,366.755h49.38v33.885l-3,2.447v-33.331h-43.38v44.451h29.746l-1,0.815l-3.039,2.185h-26.007
		c-0.823-0.296-1.743-0.535-2.7-0.726V366.755z M257.495,394.921c0,0.883-0.432,1.661-1.089,2.151v7.263h-3v-7.123
		c-0.747-0.457-1.251-1.262-1.285-2.193l-7.155-3.811l1.41-2.647l7.332,3.906c0.335-0.15,0.704-0.237,1.094-0.237
		c0.263,0,0.511,0.049,0.751,0.119l6.204-4.136l1.664,2.496l-5.952,3.968C257.478,394.758,257.495,394.837,257.495,394.921z
		 M230.058,418.257c6.783,0,11.148,1.261,12.057,2.08c-0.909,0.819-5.274,2.08-12.057,2.08s-11.148-1.261-12.058-2.08
		C218.909,419.518,223.274,418.257,230.058,418.257z M217.898,423.187c3.92,1.722,11.074,1.79,12.159,1.79s8.239-0.068,12.159-1.79
		v2.383c-0.951,0.819-5.298,2.062-12.035,2.062c-7.231,0-11.714-1.433-12.192-2.236c0.009,0.015,0.033,0.073,0.033,0.156h-0.125
		V423.187z M250.543,431.181c6.783,0,11.148,1.261,12.057,2.08c-0.909,0.819-5.274,2.08-12.057,2.08s-11.148-1.261-12.058-2.08
		C239.395,432.443,243.76,431.181,250.543,431.181z M235.824,442.903c-1.649,0.205-3.578,0.338-5.766,0.338
		c-7.121,0-11.569-1.389-12.159-2.198v-2.222c3.925,1.713,11.056,1.78,12.139,1.78c0.599,0,3.052-0.021,5.787-0.33V442.903z
		 M235.824,437.701c-1.653,0.207-3.59,0.341-5.787,0.341c-7.053,0-11.481-1.362-12.139-2.174v-2.137
		c3.93,1.703,11.034,1.77,12.115,1.77c0.601,0,3.065-0.022,5.811-0.334V437.701z M235.939,432.583
		c-1.684,0.217-3.668,0.358-5.926,0.358c-6.974,0-11.381-1.332-12.115-2.146v-2.45c3.891,1.777,11.187,1.848,12.284,1.848
		c1.074,0,8.089-0.068,12.035-1.738v0.868C239.247,429.871,236.508,430.847,235.939,432.583z M262.702,453.967
		c-0.59,0.809-5.038,2.198-12.159,2.198s-11.569-1.389-12.159-2.198v-2.222c3.925,1.713,11.056,1.78,12.139,1.78
		c1.087,0,8.264-0.069,12.18-1.799V453.967z M262.702,448.744c-0.521,0.805-4.99,2.221-12.18,2.221
		c-7.053,0-11.481-1.362-12.139-2.174v-2.137c3.93,1.703,11.034,1.77,12.115,1.77c1.089,0,8.293-0.069,12.204-1.811V448.744z
		 M262.702,443.785h-0.044c0-0.083,0.024-0.141,0.033-0.156c-0.478,0.802-4.961,2.236-12.192,2.236
		c-6.974,0-11.381-1.332-12.115-2.146v-2.45c3.891,1.777,11.187,1.848,12.284,1.848c1.074,0,8.089-0.068,12.035-1.737V443.785z
		 M262.702,438.495c-0.951,0.819-5.298,2.062-12.035,2.062c-7.231,0-11.714-1.433-12.192-2.236c0.009,0.015,0.033,0.073,0.033,0.156
		h-0.125v-2.366c3.921,1.722,11.075,1.79,12.159,1.79s8.239-0.068,12.159-1.79V438.495z M245.176,428.987l0,0.003l-0.526,0.075
		l-0.075-1.379h-0.001v-0.012l-0.025-0.464l0.025-0.001v-5.353l17.036-0.418l-1.355,0.974c-1.434,1.167-1.646,3.289-0.448,4.76
		l3.59,3.751C255.346,427.673,246.579,428.778,245.176,428.987z M280.067,444.493l-16.91-17.673l0,0c0,0-1.708-1.625-1.458-2.042
		c0.01-0.017,0.05-0.054,0.083-0.085c0.03-0.056,0.045-0.125,0.092-0.164l1.923-1.382c0.701-0.511,1.496-1.081,2.277-1.636
		l2.559-1.839l-0.74,0.551c1.025-0.722,1.763-1.236,1.763-1.236s0.795,1.18,1.267,1.781l0.023-0.017l11.765,12.199L280.067,444.493z
		 M287.478,435.712l-2.357,10.479c-0.157,0.697-0.776,1.171-1.462,1.171c-0.109,0-0.22-0.012-0.331-0.036
		c-0.54-0.122-0.94-0.523-1.095-1.014l-0.088,0.353l-0.147-0.153l0.164-0.715c0.004-0.087,0.012-0.176,0.032-0.264l2.357-10.479
		c0.182-0.809,0.988-1.311,1.792-1.135C287.152,434.102,287.66,434.904,287.478,435.712z M287.973,443.816l2.345-10.23
		l27.033-21.255l-15.006,19.581L287.973,443.816z M290.185,455.751l-0.011,0.013l-0.13-0.104l-0.35-0.226l0.026-0.031l-1.733-1.383
		l0.018-0.07l-0.007,0.009c-0.004-0.128,0.027-0.249,0.098-0.342l3.828-4.408c0.57-0.661,1.1-1.272,1.52-1.75l0.09-0.103
		l-0.027,0.032c0.488-0.554,0.815-0.913,0.821-0.885c0.017,0.086,1.084,0.884,1.72,1.353l0.006-0.007l14.262,9.156l0.089,11.842
		L290.185,455.751z M315.678,469.66c-0.192,0.705-0.748,0.876-1.56,1.133c-0.455,0.144-0.891-0.101-1.192-0.345l0,0.03l-0.178-0.115
		l-0.001-0.071c-0.129-0.125-0.212-0.226-0.212-0.226v-0.727v-10.988c1.446,0.316,2.403,0.177,2.849,0.066l0-0.017
		c0.056-0.025,0.109-0.053,0.163-0.081l0,0.054c0.078-0.024,0.13-0.044,0.13-0.044V469.66z M314.516,455.793
		c-0.21,0.271-0.649,0.367-1.011,0.093l-16.969-10.891c-0.141-0.113-0.232-0.274-0.256-0.455c-0.025-0.183,0.022-0.362,0.133-0.507
		l7.862-10.258l0.523-0.433c-0.033-0.044-0.063-0.082-0.096-0.125l24.852-32.427c0.122-0.159,0.329-0.255,0.552-0.255
		c0.158,0,0.309,0.049,0.466,0.167l18.02,11.117c0.291,0.237,0.35,0.662,0.136,0.94L314.516,455.793z M317.94,466.363l-0.078-10.496
		l32.037-40.299l0.194,0.583c0.477,1.425,1.565,4.674,1.574,5.497L317.94,466.363z"/>
</g>
</svg>
