<?xml version="1.0" encoding="utf-8"?>
<!-- Generator: Adobe Illustrator 17.0.2, SVG Export Plug-In . SVG Version: 6.00 Build 0)  -->
<!DOCTYPE svg PUBLIC "-//W3C//DTD SVG 1.1//EN" "http://www.w3.org/Graphics/SVG/1.1/DTD/svg11.dtd">
<svg version="1.1" id="Layer_1" xmlns="http://www.w3.org/2000/svg" xmlns:xlink="http://www.w3.org/1999/xlink" x="0px" y="0px"
	 width="612px" height="792px" viewBox="0 0 612 792" enable-background="new 0 0 612 792" xml:space="preserve">
<g>
	<path fill="#5F8893" d="M231.693,341.099l1.309-8.673c-1.472,3.402-2.27,6.976-2.27,10.666c0,0.691,0.029,1.379,0.084,2.062
		L231.693,341.099z"/>
	<path fill="#5F8893" d="M346.854,316.435l-0.11,1.151l-5.911,9.538l-8.866,0.94l-3.627,10.881l-6.851,5.911l-6.583,7.926
		l-11.284,3.761l-5.239-0.672l-3.592-1.376l-3.89-0.216l-6.05,5.402l-4.754,2.377l-4.322-3.241l-5.402-5.834l-5.618-4.106h-4.538
		l-9.724-2.161l-7.347,1.297l-11.453,1.513l-0.157-0.039c4.943,19.606,32.247,34.606,65.196,34.606c36.451,0,66-18.356,66-41
		C362.732,332.911,356.744,323.604,346.854,316.435z"/>
</g>
<path fill="none" stroke="#231F20" stroke-width="2.1366" stroke-miterlimit="10" d="M244.917,336.187"/>
<path fill="none" stroke="#231F20" stroke-width="2.1366" stroke-miterlimit="10" d="M250.232,312.998"/>
<path fill="#5F8893" d="M409.506,294.912c-1.669-2.231-3.803-3.803-6.402-4.713c2.902-2.34,4.354-5.188,4.354-8.547
	c0-3.357-1.104-6.143-3.314-8.353c-2.011-2.011-4.403-3.097-7.168-3.278v-9.263c0-0.875-0.709-1.584-1.584-1.584
	s-1.584,0.709-1.584,1.584v9.225h-7.799c-0.434,0-0.803,0.152-1.105,0.455c-0.304,0.304-0.455,0.672-0.455,1.105v42.38
	c0,0.434,0.141,0.802,0.423,1.105c0.281,0.304,0.639,0.455,1.072,0.455h7.864v7.576c0,0.875,0.709,1.584,1.584,1.584
	s1.584-0.709,1.584-1.584v-7.576h2.033c3.596,0,6.662-1.268,9.197-3.803c2.535-2.535,3.803-5.6,3.803-9.197
	C412.009,299.668,411.174,297.144,409.506,294.912z M401.901,275.574c1.581,1.604,2.372,3.521,2.372,5.752
	c0,2.232-0.791,4.139-2.372,5.72c-1.386,1.385-3.027,2.163-4.926,2.336v-16.175C398.874,273.382,400.516,274.171,401.901,275.574z
	 M387.634,273.169h6.174v16.25h-6.174V273.169z M387.634,312.299v-19.63h6.174v19.63H387.634z M405.898,309.439
	c-1.907,1.907-4.204,2.86-6.89,2.86h-2.033v-19.63h2.033c2.686,0,4.982,0.965,6.89,2.893c1.906,1.929,2.882,4.236,2.925,6.922
	C408.78,305.214,407.805,307.533,405.898,309.439z"/>
<path fill="#231F20" d="M268.959,326.787c-0.542,0-1.309,0.118-1.886,0.681c-1.362,1.331-0.747,4.261,1.342,6.401
	c1.33,1.361,3.005,2.173,4.482,2.173c0.542,0,1.309-0.118,1.886-0.681c0.618-0.604,0.853-1.564,0.662-2.704
	c-0.215-1.281-0.927-2.594-2.004-3.697C272.112,327.6,270.436,326.787,268.959,326.787z"/>
<path fill="#231F20" d="M365.569,287.503c-0.003-0.041,0-0.082-0.004-0.122c0-0.023-0.002-0.045-0.002-0.068
	c-0.001-0.088-0.023-0.161-0.056-0.225c-0.131-0.777-0.442-1.515-0.953-2.143l-0.982-0.922c0.338-0.406,0.686-0.805,1.008-1.225
	c1.72-2.246,3.72-5.185,3.164-8.184c-1.383-7.461-11.487-4.736-16-1.697l-23.059-21.652c-0.879-1.036-2.153-1.628-3.512-1.628
	c-1.045,0-2.066,0.363-2.892,1.035l-6.254,5.249c-1.597-0.707-3.517-0.803-5.2-0.723c-3.602,0.173-6.633,1.817-9.671,3.635
	c-4.252,2.544-8.175,5.561-12.64,7.749c-4.588,2.249-9.48,3.625-14.012,6.073c-4.794,2.59-9.294,5.706-13.822,8.725
	c-4.624,3.083-9.058,6.461-13.701,9.498c-5.242,3.43-11.196,2.564-17.121,2.511c-1.391-0.013-1.657,1.726-0.801,2.404
	c-0.087,9.302,2.184,18.376,2.99,27.605c0.406,4.654,0.097,9.118-0.882,13.682c-0.905,4.218-2.009,8.348-2.376,12.661
	c-0.066,0.775,0.661,1.272,1.335,1.335c5.846,0.553,11.442-1.737,17.127-2.69c5.978-1.001,10.997,2.173,16.791,2.69
	c0.214,0.019,0.399-0.007,0.558-0.066c0.764,0.024,1.507,0.117,2.208,0.484c0.062,0.033,0.13,0.044,0.198,0.047l10.302,9.789
	c0.771,0.91,1.842,1.479,3.028,1.605c0.166,0.018,0.331,0.026,0.495,0.026c1.045,0,2.049-0.355,2.869-1.022l8.034-6.534
	c9.548,3.78,26.074,1.858,28.829-8.886c0.061-0.009,0.122-0.014,0.186-0.031c7.24-1.973,11.014-9.558,11.618-17.088
	c5.29,0.735,10.168-0.43,13.225-5.082c2.725-4.148,2.953-9.81,2.439-14.699l14.932-12.144c1.45-1.18,2.885-5.297,2.632-8.038
	C365.624,288.794,365.584,288.146,365.569,287.503z M255.822,346.29c-2.652-0.767-5.299-0.938-8.036-0.65
	c-5.468,0.576-10.673,2.905-16.189,2.836c0.468-3.909,1.505-7.705,2.331-11.554c0.892-4.161,1.119-8.286,0.865-12.529
	c-0.568-9.493-3.095-18.755-3.063-28.297c3.84,0.106,7.666,0.332,11.446-0.571c4.518-1.079,8.133-4.526,11.779-7.184
	c4-2.916,8.309-5.506,12.446-8.229c4.012-2.64,8.118-5.122,12.456-7.193c4.023-1.92,8.315-3.058,12.246-5.19
	c3.85-2.088,7.352-4.769,11.108-7.016c2.927-1.751,5.674-2.938,9.117-2.867c0.4,0.008,0.829,0.052,1.258,0.121l-68.992,57.904
	c-0.571,0.465-0.993,1.058-1.279,1.715c-1.678,2.246-1.783,9.354-0.376,11.084l20.718,19.687
	C260.961,348.045,258.418,347.04,255.822,346.29z M282.016,359.868c-0.392,0.32-0.889,0.467-1.395,0.412
	c-0.511-0.055-0.972-0.306-1.299-0.707l-34.332-32.623c-0.349-0.598-0.451-2.31-0.366-3.979l33.628,32.28
	c0.879,1.039,2.156,1.633,3.518,1.633c1.045,0,2.066-0.363,2.876-1.021l19.325-15.717c0.202,0.452,0.417,0.9,0.642,1.344
	L282.016,359.868z M265.597,325.957c0.859-0.839,2.022-1.283,3.362-1.283c2.035,0,4.275,1.05,5.994,2.81
	c1.376,1.409,2.292,3.122,2.577,4.824c0.309,1.843-0.142,3.464-1.27,4.566c-0.859,0.839-2.021,1.283-3.362,1.283
	c-2.034,0-4.275-1.051-5.994-2.811C263.914,332.285,263.34,328.161,265.597,325.957z M318.198,345.058
	c-1.491,9.981-15.798,10.748-24.017,8.359l11.743-9.55c0.866,1.472,1.732,2.807,2.37,3.877c0.881,1.477,3.191,0.135,2.306-1.348
	c-2.123-3.558-8.527-11.564-3.321-14.941c3.39-2.2,6.707,1.605,8.412,4.16C317.542,338.388,318.698,341.708,318.198,345.058z
	 M320.954,343.612c0.018-0.793-0.024-1.622-0.142-2.492c-0.229-1.696-0.895-3.599-1.859-5.416c0.016-0.318,0.032-0.633,0.019-0.95
	c0.057-0.147,0.091-0.313,0.089-0.503c-0.065-5.634-1.626-12.397,1.553-17.47c3.55-5.665,8.067,2.907,8.783,6.144
	C330.955,329.959,328.396,340.813,320.954,343.612z M331.179,319.481c-0.132-0.359-0.292-0.723-0.464-1.086l3.566-2.9
	c0.088,0.547,0.183,1.094,0.279,1.639l-3.28,2.668C331.243,319.698,331.217,319.584,331.179,319.481z M343.812,322.043
	c-2.057,4.238-6.386,5.394-10.775,4.776c-0.211-0.03-0.407-0.015-0.585,0.033c-0.022-1.447-0.172-2.861-0.428-4.214l3.007-2.446
	c0.017,0.145,0.04,0.291,0.054,0.436c0.165,1.698,2.838,1.714,2.671,0c-0.496-5.095-2.339-9.907,0.611-14.595
	c0.928-1.475,3.89-4.88,5.497-2.534c1.285,1.875,1.391,4.806,1.58,6.998C345.775,314.362,345.528,318.507,343.812,322.043z
	 M323.666,312.401c-1.2-0.076-2.452,0.267-3.701,1.222c-1.446,1.106-2.387,2.559-3.002,4.203l-25.664,20.771l-28.408-26.18
	l61.943-53.608l30.636,27.851L323.666,312.401z M361.28,295.403l-13.666,11.114c-0.09-0.534-0.2-1.067-0.334-1.595l15.322-12.461
	C362.257,293.762,361.744,295.026,361.28,295.403z M361.66,282.227l-7.911-7.428c2.288-1.396,5.027-2.237,7.661-2.324
	c3.685-0.123,4.288,3.12,2.945,5.834C363.652,279.727,362.689,281.004,361.66,282.227z"/>
<path fill="#231F20" d="M498.816,422.15"/>
</svg>
