<?xml version="1.0" encoding="utf-8"?>
<!-- Generator: Adobe Illustrator 17.0.2, SVG Export Plug-In . SVG Version: 6.00 Build 0)  -->
<!DOCTYPE svg PUBLIC "-//W3C//DTD SVG 1.1//EN" "http://www.w3.org/Graphics/SVG/1.1/DTD/svg11.dtd">
<svg version="1.1" id="Layer_1" xmlns="http://www.w3.org/2000/svg" xmlns:xlink="http://www.w3.org/1999/xlink" x="0px" y="0px"
	 width="252px" height="252px" viewBox="180 270 252 252" enable-background="new 180 270 252 252" xml:space="preserve">
<path fill="#5A845F" d="M339.193,450.856l-5.982-2.632v-10.051l-9.811,0.718l-5.982-1.196l-4.786-1.675l-0.239-4.547l-82.685-0.452
	c-0.004,0.186-0.023,0.369-0.023,0.556c0,22.644,29.549,41,66,41c24.942,0,46.646-8.597,57.869-21.279L339.193,450.856z
	 M314.785,449.899c-7.137,0-12.922-1.5-12.922-3.35s5.785-3.35,12.922-3.35s12.922,1.5,12.922,3.35S321.922,449.899,314.785,449.899
	z"/>
<g>
	<path d="M301.943,351.011c2.337-0.105,4.558-0.917,6.892-1.039c2.925-0.153,3.886,2.987,4.236,5.348
		c0.181,1.221,2.031,0.7,1.851-0.51c-0.356-2.402-1.35-5.166-3.641-6.334c-2.771-1.412-6.497,0.488-9.338,0.616
		C300.71,349.146,300.704,351.066,301.943,351.011z"/>
	<path d="M311.838,359.806c-0.701-1.009-2.366-0.051-1.658,0.969c1.308,1.885,2.853,3.487,5.351,3.108
		c2.433-0.369,3.48-2.44,2.697-4.701c-0.402-1.163-2.257-0.663-1.851,0.51c0.473,1.368,0.037,2.232-1.466,2.328
		C313.439,362.115,312.584,360.88,311.838,359.806z"/>
	<path d="M308.989,353.247c0.339,0.201,0.671,0.429,1.008,0.657c1.029,0.696,1.988-0.968,0.969-1.658
		c-1.207-0.817-2.263-1.419-3.737-1.533c-1.52-0.118-3.029,0.494-4.243,1.355c-1.001,0.71-0.044,2.376,0.969,1.658
		c0.213-0.151,0.425-0.286,0.64-0.409C305.913,354.03,308.036,354.718,308.989,353.247z"/>
	<path d="M318.057,368.524c-0.733-0.186-1.506,0.341-2.258,0.392c-0.863,0.058-1.135-0.511-2.038-0.014
		c-1.472,0.81-3.808-0.674-5.338-0.745c-1.233-0.057-1.238-1.977,0-1.92c0.877,0.041,1.692,0.178,2.537,0.424
		c0.621,0.181,1.197,0.446,1.851,0.505c0.351,0.032,0.786-0.4,1.123-0.493c0.611-0.168,1.165,0.011,1.724,0.244
		c0.416,0.174,1.445-0.301,1.895-0.373c0.379-0.06,0.636,0.032,1.015,0.128C319.766,366.978,319.257,368.829,318.057,368.524z"/>
	<path d="M314.965,441.937c-1.507,0-14.719,0.13-14.719,4.64c0,4.509,13.213,4.64,14.719,4.64s14.719-0.13,14.719-4.64
		C329.685,442.067,316.472,441.937,314.965,441.937z M314.965,448.656c-6.783,0-11.148-1.261-12.058-2.08
		c0.909-0.819,5.274-2.08,12.058-2.08s11.148,1.261,12.058,2.08C326.114,447.395,321.749,448.656,314.965,448.656z"/>
</g>
<g enable-background="new    ">
	<path fill="#5A845F" d="M365.797,337.432c0-0.433,0.151-0.802,0.454-1.105c0.303-0.303,0.672-0.455,1.105-0.455
		s0.802,0.152,1.105,0.455c0.302,0.304,0.454,0.673,0.454,1.105v2.6c4.073,0.348,7.931,1.864,11.57,4.55
		c0.606,0.478,0.91,0.954,0.91,1.431c0,0.477-0.162,0.877-0.487,1.202c-0.325,0.325-0.715,0.487-1.17,0.487
		s-0.856-0.151-1.203-0.455c-3.033-2.426-6.283-3.835-9.75-4.225v18.2c4.94,1.04,8.516,2.524,10.726,4.452
		c2.21,1.929,3.314,4.55,3.314,7.865c0,3.314-1.3,6.089-3.899,8.319c-2.601,2.232-5.938,3.413-10.011,3.543v5.07
		c0,0.433-0.152,0.801-0.454,1.104c-0.304,0.303-0.673,0.455-1.105,0.455c-0.434,0-0.803-0.152-1.105-0.455
		c-0.303-0.304-0.454-0.672-0.454-1.104v-5.136c-5.418-0.433-10.292-2.534-14.625-6.305c-0.478-0.39-0.715-0.822-0.715-1.3
		c0-0.477,0.163-0.878,0.488-1.202c0.325-0.325,0.715-0.488,1.17-0.488s0.834,0.152,1.137,0.455
		c3.726,3.468,7.952,5.438,12.675,5.915v-18.524c-4.854-1.083-8.364-2.578-10.53-4.485c-2.167-1.906-3.25-4.495-3.25-7.768
		c0-3.271,1.289-6.022,3.868-8.255c2.578-2.231,5.838-3.391,9.783-3.478v-2.468H365.797z M358.354,345.361
		c-1.928,1.647-2.892,3.651-2.892,6.013s0.736,4.247,2.21,5.655c1.473,1.408,4.225,2.59,8.255,3.542v-17.745
		C362.807,342.87,360.281,343.715,358.354,345.361z M376.554,379.909c1.972-1.668,2.958-3.716,2.958-6.143s-0.771-4.344-2.308-5.753
		c-1.539-1.407-4.345-2.567-8.418-3.478v17.94C371.993,382.434,374.582,381.577,376.554,379.909z"/>
</g>
<path d="M375.868,408.306v-5.529h-43.831c1.081-1.729,2.101-3.548,3.031-5.428c0.07-0.092,0.123-0.198,0.156-0.315
	c2.374-4.867,4.153-10.099,4.872-15.086c0.416-2.88,0.386-5.875,0.252-8.841c0.103-1.738,0.052-3.48-0.281-5.156
	c-0.258-4.399-0.815-8.804-1.777-13.104c-1.672-7.474-5.172-14.51-10.032-20.41c-9.431-11.447-24.21-14.439-38.017-9.919
	c-15.818,5.178-23.778,22.688-25.512,38.096c-0.444,3.949-0.488,7.968-0.148,11.966c-0.008,0.496,0.024,0.99,0.14,1.438
	c1.032,9.518,4.269,18.846,9.569,26.758h-20.401l-32.315,11.405l1.691-0.597l-9.016,2.34v16.203l2.56,0.071h94.924v2.981
	c0,4.51,13.213,4.64,14.719,4.64c0.598,0,3.039-0.022,5.766-0.329v3.414h-0.021c0,0.077,0.013,0.149,0.021,0.223v4.976
	c0,4.51,13.213,4.64,14.719,4.64c1.507,0,14.719-0.13,14.719-4.64V433.21c0.078-0.225,0.125-0.461,0.125-0.713h-0.125v-5.216
	c0-1.386-1.251-2.357-3.024-3.039l14.674-5.29l-0.065,0.016l2.625-1.24v-9.162l0.083-0.03L375.868,408.306z M332.031,397.125
	c-3.46-1.914-6.71-5.043-10.884-5.021c-1.29,0.007-1.289-1.993,0-2c4.618-0.024,8.066,3.176,11.894,5.294
	C334.169,396.022,333.16,397.75,332.031,397.125z M318.509,396.384c-0.813-1.297-0.981-1.959-2.484-2.532
	c-1.941-0.74-3.926-1.376-5.904-2.033c2.797-0.873,5.27-2.725,6.471-5.55c1.892,1.122,2.87,2.168,2.486,4.665
	c-0.175,1.141,0.203,1.924,1.034,2.656c2.543,2.242,0.682,6.819,3.796,8.665c0.25,0.148,0.41,0.326,0.516,0.522h-4.746
	c0.486-0.478,0.918-0.994,1.181-1.741C321.526,399.14,319.331,397.696,318.509,396.384z M289.274,362.259
	c-0.772,1.757-1.046,3.565-1.144,5.413c-1.765-1.215-3.498-2.443-5.074-3.902c-1.799-1.665-2.72-3.852-4.115-5.806
	c-0.228-0.319-0.436-0.632-0.625-0.943c1.289,0.069,2.574,0.13,3.851,0.354c1.279,0.225,1.375,1.168,2.136,1.993
	c0.454,0.492,0.919,0.989,1.56,1.23c0.531,0.199,2.266,0.167,2.599,0.476c0.19,0.33,0.417,0.623,0.717,0.858
	c0.048,0.08,0.095,0.159,0.143,0.239C289.306,362.202,289.288,362.227,289.274,362.259z M291.479,379.508
	c-0.644-1.845-0.798-3.785-0.964-5.797c-0.168-2.048-0.365-4.018-0.201-6.052c1.416,2.125,3.27,3.901,5.374,5.436
	c0.017,0.036,0.05,0.067,0.074,0.101c0.128,0.102,0.256,0.204,0.383,0.307c4.067,1.762,8.342,6.638,13.057,7.223
	c-3.811,1.986-7.427,4.468-11.83,4.599c-0.159,0.005-0.296,0.041-0.414,0.1c-0.621-1.594-1.953-2.47-3.604-4.092
	C292.721,380.711,292.033,380.148,291.479,379.508z M297.373,361.975c-0.796-3.217-1.438-6.231-1.544-9.568
	c-0.106-3.342,0.157-6.764,0.971-10.007c0.349-1.392,0.879-2.739,1.398-4.074c0.271-0.697,1.434-4.417,2.395-4.68
	c0.153,0.212,0.388,0.371,0.71,0.404c3.181,0.321,5.786,2.485,8.96,2.94c1.142,0.164,2.161-0.094,3.243-0.444
	c2.999-0.97,4.372,1.711,5.642,3.642c2.1,3.192,3.362,6.23,3.698,9.915c-0.046-0.069-0.099-0.136-0.171-0.199
	c-2.206-1.956-6.173-0.64-7.374,1.901c-0.391,0.827,0.423,1.576,1.084,1.448c0.165,0.524,0.765,0.963,1.415,0.651
	c0.1-0.048,0.221-0.097,0.35-0.145c0.135,0.292,0.409,0.514,0.829,0.514c0.629,0,0.937-0.496,0.927-0.984
	c0.058-0.007,0.115-0.019,0.174-0.024c0.009-0.001,0.282-0.008,0.285-0.008c0.004,0.001,0.006,0.001,0.01,0.002
	c0.682,0.863,2.182-0.062,1.573-1.084c-0.809-1.359-2.869-0.857-4.304-0.285c1.001-0.926,2.669-1.52,3.675-0.628
	c0.579,0.513,1.331,0.172,1.582-0.357c0.009,0.171,0.028,0.334,0.034,0.507c0.114,3.753-1.739,7.013-1.83,10.81
	c-0.081,3.409,0.216,6.688-0.702,10.028c-0.692,2.517-4.775,4.088-6.783,5.45c-5.677,3.85-11.432-3.512-16.292-5.759
	c-0.039-0.037-0.078-0.074-0.125-0.107c-2.786-1.945-5.303-4.385-6.599-7.586c-0.008-0.019-0.019-0.034-0.028-0.053
	c0.005-0.015,0.008-0.031,0.013-0.047c1.541,2.241,3.386,4.238,5.981,5.28c0.465,0.187,1.083-0.199,1.181-0.671
	C298.235,366.413,297.943,364.279,297.373,361.975z M297.372,387.244c6.387-0.19,10.95-4.866,16.863-6.574
	c0.317-0.092,0.51-0.292,0.605-0.529c-0.135,1.505-0.339,3.42,0.321,4.756c-0.089,0.095-0.162,0.213-0.213,0.357
	c-1.25,3.513-5.475,5.263-8.798,5.233c-1.144-0.011-1.226,1.518-0.255,1.886c3.175,1.202,6.374,2.334,9.621,3.33
	c1.154,0.354,1.175,1.731,1.901,2.505c1.856,1.98,0.716,3.144-0.482,4.568h-13.517c-0.466-1.181-0.987-2.346-1.575-3.5
	c-0.886-1.739-1.207-3.672-2.091-5.388c-1.054-2.046-2.498-3.309-2.418-5.84c0.009-0.288,0.002-0.553-0.011-0.808
	C297.338,387.241,297.354,387.245,297.372,387.244z M277.985,350.661c1.107-2.127,2.469-3.991,3.417-6.226
	c1.738-4.094,3.849-7.896,6.943-11.132c3.569-3.733,8.776-4.526,13.713-4.723c11.291-0.451,18.307,7.006,23.028,16.448
	c1.888,3.777,3.376,8.155,4.487,12.242c0.74,2.724-1.626,3.361-3.091,4.871c-1.461,1.505-1.161,3.495-3.388,4.275
	c-0.017-0.779-0.046-1.51-0.056-2.138c-0.041-2.442-0.165-4.933,0.909-7.19c0.849-1.782,0.9-3.735,0.905-5.676
	c0.013-4.59-1.559-8.403-4.047-12.194c-1.476-2.248-3.69-5.768-6.929-4.79c-3.101,0.937-5.113,0.388-7.96-0.934
	c-1.44-0.669-2.852-1.15-4.422-1.335c-0.129-0.29-0.404-0.498-0.832-0.456c-1.785,0.173-2.445,1.314-3.072,2.891
	c-1.363,3.43-2.726,6.84-3.294,10.507c-0.55,3.552-0.495,7.262-0.175,10.831c0.335,3.737,2.221,7.388,1.933,11.14
	c-2.287-1.344-3.824-3.77-5.162-6.016c-0.231-0.52-0.62-0.878-1.019-1.265c-0.021-0.024-0.027-0.05-0.052-0.073
	c-0.034-0.032-0.065-0.048-0.099-0.078c-0.04-0.04-0.08-0.077-0.119-0.119c-0.061-0.066-0.128-0.105-0.195-0.129
	c-0.503-0.341-0.984-0.419-1.721-0.375c-1.667,0.099-2.001-1.37-2.922-2.357c-1.686-1.807-4.897-1.461-7.143-1.596
	c-0.071-0.004-0.137,0-0.199,0.008C277.024,353.705,277.132,352.3,277.985,350.661z M271.293,392.534c-1.285-0.052-1.29-2.052,0-2
	c2.849,0.115,8.407-4.251,10.026-6.274c2.995-3.743,4.692-7.97,5.556-12.653c0.234-1.267,2.161-0.729,1.929,0.532
	c-0.929,5.038-2.917,10.839-6.863,14.373C279.418,388.771,274.881,392.679,271.293,392.534z M311.734,429.639H216.81v-2.24h94.924
	V429.639z M311.734,424.84H216.81v-2.23h94.924V424.84z M311.734,420.05H216.81v-3.194h94.924V420.05z M311.739,414.296h-82.797
	l25.385-8.959H363.75l-22.812,8.051c-1.751-3.557-13.095-3.671-14.485-3.671C324.953,409.717,311.859,409.847,311.739,414.296z
	 M314.294,419.573v-2.366c3.92,1.722,11.075,1.79,12.159,1.79s8.239-0.068,12.159-1.79v2.383c-0.951,0.819-5.298,2.062-12.035,2.062
	C319.346,421.652,314.772,420.375,314.294,419.573 M314.395,414.356c0.909-0.818,5.275-2.08,12.058-2.08s11.148,1.261,12.058,2.08
	c-0.909,0.819-5.274,2.08-12.058,2.08S315.305,415.175,314.395,414.356z M332.219,436.922c-1.649,0.205-3.578,0.338-5.766,0.338
	c-7.121,0-11.569-1.389-12.159-2.198v-2.222c3.925,1.713,11.056,1.78,12.139,1.78c0.599,0,3.051-0.021,5.787-0.33v2.632
	L332.219,436.922L332.219,436.922z M332.219,431.72c-1.653,0.207-3.59,0.341-5.787,0.341c-7.053,0-11.481-1.362-12.139-2.174v-2.137
	c3.93,1.703,11.034,1.77,12.115,1.77c0.601,0,3.065-0.022,5.811-0.334V431.72z M332.334,426.602
	c-1.684,0.217-3.668,0.358-5.926,0.358c-6.974,0-11.381-1.332-12.115-2.146v-2.45c3.891,1.777,11.187,1.848,12.284,1.848
	c1.074,0,8.089-0.068,12.035-1.738v0.868C335.642,423.891,332.904,424.867,332.334,426.602z M359.098,447.987
	c-0.59,0.809-5.038,2.198-12.159,2.198s-11.569-1.389-12.159-2.198v-2.222c3.925,1.713,11.056,1.78,12.139,1.78
	c1.087,0,8.264-0.069,12.18-1.799v2.241H359.098z M359.098,442.764c-0.521,0.805-4.99,2.221-12.18,2.221
	c-7.053,0-11.481-1.362-12.139-2.174v-2.137c3.93,1.703,11.034,1.77,12.115,1.77c1.089,0,8.293-0.069,12.204-1.811V442.764z
	 M359.098,437.804h-0.044c0-0.083,0.024-0.141,0.033-0.156c-0.478,0.802-4.961,2.236-12.193,2.236
	c-6.974,0-11.381-1.332-12.115-2.146v-2.45c3.891,1.777,11.187,1.848,12.284,1.848c1.074,0,8.089-0.068,12.035-1.737V437.804z
	 M334.779,432.497v-2.366c3.92,1.722,11.075,1.79,12.159,1.79s8.239-0.068,12.159-1.79v2.383c-0.951,0.819-5.298,2.062-12.035,2.062
	C339.832,434.577,335.257,433.299,334.779,432.497 M358.996,427.281c-0.909,0.819-5.274,2.08-12.057,2.08s-11.148-1.261-12.058-2.08
	c0.909-0.818,5.275-2.08,12.058-2.08S358.087,426.462,358.996,427.281z M373.308,416.231l-19.197,6.92
	c-1.338-0.198-2.669-0.319-3.823-0.393l23.02-8.163V416.231z M373.308,411.879l-30.943,10.972c-0.388,0.034-0.786,0.073-1.192,0.118
	v-1.801l32.135-11.672L373.308,411.879L373.308,411.879z M373.308,406.772l-32.135,11.672v-2.425l32.135-11.342V406.772z"/>
</svg>
