<?xml version="1.0" encoding="utf-8"?>
<!-- Generator: Adobe Illustrator 17.0.2, SVG Export Plug-In . SVG Version: 6.00 Build 0)  -->
<!DOCTYPE svg PUBLIC "-//W3C//DTD SVG 1.1//EN" "http://www.w3.org/Graphics/SVG/1.1/DTD/svg11.dtd">
<svg version="1.1" id="Layer_1" xmlns="http://www.w3.org/2000/svg" xmlns:xlink="http://www.w3.org/1999/xlink" x="0px" y="0px"
	 width="252px" height="252px" viewBox="180 270 252 252" enable-background="new 180 270 252 252" xml:space="preserve">
<g>
	<path fill="#A29352" d="M397.359,382.758l-0.585,0.064c-0.737,0-1.234-0.346-1.495-1.04l-4.029-10.725h-20.735l-4.03,10.725
		c-0.26,0.694-0.759,1.04-1.495,1.04l-0.585-0.064c-0.39-0.173-0.682-0.466-0.877-0.878c-0.195-0.411-0.206-0.812-0.032-1.202
		l15.795-42.186c0.303-0.649,0.845-0.975,1.625-0.975c0.779,0,1.277,0.325,1.495,0.975l15.795,42.186
		c0.172,0.39,0.172,0.791,0,1.202C398.031,382.292,397.75,382.585,397.359,382.758z M380.915,343.433l-9.23,24.439h18.396
		L380.915,343.433z"/>
	<path fill="#A29352" d="M403.729,369.822v-17.354c0-0.433,0.151-0.802,0.455-1.105c0.303-0.303,0.672-0.455,1.105-0.455
		s0.801,0.152,1.104,0.455c0.303,0.304,0.455,0.673,0.455,1.105v17.354c0,2.73,0.953,5.049,2.86,6.955
		c1.906,1.907,4.203,2.883,6.89,2.925c2.73-0.042,5.06-1.018,6.988-2.925c1.927-1.906,2.892-4.225,2.892-6.955v-17.354
		c0-0.433,0.163-0.802,0.488-1.105c0.324-0.303,0.703-0.455,1.137-0.455s0.802,0.152,1.105,0.455
		c0.303,0.304,0.455,0.673,0.455,1.105v17.354c0,3.598-1.268,6.663-3.803,9.197c-2.535,2.535-5.601,3.803-9.197,3.803
		c-3.598,0-6.652-1.268-9.165-3.803C404.986,376.485,403.729,373.42,403.729,369.822z"/>
</g>
<g>
	<path fill="none" stroke="#231F20" stroke-width="2.1366" stroke-miterlimit="10" d="M294.662,406.107"/>
	<path fill="none" stroke="#231F20" stroke-width="2.1366" stroke-miterlimit="10" d="M299.977,382.918"/>
	<path fill="none" stroke="#231F20" stroke-width="2.1366" stroke-miterlimit="10" d="M300.105,402.073"/>
	<path fill="none" stroke="#231F20" stroke-width="2.1366" stroke-miterlimit="10" d="M305.42,378.884"/>
	<path fill="none" stroke="#231F20" stroke-width="2.1366" stroke-miterlimit="10" d="M305.623,397.308"/>
	<path fill="none" stroke="#231F20" stroke-width="2.1366" stroke-miterlimit="10" d="M310.938,374.12"/>
	<path fill="none" stroke="#231F20" stroke-width="2.1366" stroke-miterlimit="10" d="M310.683,393.875"/>
	<path fill="none" stroke="#231F20" stroke-width="2.1366" stroke-miterlimit="10" d="M315.998,370.686"/>
	<path fill="none" stroke="#231F20" stroke-width="2.1366" stroke-miterlimit="10" d="M316.001,388.952"/>
	<path fill="none" stroke="#231F20" stroke-width="2.1366" stroke-miterlimit="10" d="M321.316,365.763"/>
</g>
<g>
	<path fill="none" stroke="#231F20" stroke-width="2.1366" stroke-miterlimit="10" d="M321.592,384.717"/>
	<path fill="none" stroke="#231F20" stroke-width="2.1366" stroke-miterlimit="10" d="M326.907,361.529"/>
	<path fill="none" stroke="#231F20" stroke-width="2.1366" stroke-miterlimit="10" d="M327.035,380.684"/>
	<path fill="none" stroke="#231F20" stroke-width="2.1366" stroke-miterlimit="10" d="M332.349,357.495"/>
	<path fill="none" stroke="#231F20" stroke-width="2.1366" stroke-miterlimit="10" d="M333.217,373.021"/>
	<path fill="none" stroke="#231F20" stroke-width="2.1366" stroke-miterlimit="10" d="M337.868,352.731"/>
	<path fill="none" stroke="#231F20" stroke-width="2.1366" stroke-miterlimit="10" d="M338.366,369.2"/>
	<path fill="none" stroke="#231F20" stroke-width="2.1366" stroke-miterlimit="10" d="M341.576,352.068"/>
</g>
<path fill="none" stroke="#231F20" stroke-width="2.1366" stroke-miterlimit="10" d="M256.122,422.856"/>
<path fill="none" stroke="#231F20" stroke-width="2.1366" stroke-miterlimit="10" d="M261.437,399.667"/>
<path fill="none" stroke="#231F20" stroke-width="2.1366" stroke-miterlimit="10" d="M252.32,419.054"/>
<path fill="none" stroke="#231F20" stroke-width="2.1366" stroke-miterlimit="10" d="M257.635,395.865"/>
<path fill="none" stroke="#231F20" stroke-width="2.1366" stroke-miterlimit="10" d="M248.5,415.768"/>
<path fill="none" stroke="#231F20" stroke-width="2.1366" stroke-miterlimit="10" d="M253.815,392.579"/>
<path fill="none" stroke="#231F20" stroke-width="2.1366" stroke-miterlimit="10" d="M245.192,411.925"/>
<path fill="none" stroke="#231F20" stroke-width="2.1366" stroke-miterlimit="10" d="M250.507,388.737"/>
<path fill="none" stroke="#231F20" stroke-width="2.1366" stroke-miterlimit="10" d="M241.375,407.041"/>
<path fill="none" stroke="#231F20" stroke-width="2.1366" stroke-miterlimit="10" d="M246.69,383.852"/>
<path fill="none" stroke="#231F20" stroke-width="2.1366" stroke-miterlimit="10" d="M238.032,403.163"/>
<path fill="none" stroke="#231F20" stroke-width="2.1366" stroke-miterlimit="10" d="M243.346,379.974"/>
<path fill="none" stroke="#231F20" stroke-width="2.1366" stroke-miterlimit="10" d="M234.335,400.506"/>
<path fill="none" stroke="#231F20" stroke-width="2.1366" stroke-miterlimit="10" d="M238.57,382.03"/>
<path fill="none" stroke="#231F20" stroke-width="2.1366" stroke-miterlimit="10" d="M231.173,396.677"/>
<path fill="none" stroke="#231F20" stroke-width="2.1366" stroke-miterlimit="10" d="M233.929,384.654"/>
<path fill="#A29352" d="M330.528,386.835l-1.32,3.094l-3.264,4.645l-5.461,1.193l-4.394-0.063l-0.628,1.507l-1.255,6.842
	l-3.39,4.331l-3.766,3.327l-3.076,1.507l-0.753,1.444l-3.704,4.959l-3.578,2.072l-5.461,1.632l-7.407-0.126l-5.524-1.507
	l-0.025-0.028l-1.962-0.346l-10.529,8.375l-3.608-1.408l-10.75-10.557l-2.154-0.718l-9.333-2.154l-7.658-0.718l-10.529,2.632
	l-6.461,0.239l1.196-8.375l2.154-8.136l-0.328-11.063c-5.251,5.882-8.251,12.648-8.251,19.851c0,22.644,29.549,41,66,41
	s66-18.356,66-41C341.308,400.996,337.341,393.284,330.528,386.835z"/>
<path fill="#231F20" d="M352.43,341.951c-1.351-7.288-11.024-4.857-15.679-1.908l-18.662-18.674
	c-0.879-1.046-2.16-1.645-3.527-1.645c-1.045,0-2.066,0.363-2.877,1.023l-8.269,6.744c0.143-1.026-0.053-2.049-0.848-2.933
	c-1.725-1.919-4.642-2.137-7.056-2.022c-3.602,0.173-6.633,1.817-9.671,3.635c-4.252,2.544-8.175,5.561-12.64,7.749
	c-4.588,2.249-9.48,3.625-14.013,6.073c-4.794,2.59-9.294,5.706-13.822,8.725c-4.624,3.083-9.058,6.46-13.701,9.498
	c-4.877,3.191-10.37,2.664-15.882,2.533c-1.114,0.317-1.982,0.924-2.065,2.354c0.01,0.008,0.015,0.02,0.025,0.028
	c-0.087,9.302,2.184,18.376,2.99,27.605c0.406,4.654,0.097,9.118-0.882,13.682c-0.905,4.218-2.009,8.348-2.376,12.661
	c-0.066,0.775,0.661,1.272,1.335,1.335c5.846,0.552,11.442-1.737,17.127-2.69c5.978-1.001,10.997,2.173,16.791,2.69
	c0.111,0.01,0.214,0.006,0.31-0.007c0.027,0.005,0.049,0.018,0.079,0.019c0.487,0.017,0.967,0.188,1.413,0.411l9.89,10.336
	c0.772,0.925,1.853,1.504,3.05,1.632c0.166,0.018,0.331,0.026,0.494,0.026c1.046,0,2.051-0.356,2.879-1.03l8.928-7.395
	c0.109,0.091,0.23,0.173,0.378,0.234c9.503,3.923,26.32,2.063,29.101-8.782c0.061-0.009,0.122-0.014,0.186-0.031
	c7.24-1.973,11.014-9.558,11.618-17.088c5.29,0.735,10.168-0.43,13.225-5.083c2.982-4.539,2.977-10.896,2.278-16.064
	c-0.009-0.066-0.019-0.135-0.028-0.201l10.604-8.784c1.235-1.005,1.27-3.508,0.775-9.448c0.005-0.005,0.01-0.011,0.015-0.016
	c-0.003-0.049-0.022-0.089-0.018-0.142c0.037-0.513,0.267-0.971,0.63-1.323c0.371-0.596,1.174-1.331,1.473-1.677
	c1.103-1.275,2.23-2.528,3.256-3.868C350.986,347.889,352.986,344.95,352.43,341.951z M313.372,322.816
	c0.793-0.644,2.044-0.503,2.693,0.294l24.066,24.083c0.301,0.393,0.439,0.876,0.392,1.368c-0.05,0.507-0.294,0.962-0.669,1.268
	l-69.265,54.462c-0.792,0.645-2.043,0.504-2.694-0.295l-22.496-23.325c-0.305-0.395-0.446-0.882-0.397-1.376
	c0.05-0.507,0.293-0.962,0.687-1.283L313.372,322.816z M240.509,413.628c-2.652-0.767-5.299-0.938-8.036-0.65
	c-5.468,0.576-10.673,2.905-16.189,2.836c0.468-3.909,1.505-7.705,2.331-11.554c0.892-4.161,1.119-8.286,0.865-12.529
	c-0.568-9.493-3.095-18.755-3.063-28.297c3.84,0.106,7.666,0.332,11.446-0.571c4.518-1.079,8.133-4.526,11.779-7.184
	c4-2.916,8.309-5.506,12.446-8.228c4.012-2.64,8.118-5.122,12.456-7.193c4.023-1.92,8.315-3.058,12.246-5.19
	c3.85-2.088,7.352-4.769,11.108-7.016c2.927-1.751,5.673-2.938,9.117-2.867c1.147,0.023,2.538,0.223,3.434,1.005
	c0.312,0.272,0.404,0.622,0.371,1.001c0,0.003,0.002,0.005,0.002,0.008c0.027,0.64-0.252,1.239-0.552,1.791
	c-0.231,0.515-0.522,1.009-0.786,1.518c-0.05,0.138-0.128,0.253-0.23,0.349c-0.059,0.076-0.128,0.145-0.211,0.2l-55.008,44.86
	l-16.445,11.818c-0.949,0.772-1.538,1.871-1.659,3.092c-0.12,1.217,0.241,2.412,1.015,3.363l20.45,21.372
	C245.048,415.152,242.799,414.291,240.509,413.628z M243.004,381.864l-14.082,10.496c-0.255-0.375-0.377-0.819-0.332-1.273
	c0.05-0.507,0.293-0.962,0.623-1.233l13.213-9.493C242.529,380.891,242.72,381.396,243.004,381.864z M259.292,424.135
	l-28.997-30.305l14.015-10.446l19.652,20.376L259.292,424.135z M262.602,427.589c-0.049-0.048-0.101-0.092-0.145-0.146l-1.396-1.459
	l4.673-20.387l0.129,0.134c0.499,0.597,1.137,1.03,1.839,1.309L262.602,427.589z M265.15,427.737
	c-0.137,0.112-0.291,0.194-0.449,0.263l5.125-20.651c0.744-0.071,1.455-0.321,2.069-0.726l-4.393,19.166L265.15,427.737z
	 M302.884,412.397c-1.54,10.314-16.767,10.789-24.818,8.11l12.118-10.038c1.001,1.763,2.053,3.368,2.796,4.613
	c0.881,1.477,3.191,0.135,2.306-1.348c-2.123-3.558-8.527-11.564-3.321-14.941c3.39-2.2,6.707,1.605,8.412,4.16
	C302.228,405.727,303.384,409.047,302.884,412.397z M305.641,410.95c0.018-0.793-0.024-1.622-0.142-2.492
	c-0.25-1.857-1.006-3.967-2.126-5.935c0.228-0.215,0.379-0.524,0.374-0.934c-0.065-5.634-1.626-12.397,1.553-17.47
	c3.55-5.665,8.067,2.907,8.783,6.144C315.641,397.298,313.082,408.152,305.641,410.95z M328.498,389.382
	c-2.057,4.238-6.386,5.394-10.775,4.776c-0.211-0.03-0.407-0.015-0.585,0.033c-0.028-1.902-0.266-3.755-0.698-5.472l3.09-2.559
	c0.096,0.605,0.184,1.209,0.242,1.808c0.165,1.698,2.838,1.714,2.671,0c-0.496-5.095-2.339-9.907,0.611-14.595
	c0.928-1.475,3.89-4.88,5.497-2.534c1.285,1.875,1.391,4.806,1.58,6.998C330.462,381.701,330.214,385.846,328.498,389.382z
	 M341.349,364.619l-9.353,7.747c-0.396-1.608-1.042-3.14-2.294-4.228c-1.787-1.553-4.249-0.732-5.887,0.598
	c-2.679,2.173-4.589,5.083-5.083,8.527c-0.278,1.935-0.041,3.9,0.284,5.855l-3.482,2.885c-1.877-4.188-6.411-8.46-10.881-5.042
	c-4.832,3.695-4.16,11.184-3.747,17.159l-0.543,0.45c-2.853-2.788-6.551-4.156-10.263-1.747c-4.055,2.63-3.137,7.099-1.181,11.227
	l-18.709,15.497l4.35-18.979l66.259-52.099c0.07,0.818,0.143,1.639,0.217,2.452C341.346,358.361,341.813,363.527,341.349,364.619z
	 M349.041,345.647c-1.2,2.425-3.157,4.447-4.919,6.466c-0.184,0.211-0.389,0.436-0.597,0.668c-0.133-1.522-0.254-3.033-0.324-4.415
	l-0.019,0.001c0-1.056-0.339-2.075-1.015-2.907l-3.471-3.474c2.235-1.303,4.866-2.09,7.401-2.174
	C349.781,339.69,350.384,342.933,349.041,345.647z"/>
</svg>
