<?xml version="1.0" encoding="utf-8"?>
<!-- Generator: Adobe Illustrator 17.0.2, SVG Export Plug-In . SVG Version: 6.00 Build 0)  -->
<!DOCTYPE svg PUBLIC "-//W3C//DTD SVG 1.1//EN" "http://www.w3.org/Graphics/SVG/1.1/DTD/svg11.dtd">
<svg version="1.1" id="Layer_1" xmlns="http://www.w3.org/2000/svg" xmlns:xlink="http://www.w3.org/1999/xlink" x="0px" y="0px"
	 width="612px" height="792px" viewBox="0 0 612 792" enable-background="new 0 0 612 792" xml:space="preserve">
<path fill="#5F8792" d="M430.844,387.416c-1.669-2.231-3.803-3.803-6.402-4.713c2.902-2.34,4.354-5.188,4.354-8.547
	c0-3.357-1.104-6.143-3.314-8.353c-2.011-2.011-4.403-3.096-7.167-3.278v-9.263c0-0.875-0.709-1.584-1.584-1.584
	s-1.584,0.709-1.584,1.584v9.226h-7.8c-0.434,0-0.803,0.152-1.105,0.455c-0.304,0.304-0.455,0.672-0.455,1.105v42.38
	c0,0.434,0.141,0.802,0.423,1.105c0.281,0.304,0.639,0.455,1.072,0.455h7.865v7.576c0,0.875,0.709,1.584,1.584,1.584
	s1.584-0.709,1.584-1.584v-7.576h2.032c3.596,0,6.662-1.268,9.197-3.803s3.803-5.6,3.803-9.197
	C433.347,392.172,432.512,389.648,430.844,387.416z M423.24,368.078c1.581,1.604,2.372,3.521,2.372,5.752
	c0,2.232-0.791,4.139-2.372,5.72c-1.385,1.385-3.027,2.163-4.925,2.336v-16.175C420.213,365.886,421.854,366.676,423.24,368.078z
	 M408.972,365.673h6.175v16.25h-6.175V365.673z M408.972,404.803v-19.63h6.175v19.63H408.972z M427.237,401.943
	c-1.907,1.907-4.204,2.86-6.89,2.86h-2.032v-19.63h2.032c2.686,0,4.982,0.965,6.89,2.893c1.906,1.929,2.882,4.236,2.925,6.922
	C430.118,397.718,429.143,400.037,427.237,401.943z"/>
<g>
	<path fill="#5F8792" d="M245.38,422.934c1.197-2.223,11.628-8.208,11.628-8.208l15.048-9.576l11.788-5.052l-0.327-14.202
		l9.338-3.335c-29.385,4.146-51.327,20.461-51.327,39.97c0,0.868,0.058,1.727,0.144,2.582
		C243.278,424.621,244.855,423.909,245.38,422.934z"/>
	<path fill="#5F8792" d="M307.53,381.531c-1.912,0-3.8,0.062-5.672,0.161l11.572,2.829v5.017l5.653-2.685l24.454,20.008l2.736,1.539
		l4.446-3.933l8.892-1.539l3.078,3.42l-0.855,3.249l-4.275,6.84l1.71,5.301l0.513,4.446l-1.881,2.907l-1.338,0.969v12.358
		l-8.939,4.813l-4.96-0.744l-0.666,4.663l-3.249,6.498l-3.42,2.052h-8.208l-0.5,2.082c27.14-5.088,46.908-20.732,46.908-39.251
		C373.529,399.887,343.981,381.531,307.53,381.531z"/>
</g>
<g>
	
		<rect x="228.301" y="380.477" transform="matrix(-0.2482 -0.9687 0.9687 -0.2482 -83.6926 699.0008)" fill="#221F1F" width="2.188" height="3"/>
	
		<rect x="229.386" y="384.714" transform="matrix(0.2482 0.9687 -0.9687 0.2482 547.403 67.0868)" fill="#221F1F" width="2.188" height="3"/>
	
		<rect x="231.558" y="393.19" transform="matrix(0.2482 0.9687 -0.9687 0.2482 557.2462 71.3557)" fill="#221F1F" width="2.188" height="3"/>
	
		<rect x="232.644" y="397.428" transform="matrix(0.2483 0.9687 -0.9687 0.2483 562.1318 73.4533)" fill="#221F1F" width="2.187" height="3"/>
	
		<rect x="234.815" y="405.904" transform="matrix(0.248 0.9688 -0.9688 0.248 572.0822 77.8314)" fill="#221F1F" width="2.187" height="3"/>
	
		<rect x="233.729" y="401.666" transform="matrix(0.2482 0.9687 -0.9687 0.2482 567.0891 75.6242)" fill="#221F1F" width="2.188" height="3"/>
	
		<rect x="230.472" y="388.952" transform="matrix(0.2483 0.9687 -0.9687 0.2483 552.3069 69.2032)" fill="#221F1F" width="2.187" height="3"/>
	
		<rect x="269.938" y="380.014" transform="matrix(0.9499 0.3124 -0.3124 0.9499 132.7617 -65.603)" fill="#221F1F" width="2.346" height="3"/>
	
		<rect x="274.395" y="381.481" transform="matrix(0.95 0.3124 -0.3124 0.95 133.4137 -66.9129)" fill="#221F1F" width="2.346" height="3"/>
	
		<rect x="261.024" y="377.083" transform="matrix(-0.9499 -0.3126 0.3126 -0.9499 392.9077 820.1558)" fill="#221F1F" width="2.346" height="3"/>
	
		<rect x="278.853" y="382.947" transform="matrix(0.9499 0.3124 -0.3124 0.9499 134.124 -68.2413)" fill="#221F1F" width="2.346" height="3"/>
	
		<rect x="265.481" y="378.549" transform="matrix(0.9499 0.3124 -0.3124 0.9499 132.0807 -64.2839)" fill="#221F1F" width="2.346" height="3"/>
	
		<rect x="337.658" y="374.255" transform="matrix(0.5879 0.8089 -0.8089 0.5879 443.3619 -119.6942)" fill="#221F1F" width="3" height="2.096"/>
	
		<rect x="334.266" y="376.719" transform="matrix(-0.5877 -0.809 0.809 -0.5877 227.4803 871.4486)" fill="#221F1F" width="3.001" height="2.096"/>
	
		<rect x="370.794" y="386.805" transform="matrix(-0.9858 -0.1677 0.1677 -0.9858 674.2791 832.7021)" fill="#221F1F" width="2.999" height="2.16"/>
	
		<rect x="369.346" y="395.324" transform="matrix(-0.9858 -0.168 0.168 -0.9858 669.8313 849.472)" fill="#221F1F" width="3" height="2.16"/>
	
		<rect x="370.07" y="391.064" transform="matrix(-0.9858 -0.1677 0.1677 -0.9858 672.1279 841.0391)" fill="#221F1F" width="2.999" height="2.16"/>
	
		<rect x="371.517" y="382.546" transform="matrix(-0.9858 -0.1677 0.1677 -0.9858 676.4302 824.3652)" fill="#221F1F" width="2.999" height="2.16"/>
	
		<rect x="372.241" y="378.286" transform="matrix(-0.9858 -0.1677 0.1677 -0.9858 678.5815 816.0278)" fill="#221F1F" width="2.999" height="2.16"/>
	
		<rect x="372.965" y="374.027" transform="matrix(0.9858 0.1677 -0.1677 0.9858 68.1961 -57.4766)" fill="#221F1F" width="2.999" height="2.16"/>
	
		<rect x="368.623" y="399.583" transform="matrix(-0.9858 -0.168 0.168 -0.9858 667.6787 857.8094)" fill="#221F1F" width="3" height="2.16"/>
	
		<rect x="367.899" y="403.842" transform="matrix(-0.9858 -0.168 0.168 -0.9858 665.5263 866.1449)" fill="#221F1F" width="3" height="2.16"/>
	
		<rect x="367.175" y="408.102" transform="matrix(-0.9858 -0.168 0.168 -0.9858 663.3738 874.4824)" fill="#221F1F" width="3" height="2.16"/>
	
		<rect x="366.452" y="412.362" transform="matrix(-0.9858 -0.168 0.168 -0.9858 661.2213 882.8188)" fill="#221F1F" width="3" height="2.16"/>
	<path fill="#221F1F" d="M371.114,348.76c0.19-0.56,0.302-1.166,0.375-1.742c0.085,0.002,0.172-0.02,0.253-0.087
		c1.009-0.85,0.277-2.366,0.095-3.433c-0.027-0.16-0.204-0.271-0.356-0.271h-0.344c0.06-0.065,0.099-0.15,0.098-0.246
		c-0.002-0.457-0.023-0.885-0.136-1.328c-0.03-0.119-0.136-0.23-0.258-0.258c-0.672-0.15-1.221-0.077-1.735,0.195
		c-0.085-0.015-0.172-0.024-0.259-0.034c-0.136-0.295-0.375-0.53-0.686-0.66c-0.572-0.24-1.112,0.258-1.426,0.668
		c-0.025,0.033-0.041,0.066-0.053,0.099l-0.004,0.001c-0.094-0.18-0.196-0.373-0.375-0.462c-0.283-0.142-0.667-0.067-0.97-0.066
		c-0.204,0.001-0.365,0.167-0.369,0.369c-0.002,0.128-0.011,0.254-0.018,0.38c-0.096-0.027-0.217-0.011-0.291,0.039
		c-0.163,0.109-0.323,0.221-0.481,0.335c-0.265,0.052-0.531,0.096-0.809,0.106c-0.212,0.008-0.354,0.163-0.369,0.369
		c-0.036,0.477,0.004,0.903,0.122,1.307c0,0.016,0.001,0.03,0.001,0.046c0,0.109,0.042,0.191,0.103,0.252
		c0.101,0.251,0.236,0.498,0.407,0.745c-0.052,0.674,0.072,1.4,0.402,2.141c0.005,0.012,0.014,0.018,0.02,0.029
		c0.083,0.537,0.229,1.05,0.439,1.507h-8.135v1.04l-3.839-0.58c0.017-0.292-0.001-0.585-0.088-0.872
		c-0.171-0.57-0.647-1.34-1.942-1.771c-0.193-0.064-0.385-0.114-0.576-0.152c-0.459-0.754-1.193-1.22-2.118-1.332
		c-0.583-0.069-1.214,0.011-1.88,0.587c-0.356-0.329-0.794-0.554-1.311-0.673c-0.764-0.177-1.447-0.123-2.021,0.154
		c-0.508-0.206-1.057-0.289-1.651-0.239c-0.826,0.066-2.105,0.526-2.722,2.59c-0.438-0.274-0.931-0.447-1.479-0.521
		c-0.135-0.018-0.264-0.026-0.387-0.026c-0.495,0-1.291,0.141-1.9,0.922c-0.039-0.012-0.078-0.023-0.117-0.034
		c-1.322-0.357-2.704,0.628-2.91,2.033c-0.049,0.335-0.022,0.657,0.052,0.966l-1.706,0.739l-0.976-0.146v17.791l13.405,2.01
		l-1.368,0.994l1.764,2.427l1.695-1.232l-1.53-2.105l2.908,0.436l0.318,0.438l0.445-0.323l4.914,0.737l0.083,0.157l1.384-0.731
		c1.251,0.307,2.543,0.453,3.761,0.584l0.559,0.061c0.903,0.101,1.714,0.149,2.478,0.149c0.966,0,1.848-0.077,2.696-0.235
		c0.932-0.174,1.708-0.55,2.459-0.914c0.234-0.113,0.458-0.22,0.679-0.319c1.591,0.395,3.552,0.631,5.681,0.631
		c1.15,0,2.247-0.072,3.269-0.196l2.102,0.359l0.128-0.748c2.473-0.584,4.093-1.549,4.093-2.643c0-1.521-3.131-2.794-7.341-3.135
		v-1.753h12.504V348.76H371.114z M361.519,368.775c0,0.34,0.159,0.668,0.449,0.976c-0.767,0.22-1.568,0.35-2.516,0.35
		c-0.98,0-1.892-0.042-2.743-0.121l4.139-2.186l0.098-3.908h7.62v1.779h0.001C364.506,366.041,361.519,367.289,361.519,368.775z"/>
	<path fill="#221F1F" d="M228.167,380.526l1.384-0.731c1.251,0.307,2.543,0.453,3.761,0.584l0.559,0.061
		c0.903,0.101,1.714,0.149,2.478,0.149c0.966,0,1.848-0.077,2.696-0.235c0.932-0.174,1.708-0.55,2.459-0.914
		c0.234-0.113,0.458-0.22,0.679-0.319c1.591,0.395,3.552,0.631,5.681,0.631c3.554,0,6.65-0.652,8.307-1.619l-0.014,0.041
		l2.229,0.733l0.938-2.85l-2.229-0.733l-0.079,0.24c-0.997-1.076-3.617-1.91-6.901-2.176v-1.753h12.504V356.51h-14.755
		c0.19-0.56,0.302-1.166,0.375-1.742c0.085,0.002,0.172-0.02,0.253-0.087c1.009-0.85,0.277-2.366,0.095-3.433
		c-0.027-0.16-0.204-0.271-0.356-0.271h-0.344c0.06-0.065,0.099-0.15,0.098-0.246c-0.002-0.457-0.023-0.885-0.136-1.328
		c-0.03-0.119-0.136-0.23-0.258-0.258c-0.672-0.15-1.221-0.077-1.735,0.195c-0.085-0.015-0.172-0.024-0.259-0.034
		c-0.136-0.295-0.375-0.53-0.686-0.66c-0.572-0.24-1.112,0.258-1.426,0.668c-0.025,0.033-0.041,0.066-0.053,0.099l-0.004,0.001
		c-0.094-0.18-0.196-0.373-0.375-0.462c-0.283-0.142-0.667-0.067-0.97-0.066c-0.204,0.001-0.365,0.167-0.369,0.369
		c-0.002,0.128-0.011,0.254-0.018,0.38c-0.096-0.027-0.217-0.011-0.291,0.039c-0.163,0.109-0.323,0.221-0.481,0.335
		c-0.265,0.052-0.531,0.096-0.809,0.106c-0.212,0.008-0.354,0.163-0.369,0.369c-0.036,0.477,0.004,0.903,0.122,1.307
		c0,0.016,0.001,0.03,0.001,0.046c0,0.109,0.042,0.191,0.103,0.252c0.101,0.251,0.236,0.498,0.407,0.745
		c-0.052,0.674,0.072,1.4,0.402,2.141c0.005,0.012,0.014,0.018,0.02,0.029c0.083,0.537,0.229,1.05,0.439,1.507h-8.135v1.04
		l-3.839-0.58c0.017-0.292-0.001-0.585-0.088-0.872c-0.171-0.57-0.647-1.34-1.942-1.771c-0.193-0.064-0.385-0.114-0.576-0.152
		c-0.459-0.754-1.193-1.22-2.118-1.332c-0.583-0.069-1.214,0.011-1.88,0.587c-0.356-0.329-0.794-0.554-1.311-0.673
		c-0.764-0.177-1.447-0.123-2.021,0.154c-0.508-0.206-1.057-0.289-1.651-0.239c-0.826,0.066-2.105,0.526-2.722,2.59
		c-0.438-0.274-0.931-0.447-1.479-0.521c-0.135-0.018-0.264-0.026-0.387-0.026c-0.495,0-1.291,0.141-1.9,0.922
		c-0.039-0.012-0.078-0.023-0.117-0.034c-1.322-0.357-2.704,0.628-2.91,2.033c-0.049,0.335-0.022,0.657,0.052,0.966l-1.706,0.739
		l-0.976-0.146v17.791l22.55,3.382L228.167,380.526z M237.696,371.636h7.62v1.779h0.001c-4.061,0.376-7.048,1.624-7.048,3.11
		c0,0.34,0.159,0.668,0.449,0.976c-0.767,0.22-1.568,0.35-2.516,0.35c-0.98,0-1.892-0.042-2.743-0.121l4.139-2.186L237.696,371.636z
		"/>
	<path fill="#221F1F" d="M271.932,464.731c-0.215-1.281-0.927-2.594-2.004-3.697c-1.329-1.36-3.005-2.173-4.482-2.173
		c-0.542,0-1.309,0.118-1.886,0.681c-1.362,1.331-0.747,4.261,1.342,6.401c1.33,1.361,3.005,2.173,4.482,2.173
		c0.542,0,1.309-0.118,1.886-0.681C271.888,466.831,272.123,465.871,271.932,464.731z"/>
	<path fill="#221F1F" d="M382.869,440.386V425.26h-14.755c0.19-0.56,0.302-1.166,0.375-1.742c0.085,0.002,0.172-0.02,0.253-0.087
		c1.009-0.85,0.277-2.366,0.095-3.433c-0.027-0.16-0.204-0.271-0.356-0.271h-0.344c0.06-0.065,0.099-0.15,0.098-0.246
		c-0.001-0.176-0.01-0.346-0.02-0.516l0.311,0.053l0.362-2.13l-2.957-0.504l-0.246,1.443c-0.137-0.181-0.304-0.339-0.524-0.431
		c-0.572-0.24-1.112,0.258-1.426,0.668c-0.025,0.033-0.041,0.066-0.053,0.099l-0.004,0.001c-0.094-0.18-0.196-0.373-0.375-0.462
		c-0.283-0.142-0.667-0.067-0.97-0.066c-0.204,0.001-0.365,0.167-0.369,0.369c-0.002,0.128-0.011,0.254-0.018,0.38
		c-0.05-0.014-0.107-0.015-0.161-0.007c-0.169-0.486-0.409-0.947-0.744-1.359l-0.982-0.922c0.338-0.406,0.686-0.805,1.008-1.225
		c1.72-2.246,3.72-5.185,3.164-8.184c-1.383-7.461-11.487-4.736-16-1.697l-9.165-8.605h0.302V381.26h-5.858l0.593-0.431
		l-1.764-2.428l-1.696,1.232l1.182,1.627h-2.591l-0.286-0.395l-0.544,0.395h-3.791c0.19-0.56,0.302-1.166,0.375-1.742
		c0.085,0.002,0.172-0.02,0.253-0.087c1.009-0.85,0.277-2.366,0.095-3.433c-0.027-0.16-0.204-0.271-0.356-0.271h-0.344
		c0.06-0.065,0.099-0.15,0.098-0.246c-0.002-0.457-0.023-0.885-0.136-1.328c-0.03-0.119-0.136-0.23-0.258-0.258
		c-0.672-0.15-1.221-0.077-1.735,0.195c-0.085-0.015-0.172-0.024-0.259-0.034c-0.136-0.295-0.375-0.53-0.686-0.66
		c-0.572-0.24-1.112,0.258-1.426,0.668c-0.025,0.033-0.041,0.066-0.053,0.099l-0.004,0.001c-0.094-0.18-0.196-0.373-0.375-0.462
		c-0.283-0.142-0.667-0.067-0.97-0.066c-0.204,0.001-0.365,0.167-0.369,0.369c-0.002,0.128-0.011,0.254-0.018,0.38
		c-0.096-0.027-0.217-0.011-0.291,0.039c-0.163,0.109-0.323,0.221-0.481,0.335c-0.265,0.052-0.531,0.096-0.809,0.106
		c-0.212,0.008-0.354,0.163-0.369,0.369c-0.036,0.477,0.004,0.903,0.122,1.307c0,0.016,0.001,0.03,0.001,0.046
		c0,0.109,0.042,0.191,0.103,0.252c0.101,0.251,0.236,0.498,0.407,0.745c-0.052,0.674,0.072,1.4,0.402,2.141
		c0.005,0.012,0.014,0.018,0.02,0.029c0.083,0.537,0.229,1.05,0.439,1.507h-8.135v1.04l-3.839-0.58
		c0.017-0.292-0.001-0.585-0.088-0.872c-0.171-0.57-0.647-1.34-1.942-1.771c-0.193-0.064-0.385-0.114-0.576-0.152
		c-0.459-0.754-1.193-1.22-2.118-1.332c-0.583-0.069-1.214,0.011-1.88,0.587c-0.356-0.329-0.794-0.554-1.311-0.673
		c-0.764-0.177-1.447-0.123-2.021,0.154c-0.508-0.206-1.057-0.289-1.651-0.239c-0.826,0.066-2.105,0.526-2.722,2.59
		c-0.438-0.274-0.931-0.447-1.479-0.521c-0.135-0.018-0.264-0.026-0.387-0.026c-0.495,0-1.291,0.141-1.9,0.922
		c-0.039-0.012-0.078-0.023-0.117-0.034c-1.322-0.357-2.704,0.628-2.91,2.033c-0.049,0.335-0.022,0.657,0.052,0.966l-1.706,0.739
		l-0.976-0.146v15.937c-3.767,1.595-7.646,2.877-11.293,4.847c-3.238,1.749-6.338,3.743-9.407,5.781h-12.97
		c0.19-0.56,0.302-1.166,0.375-1.742c0.085,0.002,0.172-0.02,0.253-0.087c1.009-0.85,0.277-2.366,0.095-3.433
		c-0.027-0.16-0.204-0.271-0.356-0.271h-0.344c0.06-0.065,0.099-0.15,0.098-0.246c-0.002-0.457-0.023-0.885-0.136-1.328
		c-0.03-0.119-0.136-0.23-0.258-0.258c-0.672-0.15-1.221-0.077-1.735,0.195c-0.085-0.015-0.172-0.024-0.259-0.034
		c-0.136-0.295-0.375-0.53-0.686-0.66c-0.572-0.24-1.112,0.258-1.426,0.668c-0.025,0.033-0.041,0.066-0.053,0.099l-0.004,0.001
		c-0.094-0.18-0.196-0.373-0.375-0.462c-0.283-0.142-0.667-0.067-0.97-0.066c-0.204,0.001-0.365,0.167-0.369,0.369
		c-0.002,0.128-0.011,0.254-0.018,0.38c-0.096-0.027-0.217-0.011-0.291,0.039c-0.163,0.109-0.323,0.221-0.481,0.335
		c-0.265,0.052-0.531,0.096-0.809,0.106c-0.212,0.008-0.354,0.163-0.369,0.369c-0.036,0.477,0.004,0.903,0.122,1.307
		c0,0.016,0.001,0.03,0.001,0.046c0,0.109,0.042,0.191,0.103,0.252c0.101,0.251,0.236,0.498,0.407,0.745
		c-0.052,0.674,0.072,1.4,0.402,2.141c0.005,0.012,0.014,0.018,0.02,0.029c0.083,0.537,0.229,1.05,0.439,1.507h-3.738l-0.077-0.301
		L237,410.511h-3.145v1.04l-3.839-0.58c0.017-0.292-0.001-0.585-0.088-0.872c-0.171-0.57-0.647-1.34-1.942-1.771
		c-0.193-0.064-0.385-0.114-0.576-0.152c-0.459-0.754-1.193-1.22-2.118-1.332c-0.583-0.069-1.214,0.011-1.88,0.587
		c-0.356-0.329-0.794-0.554-1.311-0.673c-0.764-0.177-1.447-0.123-2.021,0.154c-0.508-0.206-1.057-0.289-1.651-0.239
		c-0.826,0.066-2.105,0.526-2.722,2.59c-0.438-0.274-0.931-0.447-1.479-0.521c-0.135-0.018-0.264-0.026-0.387-0.026
		c-0.495,0-1.291,0.141-1.9,0.922c-0.039-0.012-0.078-0.023-0.117-0.034c-1.322-0.357-2.704,0.628-2.91,2.033
		c-0.049,0.335-0.022,0.657,0.052,0.966l-1.706,0.739l-0.976-0.146v17.791l19.516,2.927c0.593,7.213,2.106,14.339,2.737,21.559
		c0.406,4.654,0.097,9.118-0.882,13.682c-0.905,4.218-2.009,8.348-2.376,12.661c-0.066,0.775,0.661,1.272,1.335,1.335
		c5.846,0.553,11.442-1.737,17.127-2.69c5.978-1.001,10.997,2.173,16.791,2.69c0.214,0.019,0.399-0.007,0.558-0.066
		c0.764,0.024,1.507,0.117,2.208,0.484c0.062,0.033,0.13,0.044,0.198,0.047l10.302,9.789c0.771,0.91,1.842,1.479,3.028,1.605
		c0.166,0.018,0.331,0.026,0.495,0.026c1.045,0,2.049-0.355,2.869-1.022l8.034-6.534c9.548,3.78,26.074,1.858,28.829-8.886
		c0.061-0.009,0.122-0.014,0.186-0.031c7.24-1.973,11.014-9.558,11.618-17.088c5.29,0.735,10.168-0.43,13.225-5.082
		c1.498-2.28,2.238-5.018,2.519-7.833l3.734,0.56l0.083,0.157l1.384-0.731c1.251,0.307,2.543,0.453,3.761,0.584l0.559,0.061
		c0.903,0.101,1.714,0.149,2.478,0.149c0.966,0,1.848-0.077,2.696-0.235c0.932-0.174,1.708-0.55,2.459-0.914
		c0.234-0.113,0.458-0.22,0.679-0.319c1.591,0.395,3.552,0.631,5.681,0.631c5.298,0,9.592-1.445,9.592-3.228
		c0-1.521-3.131-2.794-7.341-3.135v-1.753H382.869z M357.897,404.549c3.685-0.123,4.288,3.12,2.945,5.834
		c-0.703,1.418-1.666,2.695-2.695,3.918l-7.911-7.428C352.524,405.477,355.263,404.636,357.897,404.549z M252.309,478.364
		c-2.652-0.767-5.299-0.938-8.036-0.65c-5.468,0.576-10.673,2.905-16.189,2.836c0.468-3.909,1.505-7.705,2.331-11.554
		c0.892-4.161,1.119-8.286,0.865-12.529c-0.568-9.493-3.095-18.755-3.063-28.297c3.84,0.106,7.666,0.332,11.446-0.571
		c4.518-1.079,8.133-4.526,11.779-7.184c4-2.916,8.309-5.506,12.446-8.229c4.012-2.64,8.118-5.122,12.456-7.193
		c2.335-1.114,4.76-1.968,7.153-2.903l1.068-0.427c1.366-0.555,2.716-1.15,4.025-1.86c3.85-2.088,7.352-4.769,11.108-7.016
		c2.927-1.751,5.674-2.938,9.117-2.867c0.4,0.008,0.829,0.052,1.258,0.121l-68.992,57.904c-0.571,0.465-0.993,1.058-1.279,1.715
		c-1.678,2.246-1.783,9.354-0.376,11.084l20.718,19.687C257.448,480.119,254.905,479.114,252.309,478.364z M278.503,491.942
		c-0.392,0.32-0.889,0.467-1.395,0.412c-0.511-0.055-0.972-0.306-1.299-0.707l-34.332-32.623c-0.349-0.598-0.451-2.31-0.366-3.979
		l33.628,32.28c0.879,1.039,2.156,1.633,3.518,1.633c1.045,0,2.066-0.363,2.876-1.021l19.325-15.717
		c0.202,0.452,0.417,0.9,0.642,1.344L278.503,491.942z M262.084,458.031c0.859-0.839,2.022-1.283,3.362-1.283
		c2.035,0,4.275,1.05,5.994,2.81c1.376,1.409,2.292,3.122,2.577,4.824c0.309,1.843-0.142,3.464-1.27,4.566
		c-0.859,0.839-2.021,1.283-3.362,1.283c-2.034,0-4.275-1.051-5.994-2.811C260.401,464.359,259.827,460.235,262.084,458.031z
		 M314.685,477.132c-1.491,9.981-15.798,10.748-24.017,8.359l11.743-9.55c0.866,1.472,1.732,2.807,2.37,3.877
		c0.881,1.477,3.191,0.135,2.306-1.348c-2.123-3.558-8.527-11.564-3.321-14.941c3.39-2.2,6.707,1.605,8.412,4.16
		C314.029,470.462,315.185,473.782,314.685,477.132z M317.441,475.686c0.018-0.793-0.024-1.622-0.142-2.492
		c-0.229-1.696-0.895-3.599-1.859-5.416c0.016-0.318,0.032-0.633,0.019-0.95c0.057-0.147,0.091-0.313,0.089-0.503
		c-0.065-5.634-1.626-12.397,1.553-17.47c3.55-5.665,8.067,2.907,8.783,6.144C327.442,462.033,324.883,472.887,317.441,475.686z
		 M327.666,451.555c-0.132-0.359-0.292-0.723-0.464-1.086l3.566-2.9c0.088,0.547,0.183,1.094,0.279,1.639l-3.28,2.668
		C327.73,451.772,327.704,451.658,327.666,451.555z M340.299,454.117c-2.057,4.238-6.386,5.394-10.775,4.776
		c-0.211-0.03-0.407-0.015-0.585,0.033c-0.022-1.447-0.172-2.861-0.428-4.214l3.007-2.446c0.017,0.145,0.04,0.291,0.054,0.436
		c0.165,1.698,2.838,1.714,2.671,0c-0.496-5.095-2.339-9.907,0.611-14.595c0.928-1.475,3.89-4.88,5.497-2.534
		c1.285,1.875,1.391,4.806,1.58,6.998C342.262,446.436,342.015,450.581,340.299,454.117z M320.153,444.475
		c-1.2-0.076-2.452,0.267-3.701,1.222c-1.446,1.106-2.387,2.559-3.002,4.203l-25.664,20.771l-28.408-26.18l61.943-53.608
		l30.636,27.851L320.153,444.475z M344.101,438.591c-0.09-0.534-0.2-1.067-0.334-1.595l15.322-12.461
		c-0.345,1.301-0.858,2.565-1.322,2.942L344.101,438.591z M358.519,445.275c0,0.34,0.159,0.668,0.449,0.976
		c-0.767,0.22-1.568,0.35-2.516,0.35c-0.98,0-1.892-0.042-2.743-0.121l4.139-2.186l0.098-3.908h7.62v1.779h0.001
		C361.506,442.541,358.519,443.789,358.519,445.275z"/>
</g>
</svg>
