<?xml version="1.0" encoding="utf-8"?>
<!-- Generator: Adobe Illustrator 17.0.2, SVG Export Plug-In . SVG Version: 6.00 Build 0)  -->
<!DOCTYPE svg PUBLIC "-//W3C//DTD SVG 1.1//EN" "http://www.w3.org/Graphics/SVG/1.1/DTD/svg11.dtd">
<svg version="1.1" id="Layer_1" xmlns="http://www.w3.org/2000/svg" xmlns:xlink="http://www.w3.org/1999/xlink" x="0px" y="0px"
	 width="612px" height="792px" viewBox="0 0 612 792" enable-background="new 0 0 612 792" xml:space="preserve">
<g>
	<path fill="#A29352" d="M260.944,381.183l4.985,10.303l5.93-20.485c-0.176-0.001-0.35-0.008-0.526-0.008
		c-5.544,0-10.924,0.43-16.069,1.23L260.944,381.183z"/>
	<path fill="#A29352" d="M318.101,383.066l-9.964,35.839l-2.326,5.484l-4.154,3.822l-4.653-0.499l-8.641-2.16l-12.962-3.49
		l-5.982-2.825l-0.665,8.807l-31.241,7.977l-3.324-1.662l-6.481-7.146l-4.985-6.481l-3.323-7.312l-2.659-9.472l-0.831-9.14
		l-0.415-4.666c-6.428,6.326-10.162,13.814-10.162,21.849c0,22.644,29.549,41,66,41s66-18.356,66-41
		C337.333,400.703,329.985,390.481,318.101,383.066z"/>
</g>
<g>
	<path fill="#A29352" d="M382.13,397.169l-0.585,0.065c-0.737,0-1.234-0.346-1.495-1.04l-4.029-10.725h-20.735l-4.03,10.725
		c-0.26,0.694-0.759,1.04-1.495,1.04l-0.585-0.065c-0.39-0.173-0.682-0.465-0.877-0.877c-0.195-0.412-0.206-0.812-0.032-1.203
		l15.795-42.185c0.303-0.65,0.845-0.975,1.625-0.975c0.779,0,1.277,0.325,1.495,0.975l15.795,42.185c0.172,0.39,0.172,0.791,0,1.203
		C382.802,396.704,382.521,396.996,382.13,397.169z M365.686,357.844l-9.23,24.44h18.396L365.686,357.844z"/>
	<path fill="#A29352" d="M388.5,384.234v-17.355c0-0.433,0.151-0.801,0.455-1.105c0.303-0.303,0.672-0.455,1.105-0.455
		c0.433,0,0.801,0.152,1.104,0.455c0.303,0.304,0.455,0.672,0.455,1.105v17.355c0,2.73,0.953,5.049,2.86,6.955
		c1.906,1.907,4.203,2.882,6.89,2.925c2.73-0.042,5.06-1.018,6.988-2.925c1.927-1.906,2.892-4.225,2.892-6.955v-17.355
		c0-0.433,0.163-0.801,0.488-1.105c0.324-0.303,0.703-0.455,1.137-0.455s0.802,0.152,1.105,0.455
		c0.303,0.304,0.455,0.672,0.455,1.105v17.355c0,3.597-1.268,6.663-3.803,9.197c-2.535,2.535-5.601,3.803-9.197,3.803
		c-3.598,0-6.652-1.268-9.165-3.803C389.757,390.896,388.5,387.831,388.5,384.234z"/>
</g>
<g>
	<path fill="#221F1F" d="M301.442,359.958c2.38,2.753-1.611,6.166-2.867,8.385c-0.717,1.266,0.702,2.35,1.859,2.066
		c1.618-0.397,2.776-1.964,3.656-3.272c1.319-1.959,1.674-3.766,1.218-6.106c-0.063-0.325-0.209-0.583-0.398-0.785
		c-0.168-0.715-0.48-1.395-1.002-1.999C302.658,356.802,300.175,358.491,301.442,359.958z"/>
	<path fill="#221F1F" d="M291.097,362.789c-0.419-0.024-0.845-0.041-1.275,0.01c-0.813,0.096-1.445,0.773-1.381,1.612
		c0.06,0.775,0.769,1.442,1.562,1.379c-0.398,0.3-0.645,0.788-0.605,1.312c0.063,0.815,0.796,1.443,1.612,1.38l0.845-0.065
		c-0.261,0.373-0.356,0.844-0.181,1.33c0.261,0.726,1.173,1.237,1.921,0.902c0.301-0.135,0.586-0.298,0.873-0.458
		c-0.028,0.112-0.057,0.222-0.081,0.333c-0.179,0.797,0.402,1.607,1.186,1.759c0.82,0.158,1.581-0.389,1.759-1.187
		c0.139-0.625,0.202-0.859,0.547-1.412c0.434-0.695-0.019-1.676-0.695-2.005c-0.281-0.136-0.558-0.172-0.821-0.136
		c-0.284-0.495-0.793-0.739-1.34-0.732c0.001-0.048,0.007-0.096,0.004-0.146c-0.056-0.729-0.648-1.303-1.355-1.373
		c0.249-0.297,0.389-0.687,0.358-1.086c-0.048-0.632-0.486-1.126-1.052-1.306c0.429-0.187,0.774-0.537,0.874-1.046
		c0.024-0.127,0.025-0.256,0.014-0.385c0.254-0.075,0.491-0.218,0.687-0.447c0.217-0.253,0.333-0.592,0.348-0.934
		c0.204,0.02,0.419-0.002,0.638-0.081c0.561-0.202,1.003-0.811,1.004-1.422c0.286,0.269,0.67,0.424,1.11,0.389
		c0.256-0.019,0.5-0.117,0.715-0.262c0.315,0.276,0.742,0.438,1.141,0.407c0.872-0.067,1.367-0.794,1.38-1.611
		c0.001-0.048,0.001-0.076,0-0.105c0.005-0.028,0.01-0.07,0.02-0.147c0.018-0.164,0.056-0.327,0.092-0.488
		c0.038-0.166,0.151-0.398,0.322-0.667c0.44-0.691-0.024-1.678-0.695-2.005c-0.702-0.342-1.379-0.077-1.831,0.458
		c-0.144-0.728-0.827-1.265-1.58-1.207c-0.818,0.064-1.439,0.796-1.38,1.611c0.048,0.666,0.084,1.332,0.145,1.996
		c-0.093-0.273-0.172-0.54-0.211-0.781c-0.134-0.806-0.742-1.447-1.611-1.38c-0.761,0.059-1.514,0.803-1.38,1.612
		c0.064,0.386,0.162,0.756,0.266,1.125c-0.11-0.13-0.223-0.259-0.35-0.396c-0.559-0.599-1.628-0.405-2.115,0.164
		c-0.491,0.574-0.428,1.272-0.054,1.836c-0.564-0.189-1.192-0.069-1.615,0.426c-0.508,0.593-0.488,1.621,0.164,2.115
		C289.696,362.15,290.37,362.537,291.097,362.789z"/>
	<path fill="#221F1F" d="M278.028,392.164c1.069,0.349,2.147,0.334,3.186-0.04c0.23-0.072,0.414-0.199,0.551-0.374l0.012-0.017
		c0.094-0.11,0.165-0.237,0.21-0.376l0.824-2.519c0.104-0.313,0.076-0.629-0.081-0.918c-0.152-0.276-0.392-0.473-0.69-0.57
		l-2.271-0.743c-0.306-0.1-0.616-0.079-0.897,0.059c-0.287,0.141-0.491,0.377-0.591,0.682c-0.099,0.304-0.075,0.618,0.071,0.906
		c0.146,0.29,0.388,0.498,0.684,0.594l1.156,0.378l-0.261,0.798c-0.409,0.049-0.794,0.013-1.169-0.111
		c-0.671-0.22-1.158-0.627-1.493-1.251c-0.331-0.615-0.389-1.227-0.177-1.873c0.213-0.647,0.62-1.109,1.247-1.41
		c0.634-0.305,1.24-0.356,1.853-0.157c0.622,0.204,1.107,0.556,1.437,1.038c0.178,0.272,0.446,0.45,0.767,0.512
		c0.322,0.062,0.631-0.001,0.891-0.182c0.261-0.179,0.431-0.442,0.492-0.758c0.064-0.324-0.003-0.636-0.184-0.89
		c-0.618-0.928-1.488-1.584-2.57-1.938c-1.285-0.42-2.546-0.334-3.747,0.256c-1.203,0.593-2.025,1.536-2.439,2.804
		c-0.415,1.27-0.308,2.513,0.316,3.695c0.436,0.826,1.046,1.476,1.815,1.932C277.293,391.88,277.649,392.04,278.028,392.164z"/>
	<path fill="#221F1F" d="M290.543,394.744c1.144-0.614,1.928-1.55,2.332-2.782c0.401-1.228,0.331-2.448-0.211-3.626
		c-0.545-1.186-1.449-1.999-2.663-2.398c-1.218-0.399-2.415-0.285-3.556,0.341c-1.13,0.618-1.911,1.563-2.319,2.809
		c-0.408,1.244-0.337,2.467,0.21,3.636c0.397,0.849,0.982,1.508,1.741,1.958c0.29,0.172,0.61,0.315,0.948,0.426
		c0.584,0.191,1.193,0.254,1.811,0.186C289.453,395.227,290.032,395.04,290.543,394.744z M289.452,392.656
		c-0.565,0.323-1.123,0.387-1.707,0.197c-0.587-0.192-1-0.57-1.272-1.162c-0.277-0.605-0.309-1.216-0.097-1.864
		c0.214-0.652,0.598-1.126,1.176-1.451c0.564-0.316,1.125-0.377,1.718-0.183c0.157,0.051,0.304,0.117,0.436,0.196
		c0.366,0.217,0.637,0.535,0.83,0.972c0.269,0.612,0.299,1.219,0.09,1.856C290.419,391.852,290.035,392.324,289.452,392.656z"/>
	<path fill="#221F1F" d="M293.036,395.854c-0.099,0.302-0.075,0.609,0.067,0.887c0.1,0.199,0.247,0.357,0.434,0.468
		c0.074,0.044,0.156,0.08,0.24,0.109l3.73,1.22c0.292,0.095,0.598,0.07,0.884-0.075c0.284-0.145,0.485-0.377,0.581-0.672
		c0.097-0.296,0.072-0.604-0.072-0.888c-0.145-0.284-0.372-0.483-0.668-0.582l-2.616-0.856l1.838-5.615
		c0.099-0.303,0.072-0.612-0.077-0.894c-0.145-0.278-0.378-0.474-0.677-0.571c-0.3-0.099-0.606-0.076-0.885,0.065
		c-0.28,0.141-0.48,0.375-0.579,0.676L293.036,395.854z"/>
	<path fill="#221F1F" d="M305.127,399.582c1.147-0.586,1.934-1.504,2.334-2.733c0.402-1.227,0.312-2.433-0.268-3.584
		c-0.58-1.147-1.501-1.941-2.724-2.341l-1.347-0.44c-0.3-0.099-0.606-0.076-0.885,0.066c-0.28,0.141-0.48,0.374-0.578,0.675
		l-2.203,6.73c-0.099,0.302-0.075,0.609,0.068,0.888c0.101,0.199,0.248,0.356,0.434,0.466c0.075,0.044,0.156,0.081,0.241,0.109
		l1.347,0.44C302.774,400.261,303.979,400.167,305.127,399.582z M304.072,397.497c-0.585,0.297-1.176,0.344-1.802,0.145
		l-0.232-0.076l1.473-4.501l0.232,0.076c0.629,0.204,1.074,0.588,1.369,1.176c0.295,0.587,0.339,1.179,0.133,1.806
		C305.039,396.752,304.656,397.201,304.072,397.497z"/>
	<path fill="#221F1F" d="M274.323,398.271l-0.035-0.068c0.001-0.011,0.002-0.022,0.002-0.033c0.046-0.218-0.048-0.429-0.166-0.638
		l-0.24-0.273c-0.017-0.017-0.034-0.033-0.053-0.048l-0.032-0.073l-0.339-0.11c-0.053-0.017-0.162-0.053-0.289-0.048l0.001-0.001
		l-1.96,0.4c-0.318,0.059-0.577,0.237-0.749,0.514c-0.173,0.278-0.216,0.592-0.134,0.866c0.086,0.425,0.358,0.733,0.766,0.87
		c0.106,0.034,0.213,0.054,0.314,0.059l-1.578,4.822c-0.099,0.3-0.076,0.606,0.066,0.887c0.101,0.2,0.248,0.356,0.435,0.467
		c0.074,0.044,0.156,0.081,0.241,0.109c0.298,0.098,0.604,0.077,0.883-0.06c0.288-0.14,0.493-0.374,0.591-0.677L274.323,398.271z"/>
	<path fill="#221F1F" d="M280.992,401.26c-0.145-0.529-0.387-1.003-0.719-1.407c-0.348-0.423-0.79-0.724-1.303-0.893
		c-1.025-0.336-2.036-0.115-2.997,0.651c-0.819,0.632-1.437,1.543-1.839,2.719c-0.366,1.174-0.406,2.274-0.12,3.262
		c0.261,0.938,0.745,1.622,1.437,2.033c0.184,0.109,0.385,0.199,0.596,0.269c0.506,0.165,1.033,0.181,1.57,0.048
		c0.512-0.128,0.989-0.366,1.416-0.705c0.833-0.651,1.445-1.565,1.823-2.714C281.232,403.376,281.278,402.277,280.992,401.26z
		 M277.601,405.398c-0.332,0.258-0.613,0.35-0.836,0.278c-0.236-0.081-0.402-0.319-0.519-0.718
		c-0.159-0.567-0.124-1.207,0.105-1.902c0.228-0.698,0.582-1.244,1.035-1.609c0.351-0.259,0.633-0.352,0.877-0.263
		c0.034,0.009,0.066,0.022,0.097,0.041c0.159,0.094,0.295,0.322,0.39,0.648c0.155,0.583,0.118,1.233-0.11,1.931
		C278.411,404.498,278.06,405.035,277.601,405.398z"/>
	<path fill="#221F1F" d="M288.433,403.521c-0.145-0.529-0.387-1.003-0.719-1.406c-0.347-0.422-0.789-0.726-1.302-0.893
		c-1.026-0.336-2.036-0.116-2.997,0.651c-0.819,0.633-1.436,1.543-1.838,2.719c-0.366,1.172-0.407,2.271-0.121,3.263
		c0.26,0.938,0.744,1.623,1.437,2.033c0.184,0.109,0.385,0.2,0.596,0.269c0.507,0.166,1.034,0.181,1.57,0.048
		c0.515-0.129,0.992-0.368,1.416-0.706c0.834-0.652,1.447-1.565,1.825-2.714C288.673,405.635,288.72,404.536,288.433,403.521z
		 M285.044,407.658c-0.333,0.257-0.615,0.35-0.836,0.279c-0.237-0.078-0.402-0.319-0.52-0.719c-0.161-0.574-0.127-1.196,0.105-1.902
		c0.229-0.698,0.582-1.244,1.035-1.61c0.351-0.259,0.633-0.351,0.878-0.261c0.034,0.01,0.065,0.022,0.096,0.04
		c0.159,0.094,0.295,0.322,0.39,0.649c0.156,0.583,0.118,1.233-0.11,1.931C285.847,406.772,285.508,407.293,285.044,407.658z"/>
	<path fill="#221F1F" d="M295.711,405.684c-0.145-0.528-0.386-1.001-0.719-1.407c-0.348-0.423-0.79-0.726-1.302-0.893
		c-1.026-0.336-2.036-0.116-2.997,0.651c-0.819,0.632-1.437,1.543-1.839,2.719c-0.366,1.174-0.406,2.274-0.12,3.262
		c0.26,0.938,0.744,1.623,1.437,2.033c0.184,0.109,0.385,0.2,0.596,0.269c0.506,0.165,1.033,0.181,1.57,0.048
		c0.512-0.128,0.989-0.366,1.416-0.706c0.833-0.651,1.445-1.565,1.823-2.714C295.951,407.8,295.997,406.702,295.711,405.684z
		 M292.32,409.821c-0.331,0.257-0.613,0.35-0.836,0.277c-0.277-0.091-0.44-0.454-0.518-0.719c-0.159-0.567-0.124-1.207,0.105-1.902
		c0.228-0.698,0.582-1.244,1.035-1.609c0.351-0.259,0.633-0.352,0.877-0.263c0.035,0.01,0.066,0.023,0.097,0.041
		c0.159,0.094,0.294,0.322,0.389,0.648c0.155,0.583,0.118,1.232-0.11,1.931C293.129,408.924,292.779,409.46,292.32,409.821z"/>
	<path fill="#221F1F" d="M303.517,410.276c0.096-0.293,0.072-0.592-0.066-0.865c-0.139-0.275-0.362-0.47-0.642-0.562
		c-0.263-0.086-0.533-0.082-0.783,0.011c-0.032,0.013-0.065,0.027-0.096,0.041c-0.351-0.342-0.777-0.595-1.271-0.756
		c-0.892-0.292-1.771-0.207-2.612,0.252c-0.829,0.453-1.402,1.144-1.699,2.051c-0.297,0.912-0.24,1.799,0.164,2.626
		c0.18,0.395,0.413,0.733,0.696,1.012c-0.266,0.025-0.507,0.14-0.705,0.338c-0.216,0.218-0.33,0.498-0.333,0.815
		c0.002,0.321,0.125,0.603,0.337,0.798c0.19,0.194,0.405,0.362,0.639,0.501c0.205,0.121,0.429,0.223,0.667,0.3
		c0.881,0.289,1.749,0.221,2.579-0.201c0.832-0.421,1.398-1.08,1.686-1.958L303.517,410.276z M300.019,412.587
		c-0.271,0.151-0.536,0.175-0.833,0.078c-0.298-0.097-0.494-0.275-0.62-0.56c-0.134-0.299-0.147-0.606-0.039-0.934
		c0.108-0.33,0.306-0.574,0.604-0.746c0.282-0.163,0.544-0.196,0.827-0.103c0.075,0.024,0.145,0.056,0.209,0.093
		c0.173,0.103,0.304,0.256,0.399,0.468c0.135,0.306,0.147,0.621,0.033,0.966C300.489,412.191,300.298,412.432,300.019,412.587z"/>
</g>
<g>
	<path fill="#221F1F" d="M236.875,411.936c0.626-2.144,1.335-4.134,2.77-5.884c0.657-0.802,0.543-2.257-0.662-2.507
		c-2.935-0.609-6.131-1.378-7.369-4.446c-0.442-1.096-2.084-1.635-2.742-0.358c-1.601,3.109-2.617,6.577-4.909,9.281
		c-0.72,0.85-0.486,2.174,0.662,2.507c0.824,0.24,1.679,0.442,2.546,0.597c0.24,0.236,0.572,0.393,1.008,0.392
		c2.435-0.004,4.578,0.672,6.849,1.466C235.81,413.257,236.657,412.68,236.875,411.936z"/>
	<path fill="#221F1F" d="M237.27,397.987c0.942-0.191,1.827-0.821,2.122-1.759c0.456-1.453-0.912-2.386-2.045-2.852
		c-0.241-0.099-0.495-0.094-0.736-0.028c-0.026-0.017-0.048-0.039-0.074-0.055c-0.719-0.421-1.623-0.156-2.052,0.538
		c-0.696,1.124-0.957,2.451-0.034,3.523C235.129,398.143,236.337,398.176,237.27,397.987z"/>
	<path fill="#221F1F" d="M225.718,399.111c0.158-0.857-0.069-1.661-0.703-2.281c-0.683-0.668-1.579-0.786-2.48-0.654
		c-0.712,0.104-1.362,0.65-1.728,1.242c-0.494,0.799-0.358,1.835,0.116,2.603c0.126,0.204,0.296,0.365,0.487,0.489
		c0.372,0.514,1.015,0.813,1.641,0.791C224.245,401.257,225.496,400.316,225.718,399.111z"/>
	<path fill="#221F1F" d="M230.636,414.596c-0.248-0.001-0.463,0.048-0.648,0.133c-0.388,0.002-0.781,0.157-1.114,0.423
		c-0.773,0.617-1.232,1.767-0.847,2.725c0.353,0.877,1.102,1.648,2.076,1.801c1.304,0.204,2.31-0.399,2.786-1.625
		c0.226-0.58,0.148-1.282,0.053-1.879C232.764,415.056,231.653,414.601,230.636,414.596z"/>
	<path fill="#221F1F" d="M243.988,415.682c0.873-0.383,1.363-1.285,1.465-2.187c0.132-1.169-0.948-1.998-1.935-2.319
		c-0.185-0.347-0.501-0.622-0.911-0.735c-0.776-0.213-1.644,0.255-1.845,1.048c-0.268,1.054-0.542,2.559,0.191,3.51
		C241.742,416.023,242.841,416.185,243.988,415.682z"/>
	<path fill="#221F1F" d="M238.827,415.69c-1.059-1.608-3.658-0.106-2.59,1.514c1.118,1.698,2.104,3.479,3.273,5.143
		c1.103,1.57,3.706,0.073,2.59-1.514C240.931,419.169,239.946,417.387,238.827,415.69z"/>
	<path fill="#221F1F" d="M247.008,425.184c-0.107-0.34-0.321-0.64-0.653-0.798c-1.261-0.6-2.469-0.458-3.342,0.678
		c-0.606,0.789-0.461,1.938-0.095,2.778c0.518,1.191,1.961,1.344,2.996,0.837c0.608-0.299,1.054-0.896,1.447-1.423
		c0.346-0.463,0.242-1.343-0.092-1.785C247.183,425.359,247.097,425.268,247.008,425.184z"/>
	<path fill="#221F1F" d="M229.447,386.756c0.238-1.917-2.765-1.894-3,0c-0.343,2.765,0.164,5.345,1.257,7.887
		c0.762,1.773,3.346,0.243,2.59-1.514C229.412,391.078,229.173,388.962,229.447,386.756z"/>
	<path fill="#221F1F" d="M226.764,382.723c0.881,0.318,1.846-0.288,2.458-0.863c0.681-0.64,1.119-1.51,0.945-2.453
		c-0.259-1.405-1.878-1.498-2.969-1.228c-0.336,0.083-0.607,0.292-0.799,0.559c-0.399,0.177-0.727,0.512-0.833,0.957
		C225.271,380.926,225.417,382.237,226.764,382.723z"/>
	<path fill="#221F1F" d="M321.046,346.837l-31.1-9.207c-1.041-0.309-2.115-0.423-3.191-0.339c-3.631,0.28-6.765,2.816-7.799,6.309
		l-12.997,43.904c-2.705-6.463-5.857-11.368-8.004-14.314c-3.485-4.782-8.206-9.73-10.482-9.937
		c-0.079-0.007-0.165-0.011-0.257-0.011c-0.312,0-0.757,0.074-1.292,0.2c0.002-0.008,0.003-0.013,0.005-0.021l-3.34,1.028
		c-0.002,0.008-0.004,0.016-0.006,0.024c-7.972,2.817-22.67,9.629-26.189,11.274l-0.637,0.297l-0.179,0.679
		c-0.1,0.377-9.619,38.027,20.864,60.44l0.573,0.421l26.542-6.825l5.959-1.65l0.173-0.771c0.503-2.244,0.868-4.44,1.132-6.592
		l25.787,7.634c1.041,0.308,2.115,0.423,3.191,0.339c3.631-0.28,6.765-2.816,7.799-6.308l19.415-65.583
		C328.4,353.151,325.722,348.222,321.046,346.837z M237.654,434.322c-25.98-19.616-20.403-51.187-19.327-56.167
		c7.555-3.518,17.478-7.911,23.581-10.256c-0.856,4.969-1.57,12.132-0.772,20.24c1.163,11.798,5.871,27.466,20.813,39.937
		L237.654,434.322z M264.891,392.855c3.217,9.455,4.781,21,2.068,33.932l-1.373,0.353c-12.596-9.703-19.816-22.841-21.453-39.189
		c-0.875-8.74,0.124-16.46,1.061-21.234c0.912-0.292,1.588-0.462,1.959-0.477c2.32,0.822,12.017,10.478,17.455,25.826
		 M324.139,356.975l-19.415,65.583c-0.682,2.308-2.754,3.983-5.153,4.168c-0.71,0.054-1.419-0.021-2.109-0.225l-26.329-7.794
		c0.774-10.158-0.904-19.154-3.418-26.566l14.118-47.69c0.684-2.308,2.754-3.983,5.153-4.168c0.709-0.055,1.419,0.021,2.109,0.225
		l31.1,9.207C323.284,350.629,325.054,353.887,324.139,356.975z"/>
</g>
<path fill="#221F1F" d="M214.58,387"/>
</svg>
