<?xml version="1.0" encoding="utf-8"?>
<!-- Generator: Adobe Illustrator 17.0.2, SVG Export Plug-In . SVG Version: 6.00 Build 0)  -->
<!DOCTYPE svg PUBLIC "-//W3C//DTD SVG 1.1//EN" "http://www.w3.org/Graphics/SVG/1.1/DTD/svg11.dtd">
<svg version="1.1" id="Layer_1" xmlns="http://www.w3.org/2000/svg" xmlns:xlink="http://www.w3.org/1999/xlink" x="0px" y="0px"
	 width="252px" height="252px" viewBox="180 270 252 252" enable-background="new 180 270 252 252" xml:space="preserve">
<path fill="#5F8792" d="M347.367,397.386L346.333,416L328,395l0.306-7.407c-9.427-3.223-20.255-5.061-31.776-5.061
	c-18.764,0-35.685,4.872-47.702,12.682l7.172,2.454L274.667,406l8.667-3.667l8.333-2.333l4.667,0.333l6.333,3.667l1.667,4.333
	l4.333,5l-0.667,8h-12L284.667,425L279,422l3.333-2.667l6.333-8l3-1.333l-10-1.333c0,0-3.667,3-6,3s-18,1-18,1L254,418.333l2.667,14
	l-12.667,11l-13.414-18.445c1.155,22.014,30.227,39.643,65.945,39.643c36.451,0,66-18.356,66-41
	C362.531,413.594,356.836,404.483,347.367,397.386z"/>
<path fill="#5F8792" d="M419.844,388.416c-1.669-2.231-3.803-3.803-6.402-4.713c2.902-2.34,4.354-5.188,4.354-8.547
	c0-3.357-1.104-6.143-3.314-8.353c-2.011-2.011-4.403-3.096-7.167-3.278v-9.263c0-0.875-0.709-1.584-1.584-1.584
	s-1.584,0.709-1.584,1.584v9.226h-7.8c-0.434,0-0.803,0.152-1.105,0.455c-0.304,0.304-0.455,0.672-0.455,1.105v42.38
	c0,0.434,0.141,0.802,0.423,1.105c0.281,0.304,0.639,0.455,1.072,0.455h7.865v7.576c0,0.875,0.709,1.584,1.584,1.584
	s1.584-0.709,1.584-1.584v-7.576h2.032c3.596,0,6.662-1.268,9.197-3.803s3.803-5.6,3.803-9.197
	C422.347,393.172,421.512,390.648,419.844,388.416z M412.24,369.078c1.581,1.604,2.372,3.521,2.372,5.752
	c0,2.232-0.791,4.139-2.372,5.72c-1.385,1.385-3.027,2.163-4.925,2.335V366.71C409.213,366.886,410.854,367.676,412.24,369.078z
	 M397.972,366.673h6.175v16.25h-6.175V366.673z M397.972,405.803v-19.63h6.175v19.63H397.972z M416.237,402.943
	c-1.907,1.907-4.204,2.86-6.89,2.86h-2.032v-19.63h2.032c2.686,0,4.982,0.965,6.89,2.893c1.906,1.929,2.882,4.236,2.925,6.922
	C419.118,398.718,418.143,401.037,416.237,402.943z"/>
<g>
	<path fill="#231F20" d="M348.959,410.601l2.586-52.184l-24.296-7.383l-1.342,44.431l12.62,14.781l-12.889-0.15
		c0,0,5.772,13.557,7.786,13.691s25.773,0.134,25.773,0.134l0.134-2.819L348.959,410.601z M344.014,410.236l-14.079-18.107
		l0.676-34.92l15.431,5.761L344.014,410.236z"/>
	<path fill="#231F20" d="M316.511,401.371l-15.723,0.371c-0.296-0.289-0.585-0.591-0.864-0.914c-0.116-0.135-0.18-0.277-0.215-0.418
		c-1.096-0.641-2.227-1.156-3.251-1.511c-6.21-2.152-11.421,1.702-17.054,3.105c-2.901-1.845-7.605-1.344-10.832-1.428
		c-8.001-0.209-11.897-5.853-14.567-12.572c-0.408-1.027-0.902-1.887-1.501-2.606c3.125,0.65,6.1,0.011,7.035-3.887
		c0.495-2.065,0.261-3.482,2.813-4.05c0.975-0.217,1.853-1.367,2.1-2.268c0.491-1.786,0.155-2.816,1.439-4.439
		c1.063-1.343,1.359-3.27,1.997-4.823c0.242-0.589,0.086-1.064-0.253-1.379c1.753-1.08,3.526-2.124,5.336-3.094
		c0.541-0.29,0.929-1.095,0.689-1.694c-3.377-8.429-8.427-14.709-15.52-20.31c-6.604-5.216-13.355-4.989-19.782,0.677
		c-6.451,5.688-8.285,14.345-13.649,20.85c-3.124,3.788-6.257,6.638-8.75,10.952c-1.739,3.008-4.202,4.452-6.767,6.634
		c-1.117,0.949-2.059,2.042-3.027,3.112c-3.836,2.649-5.152,6.29-6.055,10.838c-1.235,6.219-3.095,12.121-3.654,18.482
		c-0.593,6.742,0.501,13.607,0.873,20.334c0.401,7.247,0.69,14.595,0.765,21.853c0.015,1.433,1.664,1.802,2.51,1.111
		c0.147,0.052,0.297,0.1,0.466,0.12c7.217,0.847,14.41,0.163,21.623-0.392c6.596-0.507,13.045,0.206,19.591,0.148
		c2,0.17,3.95-0.096,5.623-0.895c6.571-1.142,13.431-5.251,19.101-7.728c7.522-3.287,13.136-7.165,16.75-14.534
		c0.971-1.98,3.864-2.509,3.124-5.202c-0.062-0.227-0.153-0.442-0.247-0.656c2.239-0.667,4.502-1.248,6.661-2.095
		c-0.001,0.058,0.008,0.12,0.013,0.18c0.262-0.141,0.523-0.285,0.785-0.427l5.37,14.931l36.377-1.879l-0.135-2.281L316.511,401.371z
		 M252.2,376.292c1.968-1.85,4.138-3.553,6.23-5.26c1.931-1.575,3.954-3.038,6.024-4.433c-0.422,1.191-0.87,2.367-1.791,3.275
		c-0.577,0.568-1.076,1.321-1.292,2.105c-0.168,0.612,0.352,2.552-0.664,2.778c-0.824,0.184-1.676,0.36-2.306,0.99
		c-1.523,1.523-1.501,3.913-1.971,5.872c-0.617,2.574-5.641,0.211-7.455-0.765C249.703,379.208,250.583,377.812,252.2,376.292z
		 M283.896,403.538c3.249-1.493,6.118-1.992,9.66-2.008c3.017-0.014,5.186,1.743,7.274,3.687c-0.054-0.005-0.114-0.012-0.162-0.015
		c-2.947-0.183-7.808-2.079-10.32,0.211c-0.901,0.821-0.329,2.137,0.662,2.507c-1.129-0.422-6.336-0.048-8.733-0.611
		c-0.276-0.065-0.525-0.052-0.749,0.009c-0.139-0.902-0.196-1.834-0.389-2.695C282.068,404.327,282.958,403.969,283.896,403.538z
		 M276.761,419.473c-3.647,1.786-7.021,3.819-10.807,5.436c-3.172,1.354-5.624,3.833-8.638,5.463
		c-0.238-0.822-0.537-1.623-0.833-2.427c0.356-3.497,0.457-6.99,0.049-10.495c8.58-0.817,17.717-1.391,25.745-4.564
		c0.922-0.364,1.51-1.557,0.768-2.382c1.494,0.247,2.969,0.35,4.492,0.361c-2.94,2.45-5.397,5.612-7.209,8.699
		C279.19,419.068,277.959,418.886,276.761,419.473z M297.7,417.104c-2.444,1.22-4.051,2.694-6.749,3.661
		c-2.039,0.731-4.177,1.206-6.248,1.856c-0.583-0.534-1.212-1.023-1.826-1.47c2.464-4.212,5.722-7.594,9.911-10.125
		c4.191-2.532,8.55-1.779,12.38,0.472c-0.535,0.54-0.546,1.575-0.053,2.208c0.692,0.778,1.259,1.629,1.725,2.538
		C303.634,416.417,300.977,415.468,297.7,417.104z"/>
	<path fill="#231F20" d="M342.094,382.857l-0.215-5.838l-3.328-2.491l0.214,5.838L342.094,382.857z M341.346,377.593l0.141,3.836
		l-2.187-1.636l-0.141-3.837L341.346,377.593z"/>
	<polygon fill="#231F20" points="341.006,380.172 340.926,377.99 339.682,377.059 339.762,379.241 	"/>
	<path fill="#231F20" d="M336.042,378.328l-0.215-5.838l-3.328-2.491l0.214,5.838L336.042,378.328z M335.293,373.064l0.141,3.837
		l-2.187-1.636l-0.141-3.836L335.293,373.064z"/>
	<polygon fill="#231F20" points="334.941,375.635 334.861,373.453 333.617,372.522 333.697,374.704 	"/>
	<polygon fill="#231F20" points="334.067,384.764 334.147,386.947 335.391,387.878 335.311,385.696 	"/>
	<polygon fill="#231F20" points="336.962,379.294 338.054,380.112 337.983,378.196 336.891,377.379 	"/>
	<polygon fill="#231F20" points="337.904,376.051 337.833,374.135 336.741,373.318 336.812,375.234 	"/>
	<path fill="#231F20" d="M334.931,378.878l0.069,1.873l-0.83-0.621l-0.069-1.873l-1.092-0.817l0.071,1.916l1.032,0.773l0.069,1.873
		l0.979,0.733l0.044,1.194l-2.254-1.689l0.214,5.838l3.328,2.491l-0.195-5.315l0.019,0.014l-0.063-1.717l0.979,0.733l-0.069-1.873
		l0.997,0.746l1.044,0.781l0.064,1.749l0.069,1.873l1.037,0.777v0.004l1.158,0.863l-0.07-1.916l-1.103-0.822l-0.063-1.71
		l-0.07-1.916l-1.068-0.799l-1.092-0.817l-1.068-0.799l0.069,1.873l-0.973-0.728l-0.069-1.874L334.931,378.878z M333.697,387.505
		l-0.141-3.837l2.187,1.636l0.141,3.836L333.697,387.505z M336.131,383.267l-0.866-0.648l-0.062-1.675l0.866,0.648L336.131,383.267z
		"/>
	<polygon fill="#231F20" points="341.509,390.481 340.417,389.664 340.486,391.537 339.478,390.782 339.409,388.908 
		338.317,388.091 338.387,390.007 339.455,390.806 339.524,392.68 340.616,393.497 340.547,391.624 341.579,392.396 	"/>
	<polygon fill="#231F20" points="338.321,384.925 337.229,384.108 337.299,386.024 338.391,386.841 	"/>
</g>
</svg>
