<?xml version="1.0" encoding="utf-8"?>
<!-- Generator: Adobe Illustrator 17.0.2, SVG Export Plug-In . SVG Version: 6.00 Build 0)  -->
<!DOCTYPE svg PUBLIC "-//W3C//DTD SVG 1.1//EN" "http://www.w3.org/Graphics/SVG/1.1/DTD/svg11.dtd">
<svg version="1.1" id="Layer_1" xmlns="http://www.w3.org/2000/svg" xmlns:xlink="http://www.w3.org/1999/xlink" x="0px" y="0px"
	 width="252px" height="252px" viewBox="180 270 252 252" enable-background="new 180 270 252 252" xml:space="preserve">
<path fill="#5A835F" d="M292.613,383.154c-20.059,0-38.015,5.567-50.12,14.34l-5.734,13.07l-5.901-0.885
	c-2.736,4.502-4.245,9.378-4.245,14.475c0,22.644,29.549,41,66,41s66-18.356,66-41S329.063,383.154,292.613,383.154z"/>
<g>
	<path fill="#5A835F" d="M377.645,336.646c0-0.433,0.151-0.802,0.455-1.105c0.303-0.302,0.672-0.454,1.105-0.454
		s0.801,0.152,1.104,0.454c0.303,0.304,0.455,0.673,0.455,1.105v2.6c4.073,0.348,7.931,1.864,11.57,4.551
		c0.606,0.477,0.91,0.953,0.91,1.43c0,0.478-0.163,0.877-0.487,1.202c-0.325,0.325-0.716,0.487-1.171,0.487
		c-0.454,0-0.855-0.151-1.202-0.454c-3.033-2.427-6.283-3.836-9.75-4.226v18.2c4.94,1.04,8.515,2.524,10.725,4.452
		c2.211,1.929,3.315,4.55,3.315,7.865s-1.3,6.089-3.9,8.32c-2.6,2.232-5.937,3.412-10.01,3.542v5.07
		c0,0.433-0.152,0.801-0.455,1.104c-0.304,0.303-0.672,0.455-1.104,0.455c-0.434,0-0.803-0.152-1.105-0.455
		c-0.304-0.304-0.455-0.672-0.455-1.104v-5.135c-5.417-0.433-10.292-2.535-14.625-6.306c-0.477-0.39-0.715-0.822-0.715-1.3
		c0-0.477,0.163-0.877,0.487-1.202c0.325-0.325,0.716-0.487,1.17-0.487c0.455,0,0.834,0.152,1.138,0.455
		c3.727,3.467,7.951,5.438,12.675,5.914V363.1c-4.854-1.083-8.363-2.578-10.529-4.485c-2.168-1.906-3.25-4.495-3.25-7.768
		c0-3.271,1.288-6.022,3.867-8.255c2.578-2.231,5.839-3.39,9.782-3.478L377.645,336.646L377.645,336.646z M370.203,344.576
		c-1.929,1.647-2.893,3.651-2.893,6.013s0.736,4.247,2.21,5.655c1.473,1.408,4.226,2.59,8.255,3.542v-17.745
		C374.656,342.084,372.13,342.929,370.203,344.576z M388.403,379.124c1.972-1.668,2.957-3.715,2.957-6.143
		c0-2.427-0.77-4.344-2.307-5.753c-1.539-1.407-4.346-2.567-8.418-3.478v17.94C383.841,381.648,386.43,380.792,388.403,379.124z"/>
</g>
<g>
	<path fill="#231F20" d="M290.05,362.098c0.053,2.505,0.817,4.76,1.783,7.047c0.322,0.76,0.978,0.912,1.567,0.701
		c0.636,0.052,1.285-0.258,1.491-1.06c0.596-2.325,0.92-4.751,0.781-7.135c0.136-0.11,0.253-0.243,0.332-0.407
		c0.668-1.378,1.08-2.962,0.972-4.497c-0.02-0.282-0.059-0.543-0.117-0.784c-0.34-1.423-1.326-2.176-2.824-2.795
		c1.053-0.906,1.438-3.736-0.59-3.661c-0.813,0.03-1.457,0.297-1.927,0.98c-0.547,0.794-0.099,1.765,0.45,2.41
		c-0.479,0.006-0.964,0.054-1.45,0.14c-1.181,0.209-1.596,2.394-1.795,3.316c-0.383,1.775,0.135,3.602,0.899,5.208
		C289.735,361.8,289.883,361.973,290.05,362.098z"/>
	<path fill="#231F20" d="M278.054,385.076c0.053,2.505,0.817,4.76,1.783,7.047c0.322,0.76,0.978,0.912,1.567,0.701
		c0.636,0.052,1.285-0.258,1.491-1.06c0.596-2.325,0.92-4.751,0.781-7.135c0.136-0.11,0.253-0.243,0.332-0.407
		c0.668-1.378,1.08-2.962,0.972-4.497c-0.02-0.282-0.059-0.543-0.117-0.784c-0.34-1.423-1.326-2.176-2.824-2.795
		c1.053-0.906,1.438-3.736-0.59-3.661c-0.813,0.03-1.457,0.297-1.927,0.98c-0.547,0.794-0.099,1.765,0.45,2.41
		c-0.479,0.006-0.964,0.054-1.45,0.14c-1.181,0.209-1.596,2.394-1.795,3.316c-0.383,1.775,0.135,3.602,0.899,5.208
		C277.739,384.778,277.888,384.951,278.054,385.076z"/>
	<path fill="#231F20" d="M289.745,372.785c1.053-0.906,1.438-3.736-0.59-3.661c-0.813,0.03-1.457,0.297-1.927,0.98
		c-0.547,0.794-0.099,1.765,0.45,2.41c-0.479,0.006-0.964,0.054-1.45,0.14c-1.181,0.209-1.596,2.394-1.795,3.316
		c-0.383,1.775,0.135,3.602,0.899,5.208c0.114,0.239,0.262,0.412,0.429,0.537c0.053,2.505,0.817,4.76,1.783,7.047
		c0.322,0.76,0.978,0.912,1.567,0.701c0.636,0.052,1.285-0.258,1.491-1.06c0.596-2.325,0.92-4.751,0.781-7.135
		c0.136-0.11,0.253-0.243,0.332-0.407c0.668-1.378,1.08-2.962,0.972-4.497c-0.02-0.282-0.059-0.543-0.117-0.784
		C292.23,374.158,291.243,373.405,289.745,372.785z"/>
	<path fill="#231F20" d="M297.166,386.757c0.053,2.505,0.817,4.76,1.783,7.047c0.322,0.76,0.978,0.912,1.567,0.701
		c0.636,0.052,1.285-0.258,1.491-1.06c0.596-2.325,0.92-4.751,0.781-7.135c0.136-0.11,0.253-0.243,0.332-0.407
		c0.668-1.378,1.08-2.962,0.972-4.497c-0.02-0.282-0.059-0.543-0.117-0.784c-0.34-1.423-1.326-2.176-2.824-2.795
		c1.053-0.906,1.438-3.736-0.59-3.661c-0.813,0.03-1.457,0.297-1.927,0.98c-0.547,0.794-0.099,1.765,0.45,2.41
		c-0.479,0.006-0.964,0.054-1.45,0.14c-1.181,0.209-1.596,2.394-1.795,3.316c-0.383,1.775,0.135,3.602,0.899,5.208
		C296.851,386.46,296.999,386.632,297.166,386.757z"/>
	<path fill="#231F20" d="M302.183,381.291c0.053,2.505,0.817,4.76,1.783,7.047c0.322,0.76,0.978,0.912,1.567,0.701
		c0.636,0.052,1.285-0.258,1.491-1.06c0.596-2.325,0.92-4.751,0.781-7.135c0.136-0.11,0.253-0.243,0.332-0.407
		c0.668-1.378,1.08-2.962,0.972-4.497c-0.02-0.282-0.059-0.543-0.117-0.784c-0.34-1.423-1.326-2.176-2.824-2.795
		c1.053-0.906,1.438-3.736-0.59-3.661c-0.813,0.03-1.457,0.297-1.927,0.98c-0.547,0.794-0.099,1.765,0.45,2.41
		c-0.479,0.006-0.964,0.054-1.45,0.14c-1.181,0.209-1.596,2.394-1.795,3.316c-0.383,1.775,0.135,3.602,0.899,5.208
		C301.868,380.994,302.016,381.167,302.183,381.291z"/>
	<path fill="#231F20" d="M267.843,385.326c0.053,2.505,0.817,4.76,1.783,7.047c0.322,0.76,0.978,0.912,1.567,0.701
		c0.636,0.052,1.285-0.258,1.491-1.06c0.596-2.325,0.92-4.751,0.781-7.135c0.136-0.11,0.253-0.243,0.332-0.407
		c0.668-1.378,1.08-2.962,0.972-4.497c-0.02-0.282-0.059-0.543-0.117-0.784c-0.34-1.423-1.326-2.176-2.824-2.795
		c1.053-0.906,1.438-3.736-0.59-3.661c-0.813,0.03-1.457,0.297-1.927,0.98c-0.547,0.794-0.099,1.765,0.45,2.41
		c-0.479,0.006-0.964,0.054-1.45,0.14c-1.181,0.209-1.596,2.394-1.795,3.316c-0.383,1.775,0.135,3.602,0.899,5.208
		C267.528,385.028,267.677,385.201,267.843,385.326z"/>
</g>
<path fill="#231F20" d="M261.566,385.59l-8.724-7.53l0.073,6.032c-2.346-0.265-9.336-0.468-15.403,5.335l2.073,2.168
	c5.637-5.391,12.182-4.661,13.367-4.475l0.085,6.941L261.566,385.59z"/>
<g>
	<path fill="#231F20" d="M256.617,416.373c0.136-0.11,0.253-0.243,0.332-0.407c0.668-1.378,1.08-2.962,0.972-4.497
		c-0.02-0.282-0.059-0.543-0.117-0.784c-0.34-1.423-1.326-2.176-2.824-2.795c1.053-0.906,1.438-3.736-0.59-3.661
		c-0.813,0.03-1.457,0.297-1.927,0.98c-0.547,0.794-0.099,1.765,0.45,2.41c-0.479,0.006-0.964,0.054-1.45,0.14
		c-1.181,0.209-1.596,2.394-1.795,3.316c-0.383,1.775,0.135,3.602,0.899,5.208c0.114,0.239,0.262,0.412,0.429,0.537
		c0.053,2.505,0.817,4.76,1.783,7.047c0.322,0.76,0.978,0.912,1.567,0.701c0.636,0.052,1.285-0.258,1.491-1.06
		C256.433,421.183,256.757,418.757,256.617,416.373z"/>
	<path fill="#231F20" d="M347.671,411.47c-0.02-0.282-0.059-0.543-0.117-0.784c-0.34-1.423-1.326-2.176-2.824-2.795
		c1.053-0.906,1.438-3.736-0.59-3.661c-0.813,0.03-1.457,0.297-1.927,0.98c-0.547,0.794-0.099,1.765,0.45,2.41
		c-0.479,0.006-0.964,0.054-1.45,0.14c-1.181,0.209-1.596,2.394-1.795,3.316c-0.383,1.775,0.135,3.602,0.899,5.208
		c0.114,0.239,0.262,0.412,0.429,0.537c0.053,2.505,0.817,4.76,1.783,7.047c0.322,0.76,0.978,0.912,1.567,0.701
		c0.636,0.052,1.285-0.258,1.491-1.06c0.596-2.325,0.921-4.751,0.781-7.135c0.135-0.11,0.252-0.243,0.332-0.407
		C347.367,414.588,347.779,413.004,347.671,411.47z"/>
	<path fill="#231F20" d="M310.981,437.89c1.053-0.906,1.438-3.736-0.59-3.661c-0.813,0.03-1.457,0.297-1.927,0.98
		c-0.547,0.794-0.099,1.765,0.45,2.41c-0.479,0.006-0.964,0.054-1.45,0.14c-1.181,0.209-1.596,2.394-1.795,3.316
		c-0.383,1.775,0.135,3.602,0.899,5.208c0.114,0.239,0.262,0.412,0.429,0.537c0.053,2.505,0.817,4.76,1.783,7.047
		c0.322,0.76,0.978,0.912,1.567,0.701c0.636,0.052,1.285-0.258,1.491-1.06c0.596-2.325,0.921-4.751,0.781-7.135
		c0.135-0.11,0.252-0.243,0.332-0.407c0.668-1.378,1.08-2.962,0.972-4.497c-0.02-0.282-0.059-0.543-0.117-0.784
		C313.465,439.263,312.479,438.51,310.981,437.89z"/>
	<path fill="#231F20" d="M287.837,432.008c0.596-2.325,0.92-4.751,0.781-7.135c0.136-0.11,0.253-0.243,0.332-0.407
		c0.668-1.378,1.08-2.962,0.972-4.497c-0.02-0.282-0.059-0.543-0.117-0.784c-0.34-1.423-1.326-2.176-2.824-2.795
		c1.053-0.906,1.438-3.736-0.59-3.661c-0.813,0.03-1.457,0.297-1.927,0.98c-0.547,0.794-0.099,1.765,0.45,2.41
		c-0.479,0.006-0.964,0.054-1.45,0.14c-0.641,0.113-1.052,0.811-1.33,1.571c0.008-0.486,0.011-0.973-0.017-1.457
		c0.136-0.11,0.253-0.243,0.332-0.407c0.668-1.378,1.08-2.962,0.972-4.497c-0.02-0.282-0.059-0.543-0.117-0.784
		c-0.34-1.423-1.326-2.176-2.824-2.795c1.053-0.906,1.438-3.736-0.59-3.661c-0.813,0.03-1.457,0.297-1.927,0.98
		c-0.547,0.794-0.099,1.765,0.45,2.41c-0.479,0.006-0.964,0.054-1.45,0.14c-1.181,0.209-1.596,2.394-1.795,3.316
		c-0.383,1.775,0.135,3.602,0.899,5.208c0.114,0.239,0.262,0.412,0.429,0.537c0.053,2.505,0.817,4.76,1.783,7.047
		c0.322,0.76,0.978,0.912,1.567,0.701c0.636,0.052,1.285-0.258,1.491-1.06c0.122-0.477,0.225-0.961,0.323-1.445
		c0.168,0.942,0.5,1.863,0.908,2.72c0.114,0.239,0.262,0.412,0.429,0.537c0.007,0.31,0.024,0.616,0.052,0.919
		c-0.053-0.002-0.101-0.011-0.157-0.009c-0.813,0.03-1.457,0.297-1.927,0.98c-0.547,0.794-0.099,1.765,0.45,2.41
		c-0.479,0.006-0.964,0.054-1.45,0.14c-1.181,0.209-1.596,2.394-1.795,3.316c-0.383,1.775,0.135,3.602,0.899,5.208
		c0.114,0.239,0.262,0.412,0.429,0.537c0.053,2.505,0.817,4.76,1.783,7.047c0.322,0.76,0.978,0.912,1.567,0.701
		c0.636,0.052,1.285-0.258,1.491-1.06c0.596-2.325,0.921-4.751,0.781-7.135c0.135-0.11,0.252-0.243,0.332-0.407
		c0.668-1.378,1.08-2.962,0.972-4.497c-0.01-0.145-0.04-0.269-0.06-0.403C286.993,433.113,287.633,432.803,287.837,432.008z
		 M283.746,429.597c0.05,0.161,0.103,0.322,0.157,0.482c-0.137-0.064-0.275-0.127-0.422-0.188
		C283.576,429.809,283.663,429.707,283.746,429.597z"/>
	<path fill="#231F20" d="M273.981,418.14c1.053-0.906,1.438-3.736-0.59-3.661c-0.813,0.03-1.457,0.297-1.927,0.98
		c-0.547,0.794-0.099,1.765,0.45,2.41c-0.479,0.006-0.964,0.054-1.45,0.14c-0.516,0.091-0.88,0.567-1.15,1.143
		c0.074-0.927,0.107-1.856,0.053-2.779c0.136-0.11,0.253-0.243,0.332-0.407c0.668-1.378,1.08-2.962,0.972-4.497
		c-0.02-0.282-0.059-0.543-0.117-0.784c-0.34-1.423-1.326-2.176-2.824-2.795c1.053-0.906,1.438-3.736-0.59-3.661
		c-0.813,0.03-1.457,0.297-1.927,0.98c-0.547,0.794-0.099,1.765,0.45,2.41c-0.479,0.006-0.964,0.054-1.45,0.14
		c-1.181,0.209-1.596,2.394-1.795,3.316c-0.383,1.775,0.135,3.602,0.899,5.208c0.114,0.239,0.262,0.412,0.429,0.537
		c0.029,1.353,0.269,2.632,0.632,3.883c-0.138,0.018-0.276,0.032-0.414,0.057c-0.096,0.017-0.18,0.066-0.266,0.107
		c-0.491-0.505-1.15-0.888-1.968-1.226c1.053-0.906,1.438-3.736-0.59-3.661c-0.813,0.03-1.457,0.297-1.927,0.98
		c-0.547,0.794-0.099,1.765,0.45,2.41c-0.479,0.006-0.964,0.054-1.45,0.14c-1.181,0.209-1.596,2.394-1.795,3.316
		c-0.383,1.775,0.135,3.602,0.899,5.208c0.114,0.239,0.262,0.412,0.429,0.537c0.053,2.505,0.817,4.76,1.783,7.047
		c0.322,0.76,0.978,0.912,1.567,0.701c0.636,0.052,1.285-0.258,1.491-1.06c0.464-1.81,0.755-3.681,0.799-5.545
		c0.037,0.035,0.071,0.077,0.11,0.106c0.053,2.505,0.817,4.76,1.783,7.047c0.322,0.76,0.978,0.912,1.567,0.701
		c0.636,0.052,1.285-0.258,1.491-1.06c0.596-2.325,0.92-4.751,0.781-7.135c0.136-0.11,0.253-0.243,0.332-0.407
		c0.229-0.472,0.412-0.973,0.57-1.482c0.124,2.339,0.847,4.473,1.76,6.632c0.322,0.76,0.978,0.912,1.567,0.701
		c0.636,0.052,1.285-0.258,1.491-1.06c0.596-2.325,0.92-4.751,0.781-7.135c0.136-0.11,0.253-0.243,0.332-0.407
		c0.668-1.378,1.08-2.962,0.972-4.497c-0.02-0.282-0.059-0.543-0.117-0.784C276.465,419.513,275.479,418.76,273.981,418.14z"/>
	<path fill="#231F20" d="M315.671,421.22c-0.02-0.282-0.059-0.543-0.117-0.784c-0.34-1.423-1.326-2.176-2.824-2.795
		c1.053-0.906,1.438-3.736-0.59-3.661c-0.813,0.03-1.457,0.297-1.927,0.98c-0.547,0.794-0.099,1.765,0.45,2.41
		c-0.479,0.006-0.964,0.054-1.45,0.14c-0.488,0.086-0.84,0.515-1.105,1.048c0.038-0.729,0.051-1.458,0.008-2.183
		c0.136-0.11,0.253-0.243,0.332-0.407c0.668-1.378,1.08-2.962,0.972-4.497c-0.02-0.282-0.059-0.543-0.117-0.784
		c-0.34-1.423-1.326-2.176-2.824-2.795c1.053-0.906,1.438-3.736-0.59-3.661c-0.813,0.03-1.457,0.297-1.927,0.98
		c-0.547,0.794-0.099,1.765,0.45,2.41c-0.479,0.006-0.964,0.054-1.45,0.14c-1.181,0.209-1.596,2.394-1.795,3.316
		c-0.383,1.775,0.135,3.602,0.899,5.208c0.114,0.239,0.262,0.412,0.429,0.537c0.023,1.087,0.186,2.126,0.435,3.143
		c-0.073,0.081-0.151,0.151-0.218,0.247c-0.362,0.526-0.284,1.128-0.033,1.663c-0.504-0.639-1.247-1.089-2.199-1.482
		c1.053-0.906,1.438-3.736-0.59-3.661c-0.813,0.03-1.457,0.297-1.927,0.98c-0.547,0.794-0.099,1.765,0.45,2.41
		c-0.479,0.006-0.964,0.054-1.45,0.14c-0.183,0.032-0.342,0.125-0.491,0.24c-0.081-0.036-0.158-0.073-0.243-0.108
		c1.053-0.906,1.438-3.736-0.59-3.661c-0.094,0.003-0.179,0.022-0.268,0.032c-0.005-0.129,0.003-0.259-0.005-0.388
		c0.136-0.11,0.253-0.243,0.332-0.407c0.668-1.378,1.08-2.962,0.972-4.497c-0.02-0.282-0.059-0.543-0.117-0.784
		c-0.34-1.423-1.326-2.176-2.824-2.795c1.053-0.906,1.438-3.736-0.59-3.661c-0.813,0.03-1.457,0.297-1.927,0.98
		c-0.547,0.794-0.099,1.765,0.45,2.41c-0.479,0.006-0.964,0.054-1.45,0.14c-1.181,0.209-1.596,2.394-1.795,3.316
		c-0.383,1.775,0.135,3.602,0.899,5.208c0.114,0.239,0.262,0.412,0.429,0.537c0.045,2.113,0.598,4.047,1.349,5.974
		c-0.073,0.299-0.131,0.574-0.176,0.782c-0.383,1.775,0.135,3.602,0.899,5.208c0.114,0.239,0.262,0.412,0.429,0.537
		c0.001,0.07,0.009,0.138,0.012,0.208c-0.048-0.002-0.091-0.01-0.142-0.008c-0.813,0.03-1.457,0.297-1.927,0.98
		c-0.547,0.794-0.099,1.765,0.45,2.41c-0.479,0.006-0.964,0.054-1.45,0.14c-1.181,0.209-1.596,2.394-1.795,3.316
		c-0.383,1.775,0.135,3.602,0.899,5.208c0.114,0.239,0.262,0.412,0.429,0.537c0.053,2.505,0.817,4.76,1.783,7.047
		c0.322,0.76,0.978,0.912,1.567,0.701c0.636,0.052,1.285-0.258,1.491-1.06c0.596-2.325,0.921-4.751,0.781-7.135
		c0.135-0.11,0.252-0.243,0.332-0.407c0.624-1.288,1.006-2.753,0.969-4.192c0.621,0.033,1.243-0.274,1.444-1.057
		c0.146-0.57,0.275-1.147,0.386-1.727c0.117,0.338,0.241,0.676,0.372,1.013c-0.432,0.771-0.012,1.679,0.512,2.293
		c-0.479,0.006-0.964,0.054-1.45,0.14c-1.181,0.209-1.596,2.394-1.795,3.316c-0.383,1.775,0.135,3.602,0.899,5.208
		c0.114,0.239,0.262,0.412,0.429,0.537c0.053,2.505,0.817,4.76,1.783,7.047c0.322,0.76,0.978,0.912,1.567,0.701
		c0.636,0.052,1.285-0.258,1.491-1.06c0.596-2.325,0.921-4.751,0.781-7.135c0.135-0.11,0.252-0.243,0.332-0.407
		c0.668-1.378,1.08-2.962,0.972-4.497c-0.02-0.282-0.059-0.543-0.117-0.784c-0.34-1.423-1.326-2.176-2.824-2.795
		c0.408-0.352,0.714-0.992,0.819-1.641c0.03-0.072,0.073-0.127,0.094-0.209c0.109-0.423,0.197-0.853,0.286-1.282
		c0.324,1.409,0.827,2.769,1.406,4.14c0.322,0.76,0.978,0.912,1.567,0.701c0.636,0.052,1.285-0.258,1.491-1.06
		c0.596-2.325,0.921-4.751,0.781-7.135c0.135-0.11,0.252-0.243,0.332-0.407c0.668-1.378,1.08-2.962,0.972-4.497
		c-0.02-0.282-0.059-0.543-0.117-0.784c-0.166-0.695-0.489-1.229-0.948-1.667c0.099-0.141,0.179-0.311,0.23-0.511
		c0.023-0.09,0.039-0.182,0.061-0.272c0.163,0.968,0.501,1.916,0.92,2.796c0.114,0.239,0.262,0.412,0.429,0.537
		c0.053,2.505,0.817,4.76,1.783,7.047c0.322,0.76,0.978,0.912,1.567,0.701c0.636,0.052,1.285-0.258,1.491-1.06
		c0.596-2.325,0.921-4.751,0.781-7.135c0.135-0.11,0.252-0.243,0.332-0.407C315.367,424.338,315.779,422.754,315.671,421.22z
		 M303.164,422.619c-0.015,0-0.03,0.002-0.046,0.002c-0.024-0.056-0.052-0.107-0.078-0.161
		C303.081,422.514,303.121,422.569,303.164,422.619z M292.833,433.051c0.02,0.072,0.043,0.143,0.064,0.215
		c-0.065-0.028-0.125-0.058-0.192-0.085C292.75,433.142,292.791,433.096,292.833,433.051z"/>
	<path fill="#231F20" d="M337.231,419.39c1.053-0.906,1.438-3.736-0.59-3.661c-0.813,0.03-1.457,0.297-1.927,0.98
		c-0.547,0.794-0.099,1.765,0.45,2.41c-0.479,0.006-0.964,0.054-1.45,0.14c-0.059,0.01-0.108,0.046-0.163,0.066
		c0.086-0.985,0.124-1.971,0.066-2.951c0.135-0.11,0.252-0.243,0.332-0.407c0.668-1.378,1.08-2.962,0.972-4.497
		c-0.02-0.282-0.059-0.543-0.117-0.784c-0.34-1.423-1.326-2.176-2.824-2.795c1.053-0.906,1.438-3.736-0.59-3.661
		c-0.813,0.03-1.457,0.297-1.927,0.98c-0.547,0.794-0.099,1.765,0.45,2.41c-0.479,0.006-0.964,0.054-1.45,0.14
		c-1.181,0.209-1.596,2.394-1.795,3.316c-0.383,1.775,0.135,3.602,0.899,5.208c0.114,0.239,0.262,0.412,0.429,0.537
		c0.019,0.915,0.136,1.796,0.32,2.659c-0.475-0.439-1.092-0.78-1.835-1.087c1.053-0.906,1.438-3.736-0.59-3.661
		c-0.813,0.03-1.457,0.297-1.927,0.98c-0.547,0.794-0.099,1.765,0.45,2.41c-0.479,0.006-0.964,0.054-1.45,0.14
		c-1.181,0.209-1.596,2.394-1.795,3.316c-0.038,0.176-0.06,0.352-0.081,0.529c-0.182-0.082-0.4-0.126-0.66-0.122
		c0.367-1.85,0.549-3.741,0.44-5.608c0.135-0.11,0.252-0.243,0.332-0.407c0.668-1.378,1.08-2.962,0.972-4.497
		c-0.02-0.282-0.059-0.543-0.117-0.784c-0.34-1.423-1.326-2.176-2.824-2.795c1.053-0.906,1.438-3.736-0.59-3.661
		c-0.813,0.03-1.457,0.297-1.927,0.98c-0.547,0.794-0.099,1.765,0.45,2.41c-0.479,0.006-0.964,0.054-1.45,0.14
		c-1.181,0.209-1.596,2.394-1.795,3.316c-0.383,1.775,0.135,3.602,0.899,5.208c0.114,0.239,0.262,0.412,0.429,0.537
		c0.053,2.505,0.817,4.76,1.783,7.047c0.291,0.688,0.856,0.874,1.397,0.748c0.128,0.276,0.3,0.535,0.488,0.755
		c-0.479,0.006-0.964,0.054-1.45,0.14c-1.181,0.209-1.596,2.394-1.795,3.316c-0.383,1.775,0.135,3.602,0.899,5.208
		c0.114,0.239,0.262,0.412,0.429,0.537c0.053,2.505,0.817,4.76,1.783,7.047c0.322,0.76,0.978,0.912,1.567,0.701
		c0.275,0.023,0.546-0.038,0.789-0.161c0.157,0.996,0.502,1.971,0.932,2.875c0.114,0.239,0.262,0.412,0.429,0.537
		c0.053,2.505,0.817,4.76,1.783,7.047c0.322,0.76,0.978,0.912,1.567,0.701c0.636,0.052,1.285-0.258,1.491-1.06
		c0.596-2.325,0.921-4.751,0.781-7.135c0.135-0.11,0.252-0.243,0.332-0.407c0.668-1.378,1.08-2.962,0.972-4.497
		c-0.02-0.282-0.059-0.543-0.117-0.784c-0.34-1.423-1.326-2.176-2.824-2.795c0.605-0.521,0.986-1.675,0.819-2.55
		c0.01-0.031,0.029-0.05,0.037-0.083c0.596-2.325,0.921-4.751,0.781-7.135c0.135-0.11,0.252-0.243,0.332-0.407
		c0.524-1.082,0.88-2.289,0.961-3.5c0.119,0.3,0.242,0.6,0.369,0.9c0.322,0.76,0.978,0.912,1.567,0.701
		c0.163,0.013,0.327,0.001,0.484-0.036c0.101,0.947,0.39,1.879,0.767,2.758c-0.436,0.772-0.015,1.683,0.509,2.297
		c-0.479,0.006-0.964,0.054-1.45,0.14c-1.181,0.209-1.596,2.394-1.795,3.316c-0.383,1.775,0.135,3.602,0.899,5.208
		c0.114,0.239,0.262,0.412,0.429,0.537c0.053,2.505,0.817,4.76,1.783,7.047c0.322,0.76,0.978,0.912,1.567,0.701
		c0.636,0.052,1.285-0.258,1.491-1.06c0.596-2.325,0.921-4.751,0.781-7.135c0.135-0.11,0.252-0.243,0.332-0.407
		c0.416-0.858,0.712-1.797,0.866-2.753c0.024-0.061,0.061-0.105,0.078-0.174c0.596-2.325,0.921-4.751,0.781-7.135
		c0.135-0.11,0.252-0.243,0.332-0.407c0.668-1.378,1.08-2.962,0.972-4.497c-0.02-0.282-0.059-0.543-0.117-0.784
		C339.715,420.763,338.729,420.01,337.231,419.39z M321.411,425.099c0.092,0.301,0.197,0.598,0.313,0.89
		c-0.233-0.122-0.477-0.238-0.743-0.348C321.143,425.501,321.286,425.312,321.411,425.099z M322.964,436.509
		c-0.138,0.024-0.264,0.081-0.382,0.154c0.058-0.848,0.085-1.696,0.035-2.54c0.135-0.11,0.252-0.243,0.332-0.407
		c0.214-0.441,0.388-0.908,0.541-1.383c0.177,0.505,0.369,1.008,0.574,1.511c-0.032,0.042-0.07,0.07-0.102,0.115
		c-0.547,0.794-0.099,1.765,0.45,2.41C323.934,436.375,323.449,436.423,322.964,436.509z"/>
</g>
<path fill="#231F20" d="M238.789,394.293l0.269-0.649l-9.241-0.558l-5.25-1.382l-16.198,9.899l10.632,6.561l-0.817,1.379
	l6.163,0.406l-0.361,0.609l13.895,0.916l6.979-16.815L238.789,394.293z M220.037,405.278l-5.935-3.662l10.939-6.685l1.563,0.411
	l-5.402,9.111L220.037,405.278z M223.256,406.872l6.396-10.789l2.815,0.169l-6.405,10.805L223.256,406.872z M235.933,408.34
	l-6.875-0.453l6.396-10.79l5.02,0.303L235.933,408.34z"/>
<path fill="#231F20" d="M234.181,414.97l-1.54,11.421l5.012-3.358c1.06,2.109,4.71,8.075,12.884,9.985l0.683-2.92
	c-7.595-1.775-10.559-7.656-11.052-8.75l5.767-3.864L234.181,414.97z"/>
<path fill="#231F20" d="M308.472,387.031c0.053,2.505,0.817,4.76,1.783,7.047c0.322,0.76,0.978,0.912,1.567,0.701
	c0.636,0.052,1.285-0.258,1.491-1.06c0.596-2.325,0.92-4.751,0.781-7.135c0.136-0.11,0.253-0.243,0.332-0.407
	c0.668-1.378,1.08-2.962,0.972-4.497c-0.02-0.282-0.059-0.543-0.117-0.784c-0.34-1.423-1.326-2.176-2.824-2.795
	c1.053-0.906,1.438-3.736-0.59-3.661c-0.813,0.03-1.457,0.297-1.927,0.98c-0.547,0.794-0.099,1.765,0.45,2.41
	c-0.479,0.006-0.964,0.054-1.45,0.14c-1.181,0.209-1.596,2.394-1.795,3.316c-0.383,1.775,0.135,3.602,0.899,5.208
	C308.157,386.734,308.306,386.906,308.472,387.031z"/>
</svg>
