<?xml version="1.0" encoding="utf-8"?>
<!-- Generator: Adobe Illustrator 17.0.2, SVG Export Plug-In . SVG Version: 6.00 Build 0)  -->
<!DOCTYPE svg PUBLIC "-//W3C//DTD SVG 1.1//EN" "http://www.w3.org/Graphics/SVG/1.1/DTD/svg11.dtd">
<svg version="1.1" id="Layer_1" xmlns="http://www.w3.org/2000/svg" xmlns:xlink="http://www.w3.org/1999/xlink" x="0px" y="0px"
	 width="612px" height="792px" viewBox="0 0 612 792" enable-background="new 0 0 612 792" xml:space="preserve">
<path fill="#5A835F" d="M293.679,398.717c-20.059,0-38.015,5.567-50.12,14.34l-5.734,13.07l-5.901-0.885
	c-2.736,4.502-4.245,9.378-4.245,14.475c0,22.644,29.549,41,66,41s66-18.356,66-41S330.129,398.717,293.679,398.717z"/>
<g>
	<path fill="#5A835F" d="M378.711,352.209c0-0.433,0.151-0.802,0.455-1.105c0.303-0.302,0.672-0.454,1.105-0.454
		c0.433,0,0.801,0.152,1.104,0.454c0.303,0.304,0.455,0.673,0.455,1.105v2.6c4.073,0.348,7.931,1.864,11.57,4.551
		c0.606,0.477,0.91,0.953,0.91,1.43c0,0.478-0.163,0.877-0.487,1.202c-0.325,0.325-0.716,0.487-1.171,0.487
		c-0.454,0-0.855-0.151-1.202-0.454c-3.033-2.427-6.283-3.836-9.75-4.226v18.2c4.94,1.04,8.515,2.524,10.725,4.452
		c2.211,1.929,3.315,4.55,3.315,7.865s-1.3,6.089-3.9,8.32c-2.6,2.232-5.937,3.412-10.01,3.542v5.07
		c0,0.433-0.152,0.801-0.455,1.104c-0.304,0.303-0.672,0.455-1.104,0.455c-0.434,0-0.803-0.152-1.105-0.455
		c-0.304-0.304-0.455-0.672-0.455-1.104v-5.135c-5.417-0.433-10.292-2.535-14.625-6.306c-0.477-0.39-0.715-0.822-0.715-1.3
		c0-0.477,0.163-0.877,0.487-1.202c0.325-0.325,0.716-0.487,1.17-0.487c0.455,0,0.834,0.152,1.138,0.455
		c3.727,3.467,7.951,5.438,12.675,5.914v-18.524c-4.854-1.083-8.363-2.578-10.529-4.485c-2.168-1.906-3.25-4.495-3.25-7.768
		c0-3.271,1.288-6.022,3.867-8.255c2.578-2.231,5.839-3.39,9.782-3.478V352.209z M371.269,360.139
		c-1.929,1.647-2.893,3.651-2.893,6.013c0,2.362,0.736,4.247,2.21,5.655c1.473,1.408,4.226,2.59,8.255,3.542v-17.745
		C375.722,357.647,373.196,358.492,371.269,360.139z M389.469,394.687c1.972-1.668,2.957-3.715,2.957-6.143
		c0-2.427-0.77-4.344-2.307-5.753c-1.539-1.407-4.346-2.567-8.418-3.478v17.94C384.907,397.211,387.496,396.355,389.469,394.687z"/>
</g>
<g>
	<path fill="#231F20" d="M291.116,377.661c0.053,2.505,0.817,4.76,1.783,7.047c0.322,0.76,0.978,0.912,1.567,0.701
		c0.636,0.052,1.285-0.258,1.491-1.06c0.596-2.325,0.92-4.751,0.781-7.135c0.136-0.11,0.253-0.243,0.332-0.407
		c0.668-1.378,1.08-2.962,0.972-4.497c-0.02-0.282-0.059-0.543-0.117-0.784c-0.34-1.423-1.326-2.176-2.824-2.795
		c1.053-0.906,1.438-3.736-0.59-3.661c-0.813,0.03-1.457,0.297-1.927,0.98c-0.547,0.794-0.099,1.765,0.45,2.41
		c-0.479,0.006-0.964,0.054-1.45,0.14c-1.181,0.209-1.596,2.394-1.795,3.316c-0.383,1.775,0.135,3.602,0.899,5.208
		C290.801,377.363,290.949,377.536,291.116,377.661z"/>
	<path fill="#231F20" d="M279.12,400.639c0.053,2.505,0.817,4.76,1.783,7.047c0.322,0.76,0.978,0.912,1.567,0.701
		c0.636,0.052,1.285-0.258,1.491-1.06c0.596-2.325,0.92-4.751,0.781-7.135c0.136-0.11,0.253-0.243,0.332-0.407
		c0.668-1.378,1.08-2.962,0.972-4.497c-0.02-0.282-0.059-0.543-0.117-0.784c-0.34-1.423-1.326-2.176-2.824-2.795
		c1.053-0.906,1.438-3.736-0.59-3.661c-0.813,0.03-1.457,0.297-1.927,0.98c-0.547,0.794-0.099,1.765,0.45,2.41
		c-0.479,0.006-0.964,0.054-1.45,0.14c-1.181,0.209-1.596,2.394-1.795,3.316c-0.383,1.775,0.135,3.602,0.899,5.208
		C278.805,400.341,278.954,400.514,279.12,400.639z"/>
	<path fill="#231F20" d="M290.811,388.348c1.053-0.906,1.438-3.736-0.59-3.661c-0.813,0.03-1.457,0.297-1.927,0.98
		c-0.547,0.794-0.099,1.765,0.45,2.41c-0.479,0.006-0.964,0.054-1.45,0.14c-1.181,0.209-1.596,2.394-1.795,3.316
		c-0.383,1.775,0.135,3.602,0.899,5.208c0.114,0.239,0.262,0.412,0.429,0.537c0.053,2.505,0.817,4.76,1.783,7.047
		c0.322,0.76,0.978,0.912,1.567,0.701c0.636,0.052,1.285-0.258,1.491-1.06c0.596-2.325,0.92-4.751,0.781-7.135
		c0.136-0.11,0.253-0.243,0.332-0.407c0.668-1.378,1.08-2.962,0.972-4.497c-0.02-0.282-0.059-0.543-0.117-0.784
		C293.296,389.721,292.309,388.968,290.811,388.348z"/>
	<path fill="#231F20" d="M298.232,402.32c0.053,2.505,0.817,4.76,1.783,7.047c0.322,0.76,0.978,0.912,1.567,0.701
		c0.636,0.052,1.285-0.258,1.491-1.06c0.596-2.325,0.92-4.751,0.781-7.135c0.136-0.11,0.253-0.243,0.332-0.407
		c0.668-1.378,1.08-2.962,0.972-4.497c-0.02-0.282-0.059-0.543-0.117-0.784c-0.34-1.423-1.326-2.176-2.824-2.795
		c1.053-0.906,1.438-3.736-0.59-3.661c-0.813,0.03-1.457,0.297-1.927,0.98c-0.547,0.794-0.099,1.765,0.45,2.41
		c-0.479,0.006-0.964,0.054-1.45,0.14c-1.181,0.209-1.596,2.394-1.795,3.316c-0.383,1.775,0.135,3.602,0.899,5.208
		C297.917,402.023,298.065,402.195,298.232,402.32z"/>
	<path fill="#231F20" d="M303.249,396.854c0.053,2.505,0.817,4.76,1.783,7.047c0.322,0.76,0.978,0.912,1.567,0.701
		c0.636,0.052,1.285-0.258,1.491-1.06c0.596-2.325,0.92-4.751,0.781-7.135c0.136-0.11,0.253-0.243,0.332-0.407
		c0.668-1.378,1.08-2.962,0.972-4.497c-0.02-0.282-0.059-0.543-0.117-0.784c-0.34-1.423-1.326-2.176-2.824-2.795
		c1.053-0.906,1.438-3.736-0.59-3.661c-0.813,0.03-1.457,0.297-1.927,0.98c-0.547,0.794-0.099,1.765,0.45,2.41
		c-0.479,0.006-0.964,0.054-1.45,0.14c-1.181,0.209-1.596,2.394-1.795,3.316c-0.383,1.775,0.135,3.602,0.899,5.208
		C302.934,396.557,303.082,396.73,303.249,396.854z"/>
	<path fill="#231F20" d="M268.909,400.889c0.053,2.505,0.817,4.76,1.783,7.047c0.322,0.76,0.978,0.912,1.567,0.701
		c0.636,0.052,1.285-0.258,1.491-1.06c0.596-2.325,0.92-4.751,0.781-7.135c0.136-0.11,0.253-0.243,0.332-0.407
		c0.668-1.378,1.08-2.962,0.972-4.497c-0.02-0.282-0.059-0.543-0.117-0.784c-0.34-1.423-1.326-2.176-2.824-2.795
		c1.053-0.906,1.438-3.736-0.59-3.661c-0.813,0.03-1.457,0.297-1.927,0.98c-0.547,0.794-0.099,1.765,0.45,2.41
		c-0.479,0.006-0.964,0.054-1.45,0.14c-1.181,0.209-1.596,2.394-1.795,3.316c-0.383,1.775,0.135,3.602,0.899,5.208
		C268.594,400.591,268.743,400.764,268.909,400.889z"/>
</g>
<path fill="#231F20" d="M262.632,401.153l-8.724-7.53l0.073,6.032c-2.346-0.265-9.336-0.468-15.403,5.335l2.073,2.168
	c5.637-5.391,12.182-4.661,13.367-4.475l0.085,6.941L262.632,401.153z"/>
<g>
	<path fill="#231F20" d="M257.683,431.936c0.136-0.11,0.253-0.243,0.332-0.407c0.668-1.378,1.08-2.962,0.972-4.497
		c-0.02-0.282-0.059-0.543-0.117-0.784c-0.34-1.423-1.326-2.176-2.824-2.795c1.053-0.906,1.438-3.736-0.59-3.661
		c-0.813,0.03-1.457,0.297-1.927,0.98c-0.547,0.794-0.099,1.765,0.45,2.41c-0.479,0.006-0.964,0.054-1.45,0.14
		c-1.181,0.209-1.596,2.394-1.795,3.316c-0.383,1.775,0.135,3.602,0.899,5.208c0.114,0.239,0.262,0.412,0.429,0.537
		c0.053,2.505,0.817,4.76,1.783,7.047c0.322,0.76,0.978,0.912,1.567,0.701c0.636,0.052,1.285-0.258,1.491-1.06
		C257.499,436.746,257.823,434.32,257.683,431.936z"/>
	<path fill="#231F20" d="M348.737,427.033c-0.02-0.282-0.059-0.543-0.117-0.784c-0.34-1.423-1.326-2.176-2.824-2.795
		c1.053-0.906,1.438-3.736-0.59-3.661c-0.813,0.03-1.457,0.297-1.927,0.98c-0.547,0.794-0.099,1.765,0.45,2.41
		c-0.479,0.006-0.964,0.054-1.45,0.14c-1.181,0.209-1.596,2.394-1.795,3.316c-0.383,1.775,0.135,3.602,0.899,5.208
		c0.114,0.239,0.262,0.412,0.429,0.537c0.053,2.505,0.817,4.76,1.783,7.047c0.322,0.76,0.978,0.912,1.567,0.701
		c0.636,0.052,1.285-0.258,1.491-1.06c0.596-2.325,0.921-4.751,0.781-7.135c0.135-0.11,0.252-0.243,0.332-0.407
		C348.433,430.151,348.845,428.567,348.737,427.033z"/>
	<path fill="#231F20" d="M312.047,453.453c1.053-0.906,1.438-3.736-0.59-3.661c-0.813,0.03-1.457,0.297-1.927,0.98
		c-0.547,0.794-0.099,1.765,0.45,2.41c-0.479,0.006-0.964,0.054-1.45,0.14c-1.181,0.209-1.596,2.394-1.795,3.316
		c-0.383,1.775,0.135,3.602,0.899,5.208c0.114,0.239,0.262,0.412,0.429,0.537c0.053,2.505,0.817,4.76,1.783,7.047
		c0.322,0.76,0.978,0.912,1.567,0.701c0.636,0.052,1.285-0.258,1.491-1.06c0.596-2.325,0.921-4.751,0.781-7.135
		c0.135-0.11,0.252-0.243,0.332-0.407c0.668-1.378,1.08-2.962,0.972-4.497c-0.02-0.282-0.059-0.543-0.117-0.784
		C314.531,454.826,313.545,454.073,312.047,453.453z"/>
	<path fill="#231F20" d="M288.903,447.571c0.596-2.325,0.92-4.751,0.781-7.135c0.136-0.11,0.253-0.243,0.332-0.407
		c0.668-1.378,1.08-2.962,0.972-4.497c-0.02-0.282-0.059-0.543-0.117-0.784c-0.34-1.423-1.326-2.176-2.824-2.795
		c1.053-0.906,1.438-3.736-0.59-3.661c-0.813,0.03-1.457,0.297-1.927,0.98c-0.547,0.794-0.099,1.765,0.45,2.41
		c-0.479,0.006-0.964,0.054-1.45,0.14c-0.641,0.113-1.052,0.811-1.33,1.571c0.008-0.486,0.011-0.973-0.017-1.457
		c0.136-0.11,0.253-0.243,0.332-0.407c0.668-1.378,1.08-2.962,0.972-4.497c-0.02-0.282-0.059-0.543-0.117-0.784
		c-0.34-1.423-1.326-2.176-2.824-2.795c1.053-0.906,1.438-3.736-0.59-3.661c-0.813,0.03-1.457,0.297-1.927,0.98
		c-0.547,0.794-0.099,1.765,0.45,2.41c-0.479,0.006-0.964,0.054-1.45,0.14c-1.181,0.209-1.596,2.394-1.795,3.316
		c-0.383,1.775,0.135,3.602,0.899,5.208c0.114,0.239,0.262,0.412,0.429,0.537c0.053,2.505,0.817,4.76,1.783,7.047
		c0.322,0.76,0.978,0.912,1.567,0.701c0.636,0.052,1.285-0.258,1.491-1.06c0.122-0.477,0.225-0.961,0.323-1.445
		c0.168,0.942,0.5,1.863,0.908,2.72c0.114,0.239,0.262,0.412,0.429,0.537c0.007,0.31,0.024,0.616,0.052,0.919
		c-0.053-0.002-0.101-0.011-0.157-0.009c-0.813,0.03-1.457,0.297-1.927,0.98c-0.547,0.794-0.099,1.765,0.45,2.41
		c-0.479,0.006-0.964,0.054-1.45,0.14c-1.181,0.209-1.596,2.394-1.795,3.316c-0.383,1.775,0.135,3.602,0.899,5.208
		c0.114,0.239,0.262,0.412,0.429,0.537c0.053,2.505,0.817,4.76,1.783,7.047c0.322,0.76,0.978,0.912,1.567,0.701
		c0.636,0.052,1.285-0.258,1.491-1.06c0.596-2.325,0.921-4.751,0.781-7.135c0.135-0.11,0.252-0.243,0.332-0.407
		c0.668-1.378,1.08-2.962,0.972-4.497c-0.01-0.145-0.04-0.269-0.06-0.403C288.059,448.676,288.699,448.366,288.903,447.571z
		 M284.812,445.16c0.05,0.161,0.103,0.322,0.157,0.482c-0.137-0.064-0.275-0.127-0.422-0.188
		C284.642,445.372,284.729,445.27,284.812,445.16z"/>
	<path fill="#231F20" d="M275.047,433.703c1.053-0.906,1.438-3.736-0.59-3.661c-0.813,0.03-1.457,0.297-1.927,0.98
		c-0.547,0.794-0.099,1.765,0.45,2.41c-0.479,0.006-0.964,0.054-1.45,0.14c-0.516,0.091-0.88,0.567-1.15,1.143
		c0.074-0.927,0.107-1.856,0.053-2.779c0.136-0.11,0.253-0.243,0.332-0.407c0.668-1.378,1.08-2.962,0.972-4.497
		c-0.02-0.282-0.059-0.543-0.117-0.784c-0.34-1.423-1.326-2.176-2.824-2.795c1.053-0.906,1.438-3.736-0.59-3.661
		c-0.813,0.03-1.457,0.297-1.927,0.98c-0.547,0.794-0.099,1.765,0.45,2.41c-0.479,0.006-0.964,0.054-1.45,0.14
		c-1.181,0.209-1.596,2.394-1.795,3.316c-0.383,1.775,0.135,3.602,0.899,5.208c0.114,0.239,0.262,0.412,0.429,0.537
		c0.029,1.353,0.269,2.632,0.632,3.883c-0.138,0.018-0.276,0.032-0.414,0.057c-0.096,0.017-0.18,0.066-0.266,0.107
		c-0.491-0.505-1.15-0.888-1.968-1.226c1.053-0.906,1.438-3.736-0.59-3.661c-0.813,0.03-1.457,0.297-1.927,0.98
		c-0.547,0.794-0.099,1.765,0.45,2.41c-0.479,0.006-0.964,0.054-1.45,0.14c-1.181,0.209-1.596,2.394-1.795,3.316
		c-0.383,1.775,0.135,3.602,0.899,5.208c0.114,0.239,0.262,0.412,0.429,0.537c0.053,2.505,0.817,4.76,1.783,7.047
		c0.322,0.76,0.978,0.912,1.567,0.701c0.636,0.052,1.285-0.258,1.491-1.06c0.464-1.81,0.755-3.681,0.799-5.545
		c0.037,0.035,0.071,0.077,0.11,0.106c0.053,2.505,0.817,4.76,1.783,7.047c0.322,0.76,0.978,0.912,1.567,0.701
		c0.636,0.052,1.285-0.258,1.491-1.06c0.596-2.325,0.92-4.751,0.781-7.135c0.136-0.11,0.253-0.243,0.332-0.407
		c0.229-0.472,0.412-0.973,0.57-1.482c0.124,2.339,0.847,4.473,1.76,6.632c0.322,0.76,0.978,0.912,1.567,0.701
		c0.636,0.052,1.285-0.258,1.491-1.06c0.596-2.325,0.92-4.751,0.781-7.135c0.136-0.11,0.253-0.243,0.332-0.407
		c0.668-1.378,1.08-2.962,0.972-4.497c-0.02-0.282-0.059-0.543-0.117-0.784C277.531,435.076,276.545,434.323,275.047,433.703z"/>
	<path fill="#231F20" d="M316.737,436.783c-0.02-0.282-0.059-0.543-0.117-0.784c-0.34-1.423-1.326-2.176-2.824-2.795
		c1.053-0.906,1.438-3.736-0.59-3.661c-0.813,0.03-1.457,0.297-1.927,0.98c-0.547,0.794-0.099,1.765,0.45,2.41
		c-0.479,0.006-0.964,0.054-1.45,0.14c-0.488,0.086-0.84,0.515-1.105,1.048c0.038-0.729,0.051-1.458,0.008-2.183
		c0.136-0.11,0.253-0.243,0.332-0.407c0.668-1.378,1.08-2.962,0.972-4.497c-0.02-0.282-0.059-0.543-0.117-0.784
		c-0.34-1.423-1.326-2.176-2.824-2.795c1.053-0.906,1.438-3.736-0.59-3.661c-0.813,0.03-1.457,0.297-1.927,0.98
		c-0.547,0.794-0.099,1.765,0.45,2.41c-0.479,0.006-0.964,0.054-1.45,0.14c-1.181,0.209-1.596,2.394-1.795,3.316
		c-0.383,1.775,0.135,3.602,0.899,5.208c0.114,0.239,0.262,0.412,0.429,0.537c0.023,1.087,0.186,2.126,0.435,3.143
		c-0.073,0.081-0.151,0.151-0.218,0.247c-0.362,0.526-0.284,1.128-0.033,1.663c-0.504-0.639-1.247-1.089-2.199-1.482
		c1.053-0.906,1.438-3.736-0.59-3.661c-0.813,0.03-1.457,0.297-1.927,0.98c-0.547,0.794-0.099,1.765,0.45,2.41
		c-0.479,0.006-0.964,0.054-1.45,0.14c-0.183,0.032-0.342,0.125-0.491,0.24c-0.081-0.036-0.158-0.073-0.243-0.108
		c1.053-0.906,1.438-3.736-0.59-3.661c-0.094,0.003-0.179,0.022-0.268,0.032c-0.005-0.129,0.003-0.259-0.005-0.388
		c0.136-0.11,0.253-0.243,0.332-0.407c0.668-1.378,1.08-2.962,0.972-4.497c-0.02-0.282-0.059-0.543-0.117-0.784
		c-0.34-1.423-1.326-2.176-2.824-2.795c1.053-0.906,1.438-3.736-0.59-3.661c-0.813,0.03-1.457,0.297-1.927,0.98
		c-0.547,0.794-0.099,1.765,0.45,2.41c-0.479,0.006-0.964,0.054-1.45,0.14c-1.181,0.209-1.596,2.394-1.795,3.316
		c-0.383,1.775,0.135,3.602,0.899,5.208c0.114,0.239,0.262,0.412,0.429,0.537c0.045,2.113,0.598,4.047,1.349,5.974
		c-0.073,0.299-0.131,0.574-0.176,0.782c-0.383,1.775,0.135,3.602,0.899,5.208c0.114,0.239,0.262,0.412,0.429,0.537
		c0.001,0.07,0.009,0.138,0.012,0.208c-0.048-0.002-0.091-0.01-0.142-0.008c-0.813,0.03-1.457,0.297-1.927,0.98
		c-0.547,0.794-0.099,1.765,0.45,2.41c-0.479,0.006-0.964,0.054-1.45,0.14c-1.181,0.209-1.596,2.394-1.795,3.316
		c-0.383,1.775,0.135,3.602,0.899,5.208c0.114,0.239,0.262,0.412,0.429,0.537c0.053,2.505,0.817,4.76,1.783,7.047
		c0.322,0.76,0.978,0.912,1.567,0.701c0.636,0.052,1.285-0.258,1.491-1.06c0.596-2.325,0.921-4.751,0.781-7.135
		c0.135-0.11,0.252-0.243,0.332-0.407c0.624-1.288,1.006-2.753,0.969-4.192c0.621,0.033,1.243-0.274,1.444-1.057
		c0.146-0.57,0.275-1.147,0.386-1.727c0.117,0.338,0.241,0.676,0.372,1.013c-0.432,0.771-0.012,1.679,0.512,2.293
		c-0.479,0.006-0.964,0.054-1.45,0.14c-1.181,0.209-1.596,2.394-1.795,3.316c-0.383,1.775,0.135,3.602,0.899,5.208
		c0.114,0.239,0.262,0.412,0.429,0.537c0.053,2.505,0.817,4.76,1.783,7.047c0.322,0.76,0.978,0.912,1.567,0.701
		c0.636,0.052,1.285-0.258,1.491-1.06c0.596-2.325,0.921-4.751,0.781-7.135c0.135-0.11,0.252-0.243,0.332-0.407
		c0.668-1.378,1.08-2.962,0.972-4.497c-0.02-0.282-0.059-0.543-0.117-0.784c-0.34-1.423-1.326-2.176-2.824-2.795
		c0.408-0.352,0.714-0.992,0.819-1.641c0.03-0.072,0.073-0.127,0.094-0.209c0.109-0.423,0.197-0.853,0.286-1.282
		c0.324,1.409,0.827,2.769,1.406,4.14c0.322,0.76,0.978,0.912,1.567,0.701c0.636,0.052,1.285-0.258,1.491-1.06
		c0.596-2.325,0.921-4.751,0.781-7.135c0.135-0.11,0.252-0.243,0.332-0.407c0.668-1.378,1.08-2.962,0.972-4.497
		c-0.02-0.282-0.059-0.543-0.117-0.784c-0.166-0.695-0.489-1.229-0.948-1.667c0.099-0.141,0.179-0.311,0.23-0.511
		c0.023-0.09,0.039-0.182,0.061-0.272c0.163,0.968,0.501,1.916,0.92,2.796c0.114,0.239,0.262,0.412,0.429,0.537
		c0.053,2.505,0.817,4.76,1.783,7.047c0.322,0.76,0.978,0.912,1.567,0.701c0.636,0.052,1.285-0.258,1.491-1.06
		c0.596-2.325,0.921-4.751,0.781-7.135c0.135-0.11,0.252-0.243,0.332-0.407C316.433,439.901,316.845,438.317,316.737,436.783z
		 M304.23,438.182c-0.015,0-0.03,0.002-0.046,0.002c-0.024-0.056-0.052-0.107-0.078-0.161
		C304.147,438.077,304.187,438.132,304.23,438.182z M293.899,448.614c0.02,0.072,0.043,0.143,0.064,0.215
		c-0.065-0.028-0.125-0.058-0.192-0.085C293.816,448.705,293.857,448.659,293.899,448.614z"/>
	<path fill="#231F20" d="M338.297,434.953c1.053-0.906,1.438-3.736-0.59-3.661c-0.813,0.03-1.457,0.297-1.927,0.98
		c-0.547,0.794-0.099,1.765,0.45,2.41c-0.479,0.006-0.964,0.054-1.45,0.14c-0.059,0.01-0.108,0.046-0.163,0.066
		c0.086-0.985,0.124-1.971,0.066-2.951c0.135-0.11,0.252-0.243,0.332-0.407c0.668-1.378,1.08-2.962,0.972-4.497
		c-0.02-0.282-0.059-0.543-0.117-0.784c-0.34-1.423-1.326-2.176-2.824-2.795c1.053-0.906,1.438-3.736-0.59-3.661
		c-0.813,0.03-1.457,0.297-1.927,0.98c-0.547,0.794-0.099,1.765,0.45,2.41c-0.479,0.006-0.964,0.054-1.45,0.14
		c-1.181,0.209-1.596,2.394-1.795,3.316c-0.383,1.775,0.135,3.602,0.899,5.208c0.114,0.239,0.262,0.412,0.429,0.537
		c0.019,0.915,0.136,1.796,0.32,2.659c-0.475-0.439-1.092-0.78-1.835-1.087c1.053-0.906,1.438-3.736-0.59-3.661
		c-0.813,0.03-1.457,0.297-1.927,0.98c-0.547,0.794-0.099,1.765,0.45,2.41c-0.479,0.006-0.964,0.054-1.45,0.14
		c-1.181,0.209-1.596,2.394-1.795,3.316c-0.038,0.176-0.06,0.352-0.081,0.529c-0.182-0.082-0.4-0.126-0.66-0.122
		c0.367-1.85,0.549-3.741,0.44-5.608c0.135-0.11,0.252-0.243,0.332-0.407c0.668-1.378,1.08-2.962,0.972-4.497
		c-0.02-0.282-0.059-0.543-0.117-0.784c-0.34-1.423-1.326-2.176-2.824-2.795c1.053-0.906,1.438-3.736-0.59-3.661
		c-0.813,0.03-1.457,0.297-1.927,0.98c-0.547,0.794-0.099,1.765,0.45,2.41c-0.479,0.006-0.964,0.054-1.45,0.14
		c-1.181,0.209-1.596,2.394-1.795,3.316c-0.383,1.775,0.135,3.602,0.899,5.208c0.114,0.239,0.262,0.412,0.429,0.537
		c0.053,2.505,0.817,4.76,1.783,7.047c0.291,0.688,0.856,0.874,1.397,0.748c0.128,0.276,0.3,0.535,0.488,0.755
		c-0.479,0.006-0.964,0.054-1.45,0.14c-1.181,0.209-1.596,2.394-1.795,3.316c-0.383,1.775,0.135,3.602,0.899,5.208
		c0.114,0.239,0.262,0.412,0.429,0.537c0.053,2.505,0.817,4.76,1.783,7.047c0.322,0.76,0.978,0.912,1.567,0.701
		c0.275,0.023,0.546-0.038,0.789-0.161c0.157,0.996,0.502,1.971,0.932,2.875c0.114,0.239,0.262,0.412,0.429,0.537
		c0.053,2.505,0.817,4.76,1.783,7.047c0.322,0.76,0.978,0.912,1.567,0.701c0.636,0.052,1.285-0.258,1.491-1.06
		c0.596-2.325,0.921-4.751,0.781-7.135c0.135-0.11,0.252-0.243,0.332-0.407c0.668-1.378,1.08-2.962,0.972-4.497
		c-0.02-0.282-0.059-0.543-0.117-0.784c-0.34-1.423-1.326-2.176-2.824-2.795c0.605-0.521,0.986-1.675,0.819-2.55
		c0.01-0.031,0.029-0.05,0.037-0.083c0.596-2.325,0.921-4.751,0.781-7.135c0.135-0.11,0.252-0.243,0.332-0.407
		c0.524-1.082,0.88-2.289,0.961-3.5c0.119,0.3,0.242,0.6,0.369,0.9c0.322,0.76,0.978,0.912,1.567,0.701
		c0.163,0.013,0.327,0.001,0.484-0.036c0.101,0.947,0.39,1.879,0.767,2.758c-0.436,0.772-0.015,1.683,0.509,2.297
		c-0.479,0.006-0.964,0.054-1.45,0.14c-1.181,0.209-1.596,2.394-1.795,3.316c-0.383,1.775,0.135,3.602,0.899,5.208
		c0.114,0.239,0.262,0.412,0.429,0.537c0.053,2.505,0.817,4.76,1.783,7.047c0.322,0.76,0.978,0.912,1.567,0.701
		c0.636,0.052,1.285-0.258,1.491-1.06c0.596-2.325,0.921-4.751,0.781-7.135c0.135-0.11,0.252-0.243,0.332-0.407
		c0.416-0.858,0.712-1.797,0.866-2.753c0.024-0.061,0.061-0.105,0.078-0.174c0.596-2.325,0.921-4.751,0.781-7.135
		c0.135-0.11,0.252-0.243,0.332-0.407c0.668-1.378,1.08-2.962,0.972-4.497c-0.02-0.282-0.059-0.543-0.117-0.784
		C340.781,436.326,339.795,435.573,338.297,434.953z M322.477,440.662c0.092,0.301,0.197,0.598,0.313,0.89
		c-0.233-0.122-0.477-0.238-0.743-0.348C322.209,441.064,322.352,440.875,322.477,440.662z M324.03,452.072
		c-0.138,0.024-0.264,0.081-0.382,0.154c0.058-0.848,0.085-1.696,0.035-2.54c0.135-0.11,0.252-0.243,0.332-0.407
		c0.214-0.441,0.388-0.908,0.541-1.383c0.177,0.505,0.369,1.008,0.574,1.511c-0.032,0.042-0.07,0.07-0.102,0.115
		c-0.547,0.794-0.099,1.765,0.45,2.41C325,451.938,324.515,451.986,324.03,452.072z"/>
</g>
<path fill="#231F20" d="M239.855,409.856l0.269-0.649l-9.241-0.558l-5.25-1.382l-16.198,9.899l10.632,6.561l-0.817,1.379
	l6.163,0.406l-0.361,0.609l13.895,0.916l6.979-16.815L239.855,409.856z M221.103,420.841l-5.935-3.662l10.939-6.685l1.563,0.411
	l-5.402,9.111L221.103,420.841z M224.322,422.435l6.396-10.789l2.815,0.169l-6.405,10.805L224.322,422.435z M236.999,423.903
	l-6.875-0.453l6.396-10.79l5.02,0.303L236.999,423.903z"/>
<path fill="#231F20" d="M235.247,430.533l-1.54,11.421l5.012-3.358c1.06,2.109,4.71,8.075,12.884,9.985l0.683-2.92
	c-7.595-1.775-10.559-7.656-11.052-8.75l5.767-3.864L235.247,430.533z"/>
<path fill="#231F20" d="M309.538,402.594c0.053,2.505,0.817,4.76,1.783,7.047c0.322,0.76,0.978,0.912,1.567,0.701
	c0.636,0.052,1.285-0.258,1.491-1.06c0.596-2.325,0.92-4.751,0.781-7.135c0.136-0.11,0.253-0.243,0.332-0.407
	c0.668-1.378,1.08-2.962,0.972-4.497c-0.02-0.282-0.059-0.543-0.117-0.784c-0.34-1.423-1.326-2.176-2.824-2.795
	c1.053-0.906,1.438-3.736-0.59-3.661c-0.813,0.03-1.457,0.297-1.927,0.98c-0.547,0.794-0.099,1.765,0.45,2.41
	c-0.479,0.006-0.964,0.054-1.45,0.14c-1.181,0.209-1.596,2.394-1.795,3.316c-0.383,1.775,0.135,3.602,0.899,5.208
	C309.223,402.297,309.372,402.469,309.538,402.594z"/>
</svg>
