<?xml version="1.0" encoding="utf-8"?>
<!-- Generator: Adobe Illustrator 17.0.2, SVG Export Plug-In . SVG Version: 6.00 Build 0)  -->
<!DOCTYPE svg PUBLIC "-//W3C//DTD SVG 1.1//EN" "http://www.w3.org/Graphics/SVG/1.1/DTD/svg11.dtd">
<svg version="1.1" id="Layer_1" xmlns="http://www.w3.org/2000/svg" xmlns:xlink="http://www.w3.org/1999/xlink" x="0px" y="0px"
	 width="252px" height="252px" viewBox="180 270 252 252" enable-background="new 180 270 252 252" xml:space="preserve">
<path fill="#5F8792" d="M333.306,402.593c-9.427-3.223-20.255-5.061-31.776-5.061c-18.764,0-35.685,4.872-47.702,12.682l7.172,2.454
	L279.667,421l8.667-3.667l8.333-2.333l4.667,0.333l6.333,3.667l1.667,4.333l4.333,5l-0.667,8h-12L289.667,440L284,437l3.333-2.667
	l6.333-8l3-1.333l-10-1.333c0,0-3.667,3-6,3s-18,1-18,1L259,433.333l2.667,14l-12.667,11l-13.414-18.445
	c1.155,22.014,30.227,39.643,65.945,39.643c36.451,0,66-18.356,66-41c0-9.937-5.695-19.048-15.164-26.145
	C348.91,409.45,333.306,402.593,333.306,402.593z"/>
<path fill="#5F8792" d="M410.64,403.416c-1.669-2.231-3.803-3.803-6.402-4.713c2.902-2.34,4.354-5.188,4.354-8.547
	c0-3.357-1.104-6.143-3.314-8.353c-2.011-2.011-4.403-3.096-7.167-3.278v-9.263c0-0.875-0.709-1.584-1.584-1.584
	s-1.584,0.709-1.584,1.584v9.226h-7.8c-0.434,0-0.803,0.152-1.105,0.455c-0.304,0.304-0.455,0.672-0.455,1.105v42.38
	c0,0.434,0.141,0.802,0.423,1.105c0.281,0.304,0.639,0.455,1.072,0.455h7.865v7.576c0,0.875,0.709,1.584,1.584,1.584
	s1.584-0.709,1.584-1.584v-7.576h2.032c3.596,0,6.662-1.268,9.197-3.803s3.803-5.6,3.803-9.197
	C413.143,408.172,412.308,405.648,410.64,403.416z M403.036,384.078c1.581,1.604,2.372,3.521,2.372,5.752
	c0,2.232-0.791,4.139-2.372,5.72c-1.385,1.385-3.027,2.163-4.925,2.335V381.71C400.009,381.886,401.65,382.676,403.036,384.078z
	 M388.768,381.673h6.175v16.25h-6.175V381.673z M388.768,420.803v-19.63h6.175v19.63H388.768z M407.033,417.943
	c-1.907,1.907-4.204,2.86-6.89,2.86h-2.032v-19.63h2.032c2.686,0,4.982,0.965,6.89,2.893c1.906,1.929,2.882,4.236,2.925,6.922
	C409.914,413.718,408.939,416.037,407.033,417.943z"/>
<path fill="#231F20" d="M264.539,396.511c0.139-0.579,0.221-1.105,0.323-1.578h76.512v-75.102h-98.659v35.911
	c-5.927,5.683-7.828,13.96-13.006,20.239c-3.124,3.788-6.257,6.638-8.75,10.952c-1.739,3.008-4.202,4.452-6.767,6.634
	c-1.117,0.949-2.059,2.042-3.027,3.112c-3.836,2.649-5.152,6.29-6.055,10.838c-1.235,6.219-3.095,12.121-3.654,18.482
	c-0.593,6.742,0.501,13.607,0.873,20.334c0.401,7.247,0.69,14.595,0.765,21.853c0.015,1.433,1.664,1.802,2.51,1.111
	c0.147,0.052,0.297,0.1,0.466,0.12c7.217,0.847,14.41,0.163,21.623-0.392c6.596-0.507,13.045,0.206,19.591,0.148
	c2,0.17,3.95-0.096,5.623-0.895c6.571-1.142,13.431-5.251,19.101-7.728c7.522-3.287,13.136-7.165,16.75-14.534
	c0.971-1.98,3.864-2.509,3.124-5.202c-0.062-0.227-0.153-0.442-0.247-0.656c2.239-0.667,4.502-1.248,6.661-2.095
	c-0.001,0.058,0.008,0.12,0.013,0.18c0.262-0.141,0.523-0.285,0.785-0.427l5.37,14.931l36.377-1.879l-0.135-2.281l-19.195-32.216
	l-15.723,0.371c-0.296-0.289-0.585-0.591-0.864-0.914c-0.116-0.135-0.18-0.277-0.215-0.418c-1.096-0.641-2.227-1.156-3.251-1.511
	c-6.21-2.152-11.421,1.702-17.054,3.105c-2.901-1.845-7.605-1.344-10.832-1.428c-8.001-0.209-11.897-5.853-14.567-12.572
	c-0.408-1.027-0.902-1.887-1.501-2.606C260.629,401.048,263.604,400.409,264.539,396.511z M310.115,428.706
	c0.692,0.778,1.259,1.629,1.725,2.538c-3.206,0.173-5.863-0.776-9.14,0.86c-2.444,1.22-4.051,2.694-6.749,3.661
	c-2.039,0.731-4.177,1.206-6.248,1.856c-0.583-0.534-1.212-1.023-1.826-1.47c2.464-4.212,5.722-7.594,9.911-10.125
	c4.191-2.532,8.55-1.779,12.38,0.472C309.633,427.038,309.622,428.073,310.115,428.706z M288.896,418.538
	c3.249-1.493,6.118-1.992,9.66-2.008c3.017-0.014,5.186,1.743,7.274,3.687c-0.054-0.005-0.114-0.012-0.162-0.015
	c-2.947-0.183-7.808-2.079-10.32,0.211c-0.901,0.821-0.329,2.137,0.662,2.507c-1.129-0.422-6.336-0.048-8.733-0.611
	c-0.276-0.065-0.525-0.052-0.749,0.009c-0.139-0.902-0.196-1.834-0.389-2.695C287.068,419.327,287.958,418.969,288.896,418.538z
	 M261.532,432.45c8.58-0.817,17.717-1.391,25.745-4.564c0.922-0.364,1.51-1.557,0.768-2.382c1.494,0.247,2.969,0.35,4.492,0.361
	c-2.94,2.45-5.397,5.612-7.209,8.699c-1.138-0.496-2.369-0.678-3.567-0.091c-3.647,1.786-7.021,3.819-10.807,5.436
	c-3.172,1.354-5.624,3.833-8.638,5.463c-0.238-0.822-0.537-1.623-0.833-2.427C261.839,439.448,261.94,435.955,261.532,432.45z
	 M245.715,353.31v-7.096l8.602-6.06l7.518,7.001l4.493-9.626l4.668,10.27l5.161-9.651l5.586,19.43l9.084-20.304l6.427,3.767
	l3.703-3.497l9.956,17.746l5.197,13.23l3.213,6.592l-6,3.886l11.403,2.437l2.437-11.402l-5.306,3.437l-2.977-6.102l-5.213-13.27
	l-11.973-21.375l-4.864,4.593l-7.375-4.323l-7.097,15.865l-5.36-18.643l-5.784,10.814l-4.851-10.671l-5.502,11.791l-6.282-5.849
	l-8.864,6.245v-19.713h92.659v69.102H268.32c0.545-0.471,0.972-1.156,1.133-1.74c0.491-1.786,0.155-2.816,1.439-4.439
	c1.063-1.343,1.359-3.27,1.997-4.823c0.242-0.589,0.086-1.064-0.253-1.379c1.753-1.08,3.526-2.124,5.336-3.094
	c0.541-0.29,0.929-1.095,0.689-1.694c-3.377-8.429-8.427-14.709-15.52-20.31C257.338,349.872,251.424,349.494,245.715,353.31z
	 M253.975,395.854c0.728-1.646,1.608-3.042,3.225-4.562c1.968-1.85,4.138-3.553,6.23-5.26c1.931-1.575,3.954-3.038,6.024-4.433
	c-0.422,1.191-0.87,2.367-1.791,3.275c-0.577,0.568-1.076,1.321-1.292,2.105c-0.168,0.612,0.352,2.552-0.664,2.778
	c-0.824,0.184-1.676,0.36-2.306,0.99c-1.523,1.523-1.501,3.913-1.971,5.872C260.813,399.193,255.789,396.83,253.975,395.854z"/>
</svg>
