<?xml version="1.0" encoding="utf-8"?>
<!-- Generator: Adobe Illustrator 17.0.2, SVG Export Plug-In . SVG Version: 6.00 Build 0)  -->
<!DOCTYPE svg PUBLIC "-//W3C//DTD SVG 1.1//EN" "http://www.w3.org/Graphics/SVG/1.1/DTD/svg11.dtd">
<svg version="1.1" id="Layer_1" xmlns="http://www.w3.org/2000/svg" xmlns:xlink="http://www.w3.org/1999/xlink" x="0px" y="0px"
	 width="252px" height="252px" viewBox="180 270 252 252" enable-background="new 180 270 252 252" xml:space="preserve">
<path fill="#5A835F" d="M346.678,393.217c-3.191,0-6.326,0.149-9.396,0.421L337,399l-2.5,8.5l11.5,11l7.5,0.5l1-14.5L367,402
	l13.5,17.5l-2,11.5l10,5.5l8,3.5l-1.5,6.5l-8.189,20.257c15.722-7.494,25.868-19.279,25.868-32.541
	C412.678,411.573,383.129,393.217,346.678,393.217z"/>
<g>
	<path fill="#5A835F" d="M406.358,346.709c0-0.433,0.151-0.802,0.455-1.105c0.303-0.302,0.672-0.454,1.105-0.454
		s0.801,0.152,1.104,0.454c0.303,0.304,0.455,0.673,0.455,1.105v2.6c4.073,0.348,7.931,1.864,11.57,4.551
		c0.606,0.477,0.91,0.953,0.91,1.43c0,0.478-0.163,0.877-0.487,1.202c-0.325,0.325-0.716,0.487-1.171,0.487
		c-0.454,0-0.855-0.151-1.202-0.454c-3.033-2.427-6.283-3.836-9.75-4.226v18.2c4.94,1.04,8.515,2.524,10.725,4.452
		c2.211,1.929,3.315,4.55,3.315,7.865s-1.3,6.089-3.9,8.32c-2.6,2.232-5.937,3.412-10.01,3.542v5.07
		c0,0.433-0.152,0.801-0.455,1.104c-0.304,0.303-0.672,0.455-1.104,0.455c-0.434,0-0.803-0.152-1.105-0.455
		c-0.304-0.304-0.455-0.672-0.455-1.104v-5.135c-5.417-0.433-10.292-2.535-14.625-6.306c-0.477-0.39-0.715-0.822-0.715-1.3
		c0-0.477,0.163-0.877,0.487-1.202c0.325-0.325,0.716-0.487,1.17-0.487c0.455,0,0.834,0.152,1.138,0.455
		c3.727,3.467,7.951,5.438,12.675,5.914v-18.524c-4.854-1.083-8.363-2.578-10.529-4.485c-2.168-1.906-3.25-4.495-3.25-7.768
		c0-3.271,1.288-6.022,3.867-8.255c2.578-2.231,5.839-3.39,9.782-3.478L406.358,346.709L406.358,346.709z M398.916,354.639
		c-1.929,1.647-2.893,3.651-2.893,6.013s0.736,4.247,2.21,5.655c1.473,1.408,4.226,2.59,8.255,3.542v-17.745
		C403.369,352.147,400.843,352.992,398.916,354.639z M417.116,389.187c1.972-1.668,2.957-3.715,2.957-6.143
		c0-2.427-0.77-4.344-2.307-5.753c-1.539-1.407-4.346-2.567-8.418-3.478v17.94C412.554,391.711,415.143,390.855,417.116,389.187z"/>
</g>
<path fill="#231F20" d="M397.868,437.437c-1.264,0.107-2.523,0.224-3.781,0.345c-3.002-4.039-7.554-5.522-11.998-7.528
	c0-0.223,0-0.447,0-0.672c0.25-6.955,2.843-19.485-4.251-22.554c-0.05-0.238-0.096-0.475-0.159-0.712
	c-3.48-3.98-7.404-7.671-12.097-9.522c-0.013,0.046-0.032,0.089-0.044,0.136c-1.738-0.128-3.513-0.016-5.226,0.319
	c-3.243,0.634-7.124,2.466-9.894,5.115c-0.291-0.066-0.583-0.124-0.874-0.181c-0.968,1.372-1.319,3.043-2.062,4.62
	c-0.057,0.121-0.132,0.218-0.219,0.295c-0.22,0.647-0.375,1.314-0.432,2.006c-0.197,2.407,0.289,4.718,1.203,6.901
	c-0.272,0.18-0.498,0.421-0.661,0.707c-0.045-0.617-0.34-1.215-0.979-1.583c-4.191-2.416-6.78-6.045-9.311-9.812
	c1.721-2.451,2.496-5.608,2.862-8.751c0.796-6.832,0.443-13.687,1.286-20.522c0.81-6.57,0.909-13.093,0.466-19.562
	c0.15-0.509,0.094-1.051-0.112-1.526c-0.96-11.748-3.688-23.315-7.215-34.658c0.507-0.324,0.864-0.877,0.846-1.674
	c-0.11-4.81-1.266-9.481-1.921-14.197c0.407-2.986,0.397-5.998-0.375-9.121c-0.602-2.436-3.859-1.654-4.09,0.553
	c-0.303,2.897-0.095,5.728,0.294,8.539c-0.29,1.858-0.763,3.702-1.294,5.553c-0.135,0.119-0.266,0.248-0.381,0.404
	c-7.684,10.479-9.478,24.083-10.406,36.7c-0.252,3.431-0.391,6.867-0.482,10.306c-0.556,0.76-0.645,1.87-0.056,2.598
	c-0.169,8.414-0.14,16.837-0.773,25.225h0.003c-2.871,0.403-5.704,1.867-6.654,4.789c-0.594,1.829-0.623,3.746-0.533,5.67
	c-5.493,0.239-10.964-0.164-16.391,0.954c-0.862,0.178-1.578,1.135-1.529,2.008c0.124,2.195,0.568,4.368,1.113,6.534
	c-0.047,0.009-0.094,0.014-0.141,0.023c-3.243,0.634-7.124,2.466-9.894,5.115c-0.291-0.066-0.582-0.124-0.874-0.181
	c-0.248,0.351-0.455,0.722-0.638,1.106c-1.933-2.281-4.742-3.701-6.848-5.806c-0.26-0.26-0.539-0.422-0.823-0.516
	c0.671-1.052,1.233-2.258,1.666-3.679c1.941-6.375-0.043-11.245-6.108-14.249c-5.241-2.596-11.694-2.103-14.589,3.453
	c-0.893,1.713-1.28,3.634-1.263,5.583c-4.3,0.033-8.559,0.284-12.704,1.508c-1.101,0.325-1.742,1.447-1.454,2.562
	c2.111,8.177,8.572,15.437,8.367,24.115c-1.233,0.121-2.467,0.241-3.701,0.359c1.616-2.951,1.114-7.59,0.219-10.328
	c-0.694-2.124-2.079-4.401-4.414-4.928c-0.205-0.046-0.406-0.075-0.604-0.092c0.434-1.344,0.476-2.811,0.03-4.12
	c-0.821-2.407-2.962-3.997-5.342-4.635c0.251-1.19,0.297-2.466,0.381-3.527c0.192-2.432,0.186-4.916-0.189-7.329
	c-0.853-5.498-6.921-7.994-11.815-7.006c-2.888,0.583-5.259,2.846-6.525,5.406c-1.384,2.8-0.934,6.099-0.909,9.145
	c-6.984,1.363-14.234,0.215-21.108,2.353c-1.211,0.377-2.028,1.907-1.244,3.059c4.804,7.064,4.927,16.036,5.284,24.277
	c0.025,0.571,0.241,1.013,0.553,1.341c-1.635,0.22-3.267,0.459-4.896,0.749c-2.641,0.471-1.518,4.483,1.107,4.016
	c5.665-1.01,11.381-1.504,17.11-1.87c2.875,0.372,6.086-0.007,8.384-0.097c3.695-0.144,7.269-0.294,10.763-0.869
	c-0.111,0.207-0.183,0.429-0.218,0.66c-0.432,0.229-0.782,0.636-0.934,1.265c-0.381,1.575-0.662,3.075-0.793,4.685
	c-0.07,0.865,0.682,1.84,1.529,2.008c10.431,2.071,21.274,1.071,31.645-0.898c1.322-0.251,1.904-1.977,1.244-3.059
	c-1.947-3.192-4.454-5.98-7.753-7.27c8.497-0.922,16.991-1.864,25.501-2.609c1.536,3.191,3.94,6.085,6.391,8.57
	c-0.444,0.878-0.323,1.97,0.834,2.509c1.583,0.737,3.191,1.286,4.803,1.639c-0.873,4.509-8.275,4.89-11.875,5.528
	c-4.242,0.752-10.03,1.615-12.561,5.62c-1.56,2.471-1.787,5.352-2.014,8.197c-0.385,4.814-1.979,8.797-3.681,13.276
	c-1.581,4.162-5.788,13.984-1.904,17.911c1.674,1.693,5.019,2.736,7.234,3.556c2.7,0.999,5.379,0.269,7.646-1.322
	c0.196-0.137,0.37-0.29,0.555-0.434c0.257,1.666,2.786,2.652,3.868,0.788c3.134-5.404,3.652-11.59,4.792-17.614
	c0.633-3.345,1.714-6.402,3.408-9.359c1.61-2.809,3.545-5.35,4.601-8.443c0.332-0.972,0.65-1.831,1.234-2.681
	c0.415-0.096,0.83-0.193,1.246-0.286c3.836-0.876,7.771-0.889,11.685-0.928c6.696-0.065,13.276-0.92,19.915-1.573
	c-5.4,11.881-16.125,25.057-7.366,37.65c1.521,2.188,5.133,0.109,3.596-2.102c-8.37-12.035,4.831-26.158,9.012-37.376
	c0.452-1.211-0.725-2.744-2.008-2.636c-1.264,0.107-2.523,0.224-3.781,0.345c-3.107-4.18-7.875-5.621-12.466-7.74
	c-0.043-0.24-0.126-0.486-0.278-0.735c-1.115-1.836-2.322-3.605-3.343-5.497c-1.423-2.639-0.721-5.648-0.281-8.429
	c0.003-0.019,0.005-0.038,0.009-0.058c8.797-0.411,17.584-1.039,26.397-1.076c4.094-0.017,8.216-0.531,12.335-0.937
	c0.403,2.541,0.777,5.14,2.071,7.324c0.852,1.438,2.012,2.128,3.292,2.341c0.42-0.531,1.509-0.328,1.492,0.544
	c-0.059,3.183-2.085,5.234-5.151,5.754c-5.914,9.644-14.219,17.627-19.98,27.394c-1.807,4.765-4.306,12.297-1.022,15.617
	c1.674,1.693,5.019,2.736,7.234,3.556c2.7,0.999,5.379,0.269,7.646-1.322c0.196-0.137,0.37-0.29,0.555-0.434
	c0.257,1.666,2.786,2.652,3.868,0.788c3.134-5.404,3.652-11.59,4.792-17.614c0.633-3.345,1.714-6.402,3.408-9.359
	c1.61-2.809,3.545-5.35,4.601-8.443c0.332-0.972,0.65-1.831,1.234-2.681c0.415-0.096,0.83-0.193,1.246-0.286
	c3.836-0.876,7.771-0.889,11.685-0.928c6.696-0.065,13.276-0.92,19.915-1.573c-5.4,11.881-16.125,25.057-7.366,37.65
	c1.521,2.188,5.133,0.109,3.596-2.102c-8.37-12.035,4.831-26.158,9.012-37.376C400.327,438.861,399.151,437.329,397.868,437.437z
	 M204.281,427.354c-1.261,0.111-2.52,0.235-3.779,0.373c0.115-0.261,0.178-0.565,0.162-0.92c-0.349-8.044-0.599-16.745-4.433-23.991
	c4.238-0.842,8.609-0.746,12.939-1.021c-3.461,3.467-7.216,7.441-7.71,12.261C201.017,418.385,202.039,423.524,204.281,427.354z
	 M217.732,397.451c0.008-3.973-0.874-8.859,3.702-10.669c3.152-1.247,7.023,0.756,7.408,4.214c0.32,2.878,0.237,6.112-0.423,8.934
	c-0.624,2.667-7.565-1.706-8.845-2.404C218.906,397.161,218.263,397.196,217.732,397.451z M226.983,410.834
	c-2.12-2.638-3.972-5.515-6.279-7.951c2.149,1.103,4.53,2.078,6.723,1.99c0.156,1.974,0.858,4.63,2.118,6.468
	C228.755,411.005,227.862,410.918,226.983,410.834z M235.229,415.463c0.486-0.673,1.035-1.369,1.722-1.846
	c0.259-0.18,0.424-0.237,0.661-0.298c0.005,0.002,0.009,0.006,0.014,0.008c-0.007,0.021,0.046,0.041,0.07,0.043
	c0.776,0.471,1.227,1.789,1.511,2.836c0.222,0.817,0.332,1.654,0.37,2.495c-0.112-0.126-0.232-0.251-0.362-0.373
	c-0.845-0.795-1.874-0.694-2.614-0.178c-0.516-0.814-1.069-1.603-1.676-2.343C235.033,415.707,235.135,415.594,235.229,415.463z
	 M256.668,434.311c-8.119,1.363-16.579,1.999-24.707,0.682c0.11-0.634,0.248-1.263,0.425-1.884c0.012-0.051,0.012-0.097,0.021-0.147
	c4.152-1.216,8.459-1.544,12.765-1.814c2.157-0.135,4.543-0.522,6.689-0.184C253.799,431.269,255.396,432.704,256.668,434.311z
	 M250.012,413.333c-0.109,3.003,0.49,7.676,2.365,10.25c-0.591,0.059-1.183,0.117-1.774,0.176
	c0.032-8.301-5.323-15.123-7.897-22.764c3.21-0.685,6.458-0.828,9.767-0.847c0.131-0.001,0.249-0.019,0.367-0.038
	c0.514,1.816,1.325,3.543,2.354,5.019C252.581,407.57,250.162,409.188,250.012,413.333z M259.693,395.024
	c-0.863,0.17-1.604,0.821-1.578,1.964c0.039,1.739,0.326,3.468,0.518,5.194c0.027,0.242,0.063,0.511,0.1,0.791
	c-2.026-2.551-2.626-6.09-2.02-9.237c1.016-5.273,6.53-4.544,10.2-2.726c2.276,1.127,3.334,2.549,3.679,4.197
	c-2.996-0.744-6.024-1.17-9.138-1.2C260.582,393.999,259.999,394.435,259.693,395.024z M262.362,398.212
	c2.719,0.102,5.338,0.522,7.964,1.226c-0.132,0.543-0.287,1.098-0.461,1.666c-1.021,3.353-3.709,4.43-6.772,5.024
	C263.307,403.562,262.61,400.683,262.362,398.212z M275.483,421.327c-2.378-4.48-5.418-8.384-8.992-11.811
	c1.312-0.452,2.457-1.059,3.465-1.823c0.1,0.223,0.239,0.442,0.445,0.647c1.806,1.805,3.982,3.128,5.899,4.802
	c1.086,0.949,1.622,2.061,1.914,3.257c-0.034,0.205-0.077,0.408-0.094,0.618c-0.113,1.381,0.009,2.729,0.297,4.041
	C277.438,421.145,276.461,421.238,275.483,421.327z M334.609,401.678c-0.512-0.723-1.039-1.438-1.595-2.138
	c-0.455-0.573-0.93-1.045-1.413-1.437c1.817-1.238,3.375-2.771,4.573-4.594C336.072,396.292,335.724,399.363,334.609,401.678z
	 M336.367,385.435c-0.846-0.034-1.671,0.404-1.91,1.487c-0.869,3.935-3.196,6.822-6.54,8.58c-0.709-1.747-1.073-3.616-1.732-5.385
	c5.209-2.511,8.198-8.347,10.96-13.711C336.851,379.41,336.541,382.409,336.367,385.435z M337.762,368.25
	c-0.541,0.072-1.061,0.364-1.429,0.961c-3.347,5.422-6.096,14.763-12.542,17.39c-0.624-0.457-1.331-0.789-2.08-1.031
	c5.532-8.628,8.418-18.609,16.039-25.507C337.858,362.779,337.871,365.507,337.762,368.25z M326.79,337.284
	c-0.032-0.261-0.059-0.522-0.077-0.784c1.264,0.635,2.608,1.09,4.037,1.298c-0.385,2.704-0.929,5.626-1.706,8.349
	c0.424-2.307,0.595-4.675,0.619-6.978C329.679,337.576,328.123,336.841,326.79,337.284z M329.107,325.842v-1.996
	c0.245,0.008,0.49,0.027,0.728,0.076c0.045,0.009,0.575,0.203,0.48,0.13c0.126,0.098,0.22,0.285,0.189,0.197
	c0.104,0.299-0.004,0.683-0.178,1.213c-0.253,0.768-0.812,1.487-1.334,2.108c-0.17-0.083-0.343-0.161-0.52-0.235
	C328.853,327,329.107,326.503,329.107,325.842z M329.201,333.11c-1.302-0.545-2.493-1.382-3.586-2.312
	C327.223,331.184,328.469,331.907,329.201,333.11z M324.943,324.692v1.15c0,0.299,0.058,0.558,0.15,0.79
	c-0.324,0.068-0.616,0.201-0.862,0.391C324.451,326.239,324.691,325.463,324.943,324.692z M325.3,343.028
	c-0.211,2.129-0.622,4.249-1.385,6.207c-0.961-1.034-2.292-2.832-1.486-3.635C323.351,344.682,324.293,343.81,325.3,343.028z
	 M322.576,334.506c0.251,1.351,0.064,3.016,0.22,4.105c0.05,0.351,0.168,0.632,0.327,0.856c-0.462,0.348-0.92,0.707-1.373,1.083
	C321.967,338.533,322.237,336.513,322.576,334.506z M320.927,352.176c0.231,0.231,0.468,0.46,0.738,0.68
	c0.05,0.04,0.102,0.066,0.153,0.101c-0.296,0.378-0.619,0.739-0.964,1.088C320.876,353.422,320.902,352.799,320.927,352.176z
	 M320.673,360.941c9.128-0.251,12.71-12.667,14.18-22.733c1.2,5.535,2.084,11.125,2.57,16.772
	c-4.623,3.409-8.178,7.535-10.944,12.662c-2.202,4.08-4.05,8.261-6.258,12.28C320.522,373.605,320.558,367.271,320.673,360.941z
	 M318.286,389.178c5.087-0.065,4.724,6.224,6.643,9.724c-0.385,0.564-0.725,1.23-0.995,2.023c-0.069,0.202-0.096,0.396-0.098,0.582
	c-1.623,3.116-7.589-0.376-9.776-1.647c-0.394-0.229-0.779-0.307-1.14-0.286c-0.04-2.041-0.234-4.075-0.225-6.118
	C312.71,389.957,315.108,389.219,318.286,389.178z M304.826,409.936c-2.406-2.208-5.031-4.076-7.956-5.229
	c-0.013,0.046-0.032,0.089-0.044,0.136c-0.354-0.026-0.709-0.035-1.065-0.042c-0.341-1.472-0.634-2.959-0.813-4.474
	c4.567-0.662,9.204-0.317,13.812-0.527c0.005,0.261,0.015,0.523,0.012,0.781c-0.01,0.811,0.366,1.372,0.892,1.693
	C307.629,404.426,305.136,407.202,304.826,409.936z M309.453,419.07c0.031-0.907,0.01-1.808-0.091-2.705
	c1.472,1.019,3.078,1.907,4.752,2.531C312.559,418.949,311.007,419.013,309.453,419.07z M319.102,407.303
	c-0.686,0.136-1.19,0.433-1.588,0.822c-0.234-0.885-0.564-1.724-1.021-2.504c3.699,1.388,7.85,1.954,10.168-0.709
	c0.074,0.056,0.14,0.119,0.213,0.176c0.208,1.07,0.532,2.021,0.92,2.912c0.079,0.489,0.127,0.984,0.144,1.484
	c-0.487-0.115-0.973-0.171-1.467-0.156c-0.333-0.356-0.746-0.671-1.254-0.928C323.546,407.554,320.971,406.931,319.102,407.303z"/>
</svg>
