<?xml version="1.0" encoding="utf-8"?>
<!-- Generator: Adobe Illustrator 17.0.2, SVG Export Plug-In . SVG Version: 6.00 Build 0)  -->
<!DOCTYPE svg PUBLIC "-//W3C//DTD SVG 1.1//EN" "http://www.w3.org/Graphics/SVG/1.1/DTD/svg11.dtd">
<svg version="1.1" id="Layer_1" xmlns="http://www.w3.org/2000/svg" xmlns:xlink="http://www.w3.org/1999/xlink" x="0px" y="0px"
	 width="612px" height="792px" viewBox="0 0 612 792" enable-background="new 0 0 612 792" xml:space="preserve">
<g>
	<path fill="#A29352" d="M302.06,419.967c-2.282-1.415-4.732-2.725-7.326-3.922l2.766,6.455L302.06,419.967z"/>
	<path fill="#A29352" d="M305.591,422.351l-0.091,0.483l-3.667,6.333l7,2.333l4.333,4.667l-2.667,1.667l-4,1.667l-6.333-1.333
		l-45,16.667l-4.333-2l-1-3.333l-3,1.667l-13.667-4.667l-21-8l-3-4.667l1-6l3.538-10.615c-14.813,7.518-24.275,18.953-24.275,31.763
		c0,22.644,29.549,41,66,41s66-18.356,66-41C321.43,438.813,315.458,429.516,305.591,422.351z"/>
</g>
<g>
	<path fill="#221F1F" d="M314.634,435.764c-1.807-3.541-5.903-7.342-10.14-8.134c2.057-2.694,3.591-6.055,4.399-10.35
		c0.188-1-0.682-2.3-1.845-1.845c-2.767,1.083-7.057,1.697-9.517,3.676l-10.009-39.618c-1.151-4.553-5.664-7.376-10.22-6.511
		c-0.833-0.81-1.832-1.473-2.985-1.914l-30.298-11.577c-1.015-0.388-2.076-0.584-3.155-0.584c-3.642,0-6.962,2.286-8.262,5.689
		l-24.413,63.891c-0.843,2.207-0.776,4.609,0.188,6.766c0.964,2.156,2.71,3.808,4.917,4.651l30.299,11.577
		c1.015,0.388,2.076,0.584,3.155,0.584c0.681,0,1.348-0.086,1.993-0.239c0.189,0.386,0.397,0.761,0.644,1.114
		c1.311,1.878,3.465,2.795,5.529,3.596c0.14,0.054,0.272,0.081,0.399,0.094l0.367,1.453c0.579,2.29,2.015,4.218,4.043,5.429
		c2.028,1.21,4.407,1.558,6.697,0.979l31.447-7.945c1.053-0.266,2.035-0.715,2.918-1.336c2.98-2.093,4.382-5.873,3.49-9.404
		l-1.628-6.444c1.641,0.947,3.335,2.623,5.199,1.997c1.062-0.357,1.668-0.972,2.28-1.895c0.506-0.764,0.427-1.013,1.517-1.154
		c0.712-0.092,1.401-0.149,2.095-0.344C314.711,437.695,315.073,436.623,314.634,435.764z M277.517,375.995
		c3.123-0.789,6.307,1.11,7.096,4.233l10.616,42.021c-0.05,0.118-0.102,0.225-0.152,0.35c-1.353,3.402-3.976,4.594-6.955,6.199
		c-3.69,1.988-7.113,1.269-11.082,2.297c-4.964,1.285-9.153,4.578-14.06,5.965c-2.819,0.797-5.909,1.53-8.985,2.101l-12.158-48.126
		c-0.589-2.334,0.337-4.831,2.306-6.214c0.582-0.409,1.231-0.706,1.929-0.882L277.517,375.995z M249.53,433.739
		c-0.047,0.039-0.082,0.09-0.137,0.122c-0.267,0.157-0.532,0.187-0.831,0.097c-0.3-0.09-0.501-0.263-0.634-0.545
		c-0.141-0.296-0.16-0.602-0.061-0.933c0.1-0.333,0.292-0.582,0.586-0.76c0.179-0.109,0.353-0.145,0.529-0.147L249.53,433.739z
		 M245.318,417.069l-0.732-0.221l0.368-1.221L245.318,417.069z M246.748,449.065c-0.712,0-1.413-0.13-2.085-0.387l-30.299-11.577
		c-1.458-0.557-2.611-1.648-3.249-3.073c-0.637-1.425-0.681-3.012-0.123-4.47l24.413-63.892c0.859-2.249,3.053-3.759,5.459-3.759
		c0.711,0,1.413,0.13,2.085,0.387l30.298,11.577c0.051,0.02,0.093,0.051,0.143,0.072l-19.508,4.928
		c0.021-0.029,0.034-0.053,0.056-0.083c0.492-0.655,0.106-1.675-0.538-2.052c-0.674-0.395-1.369-0.184-1.861,0.316
		c-0.088-0.737-0.727-1.325-1.482-1.325c-0.82,0-1.496,0.683-1.5,1.5c-0.003,0.667-0.019,1.334-0.01,2.001
		c-0.072-0.279-0.129-0.552-0.15-0.795c-0.072-0.814-0.628-1.5-1.5-1.5c-0.764,0-1.572,0.684-1.5,1.5
		c0.034,0.39,0.103,0.767,0.179,1.143c-0.101-0.137-0.202-0.276-0.319-0.422c-0.511-0.64-1.592-0.53-2.121,0
		c-0.534,0.534-0.525,1.235-0.195,1.826c-0.547-0.232-1.183-0.16-1.644,0.3c-0.539,0.539-0.604,1.525-0.039,2.077
		c-2.163,2.173-3.097,5.381-2.331,8.413l4.916,19.457l-1.828,6.071c-0.091,0.304-0.061,0.611,0.088,0.885
		c0.106,0.197,0.256,0.351,0.445,0.457c0.075,0.042,0.157,0.077,0.243,0.103l3.193,0.962l2.43,9.619
		c-0.372,0.068-0.738,0.19-1.094,0.396c-0.819,0.473-1.374,1.177-1.65,2.091c-0.275,0.919-0.198,1.804,0.226,2.621
		c0.19,0.39,0.431,0.723,0.72,0.996c-0.265,0.031-0.504,0.152-0.696,0.355c-0.211,0.223-0.319,0.506-0.314,0.822
		c0.009,0.321,0.139,0.6,0.356,0.79c0.195,0.19,0.414,0.353,0.65,0.485c0.208,0.117,0.435,0.213,0.673,0.285
		c0.888,0.268,1.754,0.18,2.574-0.261c0.228-0.123,0.43-0.267,0.616-0.425l0.551,2.18c-1.177,0.175-2.341,0.324-3.471,0.432
		c-2.325,0.223-5.347-0.247-6.4,2.302c-0.805,1.948,2.777,3.881,3.908,4.596c0.864,0.546,1.649,0.905,2.399,1.149
		c0.08,0.276,0.16,0.555,0.242,0.834C247.391,449.028,247.073,449.065,246.748,449.065z M308.06,437.097
		c-0.175,0.278-0.687,1.395-1.124,1.311c-0.546-0.104-1.17-0.644-1.622-0.944c-0.956-0.635-1.89-1.192-3.003-1.497
		c-0.191-0.052-0.367-0.061-0.534-0.049l-1.02-4.037c-0.408-0.329-0.775-0.698-1.082-1.148c-0.587-0.861-1.529-0.674-2.447-0.572
		l0.025,0.099c-11.076,7.708-29.536,7.105-41.211,14.578c-0.039,0-0.08,0.001-0.119,0.002c-0.645,0.603-1.619,0.894-2.636,0.935
		c0.187,1.107,0.138,2.381,0.109,3.265l1.03,4.075c-1.005-0.448-1.98-1.017-2.6-1.905c-0.126-0.18-0.238-0.37-0.342-0.565
		c0.006-0.004,0.011-0.009,0.017-0.012c-1.248-1.526-1.242-3.502-1.454-5.365c-1.461-0.111-2.913-0.519-4.484-1.512
		c-3-1.896,0.748-0.587,1.994-0.665c1.091-0.068,2.173-0.223,3.251-0.402c0.101-0.078,0.216-0.146,0.366-0.183
		c1.418-0.354,2.835-0.697,4.285-0.893c0.172-0.023,0.344,0.004,0.508,0.053c2.602-0.573,5.202-1.191,7.812-1.714
		c3.58-0.718,6.896-2.995,10.172-4.505c3.757-1.731,6.943-1.803,10.944-2.023c2.68-0.147,5.159-2.285,7.445-3.457
		c0.959-0.492,1.79-1.085,2.53-1.763c0.031-0.09,0.073-0.18,0.139-0.271c0.739-1.015,1.674-3.95,3.071-5.104
		c0.627-0.732,1.425-1.182,2.306-1.487c1.448-0.974,3.147-1.543,4.931-2.13c-0.954,3.131-2.436,5.664-4.31,7.751
		c-0.039,0.093-0.091,0.181-0.122,0.278c-0.305,0.944,0.745,2.324,1.53,3.23c0.026-0.003,0.05-0.001,0.076-0.005
		c2.953-0.491,6.391,2.34,8.394,4.993C309.783,435.657,308.772,435.967,308.06,437.097z"/>
	<path fill="#221F1F" d="M266.612,394.371c3.451,1.154,1.759,6.125,1.811,8.675c0.029,1.455,1.803,1.663,2.653,0.829
		c1.189-1.167,1.386-3.105,1.476-4.679c0.135-2.358-0.481-4.093-2.067-5.873c-0.22-0.247-0.477-0.395-0.743-0.472
		c-0.509-0.529-1.124-0.955-1.881-1.208C266.048,391.036,264.774,393.756,266.612,394.371z"/>
	<path fill="#221F1F" d="M259.158,402.083c-0.373,0.193-0.748,0.396-1.092,0.659c-0.65,0.497-0.849,1.402-0.365,2.091
		c0.447,0.636,1.397,0.848,2.047,0.39c-0.189,0.461-0.153,1.007,0.149,1.437c0.47,0.669,1.421,0.835,2.09,0.365l0.693-0.487
		c-0.034,0.454,0.124,0.907,0.523,1.236c0.595,0.491,1.64,0.465,2.112-0.204c0.19-0.269,0.352-0.555,0.517-0.839
		c0.033,0.11,0.064,0.22,0.1,0.328c0.253,0.777,1.165,1.177,1.918,0.908c0.786-0.282,1.161-1.141,0.908-1.918
		c-0.199-0.609-0.265-0.842-0.25-1.493c0.019-0.819-0.871-1.432-1.62-1.37c-0.311,0.026-0.568,0.137-0.775,0.302
		c-0.497-0.281-1.059-0.231-1.526,0.054c-0.024-0.042-0.043-0.086-0.071-0.127c-0.42-0.598-1.222-0.79-1.866-0.49
		c0.063-0.382-0.016-0.789-0.246-1.116c-0.364-0.519-0.992-0.721-1.571-0.587c0.274-0.38,0.392-0.857,0.218-1.346
		c-0.044-0.122-0.109-0.233-0.184-0.338c0.18-0.194,0.311-0.438,0.363-0.735c0.058-0.328-0.016-0.679-0.177-0.981
		c0.186-0.087,0.359-0.215,0.508-0.395c0.38-0.46,0.449-1.209,0.138-1.735c0.383,0.085,0.793,0.023,1.153-0.231
		c0.21-0.147,0.37-0.356,0.481-0.59c0.412,0.077,0.861-0.002,1.189-0.232c0.716-0.503,0.771-1.38,0.365-2.09
		c-0.024-0.042-0.038-0.066-0.053-0.09c-0.01-0.027-0.027-0.066-0.058-0.137c-0.068-0.151-0.119-0.31-0.17-0.467
		c-0.052-0.162-0.073-0.42-0.063-0.738c0.026-0.819-0.876-1.431-1.62-1.37c-0.778,0.064-1.226,0.637-1.341,1.328
		c-0.495-0.553-1.357-0.666-1.975-0.232c-0.671,0.472-0.832,1.419-0.365,2.09c0.381,0.548,0.752,1.103,1.143,1.643
		c-0.219-0.187-0.423-0.377-0.58-0.564c-0.527-0.625-1.376-0.866-2.09-0.365c-0.625,0.439-0.893,1.463-0.365,2.09
		c0.252,0.299,0.525,0.568,0.803,0.832c-0.161-0.055-0.324-0.109-0.503-0.162c-0.786-0.23-1.607,0.482-1.736,1.22
		c-0.13,0.744,0.281,1.312,0.89,1.606c-0.581,0.125-1.06,0.549-1.172,1.19c-0.135,0.769,0.407,1.643,1.22,1.736
		C257.627,402.247,258.404,402.237,259.158,402.083z"/>
	<path fill="#221F1F" d="M262.9,434.015c1.098-0.245,2.017-0.808,2.72-1.66c0.161-0.179,0.255-0.382,0.283-0.603l0.002-0.021
		c0.025-0.143,0.021-0.288-0.011-0.431l-0.576-2.587c-0.07-0.322-0.255-0.58-0.538-0.748c-0.272-0.16-0.578-0.207-0.884-0.138
		l-2.332,0.519c-0.314,0.07-0.57,0.246-0.742,0.508c-0.175,0.268-0.23,0.575-0.16,0.888c0.07,0.312,0.251,0.57,0.523,0.743
		c0.274,0.175,0.588,0.23,0.891,0.162l1.187-0.264l0.183,0.82c-0.327,0.251-0.676,0.416-1.062,0.501
		c-0.689,0.153-1.316,0.051-1.922-0.315c-0.598-0.36-0.96-0.857-1.108-1.521c-0.147-0.665-0.032-1.27,0.353-1.849
		c0.39-0.586,0.885-0.939,1.514-1.08c0.639-0.142,1.236-0.087,1.765,0.16c0.292,0.143,0.613,0.16,0.921,0.049
		c0.309-0.111,0.542-0.323,0.674-0.611c0.133-0.287,0.145-0.6,0.037-0.903c-0.11-0.311-0.327-0.546-0.612-0.672
		c-1.005-0.483-2.088-0.603-3.199-0.356c-1.32,0.294-2.36,1.011-3.092,2.131c-0.732,1.124-0.958,2.354-0.668,3.656
		c0.291,1.304,1.017,2.319,2.156,3.017c0.796,0.488,1.653,0.736,2.547,0.736C262.123,434.146,262.511,434.102,262.9,434.015z"/>
	<path fill="#221F1F" d="M274.981,429.851c0.671-1.112,0.868-2.317,0.587-3.582c-0.281-1.261-0.964-2.274-2.031-3.012
		c-1.074-0.742-2.266-0.98-3.513-0.704c-1.251,0.278-2.222,0.987-2.885,2.107c-0.657,1.108-0.847,2.319-0.562,3.599
		c0.284,1.278,0.969,2.294,2.035,3.02c0.774,0.528,1.614,0.796,2.496,0.796c0.337,0,0.685-0.04,1.033-0.117
		c0.6-0.134,1.156-0.39,1.653-0.764C274.29,430.822,274.692,430.366,274.981,429.851z M272.977,428.611
		c-0.321,0.566-0.769,0.906-1.368,1.04c-0.603,0.134-1.151,0.02-1.687-0.351c-0.547-0.379-0.886-0.888-1.034-1.554
		c-0.148-0.67-0.06-1.274,0.271-1.848c0.324-0.56,0.776-0.898,1.384-1.034c0.161-0.036,0.321-0.054,0.475-0.054
		c0.426,0,0.821,0.135,1.21,0.413c0.544,0.389,0.879,0.896,1.024,1.551C273.399,427.427,273.309,428.028,272.977,428.611z"/>
	<path fill="#221F1F" d="M277.692,429.534c0.069,0.31,0.246,0.562,0.51,0.729c0.188,0.12,0.395,0.181,0.612,0.181
		c0.086,0,0.175-0.01,0.262-0.029l3.831-0.853c0.3-0.067,0.55-0.245,0.722-0.515c0.17-0.27,0.225-0.572,0.157-0.875
		c-0.067-0.304-0.246-0.556-0.515-0.727c-0.269-0.17-0.566-0.226-0.871-0.16l-2.687,0.598l-1.283-5.767
		c-0.069-0.311-0.25-0.563-0.522-0.73c-0.266-0.165-0.567-0.215-0.874-0.146c-0.308,0.068-0.56,0.244-0.728,0.508
		c-0.169,0.264-0.222,0.567-0.153,0.876L277.692,429.534z"/>
	<path fill="#221F1F" d="M289.993,426.573c0.688-1.089,0.896-2.28,0.614-3.541c-0.28-1.261-0.973-2.252-2.059-2.946
		c-1.084-0.691-2.281-0.904-3.537-0.624l-1.383,0.308c-0.308,0.068-0.56,0.244-0.728,0.508c-0.169,0.264-0.222,0.567-0.153,0.875
		l1.538,6.912c0.069,0.31,0.246,0.562,0.511,0.729c0.188,0.12,0.395,0.18,0.611,0.18c0.087,0,0.175-0.01,0.263-0.029l1.383-0.308
		C288.315,428.357,289.304,427.662,289.993,426.573z M288.022,425.318c-0.352,0.554-0.836,0.896-1.476,1.044l-0.238,0.053
		l-1.029-4.623l0.238-0.053c0.645-0.145,1.224-0.042,1.777,0.313c0.553,0.355,0.893,0.841,1.036,1.486
		C288.474,424.184,288.373,424.765,288.022,425.318z"/>
	<path fill="#221F1F" d="M225.854,413.517c0.328,0.18,0.687,0.331,1.07,0.446c1.077,0.324,2.154,0.283,3.184-0.116
		c0.228-0.078,0.41-0.208,0.542-0.387l0.012-0.017c0.092-0.112,0.16-0.241,0.202-0.381l0.764-2.538
		c0.096-0.315,0.061-0.631-0.103-0.915c-0.159-0.272-0.402-0.463-0.703-0.553l-2.288-0.689c-0.308-0.092-0.618-0.065-0.896,0.08
		c-0.284,0.147-0.482,0.388-0.574,0.696c-0.092,0.307-0.06,0.62,0.093,0.904c0.154,0.287,0.4,0.489,0.698,0.577l1.164,0.351
		l-0.242,0.805c-0.408,0.059-0.793,0.032-1.172-0.083c-0.676-0.204-1.172-0.6-1.522-1.216c-0.345-0.606-0.418-1.218-0.222-1.869
		c0.197-0.652,0.593-1.123,1.213-1.439c0.627-0.321,1.231-0.386,1.848-0.2c0.627,0.189,1.12,0.529,1.46,1.004
		c0.185,0.267,0.456,0.44,0.779,0.494c0.324,0.055,0.631-0.016,0.887-0.203c0.256-0.185,0.42-0.452,0.474-0.769
		c0.056-0.325-0.018-0.636-0.205-0.886c-0.64-0.913-1.525-1.548-2.615-1.877c-1.295-0.39-2.553-0.274-3.739,0.345
		c-1.189,0.621-1.987,1.583-2.373,2.861c-0.384,1.279-0.249,2.52,0.403,3.686C224.448,412.443,225.074,413.079,225.854,413.517z"/>
	<path fill="#221F1F" d="M235.031,416.289c0.294,0.165,0.616,0.301,0.958,0.404c0.588,0.177,1.199,0.226,1.816,0.144
		c0.613-0.083,1.187-0.283,1.691-0.59c1.129-0.641,1.891-1.595,2.265-2.836c0.372-1.237,0.273-2.455-0.296-3.621
		c-0.573-1.173-1.496-1.964-2.718-2.334c-1.227-0.37-2.421-0.227-3.547,0.425c-1.115,0.644-1.874,1.607-2.252,2.862
		c-0.378,1.254-0.279,2.475,0.296,3.63C233.661,415.213,234.262,415.858,235.031,416.289z M235.214,411.428
		c0.199-0.657,0.572-1.14,1.142-1.479c0.557-0.33,1.117-0.403,1.713-0.224c0.158,0.047,0.307,0.11,0.44,0.185
		c0.371,0.208,0.65,0.52,0.853,0.952c0.284,0.605,0.328,1.212,0.134,1.854c-0.193,0.642-0.565,1.122-1.14,1.468
		c-0.557,0.337-1.114,0.414-1.702,0.237c-0.591-0.178-1.014-0.546-1.299-1.131C235.064,412.692,235.017,412.082,235.214,411.428z"/>
	<path fill="#221F1F" d="M223.327,420.09c0.001-0.011,0.001-0.022,0.001-0.033c0.041-0.219-0.058-0.428-0.181-0.634l-0.245-0.268
		c-0.017-0.016-0.035-0.032-0.054-0.047l-0.034-0.073l-0.341-0.103c-0.053-0.016-0.162-0.049-0.29-0.041v-0.001l-1.95,0.447
		c-0.316,0.067-0.571,0.25-0.737,0.531c-0.167,0.283-0.202,0.597-0.114,0.868c0.096,0.423,0.376,0.724,0.786,0.852
		c0.108,0.032,0.214,0.049,0.316,0.051l-1.464,4.858c-0.091,0.302-0.062,0.608,0.087,0.885c0.107,0.197,0.256,0.35,0.445,0.457
		c0.075,0.042,0.157,0.077,0.244,0.103c0.3,0.091,0.606,0.062,0.882-0.081c0.284-0.147,0.484-0.385,0.575-0.691l2.111-7.013
		L223.327,420.09z"/>
	<path fill="#221F1F" d="M229.349,421.598c-0.358-0.414-0.807-0.706-1.324-0.862c-1.033-0.311-2.038-0.067-2.981,0.722
		c-0.804,0.651-1.4,1.576-1.775,2.762c-0.338,1.183-0.352,2.283-0.043,3.264c0.283,0.932,0.783,1.604,1.485,1.999
		c0.186,0.105,0.389,0.19,0.603,0.255c0.509,0.153,1.037,0.157,1.571,0.01c0.509-0.14,0.98-0.389,1.399-0.738
		c0.817-0.671,1.408-1.599,1.758-2.756c0.35-1.158,0.369-2.257,0.059-3.267C229.944,422.461,229.691,421.994,229.349,421.598z
		 M227.809,425.584c-0.212,0.701-0.549,1.246-0.999,1.619c-0.326,0.265-0.605,0.365-0.829,0.297
		c-0.238-0.075-0.409-0.309-0.537-0.706c-0.172-0.563-0.152-1.204,0.06-1.904c0.211-0.704,0.553-1.258,0.997-1.633
		c0.345-0.268,0.625-0.367,0.871-0.284c0.034,0.009,0.066,0.022,0.097,0.039c0.161,0.09,0.302,0.315,0.405,0.639
		C228.043,424.23,228.021,424.881,227.809,425.584z"/>
	<path fill="#221F1F" d="M236.842,423.681c-0.357-0.413-0.806-0.707-1.323-0.862c-1.034-0.311-2.038-0.067-2.981,0.722
		c-0.804,0.652-1.399,1.576-1.773,2.761c-0.338,1.181-0.353,2.28-0.044,3.264c0.282,0.931,0.783,1.604,1.485,1.999
		c0.186,0.105,0.389,0.191,0.603,0.255c0.511,0.154,1.039,0.157,1.571,0.011c0.511-0.141,0.983-0.391,1.399-0.739
		c0.818-0.672,1.41-1.599,1.759-2.756c0.347-1.158,0.366-2.257,0.056-3.266C237.437,424.545,237.184,424.077,236.842,423.681z
		 M235.303,427.668c-0.216,0.713-0.544,1.243-0.999,1.619c-0.327,0.265-0.606,0.365-0.829,0.298
		c-0.239-0.073-0.409-0.309-0.537-0.707c-0.174-0.57-0.155-1.192,0.06-1.903c0.212-0.703,0.553-1.258,0.997-1.634
		c0.345-0.267,0.625-0.367,0.872-0.283c0.034,0.009,0.065,0.021,0.096,0.038c0.161,0.09,0.302,0.315,0.405,0.639
		C235.537,426.314,235.515,426.965,235.303,427.668z"/>
	<path fill="#221F1F" d="M244.169,425.672c-0.358-0.414-0.807-0.707-1.324-0.862c-1.034-0.311-2.038-0.067-2.981,0.722
		c-0.804,0.651-1.4,1.576-1.775,2.762c-0.338,1.183-0.352,2.283-0.043,3.264c0.282,0.931,0.783,1.604,1.485,1.999
		c0.186,0.105,0.389,0.191,0.603,0.255c0.509,0.153,1.037,0.157,1.571,0.01c0.509-0.14,0.98-0.389,1.399-0.738
		c0.817-0.671,1.408-1.599,1.758-2.756c0.35-1.157,0.369-2.257,0.059-3.267C244.764,426.537,244.511,426.07,244.169,425.672z
		 M242.629,429.659c-0.212,0.702-0.549,1.247-0.999,1.619c-0.326,0.265-0.604,0.365-0.83,0.297
		c-0.279-0.085-0.451-0.443-0.535-0.706c-0.172-0.563-0.152-1.203,0.06-1.904c0.211-0.704,0.553-1.258,0.997-1.633
		c0.345-0.267,0.625-0.367,0.87-0.284c0.035,0.009,0.067,0.022,0.098,0.039c0.161,0.09,0.301,0.315,0.404,0.639
		C242.863,428.305,242.841,428.956,242.629,429.659z"/>
</g>
<g>
	<path fill="#A29352" d="M366.227,434.158l-0.585,0.065c-0.737,0-1.234-0.346-1.495-1.04l-4.029-10.725h-20.735l-4.03,10.725
		c-0.26,0.694-0.759,1.04-1.495,1.04l-0.585-0.065c-0.39-0.173-0.682-0.465-0.877-0.877c-0.195-0.412-0.206-0.812-0.032-1.203
		l15.795-42.185c0.303-0.65,0.845-0.975,1.625-0.975c0.779,0,1.277,0.325,1.495,0.975l15.795,42.185c0.172,0.39,0.172,0.791,0,1.203
		C366.899,433.692,366.618,433.985,366.227,434.158z M349.783,394.832l-9.23,24.44h18.396L349.783,394.832z"/>
	<path fill="#A29352" d="M372.597,421.222v-17.355c0-0.433,0.151-0.801,0.455-1.105c0.303-0.303,0.672-0.455,1.105-0.455
		s0.801,0.152,1.104,0.455c0.303,0.304,0.455,0.672,0.455,1.105v17.355c0,2.73,0.953,5.049,2.86,6.955
		c1.906,1.907,4.203,2.882,6.89,2.925c2.73-0.042,5.06-1.018,6.988-2.925c1.927-1.906,2.892-4.225,2.892-6.955v-17.355
		c0-0.433,0.163-0.801,0.488-1.105c0.324-0.303,0.703-0.455,1.137-0.455s0.802,0.152,1.105,0.455
		c0.303,0.304,0.455,0.672,0.455,1.105v17.355c0,3.597-1.268,6.663-3.803,9.197c-2.535,2.535-5.601,3.803-9.197,3.803
		c-3.598,0-6.652-1.268-9.165-3.803C373.854,427.885,372.597,424.82,372.597,421.222z"/>
</g>
<polygon fill="#231F20" points="224.373,338.407 224.373,386.927 227.373,385.85 227.373,384.584 226.354,383.441 227.373,381.189 
	227.373,364.789 235.975,358.729 238.92,361.472 240.911,360.446 245.299,361.862 247.986,356.104 251.64,364.143 253.476,364.838 
	257.815,356.723 260.964,367.674 261.375,367.83 266.354,369.554 272.485,355.849 278.912,359.616 282.615,356.119 292.571,373.865 
	297.768,387.095 300.981,393.687 294.981,397.573 306.384,400.01 308.821,388.608 303.515,392.045 300.538,385.943 295.325,372.673 
	283.352,351.298 278.488,355.891 271.113,351.568 264.016,367.433 258.656,348.79 252.872,359.604 248.021,348.933 242.519,360.724 
	236.237,354.875 227.373,361.12 227.373,341.407 320.032,341.407 320.032,410.509 293.652,410.509 293.652,413.509 323.032,413.509 
	323.032,338.407 "/>
</svg>
