<?xml version="1.0" encoding="utf-8"?>
<!-- Generator: Adobe Illustrator 17.0.2, SVG Export Plug-In . SVG Version: 6.00 Build 0)  -->
<!DOCTYPE svg PUBLIC "-//W3C//DTD SVG 1.1//EN" "http://www.w3.org/Graphics/SVG/1.1/DTD/svg11.dtd">
<svg version="1.1" id="Layer_1" xmlns="http://www.w3.org/2000/svg" xmlns:xlink="http://www.w3.org/1999/xlink" x="0px" y="0px"
	 width="612px" height="792px" viewBox="0 0 612 792" enable-background="new 0 0 612 792" xml:space="preserve">
<path fill="#5F8893" d="M347.104,304.038L346.833,306l-1.5,4.667l-2,3.667l-7.333,2l-2.904-0.518l-1.924,1.345l-0.339,3.507
	l-2.167,6l-5.167,5.167l-3.833,0.833l-0.833,4.167l-6.5,5.333l-8,1.5l-7.5,0.333l-4.104-1.97l-1.495-0.083l-6.05,5.402l-4.754,2.377
	l-4.322-3.241l-5.402-5.834l-5.618-4.106h-4.538l-9.724-2.161l-7.347,1.297l-11.453,1.513l-0.157-0.039
	c4.943,19.606,32.247,34.606,65.196,34.606c36.451,0,66-18.356,66-41C363.065,320.548,357.047,311.214,347.104,304.038z"/>
<path fill="#231F20" d="M498.816,422.15"/>
<path fill="#5F8893" d="M232.026,328.766l1.309-8.673c-1.472,3.402-2.27,6.976-2.27,10.667c0,0.691,0.029,1.379,0.084,2.062
	L232.026,328.766z"/>
<path fill="none" stroke="#231F20" stroke-width="2.1366" stroke-miterlimit="10" d="M245.251,323.853"/>
<path fill="none" stroke="#231F20" stroke-width="2.1366" stroke-miterlimit="10" d="M250.566,300.665"/>
<path fill="#5F8893" d="M409.839,282.578c-1.669-2.231-3.803-3.803-6.402-4.713c2.902-2.34,4.354-5.188,4.354-8.547
	c0-3.357-1.104-6.143-3.314-8.353c-2.011-2.011-4.403-3.096-7.167-3.278v-9.263c0-0.875-0.709-1.584-1.584-1.584
	s-1.584,0.709-1.584,1.584v9.225h-7.799c-0.434,0-0.803,0.152-1.105,0.455c-0.304,0.304-0.455,0.672-0.455,1.105v42.38
	c0,0.434,0.141,0.802,0.423,1.105c0.281,0.304,0.639,0.455,1.072,0.455h7.865v7.576c0,0.875,0.709,1.584,1.584,1.584
	s1.584-0.709,1.584-1.584v-7.576h2.033c3.596,0,6.662-1.268,9.197-3.803s3.803-5.6,3.803-9.197
	C412.342,287.334,411.507,284.81,409.839,282.578z M402.235,263.24c1.581,1.604,2.372,3.521,2.372,5.752
	c0,2.232-0.791,4.139-2.372,5.72c-1.385,1.385-3.027,2.163-4.925,2.336v-16.175C399.208,261.048,400.849,261.838,402.235,263.24z
	 M387.967,260.836h6.174v16.25h-6.174V260.836z M387.967,299.966v-19.63h6.174v19.63H387.967z M406.232,297.106
	c-1.907,1.907-4.204,2.86-6.89,2.86h-2.033v-19.63h2.033c2.686,0,4.982,0.965,6.89,2.893c1.906,1.929,2.882,4.236,2.925,6.922
	C409.114,292.881,408.138,295.199,406.232,297.106z"/>
<path fill="#231F20" d="M267.407,315.135c-1.362,1.331-0.747,4.262,1.342,6.401c1.329,1.361,3.005,2.173,4.482,2.173
	c0.542,0,1.309-0.118,1.886-0.681c1.362-1.331,0.747-4.261-1.342-6.401c-1.33-1.361-3.005-2.173-4.482-2.173
	C268.75,314.454,267.983,314.572,267.407,315.135z"/>
<g>
	<path fill="none" d="M292.333,272.999"/>
</g>
<g>
	<path fill="#FFFFFF" d="M297.772,251.227l-7.782-2.712l-10.611-3.891l-9.668-6.131l-2.83-5.895l0.118-2.122l-3.537-1.651
		l-1.533-3.065l7.782-2.358l6.367-1.651c0,0,5.188,0.707,5.541,1.061c0.354,0.354,6.956,4.716,6.956,4.716l4.009,3.419l3.419,5.306
		l1.061,6.603L297.772,251.227z"/>
	<path fill="#231F20" d="M365.901,275.973c0.12-1.217-0.24-2.412-1.016-3.363l-0.981-0.921c0.339-0.407,0.687-0.805,1.009-1.226
		c1.72-2.246,3.72-5.185,3.164-8.184c-1.383-7.461-11.487-4.736-16.001-1.697l-23.059-21.652c-0.311-0.366-0.683-0.654-1.079-0.903
		l-0.336,0.23l-6.249,2.122l-0.992-0.153l-1.332,1.118l2.206,0.567l3.655,2.004l4.127,4.009l4.009,2.948l4.245,2.476l3.891,1.415
		l-0.943,1.886l-2.572,1.169l18.158,16.507l-31.804,25.741c-1.2-0.076-2.452,0.267-3.701,1.222
		c-1.446,1.106-2.387,2.559-3.002,4.203l-25.664,20.771l-28.408-26.18l50.166-43.416l-4.771-0.607l-6.721,1.415l-0.954-0.954
		l-56.017,47.015c-0.57,0.464-0.991,1.055-1.278,1.71c-0.94,1.181-1.259,3.466-1.35,5.281c-0.066,1.306-0.104,4.486,0.973,5.808
		l20.717,19.687c-2.696-0.311-5.238-1.316-7.834-2.067c-2.652-0.767-5.299-0.938-8.036-0.65c-5.468,0.576-10.673,2.905-16.189,2.836
		c0.468-3.909,1.505-7.705,2.331-11.554c0.892-4.161,1.119-8.286,0.865-12.529c-0.568-9.493-3.095-18.755-3.063-28.297
		c3.84,0.106,7.666,0.332,11.446-0.571c4.518-1.079,8.133-4.526,11.779-7.184c4-2.916,8.309-5.506,12.446-8.229
		c4.012-2.64,8.118-5.122,12.456-7.193c4.023-1.92,8.315-3.058,12.246-5.19c3.85-2.088,7.352-4.769,11.108-7.016
		c1.489-0.891,2.932-1.632,4.443-2.14l0.513-0.907l3.773-2.488c-0.379-0.003-0.753,0.003-1.116,0.02
		c-3.602,0.173-6.633,1.817-9.671,3.635c-4.252,2.544-8.175,5.561-12.64,7.749c-4.588,2.249-9.48,3.625-14.012,6.073
		c-4.794,2.59-9.294,5.706-13.822,8.725c-4.624,3.083-9.058,6.461-13.701,9.498c-5.242,3.43-11.196,2.564-17.121,2.511
		c-0.516-0.005-1.017,0.303-1.193,0.79c-0.199,0.548,0.128,1.08,0.297,1.587c0.193,0.577,0.098,1.179,0.106,1.776
		c0.01,0.768,0.048,1.537,0.091,2.304c0.086,1.543,0.225,3.082,0.393,4.617c0.093,0.848,0.196,1.694,0.306,2.54
		c0.454,3.502,1.03,6.987,1.509,10.485c0.269,1.965,0.509,3.934,0.682,5.909c0.406,4.654,0.097,9.118-0.882,13.682
		c-0.905,4.218-2.009,8.348-2.376,12.661c-0.066,0.775,0.661,1.272,1.335,1.335c5.846,0.553,11.442-1.737,17.127-2.69
		c5.978-1.001,10.997,2.173,16.791,2.69c0.096,0.009,0.186,0.007,0.271-0.002c0.016,0.001,0.032,0.002,0.049,0.003
		c0.677,0.066,1.352,0.139,2.031,0.128c0.105,0.013,0.21,0.035,0.315,0.053l10.6,10.073c0.909,1.072,2.21,1.628,3.519,1.628
		c1.013,0,2.03-0.333,2.873-1.02l8.034-6.534c9.548,3.78,26.074,1.858,28.829-8.886c0.062-0.009,0.122-0.014,0.186-0.031
		c7.24-1.973,11.014-9.558,11.618-17.088c5.29,0.735,10.168-0.43,13.225-5.083c2.725-4.148,2.953-9.81,2.439-14.699l14.932-12.144
		c1.342-1.091,2.104-3.824,2.306-4.636c0.322-1.296,0.566-2.928,0.229-4.192C365.854,276.199,365.89,276.09,365.901,275.973z
		 M265.93,313.623c0.859-0.839,2.022-1.283,3.363-1.283c2.034,0,4.275,1.051,5.994,2.811c2.99,3.061,3.564,7.185,1.307,9.389
		c-0.859,0.839-2.022,1.283-3.362,1.283c-2.035,0-4.275-1.05-5.994-2.81C264.248,319.952,263.673,315.828,265.93,313.623z
		 M282.349,347.534c-0.813,0.662-2.022,0.53-2.694-0.295l-34.331-32.623c-0.349-0.597-0.451-2.31-0.366-3.98l33.628,32.281
		c0.88,1.039,2.156,1.633,3.518,1.633c1.045,0,2.066-0.363,2.876-1.021l19.325-15.717c0.202,0.452,0.417,0.9,0.642,1.344
		L282.349,347.534z M318.531,332.725c-1.491,9.981-15.798,10.748-24.017,8.359l11.742-9.55c0.866,1.472,1.732,2.807,2.37,3.877
		c0.881,1.477,3.191,0.135,2.306-1.348c-2.123-3.558-8.527-11.564-3.321-14.941c3.39-2.2,6.707,1.605,8.412,4.16
		C317.875,326.055,319.031,329.375,318.531,332.725z M321.288,331.278c0.018-0.793-0.024-1.622-0.142-2.492
		c-0.25-1.857-1.006-3.967-2.126-5.936c0.228-0.215,0.379-0.524,0.374-0.934c-0.065-5.634-1.626-12.397,1.553-17.47
		c3.55-5.665,8.067,2.907,8.783,6.144C331.288,317.626,328.729,328.48,321.288,331.278z M331.512,307.148
		c-0.132-0.359-0.292-0.723-0.464-1.086l3.566-2.9c0.088,0.547,0.183,1.094,0.279,1.639l-3.28,2.668
		C331.576,307.364,331.55,307.251,331.512,307.148z M344.145,309.71c-2.057,4.238-6.386,5.394-10.775,4.776
		c-0.211-0.03-0.407-0.015-0.585,0.033c-0.022-1.447-0.172-2.861-0.428-4.214l3.007-2.446c0.017,0.145,0.04,0.291,0.054,0.436
		c0.165,1.698,2.838,1.714,2.671,0c-0.496-5.095-2.339-9.907,0.611-14.595c0.928-1.475,3.889-4.88,5.497-2.534
		c1.285,1.875,1.391,4.806,1.58,6.998C346.109,302.029,345.861,306.174,344.145,309.71z M361.613,283.07l-13.665,11.114
		c-0.09-0.534-0.2-1.067-0.334-1.595l15.322-12.462C362.59,281.428,362.077,282.693,361.613,283.07z M361.993,269.893l-7.911-7.428
		c2.288-1.396,5.027-2.237,7.661-2.324c3.685-0.123,4.288,3.12,2.945,5.834C363.986,267.393,363.022,268.671,361.993,269.893z"/>
	<path fill="#231F20" d="M342.225,254.335c-6.283-2.249-10.587-5.696-15.533-10.034c-1.364-1.196-3.047-2.472-4.872-3.364
		c1.844-0.125,3.721-0.501,5.661-1.284c6.591-2.659,11.803-11.71,14.507-17.848c0.414-0.939-0.422-1.797-1.368-1.368
		c-4.451,2.016-9.11,1.539-13.846,1.718c-3.177,0.12-6.293,0.953-9.279,1.982c-4.153,1.43-7.911,3.78-11.072,6.774
		c2.404-4.861,5.803-9.201,6.749-14.826c0.374-2.224,0.156-4.757-0.936-6.765c-2.158-3.97-3.898-7.137-4.813-11.618
		c-0.179-0.877-1.407-0.942-1.828-0.239c-4.225,7.062-11.743,10.295-13.109,19.065c-0.911,5.853,2.439,11.153,6.011,15.772
		c-0.008,0.162,0.012,0.33,0.098,0.505c0.469,0.956,0.911,1.943,1.266,2.957c0.247,2.483-1.127,4.943-1.696,7.388
		c-0.063-2.563-0.24-5.115-1.13-7.63c-1.274-3.603-4.124-6.254-7.193-8.352c-3.302-2.258-7.361-6.204-11.55-6.533
		c-6.24-0.49-10.788,3.979-17,3.833c-0.756-0.018-1.249,0.864-0.863,1.505c0.73,1.212,1.395,2.31,2.323,3.369
		c1.672,1.909,3.009,0.518,3.685,3.765c0.715,3.43,1.811,5.426,4.801,7.529c3.657,2.573,7.746,4.824,11.85,6.598
		c4.464,1.929,9.298,2.624,13.699,4.764c0.003,0.002,0.007,0.001,0.01,0.003c0.018,0.094,0.042,0.187,0.062,0.281
		c-0.561,4.727-0.834,9.51-1.33,14.121c-0.864,8.04-0.727,17.865,4.889,24.272c0.1,0.114,0.208,0.188,0.317,0.24
		c1.678,1.89,4.429,3.948,6.286,1.298c1.447-2.066-1.22-4.616-3.144-6.129c-1.217-1.7-2.387-3.385-3.395-5.161
		c-1.258-2.406-2.355-4.717-2.282-7.94c0.117-5.149,1.368-9.918,3.913-14.346c0.114-0.023,0.23-0.061,0.349-0.138
		c6.229-4.055,16.144,1.021,23.051,1.675c6.05,0.572,12.299-0.325,17.151-4.165C343.308,255.499,342.852,254.56,342.225,254.335z
		 M279.418,233.506c2.603,2.717,6.402,2.707,9.536,4.49c3.502,1.992,6.339,7.349,6.784,11.389c-2.37-0.979-4.799-1.745-7.286-2.46
		c-4.446-1.278-8.364-3.354-12.386-5.577c-2.112-1.167-4.056-2.537-5.813-4.195c-2.3-2.171-1.2-3.81-2.253-6.085
		c-0.548-1.184-0.532-1.206-1.459-1.916c-1.25-0.957-2.332-1.644-3.309-2.732c2.425-0.163,4.547-0.766,6.897-1.924
		c6.785-3.343,10.742-1.045,16.282,2.924c4.553,3.262,7.975,5.465,9.492,11.228c0.521,1.977,0.577,4.009,0.566,6.054
		c-0.969-2.223-2.363-4.285-3.902-6.115c-3.192-3.794-8.512-3.129-11.736-6.496C279.939,231.159,278.527,232.575,279.418,233.506z
		 M327.585,228.425c-3.321,3.225-7.204,1.046-11.1,1.845c-3.449,0.708-6.607,2.264-9.936,3.334c4.246-4.49,9.799-7.349,15.888-8.838
		c5.624-1.375,11.304-0.197,16.781-1.732c-2.948,6.023-7.51,12.77-13.553,15.207c-6.714,2.708-13.78-0.586-20.6-2.135
		c4.759-1.159,9.103-3.989,14.089-3.95c3.794,0.03,6.937,0.506,9.844-2.317C329.926,228.94,328.51,227.527,327.585,228.425z
		 M296.135,211.508c2.198-4.431,6.726-7.241,9.829-11.108c0.402,1.743,0.882,3.436,1.646,5.102
		c1.995,4.347,4.255,6.343,3.384,11.531c-0.949,5.649-4.957,10.015-7.266,15.14c-0.153-3.125-0.599-6.19-1.162-9.3
		c-1.042-5.759,0.998-9.824,2.689-15.142c0.392-1.233-1.539-1.756-1.928-0.532c-1.188,3.733-2.863,7.195-3.252,11.13
		c-0.477,4.826,1.338,9.898,1.663,14.842C296.706,226.783,291.999,219.844,296.135,211.508z M302.347,253.15
		c-0.613,0.505-1.205,1.039-1.773,1.583c0.141-1.022,0.258-2.054,0.348-3.113c0.397-4.688,1.43-9.275,2.178-13.914
		c3.945,0.594,7.673,1.807,11.399,2.588C308.81,242.211,305.647,248.191,302.347,253.15z M317.866,256.934
		c-5.036-1.136-10.231-3.153-15.067-0.898c-0.003-0.009-0.008-0.018-0.012-0.027c0.235-0.326,0.471-0.669,0.709-1.023
		c3.37-2.585,7.029-3.813,11.984-2.237c3.921,1.247,7.615,2.911,11.483,0.747c1.125-0.63,0.117-2.357-1.009-1.727
		c-4.99,2.792-11.004-2.335-16.329-1.97c-1.171,0.08-2.284,0.385-3.343,0.845c3.198-4.925,7.051-9.834,12.91-8.548
		c4.835,1.061,8.086,5.947,11.882,8.733c2.75,2.018,5.664,3.505,8.782,4.739C333.458,259.577,324.896,258.52,317.866,256.934z"/>
</g>
</svg>
