<?xml version="1.0" encoding="utf-8"?>
<!-- Generator: Adobe Illustrator 17.0.2, SVG Export Plug-In . SVG Version: 6.00 Build 0)  -->
<!DOCTYPE svg PUBLIC "-//W3C//DTD SVG 1.1//EN" "http://www.w3.org/Graphics/SVG/1.1/DTD/svg11.dtd">
<svg version="1.1" id="Layer_1" xmlns="http://www.w3.org/2000/svg" xmlns:xlink="http://www.w3.org/1999/xlink" x="0px" y="0px"
	 width="612px" height="792px" viewBox="0 0 612 792" enable-background="new 0 0 612 792" xml:space="preserve">
<g>
	<path fill="#5A835F" d="M382.49,331.356c0-0.433,0.151-0.801,0.455-1.105c0.303-0.302,0.672-0.455,1.105-0.455
		c0.433,0,0.801,0.152,1.104,0.455c0.303,0.304,0.455,0.672,0.455,1.105v2.6c4.073,0.348,7.931,1.864,11.57,4.55
		c0.606,0.477,0.91,0.954,0.91,1.43c0,0.478-0.163,0.877-0.487,1.203c-0.325,0.325-0.716,0.487-1.171,0.487
		c-0.454,0-0.855-0.151-1.202-0.455c-3.033-2.427-6.283-3.835-9.75-4.225v18.2c4.94,1.04,8.515,2.525,10.725,4.453
		c2.211,1.929,3.315,4.55,3.315,7.865c0,3.315-1.3,6.088-3.9,8.32c-2.6,2.232-5.937,3.413-10.01,3.542v5.07
		c0,0.433-0.152,0.801-0.455,1.105c-0.304,0.303-0.672,0.455-1.104,0.455c-0.434,0-0.803-0.152-1.105-0.455
		c-0.304-0.304-0.455-0.672-0.455-1.105v-5.135c-5.417-0.433-10.292-2.535-14.625-6.305c-0.477-0.39-0.715-0.823-0.715-1.3
		c0-0.477,0.163-0.877,0.487-1.203c0.325-0.325,0.716-0.487,1.17-0.487c0.455,0,0.834,0.152,1.138,0.455
		c3.727,3.467,7.951,5.438,12.675,5.915v-18.525c-4.854-1.083-8.363-2.578-10.529-4.485c-2.168-1.906-3.25-4.495-3.25-7.768
		c0-3.271,1.288-6.022,3.867-8.255c2.578-2.231,5.839-3.39,9.782-3.478V331.356z M375.048,339.286
		c-1.929,1.647-2.893,3.651-2.893,6.013c0,2.362,0.736,4.247,2.21,5.655c1.473,1.409,4.226,2.59,8.255,3.542v-17.745
		C379.501,336.795,376.976,337.64,375.048,339.286z M393.248,373.833c1.972-1.667,2.957-3.715,2.957-6.142
		c0-2.427-0.77-4.344-2.307-5.753c-1.539-1.407-4.346-2.567-8.418-3.478v17.94C388.687,376.358,391.275,375.502,393.248,373.833z"/>
</g>
<g>
	<path fill="#5A835F" d="M327.555,432.715l-0.294-5.439l-79.548-0.115c12.094,9.304,30.596,15.257,51.347,15.257
		c14.279,0,27.488-2.826,38.288-7.615L327.555,432.715z"/>
	<path fill="#5A835F" d="M364.987,399.553c-0.737-10.202-7.475-19.43-18.077-26.359l-8.537,1.038l-6.603-1.179l-5.895-1.415
		l-6.485-0.825l-6.721,1.415l-1.415-1.415l4.48-4.48l2.355-4.161c-3.233-0.604-6.564-1.067-9.984-1.359l0.437,5.166l-7.782-2.712
		l-7.307-2.679c-0.61,0.033-1.224,0.055-1.829,0.098v39.046L364.987,399.553z"/>
</g>
<g>
	<polygon fill="#231F20" points="233.703,350.723 224.5,351.951 224.857,403.326 233.703,409.644 	"/>
	<path fill="#231F20" d="M274.27,372.359c-3.009,0-5.457,2.448-5.457,5.457s2.448,5.457,5.457,5.457s5.457-2.448,5.457-5.457
		S277.278,372.359,274.27,372.359z"/>
	<path fill="#231F20" d="M329.723,438.054c-1.507,0-14.719,0.13-14.719,4.64c0,4.509,13.212,4.64,14.719,4.64
		s14.719-0.13,14.719-4.64C344.443,438.184,331.23,438.054,329.723,438.054z M329.723,444.773c-6.783,0-11.148-1.261-12.057-2.08
		c0.909-0.819,5.274-2.08,12.057-2.08s11.148,1.261,12.058,2.08C340.872,443.512,336.506,444.773,329.723,444.773z"/>
	<path fill="#231F20" d="M390.625,404.423v-5.529h-29.084l-48.233,0.025c-0.728-1.064-1.426-2.137-2.055-3.247
		c-1.258-2.406-2.355-4.717-2.282-7.94c0.117-5.149,1.368-9.918,3.913-14.346c0.114-0.023,0.23-0.061,0.349-0.138
		c6.229-4.055,16.144,1.021,23.051,1.675c6.05,0.572,12.299-0.325,17.151-4.165c0.642-0.508,0.187-1.447-0.441-1.671
		c-6.283-2.249-10.587-5.696-15.533-10.034c-1.364-1.196-3.047-2.472-4.872-3.364c1.844-0.125,3.721-0.501,5.661-1.284
		c6.591-2.659,11.803-11.71,14.507-17.848c0.414-0.939-0.422-1.797-1.368-1.368c-4.451,2.016-9.11,1.539-13.846,1.718
		c-3.177,0.12-6.293,0.953-9.279,1.982c-4.153,1.43-7.911,3.78-11.072,6.774c2.404-4.861,5.803-9.201,6.749-14.826
		c0.374-2.224,0.156-4.757-0.936-6.765c-2.158-3.97-3.898-7.137-4.813-11.618c-0.179-0.877-1.407-0.942-1.828-0.239
		c-4.225,7.062-11.743,10.295-13.109,19.065c-0.086,0.55-0.072,1.143-0.086,1.699c-0.015,0.559-0.008,1.118,0.033,1.676
		c0.082,1.107,0.314,2.193,0.673,3.243c0.367,1.075,0.85,2.109,1.382,3.111c0.539,1.014,1.134,1.998,1.771,2.954
		c0.373,0.56,0.762,1.109,1.159,1.651c0.193,0.264,0.38,0.535,0.586,0.789c0.171,0.211,0.342,0.4,0.453,0.652
		c0.137,0.311,0.184,0.654,0.32,0.965c0.128,0.292,0.303,0.561,0.431,0.852c0.121,0.276,0.238,0.554,0.349,0.834
		c0.095,0.24,0.277,0.551,0.302,0.808c0.247,2.483-1.127,4.943-1.696,7.388c-0.063-2.563-0.24-5.115-1.13-7.63
		c-1.274-3.603-4.124-6.254-7.193-8.352c-3.302-2.258-7.361-6.204-11.55-6.533c-6.24-0.49-10.788,3.979-17,3.833
		c-0.756-0.018-1.249,0.864-0.863,1.505c0.73,1.212,1.395,2.31,2.323,3.369c1.672,1.909,3.009,0.518,3.685,3.765
		c0.186,0.89,0.399,1.68,0.663,2.404l-41.168,0.263v59.521l-7.696,1.998v16.203l2.56,0.071h94.924v2.981
		c0,4.51,13.213,4.64,14.719,4.64c0.598,0,3.039-0.022,5.766-0.329v3.414h-0.021c0,0.077,0.013,0.149,0.021,0.223v4.976
		c0,4.51,13.213,4.64,14.719,4.64s14.719-0.13,14.719-4.64v-14.895c0.078-0.225,0.125-0.461,0.125-0.713h-0.125v-5.216
		c0-1.386-1.251-2.357-3.024-3.039l14.674-5.29L388,415.085l2.625-1.24v-9.162l0.083-0.03L390.625,404.423z M313.118,367.902
		c-0.613,0.505-1.205,1.039-1.773,1.583c0.141-1.022,0.258-2.054,0.348-3.113c0.397-4.688,1.43-9.275,2.178-13.914
		c3.945,0.594,7.673,1.807,11.399,2.588C319.581,356.962,316.417,362.942,313.118,367.902z M341.846,365.581
		c2.75,2.018,5.664,3.505,8.782,4.739c-6.399,4.01-14.961,2.952-21.99,1.366c-5.036-1.136-10.231-3.153-15.067-0.898
		c-0.003-0.009-0.008-0.018-0.012-0.027c0.235-0.326,0.471-0.669,0.709-1.023c3.37-2.585,7.029-3.813,11.984-2.237
		c3.921,1.247,7.615,2.911,11.483,0.747c1.125-0.63,0.117-2.357-1.009-1.727c-4.99,2.792-11.004-2.335-16.329-1.97
		c-1.171,0.08-2.284,0.385-3.343,0.845c3.198-4.925,7.051-9.834,12.91-8.548C334.798,357.909,338.05,362.795,341.846,365.581z
		 M338.356,343.177c-3.321,3.225-7.204,1.046-11.1,1.845c-3.449,0.708-6.607,2.264-9.936,3.334c4.246-4.49,9.799-7.349,15.888-8.838
		c5.624-1.375,11.304-0.197,16.781-1.732c-2.948,6.023-7.51,12.77-13.553,15.207c-6.714,2.708-13.78-0.586-20.6-2.135
		c4.759-1.159,9.103-3.989,14.089-3.95c3.794,0.03,6.937,0.506,9.844-2.317C340.696,343.691,339.281,342.278,338.356,343.177z
		 M306.906,326.259c2.198-4.431,6.726-7.241,9.829-11.108c0.402,1.743,0.882,3.436,1.646,5.102
		c1.995,4.347,4.255,6.343,3.384,11.531c-0.949,5.649-4.957,10.015-7.266,15.14c-0.153-3.125-0.599-6.19-1.162-9.3
		c-1.042-5.759,0.998-9.824,2.689-15.142c0.392-1.233-1.539-1.756-1.928-0.532c-1.188,3.733-2.863,7.195-3.252,11.13
		c-0.477,4.826,1.338,9.898,1.663,14.842C307.477,341.535,302.77,334.595,306.906,326.259z M307.63,367.031
		c-0.561,4.727-0.834,9.51-1.33,14.121c-0.607,5.645-0.711,12.166,1.219,17.769l-14.58,0.008l-0.227-37.476
		c0.383,0.174,0.763,0.364,1.147,0.53c4.464,1.929,9.298,2.624,13.71,4.766C307.586,366.844,307.61,366.937,307.63,367.031z
		 M253.454,383.352l-7.155-3.812l1.41-2.647l7.333,3.906c0.335-0.15,0.704-0.237,1.094-0.237c0.263,0,0.511,0.049,0.751,0.12
		l6.204-4.136l1.664,2.496l-5.952,3.968c0.007,0.082,0.025,0.161,0.025,0.244c0,0.883-0.431,1.66-1.089,2.151v7.263h-3v-7.123
		C253.993,385.088,253.488,384.283,253.454,383.352z M274.27,386.273c-4.663,0-8.457-3.794-8.457-8.457s3.794-8.457,8.457-8.457
		s8.457,3.794,8.457,8.457S278.933,386.273,274.27,386.273z M289.505,359.894v39.037l-3,0.002v-40.691
		C287.492,358.818,288.491,359.369,289.505,359.894z M274.004,341.171c2.425-0.163,4.547-0.766,6.897-1.924
		c6.785-3.343,10.742-1.045,16.282,2.924c4.553,3.262,7.975,5.465,9.492,11.228c0.521,1.977,0.577,4.009,0.566,6.054
		c-0.969-2.223-2.363-4.285-3.902-6.115c-3.192-3.794-8.512-3.129-11.736-6.496c-0.894-0.933-2.306,0.483-1.414,1.414
		c2.603,2.717,6.402,2.707,9.536,4.49c3.502,1.992,6.339,7.349,6.784,11.389c-2.37-0.979-4.799-1.745-7.286-2.46
		c-4.446-1.278-8.364-3.354-12.386-5.577c-2.112-1.167-4.056-2.537-5.813-4.195c-2.3-2.171-1.2-3.81-2.253-6.085
		c-0.548-1.184-0.532-1.206-1.459-1.916C276.062,342.947,274.98,342.26,274.004,341.171z M240.125,355.088h41.492
		c0.133,0.099,0.25,0.198,0.391,0.297c1.356,0.954,2.784,1.845,4.237,2.703h-43.12v44.451h15.193l-8.5,3h-9.693V355.088z
		 M236.703,410.168L236.703,410.168l-0.372,0.131L236.703,410.168z M326.491,425.756h-94.924v-2.24h94.924V425.756z
		 M326.491,420.956h-94.924v-2.23h94.924V420.956z M326.491,416.167h-94.924v-3.194h94.924V416.167z M326.497,410.413H243.7
		l25.385-8.959h39.474c0.701,1.422,1.566,2.758,2.629,3.971c0.1,0.114,0.208,0.188,0.317,0.24c1.678,1.89,4.429,3.948,6.286,1.298
		c1.264-1.805-0.612-3.979-2.388-5.508h63.104l-22.812,8.051c-1.751-3.558-13.095-3.672-14.485-3.672
		C339.711,405.833,326.617,405.964,326.497,410.413z M329.176,415.689h-0.125v-2.366c3.921,1.722,11.075,1.79,12.159,1.79
		s8.239-0.068,12.159-1.79v2.383c-0.951,0.819-5.298,2.062-12.035,2.062c-7.231,0-11.714-1.433-12.193-2.236
		C329.152,415.549,329.176,415.607,329.176,415.689z M329.153,410.473c0.909-0.818,5.275-2.08,12.058-2.08s11.148,1.261,12.058,2.08
		c-0.909,0.819-5.274,2.08-12.058,2.08S330.062,411.292,329.153,410.473z M346.977,433.039c-1.648,0.205-3.578,0.338-5.766,0.338
		c-7.121,0-11.569-1.389-12.159-2.198v-2.222c3.925,1.713,11.056,1.78,12.139,1.78c0.599,0,3.051-0.021,5.787-0.33V433.039z
		 M346.977,427.837c-1.653,0.207-3.59,0.341-5.787,0.341c-7.053,0-11.481-1.362-12.139-2.174v-2.137
		c3.93,1.703,11.034,1.77,12.115,1.77c0.601,0,3.066-0.022,5.811-0.334V427.837z M347.092,422.719
		c-1.684,0.217-3.668,0.358-5.926,0.358c-6.974,0-11.381-1.332-12.115-2.146v-2.45c3.891,1.777,11.187,1.848,12.284,1.848
		c1.073,0,8.089-0.068,12.035-1.738v0.868C350.4,420.007,347.661,420.984,347.092,422.719z M373.856,444.104
		c-0.59,0.809-5.038,2.198-12.159,2.198s-11.569-1.389-12.159-2.198v-2.222c3.925,1.713,11.056,1.78,12.139,1.78
		c1.087,0,8.264-0.069,12.18-1.799V444.104z M373.856,438.88c-0.521,0.805-4.99,2.222-12.18,2.222
		c-7.053,0-11.481-1.362-12.139-2.174v-2.137c3.93,1.703,11.034,1.77,12.115,1.77c1.089,0,8.293-0.069,12.204-1.811V438.88z
		 M373.856,433.921h-0.044c0-0.083,0.024-0.141,0.033-0.156c-0.478,0.802-4.961,2.236-12.193,2.236
		c-6.974,0-11.381-1.332-12.115-2.146v-2.45c3.891,1.777,11.187,1.848,12.284,1.848c1.073,0,8.089-0.068,12.035-1.737V433.921z
		 M373.856,428.631c-0.951,0.819-5.298,2.062-12.035,2.062c-7.231,0-11.714-1.433-12.193-2.236c0.009,0.015,0.033,0.073,0.033,0.156
		h-0.125v-2.366c3.92,1.722,11.075,1.79,12.159,1.79s8.239-0.068,12.159-1.79V428.631z M373.754,423.397
		c-0.909,0.819-5.274,2.08-12.057,2.08s-11.148-1.261-12.058-2.08c0.909-0.818,5.275-2.08,12.058-2.08
		S372.844,422.579,373.754,423.397z M388.065,412.347l-19.197,6.92c-1.338-0.198-2.668-0.319-3.823-0.393l23.02-8.163V412.347z
		 M388.065,407.995l-30.943,10.972c-0.388,0.034-0.786,0.073-1.192,0.118v-1.801l32.135-11.672V407.995z M388.065,402.889
		l-32.135,11.672v-2.425l32.135-11.342V402.889z"/>
</g>
</svg>
