<?xml version="1.0" encoding="utf-8"?>
<!-- Generator: Adobe Illustrator 17.0.2, SVG Export Plug-In . SVG Version: 6.00 Build 0)  -->
<!DOCTYPE svg PUBLIC "-//W3C//DTD SVG 1.1//EN" "http://www.w3.org/Graphics/SVG/1.1/DTD/svg11.dtd">
<svg version="1.1" id="Layer_1" xmlns="http://www.w3.org/2000/svg" xmlns:xlink="http://www.w3.org/1999/xlink" x="0px" y="0px"
	 width="252px" height="252px" viewBox="180 270 252 252" enable-background="new 180 270 252 252" xml:space="preserve">
<g>
	<path fill="#A29352" d="M337.78,398.044l-0.701,1.401l-3.891,1.769l-8.725,1.061l-6.603-1.179l-5.895-1.415l-6.485-0.825
		l-6.721,1.415l-1.415-1.415l4.48-4.48l3.537-6.249l1.357-0.895c-4.115-0.615-8.379-0.991-12.753-1.102l0.667,7.893l-7.782-2.712
		l-0.228-0.084l0.769,37.674l10.794-13.893l9.263-11.611l3.522,1.044l17.09,10.958l3.131,10.698l-31.244,41.622
		c32.325-2.653,57.278-19.827,57.278-40.633C357.227,415.732,349.784,405.466,337.78,398.044z"/>
	<path fill="#A29352" d="M264.138,458.189l7.697-9.263l12.205-15.71h-42.301l-8.747,2.151l-3.789-0.723l-3.729-4.006
		c2.477,17.914,23.502,32.529,51.088,36.419l-12.424-8.477V458.189L264.138,458.189z"/>
</g>
<path fill="#A29352" d="M335.207,396.535c-1.181-0.656-2.394-1.29-3.649-1.893l2.574,1.502L335.207,396.535z"/>
<g>
	<path fill="#A29352" d="M387.857,399.262l-0.585,0.065c-0.737,0-1.234-0.346-1.495-1.04l-4.029-10.725h-20.735l-4.03,10.725
		c-0.26,0.694-0.759,1.04-1.495,1.04l-0.585-0.065c-0.39-0.173-0.682-0.465-0.877-0.877c-0.195-0.412-0.206-0.812-0.032-1.203
		l15.795-42.185c0.303-0.65,0.845-0.975,1.625-0.975c0.779,0,1.277,0.325,1.495,0.975l15.795,42.185c0.172,0.39,0.172,0.791,0,1.203
		C388.529,398.797,388.248,399.089,387.857,399.262z M371.413,359.937l-9.23,24.44h18.396L371.413,359.937z"/>
	<path fill="#A29352" d="M394.228,386.327v-17.355c0-0.433,0.151-0.801,0.455-1.105c0.303-0.303,0.672-0.455,1.105-0.455
		s0.801,0.152,1.104,0.455c0.303,0.304,0.455,0.672,0.455,1.105v17.355c0,2.73,0.953,5.049,2.86,6.955
		c1.906,1.907,4.203,2.882,6.89,2.925c2.73-0.042,5.06-1.018,6.988-2.925c1.927-1.906,2.892-4.225,2.892-6.955v-17.355
		c0-0.433,0.163-0.801,0.488-1.105c0.324-0.303,0.703-0.455,1.137-0.455s0.802,0.152,1.105,0.455
		c0.303,0.304,0.455,0.672,0.455,1.105v17.355c0,3.597-1.268,6.663-3.803,9.197c-2.535,2.535-5.601,3.803-9.197,3.803
		c-3.598,0-6.652-1.268-9.165-3.803C395.484,392.99,394.228,389.924,394.228,386.327z"/>
</g>
<polygon fill="#FFFFFF" points="297.464,377.751 292.748,369.498 289.8,359.122 291.569,354.17 294.988,349.572 299.94,344.738 
	302.652,341.437 304.302,344.738 306.66,350.633 308.665,356.528 307.957,362.423 304.067,369.969 301.119,375.747 305.717,372.799 
	312.084,368.554 320.219,366.314 326.822,365.843 334.604,365.607 336.962,364.899 335.193,369.616 330.831,376.69 324.464,381.052 
	318.215,383.174 307.486,381.524 300.647,379.637 "/>
<g>
	<path fill="#231F20" d="M264.312,402.816c0,3.009,2.448,5.457,5.457,5.457s5.457-2.448,5.457-5.457s-2.448-5.457-5.457-5.457
		S264.312,399.808,264.312,402.816z"/>
	<polygon fill="#231F20" points="220.357,428.326 229.203,434.644 229.203,375.723 220,376.951 	"/>
	<path fill="#231F20" d="M298.977,401.429c0.114-0.023,0.23-0.061,0.349-0.138c6.229-4.055,16.144,1.021,23.051,1.675
		c6.05,0.572,12.299-0.325,17.151-4.165c0.642-0.508,0.187-1.447-0.441-1.671c-6.283-2.249-10.587-5.696-15.533-10.034
		c-1.364-1.196-3.047-2.472-4.872-3.364c1.844-0.125,3.721-0.501,5.661-1.284c6.591-2.659,11.803-11.71,14.507-17.848
		c0.414-0.939-0.422-1.797-1.368-1.368c-4.451,2.016-9.11,1.539-13.846,1.718c-3.177,0.12-6.293,0.953-9.279,1.982
		c-4.153,1.43-7.911,3.78-11.072,6.774c2.404-4.861,5.803-9.201,6.749-14.826c0.374-2.224,0.156-4.757-0.936-6.765
		c-2.158-3.97-3.898-7.137-4.813-11.618c-0.179-0.877-1.407-0.942-1.828-0.239c-4.225,7.062-11.743,10.295-13.109,19.065
		c-0.911,5.853,2.439,11.153,6.011,15.772c-0.008,0.162,0.012,0.33,0.098,0.505c0.469,0.956,0.911,1.943,1.266,2.957
		c0.247,2.483-1.127,4.943-1.696,7.388c-0.063-2.563-0.24-5.115-1.13-7.63c-1.274-3.603-4.124-6.254-7.193-8.352
		c-3.302-2.258-7.361-6.204-11.55-6.533c-6.24-0.49-10.788,3.979-17,3.833c-0.756-0.018-1.249,0.864-0.863,1.505
		c0.73,1.212,1.395,2.31,2.323,3.369c1.562,1.784,2.832,0.688,3.544,3.188l-30.955,0.192v59.901l49.489-1.214l-9.29,12.122
		l-8.301,9.563c-1.126,1.467-0.844,3.58,0.663,4.735l25.327,16.399c0.588,0.439,1.286,0.672,2.02,0.673
		c0.263,0,0.525-0.031,0.781-0.092c0.748-0.178,1.417-0.611,1.887-1.224l37.212-49.334c0.834-1.088,0.336-2.896-1.3-7.782
		c-0.402-1.202-0.857-2.563-1.203-3.744l-0.154-0.483l-0.013,0.003c-0.225-0.555-0.59-1.036-1.096-1.42l-18.046-11.136
		c-0.8-0.595-1.826-0.808-2.791-0.576c-0.747,0.177-1.414,0.609-1.881,1.217l-10.422,13.6c-0.016-0.31-0.028-0.622-0.021-0.95
		C295.181,410.626,296.432,405.857,298.977,401.429z M299.209,395.945c-0.613,0.505-1.205,1.039-1.773,1.583
		c0.141-1.022,0.258-2.054,0.348-3.113c0.397-4.688,1.43-9.275,2.178-13.914c3.945,0.594,7.673,1.807,11.399,2.588
		C305.672,385.005,302.509,390.985,299.209,395.945z M327.937,393.624c2.75,2.018,5.664,3.505,8.782,4.739
		c-6.399,4.01-14.961,2.952-21.99,1.366c-5.036-1.136-10.231-3.153-15.067-0.898c-0.003-0.009-0.008-0.018-0.012-0.027
		c0.235-0.326,0.471-0.669,0.709-1.023c3.37-2.585,7.029-3.813,11.984-2.237c3.921,1.247,7.615,2.911,11.483,0.747
		c1.125-0.63,0.117-2.357-1.009-1.727c-4.99,2.792-11.004-2.335-16.329-1.97c-1.171,0.08-2.284,0.385-3.343,0.845
		c3.198-4.925,7.051-9.834,12.91-8.548C320.89,385.952,324.142,390.838,327.937,393.624z M324.447,371.22
		c-3.321,3.225-7.204,1.046-11.1,1.845c-3.449,0.708-6.607,2.264-9.936,3.334c4.246-4.49,9.799-7.349,15.888-8.838
		c5.624-1.375,11.304-0.197,16.781-1.732c-2.948,6.023-7.51,12.77-13.553,15.207c-6.714,2.708-13.78-0.586-20.6-2.135
		c4.759-1.159,9.103-3.989,14.089-3.95c3.794,0.03,6.937,0.506,9.844-2.317C326.788,371.734,325.373,370.321,324.447,371.22z
		 M292.997,354.302c2.198-4.431,6.726-7.241,9.829-11.108c0.402,1.743,0.882,3.436,1.646,5.102
		c1.995,4.347,4.255,6.343,3.384,11.531c-0.949,5.649-4.957,10.015-7.266,15.14c-0.153-3.125-0.599-6.19-1.162-9.3
		c-1.042-5.759,0.998-9.824,2.689-15.142c0.392-1.233-1.539-1.756-1.928-0.532c-1.188,3.733-2.863,7.195-3.252,11.13
		c-0.477,4.826,1.338,9.898,1.663,14.842C293.568,369.578,288.862,362.638,292.997,354.302z M260.095,369.214
		c2.425-0.163,4.547-0.766,6.897-1.924c6.785-3.343,10.742-1.045,16.282,2.924c4.553,3.262,7.975,5.465,9.492,11.228
		c0.521,1.977,0.577,4.009,0.566,6.054c-0.969-2.223-2.363-4.285-3.902-6.115c-3.192-3.794-8.512-3.129-11.736-6.496
		c-0.894-0.933-2.306,0.483-1.414,1.414c2.603,2.717,6.402,2.707,9.536,4.49c3.502,1.992,6.339,7.349,6.784,11.389
		c-2.37-0.979-4.799-1.745-7.286-2.46c-4.446-1.278-8.364-3.354-12.386-5.577c-2.112-1.167-4.056-2.537-5.813-4.195
		c-2.3-2.171-1.2-3.81-2.253-6.085c-0.548-1.184-0.532-1.206-1.459-1.916C262.154,370.99,261.072,370.302,260.095,369.214z
		 M278.227,402.816c0,4.663-3.794,8.457-8.457,8.457s-8.457-3.794-8.457-8.457s3.794-8.457,8.457-8.457
		S278.227,398.153,278.227,402.816z M235.625,430.539v-50.451h29.182c0.662,1.092,1.574,2.045,2.845,3h-29.027v44.451h43.38v-36.717
		c0.992,0.352,1.993,0.669,3,0.97v38.084l-0.507,0.662h-48.873V430.539z M254.328,408.254c0,0.883-0.431,1.66-1.089,2.151v7.263h-3
		v-7.123c-0.747-0.457-1.251-1.262-1.285-2.193l-7.155-3.812l1.41-2.647l7.333,3.906c0.335-0.15,0.704-0.237,1.094-0.237
		c0.263,0,0.511,0.049,0.751,0.12l6.204-4.136l1.664,2.496l-5.952,3.968C254.311,408.091,254.328,408.17,254.328,408.254z
		 M266.165,457.573l5.438-6.262l-5.536,6.604C266.062,457.788,266.094,457.666,266.165,457.573z M267.764,459.391l6.358-7.587
		l14.262,9.157l0.088,11.841L267.764,459.391z M290.994,474.435l-0.177-0.115l-0.089-11.91c0.126,0.052,0.257,0.097,0.391,0.134
		L290.994,474.435z M293.334,473.867l0.12-11.508c0.055-0.025,0.109-0.053,0.163-0.081l0.083,11.104L293.334,473.867z
		 M328.166,420.118c0.517,1.543,1.564,4.675,1.57,5.487l-33.727,44.715l-0.078-10.496l32.038-40.299L328.166,420.118z
		 M307.622,404.748c0.123-0.16,0.33-0.255,0.553-0.255c0.158,0,0.308,0.049,0.465,0.167l18.021,11.117
		c0.291,0.238,0.35,0.663,0.136,0.942l-34.211,43.033c-0.208,0.271-0.647,0.366-1.012,0.092l-16.967-10.89
		c-0.142-0.114-0.233-0.275-0.257-0.456c-0.025-0.183,0.022-0.362,0.133-0.507l18.324-23.91c0.763,3.469,2.141,6.725,4.475,9.387
		c0.1,0.114,0.208,0.188,0.317,0.24c1.678,1.89,4.429,3.948,6.286,1.298c1.447-2.066-1.22-4.616-3.144-6.129
		c-1.217-1.7-2.387-3.385-3.395-5.161c-0.601-1.15-1.162-2.281-1.579-3.498L307.622,404.748z M288.448,425.385l-0.198-32.626
		c1.834,0.562,3.652,1.182,5.4,2.032c0.003,0.002,0.007,0.001,0.01,0.003c0.018,0.094,0.042,0.187,0.062,0.281
		c-0.561,4.727-0.834,9.51-1.33,14.121c-0.382,3.556-0.566,7.46-0.169,11.264L288.448,425.385z"/>
</g>
</svg>
