<?xml version="1.0" encoding="utf-8"?>
<!-- Generator: Adobe Illustrator 17.0.2, SVG Export Plug-In . SVG Version: 6.00 Build 0)  -->
<!DOCTYPE svg PUBLIC "-//W3C//DTD SVG 1.1//EN" "http://www.w3.org/Graphics/SVG/1.1/DTD/svg11.dtd">
<svg version="1.1" id="Layer_1" xmlns="http://www.w3.org/2000/svg" xmlns:xlink="http://www.w3.org/1999/xlink" x="0px" y="0px"
	 width="252px" height="252px" viewBox="180 270 252 252" enable-background="new 180 270 252 252" xml:space="preserve">
<path fill="#5F8792" d="M343.367,401.386L342.333,420L324,399l0.306-7.407c-9.427-3.223-20.255-5.061-31.776-5.061
	c-18.764,0-35.685,4.872-47.702,12.682l7.172,2.454L270.667,410l8.667-3.667l8.333-2.333l4.667,0.333l6.333,3.667l1.667,4.333
	l4.333,5l-0.667,8h-12L280.667,429L275,426l3.333-2.667l6.333-8l3-1.333l-10-1.333c0,0-3.667,3-6,3s-18,1-18,1L250,422.333l2.667,14
	l-12.667,11l-13.414-18.445c1.155,22.014,30.227,39.643,65.945,39.643c36.451,0,66-18.356,66-41
	C358.531,417.594,352.836,408.483,343.367,401.386z"/>
<path fill="#5F8792" d="M415.844,392.416c-1.669-2.231-3.803-3.803-6.402-4.713c2.902-2.34,4.354-5.188,4.354-8.547
	c0-3.357-1.104-6.143-3.314-8.353c-2.011-2.011-4.403-3.096-7.167-3.278v-9.263c0-0.875-0.709-1.584-1.584-1.584
	s-1.584,0.709-1.584,1.584v9.226h-7.8c-0.434,0-0.803,0.152-1.105,0.455c-0.304,0.304-0.455,0.672-0.455,1.105v42.38
	c0,0.434,0.141,0.802,0.423,1.105c0.281,0.304,0.639,0.455,1.072,0.455h7.865v7.576c0,0.875,0.709,1.584,1.584,1.584
	s1.584-0.709,1.584-1.584v-7.576h2.032c3.596,0,6.662-1.268,9.197-3.803s3.803-5.6,3.803-9.197
	C418.347,397.172,417.512,394.648,415.844,392.416z M408.24,373.078c1.581,1.604,2.372,3.521,2.372,5.752
	c0,2.232-0.791,4.139-2.372,5.72c-1.385,1.385-3.027,2.163-4.925,2.335V370.71C405.213,370.886,406.854,371.676,408.24,373.078z
	 M393.972,370.673h6.175v16.25h-6.175V370.673z M393.972,409.803v-19.63h6.175v19.63H393.972z M412.237,406.943
	c-1.907,1.907-4.204,2.86-6.89,2.86h-2.032v-19.63h2.032c2.686,0,4.982,0.965,6.89,2.893c1.906,1.929,2.882,4.236,2.925,6.922
	C415.118,402.718,414.143,405.037,412.237,406.943z"/>
<g>
	<path fill="#231F20" d="M344.959,414.601l2.586-52.184l-24.296-7.383l-1.342,44.431l12.62,14.781l-12.889-0.15
		c0,0,5.772,13.557,7.786,13.691s25.773,0.134,25.773,0.134l0.134-2.819L344.959,414.601z M340.014,414.236l-14.079-18.107
		l0.676-34.92l15.431,5.761L340.014,414.236z"/>
	<path fill="#231F20" d="M331.706,437.587l-19.195-32.216l-15.723,0.371c-0.296-0.289-0.585-0.591-0.864-0.914
		c-0.116-0.135-0.18-0.277-0.215-0.418c-1.096-0.641-2.227-1.156-3.251-1.511c-6.21-2.152-11.421,1.702-17.054,3.105
		c-2.901-1.845-7.605-1.344-10.832-1.428c-8.001-0.209-11.897-5.853-14.567-12.572c-0.408-1.027-0.902-1.887-1.501-2.606
		c3.125,0.65,6.1,0.011,7.035-3.887c0.495-2.065,0.261-3.482,2.813-4.05c0.975-0.217,1.853-1.367,2.1-2.268
		c0.491-1.786,0.155-2.816,1.439-4.439c1.063-1.343,1.359-3.27,1.997-4.823c0.242-0.589,0.086-1.064-0.253-1.379
		c1.753-1.08,3.526-2.124,5.336-3.094c0.541-0.29,0.929-1.095,0.689-1.694c-3.377-8.429-8.427-14.709-15.52-20.31
		c-6.604-5.216-13.355-4.989-19.782,0.677c-6.451,5.688-8.285,14.345-13.649,20.85c-3.124,3.788-6.257,6.638-8.75,10.952
		c-1.739,3.008-4.202,4.452-6.767,6.634c-1.117,0.949-2.059,2.042-3.027,3.112c-3.836,2.649-5.152,6.29-6.055,10.838
		c-1.235,6.219-3.095,12.121-3.654,18.482c-0.593,6.742,0.501,13.607,0.873,20.334c0.401,7.247,0.69,14.595,0.765,21.853
		c0.015,1.433,1.664,1.802,2.51,1.111c0.147,0.052,0.297,0.1,0.466,0.12c7.217,0.847,14.41,0.163,21.623-0.392
		c6.596-0.507,13.045,0.206,19.591,0.148c2,0.17,3.95-0.096,5.623-0.895c6.571-1.142,13.431-5.251,19.101-7.728
		c7.522-3.287,13.136-7.165,16.75-14.534c0.971-1.98,3.864-2.509,3.124-5.202c-0.062-0.227-0.153-0.442-0.247-0.656
		c2.239-0.667,4.502-1.248,6.661-2.095c-0.001,0.058,0.008,0.12,0.013,0.18c0.262-0.141,0.523-0.285,0.785-0.427l5.37,14.931
		l36.377-1.879L331.706,437.587z M248.2,380.292c1.968-1.85,4.138-3.553,6.23-5.26c1.931-1.575,3.954-3.038,6.024-4.433
		c-0.422,1.191-0.87,2.367-1.791,3.275c-0.577,0.568-1.076,1.321-1.292,2.105c-0.168,0.612,0.352,2.552-0.664,2.778
		c-0.824,0.184-1.676,0.36-2.306,0.99c-1.523,1.523-1.501,3.913-1.971,5.872c-0.617,2.574-5.641,0.211-7.455-0.765
		C245.703,383.208,246.583,381.812,248.2,380.292z M279.896,407.538c3.249-1.493,6.118-1.992,9.66-2.008
		c3.017-0.014,5.186,1.743,7.274,3.687c-0.054-0.005-0.114-0.012-0.162-0.015c-2.947-0.183-7.808-2.079-10.32,0.211
		c-0.901,0.821-0.329,2.137,0.662,2.507c-1.129-0.422-6.336-0.048-8.733-0.611c-0.276-0.065-0.525-0.052-0.749,0.009
		c-0.139-0.902-0.196-1.834-0.389-2.695C278.068,408.327,278.958,407.969,279.896,407.538z M272.761,423.473
		c-3.647,1.786-7.021,3.819-10.807,5.436c-3.172,1.354-5.624,3.833-8.638,5.463c-0.238-0.822-0.537-1.623-0.833-2.427
		c0.356-3.497,0.457-6.99,0.049-10.495c8.58-0.817,17.717-1.391,25.745-4.564c0.922-0.364,1.51-1.557,0.768-2.382
		c1.494,0.247,2.969,0.35,4.492,0.361c-2.94,2.45-5.397,5.612-7.209,8.699C275.19,423.068,273.959,422.886,272.761,423.473z
		 M293.7,421.104c-2.444,1.22-4.051,2.694-6.749,3.661c-2.039,0.731-4.177,1.206-6.248,1.856c-0.583-0.534-1.212-1.023-1.826-1.47
		c2.464-4.212,5.722-7.594,9.911-10.125c4.191-2.532,8.55-1.779,12.38,0.472c-0.535,0.54-0.546,1.575-0.053,2.208
		c0.692,0.778,1.259,1.629,1.725,2.538C299.634,420.417,296.977,419.468,293.7,421.104z"/>
</g>
</svg>
