<?xml version="1.0" encoding="utf-8"?>
<!-- Generator: Adobe Illustrator 17.0.2, SVG Export Plug-In . SVG Version: 6.00 Build 0)  -->
<!DOCTYPE svg PUBLIC "-//W3C//DTD SVG 1.1//EN" "http://www.w3.org/Graphics/SVG/1.1/DTD/svg11.dtd">
<svg version="1.1" id="Layer_1" xmlns="http://www.w3.org/2000/svg" xmlns:xlink="http://www.w3.org/1999/xlink" x="0px" y="0px"
	 width="612px" height="792px" viewBox="0 0 612 792" enable-background="new 0 0 612 792" xml:space="preserve">
<g>
	<path fill="#5A835F" d="M336.233,390.157v20.049h-53.395l7.393,8.046c0,0,3.569,3.094,3.807,7.615
		c0.238,4.521-0.476,16.895-0.476,16.895s1.428,5.949,1.666,7.377c0.238,1.428,0,5.949-0.238,7.139
		c-0.095,0.473-0.453,1.623-0.849,2.835c34.367-1.427,61.538-19.185,61.538-40.896C355.679,407.859,348.242,397.582,336.233,390.157
		z"/>
	<path fill="#5A835F" d="M247.636,439.668l0.238-14.991l-6.425-14.04l-0.327-0.431h-0.549v-0.723l-8.115-10.688
		c-5.576,6.013-8.78,12.983-8.78,20.421c0,12.921,9.631,24.439,24.665,31.954L247.636,439.668z"/>
</g>
<g>
	<path fill="#5A835F" d="M374.711,331.709c0-0.433,0.151-0.802,0.455-1.105c0.303-0.302,0.672-0.454,1.105-0.454
		c0.433,0,0.801,0.152,1.104,0.454c0.303,0.304,0.455,0.673,0.455,1.105v2.6c4.073,0.348,7.931,1.864,11.57,4.551
		c0.606,0.477,0.91,0.953,0.91,1.43c0,0.478-0.163,0.877-0.487,1.202c-0.325,0.325-0.716,0.487-1.171,0.487
		c-0.454,0-0.855-0.151-1.202-0.454c-3.033-2.427-6.283-3.836-9.75-4.226v18.2c4.94,1.04,8.515,2.524,10.725,4.452
		c2.211,1.929,3.315,4.55,3.315,7.865s-1.3,6.089-3.9,8.32c-2.6,2.232-5.937,3.412-10.01,3.542v5.07
		c0,0.433-0.152,0.801-0.455,1.104c-0.304,0.303-0.672,0.455-1.104,0.455c-0.434,0-0.803-0.152-1.105-0.455
		c-0.304-0.304-0.455-0.672-0.455-1.104v-5.135c-5.417-0.433-10.292-2.535-14.625-6.306c-0.477-0.39-0.715-0.822-0.715-1.3
		c0-0.477,0.163-0.877,0.487-1.202c0.325-0.325,0.716-0.487,1.17-0.487c0.455,0,0.834,0.152,1.138,0.455
		c3.727,3.467,7.951,5.438,12.675,5.914v-18.524c-4.854-1.083-8.363-2.578-10.529-4.485c-2.168-1.906-3.25-4.495-3.25-7.768
		c0-3.271,1.288-6.022,3.867-8.255c2.578-2.231,5.839-3.39,9.782-3.478V331.709z M367.269,339.639
		c-1.929,1.647-2.893,3.651-2.893,6.013c0,2.362,0.736,4.247,2.21,5.655c1.473,1.408,4.226,2.59,8.255,3.542v-17.745
		C371.722,337.147,369.196,337.992,367.269,339.639z M385.469,374.187c1.972-1.668,2.957-3.715,2.957-6.143
		c0-2.427-0.77-4.344-2.307-5.753c-1.539-1.407-4.346-2.567-8.418-3.478v17.94C380.907,376.711,383.496,375.855,385.469,374.187z"/>
</g>
<polygon fill="#231F20" points="318.215,390.243 315.238,384.141 310.025,370.871 298.052,349.496 293.188,354.089 285.813,349.766 
	278.716,365.631 273.356,346.988 267.572,357.802 262.721,347.131 257.219,358.922 250.937,353.073 239.471,361.151 
	241.199,363.603 250.675,356.927 258.193,363.928 262.686,354.302 267.354,364.572 272.515,354.921 278.101,374.351 
	287.185,354.047 293.612,357.814 297.315,354.317 307.271,372.063 312.468,385.293 315.681,391.885 309.681,395.771 
	321.084,398.208 323.521,386.806 "/>
<path fill="#231F20" d="M296.452,445.881c-1.577-7.448,1.38-14.974-0.453-22.443c-2.553-10.402-15.871-13.78-18.047-24.338
	c-0.069-0.336-0.296-0.609-0.584-0.805c0.019-0.058,0.025-0.085-0.012-0.009c-0.002-0.001-0.003-0.002-0.005-0.004
	c0.099-0.238,0.151-0.485,0.15-0.727c3.341-0.868,6.592-5.593,7.891-8.392c3.231-6.964-2.239-13.672-8.96-15.005
	c-0.174-1.149-0.959-2.117-2.665-2.485c-6.448-1.39-11.094,1.958-16.341,5.114c-7.725,4.646-35.866,7.987-26.218,22.604
	c5.253,7.959,13.941,15.886,14.921,25.819c0.48,4.862,0.169,9.806,0.606,14.693c0.485,5.423,1.016,10.781,0.667,16.231
	c-0.124,1.933,2.877,1.921,3,0c0.048-0.749,0.07-1.497,0.087-2.244c0.366,2.93,1.469,5.232,3.963,5.594
	c7.036,1.023,3.938-14.457,4.571-18.089c1.049-6.012,8.908-18.125,3.806-23.909c0.801-0.813,1.303-1.813,1.514-2.877
	c1.083,1.187,2.211,2.311,3.487,3.323c0.699,0.555,1.422,0.555,2.121,0c3.709-2.942,5.465-7.488,8.389-11.087
	c3.71,4.948,9.432,8.54,13.005,13.681c3.961,5.699,2.021,13.218,1.681,19.629c-0.28,5.287,3.807,12.845,1.22,17.603
	c-0.924,1.7,1.666,3.214,2.59,1.514C299.144,455.027,297.385,450.287,296.452,445.881z M246.233,384.267
	c5.372-1.745,10.523-3.362,15.272-6.508c2.673-1.771,4.955-3.017,8.235-3.339c0.244-0.024,5.221-0.292,2.965,1.999
	c-1.234,1.254-3.432,2.037-5.015,2.681c-5.135,2.087-9.737,5.016-14.793,7.242c-2.275,1.001-4.279,1.99-6.183,3.595
	c-0.029,0.024-0.052,0.051-0.08,0.075c-0.239-0.303-0.593-0.528-1.063-0.58c-3.057-0.344-6.134-0.361-9.129-0.98
	C239.369,386.451,242.9,385.35,246.233,384.267z M257.107,394.03c-2.72-1.084-6.097-1.198-8.981-1.233
	c1.573-1.928,4.049-2.914,6.284-3.864c0.902-0.384,1.774-0.829,2.634-1.297C256.866,389.871,256.605,391.997,257.107,394.03z
	 M260.067,410.284c-0.376,1.764-0.613,3.521-0.482,5.291c-4.295,7.077-6.202,16.547-7.798,24.473
	c-0.317,1.575-1.106,5.236-1.363,8.964c-0.216-4.843-0.8-9.667-1.109-14.519c-0.31-4.878,0.338-9.867-1.204-14.527
	c0.222-0.236,0.374-0.554,0.389-0.964c0.201-5.575,3.088-10.834,5.795-15.576c0.961-1.683-1.632-3.194-2.59-1.514
	c-2.386,4.179-4.786,8.702-5.761,13.485c-3.206-5.72-7.403-10.86-11.214-16.177c-2.323-3.241-3.013-5.8-0.99-8.365
	c3.609,1.135,7.381,1.145,11.119,1.511c-0.933,1.644-1.689,3.218-4.286,3.494c-1.903,0.202-1.923,3.204,0,3
	c1.893-0.201,3.9-0.438,5.129-2.084c0.241-0.322,0.451-0.659,0.652-1.001c4.146,0.054,9.668-0.392,12.291,3.322
	c2.039,2.887,0.443,6.82,2.108,9.787c0.075,0.134,0.156,0.257,0.243,0.369C260.562,409.365,260.193,409.693,260.067,410.284z
	 M268.856,414.874c-1.05-0.941-2.007-1.966-2.946-3.024c0.295-0.566,0.228-1.283-0.243-1.753c-0.104-0.104-0.21-0.208-0.317-0.312
	c3.522-1.26,7.964-4.949,10.47-7.375c0.241,0.624,0.529,1.217,0.836,1.796C273.765,407.527,272.022,411.812,268.856,414.874z
	 M275.42,393.982c-1.117-1.557-3.721-0.062-2.59,1.514c0.566,0.789,1.161,1.338,1.772,1.693c-0.241,0.67-0.31,1.339-0.311,2.071
	c0,0.171,0.03,0.322,0.073,0.463c-1.272,1.417-2.658,2.607-4.282,3.769c-0.601,0.43-6.76,4.068-6.999,3.187
	c-0.719-2.645-0.455-5.157-1.28-7.696c2.252,0.281,4.789-0.79,7.087-0.603c1.929,0.157,1.914-2.844,0-3
	c-2.283-0.186-5.234,1.462-7.313,0.392c-1.269-0.653-1.772-1.902-1.915-3.344c0.061,0.003,0.122,0.011,0.185,0.003
	c1.441-0.18,2.745-0.021,4.122,0.422c1.847,0.594,2.631-2.303,0.798-2.893c-1.003-0.323-2.026-0.513-3.061-0.572
	c0.073-0.174,0.117-0.372,0.117-0.599v-0.789l0.836,0.418c0.731,0.365,1.619,0.201,2.052-0.538c0.393-0.67,0.193-1.687-0.538-2.052
	c-0.707-0.354-1.415-0.707-2.122-1.061c0.875-0.482,1.762-0.939,2.677-1.339c0.124,0.181,0.299,0.345,0.549,0.47
	c1.45,0.725,2.901,1.442,4.404,2.055c0.758,0.309,1.648-0.33,1.845-1.048c0.236-0.859-0.291-1.537-1.048-1.845
	c-0.748-0.305-1.478-0.654-2.204-1.013c1.6-0.632,3.165-1.326,4.657-2.196c0.096,0.059,0.201,0.111,0.318,0.153
	c3.807,1.352,3.094,6.314,2.706,9.5c-0.152,1.249,1.356,1.708,2.257,1.295c1.108-0.508,2.235-0.759,3.414-0.954
	C279.925,392.634,277.017,396.208,275.42,393.982z"/>
<path fill="#231F20" d="M280.31,441.701c-0.74-2-2.022-3.813-2.946-5.735c-1.35-2.809-1.837-5.973-2.269-9.025
	c-0.27-1.909-3.161-1.094-2.893,0.797c0.628,4.433,1.763,8.352,3.871,12.302c3.099,5.807,2.792,11.376,2.738,17.758
	c-0.016,1.935,2.984,1.934,3,0C281.858,452.318,282.242,446.926,280.31,441.701z"/>
<g>
	<polygon fill="#231F20" points="239.073,336.605 239.073,385.125 242.073,384.048 242.073,339.605 334.732,339.605 
		334.732,408.707 282.154,408.707 282.692,409.493 284.726,411.707 337.732,411.707 337.732,336.605 	"/>
</g>
</svg>
