<?xml version="1.0" encoding="utf-8"?>
<!-- Generator: Adobe Illustrator 17.0.2, SVG Export Plug-In . SVG Version: 6.00 Build 0)  -->
<!DOCTYPE svg PUBLIC "-//W3C//DTD SVG 1.1//EN" "http://www.w3.org/Graphics/SVG/1.1/DTD/svg11.dtd">
<svg version="1.1" id="Layer_1" xmlns="http://www.w3.org/2000/svg" xmlns:xlink="http://www.w3.org/1999/xlink" x="0px" y="0px"
	 width="612px" height="792px" viewBox="0 0 612 792" enable-background="new 0 0 612 792" xml:space="preserve">
<polygon fill="#A29352" points="235.945,416.128 229.901,410.321 223.976,401.552 222.672,397.404 226.938,395.982 235.589,394.086 
	243.648,394.56 245.899,399.063 244.596,406.647 242.581,415.417 242.344,420.276 "/>
<g>
	<path fill="#A29352" d="M212.118,427.516l8.449-3.457l3.649-2.113l-15.363-16.515l-0.609-3.169
		c-3.001,4.686-4.668,9.792-4.668,15.142c0,5.156,1.547,10.086,4.344,14.632L212.118,427.516z"/>
	<path fill="#A29352" d="M315.455,387.946l1.898,15.374l3.073,12.29l-0.96,7.49l-4.417,6.529l-8.258,4.417l-11.138,4.609
		l-13.826,4.225l-11.906-0.96l-7.489-1.344l-11.33-5.377l-2.496,2.112l-1.344,7.873l-6.721,8.45l-1.036,0.265
		c9.021,2.875,19.237,4.507,30.073,4.507c36.451,0,66-18.356,66-41C335.576,405.839,327.855,395.4,315.455,387.946z"/>
</g>
<g>
	<path fill="#A29352" d="M380.373,402.581l-0.585,0.065c-0.737,0-1.234-0.346-1.495-1.04l-4.029-10.725h-20.735l-4.03,10.725
		c-0.26,0.694-0.759,1.04-1.495,1.04l-0.585-0.065c-0.39-0.173-0.682-0.465-0.877-0.877c-0.195-0.412-0.206-0.812-0.032-1.203
		l15.795-42.185c0.303-0.65,0.845-0.975,1.625-0.975c0.779,0,1.277,0.325,1.495,0.975l15.795,42.185c0.172,0.39,0.172,0.791,0,1.203
		C381.045,402.116,380.764,402.408,380.373,402.581z M363.929,363.256l-9.23,24.44h18.396L363.929,363.256z"/>
	<path fill="#A29352" d="M386.743,389.646v-17.355c0-0.433,0.151-0.801,0.455-1.105c0.303-0.303,0.672-0.455,1.105-0.455
		s0.801,0.152,1.104,0.455c0.303,0.304,0.455,0.672,0.455,1.105v17.355c0,2.73,0.953,5.049,2.86,6.955
		c1.906,1.907,4.203,2.882,6.89,2.925c2.73-0.042,5.06-1.018,6.988-2.925c1.927-1.906,2.892-4.225,2.892-6.955v-17.355
		c0-0.433,0.163-0.801,0.488-1.105c0.324-0.303,0.703-0.455,1.137-0.455s0.802,0.152,1.105,0.455
		c0.303,0.304,0.455,0.672,0.455,1.105v17.355c0,3.597-1.268,6.663-3.803,9.197c-2.535,2.535-5.601,3.803-9.197,3.803
		c-3.598,0-6.652-1.268-9.165-3.803C388,396.309,386.743,393.243,386.743,389.646z"/>
</g>
<path fill="#231F20" d="M319.068,399.904c-0.005-0.44-0.169-0.774-0.412-1.014c-1.099-5.576-1.46-11.059-2.106-16.72
	c-0.511-4.478-3.459-7.661-6.892-10.269c-4.03-3.063-9.179-4.949-13.823-6.878c-1.948-0.809-4.432-1.334-5.739-3.144
	c-1.44-1.995-0.806-5.573-0.831-7.876c-0.086-7.942-2.389-15.901-10.248-19.144c-7.68-3.169-18.12-0.335-22.365,6.823
	c-2.004,3.378-1.856,7.326-1.348,11.052c0.421,3.09,2.395,8.547-1.071,10.76c-2.106,1.344-4.88,1.865-7.175,2.88
	c-11.183,4.942-20.551,13.046-31.861,17.606c-7.837,3.16-11.928,7.84-9.348,16.446c2.691,8.977,10.884,15.105,17.366,21.559
	c-8.885,0.777-14.654,5.434-19.407,13.217c-3.033,4.967,3.585,14.05,8.557,15.366c2.576,0.682,4.871,0.778,7.264,2.118
	c2.429,1.36,4.401,3.363,6.885,4.668c4.323,2.271,9.388-0.195,13.396-1.953c3.143-1.379,6.177-3.034,7.387-6.461
	c1.07-3.03,2.303-6.601,2.948-10.055c1.084,0.176,2.182,0.202,3.283,0.277c0.027,0.566,0.349,1.108,1.058,1.304
	c3.494,0.97,5.977,4.264,9.924,2.98c0.272-0.089,0.48-0.232,0.642-0.403c3.068,0.694,6.068,1.609,9.201,1.98
	c3.655,0.432,7.73-0.706,11.307-1.315c7.331-1.247,13.975-4.327,20.594-7.594c5.422-2.677,11.524-6.136,14.289-11.78
	C324.032,417.218,319.155,407.256,319.068,399.904z M287.079,370.419c0.434,0.351,0.921,0.416,1.359,0.308
	c-0.079,0.636-0.156,1.274-0.24,1.91c-1.571-0.913-3.023-1.921-3.955-3.523c-0.515-0.885-0.737-1.913-0.84-2.955
	C284.296,367.786,285.597,369.218,287.079,370.419z M276.22,371.769c-1.163,0-2.307,0.052-3.457,0.209
	c0.647-0.811,1.586-1.334,2.766-1.408c1.956-0.124,3.414,1.61,3.119,3.538c-0.398,2.598-4.771,2.813-6.005,0.795
	c0.201,0.03,0.411,0.032,0.623-0.001c0.973-0.15,1.972-0.132,2.954-0.133C278.155,374.768,278.155,371.768,276.22,371.769z
	 M277.319,358.088c0.128-0.057,0.252-0.12,0.379-0.178c0.131,0.24,0.323,0.458,0.558,0.637c0.47,0.358,1.12,0.389,1.688,0.391
	c1.476,0.005,1.822-1.737,1.046-2.567c0.486-0.205,0.982-0.384,1.495-0.513c0.187-0.047,0.304-0.05,0.379-0.042
	c0.302,1.338-0.77,3.216-1.974,3.642C279.476,359.958,277.985,359.346,277.319,358.088z M277.282,340.933
	c3.427,1.618,6.101,4.573,6.631,8.306C282.6,346.125,280.193,343.061,277.282,340.933z M280.055,338.631
	c1.867,0.997,3.134,2.316,4,3.844c-2.837-3.393-7.429-5.438-12.417-5.797c-0.111-0.008-0.215-0.008-0.324-0.013
	C274.218,336.523,277.257,337.137,280.055,338.631z M266.605,342.549c-1.081,2.029-1.255,4.983-2.229,7.043
	C264.863,347.12,265.202,344.522,266.605,342.549z M263.564,358.555c0.015-0.708,0.87-1.057,2.012-1.139
	c-0.643,0.864-0.265,2.451,1.144,2.453c0.184,0,0.368,0.002,0.552,0.007c0.072,0.002,0.354,0.048,0.181-0.025
	c0.753,0.319,1.6,0.234,2.052-0.538c0.215-0.367,0.248-0.885,0.097-1.321c1.19,0.423,2.052,1.036,1.932,1.75
	c-0.476,2.84-8.219,2.708-8.149-0.494C263.491,359.053,263.559,358.825,263.564,358.555z M265.759,367.221
	c-0.885,1.721-1.558,3.544-2.321,5.326c-0.014-0.132-0.032-0.263-0.045-0.396c0.049-0.105,0.092-0.216,0.118-0.346
	c0.34-1.678,0.675-3.349,0.903-5.035C264.842,366.949,265.285,367.105,265.759,367.221z M247.713,434.361
	c0.055,3.714-1.705,7.133-2.438,10.735c-0.633,3.108-1.731,5.046-4.537,6.631c-3.966,2.241-9.596,4.67-13.908,2.404
	c-2.581-1.356-4.516-3.732-7.243-4.861c-3.07-1.27-6.311-0.979-8.834-3.413c-1.998-1.927-5.796-6.008-4.351-9.143
	c3.378-7.331,9.995-11.292,17.726-11.787c0.112,0.266,0.325,0.504,0.674,0.671c1.428,0.683,2.91,0.939,4.468,1.156
	c0.36,0.05,0.769,0.093,1.195,0.145c-0.85,0.535-1.759,0.978-2.697,1.358c-0.757,0.307-1.284,0.987-1.048,1.845
	c0.198,0.719,1.086,1.356,1.845,1.048c1.955-0.793,3.785-1.744,5.371-3.125c0.14,0.118,0.274,0.241,0.385,0.387
	c0.232,0.303,0.522,0.482,0.828,0.568c0.435,1.433-0.327,2.881-0.793,4.236c-0.631,1.835,2.268,2.616,2.893,0.798
	c0.534-1.554,1.167-3.14,1.018-4.76c0.626,0.526,1.239,1.034,1.807,1.372c0.353,0.21,0.706,0.376,1.058,0.517
	c0.241,2.693-1.007,5.115-2.528,7.302c-1.107,1.593,1.495,3.09,2.59,1.514c1.711-2.46,2.86-5.098,2.924-7.979
	c1.067,0.279,2.133,0.656,3.197,1.514c0.16,0.129,0.322,0.226,0.483,0.337C247.745,433.989,247.71,434.162,247.713,434.361z
	 M232.428,410.057c-3.372-3.724-6.363-7.464-8.227-12.09c2.464-0.524,5.039-0.657,7.49-1.315c4.243-1.139,11.949-4.112,12.483,3.114
	c0.439,5.943-2.757,11.728-3.139,17.661C237.395,415.857,235.168,413.083,232.428,410.057z M250.691,416.303
	c-1.013,0.731-1.989,1.513-3.041,2.182c1.127-2.995,1.882-6.831,4.289-8.488c1.758-1.209,6.768,6.014,7.723,8.83
	c-2.39-0.481-5.285-0.113-7.626,0.191c0.057-0.041,0.112-0.084,0.169-0.125c0.662-0.477,0.981-1.295,0.538-2.052
	C252.36,416.186,251.355,415.823,250.691,416.303z M253.725,433.488c0.387-0.472,0.696-1.062,0.912-1.752
	c0.291,0.167,0.624,0.386,0.897,0.568c0.682,0.454,1.657,0.136,2.052-0.538c0.432-0.737,0.141-1.6-0.538-2.052
	c-0.651-0.433-1.296-0.815-2.035-1.083c-0.027-0.01-0.056-0.011-0.083-0.019c-0.01-0.142-0.015-0.291-0.027-0.431
	c0.283,0.013,0.572-0.024,0.841-0.162c0.648-0.33,1.258-0.715,1.863-1.117c0.679-0.452,0.97-1.316,0.538-2.052
	c-0.395-0.674-1.371-0.992-2.052-0.538c-0.584,0.389-1.175,0.759-1.799,1.082c-0.521-1.4-1.316-2.492-2.327-3.365
	c1.371-0.186,2.737-0.401,4.118-0.514c0.758-0.062,4.871,0.219,4.946,1.713c0.04,0.792-0.331,1.83-0.469,2.611
	c-0.786,4.452,0.715,8.821,1.053,13.243C258.722,438.429,255.932,435.43,253.725,433.488z M318.139,422.247
	c-1.257,5.485-8.899,8.977-13.396,11.274c-5.384,2.75-10.991,5.316-16.885,6.704c-3.913,0.921-8.142,1.666-12.146,1.847
	c-0.178,0.008-0.357,0.003-0.536,0.003c1.122-3.04,0.75-5.596-0.515-7.718c0.55,0.023,1.112,0.023,1.71-0.044
	c5.546-0.618,10.9-3.721,15.506-6.666c3.282-2.098,5.98-4.25,6.66-8.254c1.021-6.019,0-12.464,0.416-18.558
	c0.132-1.932-2.869-1.919-3,0c-0.339,4.972-0.173,9.943-0.191,14.922c-0.017,4.693-1.467,6.76-5.399,9.3
	c-4.048,2.615-8.281,4.81-12.965,6.037c-2.281,0.597-4.269,0.29-6.171-0.346c-2.192-1.596-4.889-2.781-7.46-3.606
	c-0.036-0.012-0.069-0.013-0.104-0.022c0.325-1.683,0.741-3.409,0.286-4.823c-0.28-0.87-0.74-1.532-1.308-2.056
	c0.091-0.172,0.155-0.368,0.178-0.592c0.292-2.867-2.242-5.671-3.897-7.737c-1.497-1.869-3.57-4.747-6.167-4.995
	c-5.242-0.501-6.531,8.004-8.378,11.614c-0.167-0.063-0.334-0.127-0.5-0.187c0.071-0.165,0.121-0.347,0.13-0.558
	c0.226-5.05,2.214-9.843,2.962-14.824c0.356-2.372,0.674-7.347-1.539-9.12c-2.688-2.154-5.771-1.94-9.069-1.583
	c-2.427,0.263-4.848,1.335-7.199,1.967c-2.427,0.652-4.945,0.508-7.355,1.253c-0.747,0.231-1.314,1.052-1.048,1.845
	c1.957,5.814,5.49,10.345,9.547,14.856c0.579,0.643,1.136,1.259,1.686,1.851c-0.02,0.062-0.044,0.121-0.058,0.19
	c-0.494,2.509-4.941,3.527-6.961,4.354c-0.228,0.093-0.412,0.224-0.559,0.377c-5.975-5.852-12.712-11.305-15.67-19.323
	c-3.854-10.448,7.275-12.337,14.341-15.694c5.082-2.414,9.365-6.482,14.326-9.18c1.652-0.898,3.357-1.838,5.089-2.757
	c0.205,0.046,0.432,0.051,0.677-0.003c3.839-0.837,9.567-0.817,13.195,1.59c2.758,5.114,4.65,11.187,9.167,14.793
	c0.896,1.272,1.871,2.45,3.193,3.213c3.378,1.95,6.91,1.875,10.517,0.59c7.227-2.577,10.326-9.703,12.405-16.639
	c0.062-0.067,0.123-0.136,0.178-0.219c2.963-4.474,9.777-3.29,14.269-2.151c4.428,2.708,7.403,6.294,7.709,12.114
	c0.29,5.502,1.094,10.747,2.312,16.137c0.005,0.021,0.014,0.038,0.02,0.059C316.651,408.367,319.696,415.452,318.139,422.247z"/>
</svg>
